<svg width="38" height="38" viewBox="0 0 38 38" fill="none" xmlns="http://www.w3.org/2000/svg">
<mask id="mask0_1312_36210" style="mask-type:alpha" maskUnits="userSpaceOnUse" x="0" y="0" width="38" height="38">
<circle cx="19.3203" cy="19.1328" r="18.5" fill="#D9D9D9"/>
</mask>
<g mask="url(#mask0_1312_36210)">
<rect x="0.820312" y="0.632812" width="37" height="37" fill="url(#paint0_linear_1312_36210)"/>
<path d="M14.8849 15.7656L14.8854 15.7656C17.5331 15.7671 20.1808 15.7666 22.8285 15.7661C24.134 15.7659 25.4395 15.7657 26.7449 15.7657C30.0214 15.7635 32.3758 17.9553 32.3662 21.2832C32.3615 22.8605 32.2029 25.3155 31.9605 27.9665C31.6777 31.0607 31.2685 34.6013 30.7949 37.6334H27.819C28.3011 34.6404 28.7339 30.9739 29.0333 27.6989C29.0514 27.5009 29.0692 27.3081 29.0865 27.1199C29.297 24.83 29.444 23.2306 29.4265 21.4596C29.4077 19.5432 28.5501 18.7051 26.7247 18.7051H15.0476C12.3833 18.7051 10.6468 18.9056 9.5059 21.5644C8.87469 23.0354 7.91161 26.074 7.21709 29.7259C6.74147 32.2267 6.40214 34.9625 6.36972 37.6334H3.43018C3.46274 34.7202 3.83208 31.7919 4.32943 29.1767C5.05277 25.3733 6.06893 22.1199 6.80467 20.4053C8.38343 16.726 11.1301 15.7636 14.8849 15.7656Z" fill="#FF6D3A"/>
<path d="M22.8671 37.6334H19.9254C20.1697 31.6308 21.3509 25.4814 22.6451 21.8607C22.9183 21.0963 23.7594 20.6982 24.5238 20.9714C25.2881 21.2446 25.6862 22.0857 25.413 22.85C24.2338 26.1491 23.1106 31.9509 22.8671 37.6334Z" fill="#FF6D3A"/>
<path fill-rule="evenodd" clip-rule="evenodd" d="M23.5885 9.98758C23.1554 10.1342 23.0313 10.2974 22.9564 10.4752C22.6213 11.2706 22.3447 12.2111 21.8471 14.0292C21.6328 14.8121 20.8245 15.2731 20.0416 15.0588C19.2587 14.8445 18.7977 14.0361 19.012 13.2532C19.4999 11.4704 19.8243 10.3388 20.2476 9.33395C20.7178 8.21786 21.6008 7.5572 22.6459 7.2034C23.6219 6.87297 24.7957 6.78711 26.0452 6.78711C27.3598 6.78711 28.5887 6.97223 29.5401 7.49884C30.5966 8.08364 31.3492 8.88346 31.2421 10.3471C31.135 11.8108 30.8768 12.8329 30.6377 14.0406C30.4801 14.8369 29.7068 15.3546 28.9106 15.197C28.1143 15.0394 27.5966 14.2661 27.7542 13.4699C27.9262 12.6013 28.0841 11.8407 28.2802 10.8192C28.3472 10.47 28.3978 10.2262 28.1165 10.0705C27.8028 9.89685 27.1594 9.72652 26.0452 9.72652C24.8657 9.72652 24.0906 9.81759 23.5885 9.98758Z" fill="url(#paint1_linear_1312_36210)"/>
</g>
<defs>
<linearGradient id="paint0_linear_1312_36210" x1="37.672" y1="0.471491" x2="1.25603" y2="37.6461" gradientUnits="userSpaceOnUse">
<stop stop-color="#FFEB75"/>
<stop offset="0.920669" stop-color="#FEE14A"/>
</linearGradient>
<linearGradient id="paint1_linear_1312_36210" x1="25.1058" y1="17.2018" x2="31.2522" y2="6.78711" gradientUnits="userSpaceOnUse">
<stop stop-color="#BB0C40"/>
<stop offset="0.76762" stop-color="#C70E4B"/>
</linearGradient>
</defs>
</svg>
