<svg width="210" height="210" viewBox="0 0 210 210" fill="none" xmlns="http://www.w3.org/2000/svg">
<g clip-path="url(#clip0_1397_35856)">
<path d="M54.9101 161.557C53.4307 163.413 51.5661 164.928 49.4446 165.998C47.3232 167.068 44.9951 167.667 42.6196 167.755V167.755C42.7015 165.384 43.2997 163.06 44.3726 160.943C45.4456 158.826 46.9674 156.967 48.8329 155.496L55.5792 154.924L54.9101 161.557Z" fill="#FFDCB6"/>
<path d="M54.7452 161.475C53.2446 163.239 51.3906 164.671 49.3021 165.677C47.2136 166.683 44.937 167.243 42.6188 167.319L43.0418 167.632C43.1265 165.338 43.7045 163.089 44.7365 161.038C45.7685 158.986 47.2304 157.179 49.0234 155.74L48.6273 155.877C50.9078 155.686 53.1474 155.345 55.4553 155.114L55.2096 154.937C55.0594 157.157 54.9637 159.377 54.7725 161.598C54.7725 161.761 55.0729 161.679 55.0866 161.516C55.2777 159.296 55.5782 157.075 55.8104 154.855C55.8174 154.823 55.8163 154.789 55.8074 154.757C55.7984 154.725 55.7819 154.696 55.759 154.671C55.7362 154.647 55.7079 154.629 55.6763 154.618C55.6448 154.608 55.6112 154.605 55.5783 154.61C53.6392 154.746 51.7137 154.787 49.7882 154.937C49.4877 154.937 49.2008 154.937 48.9003 155.005C48.2039 155.1 47.5349 155.89 47.0706 156.367C43.9568 159.407 42.1454 163.533 42.0176 167.877C42.0176 168.082 42.2635 168.19 42.4411 168.19C44.9218 168.14 47.3573 167.519 49.5578 166.375C51.7583 165.232 53.6646 163.597 55.1276 161.598C55.2505 161.38 54.8544 161.325 54.7452 161.475Z" fill="black"/>
<path d="M31.2716 143.372C34.1803 148.521 45.3781 158.125 53.6673 156.395C53.2303 166.202 60.8641 176.827 65.9578 179.769L68.0198 173.994C68.2339 173.172 68.2464 172.311 68.0562 171.483C67.866 170.656 67.4788 169.886 66.9273 169.24C65.8197 167.96 64.5098 166.869 63.0492 166.011C61.5845 165.148 60.27 164.053 59.1571 162.769C58.6058 162.125 58.2184 161.358 58.0282 160.533C57.838 159.708 57.8505 158.849 58.0645 158.029C58.7769 156.434 60.0358 155.145 61.6152 154.392C63.1839 153.646 64.5268 152.5 65.5074 151.069C66.1759 152.018 67.1626 152.698 68.2896 152.985C69.4165 153.272 70.6093 153.148 71.6526 152.635C73.701 151.545 74.6842 148.835 74.3838 144.83C75.8308 145.447 77.4291 145.622 78.9757 145.331C80.5222 145.04 81.9469 144.296 83.0688 143.195C84.3525 141.833 85.1857 140.103 86.7015 139.109C87.5068 138.577 88.4454 138.28 89.4111 138.254C90.3767 138.227 91.3306 138.472 92.164 138.959C92.2501 136.949 91.7215 134.961 90.6483 133.258C89.5752 131.555 88.008 130.218 86.1551 129.424C88.3834 128.661 90.2351 127.077 91.3308 124.997C92.4151 122.927 93.3285 120.772 94.062 118.554C94.7822 116.331 95.9853 114.294 97.5854 112.588C95.8841 114.192 93.8451 115.397 91.6175 116.116C89.3916 116.842 87.2309 117.753 85.1582 118.84C83.0726 119.933 81.4848 121.78 80.72 124.003C79.9241 122.155 78.5836 120.591 76.8763 119.521C75.1689 118.451 73.1756 117.923 71.1608 118.009C71.6448 118.842 71.8871 119.793 71.8606 120.755C71.8341 121.717 71.5396 122.653 71.0104 123.458C69.9589 124.97 68.17 125.787 66.9136 127.081C65.8099 128.2 65.065 129.621 64.7732 131.164C64.4814 132.707 64.6559 134.301 65.275 135.744C61.2464 135.499 58.5426 136.48 57.4501 138.469C56.9338 139.507 56.8085 140.695 57.0967 141.818C57.3849 142.94 58.0678 143.922 59.0207 144.585C57.5848 145.571 56.4313 146.914 55.6747 148.481C54.9168 150.049 53.6314 151.302 52.0424 152.022C51.2186 152.236 50.3554 152.248 49.5259 152.058C48.6963 151.869 47.9247 151.482 47.2764 150.932C45.9968 149.819 44.904 148.508 44.0398 147.05C43.1753 145.596 42.0828 144.29 40.8035 143.182C40.1541 142.633 39.3832 142.247 38.5544 142.055C37.7255 141.863 36.8627 141.871 36.0375 142.078L31.2716 143.372Z" fill="#E25A6B"/>
<path d="M81.1845 135.133C77.3598 135.259 73.6969 136.703 70.8195 139.22C73.3393 136.348 74.7866 132.695 74.9163 128.881L81.1845 135.133Z" fill="#FFDCB6"/>
<path d="M97.598 112.561C94.8668 115.203 90.77 115.884 87.315 117.274C84.2151 118.513 81.1698 120.624 80.1866 123.975L81.4429 123.689C80.6035 121.756 79.1929 120.125 77.3994 119.012C75.6059 117.9 73.5148 117.36 71.4055 117.464C71.1051 117.464 70.4496 117.818 70.6954 118.227C71.1698 118.999 71.4119 119.891 71.3925 120.797C71.3732 121.703 71.0934 122.584 70.5864 123.335C69.5485 124.806 67.8552 125.596 66.4896 126.849C65.3233 128.007 64.5332 129.488 64.2225 131.099C63.8121 132.738 64.0415 134.472 64.8642 135.949C65.0827 136.276 65.875 136.085 65.7658 135.635C65.2504 134.009 65.1611 132.279 65.5064 130.609C65.9734 128.956 66.9952 127.513 68.4013 126.523C69.9412 125.611 71.2166 124.315 72.102 122.763C72.4415 121.961 72.5921 121.092 72.5424 120.223C72.4927 119.354 72.244 118.508 71.8153 117.75L71.1051 118.527C73.0231 118.47 74.9137 118.991 76.5309 120.021C78.1481 121.051 79.4172 122.543 80.1729 124.302C80.4051 124.861 81.3063 124.438 81.4292 124.003C82.3988 120.652 85.7443 118.935 88.776 117.75C92.0261 116.47 95.3583 115.38 97.7617 112.724C97.8983 112.588 97.6526 112.52 97.557 112.615L97.598 112.561Z" fill="black"/>
<path d="M36.1194 142.297C37.1831 142.122 38.2745 142.249 39.2694 142.664C40.2642 143.078 41.1223 143.763 41.7455 144.64C43.1111 146.248 44.0943 148.209 45.4599 149.844C46.0545 150.634 46.8044 151.295 47.6637 151.787C48.523 152.279 49.474 152.591 50.4582 152.704C51.4162 152.711 52.3601 152.475 53.2011 152.017C54.0421 151.56 54.7526 150.896 55.2652 150.089C56.5215 148.413 57.3408 146.111 59.2526 145.035C59.5531 144.858 59.8124 144.504 59.4437 144.245C58.9579 143.902 58.5462 143.465 58.2328 142.96C57.9193 142.455 57.7107 141.893 57.619 141.306C57.5273 140.719 57.5545 140.12 57.699 139.544C57.8436 138.968 58.1025 138.427 58.4605 137.952C60.0992 136.086 63.0353 136.059 65.2885 135.936C65.466 135.936 65.7256 135.609 65.4389 135.568C62.8033 135.092 59.3346 135.432 57.532 137.666C57.1089 138.221 56.8028 138.856 56.6325 139.532C56.4621 140.209 56.431 140.912 56.5408 141.601C56.6505 142.29 56.899 142.949 57.2713 143.539C57.6435 144.13 58.1317 144.638 58.7065 145.035L58.8976 144.259C57.338 145.311 56.0774 146.746 55.2379 148.427C54.2546 150.048 52.9573 151.86 50.8406 151.832C48.724 151.805 46.935 150.157 45.6923 148.522C44.5716 146.738 43.277 145.068 41.8275 143.537C41.0869 142.786 40.1576 142.246 39.1367 141.976C38.1157 141.705 37.0407 141.712 36.0237 141.998C35.8189 142.066 35.8736 142.365 36.1057 142.297H36.1194Z" fill="black"/>
<path d="M97.5985 112.562C94.8673 114.986 93.7748 118.324 92.4775 121.593C91.3167 124.535 89.596 127.981 86.2913 128.935C85.9499 129.03 85.308 129.67 85.8952 129.915C87.6842 130.682 89.1989 131.97 90.2397 133.611C91.2805 135.252 91.7987 137.169 91.7263 139.11L92.7505 138.538C91.9831 138.107 91.1298 137.851 90.2517 137.788C89.3736 137.724 88.4922 137.855 87.6705 138.17C86.0652 138.977 84.7243 140.225 83.8058 141.766C82.8405 143.19 81.4207 144.246 79.7773 144.763C78.1031 145.153 76.353 145.068 74.7246 144.518C74.3423 144.422 73.7549 144.94 74.2055 145.24C75.6949 146.033 77.4205 146.265 79.0672 145.893C80.6978 145.596 82.2091 144.84 83.4234 143.714C84.789 142.502 85.4855 140.785 86.892 139.628C87.6106 139.082 88.4781 138.766 89.3802 138.722C90.2823 138.679 91.1764 138.909 91.9447 139.382C92.049 139.428 92.1627 139.448 92.2764 139.442C92.3901 139.436 92.5007 139.402 92.5992 139.345C92.6976 139.288 92.7813 139.209 92.8432 139.114C92.9051 139.018 92.9433 138.91 92.9552 138.797C93.0436 136.72 92.4982 134.666 91.3913 132.905C90.2843 131.144 88.6678 129.76 86.7553 128.935L86.3596 129.929C89.7873 128.935 91.9313 125.938 93.1876 122.778C94.5532 119.4 95.1949 115.368 97.7895 112.63C97.9261 112.494 97.6804 112.439 97.5848 112.521L97.5985 112.562Z" fill="black"/>
<path d="M68.3056 174.049C68.5692 173.143 68.5972 172.185 68.387 171.265C68.1767 170.345 67.7353 169.494 67.104 168.791C65.6795 167.289 64.0525 165.991 62.2697 164.936C60.434 163.849 59.0963 162.089 58.5417 160.032C58.2003 157.853 59.5932 156.355 61.2729 155.224C62.9526 154.093 65.001 153.154 66.0662 151.247L65.0556 151.369C65.8939 152.52 67.1503 153.299 68.5563 153.538C69.9624 153.777 71.4066 153.458 72.5801 152.65C74.888 150.892 75.3114 147.487 74.7242 144.844C74.7242 144.586 74.2871 144.736 74.2735 144.94C74.0959 147.228 74.055 150.157 72.225 151.832C71.7698 152.191 71.2453 152.453 70.6844 152.601C70.1235 152.75 69.5381 152.781 68.9644 152.695C68.3907 152.608 67.8409 152.404 67.3494 152.096C66.8579 151.789 66.4351 151.384 66.1072 150.906C66.0412 150.83 65.9576 150.772 65.8638 150.736C65.77 150.7 65.6688 150.688 65.5691 150.7C65.4693 150.712 65.3744 150.748 65.292 150.806C65.2096 150.863 65.1425 150.94 65.0966 151.029C63.2394 154.298 57.8588 154.679 57.4218 158.956C56.9438 163.547 62.0239 165.604 64.9736 167.919C66.8308 169.377 68.5244 171.556 67.8962 174.063C67.8279 174.308 68.2237 174.226 68.2919 174.063L68.3056 174.049Z" fill="black"/>
<path d="M81.2787 135.037C80.4208 134.837 79.5251 134.87 78.6842 135.132C77.6938 135.312 76.7208 135.576 75.7756 135.922C73.8648 136.607 72.0965 137.637 70.5589 138.959L71.1461 139.382C72.4375 137.917 73.4717 136.245 74.205 134.437C74.5591 133.553 74.8424 132.642 75.0518 131.713C75.3168 130.774 75.3864 129.792 75.2565 128.825L74.6011 129.125C76.4446 130.95 78.411 132.68 80.2955 134.451C80.5687 134.71 80.8556 134.955 81.115 135.214C81.115 135.214 81.306 135.214 81.2514 135.118C79.4215 133.307 77.7146 131.372 75.953 129.493C75.7072 129.22 75.4613 128.948 75.2019 128.689C75.1465 128.652 75.0833 128.628 75.0172 128.619C74.9511 128.61 74.8837 128.617 74.8205 128.638C74.7572 128.659 74.6996 128.694 74.6521 128.741C74.6046 128.787 74.5685 128.844 74.5464 128.907C74.3006 129.806 74.2868 130.732 74.1093 131.631C73.9279 132.526 73.677 133.405 73.3585 134.26C72.6867 136.014 71.7113 137.637 70.4769 139.055C70.1355 139.463 70.7363 139.777 71.064 139.491C72.4774 138.238 74.0936 137.234 75.8437 136.521C76.7272 136.17 77.6415 135.901 78.5749 135.718C79.0255 135.622 79.4762 135.554 79.9405 135.5C80.4053 135.485 80.8654 135.403 81.3061 135.254C81.3061 135.254 81.3743 135.077 81.2787 135.037Z" fill="black"/>
<path d="M161.372 155.293C163.232 156.768 164.751 158.628 165.824 160.744C166.896 162.86 167.497 165.182 167.585 167.552V167.552C165.209 167.47 162.878 166.874 160.756 165.803C158.633 164.733 156.77 163.215 155.295 161.354L154.721 154.625L161.372 155.293Z" fill="#FFDCB6"/>
<path d="M161.181 155.428C162.964 156.967 164.406 158.859 165.417 160.983C166.428 163.108 166.985 165.419 167.053 167.769L167.695 167.224C163.764 167.075 160.024 165.496 157.18 162.784C156.852 162.47 156.538 162.143 156.224 161.789C156.058 161.636 155.911 161.462 155.787 161.272C155.787 161.272 155.787 161.34 155.787 161.272C155.732 160.989 155.704 160.702 155.705 160.414C155.705 159.91 155.61 159.392 155.555 158.888C155.5 158.384 155.309 157.689 155.255 157.09L154.982 154.638L154.613 154.965C156.853 155.115 159.106 155.237 161.345 155.428C161.523 155.428 161.632 155.183 161.414 155.169C159.229 154.979 157.016 154.706 154.818 154.475C154.626 154.475 154.353 154.556 154.367 154.788C154.49 156.722 154.504 158.643 154.64 160.577C154.64 160.877 154.64 161.217 154.722 161.517C154.776 161.716 154.884 161.895 155.036 162.035C155.36 162.435 155.706 162.817 156.074 163.179C159.11 166.211 163.196 167.966 167.49 168.082C167.647 168.09 167.801 168.038 167.92 167.937C168.039 167.836 168.115 167.693 168.132 167.538C168.07 165.102 167.441 162.713 166.294 160.562C165.146 158.411 163.513 156.555 161.523 155.142C161.359 155.033 161.017 155.278 161.181 155.428Z" fill="black"/>
<path d="M143.141 178.925C148.303 176.023 156.92 165.48 156.196 156.585C166.029 157.021 176.68 149.407 179.63 144.326L173.936 142.147C173.112 141.933 172.249 141.921 171.419 142.11C170.59 142.3 169.818 142.686 169.17 143.236C167.887 144.341 166.793 145.648 165.933 147.105C165.067 148.566 163.97 149.877 162.683 150.987C162.038 151.537 161.268 151.923 160.441 152.113C159.614 152.303 158.752 152.29 157.931 152.077C156.332 151.366 155.039 150.111 154.285 148.535C153.537 146.971 152.387 145.631 150.952 144.653C151.902 143.984 152.582 143 152.869 141.877C153.157 140.753 153.035 139.565 152.523 138.523C151.431 136.48 148.713 135.5 144.698 135.799C145.317 134.356 145.492 132.761 145.2 131.219C144.908 129.676 144.163 128.255 143.059 127.136C141.694 125.855 139.959 125.025 138.962 123.513C138.429 122.709 138.132 121.773 138.105 120.81C138.079 119.847 138.324 118.895 138.812 118.064C136.797 117.976 134.803 118.503 133.095 119.573C131.388 120.644 130.048 122.208 129.253 124.057C128.488 121.831 126.894 119.983 124.801 118.895C122.732 117.811 120.576 116.9 118.356 116.171C116.127 115.452 114.085 114.252 112.374 112.656C113.982 114.353 115.191 116.387 115.911 118.609C116.617 120.827 117.507 122.982 118.574 125.052C119.666 127.135 121.519 128.72 123.75 129.479C121.897 130.273 120.33 131.61 119.257 133.313C118.183 135.016 117.655 137.004 117.741 139.014C118.576 138.531 119.529 138.289 120.494 138.316C121.458 138.342 122.397 138.636 123.204 139.164C124.719 140.213 125.539 141.997 126.836 143.25C127.958 144.351 129.383 145.094 130.929 145.385C132.476 145.677 134.074 145.502 135.521 144.885C135.276 148.971 136.259 151.6 138.253 152.69C139.294 153.202 140.484 153.326 141.609 153.038C142.734 152.751 143.718 152.072 144.384 151.123C145.373 152.556 146.719 153.706 148.29 154.461C149.865 155.213 151.122 156.496 151.84 158.084C152.047 158.907 152.054 159.767 151.862 160.594C151.67 161.42 151.283 162.19 150.734 162.838C149.626 164.117 148.316 165.207 146.856 166.066C145.396 166.925 144.086 168.015 142.978 169.294C142.428 169.942 142.04 170.711 141.848 171.538C141.656 172.365 141.664 173.225 141.871 174.048L143.141 178.925Z" fill="#E25A6B"/>
<path d="M134.879 129.084C135.005 132.899 136.453 136.553 138.976 139.423C136.097 136.909 132.435 135.466 128.611 135.336L134.879 129.084Z" fill="#FFDCB6"/>
<path d="M112.197 112.698C114.764 115.422 115.42 119.509 116.745 122.859C117.96 125.965 120.022 128.975 123.395 129.956L123.477 128.976C121.502 129.815 119.83 131.234 118.683 133.044C117.537 134.855 116.97 136.97 117.059 139.11C117.059 139.6 117.741 139.478 118.014 139.314C118.808 138.871 119.717 138.68 120.622 138.765C121.527 138.85 122.385 139.208 123.081 139.791C124.446 140.935 125.239 142.624 126.536 143.877C127.746 145.022 129.28 145.767 130.929 146.01C132.578 146.254 134.263 145.985 135.754 145.24C135.837 145.202 135.902 145.132 135.934 145.047C135.966 144.961 135.962 144.866 135.924 144.783C135.886 144.7 135.817 144.635 135.731 144.604C135.645 144.572 135.55 144.575 135.467 144.613C133.857 145.165 132.123 145.245 130.469 144.844C128.777 144.32 127.311 143.246 126.304 141.793C125.384 140.23 124.02 138.974 122.384 138.184C121.552 137.9 120.667 137.801 119.793 137.893C118.918 137.984 118.073 138.265 117.318 138.715L118.288 138.919C118.21 137.042 118.704 135.186 119.703 133.594C120.702 132.002 122.161 130.748 123.887 129.997C124.337 129.806 124.528 129.18 123.968 129.016C120.609 128.036 118.834 124.685 117.618 121.688C116.253 118.392 115.174 115.054 112.429 112.63C112.333 112.534 112.088 112.63 112.197 112.793V112.698Z" fill="black"/>
<path d="M142.103 173.995C141.923 172.929 142.042 171.834 142.447 170.832C142.852 169.829 143.527 168.958 144.397 168.314C146.009 166.952 147.961 165.958 149.614 164.582C151.213 163.397 152.279 161.63 152.577 159.665C152.611 158.718 152.389 157.781 151.935 156.949C151.481 156.118 150.811 155.423 149.996 154.938C148.276 153.671 146.036 152.84 144.93 150.852C144.698 150.443 144.138 150.675 143.919 150.974C143.584 151.453 143.149 151.855 142.645 152.152C142.14 152.449 141.578 152.635 140.996 152.697C140.414 152.759 139.825 152.695 139.269 152.511C138.713 152.327 138.203 152.026 137.774 151.628C135.985 149.912 135.903 147.106 135.726 144.817C135.726 144.572 135.302 144.695 135.275 144.817C134.77 147.433 135.016 150.92 137.351 152.65C138.551 153.446 140.019 153.738 141.433 153.459C142.848 153.181 144.095 152.356 144.903 151.165L143.892 151.288C144.96 152.824 146.409 154.059 148.098 154.87C149.737 155.892 151.471 157.226 151.526 159.324C151.58 161.422 149.969 163.288 148.317 164.541C146.56 165.646 144.906 166.904 143.373 168.301C142.592 169.016 142.023 169.932 141.729 170.948C141.435 171.965 141.428 173.042 141.707 174.063C141.707 174.24 142.144 174.063 142.103 173.926V173.995Z" fill="black"/>
<path d="M112.197 112.697C114.628 115.422 117.974 116.484 121.265 117.805C124.324 119.045 127.574 120.843 128.557 124.235C128.707 124.739 129.622 124.439 129.759 124.085C130.488 122.363 131.726 120.903 133.306 119.898C134.886 118.894 136.735 118.392 138.608 118.459L138.185 117.833C137.748 118.584 137.489 119.426 137.43 120.293C137.371 121.159 137.512 122.028 137.843 122.832C138.725 124.387 140.001 125.684 141.544 126.591C142.933 127.599 143.951 129.035 144.439 130.678C144.82 132.343 144.74 134.081 144.207 135.704C144.07 136.249 144.904 136.072 145.081 135.786C146.829 132.993 145.777 128.88 143.524 126.673C142.254 125.42 140.547 124.643 139.427 123.186C138.899 122.439 138.599 121.555 138.562 120.642C138.526 119.728 138.755 118.824 139.223 118.037C139.441 117.683 139.127 117.424 138.799 117.41C136.645 117.321 134.515 117.882 132.685 119.019C130.856 120.156 129.412 121.817 128.544 123.785L129.745 123.635C128.776 120.312 125.648 118.282 122.576 117.097C119.162 115.735 115.133 115.067 112.375 112.493C112.279 112.398 112.033 112.493 112.143 112.656L112.197 112.697Z" fill="black"/>
<path d="M173.936 141.97C173.039 141.716 172.094 141.688 171.183 141.887C170.273 142.087 169.426 142.509 168.719 143.114C167.19 144.487 165.883 146.086 164.841 147.855C163.653 149.557 162.11 151.328 160.048 151.737C157.986 152.145 156.292 150.674 155.186 149.013C154.08 147.351 153.124 145.307 151.226 144.245V144.953C151.808 144.566 152.306 144.067 152.69 143.485C153.075 142.902 153.339 142.249 153.466 141.563C153.594 140.878 153.582 140.173 153.432 139.492C153.281 138.811 152.996 138.167 152.592 137.598C150.816 135.337 147.307 135.132 144.712 135.568C144.48 135.568 144.398 135.922 144.712 135.936C147.034 136.072 149.888 136.154 151.54 138.02C151.915 138.485 152.191 139.02 152.352 139.595C152.513 140.169 152.555 140.77 152.476 141.361C152.397 141.952 152.198 142.521 151.892 143.033C151.585 143.546 151.177 143.99 150.693 144.34C150.448 144.504 150.338 144.872 150.693 145.049C153.971 146.888 154.367 152.241 158.628 152.69C159.604 152.738 160.579 152.573 161.485 152.206C162.391 151.839 163.205 151.279 163.871 150.565C165.285 148.929 166.568 147.185 167.709 145.348C169.17 143.414 171.341 141.643 173.936 142.311C174.127 142.311 174.373 142.066 174.113 141.984L173.936 141.97Z" fill="black"/>
<path d="M134.756 129.057C134.541 129.957 134.573 130.899 134.851 131.782C135.031 132.732 135.287 133.665 135.616 134.574C136.289 136.439 137.298 138.166 138.594 139.669L139.331 139.137C137.846 137.822 136.14 136.78 134.292 136.059C133.402 135.721 132.489 135.448 131.56 135.242C130.588 134.997 129.58 134.928 128.584 135.037L128.884 135.46C130.7 133.648 132.421 131.741 134.196 129.888C134.442 129.616 134.688 129.343 134.947 129.085C135.207 128.826 134.947 128.976 134.824 129.085C132.981 130.924 131.041 132.681 129.143 134.533C128.884 134.792 128.597 135.037 128.338 135.31C128.304 135.34 128.279 135.378 128.266 135.421C128.253 135.465 128.252 135.51 128.263 135.554C128.274 135.598 128.297 135.637 128.33 135.669C128.362 135.7 128.403 135.722 128.447 135.732C129.321 135.963 130.236 135.977 131.178 136.154C132.11 136.331 133.024 136.591 133.909 136.931C135.646 137.613 137.257 138.58 138.675 139.791C139.003 140.064 139.754 139.641 139.413 139.26C138.154 137.84 137.143 136.219 136.422 134.465C136.055 133.587 135.776 132.674 135.589 131.741C135.493 131.291 135.425 130.842 135.371 130.379C135.366 129.941 135.269 129.509 135.084 129.112C134.961 128.935 134.797 128.962 134.756 129.057Z" fill="black"/>
<path d="M155.091 49.0981C156.57 47.2422 158.435 45.7273 160.556 44.6575C162.678 43.5877 165.006 42.9883 167.381 42.9004V42.9004C167.299 45.2711 166.701 47.5957 165.628 49.7127C164.555 51.8297 163.033 53.6884 161.168 55.1597L154.408 55.7318L155.091 49.0981Z" fill="#FFDCB6"/>
<path d="M155.254 49.1805C156.753 47.418 158.605 45.9877 160.691 44.9813C162.777 43.975 165.051 43.4148 167.367 43.3369L166.957 43.0236C166.873 45.3188 166.294 47.569 165.259 49.621C164.225 51.673 162.759 53.4787 160.962 54.9152L161.372 54.7789C159.092 54.9696 156.838 55.3101 154.544 55.5417L154.79 55.7188C154.94 53.5121 155.036 51.2782 155.227 49.0715C155.227 48.8944 154.926 48.9761 154.913 49.1396C154.708 51.3599 154.421 53.5802 154.175 55.8005C154.171 55.8338 154.174 55.8676 154.185 55.8994C154.195 55.9312 154.214 55.9601 154.237 55.9838C154.261 56.0076 154.29 56.0255 154.322 56.0362C154.354 56.0469 154.388 56.0502 154.421 56.0457C156.347 55.9095 158.286 55.8686 160.211 55.7188C160.512 55.7188 160.799 55.7188 161.099 55.7188C161.796 55.6234 162.464 54.8334 162.929 54.3566C166.043 51.3165 167.854 47.1908 167.981 42.8465C167.981 42.6421 167.736 42.5332 167.558 42.5332C165.078 42.5837 162.642 43.2049 160.441 44.3485C158.241 45.492 156.335 47.127 154.872 49.126C154.735 49.2759 155.131 49.3303 155.254 49.1805Z" fill="black"/>
<path d="M178.729 67.2303C175.821 62.0814 165.251 53.4863 156.334 54.2082V54.1401C156.757 44.3327 149.137 33.7079 144.043 30.7656L141.981 36.5411C141.767 37.3628 141.754 38.2238 141.944 39.0513C142.135 39.8788 142.522 40.6485 143.073 41.2951C144.181 42.5749 145.491 43.6654 146.952 44.5234C148.414 45.3903 149.728 46.4847 150.844 47.7653C151.395 48.4092 151.782 49.1765 151.972 50.0018C152.163 50.8271 152.15 51.686 151.936 52.5055C151.224 54.1004 149.965 55.3898 148.386 56.1424C146.816 56.8917 145.469 58.0375 144.48 59.4661C143.816 58.5155 142.831 57.8345 141.706 57.547C140.581 57.2595 139.389 57.3847 138.348 57.8997C136.3 58.9894 135.317 61.7 135.617 65.7047C134.17 65.0872 132.572 64.9129 131.025 65.204C129.479 65.4951 128.054 66.2384 126.932 67.3393C125.649 68.7015 124.815 70.4314 123.299 71.4258C122.494 71.9581 121.556 72.2543 120.59 72.2808C119.624 72.3073 118.67 72.0629 117.837 71.5756C117.749 73.5856 118.277 75.5747 119.35 77.2781C120.424 78.9815 121.992 80.3183 123.846 81.1106C121.618 81.8735 119.766 83.4572 118.67 85.5376C117.586 87.6077 116.672 89.7625 115.939 91.9805C115.219 94.2035 114.016 96.2407 112.416 97.9467C114.117 96.3425 116.156 95.1372 118.383 94.4188C120.607 93.7151 122.768 92.8266 124.843 91.7626C126.931 90.673 128.52 88.8248 129.281 86.6C130.077 88.4482 131.417 90.0113 133.125 91.0817C134.832 92.1522 136.825 92.6795 138.84 92.5935C138.352 91.7623 138.107 90.811 138.133 89.8478C138.16 88.8846 138.457 87.9481 138.99 87.1449C140.042 85.6329 141.831 84.8157 143.087 83.5216C144.191 82.4026 144.936 80.9813 145.228 79.4387C145.52 77.8961 145.345 76.3016 144.726 74.8583C148.741 75.1035 151.458 74.1228 152.551 72.134C153.064 71.0955 153.188 69.908 152.9 68.7862C152.612 67.6644 151.931 66.6825 150.98 66.018C152.416 65.0318 153.569 63.689 154.326 62.1223C155.08 60.5513 156.367 59.2969 157.959 58.5807C158.78 58.3707 159.641 58.36 160.467 58.5496C161.294 58.7391 162.064 59.1235 162.711 59.6704C163.999 60.7798 165.096 62.091 165.961 63.5525C166.825 65.0064 167.918 66.3125 169.198 67.4211C169.847 67.9695 170.618 68.3557 171.447 68.5476C172.276 68.7395 173.138 68.7315 173.963 68.5244L178.729 67.2303Z" fill="#E25A6B"/>
<path d="M128.871 75.5259C132.695 75.3966 136.357 73.9529 139.236 71.4395C136.716 74.3114 135.269 77.9638 135.139 81.7781L128.871 75.5259Z" fill="#FFDCB6"/>
<path d="M112.401 98.0952C115.133 95.4526 119.229 94.7716 122.684 93.3822C125.784 92.1427 128.83 90.0313 129.813 86.6805L128.557 86.9665C129.396 88.8995 130.807 90.5311 132.6 91.6434C134.393 92.7557 136.485 93.2957 138.594 93.1915C138.894 93.1915 139.549 92.8373 139.304 92.4287C138.826 91.6575 138.582 90.7649 138.602 89.8585C138.621 88.9522 138.903 88.0708 139.413 87.3206C140.451 85.8495 142.144 85.0594 143.51 83.8063C144.676 82.6488 145.466 81.1679 145.777 79.5564C146.187 77.9173 145.958 76.1839 145.135 74.7071C144.916 74.3802 144.124 74.5709 144.234 75.0204C144.749 76.6463 144.838 78.3767 144.493 80.0467C144.021 81.6972 143 83.1383 141.598 84.1332C140.058 85.0445 138.783 86.3403 137.897 87.8927C137.555 88.6938 137.402 89.5631 137.452 90.4326C137.502 91.3021 137.752 92.1484 138.184 92.9054L138.881 92.1291C136.965 92.1826 135.077 91.6604 133.463 90.6306C131.848 89.6007 130.581 88.1105 129.826 86.3535C129.594 85.795 128.693 86.2173 128.57 86.6532C127.601 90.0041 124.241 91.7203 121.223 92.9054C117.973 94.1858 114.641 95.2755 112.238 97.9317C112.101 98.0679 112.347 98.1361 112.442 98.0407L112.401 98.0952Z" fill="black"/>
<path d="M173.936 68.3601C172.872 68.535 171.781 68.4081 170.786 67.9938C169.791 67.5795 168.933 66.8946 168.31 66.0172C166.944 64.4098 165.961 62.4483 164.595 60.8138C164.001 60.0233 163.251 59.362 162.392 58.8702C161.532 58.3784 160.582 58.0664 159.597 57.9533C158.639 57.9461 157.695 58.1824 156.854 58.64C156.013 59.0976 155.303 59.7613 154.79 60.5686C153.534 62.244 152.701 64.5461 150.789 65.6222C150.502 65.7993 150.243 66.1671 150.612 66.4122C151.096 66.7568 151.506 67.1943 151.818 67.6992C152.131 68.2041 152.339 68.7662 152.431 69.3525C152.522 69.9387 152.495 70.5372 152.352 71.113C152.208 71.6888 151.951 72.2302 151.595 72.7054C149.956 74.5715 147.02 74.5987 144.767 74.7213C144.589 74.7213 144.33 75.0483 144.617 75.0891C147.252 75.5659 150.721 75.2253 152.524 72.9914C152.947 72.4363 153.252 71.8014 153.423 71.1251C153.593 70.4489 153.625 69.7451 153.515 69.0565C153.405 68.3678 153.157 67.7084 152.784 67.1182C152.412 66.5279 151.924 66.0191 151.349 65.6222L151.158 66.3986C152.718 65.347 153.978 63.9112 154.818 62.2304C155.801 60.6095 157.098 58.7978 159.215 58.8251C161.332 58.8523 163.121 60.5005 164.363 62.1351C165.484 63.9197 166.779 65.5895 168.228 67.1205C168.966 67.872 169.892 68.4114 170.911 68.6823C171.93 68.9531 173.003 68.9453 174.018 68.6597C174.237 68.6597 174.182 68.292 173.95 68.3601H173.936Z" fill="black"/>
<path d="M112.401 98.0959C115.132 95.6713 116.225 92.3341 117.522 89.065C118.683 86.1227 120.39 82.6901 123.708 81.723C124.036 81.6276 124.692 80.9874 124.104 80.7422C122.315 79.9761 120.801 78.6877 119.76 77.0466C118.719 75.4054 118.201 73.4883 118.273 71.5477L117.249 72.1198C118.015 72.554 118.869 72.8122 119.748 72.8758C120.626 72.9395 121.508 72.8068 122.329 72.4876C123.934 71.6805 125.275 70.4329 126.194 68.8915C127.158 67.455 128.584 66.3886 130.236 65.8676C131.91 65.4777 133.66 65.5626 135.289 66.1127C135.657 66.2081 136.258 65.6905 135.808 65.3908C134.318 64.598 132.593 64.3658 130.946 64.737C129.315 65.0316 127.802 65.7882 126.59 66.9164C125.224 68.1287 124.528 69.8451 123.121 71.0029C122.403 71.5486 121.535 71.8642 120.633 71.9079C119.731 71.9517 118.837 71.7216 118.069 71.2481C117.964 71.2024 117.851 71.1819 117.737 71.1884C117.623 71.1948 117.513 71.2279 117.414 71.285C117.316 71.342 117.232 71.4215 117.17 71.5168C117.108 71.6122 117.07 71.7208 117.058 71.8338C116.97 73.9103 117.515 75.9646 118.622 77.7254C119.729 79.4862 121.345 80.8706 123.258 81.6957L123.654 80.7014C120.226 81.6957 118.082 84.6925 116.826 87.8526C115.46 91.2308 114.818 95.2627 112.224 98.0006C112.087 98.1369 112.333 98.1913 112.429 98.1096L112.401 98.0959Z" fill="black"/>
<path d="M141.694 36.6078C141.43 37.5161 141.402 38.4763 141.613 39.3983C141.823 40.3203 142.264 41.174 142.895 41.8793C144.318 43.3797 145.946 44.6729 147.73 45.7206C149.568 46.802 150.904 48.5647 151.444 50.6243C151.799 52.8037 150.406 54.3021 148.713 55.4327C147.02 56.5633 144.985 57.5032 143.92 59.4102L144.917 59.2875C144.51 58.7089 143.992 58.2166 143.393 57.8392C142.793 57.4617 142.125 57.2068 141.427 57.0889C140.728 56.9711 140.013 56.9927 139.322 57.1527C138.632 57.3127 137.981 57.6077 137.406 58.0207C135.098 59.7643 134.674 63.1697 135.248 65.8123C135.248 66.0847 135.699 65.9212 135.712 65.7169C135.89 63.4285 135.931 60.4999 137.761 58.8245C138.216 58.4655 138.741 58.2037 139.301 58.0553C139.862 57.907 140.448 57.8753 141.021 57.9621C141.595 58.049 142.145 58.2526 142.636 58.5603C143.128 58.868 143.551 59.2732 143.879 59.7507C143.945 59.8263 144.028 59.8847 144.122 59.9206C144.216 59.9566 144.317 59.9691 144.416 59.957C144.516 59.9449 144.611 59.9085 144.694 59.8512C144.776 59.7939 144.843 59.7172 144.889 59.6281C146.746 56.3589 152.127 55.9775 152.564 51.7004C153.042 47.1099 147.962 45.0531 144.999 42.7375C143.155 41.28 141.461 39.1005 142.09 36.5942C142.158 36.349 141.748 36.4307 141.694 36.5942V36.6078Z" fill="black"/>
<path d="M128.72 75.633C129.58 75.8209 130.474 75.7834 131.315 75.5241C132.305 75.3442 133.278 75.0799 134.223 74.7341C136.131 74.0512 137.895 73.0213 139.426 71.6965L138.853 71.2741C137.557 72.7354 136.522 74.4079 135.794 76.2187C135.44 77.103 135.157 78.014 134.947 78.943C134.676 79.8805 134.606 80.8646 134.743 81.8308L135.398 81.5312C133.554 79.7059 131.588 77.976 129.69 76.2052L128.884 75.4424C128.884 75.4424 128.693 75.4423 128.747 75.5377C130.577 77.3493 132.284 79.2836 134.046 81.1633C134.292 81.4358 134.538 81.7082 134.797 81.9671C134.853 82.0041 134.916 82.0279 134.982 82.0368C135.048 82.0457 135.115 82.0394 135.178 82.0183C135.242 81.9973 135.299 81.9621 135.347 81.9154C135.394 81.8687 135.431 81.8118 135.453 81.7491C135.698 80.8637 135.712 79.9238 135.889 79.0248C136.071 78.1303 136.322 77.2513 136.641 76.3958C137.312 74.6417 138.288 73.0189 139.522 71.6011C139.864 71.1925 139.263 70.8792 138.935 71.1652C137.522 72.4175 135.906 73.4216 134.155 74.1347C133.272 74.4861 132.358 74.7551 131.424 74.9383C130.974 75.0337 130.523 75.1018 130.059 75.1563C129.594 75.1694 129.133 75.252 128.693 75.4015C128.693 75.4015 128.624 75.5785 128.72 75.633Z" fill="black"/>
<path d="M48.6275 55.3648C46.7668 53.8891 45.2481 52.0295 44.1756 49.9135C43.1031 47.7974 42.5021 45.475 42.4139 43.1055C44.7907 43.1871 47.1213 43.7838 49.2436 44.854C51.366 45.9243 53.2293 47.4426 54.7044 49.3033L55.2782 56.0323L48.6275 55.3648Z" fill="#FFDCB6"/>
<path d="M48.8057 55.2293C47.0277 53.6865 45.5883 51.7939 44.5779 49.6703C43.5674 47.5467 43.0076 45.2378 42.9335 42.8883L42.3054 43.4332C46.2347 43.5909 49.9721 45.1692 52.8205 47.8737C53.1518 48.1885 53.4662 48.5205 53.7627 48.8681C53.9341 49.021 54.0857 49.195 54.2134 49.3857C54.2684 49.6685 54.2956 49.9559 54.2951 50.2439C54.2951 50.7479 54.3909 51.2655 54.4455 51.7695C54.5001 52.2735 54.6913 52.9681 54.7459 53.5675L55.0189 56.0194L55.3877 55.6925C53.1481 55.5427 50.8949 55.42 48.6417 55.2293C48.4778 55.2293 48.3685 55.4745 48.6417 55.4881C50.8266 55.6788 53.039 55.9513 55.2376 56.1965C55.4288 56.1965 55.7017 56.1011 55.6881 55.8695C55.5652 53.9352 55.5516 52.0146 55.415 50.0804C55.415 49.7807 55.4149 49.4402 55.333 49.1405C55.2794 48.9418 55.1705 48.7624 55.0189 48.6229C54.6912 48.2279 54.3498 47.8465 53.9811 47.4787C52.575 46.0731 50.9289 44.9291 49.1198 44.1006C47.0587 43.1611 44.8299 42.6424 42.5648 42.575C42.4083 42.5671 42.2547 42.6191 42.1354 42.7203C42.0161 42.8216 41.9402 42.9645 41.923 43.1198C41.9804 45.5552 42.6064 47.9438 43.7514 50.0956C44.8964 52.2474 46.5286 54.1031 48.5186 55.5154C48.6279 55.6244 48.9832 55.3792 48.8057 55.2293Z" fill="black"/>
<path d="M66.8587 31.8125C61.6967 34.7139 53.0797 45.2569 53.8035 54.1517H53.7625C43.9301 53.7295 33.2785 61.3302 30.3288 66.4792L36.119 68.536C36.9427 68.7495 37.8059 68.762 38.6355 68.5723C39.4651 68.3826 40.2367 67.9963 40.8849 67.4462C42.168 66.3414 43.2611 65.0347 44.1212 63.5778C44.986 62.1163 46.084 60.805 47.3715 59.6956C48.0171 59.1457 48.7862 58.7595 49.6136 58.5697C50.441 58.38 51.3022 58.3924 52.1238 58.6059C53.7183 59.3181 55.006 60.5738 55.7562 62.1475C56.517 63.7115 57.6693 65.0533 59.1019 66.0433C58.1489 66.7059 57.4664 67.6879 57.1781 68.8104C56.8899 69.9329 57.0152 71.1213 57.5315 72.1593C58.624 74.2025 61.3416 75.1833 65.3564 74.8836C64.7374 76.3269 64.5625 77.9212 64.8543 79.4639C65.1461 81.0065 65.8913 82.4277 66.9951 83.5468C68.3607 84.8272 70.095 85.6582 71.0919 87.1702C71.6255 87.9734 71.9225 88.9098 71.9491 89.873C71.9756 90.8362 71.7308 91.7875 71.2423 92.6188C73.257 92.7047 75.2504 92.1774 76.9577 91.107C78.665 90.0365 80.0056 88.4735 80.8015 86.6253C81.5663 88.848 83.1541 90.695 85.2397 91.7879C87.3172 92.8461 89.4774 93.7344 91.699 94.444C93.9276 95.1624 95.9698 96.3624 97.6802 97.9584C96.0718 96.2614 94.8637 94.2278 94.1435 92.0058C93.438 89.7876 92.5473 87.6325 91.4806 85.5629C90.3849 83.4825 88.5332 81.8987 86.3049 81.1359C88.1578 80.342 89.7246 79.0048 90.7978 77.3018C91.871 75.5988 92.3996 73.6105 92.3134 71.6008C91.4786 72.0836 90.5255 72.3253 89.5609 72.2988C88.5962 72.2723 87.658 71.9788 86.851 71.451C85.3352 70.4021 84.5159 68.6177 83.2186 67.3645C82.0967 66.2635 80.6717 65.5203 79.1251 65.2293C77.5786 64.9382 75.9802 65.1125 74.5332 65.73C74.779 61.7253 73.7958 59.0146 71.802 57.9248C70.7614 57.4098 69.5701 57.2847 68.4447 57.5722C67.3193 57.8597 66.3348 58.5408 65.6705 59.4913C64.6817 58.0591 63.3357 56.9088 61.765 56.1541C60.1901 55.4019 58.9323 54.1185 58.2143 52.5308C58.0014 51.709 57.9896 50.8483 58.1797 50.021C58.3698 49.1937 58.7564 48.424 59.3069 47.7768C60.4232 46.5004 61.7369 45.4106 63.1987 44.5485C64.6562 43.6863 65.9658 42.5964 67.0771 41.3203C67.627 40.6726 68.0143 39.9035 68.2067 39.0768C68.399 38.25 68.391 37.3894 68.1833 36.5664L66.8587 31.8125Z" fill="#E25A6B"/>
<path d="M75.1207 81.5731C74.9911 77.7588 73.5438 74.1063 71.0239 71.2344C73.9032 73.7478 77.565 75.1915 81.389 75.3208L75.1207 81.5731Z" fill="#FFDCB6"/>
<path d="M97.8037 97.9586C95.2363 95.2343 94.5807 91.1478 93.2561 87.7969C92.0407 84.6912 89.9788 81.6809 86.6058 80.7002L86.5238 81.6809C88.5 80.8432 90.1733 79.4244 91.3201 77.6136C92.4668 75.8029 93.0325 73.6864 92.942 71.5465C92.942 71.0561 92.2593 71.1788 91.9862 71.3422C91.1941 71.7887 90.2838 71.9823 89.378 71.8971C88.4722 71.8119 87.6143 71.4518 86.9199 70.8654C85.5543 69.7212 84.7622 68.0322 83.4648 66.779C82.255 65.6345 80.721 64.8897 79.0716 64.646C77.4222 64.4022 75.7375 64.6714 74.247 65.4168C74.1637 65.4548 74.099 65.5241 74.067 65.6097C74.035 65.6953 74.0383 65.7901 74.0763 65.8732C74.1143 65.9563 74.1839 66.0209 74.2697 66.0528C74.3555 66.0848 74.4504 66.0814 74.5337 66.0434C76.1433 65.4913 77.8781 65.411 79.5321 65.8119C81.221 66.3406 82.6858 67.4138 83.6969 68.8631C84.6168 70.4264 85.9808 71.6825 87.6163 72.4727C88.4466 72.7559 89.3289 72.8551 90.2015 72.7633C91.0741 72.6716 91.9161 72.3911 92.669 71.9416L91.7131 71.7372C91.7893 73.6156 91.2957 75.4732 90.2969 77.0673C89.298 78.6615 87.8401 79.9181 86.114 80.6729C85.6634 80.85 85.4585 81.4766 86.032 81.6401C89.3777 82.6208 91.1669 85.9717 92.3823 88.9684C93.7479 92.2648 94.8268 95.602 97.5716 98.0403C97.6672 98.122 97.9129 98.0403 97.8037 97.8632V97.9586Z" fill="black"/>
<path d="M67.8971 36.662C68.0773 37.7278 67.9583 38.8225 67.5534 39.825C67.1485 40.8275 66.4732 41.6987 65.6027 42.3422C63.9913 43.7043 62.0387 44.6987 60.3863 46.0744C59.5922 46.6592 58.9214 47.3945 58.4129 48.2384C57.9044 49.0822 57.5678 50.018 57.4227 50.9919C57.3891 51.9365 57.6094 52.8729 58.0608 53.704C58.5123 54.5351 59.1785 55.2306 59.9902 55.7185C61.7245 56.9853 63.9641 57.8162 65.0702 59.8049C65.3024 60.2136 65.8623 59.982 66.0808 59.6824C66.4163 59.2035 66.8507 58.802 67.355 58.5049C67.8593 58.2078 68.4216 58.0219 69.004 57.96C69.5864 57.898 70.1756 57.9613 70.7314 58.1456C71.2871 58.33 71.7967 58.631 72.226 59.0285C74.0149 60.7448 74.0832 63.5508 74.2744 65.8392C74.2744 66.0844 74.6978 65.9618 74.7251 65.8392C75.2304 63.2239 74.9846 59.7368 72.6494 58.0069C71.449 57.2101 69.9813 56.919 68.5666 57.1972C67.1519 57.4753 65.905 58.3001 65.0976 59.4916L66.1081 59.369C65.0374 57.8348 63.5888 56.6011 61.9019 55.7866C60.2632 54.7649 58.5289 53.4301 58.4743 51.3324C58.4196 49.2347 60.0312 47.3685 61.6836 46.1153C63.4399 45.0109 65.0941 43.7528 66.6269 42.3558C67.408 41.6405 67.977 40.7244 68.2709 39.7081C68.5647 38.6918 68.5721 37.6144 68.2929 36.594C68.2929 36.4169 67.8425 36.5939 67.8971 36.7301V36.662Z" fill="black"/>
<path d="M97.8026 97.9598C95.3719 95.2355 92.0263 94.173 88.7352 92.8517C85.6626 91.6122 82.426 89.8142 81.4291 86.4224C81.2925 85.9184 80.3774 86.2181 80.2408 86.5722C79.5113 88.294 78.2745 89.754 76.6941 90.7587C75.1138 91.7634 73.2646 92.2653 71.3917 92.1979L71.8152 92.8244C72.2525 92.073 72.5108 91.2314 72.57 90.3646C72.6292 89.4978 72.4877 88.629 72.1566 87.8254C71.2753 86.2698 69.9989 84.9732 68.4558 84.0658C67.0666 83.0582 66.0489 81.622 65.5606 79.9794C65.18 78.3139 65.2604 76.5766 65.793 74.9531C65.9295 74.4082 65.0963 74.5853 64.9188 74.8713C63.1708 77.5956 64.2225 81.7774 66.4758 83.9841C67.7321 85.2373 69.4528 86.0137 70.5726 87.4712C71.1021 88.2183 71.4021 89.103 71.4361 90.0173C71.47 90.9316 71.2362 91.836 70.7636 92.6202C70.5588 92.9743 70.8593 93.2331 71.2007 93.2467C73.3553 93.3397 75.4876 92.7806 77.3179 91.643C79.1482 90.5053 80.5908 88.8421 81.4564 86.8719L80.2545 87.0218C81.2241 90.3454 84.3513 92.375 87.4239 93.5601C90.8379 94.9222 94.8667 95.6032 97.6253 98.1777C97.7209 98.2594 97.9666 98.1777 97.8573 98.0007L97.8026 97.9598Z" fill="black"/>
<path d="M36.0097 68.6871C36.9041 68.9413 37.8478 68.9698 38.756 68.7701C39.6641 68.5703 40.5084 68.1486 41.2128 67.5428C42.7497 66.1746 44.0627 64.5753 45.1045 62.8026C46.2926 61.0999 47.8358 59.3292 49.8978 58.9205C51.9599 58.5119 53.6533 59.983 54.7594 61.6448C55.8656 63.3066 56.8217 65.3499 58.7062 66.4123V65.704C58.1314 66.0975 57.6408 66.6015 57.2636 67.1863C56.8864 67.7712 56.6299 68.4252 56.5091 69.1101C56.3883 69.795 56.4057 70.497 56.5601 71.1752C56.7146 71.8533 57.003 72.494 57.4086 73.0596C59.1839 75.3208 62.6936 75.5251 65.2882 75.0892C65.5203 75.0892 65.6023 74.735 65.2882 74.7214C62.9667 74.5852 60.1126 74.5034 58.4602 72.6373C58.0853 72.1727 57.8092 71.6369 57.6484 71.0625C57.4875 70.4881 57.4451 69.8871 57.5243 69.296C57.6035 68.7049 57.8023 68.1359 58.1088 67.6238C58.4152 67.1117 58.823 66.6671 59.307 66.317C59.5528 66.1535 59.6621 65.7857 59.307 65.6086C56.0296 63.7697 55.6335 58.4165 51.3728 57.967C50.3963 57.9193 49.4213 58.0848 48.5155 58.4518C47.6098 58.8188 46.7952 59.3785 46.1287 60.0919C44.7152 61.7285 43.4324 63.4728 42.2916 65.309C40.8305 67.2432 38.6591 69.014 36.0644 68.3466C35.8732 68.3466 35.6273 68.5917 35.8867 68.6735L36.0097 68.6871Z" fill="black"/>
<path d="M75.2438 81.6003C75.4592 80.7002 75.4261 79.7588 75.1481 78.876C74.9635 77.9497 74.7081 77.0389 74.3836 76.1517C73.7113 74.2865 72.7021 72.5599 71.4064 71.0573L70.6689 71.5885C72.1532 72.9034 73.8595 73.9457 75.7082 74.667C76.5964 75.0084 77.5095 75.2816 78.4394 75.4842C79.407 75.7286 80.4106 75.7978 81.4027 75.6886L81.1159 75.2663C79.2997 77.078 77.5788 78.9849 75.8036 80.8375C75.5578 81.1099 75.3122 81.3824 75.0527 81.6412C74.7933 81.9 75.0525 81.7638 75.1618 81.6412C77.019 79.8023 78.9584 78.0451 80.8566 76.2607C81.116 76.0019 81.4026 75.7567 81.6621 75.4842C81.6958 75.4543 81.7206 75.4156 81.7337 75.3725C81.7469 75.3294 81.748 75.2835 81.7367 75.2399C81.7254 75.1963 81.7021 75.1565 81.6697 75.1252C81.6373 75.0938 81.5971 75.0719 81.553 75.062C80.679 74.8304 79.7504 74.8168 78.8218 74.6397C77.8899 74.4631 76.9758 74.2033 76.0906 73.8633C74.3536 73.1806 72.7429 72.2139 71.3247 71.0028C70.9969 70.7304 70.2458 71.1526 70.5872 71.534C71.8457 72.9543 72.8565 74.575 73.5778 76.3288C73.9383 77.2096 74.2172 78.1215 74.411 79.0531C74.5065 79.5026 74.5747 79.9521 74.6293 80.4152C74.6354 80.8513 74.7282 81.2819 74.9024 81.682C74.9078 81.7043 74.9175 81.7255 74.9311 81.7441C74.9446 81.7627 74.9617 81.7784 74.9814 81.7904C75.0011 81.8024 75.023 81.8105 75.0457 81.8141C75.0685 81.8177 75.0917 81.8168 75.1141 81.8114C75.1365 81.8061 75.1578 81.7963 75.1764 81.7828C75.1951 81.7693 75.2107 81.7522 75.2228 81.7326C75.2348 81.713 75.2428 81.6912 75.2464 81.6685C75.2501 81.6458 75.2492 81.6226 75.2438 81.6003V81.6003Z" fill="black"/>
<path d="M193.601 105.235C192.403 106.781 190.842 108.011 189.057 108.816C187.271 109.621 185.314 109.977 183.359 109.852C181.697 109.757 180.078 109.296 178.616 108.503C177.155 107.709 175.887 106.602 174.906 105.262V105.398C175.887 104.058 177.155 102.951 178.616 102.157C180.078 101.363 181.697 100.903 183.359 100.808C185.314 100.683 187.271 101.038 189.057 101.844C190.842 102.649 192.403 103.878 193.601 105.425V105.235Z" fill="#FFDCB6"/>
<path d="M175.028 105.464C176.914 103.213 179.553 101.718 182.457 101.255C184.975 100.946 187.527 101.422 189.763 102.617C191.096 103.433 192.32 104.412 193.409 105.532C193.559 105.668 193.928 105.532 193.832 105.287C193.171 103.98 192.116 102.913 190.814 102.236C189.597 101.497 188.262 100.972 186.868 100.683C184.026 100.036 181.046 100.443 178.483 101.827C176.949 102.652 175.659 103.864 174.741 105.341C174.632 105.518 174.932 105.546 175.028 105.437V105.464Z" fill="black"/>
<path d="M174.728 105.37C177.801 110.71 185.216 111.459 190.268 108.666C191.768 107.945 193.008 106.779 193.819 105.329C193.942 105.057 193.573 105.057 193.423 105.193C192.488 106.227 191.428 107.142 190.268 107.917C189.162 108.562 187.959 109.022 186.704 109.279C184.09 109.88 181.346 109.538 178.961 108.312C177.484 107.523 176.157 106.481 175.042 105.234C174.946 105.125 174.646 105.234 174.728 105.411V105.37Z" fill="black"/>
<path d="M175.888 68.9857C174.262 68.6996 172.591 68.797 171.01 69.27C169.428 69.7431 167.98 70.5786 166.78 71.71C165.772 72.8307 165.075 74.1939 164.756 75.6652C164.438 77.1366 164.509 78.6654 164.963 80.1008C165.457 81.5342 166.31 82.8182 167.44 83.8312C168.57 84.8442 169.941 85.5528 171.423 85.89C171.23 85.4375 171.131 84.9512 171.131 84.4597C171.131 83.9683 171.23 83.4819 171.423 83.0294C171.618 82.5782 171.91 82.175 172.278 81.848C172.646 81.521 173.081 81.2781 173.553 81.1361C174.343 80.9761 175.162 81.042 175.916 81.3264C176.67 81.6108 177.328 82.1021 177.814 82.7434C178.747 84.0375 179.351 85.5378 179.575 87.1159C180.149 89.9764 180.613 97.727 174.29 102.099L175.137 101.582C174.758 101.941 174.294 102.2 173.788 102.333C173.282 102.467 172.75 102.471 172.242 102.345C171.232 102.081 170.256 101.702 169.333 101.214C168.403 100.736 167.358 100.529 166.315 100.615C165.63 100.724 164.997 101.046 164.507 101.535C164.016 102.024 163.693 102.656 163.584 103.339L164.089 101.677C163.4 99.7941 162.056 98.2206 160.302 97.243C158.547 96.2655 156.499 95.949 154.53 96.3513C150.57 97.2775 147.866 100.969 144.11 102.549C140.687 103.761 136.95 103.761 133.527 102.549C130.086 101.514 120.349 94.703 112.292 98.1084L104.986 105.396L112.292 112.683C120.349 116.102 130.045 109.278 133.527 108.243C136.95 107.03 140.687 107.03 144.11 108.243C147.866 109.823 150.57 113.514 154.53 114.441C156.499 114.843 158.547 114.526 160.302 113.549C162.056 112.571 163.4 110.998 164.089 109.115L163.584 107.453C163.693 108.136 164.016 108.767 164.507 109.257C164.997 109.746 165.63 110.068 166.315 110.177C167.358 110.27 168.406 110.062 169.333 109.578C170.256 109.09 171.232 108.711 172.242 108.447C172.75 108.325 173.281 108.331 173.786 108.464C174.291 108.597 174.756 108.854 175.137 109.21L174.29 108.692C180.613 113.051 180.149 120.802 179.575 123.676C179.351 125.254 178.747 126.754 177.814 128.048C177.328 128.69 176.67 129.181 175.916 129.465C175.162 129.75 174.343 129.816 173.553 129.656C173.081 129.514 172.646 129.271 172.278 128.944C171.91 128.617 171.618 128.214 171.423 127.762C171.23 127.312 171.131 126.828 171.131 126.339C171.131 125.85 171.23 125.365 171.423 124.915C169.941 125.248 168.57 125.953 167.439 126.964C166.308 127.975 165.456 129.258 164.963 130.691C164.509 132.126 164.438 133.655 164.756 135.127C165.075 136.598 165.772 137.961 166.78 139.082C167.986 140.201 169.438 141.024 171.019 141.485C172.6 141.946 174.267 142.033 175.888 141.738C169.388 148.549 162.847 153.711 156.265 156.585C160.28 156.577 164.248 155.723 167.909 154.08C171.571 152.437 174.844 150.042 177.513 147.05C182.267 141.778 185.092 135.057 185.529 127.98C186.349 115.04 178.374 107.221 174.96 105.328C178.36 103.475 186.403 95.6429 185.584 82.6481C185.153 75.5696 182.327 68.8466 177.568 63.578C174.9 60.5846 171.628 58.1876 167.966 56.5444C164.304 54.9011 160.335 54.0487 156.319 54.043C163.079 57.1759 169.579 62.3656 175.888 68.9857Z" fill="#E25A6B"/>
<path d="M164.226 101.609C163.913 100.409 163.309 99.3051 162.465 98.3945C161.596 97.4932 160.537 96.7954 159.365 96.3513C158.171 95.9033 156.893 95.7223 155.621 95.8212C154.349 95.92 153.114 96.2963 152.004 96.9234C149.519 98.2855 147.539 100.329 145.081 101.691C142.117 103.16 138.714 103.49 135.522 102.617C134.5 102.41 133.503 102.1 132.544 101.691C131.684 101.309 130.851 100.887 130.005 100.465C127.84 99.3835 125.593 98.4727 123.286 97.7407C120.773 96.9017 118.111 96.6045 115.474 96.8689C114.833 96.952 114.198 97.084 113.576 97.2639C113.001 97.373 112.453 97.5953 111.965 97.9178C111.719 98.1221 111.501 98.3809 111.269 98.5989C109.138 100.737 107.008 102.903 104.891 105.055L104.727 105.233C104.359 105.6 105.014 105.818 105.301 105.532C107.226 103.612 109.206 101.732 111.146 99.8247L112.402 98.5716C112.484 98.5035 112.552 98.3945 112.648 98.3264C112.743 98.2583 112.648 98.3264 112.648 98.3264C112.999 98.1795 113.359 98.0566 113.726 97.9586C116.272 97.3224 118.94 97.3553 121.47 98.054C123.875 98.6895 126.215 99.5468 128.461 100.615C130.001 101.409 131.583 102.118 133.2 102.74C136.08 103.761 139.176 104.019 142.186 103.489C144.837 102.747 147.287 101.42 149.355 99.6068C151.759 97.7952 154.34 96.0925 157.549 96.6237C158.972 96.8757 160.311 97.4719 161.449 98.3601C162.587 99.2483 163.489 100.401 164.076 101.718C164.076 101.854 164.363 101.718 164.322 101.609H164.226Z" fill="black"/>
<path d="M174.359 102.154C178.292 100.043 180.135 95.5206 180.381 91.2571C180.468 89.7425 180.363 88.223 180.067 86.7348C179.548 84.1603 178.401 81.2862 175.574 80.6324C174.873 80.4221 174.125 80.4225 173.424 80.6336C172.723 80.8448 172.099 81.2572 171.632 81.8195C171.164 82.3818 170.873 83.0691 170.795 83.7955C170.716 84.5218 170.854 85.2552 171.191 85.9039L171.532 85.6042C170.686 85.3896 169.888 85.0151 169.183 84.5008C168.455 84.0331 167.794 83.4696 167.217 82.8254C166.053 81.537 165.322 79.9175 165.127 78.1941C164.957 76.4105 165.354 74.6188 166.261 73.0724C167.132 71.6224 168.478 70.516 170.071 69.9395C171.873 69.2632 173.814 69.0342 175.725 69.272C176.066 69.272 176.558 68.7953 176.052 68.6727C174.239 68.2589 172.346 68.3628 170.59 68.9724C168.787 69.4675 167.18 70.5042 165.988 71.9419C165.197 72.9058 164.624 74.0279 164.306 75.2322C163.989 76.4365 163.934 77.6948 164.147 78.9219C164.359 80.149 164.833 81.3163 165.537 82.3446C166.241 83.373 167.159 84.2384 168.227 84.8823C169.202 85.4101 170.252 85.7868 171.341 85.9992C171.505 85.9992 171.737 85.8766 171.682 85.6995C171.443 85.0473 171.414 84.3365 171.6 83.667C171.786 82.9976 172.178 82.4031 172.72 81.9673C173.179 81.6219 173.731 81.4206 174.305 81.3891C174.879 81.3576 175.449 81.4972 175.943 81.7902C178.046 82.8799 178.77 85.3998 179.139 87.5657C179.689 90.5863 179.381 93.7003 178.251 96.5559C177.325 98.6632 175.923 100.528 174.154 102.004C174.004 102.141 174.154 102.29 174.373 102.209L174.359 102.154Z" fill="black"/>
<path d="M175.014 105.575C177.724 103.965 180.009 101.733 181.678 99.0635C184.435 94.9124 185.955 90.0662 186.062 85.0878C186.125 80.4895 185.194 75.9316 183.33 71.7252C181.196 66.8599 177.826 62.6343 173.553 59.4659C169.224 56.2306 164.051 54.3104 158.654 53.9355C157.849 53.9355 157.056 53.9355 156.251 53.9355C155.978 53.9355 155.786 54.3578 156.141 54.3714C159.109 54.4085 162.053 54.9048 164.868 55.8426C167.238 56.664 169.485 57.8051 171.545 59.2343C175.741 62.0381 179.16 65.8516 181.487 70.3222C185.789 78.6313 186.444 89.0109 181.788 97.32C180.767 99.1576 179.519 100.86 178.073 102.387C177.104 103.455 175.981 104.373 174.741 105.111C174.386 105.316 174.563 105.765 174.946 105.575H175.014Z" fill="black"/>
<path d="M163.79 103.327C163.915 102.795 164.172 102.304 164.537 101.897C164.902 101.49 165.364 101.181 165.879 100.998C167.187 100.777 168.53 101.049 169.648 101.76C171.396 102.537 173.827 103.327 175.274 101.57C175.425 101.365 175.138 101.311 175.001 101.42C174.463 101.786 173.832 101.995 173.181 102.024C172.53 102.053 171.883 101.9 171.314 101.583C170.163 100.985 168.943 100.528 167.681 100.221C167.186 100.121 166.675 100.127 166.182 100.238C165.689 100.349 165.224 100.563 164.82 100.865C164.415 101.167 164.078 101.551 163.833 101.992C163.587 102.432 163.437 102.92 163.394 103.422C163.394 103.626 163.749 103.531 163.79 103.422V103.327Z" fill="black"/>
<path d="M163.967 108.992C163.454 110.201 162.666 111.274 161.666 112.128C160.666 112.981 159.481 113.591 158.204 113.909C156.938 114.158 155.633 114.127 154.38 113.819C153.127 113.51 151.957 112.932 150.953 112.125C148.699 110.585 146.651 108.638 144.057 107.67C141.13 106.714 137.986 106.638 135.016 107.453C133.191 107.943 131.423 108.628 129.745 109.496C127.647 110.551 125.48 111.461 123.258 112.22C120.837 113.065 118.26 113.376 115.707 113.133C115.087 113.064 114.475 112.941 113.877 112.765C113.46 112.68 113.056 112.543 112.675 112.356C112.364 112.095 112.077 111.808 111.815 111.498C109.671 109.373 107.458 107.303 105.314 105.164C105.055 104.892 104.386 105.328 104.686 105.627C106.653 107.589 108.564 109.618 110.531 111.58L111.719 112.765C112.238 113.185 112.861 113.457 113.522 113.555C116.093 114.209 118.788 114.209 121.36 113.555C123.82 112.949 126.205 112.077 128.475 110.953C130.092 110.084 131.761 109.315 133.473 108.651C136.572 107.518 139.951 107.389 143.128 108.283C145.859 109.223 147.976 111.335 150.338 112.928C151.367 113.726 152.547 114.309 153.807 114.642C155.067 114.974 156.382 115.049 157.672 114.863C158.891 114.638 160.049 114.158 161.068 113.453C162.088 112.749 162.945 111.836 163.584 110.776C163.867 110.25 164.087 109.692 164.24 109.114C164.24 108.951 164.021 109.005 163.967 109.114V108.992Z" fill="black"/>
<path d="M174.127 108.749C175.674 110.114 176.96 111.748 177.923 113.571C178.688 115.2 179.151 116.954 179.289 118.747C179.413 120.109 179.377 121.48 179.18 122.834C178.879 124.836 178.333 127.233 176.612 128.5C176.099 128.922 175.464 129.168 174.8 129.203C174.136 129.237 173.479 129.058 172.925 128.691C172.311 128.273 171.854 127.664 171.624 126.959C171.394 126.254 171.405 125.493 171.655 124.795C171.655 124.645 171.519 124.577 171.409 124.604C170.467 124.802 169.55 125.109 168.678 125.517C167.861 125.978 167.116 126.557 166.466 127.233C165.107 128.631 164.26 130.445 164.063 132.382C163.863 134.379 164.344 136.385 165.428 138.076C166.463 139.637 167.984 140.815 169.757 141.427C171.718 142.204 173.868 142.38 175.93 141.931C176.353 141.822 176.394 141.263 175.93 141.332C172.748 141.754 168.911 140.827 166.889 138.212C165.796 136.794 165.189 135.063 165.16 133.274C165.13 131.486 165.679 129.735 166.725 128.282C167.309 127.515 168.01 126.844 168.801 126.293C169.608 125.672 170.54 125.231 171.532 124.999L171.3 124.754C171.017 125.353 170.883 126.012 170.912 126.675C170.94 127.337 171.13 127.982 171.464 128.555C171.817 129.072 172.301 129.488 172.867 129.758C173.433 130.028 174.061 130.144 174.687 130.094C177.555 129.889 179.221 127.369 179.904 124.809C180.866 121.324 180.703 117.626 179.439 114.238C178.559 111.777 176.805 109.722 174.509 108.463C174.386 108.463 174.072 108.572 174.223 108.708L174.127 108.749Z" fill="black"/>
<path d="M174.742 105.574C177.327 107.234 179.484 109.479 181.037 112.126C183.64 116.201 185.058 120.916 185.134 125.747C185.174 130.145 184.29 134.502 182.539 138.538C180.479 143.269 177.234 147.392 173.116 150.511C168.334 154.251 162.437 156.293 156.36 156.314C156.087 156.314 155.896 156.736 156.251 156.736C161.857 156.829 167.362 155.239 172.051 152.173C176.399 149.339 179.963 145.461 182.416 140.894C184.515 136.889 185.752 132.491 186.049 127.981C186.431 122.769 185.272 117.56 182.717 112.998C181.075 109.972 178.734 107.381 175.888 105.438C175.67 105.301 175.452 105.165 175.219 105.043C174.987 104.92 174.468 105.315 174.796 105.506L174.742 105.574Z" fill="black"/>
<path d="M163.393 107.372C163.425 107.884 163.573 108.382 163.824 108.829C164.076 109.276 164.425 109.661 164.846 109.955C165.267 110.25 165.749 110.446 166.256 110.529C166.764 110.612 167.283 110.581 167.776 110.437C169.975 109.96 172.815 107.413 174.987 109.265C175.11 109.374 175.41 109.265 175.273 109.061C173.908 107.236 171.341 108.217 169.634 108.993C168.535 109.664 167.221 109.893 165.96 109.633C165.439 109.439 164.972 109.126 164.595 108.719C164.218 108.313 163.942 107.823 163.789 107.29C163.789 107.072 163.379 107.181 163.393 107.372Z" fill="black"/>
<path d="M104.904 16.9395C106.454 18.1383 107.686 19.6973 108.493 21.4804C109.3 23.2636 109.657 25.2167 109.533 27.1692C109.438 28.8264 108.976 30.442 108.18 31.8999C107.385 33.3578 106.275 34.6217 104.931 35.6009H105.068C103.724 34.6217 102.614 33.3578 101.819 31.8999C101.023 30.442 100.561 28.8264 100.466 27.1692C100.342 25.2167 100.699 23.2636 101.506 21.4804C102.313 19.6973 103.545 18.1383 105.095 16.9395H104.904Z" fill="#FFDCB6"/>
<path d="M105.219 35.5051C102.977 33.5677 101.488 30.9065 101.013 27.986C100.699 25.4568 101.176 22.8926 102.378 20.644C103.169 19.3037 104.154 18.0873 105.301 17.0344C105.478 16.8573 105.219 16.6938 105.041 16.7756C102.501 18.0151 100.945 21.0391 100.357 23.668C99.6491 26.4801 100.024 29.4549 101.409 32.0044C102.241 33.5485 103.477 34.8385 104.987 35.7366C105.11 35.7366 105.383 35.6277 105.246 35.5051H105.219Z" fill="black"/>
<path d="M105.027 35.7101C110.243 32.5227 111.254 25.4123 108.455 20.2906C107.734 18.7863 106.546 17.554 105.068 16.7763C104.904 16.6946 104.535 16.8989 104.713 17.0896C105.681 18.0432 106.554 19.0877 107.321 20.2089C107.994 21.337 108.482 22.5647 108.769 23.8459C109.389 26.4496 109.089 29.187 107.922 31.5965C107.154 33.089 106.101 34.4171 104.822 35.5058C104.644 35.6693 104.822 35.8055 105.027 35.7101V35.7101Z" fill="black"/>
<path d="M68.5661 34.618C68.2704 36.2346 68.3569 37.8978 68.8192 39.4751C69.2815 41.0524 70.1068 42.5003 71.229 43.7035C72.3546 44.7048 73.7211 45.3982 75.1954 45.7157C76.6697 46.0332 78.2014 45.9641 79.641 45.5151C81.0774 45.0239 82.3638 44.1738 83.3774 43.0459C84.391 41.918 85.098 40.55 85.4311 39.0722C84.98 39.2644 84.4947 39.3635 84.0042 39.3635C83.5137 39.3635 83.0283 39.2644 82.5772 39.0722C82.1249 38.8771 81.7205 38.5859 81.3927 38.2189C81.0648 37.8519 80.8212 37.4179 80.6789 36.9473C80.5184 36.1594 80.5848 35.3423 80.8699 34.5904C81.155 33.8384 81.6472 33.1821 82.2902 32.6974C83.5875 31.7669 85.092 31.1639 86.674 30.9401C89.5418 30.368 97.3121 29.9049 101.696 36.2116L101.177 35.3671C101.534 35.7476 101.791 36.2107 101.924 36.7147C102.058 37.2188 102.064 37.748 101.941 38.2549C101.677 39.2624 101.297 40.236 100.808 41.1562C100.322 42.0815 100.114 43.1265 100.207 44.1666C100.322 44.8588 100.656 45.4962 101.159 45.9862C101.663 46.4762 102.31 46.7931 103.007 46.8909L101.341 46.3869C99.4536 47.0764 97.8763 48.417 96.8944 50.166C95.9125 51.915 95.5906 53.9568 95.9872 55.922C96.9295 59.8722 100.63 62.5692 102.214 66.3152C103.43 69.7296 103.43 73.4574 102.214 76.8718C101.177 80.3044 94.3349 90.0165 97.7626 98.0532L105.069 105.341L112.374 98.0532C115.788 90.0165 108.96 80.3453 107.923 76.8718C106.707 73.4574 106.707 69.7296 107.923 66.3152C109.507 62.5692 113.208 59.8722 114.136 55.922C114.539 53.9581 114.222 51.9151 113.242 50.165C112.262 48.4149 110.685 47.0742 108.797 46.3869L107.131 46.8909C107.827 46.7931 108.474 46.4762 108.978 45.9862C109.481 45.4962 109.815 44.8588 109.93 44.1666C110.016 43.1269 109.808 42.0838 109.329 41.1562C108.84 40.236 108.46 39.2624 108.196 38.2549C108.07 37.7482 108.074 37.218 108.207 36.7133C108.341 36.2086 108.6 35.7456 108.96 35.3671L108.442 36.2116C112.812 29.9049 120.582 30.368 123.463 30.9401C125.045 31.1639 126.549 31.7669 127.847 32.6974C128.49 33.1821 128.982 33.8384 129.267 34.5904C129.553 35.3423 129.619 36.1594 129.458 36.9473C129.316 37.4179 129.072 37.8519 128.744 38.2189C128.417 38.5859 128.012 38.8771 127.56 39.0722C127.107 39.264 126.619 39.3629 126.126 39.3629C125.634 39.3629 125.146 39.264 124.692 39.0722C125.03 40.5499 125.741 41.9171 126.756 43.0446C127.772 44.172 129.059 45.0224 130.496 45.5151C131.936 45.9641 133.467 46.0332 134.942 45.7157C136.416 45.3982 137.783 44.7048 138.908 43.7035C140.031 42.5003 140.856 41.0524 141.318 39.4751C141.78 37.8978 141.867 36.2346 141.571 34.618C148.399 41.1018 153.575 47.6265 156.456 54.192C156.45 50.1867 155.596 46.2278 153.948 42.5751C152.301 38.9224 149.898 35.6583 146.897 32.997C141.615 28.2503 134.875 25.4314 127.779 25.0012C114.805 24.1839 106.967 32.1388 105.069 35.5442C103.211 32.1525 95.359 24.1295 82.3312 24.9467C75.2348 25.3769 68.4947 28.1958 63.2127 32.9425C60.2111 35.6033 57.8078 38.8672 56.1603 42.5201C54.5128 46.1729 53.6584 50.1321 53.6535 54.1376C56.7261 47.3949 61.9566 40.9111 68.5661 34.618Z" fill="#E25A6B"/>
<path d="M101.313 46.2656C100.166 46.5966 99.1072 47.1782 98.2134 47.9683C97.2758 48.8158 96.5347 49.857 96.042 51.0195C95.5419 52.1883 95.314 53.4551 95.3755 54.7244C95.437 55.9938 95.7863 57.2326 96.3971 58.3479C97.6807 60.8542 99.7701 62.8157 101.163 65.254C102.692 68.1594 103.095 71.5242 102.297 74.7073C102.091 75.7943 101.775 76.8577 101.354 77.8811C100.986 78.7256 100.576 79.5429 100.166 80.3738C99.0617 82.5175 98.1168 84.7392 97.3393 87.0211C96.4708 89.5216 96.1359 92.1754 96.3561 94.8126C96.4277 95.4371 96.5418 96.056 96.6975 96.6651C96.7987 97.2498 97.002 97.8124 97.2983 98.3269C97.5166 98.5676 97.7492 98.795 97.9947 99.008C100.152 101.16 102.324 103.272 104.509 105.383C104.561 105.448 104.621 105.508 104.686 105.56C104.946 105.832 105.615 105.396 105.315 105.097C103.403 103.176 101.546 101.215 99.6337 99.294L98.3908 98.0409C98.0543 97.6516 97.8239 97.1825 97.7217 96.6787C97.046 94.1345 97.046 91.4587 97.7217 88.9145C98.3479 86.5094 99.2032 84.1695 100.276 81.9266C100.986 80.3465 101.859 78.8073 102.433 77.1591C103.472 74.3093 103.74 71.2369 103.211 68.2507C102.479 65.6224 101.162 63.1923 99.3603 61.1403C97.5441 58.743 95.8371 56.1413 96.3014 52.9674C96.5159 51.5473 97.0919 50.2056 97.9741 49.0706C98.8562 47.9355 100.015 47.0449 101.341 46.4836C101.477 46.4836 101.45 46.2384 101.341 46.2793L101.313 46.2656Z" fill="black"/>
<path d="M101.872 36.131C99.9333 32.1672 95.1674 30.4373 91.0159 30.233C89.4923 30.1441 87.9635 30.254 86.4684 30.5599C83.8737 31.0775 81.0062 32.2489 80.2005 35.014C79.9788 35.6936 79.9682 36.4242 80.1705 37.1098C80.3728 37.7954 80.7783 38.4039 81.3337 38.8553C81.9346 39.2804 82.6368 39.5406 83.3701 39.61C84.1035 39.6793 84.8423 39.5553 85.5125 39.2504L85.1985 39.0869C84.9743 39.9564 84.5848 40.7748 84.0512 41.4979C83.5895 42.2454 83.0188 42.9203 82.3579 43.5003C81.0702 44.6481 79.4375 45.3379 77.715 45.4618C75.9201 45.5525 74.1423 45.0758 72.635 44.0996C71.2198 43.1564 70.1509 41.7794 69.5897 40.1766C68.9434 38.3807 68.7192 36.4607 68.9343 34.5646C68.9343 34.1151 68.2787 34.2377 68.1968 34.5646C67.7551 36.3829 67.8374 38.2887 68.4342 40.0624C69.0309 41.8361 70.1178 43.4056 71.5698 44.59C73.1772 45.7228 75.1076 46.3093 77.0752 46.2627C79.0428 46.2161 80.9429 45.5389 82.4946 44.3312C83.2961 43.6776 83.9876 42.9005 84.543 42.0291C85.0511 41.0849 85.4147 40.0702 85.6219 39.0188C85.6219 38.8144 85.4307 38.8144 85.3078 38.8553C84.7094 39.0597 84.0635 39.0832 83.4518 38.9227C82.8401 38.7623 82.2897 38.4251 81.8695 37.9536C81.4493 37.482 81.178 36.8971 81.09 36.2723C81.002 35.6476 81.101 35.0108 81.3747 34.442C82.3853 32.2898 84.8978 31.6087 87.0555 31.241C90.0451 30.7134 93.1229 31.0246 95.9456 32.1399C98.0303 33.1103 99.8904 34.5018 101.408 36.2264C101.531 36.3353 101.845 36.2264 101.763 36.0221L101.872 36.131Z" fill="black"/>
<path d="M105.314 35.4634C103.718 32.7636 101.487 30.4917 98.8142 28.8434C94.595 26.0964 89.6775 24.6078 84.6394 24.5526C80.0485 24.5044 75.5 25.4332 71.2974 27.2769C66.4234 29.412 62.1885 32.7726 59.0069 37.0299C55.7458 41.3355 53.8099 46.4939 53.4352 51.8772C53.4352 52.6673 53.4352 53.4573 53.4352 54.2474C53.4352 54.5334 53.9403 54.3836 53.9539 54.1384C54.0014 51.1549 54.5081 48.1963 55.4562 45.3662C56.285 42.991 57.4286 40.7371 58.8566 38.6645C61.673 34.4829 65.5007 31.077 69.9861 28.7616C78.3709 24.5254 88.7086 24.0077 96.9978 28.7616C98.8227 29.7978 100.515 31.051 102.037 32.4939C103.098 33.4548 104.017 34.5599 104.768 35.7766C104.932 36.0627 105.519 35.7767 105.369 35.5043L105.314 35.4634Z" fill="black"/>
<path d="M103.075 46.7964C102.569 46.6601 102.102 46.4082 101.711 46.0607C101.32 45.7131 101.015 45.2795 100.821 44.7941C100.648 44.1674 100.604 43.5119 100.694 42.8678C100.783 42.2237 101.003 41.6046 101.34 41.0482C102.132 39.2774 103.184 36.8119 101.34 35.3272C101.217 35.2318 100.917 35.3953 101.053 35.5451C101.394 36.0456 101.603 36.6239 101.66 37.2263C101.718 37.8287 101.622 38.4358 101.381 38.9914C100.958 40.2582 100.179 41.3887 99.8654 42.71C99.7181 43.208 99.6859 43.7328 99.7713 44.2449C99.8568 44.7571 100.057 45.2433 100.358 45.6668C100.66 46.0904 101.053 46.4403 101.509 46.6902C101.966 46.9401 102.473 47.0836 102.993 47.1097C103.157 47.1097 103.347 46.8509 103.115 46.7964H103.075Z" fill="black"/>
<path d="M108.577 46.4701C109.77 46.9783 110.83 47.7531 111.676 48.7348C112.521 49.7165 113.129 50.8788 113.452 52.132C113.775 53.3852 113.806 54.6958 113.541 55.9625C113.275 57.2292 112.722 58.4182 111.923 59.4378C110.421 61.6989 108.468 63.6877 107.417 66.2485C106.345 69.1532 106.202 72.3176 107.007 75.3067C107.474 77.1533 108.152 78.9403 109.028 80.6328C110.088 82.7517 111 84.9409 111.759 87.1847C112.617 89.612 112.948 92.1937 112.729 94.7582C112.663 95.3746 112.548 95.9848 112.387 96.5835C112.304 97.0552 112.157 97.5134 111.951 97.9456C111.71 98.2401 111.44 98.5094 111.145 98.7493C109.001 100.901 106.898 103.094 104.754 105.247C104.385 105.614 105.04 105.832 105.327 105.546C107.294 103.585 109.315 101.664 111.281 99.7028L112.483 98.5041C112.897 97.9961 113.174 97.3914 113.289 96.7469C113.944 94.2047 113.944 91.5384 113.289 88.9963C112.686 86.5521 111.816 84.1813 110.694 81.9267C109.813 80.3168 109.037 78.6515 108.373 76.9413C107.249 73.8846 107.082 70.5596 107.894 67.4063C108.755 64.682 110.831 62.5298 112.469 60.2006C113.297 59.1872 113.914 58.0197 114.284 56.7663C114.654 55.5128 114.771 54.1983 114.627 52.8994C114.417 51.6741 113.941 50.5093 113.234 49.486C112.526 48.4627 111.604 47.6055 110.53 46.9741C109.973 46.6896 109.387 46.4659 108.782 46.3066C108.687 46.3066 108.495 46.4564 108.632 46.5109L108.577 46.4701Z" fill="black"/>
<path d="M108.469 36.2942C109.808 34.6841 111.462 33.3632 113.331 32.4121C114.93 31.6614 116.65 31.2002 118.411 31.05C119.736 30.9453 121.069 30.991 122.384 31.1862C124.419 31.4858 126.768 32.058 128.079 33.7879C128.511 34.2986 128.783 34.9248 128.86 35.5884C128.938 36.2521 128.818 36.9239 128.516 37.5202C128.14 38.166 127.547 38.6576 126.841 38.9072C126.136 39.1567 125.364 39.1479 124.665 38.8823C124.622 38.8739 124.577 38.8755 124.535 38.8869C124.492 38.8983 124.453 38.9193 124.42 38.9483C124.387 38.9772 124.361 39.0134 124.344 39.0539C124.328 39.0944 124.321 39.1382 124.323 39.182C124.507 40.1499 124.819 41.0891 125.252 41.9744C125.723 42.7796 126.312 43.5097 127 44.1402C128.442 45.4273 130.273 46.1988 132.203 46.3332C134.223 46.4685 136.234 45.9529 137.938 44.8622C139.492 43.8328 140.667 42.3264 141.284 40.5714C142.097 38.6373 142.274 36.496 141.79 34.4553C141.708 34.1148 141.011 34.3872 141.052 34.7005C141.434 37.8471 140.67 41.7564 138.034 43.786C136.617 44.8729 134.879 45.4622 133.091 45.4622C131.303 45.4622 129.565 44.8729 128.147 43.786C127.374 43.1888 126.697 42.4768 126.14 41.6747C125.503 40.869 125.038 39.9419 124.774 38.9504L124.378 39.182C124.95 39.4577 125.581 39.5892 126.215 39.5648C126.85 39.5404 127.469 39.361 128.018 39.0422C128.567 38.7234 129.029 38.2751 129.363 37.7366C129.698 37.1981 129.894 36.5858 129.936 35.9537C129.936 32.9842 127.109 31.3224 124.61 30.6822C121.102 29.7747 117.399 29.9601 114 31.2134C111.515 32.0901 109.427 33.8248 108.114 36.1036C108.005 36.3215 108.332 36.3351 108.442 36.2261L108.469 36.2942Z" fill="black"/>
<path d="M105.3 35.6144C106.968 33.0308 109.217 30.8712 111.869 29.3076C115.987 26.7229 120.755 25.3535 125.621 25.3574C130.012 25.3643 134.353 26.2925 138.361 28.0817C143.074 30.2001 147.168 33.4818 150.256 37.6168C153.977 42.3911 156.017 48.2557 156.06 54.3031C156.06 54.5891 156.579 54.4392 156.579 54.1941C156.701 48.573 155.095 43.0494 151.976 38.3659C149.105 34.0535 145.187 30.5347 140.588 28.1362C136.562 26.0885 132.153 24.9008 127.642 24.6491C122.432 24.3349 117.241 25.5218 112.688 28.0681C109.667 29.7168 107.076 32.0496 105.123 34.8788C104.986 35.0968 104.85 35.3147 104.727 35.5463C104.604 35.7778 105.136 35.9413 105.3 35.6689V35.6144Z" fill="black"/>
<path d="M107.021 47.043C107.542 47.0057 108.048 46.856 108.505 46.6043C108.962 46.3526 109.359 46.0048 109.668 45.5851C109.977 45.1654 110.191 44.6838 110.295 44.1735C110.399 43.6632 110.391 43.1365 110.271 42.6297C109.874 41.3857 109.381 40.1743 108.796 39.0064C108.515 38.4441 108.389 37.8176 108.43 37.1908C108.47 36.5639 108.677 35.9589 109.028 35.4375C109.179 35.2877 108.933 35.1651 108.796 35.2741C106.98 36.7588 107.799 39.1153 108.619 40.9134C109.272 42.0065 109.528 43.291 109.342 44.5503C109.194 45.0984 108.899 45.5964 108.491 45.9919C108.082 46.3874 107.575 46.6659 107.021 46.7979C106.843 46.7979 106.748 47.1384 107.021 47.1111V47.043Z" fill="black"/>
<path d="M16.386 105.37C17.5879 103.824 19.1509 102.595 20.9386 101.79C22.7263 100.985 24.6843 100.629 26.6417 100.752C28.3032 100.847 29.9231 101.308 31.3847 102.102C32.8463 102.896 34.1134 104.002 35.0951 105.343V105.207C34.1134 106.547 32.8463 107.654 31.3847 108.448C29.9231 109.241 28.3032 109.702 26.6417 109.797C24.6843 109.921 22.7263 109.564 20.9386 108.76C19.1509 107.955 17.5879 106.725 16.386 105.179V105.37Z" fill="#FFDCB6"/>
<path d="M34.9713 105.192C33.0849 107.443 30.4466 108.938 27.5425 109.401C25.0246 109.71 22.4724 109.235 20.2364 108.039C18.9037 107.223 17.6789 106.244 16.5903 105.124C16.4401 104.988 16.0713 105.124 16.1669 105.369C16.827 106.673 17.8768 107.739 19.1712 108.421C20.3935 109.161 21.7326 109.691 23.1316 109.987C25.9751 110.622 28.9527 110.211 31.5163 108.829C33.05 108.004 34.3401 106.793 35.258 105.315C35.3673 105.138 35.0669 105.111 34.9713 105.22V105.192Z" fill="black"/>
<path d="M35.2585 105.369C32.1859 100.029 24.7845 99.2801 19.7317 102.073C18.2324 102.794 16.9925 103.96 16.181 105.41C16.0581 105.682 16.4269 105.682 16.5771 105.546C17.5105 104.515 18.5652 103.601 19.7181 102.822C20.8299 102.18 22.0377 101.72 23.2958 101.46C25.9057 100.859 28.645 101.201 31.0253 102.427C32.5066 103.216 33.8376 104.258 34.9581 105.505C35.0537 105.614 35.3541 105.505 35.2585 105.328V105.369Z" fill="black"/>
<path d="M34.1111 141.67C35.7319 141.965 37.3991 141.878 38.9804 141.417C40.5617 140.956 42.0134 140.133 43.2196 139.014C44.2235 137.891 44.9183 136.528 45.2366 135.057C45.555 133.587 45.486 132.059 45.0359 130.623C44.5434 129.19 43.6912 127.907 42.5604 126.896C41.4297 125.885 40.0579 125.18 38.5763 124.847C38.769 125.297 38.8684 125.782 38.8684 126.271C38.8684 126.76 38.769 127.244 38.5763 127.694C38.3807 128.146 38.0888 128.549 37.7208 128.876C37.3529 129.203 36.9181 129.446 36.4462 129.588C35.6564 129.748 34.837 129.682 34.0831 129.397C33.3292 129.113 32.6714 128.622 32.1854 127.98C31.2526 126.686 30.6481 125.186 30.4237 123.608C29.8502 120.747 29.386 112.997 35.7088 108.624L34.8619 109.142C35.2434 108.785 35.7079 108.529 36.2132 108.396C36.7185 108.263 37.249 108.257 37.7572 108.379C38.7673 108.643 39.7432 109.022 40.6657 109.51C41.5934 109.994 42.6412 110.202 43.684 110.109C44.3682 109.998 44.9999 109.675 45.49 109.186C45.9802 108.697 46.3039 108.067 46.4152 107.385L45.9098 109.047C46.5988 110.93 47.943 112.503 49.6975 113.481C51.4521 114.458 53.5002 114.775 55.469 114.373C59.4292 113.446 62.1333 109.755 65.8751 108.175C69.3029 106.962 73.044 106.962 76.4718 108.175C79.9131 109.21 89.6363 116.034 97.707 112.615L105.013 105.328L97.707 98.0404C89.6363 94.635 79.9541 101.446 76.4718 102.481C73.044 103.693 69.3029 103.693 65.8751 102.481C62.1333 100.901 59.4292 97.2095 55.469 96.2832C53.5002 95.881 51.4521 96.1974 49.6975 97.175C47.943 98.1525 46.5988 99.7261 45.9098 101.609L46.4152 103.271C46.3039 102.589 45.9802 101.958 45.49 101.469C44.9999 100.981 44.3682 100.658 43.684 100.547C42.6416 100.461 41.5956 100.668 40.6657 101.146C39.7432 101.634 38.7673 102.013 37.7572 102.277C37.2492 102.402 36.7175 102.398 36.2115 102.265C35.7055 102.132 35.2413 101.873 34.8619 101.514L35.7088 102.031C29.386 97.6726 29.8502 89.922 30.4237 87.0478C30.6481 85.4698 31.2526 83.9695 32.1854 82.6754C32.6714 82.034 33.3292 81.5428 34.0831 81.2584C34.837 80.974 35.6564 80.908 36.4462 81.068C36.9181 81.21 37.3529 81.453 37.7208 81.78C38.0888 82.107 38.3807 82.5102 38.5763 82.9614C38.7686 83.4138 38.868 83.9002 38.868 84.3916C38.868 84.8831 38.7686 85.3695 38.5763 85.822C40.0578 85.4848 41.4288 84.7761 42.5591 83.7631C43.6894 82.7501 44.5419 81.4662 45.0359 80.0328C45.486 78.5969 45.555 77.0691 45.2366 75.5985C44.9183 74.128 44.2235 72.7647 43.2196 71.642C42.0196 70.5106 40.571 69.675 38.9894 69.2019C37.4078 68.7289 35.7372 68.6315 34.1111 68.9177C40.6114 62.1069 47.1524 56.9444 53.7347 54.0703C49.7192 54.076 45.7504 54.9285 42.0884 56.5717C38.4263 58.215 35.1538 60.6119 32.4858 63.6053C27.727 68.8739 24.9011 75.597 24.4699 82.6754C23.6505 95.6158 31.6256 103.434 35.0396 105.328C31.6393 107.18 23.5958 115.013 24.4152 128.008C24.8465 135.086 27.6723 141.809 32.4311 147.078C35.1008 150.069 38.3737 152.465 42.0353 154.108C45.697 155.751 49.6649 156.604 53.68 156.613C46.9339 153.48 40.4202 148.29 34.1111 141.67Z" fill="#E25A6B"/>
<path d="M45.7732 109.049C46.0863 110.248 46.6914 111.353 47.5349 112.263C48.4016 113.161 49.4551 113.859 50.6212 114.306C51.8175 114.755 53.0978 114.936 54.3719 114.837C55.646 114.738 56.8832 114.362 57.9956 113.734C60.481 112.372 62.4609 110.329 64.919 108.967C67.8833 107.498 71.2859 107.168 74.4782 108.041C75.494 108.252 76.4867 108.562 77.4418 108.967C78.3158 109.348 79.1487 109.77 79.9953 110.193C82.1592 111.276 84.4057 112.187 86.714 112.917C89.2265 113.756 91.8893 114.053 94.5255 113.789C95.1675 113.706 95.8019 113.574 96.4236 113.394C96.9989 113.285 97.5466 113.062 98.0349 112.74C98.2807 112.536 98.4992 112.277 98.7314 112.059C100.862 109.92 102.979 107.754 105.109 105.602L105.273 105.425C105.641 105.057 104.986 104.839 104.699 105.126C102.76 107.046 100.794 108.926 98.8544 110.833L97.5981 112.086C97.5232 112.174 97.4407 112.256 97.3521 112.331C97.2565 112.399 97.3521 112.331 97.3521 112.331C97.0067 112.48 96.6506 112.603 96.2869 112.699C93.741 113.335 91.0734 113.302 88.544 112.604C86.1388 111.968 83.7983 111.111 81.5523 110.043C80.0094 109.246 78.4229 108.537 76.8 107.918C73.9252 106.896 70.8331 106.638 67.8279 107.169C65.1738 107.914 62.7198 109.24 60.6448 111.051C58.255 112.863 55.6741 114.565 52.5196 114.034C51.0968 113.782 49.7575 113.186 48.6195 112.298C47.4814 111.409 46.5794 110.256 45.9919 108.94C45.9919 108.803 45.7049 108.94 45.7459 109.049H45.7732Z" fill="black"/>
<path d="M35.6409 108.502C31.7079 110.613 29.8645 115.135 29.6187 119.399C29.5248 120.914 29.6304 122.434 29.9327 123.921C30.4517 126.496 31.5988 129.37 34.4256 130.024C35.1262 130.227 35.8711 130.222 36.5687 130.009C37.2663 129.795 37.8862 129.383 38.3521 128.823C38.8179 128.263 39.1093 127.579 39.1906 126.856C39.2718 126.132 39.1392 125.401 38.8091 124.752L38.4677 125.052C39.3094 125.268 40.102 125.642 40.8029 126.155C41.5378 126.619 42.2042 127.183 42.7829 127.831C43.9446 129.12 44.6749 130.739 44.8723 132.462C45.0424 134.245 44.6458 136.037 43.7388 137.584C42.8674 139.034 41.5222 140.14 39.929 140.716C38.1298 141.406 36.1861 141.635 34.2752 141.384C33.9338 141.384 33.4422 141.861 33.9338 141.983C35.7469 142.395 37.6394 142.291 39.3963 141.684C41.1996 141.189 42.8065 140.152 43.9985 138.714C44.7888 137.75 45.3622 136.628 45.6798 135.424C45.9975 134.22 46.0519 132.961 45.8395 131.734C45.6272 130.507 45.153 129.34 44.4489 128.311C43.7449 127.283 42.8273 126.418 41.7587 125.774C40.7837 125.246 39.7338 124.869 38.6451 124.657C38.4812 124.657 38.2491 124.779 38.3037 124.956C38.5435 125.609 38.5726 126.319 38.3864 126.989C38.2002 127.658 37.8082 128.253 37.2658 128.689C36.807 129.034 36.2555 129.235 35.6815 129.267C35.1076 129.298 34.5373 129.159 34.0432 128.866C31.9402 127.776 31.2163 125.256 30.8476 123.09C30.2909 120.07 30.5987 116.954 31.7354 114.1C32.6667 112.019 34.069 110.182 35.8322 108.733C35.9824 108.583 35.832 108.434 35.6135 108.515L35.6409 108.502Z" fill="black"/>
<path d="M34.9858 105.097C32.2736 106.698 29.9879 108.926 28.3218 111.594C25.5665 115.746 24.0464 120.592 23.9379 125.57C23.8673 130.169 24.7992 134.728 26.6691 138.933C28.8037 143.798 32.1742 148.024 36.447 151.192C40.7762 154.427 45.9493 156.348 51.3457 156.722C52.1377 156.722 52.9434 156.79 53.7491 156.722C54.0223 156.722 54.2136 156.3 53.8585 156.3C50.891 156.251 47.9482 155.75 45.1321 154.815C42.7605 153.996 40.5136 152.855 38.4544 151.424C34.259 148.616 30.8362 144.804 28.4991 140.336C24.2112 132.027 23.5557 121.647 28.2124 113.338C29.2329 111.5 30.4808 109.798 31.9268 108.271C32.8962 107.203 34.019 106.285 35.2588 105.546C35.6139 105.342 35.4228 104.893 35.0541 105.097H34.9858Z" fill="black"/>
<path d="M46.2111 107.331C46.0841 107.863 45.8269 108.356 45.4623 108.765C45.0976 109.173 44.637 109.486 44.1217 109.674C42.808 109.883 41.463 109.607 40.3389 108.897C38.6046 108.121 36.174 107.331 34.7265 109.088C34.5763 109.292 34.863 109.347 34.9995 109.238C35.5356 108.871 36.1637 108.662 36.8129 108.633C37.4621 108.604 38.1063 108.757 38.6729 109.074C39.8293 109.672 41.0537 110.129 42.3193 110.436C42.8149 110.536 43.3258 110.53 43.8189 110.419C44.3121 110.308 44.7765 110.095 45.1812 109.793C45.586 109.491 45.922 109.107 46.1677 108.666C46.4135 108.225 46.5633 107.738 46.6072 107.235C46.6072 107.031 46.2521 107.126 46.2111 107.235V107.331Z" fill="black"/>
<path d="M46.0329 101.664C46.5459 100.455 47.3333 99.382 48.3334 98.5286C49.3335 97.6752 50.5189 97.0653 51.7957 96.747C53.0617 96.4982 54.3667 96.5291 55.6195 96.8374C56.8722 97.1457 58.0424 97.7239 59.0472 98.5314C61.3004 100.071 63.3349 102.019 65.9432 102.986C68.8697 103.942 72.0142 104.018 74.9836 103.204C76.8091 102.713 78.5762 102.028 80.2547 101.16C82.3537 100.129 84.521 99.2412 86.7413 98.5042C89.1629 97.6593 91.7393 97.3479 94.2931 97.5915C94.9128 97.6602 95.5252 97.7833 96.1232 97.9593C96.5396 98.0439 96.9432 98.1812 97.3247 98.368C97.6349 98.6297 97.9229 98.9167 98.1852 99.2261C100.329 101.351 102.542 103.422 104.686 105.56C104.945 105.833 105.614 105.397 105.314 105.097C103.347 103.135 101.435 101.106 99.4688 99.1444L98.2809 97.9593C97.7588 97.5446 97.1376 97.2724 96.4782 97.1693C93.901 96.5223 91.2032 96.5223 88.626 97.1693C86.1714 97.7772 83.7904 98.6496 81.5249 99.771C79.9079 100.64 78.2384 101.409 76.5266 102.073C73.4274 103.206 70.0489 103.335 66.872 102.441C64.1408 101.501 62.0241 99.3896 59.6616 97.7959C58.6327 96.9977 57.4527 96.415 56.1926 96.0826C54.9325 95.7503 53.6181 95.6751 52.3282 95.8617C51.108 96.0845 49.9494 96.5641 48.9298 97.2688C47.9102 97.9734 47.0531 98.8869 46.4153 99.9481C46.135 100.476 45.9148 101.033 45.7595 101.61C45.7595 101.773 45.9783 101.719 46.0329 101.61V101.664Z" fill="black"/>
<path d="M35.8732 101.909C34.323 100.547 33.0366 98.9126 32.0771 97.0874C31.3119 95.4585 30.8492 93.7048 30.7115 91.9112C30.5872 90.5495 30.6236 89.1779 30.8205 87.8248C31.121 85.8224 31.6674 83.4251 33.388 82.1583C33.9009 81.7363 34.5362 81.49 35.2001 81.4557C35.864 81.4213 36.5213 81.6008 37.0751 81.9676C37.689 82.3853 38.1466 82.9943 38.3764 83.6993C38.6062 84.4042 38.5951 85.1653 38.345 85.8633C38.345 86.0131 38.4815 86.0812 38.5907 86.054C39.5334 85.8559 40.4499 85.5497 41.322 85.1414C42.1393 84.6798 42.8847 84.1016 43.5344 83.4251C44.8964 82.0294 45.7437 80.2142 45.9379 78.2761C46.1312 76.2794 45.6506 74.2755 44.5723 72.5823C43.5347 71.0239 42.0144 69.847 40.2434 69.2314C38.2821 68.4541 36.1328 68.2786 34.0709 68.7274C33.6339 68.8364 33.6065 69.3949 34.0709 69.3268C37.2527 68.9045 41.0899 69.8308 43.111 72.4462C44.2025 73.8649 44.8078 75.5961 44.8373 77.3842C44.8668 79.1723 44.3191 80.9224 43.275 82.3762C42.6911 83.1428 41.9907 83.8138 41.1993 84.3649C40.3982 85.0104 39.4664 85.4752 38.4681 85.7271L38.7001 85.9723C38.9838 85.373 39.1171 84.7139 39.0885 84.0518C39.06 83.3898 38.8706 82.7446 38.5364 82.1718C38.1836 81.654 37.6993 81.2388 37.1331 80.9684C36.567 80.698 35.9391 80.5822 35.3134 80.6327C32.4457 80.837 30.7795 83.3569 30.0967 85.9177C29.1235 89.4001 29.2814 93.1006 30.5475 96.488C31.4336 98.9504 33.192 101.005 35.4911 102.263C35.614 102.332 35.9281 102.155 35.7779 102.018L35.8732 101.909Z" fill="black"/>
<path d="M35.259 105.084C32.6729 103.42 30.5125 101.176 28.9501 98.5316C26.3519 94.4546 24.9341 89.7405 24.8533 84.9102C24.815 80.5129 25.6986 76.1562 27.4478 72.1197C29.5074 67.3887 32.7521 63.2655 36.8703 60.1463C41.6485 56.4002 47.5488 54.3617 53.6263 54.3572C53.8994 54.3572 54.0907 53.9213 53.7356 53.9213C48.1304 53.8349 42.6274 55.4242 37.9355 58.4846C33.5875 61.3182 30.0235 65.1965 27.5708 69.7631C25.4735 73.7698 24.2318 78.1668 23.9244 82.6763C23.5632 87.8651 24.721 93.0468 27.2567 97.5918C28.9028 100.614 31.2426 103.204 34.0847 105.152C34.3032 105.288 34.5217 105.424 34.7539 105.547C34.986 105.669 35.5047 105.274 35.177 105.084H35.259Z" fill="black"/>
<path d="M46.6061 103.284C46.5736 102.773 46.4259 102.275 46.1744 101.828C45.9228 101.381 45.5738 100.996 45.1528 100.701C44.7319 100.407 44.2498 100.211 43.7426 100.128C43.2353 100.044 42.7159 100.076 42.2226 100.22C40.024 100.71 37.1835 103.244 35.0122 101.391C34.8893 101.282 34.5889 101.391 34.7118 101.595C36.0774 103.421 38.6582 102.44 40.3652 101.595C41.4636 100.924 42.7771 100.695 44.0386 100.955C44.5591 101.149 45.0268 101.462 45.4039 101.869C45.781 102.276 46.0571 102.765 46.21 103.298C46.21 103.516 46.6198 103.407 46.6061 103.216V103.284Z" fill="black"/>
<path d="M105.095 193.718C103.545 192.519 102.313 190.96 101.506 189.177C100.699 187.394 100.342 185.441 100.466 183.488C100.561 181.831 101.023 180.216 101.819 178.758C102.614 177.3 103.724 176.036 105.068 175.057H104.931C106.275 176.036 107.385 177.3 108.18 178.758C108.976 180.216 109.438 181.831 109.533 183.488C109.657 185.441 109.3 187.394 108.493 189.177C107.686 190.96 106.454 192.519 104.904 193.718H105.095Z" fill="#FFDCB6"/>
<path d="M104.782 175.153C107.024 177.091 108.512 179.752 108.988 182.672C109.302 185.202 108.825 187.766 107.622 190.014C106.832 191.355 105.847 192.571 104.7 193.624C104.522 193.801 104.782 193.965 104.959 193.883C107.499 192.643 109.056 189.633 109.643 186.99C110.35 184.178 109.975 181.204 108.592 178.654C107.76 177.11 106.523 175.82 105.014 174.922C104.891 174.922 104.618 175.031 104.755 175.153H104.782Z" fill="black"/>
<path d="M104.973 174.948C99.7561 178.135 98.7455 185.245 101.545 190.367C102.266 191.871 103.453 193.104 104.932 193.881C105.096 193.963 105.464 193.759 105.287 193.568C104.319 192.615 103.445 191.57 102.679 190.449C102 189.324 101.511 188.095 101.231 186.812C100.611 184.208 100.91 181.471 102.077 179.061C102.845 177.569 103.898 176.241 105.177 175.152C105.355 174.988 105.178 174.852 104.973 174.948V174.948Z" fill="black"/>
<path d="M141.434 176.037C141.729 174.42 141.643 172.757 141.18 171.18C140.718 169.603 139.893 168.155 138.771 166.952C137.645 165.95 136.279 165.257 134.804 164.939C133.33 164.622 131.798 164.691 130.359 165.14C128.922 165.633 127.634 166.483 126.619 167.61C125.603 168.738 124.893 170.105 124.555 171.583C125.009 171.391 125.496 171.292 125.989 171.292C126.481 171.292 126.969 171.391 127.423 171.583C127.875 171.778 128.279 172.069 128.607 172.436C128.935 172.803 129.179 173.237 129.321 173.708C129.481 174.496 129.415 175.313 129.13 176.065C128.845 176.817 128.352 177.473 127.709 177.958C126.412 178.888 124.908 179.491 123.326 179.715C120.458 180.287 112.688 180.75 108.304 174.443L108.823 175.288C108.463 174.91 108.203 174.446 108.07 173.942C107.936 173.437 107.932 172.907 108.058 172.4C108.323 171.393 108.703 170.419 109.192 169.499C109.671 168.571 109.879 167.528 109.793 166.488C109.678 165.796 109.344 165.159 108.84 164.669C108.337 164.179 107.69 163.862 106.993 163.764L108.659 164.268C110.547 163.581 112.125 162.24 113.105 160.49C114.085 158.74 114.402 156.697 113.999 154.733C113.07 150.783 109.37 148.086 107.785 144.34C106.57 140.925 106.57 137.198 107.785 133.783C108.823 130.351 115.651 120.652 112.237 112.602L104.931 105.314L97.6254 112.602C94.1978 120.652 101.039 130.31 102.077 133.783C103.293 137.198 103.293 140.925 102.077 144.34C100.493 148.086 96.7923 150.783 95.8501 154.733C95.4534 156.698 95.775 158.74 96.7569 160.489C97.7388 162.238 99.3161 163.579 101.203 164.268L102.869 163.764C102.173 163.862 101.526 164.179 101.022 164.669C100.519 165.159 100.185 165.796 100.07 166.488C99.9765 167.529 100.185 168.574 100.671 169.499C101.16 170.419 101.54 171.393 101.804 172.4C101.926 172.907 101.92 173.436 101.787 173.94C101.653 174.444 101.397 174.907 101.039 175.288L101.558 174.443C97.1883 180.75 89.418 180.287 86.5366 179.715C84.9545 179.491 83.4504 178.888 82.153 177.958C81.51 177.473 81.0175 176.817 80.7324 176.065C80.4473 175.313 80.3813 174.496 80.5417 173.708C80.6841 173.237 80.9277 172.803 81.2555 172.436C81.5834 172.069 81.9874 171.778 82.4398 171.583C82.8908 171.391 83.3762 171.292 83.8667 171.292C84.3572 171.292 84.8429 171.391 85.294 171.583C84.9609 170.105 84.2538 168.737 83.2402 167.609C82.2266 166.481 80.9403 165.631 79.5038 165.14C78.0643 164.691 76.5326 164.622 75.0583 164.939C73.584 165.257 72.2171 165.95 71.0915 166.952C69.9693 168.155 69.1443 169.603 68.682 171.18C68.2197 172.757 68.1329 174.42 68.4286 176.037C61.6006 169.553 56.4251 163.029 53.5437 156.463C53.5486 160.469 54.4027 164.428 56.0502 168.081C57.6977 171.733 60.1013 174.997 63.1029 177.658C68.3848 182.405 75.125 185.224 82.2214 185.654C95.1946 186.471 103.033 178.516 104.931 175.111C106.788 178.503 114.641 186.526 127.669 185.708C134.765 185.278 141.505 182.459 146.787 177.713C149.788 175.051 152.191 171.787 153.839 168.135C155.486 164.482 156.341 160.523 156.346 156.518C153.274 163.26 148.071 169.744 141.434 176.037Z" fill="#E25A6B"/>
<path d="M108.687 164.392C109.834 164.061 110.893 163.479 111.787 162.689C112.725 161.842 113.466 160.801 113.959 159.638C114.459 158.469 114.687 157.203 114.625 155.933C114.564 154.664 114.214 153.425 113.604 152.31C112.238 149.817 110.231 147.842 108.838 145.404C107.309 142.498 106.905 139.133 107.704 135.95C107.903 134.862 108.219 133.798 108.646 132.777C109.001 131.932 109.425 131.115 109.834 130.284C110.939 128.14 111.883 125.918 112.661 123.636C113.529 121.136 113.865 118.482 113.645 115.845C113.573 115.221 113.459 114.602 113.303 113.993C113.202 113.408 112.998 112.845 112.702 112.331C112.484 112.09 112.251 111.863 112.006 111.65C109.848 109.506 107.677 107.382 105.492 105.275C105.439 105.209 105.38 105.15 105.314 105.098C105.055 104.825 104.386 105.261 104.686 105.561C106.598 107.481 108.455 109.457 110.367 111.377L111.61 112.617C111.941 113.009 112.171 113.477 112.279 113.979C112.955 116.523 112.955 119.199 112.279 121.743C111.655 124.149 110.8 126.489 109.725 128.731C109.015 130.311 108.141 131.85 107.567 133.498C106.528 136.348 106.26 139.421 106.789 142.407C107.522 145.035 108.838 147.465 110.64 149.517C112.456 151.915 114.163 154.516 113.699 157.69C113.484 159.11 112.909 160.452 112.027 161.587C111.144 162.722 109.985 163.613 108.66 164.174C108.523 164.174 108.551 164.419 108.66 164.378L108.687 164.392Z" fill="black"/>
<path d="M108.127 174.527C110.053 178.491 114.832 180.221 119.052 180.439C120.576 180.516 122.104 180.402 123.599 180.098C126.194 179.58 129.062 178.409 129.868 175.644C130.089 174.964 130.1 174.234 129.897 173.548C129.695 172.863 129.289 172.254 128.734 171.803C128.133 171.378 127.431 171.117 126.698 171.048C125.964 170.979 125.226 171.103 124.556 171.408L124.87 171.571C125.089 170.7 125.478 169.88 126.016 169.16C126.474 168.409 127.045 167.734 127.71 167.158C128.998 166.01 130.631 165.32 132.353 165.196C134.148 165.105 135.926 165.582 137.433 166.558C138.848 167.502 139.917 168.879 140.478 170.481C141.125 172.277 141.349 174.197 141.134 176.093C141.134 176.543 141.776 176.42 141.871 176.093C142.313 174.275 142.231 172.369 141.634 170.596C141.037 168.822 139.95 167.252 138.498 166.068C136.891 164.935 134.96 164.349 132.993 164.395C131.025 164.442 129.125 165.119 127.573 166.327C126.768 166.977 126.076 167.754 125.525 168.629C125.017 169.573 124.653 170.588 124.446 171.639C124.446 171.844 124.637 171.844 124.76 171.803C125.407 171.573 126.111 171.559 126.766 171.763C127.421 171.967 127.992 172.378 128.393 172.933C128.744 173.398 128.958 173.953 129.009 174.534C129.059 175.114 128.945 175.697 128.68 176.216C127.683 178.368 125.17 179.049 123.012 179.417C120.023 179.945 116.945 179.633 114.122 178.518C112.04 177.544 110.18 176.153 108.66 174.432C108.537 174.309 108.223 174.432 108.305 174.622L108.127 174.527Z" fill="black"/>
<path d="M104.686 175.192C106.279 177.895 108.511 180.168 111.187 181.812C115.402 184.557 120.314 186.046 125.348 186.103C129.943 186.152 134.497 185.224 138.704 183.379C143.575 181.24 147.809 177.88 150.994 173.626C154.255 169.32 156.191 164.161 156.566 158.778C156.566 157.988 156.566 157.198 156.566 156.408C156.566 156.122 156.06 156.272 156.047 156.517C155.992 159.5 155.486 162.457 154.545 165.289C153.717 167.667 152.568 169.922 151.131 171.991C148.323 176.175 144.498 179.581 140.014 181.894C131.63 186.13 121.292 186.648 113.003 181.894C111.178 180.858 109.486 179.604 107.964 178.161C106.903 177.201 105.984 176.095 105.233 174.879C105.069 174.593 104.468 174.879 104.632 175.151L104.686 175.192Z" fill="black"/>
<path d="M106.926 163.942C107.429 164.083 107.894 164.337 108.284 164.684C108.675 165.031 108.981 165.462 109.179 165.944C109.349 166.572 109.391 167.227 109.302 167.87C109.213 168.514 108.994 169.133 108.66 169.69C107.868 171.461 106.816 173.927 108.66 175.411C108.783 175.507 109.083 175.411 108.947 175.194C108.606 174.693 108.397 174.115 108.34 173.512C108.283 172.91 108.378 172.303 108.619 171.747C109.042 170.48 109.821 169.35 110.135 168.029C110.282 167.531 110.314 167.006 110.229 166.494C110.143 165.982 109.943 165.495 109.641 165.072C109.34 164.648 108.947 164.298 108.491 164.048C108.035 163.798 107.527 163.655 107.008 163.629C106.844 163.629 106.652 163.888 106.885 163.942H106.926Z" fill="black"/>
<path d="M101.408 164.186C100.218 163.675 99.1619 162.898 98.3198 161.915C97.4777 160.933 96.8725 159.771 96.5508 158.518C96.229 157.266 96.1993 155.957 96.4638 154.692C96.7283 153.426 97.2798 152.238 98.0764 151.219C99.5786 148.957 101.531 146.969 102.583 144.408C103.654 141.503 103.797 138.339 102.993 135.35C102.525 133.507 101.847 131.725 100.972 130.037C99.9141 127.912 99.0016 125.719 98.2405 123.472C97.3824 121.044 97.0519 118.463 97.2709 115.898C97.3371 115.282 97.4513 114.672 97.6123 114.073C97.6954 113.601 97.8422 113.143 98.0491 112.711C98.2896 112.416 98.5597 112.147 98.8549 111.907C100.999 109.755 103.102 107.562 105.246 105.41C105.615 105.042 104.959 104.824 104.672 105.11C102.706 107.071 100.685 108.992 98.7045 110.953L97.503 112.152C97.0931 112.661 96.8203 113.266 96.7108 113.909C96.0552 116.452 96.0552 119.118 96.7108 121.66C97.3111 124.105 98.1815 126.476 99.3057 128.73C100.181 130.342 100.957 132.007 101.627 133.715C102.753 136.772 102.915 140.099 102.091 143.25C101.245 145.974 99.169 148.126 97.5303 150.456C96.703 151.469 96.0861 152.636 95.7156 153.89C95.3452 155.143 95.2286 156.458 95.3726 157.757C95.5828 158.982 96.0583 160.147 96.7658 161.17C97.4733 162.194 98.3959 163.051 99.4694 163.682C100.025 163.969 100.612 164.193 101.217 164.35C101.313 164.35 101.504 164.2 101.354 164.145L101.408 164.186Z" fill="black"/>
<path d="M101.559 174.363C100.22 175.973 98.5654 177.294 96.6972 178.245C95.0982 178.996 93.3781 179.457 91.6172 179.607C90.2922 179.717 88.9592 179.675 87.6434 179.485C85.595 179.172 83.2596 178.599 81.9487 176.87C81.5168 176.359 81.2452 175.733 81.1675 175.069C81.0898 174.405 81.2096 173.733 81.5119 173.137C81.885 172.492 82.4761 172.001 83.1792 171.752C83.8824 171.502 84.6514 171.51 85.349 171.775C85.5265 171.775 85.745 171.653 85.6904 171.475C85.5121 170.53 85.2044 169.613 84.7755 168.751C84.3045 167.942 83.7101 167.212 83.0139 166.585C81.5789 165.296 79.7519 164.523 77.8248 164.392C75.8044 164.257 73.7935 164.773 72.089 165.863C70.5381 166.898 69.3607 168.402 68.7297 170.154C67.9217 172.09 67.7498 174.231 68.2383 176.27C68.3202 176.611 69.0164 176.27 68.9754 176.025C68.5931 172.878 69.3581 168.969 71.9937 166.939C73.4113 165.853 75.149 165.263 76.937 165.263C78.725 165.263 80.463 165.853 81.8806 166.939C82.6541 167.537 83.3311 168.249 83.888 169.051C84.5166 169.836 84.981 170.739 85.2536 171.707L85.6497 171.475C85.0769 171.199 84.4447 171.068 83.809 171.093C83.1734 171.118 82.5538 171.299 82.0047 171.619C81.4555 171.94 80.9937 172.39 80.6601 172.93C80.3265 173.47 80.1313 174.084 80.0916 174.717C80.0916 177.673 82.9183 179.335 85.4173 179.975C88.9257 180.883 92.6285 180.697 96.0281 179.444C98.5101 178.563 100.597 176.83 101.914 174.554C102.023 174.336 101.695 174.322 101.586 174.431L101.559 174.363Z" fill="black"/>
<path d="M104.7 175.044C103.032 177.628 100.783 179.787 98.1313 181.351C94.0108 183.932 89.2454 185.306 84.3796 185.315C79.9887 185.302 75.649 184.374 71.6388 182.59C66.926 180.472 62.832 177.19 59.7441 173.055C56.0228 168.281 53.983 162.416 53.9403 156.369C53.9403 156.083 53.4215 156.233 53.4215 156.478C53.2991 162.099 54.9053 167.623 58.0237 172.306C60.892 176.622 64.8103 180.141 69.4127 182.536C73.4373 184.585 77.8468 185.773 82.3585 186.023C87.5686 186.337 92.7592 185.15 97.3118 182.604C100.333 180.955 102.924 178.622 104.877 175.793C105.014 175.575 105.151 175.357 105.273 175.126C105.396 174.894 104.864 174.731 104.7 175.003V175.044Z" fill="black"/>
<path d="M103.034 163.615C102.513 163.652 102.006 163.802 101.549 164.054C101.092 164.305 100.696 164.653 100.386 165.073C100.077 165.492 99.8635 165.974 99.7594 166.484C99.6552 166.995 99.6634 167.521 99.7834 168.028C100.18 169.272 100.674 170.484 101.258 171.651C101.539 172.214 101.666 172.84 101.625 173.467C101.584 174.094 101.378 174.699 101.026 175.22C100.876 175.37 101.122 175.493 101.258 175.384C103.075 173.899 102.255 171.543 101.436 169.744C100.782 168.651 100.526 167.367 100.712 166.108C100.869 165.575 101.164 165.094 101.566 164.711C101.969 164.329 102.466 164.059 103.006 163.928C103.184 163.928 103.279 163.588 103.006 163.615H103.034Z" fill="black"/>
</g>
<defs>
<clipPath id="clip0_1397_35856">
<rect width="177.692" height="177.147" fill="white" transform="translate(16.1538 16.748)"/>
</clipPath>
</defs>
</svg>
