<svg width="598" height="614" viewBox="0 0 598 614" fill="none" xmlns="http://www.w3.org/2000/svg">
<g opacity="0.67" clip-path="url(#clip0_1463_83440)">
<path d="M477.601 236.565L477.121 236.016L477.601 236.565Z" fill="#68355B"/>
<path d="M451.448 231.208L452.204 229.903L451.448 231.208Z" fill="#68355B"/>
<path d="M557.293 383C551.742 375.712 547.619 367.439 545.144 358.617C542.664 349.792 539.114 341.304 534.574 333.342C529.902 326.25 523.51 320.458 515.996 316.506C508.482 312.555 500.091 310.573 491.604 310.745C497.925 305.704 503.515 299.81 508.215 293.23C510.546 289.929 512.166 286.179 512.969 282.217C513.773 278.256 513.743 274.171 512.883 270.221C510.069 259.988 500.459 253.394 491.604 247.624C486.629 244.543 482.023 240.902 477.876 236.773L477.395 236.223C474.146 233.065 471.779 229.11 470.531 224.753C472.007 229.008 474.343 232.912 477.395 236.223L477.876 236.773C480.811 239.835 484.506 242.063 488.584 243.229C492.54 243.944 496.622 243.224 500.095 241.197C503.568 239.169 506.203 235.969 507.529 232.17C508.608 228.336 508.415 224.255 506.98 220.54C505.544 216.824 502.943 213.675 499.566 211.565C496.042 209.602 492.008 208.749 487.991 209.116C483.974 209.484 480.162 211.056 477.052 213.626C482.19 208.79 485.667 202.452 486.986 195.519C488.305 188.586 487.399 181.412 484.397 175.026C486.449 178.018 489.126 180.53 492.241 182.389C495.356 184.248 498.837 185.411 502.443 185.796C506.05 186.181 509.698 185.779 513.135 184.62C516.572 183.46 519.718 181.57 522.355 179.078C528.949 171.865 532.663 162.478 532.789 152.703C533.544 143.088 532.789 133.266 534.367 123.719C534.897 118.9 536.52 114.266 539.113 110.171C541.707 106.076 545.202 102.628 549.331 100.092H548.919C530.505 98.4313 512.053 102.85 496.385 112.674C480.718 122.497 468.695 137.184 462.157 154.489C455.99 137.285 444.341 122.588 429.004 112.661C413.327 102.88 394.896 98.4683 376.493 100.092H376.081C380.2 102.64 383.687 106.09 386.279 110.183C388.871 114.276 390.501 118.904 391.045 123.719C392.692 133.266 391.869 143.088 392.624 152.703C392.75 162.478 396.463 171.865 403.057 179.078C405.695 181.57 408.84 183.46 412.278 184.62C415.715 185.779 419.362 186.181 422.968 185.796C426.575 185.411 430.056 184.248 433.171 182.389C436.287 180.53 438.963 178.018 441.016 175.026C438.014 181.412 437.107 188.586 438.426 195.519C439.745 202.452 443.223 208.79 448.36 213.626C445.25 211.056 441.438 209.484 437.421 209.116C433.405 208.749 429.37 209.602 425.846 211.565C422.473 213.681 419.871 216.828 418.424 220.539C416.978 224.25 416.765 228.328 417.815 232.17C419.166 235.966 421.817 239.16 425.298 241.184C428.779 243.209 432.865 243.933 436.829 243.229C441.034 241.739 444.888 239.401 448.154 236.361C449.448 235.028 450.557 233.526 451.449 231.896L452.204 230.591C453.089 228.88 453.802 227.086 454.332 225.234C453.851 227.102 453.136 228.902 452.204 230.591L451.449 231.896C450.473 233.471 449.371 234.964 448.154 236.361C443.823 240.821 438.931 244.699 433.602 247.899C424.747 253.669 415.138 260.262 412.324 270.496C411.446 274.444 411.408 278.533 412.212 282.497C413.016 286.461 414.645 290.211 416.992 293.505C421.692 300.084 427.282 305.979 433.602 311.02C425.107 310.855 416.709 312.84 409.185 316.79C401.661 320.741 395.256 326.528 390.564 333.616C386.045 341.581 382.519 350.069 380.063 358.892C377.486 367.617 373.321 375.79 367.776 383C363.764 387.096 358.894 390.249 353.517 392.233C348.14 394.216 342.389 394.98 336.681 394.47C340.233 401.16 345.427 406.836 351.775 410.963C358.123 415.09 365.416 417.533 372.968 418.062C380.52 418.591 388.083 417.189 394.944 413.987C401.805 410.785 407.738 405.888 412.186 399.759C411.501 404.979 411.501 410.267 412.186 415.487C412.62 420.78 415.079 425.701 419.05 429.224C423.014 432.109 427.902 433.43 432.778 432.933C437.767 432.697 442.694 431.725 447.399 430.048C441.656 435.827 437.405 442.917 435.013 450.707C432.621 458.497 432.161 466.753 433.671 474.761C436.802 485.525 441.203 495.878 446.782 505.6C455.353 523.614 460.653 543.011 462.432 562.883C464.177 543.005 469.478 523.602 478.081 505.6C483.669 495.891 488.049 485.535 491.123 474.761C492.704 466.787 492.317 458.547 489.996 450.755C487.676 442.964 483.493 435.856 477.807 430.048C482.512 431.725 487.439 432.697 492.428 432.933C497.304 433.43 502.192 432.109 506.156 429.224C510.128 425.701 512.587 420.78 513.02 415.487C513.671 410.265 513.671 404.981 513.02 399.759C517.468 405.888 523.402 410.785 530.263 413.987C537.123 417.189 544.686 418.591 552.238 418.062C559.79 417.533 567.083 415.09 573.431 410.963C579.779 406.836 584.974 401.16 588.525 394.47C582.794 395.006 577.016 394.254 571.612 392.27C566.209 390.286 561.317 387.118 557.293 383ZM480.553 391.105H441.84C441.16 391.241 440.46 391.241 439.78 391.105C439.132 390.914 438.539 390.571 438.05 390.105C437.56 389.639 437.189 389.064 436.965 388.426C436.758 387.731 436.758 386.991 436.965 386.297L439.436 376.406L456.323 307.723C457.627 302.365 467.374 299.824 468.952 306.212C469.707 309.508 470.531 313.08 471.355 316.102C476.983 338.997 482.635 361.891 488.31 384.786C489.133 388.014 483.367 390.899 480.553 390.899V391.105Z" fill="#68355B"/>
<path d="M431.336 111.561C429.209 95.0771 435.867 78.7992 443.417 64.0322C450.968 49.2652 459.823 34.6358 462.568 18.2891C465.314 34.6358 474.099 49.2652 481.65 64.0322C489.2 78.7992 495.927 95.0771 493.799 111.561L462.705 163.624L431.336 111.561Z" fill="#68355B"/>
<path d="M532.514 571.467C518.099 508.072 569.923 503.264 578.434 505.256C571.566 491.992 569.808 476.667 573.492 462.191C577.336 447.905 583.514 434.717 600.949 428.811C614.677 424.277 641.172 426.063 648.997 435.679C642.809 434.218 636.297 435.146 630.762 438.278C625.227 441.41 621.077 446.516 619.139 452.575C617.586 458.767 618.085 465.297 620.561 471.18C623.036 477.064 627.355 481.984 632.867 485.2C638.464 488.252 644.783 489.729 651.152 489.475C657.522 489.221 663.704 487.245 669.041 483.758C674.314 480.178 678.754 475.502 682.059 470.05C685.364 464.598 687.456 458.497 688.192 452.163C692.036 423.522 671.375 396.049 674.464 367.27C675.815 356.045 680.594 345.51 688.148 337.103C695.703 328.695 705.665 322.824 716.677 320.29C702.178 310.352 692.169 295.105 688.809 277.844C685.171 262.253 690.663 227.568 716.266 211.77C714.355 223.653 715.864 235.834 720.617 246.89C725.37 257.946 733.17 267.419 743.105 274.204C746.22 263.617 751.589 253.831 758.843 245.518C766.097 237.205 775.064 230.562 785.128 226.046C795.191 221.53 806.112 219.248 817.141 219.356C828.169 219.465 839.045 221.961 849.018 226.675C853.46 229.06 858.045 231.17 862.746 232.993C867.467 234.847 872.713 234.847 877.435 232.993C880.263 231.697 882.589 229.507 884.054 226.76C885.519 224.013 886.041 220.861 885.542 217.788C885.043 214.715 883.551 211.891 881.292 209.749C879.034 207.607 876.136 206.266 873.042 205.932C898.165 197.278 906.949 216.303 905.851 227.224C905.015 232.669 902.883 237.833 899.634 242.28C896.384 246.727 892.113 250.326 887.181 252.774C877.285 257.586 866.526 260.365 855.538 260.948C844.578 261.592 833.692 263.177 823.003 265.687C806.331 270.522 792.033 281.354 782.859 296.099C773.685 310.844 770.283 328.462 773.306 345.566C775.578 340.873 779.033 336.853 783.33 333.902C787.627 330.952 792.617 329.172 797.81 328.738C803.007 328.467 808.187 329.537 812.851 331.846C817.515 334.156 821.508 337.627 824.444 341.926C827.948 347.204 829.754 353.429 829.619 359.765C829.484 366.1 827.414 372.242 823.688 377.367C820.187 364.385 803.44 358.685 790.673 363.012C778.201 368.354 767.998 377.907 761.843 390.005C750.703 410.367 741.156 431.562 733.289 453.399C725.479 475.3 713.86 495.646 698.968 513.498C691.468 522.384 682.156 529.563 671.654 534.55C661.153 539.537 649.706 542.219 638.084 542.414C639.209 546.908 638.578 551.663 636.321 555.709C634.063 559.755 630.348 562.786 625.934 564.186C616.817 566.672 607.123 565.944 598.478 562.126C590.011 558.38 581.145 555.615 572.051 553.884C564.384 553.137 556.66 554.526 549.731 557.895C542.802 561.265 536.939 566.484 532.789 572.978L532.514 571.467Z" fill="#FFE8D2"/>
<path d="M532.514 571.467C518.099 508.072 569.923 503.264 578.434 505.256C571.566 491.992 569.808 476.667 573.492 462.191C577.336 447.905 583.514 434.717 600.949 428.811C614.677 424.277 641.172 426.063 648.997 435.679C642.809 434.218 636.297 435.146 630.762 438.278C625.227 441.41 621.077 446.516 619.139 452.575C617.586 458.767 618.085 465.297 620.561 471.18C623.036 477.064 627.355 481.984 632.867 485.2C638.464 488.252 644.783 489.729 651.152 489.475C657.522 489.221 663.704 487.245 669.041 483.758C674.314 480.178 678.754 475.502 682.059 470.05C685.364 464.598 687.456 458.497 688.192 452.163C692.036 423.522 671.375 396.049 674.464 367.27C675.815 356.045 680.594 345.51 688.148 337.103C695.703 328.695 705.665 322.824 716.677 320.29C702.178 310.352 692.169 295.105 688.809 277.844C685.171 262.253 690.663 227.568 716.266 211.77C714.355 223.653 715.864 235.834 720.617 246.89C725.37 257.946 733.17 267.419 743.105 274.204C746.22 263.617 751.589 253.831 758.843 245.518C766.097 237.205 775.064 230.562 785.128 226.046C795.191 221.53 806.112 219.248 817.141 219.356C828.169 219.465 839.045 221.961 849.018 226.675C853.46 229.06 858.045 231.17 862.746 232.993C867.467 234.847 872.713 234.847 877.435 232.993C880.263 231.697 882.589 229.507 884.054 226.76C885.519 224.013 886.041 220.861 885.542 217.788C885.043 214.715 883.551 211.891 881.292 209.749C879.034 207.607 876.136 206.266 873.042 205.932C898.165 197.278 906.949 216.303 905.851 227.224C905.015 232.669 902.883 237.833 899.634 242.28C896.384 246.727 892.113 250.326 887.181 252.774C877.285 257.586 866.526 260.365 855.538 260.948C844.578 261.592 833.692 263.177 823.003 265.687C806.331 270.522 792.033 281.354 782.859 296.099C773.685 310.844 770.283 328.462 773.306 345.566C775.578 340.873 779.033 336.853 783.33 333.902C787.627 330.952 792.617 329.172 797.81 328.738C803.007 328.467 808.187 329.537 812.851 331.846C817.515 334.156 821.508 337.627 824.444 341.926C827.948 347.204 829.754 353.429 829.619 359.765C829.484 366.1 827.414 372.242 823.688 377.367C820.187 364.385 803.44 358.685 790.673 363.012C778.201 368.354 767.998 377.907 761.843 390.005C750.703 410.367 741.156 431.562 733.289 453.399C725.479 475.3 713.86 495.646 698.968 513.498C691.468 522.384 682.156 529.563 671.654 534.55C661.153 539.537 649.706 542.219 638.084 542.414C639.209 546.908 638.578 551.663 636.321 555.709C634.063 559.755 630.348 562.786 625.934 564.186C616.817 566.672 607.123 565.944 598.478 562.126C590.011 558.38 581.145 555.615 572.051 553.884C564.384 553.137 556.66 554.526 549.731 557.895C542.802 561.265 536.939 566.484 532.789 572.978L532.514 571.467Z" fill="#68355B"/>
<path d="M392.761 571.467C407.244 508.072 355.42 503.264 346.84 505.256C353.762 492.011 355.548 476.673 351.851 462.191C347.939 447.905 341.83 434.717 324.395 428.811C310.667 424.277 284.103 426.063 276.346 435.679C282.544 434.215 289.065 435.141 294.611 438.272C300.157 441.403 304.321 446.51 306.274 452.575C307.815 458.767 307.31 465.292 304.835 471.174C302.36 477.055 298.049 481.976 292.546 485.2C286.948 488.252 280.628 489.729 274.259 489.475C267.89 489.221 261.709 487.245 256.372 483.758C251.101 480.168 246.659 475.492 243.344 470.042C240.029 464.593 237.917 458.497 237.152 452.163C233.377 423.522 254.038 396.049 251.292 367.27C249.941 356.045 245.162 345.51 237.608 337.103C230.053 328.695 220.09 322.824 209.078 320.29C223.432 310.286 233.291 295.045 236.534 277.844C240.172 262.253 234.75 227.568 209.078 211.77C210.972 223.652 209.454 235.827 204.703 246.88C199.952 257.932 192.162 267.408 182.239 274.204C179.113 263.624 173.738 253.846 166.482 245.539C159.226 237.233 150.261 230.594 140.201 226.08C130.14 221.565 119.224 219.281 108.199 219.384C97.1735 219.486 86.301 221.973 76.3265 226.675C71.8776 229.047 67.2937 231.157 62.5983 232.993C57.8771 234.847 52.6303 234.847 47.9091 232.993C45.0304 231.737 42.6516 229.558 41.148 226.799C39.6444 224.04 39.1011 220.858 39.6046 217.756C40.1082 214.654 41.63 211.809 43.929 209.668C46.228 207.527 49.1741 206.212 52.3022 205.932C27.1109 197.278 18.3933 216.303 19.4229 227.224C20.2587 232.669 22.3915 237.833 25.641 242.28C28.8905 246.727 33.1611 250.326 38.093 252.774C47.9894 257.586 58.7489 260.365 69.7364 260.948C80.7205 261.587 91.629 263.173 102.341 265.687C118.996 270.549 133.275 281.386 142.445 296.124C151.614 310.862 155.029 328.466 152.037 345.566C149.815 340.837 146.374 336.786 142.067 333.83C137.761 330.874 132.744 329.12 127.535 328.749C122.326 328.379 117.112 329.404 112.43 331.72C107.748 334.036 103.768 337.559 100.9 341.926C97.3957 347.204 95.5898 353.429 95.7248 359.765C95.8597 366.1 97.929 372.242 101.655 377.367C105.155 364.385 122.247 358.685 134.671 363.012C147.13 368.374 157.327 377.921 163.5 390.005C174.646 410.354 184.171 431.551 191.986 453.399C199.85 475.275 211.464 495.612 226.307 513.498C233.826 522.379 243.152 529.553 253.663 534.54C264.175 539.526 275.629 542.211 287.26 542.414C286.135 546.908 286.765 551.663 289.023 555.709C291.28 559.755 294.995 562.786 299.41 564.186C308.42 566.591 317.978 565.864 326.522 562.126C334.989 558.38 343.855 555.615 352.949 553.884C360.607 553.135 368.323 554.522 375.241 557.893C382.159 561.263 388.01 566.484 392.144 572.978L392.761 571.467Z" fill="#FFE8D2"/>
<path d="M392.761 571.467C407.244 508.072 355.42 503.264 346.84 505.256C353.762 492.011 355.548 476.673 351.851 462.191C347.939 447.905 341.83 434.717 324.395 428.811C310.667 424.277 284.103 426.063 276.346 435.679C282.544 434.215 289.065 435.141 294.611 438.272C300.157 441.403 304.321 446.51 306.274 452.575C307.815 458.767 307.31 465.292 304.835 471.174C302.36 477.055 298.049 481.976 292.546 485.2C286.948 488.252 280.628 489.729 274.259 489.475C267.89 489.221 261.709 487.245 256.372 483.758C251.101 480.168 246.659 475.492 243.344 470.042C240.029 464.593 237.917 458.497 237.152 452.163C233.377 423.522 254.038 396.049 251.292 367.27C249.941 356.045 245.162 345.51 237.608 337.103C230.053 328.695 220.09 322.824 209.078 320.29C223.432 310.286 233.291 295.045 236.534 277.844C240.172 262.253 234.75 227.568 209.078 211.77C210.972 223.652 209.454 235.827 204.703 246.88C199.952 257.932 192.162 267.408 182.239 274.204C179.113 263.624 173.738 253.846 166.482 245.539C159.226 237.233 150.261 230.594 140.201 226.08C130.14 221.565 119.224 219.281 108.199 219.384C97.1735 219.486 86.301 221.973 76.3265 226.675C71.8776 229.047 67.2937 231.157 62.5983 232.993C57.8771 234.847 52.6303 234.847 47.9091 232.993C45.0304 231.737 42.6516 229.558 41.148 226.799C39.6444 224.04 39.1011 220.858 39.6046 217.756C40.1082 214.654 41.63 211.809 43.929 209.668C46.228 207.527 49.1741 206.212 52.3022 205.932C27.1109 197.278 18.3933 216.303 19.4229 227.224C20.2587 232.669 22.3915 237.833 25.641 242.28C28.8905 246.727 33.1611 250.326 38.093 252.774C47.9894 257.586 58.7489 260.365 69.7364 260.948C80.7205 261.587 91.629 263.173 102.341 265.687C118.996 270.549 133.275 281.386 142.445 296.124C151.614 310.862 155.029 328.466 152.037 345.566C149.815 340.837 146.374 336.786 142.067 333.83C137.761 330.874 132.744 329.12 127.535 328.749C122.326 328.379 117.112 329.404 112.43 331.72C107.748 334.036 103.768 337.559 100.9 341.926C97.3957 347.204 95.5898 353.429 95.7248 359.765C95.8597 366.1 97.929 372.242 101.655 377.367C105.155 364.385 122.247 358.685 134.671 363.012C147.13 368.374 157.327 377.921 163.5 390.005C174.646 410.354 184.171 431.551 191.986 453.399C199.85 475.275 211.464 495.612 226.307 513.498C233.826 522.379 243.152 529.553 253.663 534.54C264.175 539.526 275.629 542.211 287.26 542.414C286.135 546.908 286.765 551.663 289.023 555.709C291.28 559.755 294.995 562.786 299.41 564.186C308.42 566.591 317.978 565.864 326.522 562.126C334.989 558.38 343.855 555.615 352.949 553.884C360.607 553.135 368.323 554.522 375.241 557.893C382.159 561.263 388.01 566.484 392.144 572.978L392.761 571.467Z" fill="#68355B"/>
<path d="M462.569 565.696C462.536 565.561 462.536 565.42 462.569 565.284C462.569 565.284 462.569 565.284 462.569 565.696Z" fill="#68355B"/>
</g>
<defs>
<clipPath id="clip0_1463_83440">
<rect width="598" height="614" fill="white"/>
</clipPath>
</defs>
</svg>
