<svg width="332" height="332" viewBox="0 0 332 332" fill="none" xmlns="http://www.w3.org/2000/svg">
<g opacity="0.67">
<g clip-path="url(#clip0_1395_165922)">
<path d="M39.9257 134.605C66.8469 134.605 146.699 148.605 146.699 165.917C146.699 183.229 66.8469 197.312 39.9257 197.312C13.0045 197.312 0 183.229 0 165.917C0 148.605 13.253 134.605 39.9257 134.605Z" fill="#FFDCB6"/>
<path d="M54.6709 232.93C73.7228 213.878 140.156 167.326 152.333 179.585C164.51 191.845 118.039 258.194 99.07 277.246C80.1009 296.298 60.8836 295.554 48.6241 283.294C36.3646 271.035 35.7018 251.899 54.6709 232.93Z" fill="#FFDCB6"/>
<path d="M134.606 291.99C134.606 265.069 148.687 185.217 165.999 185.217C183.312 185.217 197.311 265.069 197.311 291.99C197.311 318.912 183.312 331.917 165.999 331.917C148.687 331.917 134.606 318.912 134.606 291.99Z" fill="#FFDCB6"/>
<path d="M232.93 277.246C213.961 258.194 167.408 191.845 179.584 179.585C191.761 167.326 258.277 213.878 277.329 232.93C296.381 251.982 295.635 271.035 283.376 283.294C271.116 295.554 251.982 296.298 232.93 277.246Z" fill="#FFDCB6"/>
<path d="M292.074 197.312C265.153 197.312 185.218 183.229 185.218 165.917C185.218 148.605 265.153 134.605 292.074 134.605C318.995 134.605 332 148.605 332 165.917C332 183.229 318.913 197.312 292.074 197.312Z" fill="#FFDCB6"/>
<path d="M277.33 98.9882C258.278 118.04 191.844 164.593 179.585 152.333C167.325 140.074 213.962 73.6401 232.931 54.6711C251.9 35.702 271.117 36.3648 283.377 48.5414C295.636 60.7181 296.299 79.9363 277.33 98.9882Z" fill="#FFDCB6"/>
<path d="M197.311 39.9267C197.311 66.765 183.312 146.699 165.999 146.699C148.687 146.699 134.606 66.765 134.606 39.9267C134.606 13.0884 148.687 0 165.999 0C183.312 0 197.311 13.0056 197.311 39.9267Z" fill="#FFDCB6"/>
<path d="M99.0698 54.6702C118.039 73.6393 164.592 140.073 152.333 152.332C140.073 164.592 73.7226 118.039 54.6707 98.9874C35.6188 79.9355 36.3645 60.8 48.624 48.5405C60.8835 36.2811 80.0179 35.6183 99.0698 54.6702Z" fill="#FFDCB6"/>
<path d="M166 204.849C187.456 204.849 204.849 187.456 204.849 166C204.849 144.544 187.456 127.15 166 127.15C144.544 127.15 127.151 144.544 127.151 166C127.151 187.456 144.544 204.849 166 204.849Z" fill="#A03D12"/>
</g>
</g>
<defs>
<clipPath id="clip0_1395_165922">
<rect width="332" height="332" fill="white"/>
</clipPath>
</defs>
</svg>
