<svg width="568" height="787" viewBox="0 0 568 787" fill="none" xmlns="http://www.w3.org/2000/svg">
<g opacity="0.8" clip-path="url(#clip0_1463_83450)">
<g clip-path="url(#clip1_1463_83450)">
<path d="M501.81 424.82C499.638 421.247 498.845 417.004 499.578 412.888C500.311 408.771 502.521 405.063 505.793 402.459C508.53 399.861 512.114 398.342 515.884 398.183C519.654 398.023 523.354 399.234 526.301 401.592C528.23 403.268 529.705 405.406 530.587 407.805C531.47 410.204 531.732 412.788 531.349 415.316C531.007 417.723 530.132 420.024 528.788 422.05C527.444 424.077 525.664 425.777 523.579 427.029C520.568 428.827 517.106 429.73 513.6 429.633C510.094 429.535 506.688 428.44 503.781 426.477L501.81 424.82Z" fill="#DE923E"/>
<path d="M503.072 424.11C501.388 421.403 500.579 418.244 500.755 415.061C500.932 411.878 502.085 408.827 504.058 406.323C505.424 404.467 507.16 402.914 509.155 401.76C511.15 400.607 513.362 399.878 515.652 399.619C518.641 399.585 521.579 400.391 524.132 401.946C525.631 402.812 526.914 404.008 527.884 405.442C528.855 406.877 529.486 408.514 529.731 410.228C530.399 413.706 529.81 417.308 528.07 420.392C526.329 423.476 523.549 425.842 520.227 427.068C516.862 428.346 513.184 428.553 509.697 427.66C507.142 426.91 504.785 425.603 502.796 423.834C501.534 422.572 499.404 424.701 500.784 425.845C502.92 427.731 505.396 429.19 508.08 430.144C511.678 431.259 515.514 431.355 519.163 430.42C523.131 429.474 526.663 427.214 529.183 424.006C531.704 420.798 533.065 416.831 533.045 412.752C533.059 408.658 531.571 404.701 528.864 401.63C526.098 399.052 522.622 397.362 518.886 396.779C516.131 396.477 513.344 396.818 510.743 397.777C508.143 398.735 505.8 400.283 503.9 402.301C500.813 405.213 498.816 409.094 498.242 413.299C497.668 417.504 498.551 421.779 500.745 425.412C501.612 427.068 504.058 425.648 503.072 424.11Z" fill="#DE923E"/>
<path d="M504.807 423.164C503.61 421.037 502.97 418.643 502.944 416.203C502.919 413.763 503.51 411.356 504.662 409.205C505.814 407.054 507.49 405.229 509.536 403.898C511.581 402.567 513.929 401.774 516.362 401.592C517.864 401.56 519.358 401.824 520.758 402.37C522.158 402.916 523.436 403.732 524.521 404.772C525.605 405.812 526.473 407.056 527.076 408.432C527.679 409.808 528.006 411.29 528.036 412.792C528.032 416.075 526.827 419.244 524.647 421.7C522.468 424.155 519.464 425.729 516.204 426.122C513.092 426.558 509.923 425.995 507.151 424.514C504.38 423.032 502.15 420.709 500.784 417.879C497.85 411.553 497.318 404.376 499.286 397.687C500.958 391.44 504.362 385.794 509.106 381.399C514.668 375.66 521.925 371.858 529.81 370.554C535.286 369.958 540.825 370.607 546.015 372.45C551.205 374.294 555.911 377.285 559.784 381.202C564.656 385.722 568.071 391.591 569.596 398.06C571.12 404.529 570.683 411.304 568.342 417.524C565.76 423.208 561.041 427.643 555.209 429.868C548.545 431.679 542.309 434.803 536.87 439.058C534.623 441.261 532.867 443.914 531.719 446.844C530.57 449.773 530.054 452.912 530.205 456.056C530.402 461.853 532.374 467.453 532.295 473.29C532.245 476.684 530.954 479.943 528.665 482.45C526.376 484.957 523.248 486.538 519.872 486.896C511.837 487.405 503.868 485.166 497.274 480.546C496.488 480.191 495.597 480.143 494.777 480.411C493.957 480.679 493.266 481.244 492.841 481.995C492.416 482.746 492.288 483.629 492.48 484.47C492.673 485.311 493.173 486.05 493.883 486.541C500.963 491.088 509.136 493.648 517.546 493.955C521.357 493.928 525.1 492.947 528.435 491.101C531.769 489.254 534.588 486.602 536.634 483.386C543.772 470.805 530.876 455.148 541.484 444.066C547.795 437.756 557.772 437.401 564.95 432.274C570.98 427.829 575.208 421.361 576.86 414.054C578.077 406.962 577.511 399.678 575.213 392.859C572.915 386.04 568.957 379.9 563.696 374.991C558.435 370.082 552.035 366.558 545.074 364.737C538.112 362.916 530.807 362.855 523.816 364.559C513.992 367.567 505.411 373.684 499.365 381.991C495.966 386.468 493.566 391.622 492.328 397.106C491.09 402.589 491.041 408.274 492.187 413.778C492.908 417.627 494.577 421.236 497.042 424.279C499.507 427.322 502.69 429.704 506.305 431.21C509.634 432.472 513.223 432.891 516.753 432.43C520.283 431.969 523.644 430.642 526.537 428.567C530.025 426.056 532.595 422.472 533.855 418.364C535.116 414.255 534.997 409.846 533.518 405.811C532.034 402.196 529.448 399.14 526.127 397.08C522.806 395.019 518.92 394.059 515.021 394.335C511.513 394.728 508.157 395.981 505.251 397.984C502.344 399.986 499.978 402.676 498.362 405.814C496.747 408.952 495.931 412.441 495.989 415.97C496.047 419.499 496.976 422.96 498.694 426.043C501.06 429.75 506.976 426.437 504.649 422.691L504.807 423.164Z" fill="#DE923E"/>
<path d="M569.209 323.74C572.064 325.249 575.261 325.99 578.489 325.89C581.716 325.79 584.862 324.853 587.618 323.171C590.374 321.488 592.645 319.119 594.209 316.294C595.773 313.47 596.577 310.287 596.54 307.058C596.403 303.817 595.401 300.671 593.638 297.947C591.875 295.223 589.415 293.02 586.514 291.568C583.613 290.115 580.376 289.465 577.139 289.686C573.902 289.906 570.782 290.989 568.105 292.821C555.563 301.813 559.271 318.85 570.629 326.896C576.581 330.72 583.672 332.37 590.702 331.565C597.731 330.76 604.266 327.55 609.2 322.478C614.203 317.297 617.58 310.763 618.911 303.684C620.243 296.605 619.471 289.291 616.693 282.646C613.801 275.695 609.03 269.688 602.913 265.299C596.796 260.91 589.577 258.313 582.066 257.8C575.005 257.717 568.015 259.215 561.607 262.183C555.199 265.152 549.537 269.516 545.034 274.956C538.026 282.746 533.149 292.215 530.875 302.444C525.749 328.867 536.555 356.868 554.026 376.548C556.905 379.821 561.756 374.97 558.877 371.697C536.003 345.983 525.039 301.182 554.144 275.547C558.077 271.69 562.802 268.732 567.991 266.88C573.18 265.028 578.709 264.325 584.196 264.82C590.364 265.71 596.161 268.304 600.934 272.311C605.706 276.317 609.266 281.577 611.211 287.497C613.025 292.944 613.223 298.799 611.781 304.356C610.339 309.913 607.32 314.933 603.086 318.811C598.851 322.697 593.332 324.885 587.584 324.958C581.836 325.031 576.263 322.983 571.93 319.205C569.519 317.18 567.86 314.4 567.223 311.316C566.586 308.232 567.009 305.022 568.421 302.207C569.962 299.586 572.479 297.682 575.421 296.913C578.363 296.144 581.491 296.573 584.117 298.106C585.404 298.849 586.529 299.844 587.426 301.029C588.323 302.213 588.975 303.565 589.343 305.006C589.71 306.446 589.786 307.945 589.566 309.415C589.346 310.885 588.834 312.296 588.061 313.566C586.507 316.139 584.031 318.023 581.138 318.836C578.244 319.649 575.149 319.331 572.483 317.943C568.578 315.932 565.187 321.847 569.091 323.859L569.209 323.74Z" fill="#DE923E"/>
<path d="M607.858 319.324C604.618 320.861 601.944 323.38 600.217 326.523C598.489 329.667 597.796 333.274 598.236 336.834C598.867 340.936 601.115 344.998 600.05 349.06C598.442 352.5 596.162 355.584 593.345 358.131C590.476 361.851 589.085 366.501 589.441 371.185C589.892 375.838 592.107 380.142 595.632 383.213C590.329 380.64 585.86 376.62 582.741 371.617C579.622 366.614 577.98 360.832 578.004 354.936C578.226 348.997 580.086 343.235 583.378 338.287C586.67 333.338 591.266 329.396 596.658 326.896L607.858 319.324Z" fill="#DE923E"/>
<path d="M607.148 318.14C603.17 319.964 599.981 323.162 598.17 327.146C596.359 331.131 596.046 335.635 597.289 339.831C598.157 343.223 599.734 346.852 598.117 350.283C596.128 353.234 593.885 356.005 591.412 358.565C589.566 361.131 588.375 364.109 587.942 367.241C587.507 370.426 587.857 373.669 588.964 376.687C590.071 379.705 591.9 382.406 594.291 384.554L595.987 382.306C592.223 380.484 588.888 377.885 586.202 374.679C583.517 371.473 581.542 367.733 580.409 363.707C579.276 359.682 579.01 355.461 579.629 351.325C580.247 347.189 581.737 343.231 583.998 339.713C586.321 336.206 589.326 333.202 592.832 330.879C594.686 329.656 596.737 328.789 598.59 327.487L608.331 320.743C609.633 319.442 608.41 317.194 606.912 318.219L598.354 324.174C594.367 326.449 590.557 329.02 586.956 331.865C583.043 335.412 580.061 339.865 578.272 344.835C576.484 349.804 575.944 355.137 576.699 360.364C577.455 365.591 579.483 370.552 582.606 374.811C585.728 379.071 589.85 382.497 594.607 384.791C595.987 385.461 597.565 383.726 596.342 382.582C593.837 380.423 592.028 377.57 591.143 374.383C590.259 371.196 590.339 367.819 591.373 364.677C592.536 361.583 594.383 358.793 596.776 356.514C598.807 354.623 600.349 352.269 601.272 349.652C602.613 344.446 599.221 339.713 599.3 334.508C599.4 331.606 600.295 328.787 601.887 326.36C603.48 323.933 605.709 321.99 608.331 320.743C610.224 319.797 608.805 317.352 607.148 318.14Z" fill="#DE923E"/>
<path d="M592.832 263.361C591.757 258.145 591.203 252.834 591.176 247.507C589.222 243.533 586.698 239.866 583.683 236.622C581.775 232.945 580.681 228.9 580.477 224.762C580.273 220.624 580.963 216.491 582.5 212.644C585.103 204.756 589.598 197.658 592.675 189.928C595.751 182.198 596.027 167.882 587.272 150.529C596.09 161.258 603.437 173.115 609.12 185.787C614.809 198.618 615.192 213.178 610.185 226.29C607.345 232.679 602.849 238.2 599.773 244.589C597.931 247.561 596.727 250.884 596.238 254.347C595.749 257.81 595.987 261.336 596.934 264.702L592.832 263.361Z" fill="#DE923E"/>
<path d="M594.331 263.124C593.48 258.359 593.031 253.53 592.99 248.69C591.632 244.273 589.16 240.28 585.813 237.095C578.399 226.605 583.683 213.038 588.613 202.745C592.945 195.463 595.562 187.289 596.264 178.845C596.012 168.808 593.433 158.966 588.731 150.095L586.247 151.475C599.103 168.67 613.143 187.679 612.394 210.198C612.247 215.049 611.315 219.844 609.633 224.396C607.261 229.688 604.396 234.746 601.075 239.501C596.382 247.112 592.32 256.144 595.396 265.372L597.131 263.637L593.385 262.256C591.689 261.586 591.097 264.544 592.635 264.978L596.382 266.358C596.623 266.43 596.879 266.435 597.123 266.374C597.367 266.312 597.589 266.186 597.767 266.008C597.945 265.83 598.072 265.608 598.133 265.364C598.195 265.12 598.189 264.864 598.117 264.623C594.292 253.462 602.179 243.366 607.464 234.532C612.674 226.373 615.312 216.838 615.036 207.162C614.326 185.313 601.154 167.093 588.534 150.292C588.316 150.038 588.018 149.866 587.689 149.807C587.359 149.748 587.02 149.804 586.728 149.967C586.435 150.129 586.208 150.387 586.084 150.698C585.961 151.009 585.948 151.353 586.049 151.672C590.948 160.803 593.394 171.049 593.148 181.409C592.478 191.465 586.128 199.944 582.5 209.094C578.872 218.244 577.018 229.168 582.421 237.805C585.024 241.906 589.638 245.022 589.914 250.11C589.873 254.877 590.416 259.632 591.531 264.268C592.162 265.609 594.923 264.899 594.331 263.124Z" fill="#DE923E"/>
<path d="M566.252 383.331C569.798 388.014 572.324 393.388 573.666 399.106C575.059 404.821 574.73 410.821 572.724 416.35C570.717 421.879 567.121 426.692 562.387 430.183C557.478 432.903 552.296 435.097 546.927 436.73C541.691 438.758 537.439 442.728 535.056 447.812C530.402 458.066 538.566 469.622 534.425 479.994C532.795 483.371 530.204 486.191 526.976 488.1C523.748 490.009 520.028 490.92 516.284 490.721L514.864 490.642C534.07 492.259 548.662 477.115 558.285 465.52C566.503 455.925 572.544 444.664 575.993 432.511C579.148 420.364 578.398 397.45 567.356 384.436L566.252 383.331Z" fill="#DE923E"/>
<path d="M565.029 384.002C568.309 388.125 570.638 392.92 571.852 398.046C573.065 403.173 573.132 408.504 572.049 413.659C570.931 418.274 568.603 422.508 565.305 425.925C561.401 429.467 556.731 432.058 551.659 433.497C543.338 436.454 535.214 440.714 532.808 449.982C530.876 457.12 533.755 464.258 534.228 471.436C534.589 474.072 534.263 476.758 533.282 479.231C532.301 481.705 530.698 483.883 528.628 485.555C524.699 488.423 519.869 489.781 515.021 489.38C513.128 489.301 513.168 492.101 515.022 492.22C533.36 493.442 547.913 480.546 558.916 467.334C572.246 451.323 581.001 432.313 578.832 411.135C578.18 400.671 574.216 390.685 567.513 382.622C566.448 381.162 563.964 382.543 565.029 384.002C567.261 386.837 569.265 389.843 571.023 392.994C573.166 397.491 574.654 402.272 575.441 407.192C577.001 415.737 576.718 424.517 574.612 432.945C569.058 451.359 557.974 467.62 542.864 479.521C535.153 486.191 525.212 489.711 515.021 489.38L515.022 492.22C519.158 492.67 523.334 491.87 527.011 489.923C530.687 487.975 533.696 484.97 535.648 481.295C539.079 473.447 535.648 465.52 535.174 457.159C534.923 454.562 535.236 451.941 536.094 449.477C536.952 447.012 538.334 444.763 540.143 442.883C544.866 438.977 550.384 436.151 556.313 434.601C560.657 433.034 564.567 430.457 567.72 427.084C570.874 423.711 573.182 419.637 574.454 415.197C575.879 409.601 576.005 403.752 574.823 398.099C573.64 392.446 571.181 387.138 567.632 382.582C566.448 381.162 563.964 382.543 565.029 384.002Z" fill="#DE923E"/>
<path d="M570.905 320.782C573.678 322.301 576.859 322.909 579.996 322.519C583.134 322.129 586.069 320.762 588.385 318.611C590.702 316.46 592.284 313.634 592.905 310.534C593.527 307.434 593.156 304.217 591.847 301.339C590.462 298.531 588.237 296.225 585.48 294.74C582.723 293.256 579.573 292.668 576.466 293.058C573.347 293.558 570.454 294.995 568.171 297.179C565.889 299.363 564.326 302.189 563.688 305.283C563.278 308.268 563.602 311.309 564.633 314.14C565.664 316.972 567.37 319.509 569.604 321.532L570.905 320.782Z" fill="#DE923E"/>
<path d="M570.234 322.005C573.13 323.458 576.385 324.039 579.605 323.678C582.824 323.316 585.87 322.029 588.371 319.97C590.873 317.911 592.723 315.169 593.697 312.079C594.671 308.989 594.726 305.683 593.857 302.562C592.771 299.527 590.831 296.869 588.27 294.91C585.71 292.951 582.637 291.774 579.423 291.519C576.034 291.373 572.68 292.26 569.806 294.063C566.933 295.866 564.675 298.5 563.332 301.616C561.999 305.232 561.782 309.165 562.711 312.906C563.639 316.647 565.669 320.023 568.538 322.597C568.764 322.805 569.049 322.936 569.354 322.972C569.659 323.007 569.967 322.944 570.234 322.794L571.575 322.084C571.86 321.87 572.055 321.559 572.125 321.21C572.195 320.86 572.134 320.498 571.954 320.191C571.773 319.884 571.487 319.654 571.148 319.545C570.809 319.436 570.442 319.455 570.116 319.599L568.815 320.349L570.55 320.585C568.393 318.684 566.763 316.259 565.817 313.544C564.871 310.829 564.64 307.916 565.147 305.086C565.805 302.359 567.266 299.89 569.339 298C571.412 296.109 574.004 294.882 576.781 294.477C579.439 294.201 582.121 294.706 584.496 295.932C586.871 297.158 588.836 299.051 590.15 301.379C591.5 303.968 591.981 306.924 591.522 309.808C591.063 312.692 589.689 315.351 587.602 317.394C585.515 319.436 582.826 320.754 579.933 321.151C577.04 321.548 574.096 321.004 571.536 319.599C570.037 318.653 568.578 321.137 570.234 322.005Z" fill="#DE923E"/>
<path d="M493.409 484.805C498.856 480.462 503.274 474.968 506.345 468.715C507.618 465.758 508.071 462.511 507.654 459.318C507.238 456.126 505.968 453.105 503.979 450.573C501.483 448.126 498.258 446.559 494.792 446.111C491.326 445.662 487.808 446.357 484.772 448.089C482.412 454.604 478.648 460.52 473.748 465.42C468.848 470.32 462.932 474.084 456.417 476.444C454.69 479.477 454.002 482.992 454.458 486.452C454.914 489.912 456.488 493.128 458.941 495.611C461.472 497.6 464.494 498.87 467.686 499.286C470.879 499.703 474.125 499.251 477.082 497.977C483.447 494.872 489.028 490.369 493.409 484.805Z" fill="#DE923E"/>
<path d="M494.396 485.791C500.66 481.035 505.48 474.631 508.317 467.295C509.493 463.947 509.66 460.327 508.798 456.885C507.935 453.442 506.081 450.329 503.466 447.931C500.775 445.947 497.579 444.761 494.245 444.51C490.911 444.258 487.573 444.952 484.615 446.511C481.298 448.421 478.474 451.082 476.372 454.281C474.269 457.479 472.946 461.126 472.507 464.928L473.533 463.903C469.801 464.346 466.218 465.63 463.055 467.659C459.892 469.688 457.231 472.409 455.273 475.616C453.507 478.587 452.705 482.032 452.976 485.477C453.247 488.923 454.579 492.199 456.787 494.858C458.996 497.516 461.974 499.425 465.311 500.322C468.648 501.22 472.182 501.062 475.426 499.871C482.967 497.092 489.552 492.205 494.396 485.791C495.658 484.529 493.607 482.399 492.384 483.78C488.486 488.61 483.725 492.675 478.344 495.769C475.436 497.387 472.112 498.101 468.796 497.82C465.481 497.539 462.324 496.275 459.73 494.191C457.579 491.85 456.243 488.875 455.924 485.711C455.604 482.548 456.316 479.366 457.955 476.641C459.762 473.888 462.156 471.569 464.965 469.851C467.775 468.133 470.929 467.058 474.203 466.703C474.455 466.649 474.685 466.523 474.867 466.341C475.049 466.159 475.174 465.929 475.229 465.678C475.572 462.489 476.598 459.411 478.238 456.655C479.879 453.898 482.094 451.528 484.733 449.705C487.475 447.934 490.727 447.121 493.98 447.392C497.234 447.663 500.306 449.003 502.717 451.204C504.741 453.729 505.99 456.786 506.312 460.006C506.634 463.226 506.015 466.47 504.531 469.345C501.473 474.933 497.33 479.854 492.345 483.819C491.004 485.002 493.015 487.014 494.396 485.791Z" fill="#DE923E"/>
<path d="M560.533 147.216C559.389 163.268 558.048 179.831 550.516 194.147C542.983 208.463 530.639 218.836 525.551 233.546C517.821 255.947 529.416 282.055 518.926 303.272C509.737 322.163 486.705 330.05 473.572 346.496C456.062 368.424 456.772 406.363 435.949 427.186C415.125 448.01 377.186 447.3 355.258 464.81C338.773 477.982 330.925 500.975 311.995 510.203C290.738 520.497 264.551 508.981 242.308 516.79C227.598 521.877 216.673 534.537 202.87 541.793C189.066 549.05 172.148 550.509 155.939 551.81L60.5381 558.949C85.4629 570.622 105.143 589.829 127.149 605.92C133.375 611.32 140.863 615.064 148.919 616.804C156.688 617.869 164.575 615.187 172.384 615.818C189.54 617.199 202.83 633.723 220.144 634.078C233.513 634.354 246.291 624.574 259.463 626.861C269.323 628.833 277.565 637.075 287.662 638.101C299.73 639.205 309.865 629.542 321.026 624.692C325.747 621.797 331.295 620.549 336.801 621.143C352.222 625.52 361.174 635.735 378.251 627.019C390.792 620.709 397.773 604.736 411.536 602.015C422.185 599.885 433.779 606.59 443.678 601.976C453.577 597.361 455.865 581.901 465.014 574.408C474.164 566.915 486.942 568.256 498.497 565.614C507.853 562.896 516.081 557.227 521.951 549.451C527.822 541.676 531.021 532.211 531.073 522.469C540.714 522.508 550.104 519.391 557.809 513.595C565.514 507.799 571.11 499.641 573.745 490.366C576.545 479.047 574.77 465.678 582.5 456.923C590.23 448.167 605.059 446.195 610.107 435.547C614.682 425.688 607.938 414.054 610.107 403.445C612.828 389.681 628.8 382.7 635.15 370.12C643.826 353.004 633.572 344.091 629.234 328.71C628.653 323.204 629.9 317.661 632.783 312.935C637.516 301.892 647.336 291.598 646.232 279.53C645.285 269.355 636.767 261.389 634.992 251.332C632.547 238.002 642.446 225.422 642.209 212.013C641.815 194.739 625.329 181.567 623.91 164.293C623.318 156.445 626 148.557 624.936 140.788C623.17 132.74 619.429 125.259 614.051 119.018C597.96 97.0114 578.754 77.3318 567.08 52.4069L560.533 147.216ZM626.434 271.643C625.368 336.781 607.723 400.574 575.165 457.001C563.097 477.904 542.668 501.566 521.49 513.753C509.5 534.734 486.271 554.729 465.369 566.797C408.931 599.33 345.145 616.973 280.011 618.066C215.727 619.249 145.803 604.933 90.9446 567.901C121.747 569.59 152.638 567.35 182.875 561.236C215.214 554.768 249.289 537.336 277.723 533.038C308.682 528.423 337.353 512.293 363.383 494.704C380.183 483.188 395.209 468.793 413.627 460.235C432.044 451.677 458.349 451.086 472.823 465.007C458.901 450.533 459.533 424.268 468.051 405.811C476.57 387.354 490.965 372.328 502.48 355.606C520.149 329.656 536.279 300.985 540.814 269.947C545.113 241.512 562.544 207.438 569.052 175.059C575.386 144.705 577.825 113.667 576.308 82.6955C613.301 137.435 627.42 207.162 626.434 271.643V271.643Z" fill="#DE923E"/>
<path d="M559.113 147.217C558.709 159.998 556.641 172.673 552.96 184.919C548.425 197.342 539.749 207.044 532.335 217.771C525.944 226.519 522.156 236.896 521.41 247.705C520.779 257.722 522.041 267.66 522.16 277.638C522.932 288.457 520.178 299.236 514.312 308.36C506.661 319.087 494.829 325.871 484.694 333.955C475.767 340.772 468.679 349.704 464.067 359.945C459.894 370.151 456.326 380.594 453.38 391.219C450.383 402.38 445.371 412.899 438.591 422.257C431.067 430.811 421.402 437.208 410.589 440.793C390.634 448.365 367.405 451.402 351.275 466.506C341.77 475.38 335.421 486.857 326.863 496.519C319.193 505.893 308.114 511.837 296.062 513.043C276.303 514.976 255.875 508.587 237.141 517.224C225.507 522.627 216.397 532.053 205.472 538.56C193.965 544.837 181.211 548.487 168.125 549.248C139.611 552.284 111.255 553.507 82.8993 555.597L60.8534 557.214C59.5519 557.332 58.8029 559.264 60.1438 559.895C81.4797 570.11 98.9899 585.412 117.329 599.728C124.901 606.473 133.434 612.056 142.648 616.292C151.955 619.763 160.986 616.726 170.451 616.805C188.672 616.963 201.371 634.158 219.433 635.183C227.672 634.824 235.786 633.035 243.412 629.898C247.581 628.429 251.967 627.669 256.387 627.65C261.468 628.094 266.372 629.729 270.703 632.422C278.354 636.524 285.768 640.546 294.681 638.811C302.767 636.319 310.436 632.637 317.437 627.886C321.615 625.557 326.066 623.755 330.688 622.523C335.459 621.806 340.333 622.709 344.531 625.087C350.543 628.247 357.009 630.455 363.698 631.634C371.767 632.003 379.671 629.265 385.783 623.982C393.434 617.751 399.152 608.405 408.46 604.461C416.623 601.03 425.142 604.264 433.542 604.855C437.374 605.253 441.242 604.587 444.72 602.932C448.198 601.276 451.154 598.693 453.261 595.469C458.901 587.463 461.583 576.972 471.048 572.476C480.513 567.98 489.742 569.164 498.852 566.994C506.686 564.861 513.827 560.718 519.568 554.977C525.309 549.236 529.451 542.095 531.585 534.261C532.645 530.396 533.136 526.397 533.045 522.39L531.585 523.849C539.693 523.847 547.656 521.705 554.67 517.641C561.685 513.576 567.503 507.732 571.536 500.699C575.315 492.819 577.487 484.266 577.925 475.538C578.302 470.817 579.503 466.199 581.474 461.892C584.002 457.311 587.869 453.61 592.556 451.284C599.97 447.024 609.002 443.593 612.394 434.995C615.273 427.62 612.788 419.615 611.723 412.003C611.016 407.317 611.716 402.527 613.735 398.239C616.183 393.847 619.357 389.9 623.121 386.566C630.131 380.855 635.619 373.498 639.093 365.151C641.086 358.348 640.568 351.056 637.634 344.604C634.755 337.387 629.234 329.341 631.285 321.217C635.662 305.324 652.699 291.205 646.784 273.615C643.747 264.584 636.49 257.091 636.253 247.31C636.175 238.634 640.277 230.588 642.367 222.346C644.516 214.634 644.002 206.422 640.907 199.038C637.594 190.914 632.389 183.894 628.8 175.888C626.718 171.49 625.564 166.711 625.408 161.848C625.408 156.958 626.355 152.147 626.67 147.335C626.851 137.942 623.724 128.784 617.836 121.464C604.782 102.967 588.967 86.2062 576.86 66.8421C573.754 61.9292 570.948 56.8324 568.46 51.5796C567.789 50.1993 565.896 50.9878 565.778 52.2892L559.113 147.217C558.955 149.031 561.834 148.991 561.992 147.177L569.13 51.7765L566.448 52.4866C575.953 72.4817 590.269 89.4007 603.875 106.635C611.119 114.553 617.297 123.382 622.253 132.901C626.433 142.76 622.805 152.225 623.2 162.4C623.909 179.911 639.764 192.058 641.459 209.213C643.155 226.369 629.431 239.935 636.057 256.499C639.527 265.097 646.508 272.866 645.561 282.725C644.615 292.585 638.738 299.171 634.637 306.822C631.087 313.448 626.67 321.572 628.958 329.223C631.245 336.874 634.873 342.553 636.885 349.534C638.003 353.749 638.081 358.173 637.113 362.425C636.144 366.677 634.158 370.63 631.324 373.945C625.724 381.123 617.915 386.329 612.985 394.098C609.218 400.797 608.132 408.676 609.948 416.144C611.21 425.294 612.512 433.931 604.545 440.399C596.579 446.866 585.931 448.996 580.252 457.988C574.573 466.98 575.48 476.879 573.863 486.147C571.895 495.817 566.632 504.504 558.972 510.726C551.312 516.948 541.73 520.318 531.861 520.261C531.478 520.272 531.113 520.43 530.842 520.701C530.571 520.972 530.414 521.336 530.402 521.72C530.389 530.496 527.728 539.064 522.767 546.304C517.807 553.545 510.778 559.12 502.598 562.302C494.237 565.378 485.167 564.904 476.569 566.955C472.565 567.924 468.817 569.742 465.578 572.287C462.339 574.832 459.685 578.044 457.797 581.705C453.064 589.908 449.16 600.28 438.275 601.227C430.466 602.015 422.815 598.781 415.007 599.333C395.958 600.714 389.056 623.864 370.875 627.69C355.573 630.845 343.111 614.596 328.203 619.644C320.197 622.862 312.479 626.754 305.132 631.279C301.206 633.633 296.848 635.175 292.315 635.814C287.44 636.072 282.593 634.922 278.354 632.501C270.742 628.675 263.722 623.943 254.967 624.337C247.016 625.441 239.212 627.425 231.699 630.253C223.044 632.876 213.709 632.027 205.67 627.887C198.137 624.219 191.314 619.368 183.545 616.331C175.24 613.733 166.426 613.206 157.871 614.793C152.617 615.433 147.288 614.741 142.372 612.782C137.932 610.683 133.728 608.119 129.831 605.131C111.847 592.116 95.4799 576.854 76.5496 565.18C71.7897 562.232 66.8797 559.533 61.8393 557.096L61.1292 559.778L150.654 553.231C163.391 552.802 176.063 551.218 188.514 548.498C200.559 544.901 211.74 538.875 221.366 530.791C230.735 522.656 242.199 517.314 254.454 515.37C264.789 514.922 275.141 515.106 285.453 515.922C295.212 516.684 305.008 515.017 313.967 511.071C325.167 505.392 332.581 494.902 339.917 485.121C346.788 474.56 356.075 465.786 367.01 459.526C377.768 454.647 388.916 450.676 400.336 447.655C410.851 444.761 420.884 440.336 430.111 434.522C438.854 428.242 445.713 419.691 449.949 409.795C459.256 389.524 461.11 364.954 475.505 347.246C490.846 328.355 518.216 320.31 524.092 294.399C528.43 274.286 520.464 253.147 527.562 233.507C532.177 221.005 541.918 211.264 549.096 200.3C555.529 189.588 559.465 177.564 560.612 165.121C561.401 159.127 561.834 153.172 562.308 147.177C562.111 145.402 559.271 145.402 559.113 147.217Z" fill="#DE923E"/>
<path d="M625.014 271.643C624.196 320.332 614.076 368.416 595.199 413.304C586.451 435.603 574.795 456.648 560.533 475.892C553.157 485.515 544.716 494.274 535.371 502C533.123 503.854 530.994 505.51 528.47 507.325C525.901 508.708 523.436 510.277 521.095 512.018C519.732 513.635 518.567 515.409 517.624 517.302C515.81 520.063 513.799 522.784 511.748 525.387C496.13 544.143 476.845 559.509 455.076 570.543C433.651 582.088 411.158 591.532 387.912 598.742C341.882 612.977 293.592 618.462 245.541 614.911C197.06 612.298 149.789 598.805 107.233 575.434C102.224 572.555 97.3335 569.558 92.246 566.048L91.4972 568.69C119.241 570.189 147.065 568.535 174.435 563.76C200.74 559.146 225.152 549.168 250.432 540.926C256.032 539.112 261.79 537.455 267.469 536.035C273.148 534.616 279.695 533.748 285.768 532.486C298.487 529.719 310.836 525.47 322.564 519.826C334.668 514.038 346.345 507.396 357.506 499.95C369.337 492.141 380.301 483.307 391.699 474.985C403.486 465.288 417.476 458.638 432.438 455.621C446.202 453.61 461.78 455.542 472.31 465.362C472.589 465.549 472.924 465.633 473.258 465.6C473.591 465.567 473.904 465.419 474.141 465.182C474.378 464.945 474.526 464.632 474.559 464.299C474.592 463.965 474.508 463.63 474.322 463.351C470.374 458.66 467.414 453.221 465.618 447.36C463.822 441.498 463.228 435.334 463.871 429.237C465.086 415.805 469.805 402.927 477.555 391.889C485.325 379.861 494.79 369.055 502.993 357.302C510.821 346.127 517.959 334.484 524.368 322.439C530.51 310.907 535.452 298.776 539.118 286.235C542.431 274.325 543.693 262.099 547.163 250.189C554.38 225.304 565.305 201.523 570.629 176.085C576.948 145.317 579.242 113.858 577.452 82.4983L574.809 83.2479C603.717 126.354 618.507 177.662 623.2 229.05C624.442 243.199 624.955 257.402 624.738 271.604C624.698 273.458 627.578 273.418 627.578 271.603C629.062 219.753 619.209 168.204 598.709 120.556C592.659 107.066 585.482 94.1112 577.255 81.8282C576.347 80.9211 574.534 80.9997 574.573 82.5378C576.145 111.299 574.305 140.145 569.091 168.474C564.082 195.015 553.474 219.506 545.586 245.062C543.653 251.017 542.115 256.893 540.814 262.927C539.512 268.961 538.724 275.666 537.146 281.897C533.69 295.307 528.673 308.265 522.199 320.507C515.833 332.581 508.706 344.238 500.863 355.409C492.463 367.517 482.761 378.638 474.755 391.061C466.731 402.7 461.978 416.279 460.992 430.381C460.482 436.679 461.223 443.016 463.172 449.026C465.122 455.036 468.241 460.602 472.35 465.402L474.361 463.39C457.008 447.221 428.967 450.179 409.406 460.354C396.663 467.725 384.554 476.141 373.203 485.515C362.132 493.877 350.525 501.505 338.458 508.35C326.336 515.455 313.517 521.296 300.202 525.782C288.371 529.725 275.436 530.987 263.131 534.221C237.575 541.004 213.439 552.363 187.608 558.318C156.093 565.307 123.756 567.856 91.5364 565.89C90.0378 565.811 89.6826 567.744 90.8263 568.572C131.985 595.008 178.808 611.345 227.479 616.252C300.582 625.089 374.687 612.813 441.036 580.877C463.286 570.895 483.75 557.332 501.612 540.729C506.097 536.414 510.288 531.802 514.154 526.925C515.731 524.874 517.348 522.784 518.847 520.576C520.197 517.865 522.059 515.441 524.329 513.437C534.078 506.996 543.085 499.497 551.186 491.076C567.35 473.264 580.57 452.988 590.348 431.012C611.48 386.787 623.969 338.932 627.144 290.021C627.538 283.948 627.774 277.796 627.853 271.643C627.932 269.829 625.053 269.79 625.014 271.643Z" fill="#DE923E"/>
<path d="M433.819 492.811C430.23 490.657 425.982 489.877 421.863 490.617C417.744 491.357 414.032 493.566 411.418 496.834C408.826 499.567 407.313 503.149 407.161 506.913C407.009 510.677 408.227 514.368 410.59 517.302C412.249 519.245 414.377 520.732 416.772 521.623C419.167 522.513 421.749 522.777 424.275 522.39C426.681 522.044 428.98 521.167 431.006 519.824C433.032 518.48 434.733 516.703 435.988 514.62C437.799 511.613 438.71 508.15 438.612 504.641C438.514 501.131 437.412 497.724 435.436 494.822L433.819 492.811Z" fill="#DE923E"/>
<path d="M434.529 491.628C431.66 490.019 428.428 489.169 425.139 489.156C421.849 489.144 418.611 489.97 415.73 491.557C412.848 493.143 410.419 495.439 408.671 498.225C406.923 501.011 405.914 504.197 405.739 507.482C405.92 511.26 407.164 514.91 409.328 518.012C410.487 519.543 411.937 520.829 413.596 521.797C415.254 522.765 417.088 523.395 418.99 523.652C423.001 524.318 427.119 523.599 430.667 521.614C434.215 519.628 436.982 516.494 438.512 512.727C440.116 508.843 440.461 504.553 439.498 500.462C438.646 497.25 437.036 494.288 434.805 491.825C433.543 490.563 431.65 492.456 432.794 493.836C434.611 495.863 435.917 498.296 436.603 500.93C437.29 503.565 437.335 506.325 436.737 508.981C436.013 512.392 434.143 515.454 431.438 517.656C428.734 519.859 425.357 521.07 421.869 521.088C418.356 521.11 414.968 519.783 412.404 517.381C410.307 514.889 409.002 511.826 408.657 508.586C408.54 506.391 408.907 504.197 409.732 502.159C410.557 500.122 411.819 498.29 413.429 496.794C415.896 494.146 419.2 492.429 422.785 491.933C426.37 491.438 430.016 492.194 433.109 494.073C434.647 495.059 436.067 492.614 434.529 491.628Z" fill="#DE923E"/>
<path d="M435.515 489.853C432.726 488.3 429.627 487.386 426.441 487.178C423.256 486.97 420.064 487.473 417.096 488.651C414.129 489.829 411.461 491.652 409.286 493.988C407.11 496.324 405.481 499.115 404.517 502.158C403.654 505.325 403.587 508.658 404.323 511.857C405.059 515.057 406.576 518.025 408.736 520.496C411.381 523.095 414.727 524.863 418.364 525.585C422 526.307 425.768 525.95 429.204 524.559C432.618 523.033 435.574 520.641 437.776 517.619C439.979 514.597 441.352 511.051 441.759 507.334C442.166 503.617 441.592 499.859 440.095 496.432C438.598 493.005 436.231 490.03 433.227 487.802C427.755 484.402 421.467 482.542 415.026 482.417C408.584 482.292 402.229 483.908 396.629 487.093C387.08 491.99 379.682 500.247 375.859 510.274C372.036 520.301 372.059 531.388 375.924 541.399C379.037 548.937 384.158 555.478 390.728 560.311C397.299 565.143 405.069 568.082 413.193 568.808C420.731 569.235 428.201 567.17 434.45 562.932C440.591 558.15 445.018 551.509 447.07 544.001C448.32 538.887 451.182 534.311 455.233 530.948C458.358 528.757 462.161 527.75 465.961 528.108C473.296 528.66 480.277 531.303 487.573 529.528C491.605 528.387 495.203 526.063 497.902 522.858C500.602 519.652 502.279 515.711 502.717 511.544C503.34 502.126 500.83 492.766 495.579 484.923C495.134 484.134 494.394 483.553 493.522 483.309C492.649 483.065 491.715 483.177 490.925 483.622C490.135 484.067 489.555 484.806 489.311 485.679C489.067 486.552 489.179 487.486 489.623 488.276C493.495 494.162 495.753 500.961 496.171 507.994C496.332 511.206 495.457 514.385 493.675 517.062C491.892 519.739 489.297 521.773 486.272 522.863C481.102 523.566 475.843 523.218 470.811 521.837C465.838 520.726 460.655 520.999 455.825 522.626C449.815 525.164 445.032 529.946 442.495 535.956C440.7 542.586 437.677 548.82 433.582 554.334C424.078 563.839 409.013 563.129 398.088 556.937C393.613 554.476 389.714 551.087 386.654 546.996C383.595 542.906 381.444 538.21 380.346 533.221C379.248 528.233 379.229 523.067 380.289 518.07C381.349 513.073 383.464 508.361 386.493 504.248C390.607 498.68 396.098 494.276 402.426 491.47C412.168 487.408 428.179 487.487 433.464 498.372C435.026 501.559 435.376 505.205 434.447 508.63C433.518 512.056 431.374 515.026 428.416 516.987C426.817 517.976 425.021 518.602 423.153 518.82C421.286 519.038 419.394 518.843 417.61 518.248C415.977 517.691 414.509 516.737 413.338 515.47C412.167 514.203 411.331 512.664 410.905 510.992C406.962 499.161 421.948 489.38 431.768 495.651C435.436 498.057 438.828 492.062 435.12 489.695L435.515 489.853Z" fill="#DE923E"/>
<path d="M326.784 563.642C328.014 565.998 328.415 568.7 327.921 571.312C327.427 573.923 326.068 576.293 324.063 578.037C322.028 579.727 319.479 580.675 316.835 580.725C314.19 580.776 311.607 579.925 309.51 578.313C299.493 569.952 309.51 554.65 321.341 558.594C333.173 562.538 336.446 576.302 332.739 586.634C330.451 592.065 326.521 596.644 321.499 599.727C316.477 602.811 310.616 604.245 304.738 603.829C298.995 603.476 293.445 601.623 288.642 598.454C283.839 595.286 279.951 590.914 277.365 585.774C274.779 580.634 273.586 574.906 273.905 569.161C274.224 563.416 276.043 557.856 279.182 553.033C283.634 545.747 289.783 539.646 297.104 535.251C304.424 530.856 312.699 528.297 321.223 527.793C343.279 527.199 364.707 535.171 381.011 550.036C384.087 553.112 389.096 548.103 385.822 545.224C376.705 536.815 365.973 530.349 354.277 526.22C342.581 522.091 330.168 520.385 317.792 521.207C295.352 523.376 272.162 540.728 267.627 563.484C266.317 570.589 266.956 577.916 269.477 584.686C271.998 591.457 276.306 597.418 281.943 601.936C287.533 606.462 294.278 609.334 301.415 610.226C308.552 611.118 315.795 609.995 322.327 606.985C328.962 603.85 334.329 598.547 337.541 591.95C340.754 585.353 341.62 577.857 339.996 570.701C336.841 558.081 322.682 546.447 309.274 552.915C306.03 554.542 303.34 557.091 301.541 560.243C299.742 563.394 298.915 567.008 299.164 570.628C299.412 574.248 300.725 577.714 302.938 580.59C305.151 583.466 308.165 585.624 311.6 586.792C315.1 587.75 318.804 587.665 322.256 586.547C325.708 585.43 328.759 583.328 331.033 580.501C333.308 577.673 334.707 574.244 335.059 570.632C335.411 567.021 334.701 563.385 333.015 560.171C331.004 556.267 325.088 559.659 327.099 563.563L326.784 563.642Z" fill="#DE923E"/>
<path d="M328.322 598.86C329.862 595.611 332.386 592.929 335.536 591.195C338.686 589.46 342.302 588.762 345.872 589.198C349.973 589.829 354.036 592.077 358.058 591.052C361.497 589.441 364.58 587.162 367.129 584.347C370.837 581.487 375.476 580.109 380.144 580.482C384.797 580.933 389.101 583.149 392.172 586.674C389.598 581.37 385.578 576.901 380.575 573.782C375.573 570.663 369.791 569.021 363.895 569.045C357.965 569.264 352.212 571.119 347.27 574.404C342.329 577.69 338.392 582.277 335.894 587.66L328.322 598.86Z" fill="#DE923E"/>
<path d="M329.624 599.61C330.85 597.037 332.745 594.841 335.111 593.252C337.477 591.663 340.227 590.739 343.072 590.578C348.318 590.381 353.247 593.891 358.571 592.511C363.896 591.13 367.484 584.781 373.203 582.77C376.382 581.631 379.832 581.481 383.098 582.34C386.364 583.199 389.294 585.026 391.502 587.581C392.685 588.764 394.421 587.265 393.711 585.845C390.769 579.814 386.031 574.843 380.148 571.615C374.265 568.387 367.526 567.062 360.859 567.822C355.848 568.559 351.067 570.412 346.869 573.245C342.671 576.078 339.163 579.818 336.604 584.189C335.826 585.692 334.971 587.153 334.041 588.567L327.258 598.347C326.232 599.846 328.716 601.227 329.781 599.767L336.565 589.986C337.866 588.133 338.694 586.122 339.956 584.229C342.266 580.735 345.258 577.744 348.751 575.434C352.271 573.173 356.229 571.683 360.366 571.063C364.502 570.442 368.723 570.706 372.751 571.835C376.779 572.964 380.521 574.933 383.733 577.613C386.944 580.293 389.552 583.623 391.383 587.384L393.631 585.688C391.496 583.298 388.812 581.464 385.809 580.344C382.806 579.224 379.576 578.852 376.397 579.26C373.219 579.702 370.192 580.891 367.563 582.73C365.003 585.202 362.232 587.446 359.281 589.434C355.81 591.012 352.222 589.474 348.83 588.606C346.138 587.907 343.329 587.786 340.588 588.251C337.706 588.791 334.99 589.995 332.656 591.768C330.321 593.541 328.432 595.835 327.139 598.466C326.35 599.806 328.795 601.227 329.624 599.61Z" fill="#DE923E"/>
<path d="M272.32 583.873C267.11 582.755 261.795 582.2 256.466 582.217C252.492 580.263 248.825 577.739 245.581 574.724C241.911 572.819 237.874 571.724 233.745 571.513C229.615 571.302 225.488 571.98 221.643 573.501C213.755 576.104 206.656 580.6 198.926 583.676C191.196 586.752 176.88 587.029 159.488 578.313C170.215 587.143 182.089 594.479 194.785 600.122C207.619 605.798 222.174 606.181 235.288 601.187C241.677 598.347 247.238 593.812 253.627 590.736C256.59 588.889 259.908 587.686 263.366 587.204C266.824 586.722 270.345 586.971 273.7 587.936L272.32 583.873Z" fill="#DE923E"/>
<path d="M272.833 582.651C268.205 581.492 263.445 580.948 258.675 581.034C253.548 580.797 250.511 576.105 246.37 573.541C237.733 568.138 226.848 569.794 217.699 573.58C208.549 577.366 199.912 583.479 190.013 584.229C179.651 584.5 169.399 582.053 160.277 577.13C159.958 577.029 159.614 577.041 159.303 577.165C158.992 577.288 158.734 577.515 158.572 577.808C158.409 578.1 158.353 578.44 158.412 578.769C158.471 579.098 158.642 579.397 158.896 579.614C175.697 592.235 193.878 605.446 215.766 606.116C225.444 606.406 234.983 603.767 243.136 598.544C252.128 593.102 262.224 585.136 273.227 589.198C273.468 589.27 273.724 589.275 273.968 589.214C274.212 589.152 274.435 589.026 274.612 588.848C274.79 588.67 274.917 588.447 274.979 588.203C275.04 587.959 275.035 587.703 274.963 587.462L273.582 583.716C272.991 582.02 270.23 582.73 270.861 584.465L272.241 588.212L273.977 586.476C264.985 583.321 255.875 587.304 248.105 592.155C243.334 595.45 238.279 598.314 233.001 600.713C228.437 602.407 223.629 603.352 218.764 603.514C196.205 604.145 177.275 590.262 160.08 577.327L158.7 579.811C167.554 584.525 177.382 587.118 187.41 587.384C195.854 586.682 204.028 584.065 211.309 579.733C221.563 574.763 235.17 569.439 245.66 576.932C248.812 580.31 252.797 582.8 257.215 584.15C262.058 584.148 266.89 584.597 271.65 585.49C272.026 585.647 272.45 585.648 272.827 585.493C273.204 585.338 273.504 585.039 273.661 584.662C273.818 584.286 273.819 583.863 273.664 583.485C273.508 583.108 273.209 582.808 272.833 582.651Z" fill="#DE923E"/>
<path d="M392.291 557.292C396.99 560.827 402.377 563.339 408.105 564.668C413.82 566.075 419.824 565.754 425.356 563.746C430.889 561.738 435.7 558.133 439.182 553.388C441.883 548.47 444.076 543.29 445.729 537.928C447.741 532.705 451.699 528.464 456.772 526.097C467.025 521.443 478.581 529.607 488.953 525.466C492.33 523.836 495.15 521.245 497.059 518.017C498.968 514.789 499.879 511.069 499.68 507.325L499.641 505.865C501.218 525.111 485.877 539.9 474.518 549.287C464.906 557.51 453.634 563.563 441.47 567.034C429.323 570.189 406.449 569.4 393.632 558.16L392.291 557.292Z" fill="#DE923E"/>
<path d="M391.62 558.515C399.757 564.837 410.063 567.687 420.292 566.442C424.92 565.817 429.329 564.086 433.146 561.394C436.963 558.703 440.076 555.132 442.219 550.982C444.664 545.934 445.69 540.255 448.529 535.444C449.979 532.851 452.028 530.643 454.504 529.004C456.981 527.364 459.814 526.34 462.766 526.018C471.127 525.545 479.054 529.528 487.375 527.596C491.838 526.147 495.657 523.189 498.176 519.231C500.695 515.273 501.757 510.561 501.179 505.905H498.339C499.483 523.376 487.1 537.021 474.559 547.512C459.178 560.368 440.839 569.006 420.607 566.915C414.855 566.422 409.214 565.038 403.885 562.814C399.996 560.932 396.331 558.617 392.961 555.912C391.699 554.65 390.043 557.332 391.581 558.397C394.815 560.979 398.303 563.226 401.992 565.101C406.601 567.146 411.473 568.54 416.466 569.242C425.345 570.779 434.45 570.389 443.165 568.098C462.537 562.165 479.541 550.268 491.753 534.103C498.21 526.157 501.56 516.136 501.179 505.905C501.021 504.091 498.221 504.051 498.339 505.905C498.773 515.252 493.528 524.756 483.432 525.15C476.018 525.624 468.997 522.39 461.662 523.257C457.566 523.918 453.736 525.707 450.601 528.424C447.466 531.141 445.151 534.678 443.915 538.638C442.385 543.643 440.239 548.439 437.526 552.915C434.629 556.943 430.61 560.029 425.97 561.788C420.357 563.68 414.354 564.108 408.53 563.031C402.705 561.955 397.251 559.409 392.685 555.636C391.541 554.965 390.121 557.41 391.62 558.515Z" fill="#DE923E"/>
<path d="M329.821 561.867C331.355 564.633 331.976 567.814 331.595 570.954C331.214 574.095 329.849 577.034 327.697 579.353C325.545 581.671 322.714 583.25 319.611 583.864C316.508 584.477 313.29 584.094 310.417 582.769C307.598 581.406 305.278 579.192 303.785 576.439C302.292 573.687 301.701 570.534 302.096 567.428C302.596 564.309 304.033 561.416 306.217 559.133C308.401 556.851 311.227 555.287 314.321 554.65C317.306 554.24 320.347 554.564 323.178 555.595C326.01 556.626 328.547 558.332 330.57 560.566L329.821 561.867Z" fill="#DE923E"/>
<path d="M328.519 562.617C329.846 565.017 330.417 567.762 330.156 570.492C329.896 573.222 328.817 575.81 327.06 577.917C325.303 580.023 322.951 581.549 320.312 582.295C317.673 583.042 314.87 582.973 312.271 582.099C309.747 581.201 307.546 579.576 305.946 577.428C304.346 575.28 303.417 572.706 303.279 570.031C303.243 567.199 304.064 564.422 305.633 562.065C307.202 559.707 309.447 557.879 312.074 556.819C315.135 555.867 318.405 555.814 321.495 556.667C324.586 557.52 327.366 559.243 329.505 561.631L329.229 559.935L328.48 561.236C328.316 561.569 328.286 561.952 328.395 562.306C328.505 562.66 328.746 562.959 329.07 563.141C329.393 563.323 329.773 563.374 330.133 563.284C330.493 563.194 330.805 562.969 331.004 562.656L331.714 561.315C331.865 561.048 331.927 560.74 331.891 560.435C331.856 560.13 331.725 559.845 331.517 559.619C329.165 557.046 326.178 555.138 322.855 554.086C319.532 553.033 315.99 552.875 312.586 553.625C309.404 554.573 306.568 556.428 304.424 558.964C302.281 561.499 300.923 564.605 300.518 567.901C300.259 571.133 300.945 574.372 302.493 577.221C304.04 580.071 306.382 582.409 309.234 583.953C312.378 585.344 315.874 585.733 319.247 585.066C322.62 584.4 325.706 582.711 328.085 580.229C330.464 577.746 332.02 574.591 332.542 571.193C333.065 567.795 332.527 564.318 331.004 561.236C330.821 560.907 330.515 560.663 330.152 560.56C329.79 560.456 329.401 560.501 329.072 560.684C328.742 560.867 328.499 561.174 328.395 561.536C328.291 561.899 328.336 562.287 328.519 562.617V562.617Z" fill="#DE923E"/>
</g>
</g>
<defs>
<clipPath id="clip0_1463_83450">
<rect width="568" height="787" fill="white"/>
</clipPath>
<clipPath id="clip1_1463_83450">
<rect width="719.258" height="322.874" fill="white" transform="translate(59 558.594) rotate(-45)"/>
</clipPath>
</defs>
</svg>
