<svg width="500" height="887" viewBox="0 0 500 887" fill="none" xmlns="http://www.w3.org/2000/svg">
<g clip-path="url(#clip0_1463_83436)">
<path d="M317.247 850.511C195.952 845.98 212.304 750.276 220.038 735.778C192.815 741.853 164.299 737.66 139.972 724.003C116.103 710.051 95.275 692.672 93.0426 658.403C91.4973 631.477 107.543 584.474 128.625 575.144C122.993 585.604 121.514 597.801 124.482 609.307C127.45 620.813 134.647 630.784 144.64 637.232C155.061 643.001 167.069 645.243 178.868 643.625C190.667 642.007 201.621 636.616 210.092 628.257C218.297 619.646 224.011 608.972 226.629 597.373C229.246 585.773 228.668 573.681 224.956 562.38C221.029 551.148 214.742 540.885 206.517 532.279C198.292 523.673 188.32 516.923 177.27 512.484C127.452 491.844 67.9413 515.801 17.3786 496.95C-2.20842 489.092 -18.896 475.392 -30.4076 457.717C-41.9191 440.043 -47.6945 419.254 -46.9457 398.188C-71.9151 419.219 -104.155 429.62 -136.734 427.154C-166.602 426.177 -226.522 399.649 -242.61 345.76C-222.102 354.912 -199.417 358.061 -177.195 354.839C-154.973 351.618 -134.127 342.158 -117.084 327.562C-134.65 316.819 -149.685 302.41 -161.159 285.322C-172.632 268.234 -180.273 248.873 -183.556 228.565C-186.838 208.256 -185.686 187.482 -180.178 167.666C-174.67 147.85 -164.936 129.46 -151.644 113.759C-145.218 106.889 -139.201 99.6482 -133.623 92.075C-128.002 84.4632 -125.469 75.0092 -126.531 65.6068C-127.406 59.8127 -130.187 54.4737 -134.436 50.4315C-138.684 46.3893 -144.158 43.8731 -149.994 43.2819C-155.83 42.6906 -161.696 44.0579 -166.666 47.1661C-171.636 50.2743 -175.429 54.9476 -177.444 60.4488C-180.885 10.8763 -142.372 4.3598 -123.179 11.491C-113.765 15.6277 -105.485 21.9653 -99.0358 29.9689C-92.5867 37.9725 -88.1587 47.4067 -86.1258 57.4761C-82.2279 77.6329 -82.4118 98.3628 -86.6668 118.442C-90.8174 138.543 -93.2252 158.965 -93.8637 179.481C-93.139 211.841 -80.4937 242.806 -58.3477 266.448C-36.2016 290.089 -6.11017 304.747 26.1668 307.618C18.7125 301.33 13.0695 293.173 9.81935 283.985C6.56925 274.796 5.82919 264.91 7.6757 255.344C9.52222 245.779 13.8883 236.879 20.3245 229.562C26.7606 222.246 35.0347 216.776 44.2934 213.717C55.5023 209.953 67.5979 209.707 78.9556 213.011C90.3132 216.314 100.389 223.01 107.829 232.199C82.7336 232.235 64.2032 260.279 66.0066 284.756C69.6591 309.796 81.9498 332.781 100.756 349.743C132.065 379.658 165.686 407.062 201.305 431.699C236.951 456.437 268.012 487.189 293.094 522.575C305.477 540.414 313.909 560.684 317.825 582.034C321.741 603.383 321.051 625.319 315.801 646.375C324.449 646.519 332.717 649.952 338.922 655.974C345.126 661.997 348.799 670.155 349.192 678.785C349.177 696.182 343.252 713.055 332.386 726.644C321.545 740.09 312.278 754.73 304.767 770.279C299.719 783.716 298.496 798.289 301.232 812.383C303.969 826.477 310.558 839.542 320.27 850.128L317.247 850.511Z" fill="#68355B"/>
</g>
<defs>
<clipPath id="clip0_1463_83436">
<rect width="500" height="887" fill="white"/>
</clipPath>
</defs>
</svg>
