<svg width="784" height="1070" viewBox="0 0 784 1070" fill="none" xmlns="http://www.w3.org/2000/svg">
<g clip-path="url(#clip0_1463_83442)">
<g opacity="0.3" filter="url(#filter0_f_1463_83442)">
<path d="M-221.32 507.105C-220.356 504.917 -218.845 503.014 -216.93 501.581C-215.015 500.148 -212.763 499.233 -210.392 498.924C-206.612 498.684 -202.83 499.337 -199.351 500.831C-178.48 508.288 -160.313 521.807 -147.178 539.655C-142.073 434.497 -104.838 329.611 -130.236 227.162C-141.352 182.589 -169.321 136.725 -214.249 126.865L-238.041 115.097C-227.888 60.0588 -165.151 58.152 -149.969 67.1674C-141.11 72.4599 -133.464 80.5981 -123.37 82.4375C-113.276 84.2768 -103.4 79.2665 -93.0291 80.2784C-79.4621 81.736 -68.7448 94.2325 -65.1701 107.574C-62.4992 121.188 -62.5777 135.198 -65.4014 148.781C-72.0019 195.086 -86.4741 231.047 -85.1407 287.624C-2.27256 150.481 163.889 122.436 224.072 119.635C311.764 115.548 401.286 129.639 480.159 168.111C496.391 175.747 512.047 184.553 527.002 194.459C547.024 208.111 568.002 222.906 590.862 231.039C613.723 239.171 640.312 240.106 661.394 227.972C672.117 220.697 682.188 212.504 691.492 203.484C700.943 194.416 713.272 188.943 726.338 188.015C714.929 201.749 712.23 220.585 703.787 236.262C697.306 248.385 687.515 258.418 675.553 265.193C658.48 274.407 638.759 277.474 619.694 273.88C687.294 350.711 727.408 451.843 727.05 567.903C727.26 604.807 722.331 641.561 712.405 677.106C708.167 692.282 680.924 771.083 670.407 794.513C654.638 829.288 637.019 863.589 627.805 900.59C618.59 937.59 618.483 978.654 636.816 1012.08C618.463 1010.2 601.068 1002.97 586.799 991.274C572.567 979.431 563.379 962.613 561.104 944.239C558.833 922.728 567.89 901.488 577.947 881.994C547.077 907.187 512.715 927.769 475.935 943.098C353.154 994.237 141.913 992.308 32.3994 916.777C-47.4318 861.292 -105.037 779.339 -130.206 685.443C-135.367 669.834 -144.124 655.656 -155.77 644.052C-160.737 639.02 -165.387 633.687 -169.696 628.082C-174.085 622.45 -176.452 615.507 -176.417 608.368C-176.354 604.827 -175.25 601.382 -173.244 598.463C-171.237 595.544 -168.416 593.279 -165.132 591.95C-163.187 591.323 -161.132 591.11 -159.099 591.324C-157.067 591.539 -155.102 592.177 -153.331 593.197C-149.366 595.868 -146.481 599.861 -145.191 604.464C-145.71 597.164 -146.234 589.798 -146.759 582.432C-147.078 577.945 -147.397 573.458 -147.243 569.005C-155.796 555.061 -169.08 544.659 -184.67 539.698C-190.534 537.693 -196.681 536.447 -202.56 534.241C-208.586 532.424 -213.998 528.992 -218.21 524.316C-220.191 521.971 -221.521 519.147 -222.067 516.127C-222.613 513.106 -222.355 509.995 -221.32 507.105ZM8.24989 847.959C77.389 913.306 172.359 937.711 263.826 928.981C24.9692 850.202 32.3823 668.69 33.9762 631.492C34.8058 607.203 39.0558 581.795 53.925 562.767C59.8624 554.688 67.7865 548.28 76.9285 544.162C86.0705 540.045 96.1203 538.358 106.106 539.266C110.887 529.182 118.245 520.54 127.438 514.212C136.631 507.884 147.332 504.095 158.459 503.228C169.586 502.361 180.745 504.447 190.806 509.275C200.868 514.102 209.477 521.501 215.762 530.722C218.163 534.186 221.323 541.701 211.597 545.018C89.6267 586.744 99.8296 709.322 99.0791 724.317C110.681 711.621 126.244 703.229 143.228 700.513C154.14 699.767 165.041 702.118 174.676 707.294C175.933 707.831 177.024 708.692 177.839 709.789C178.654 710.886 179.163 712.179 179.314 713.537C179.466 714.895 179.254 716.269 178.701 717.519C178.148 718.768 177.272 719.848 176.165 720.649C151.075 746.463 152.075 797.409 169.346 830.102C188.262 866.043 227.555 891.313 265.938 904.735C340.216 930.679 424.705 920.36 494.81 884.814C564.915 849.269 618.209 794.122 656.96 725.675C626.678 755.155 577.236 804.845 537.775 814.115C509.84 820.747 476.904 810.1 462.861 784.918C426.468 807.026 371.985 815.211 335.604 793.974C280.195 761.706 268.689 713.527 279.666 670.074C280.815 665.415 286.078 665.579 287.474 670.056C291.77 682.025 298.713 692.869 307.786 701.78C316.859 710.691 327.827 717.438 339.873 721.518C361.719 728.646 385.252 726.366 408.129 728.103C431.005 729.841 455.909 737.357 467.61 757.052C478.914 747.873 492.76 742.377 507.283 741.306C521.636 739.612 536.145 740.127 550.516 738.701C589.837 734.574 626.187 715.875 652.407 686.288C678.115 656.303 691.955 617.945 691.316 578.456C691.376 504.192 672.605 431.126 636.756 366.086C648.018 415.562 653.263 494.945 620.085 548.997C604.392 574.144 580.002 592.647 551.555 600.987C527.763 606.414 502.86 604.107 480.471 594.402C470.421 589.903 461.504 583.214 454.373 574.824C447.241 566.434 442.076 556.556 439.256 545.913C436.664 535.213 437.015 524.012 440.273 513.495C443.53 502.978 449.572 493.538 457.758 486.175C456.34 497.438 458.29 508.869 463.361 519.025C468.433 529.181 476.399 537.607 486.255 543.242C496.232 548.634 507.328 551.629 518.664 551.991C530 552.353 541.265 550.07 551.566 545.325C572.167 535.508 588.871 519.054 598.997 498.605C608.909 478.194 614.61 455.997 615.76 433.337C618.042 392.738 610.539 352.185 593.882 315.09C584.679 293.602 559.766 268.923 545.269 256.292C450.612 173.848 306.564 144.658 183.346 168.839C126.581 179.945 81.0614 196.78 44.0128 219.137C98.1843 204.785 155.196 205.073 209.219 219.972C263.242 234.871 312.339 263.847 351.49 303.936C373.782 326.782 392.609 352.97 416.035 374.725C439.461 396.48 468.983 414.033 500.892 414.051C494.629 422.615 486.424 429.574 476.951 434.356C467.478 439.138 457.007 441.607 446.396 441.561C435.784 441.515 425.335 438.955 415.905 434.091C406.474 429.227 398.331 422.197 392.142 413.578C391.604 422.103 388.132 430.179 382.315 436.435C376.498 442.691 368.694 446.742 360.23 447.899C351.765 449.056 343.161 447.249 335.878 442.784C328.595 438.319 323.081 431.471 320.274 423.404C314.052 430.162 306.284 435.311 297.634 438.408C288.985 441.506 279.713 442.46 270.615 441.188C261.516 439.916 252.861 436.457 245.393 431.107C237.925 425.757 231.866 418.675 227.737 410.47C252.595 407.893 270.589 384.537 275.773 359.938C278.211 348.358 277.95 336.372 275.01 324.91C272.069 313.447 266.529 302.816 258.817 293.839C243.289 274.281 217.852 259.265 195.083 249.578C133.678 223.862 49.4094 235.377 -18.8583 270.254C-50.7055 305.163 -73.0681 347.542 -90.6533 396.512C-95.3624 409.597 -99.2678 422.956 -102.347 436.517C-54.5395 328.858 43.4718 288.164 131.975 323.864C163.293 336.376 147.334 350.501 131.847 354.228C121.152 356.228 111.089 360.751 102.494 367.422C87.2386 381.969 73.1361 397.578 55.1931 408.412C37.2501 419.246 14.2469 424.249 -4.51333 415.084C-16.8448 409.231 -28.6476 396.61 -41.8955 400.581C-47.3736 402.115 -75.6153 425.259 -96.9607 491.391C-102.405 509.48 -116.676 542.6 -106.399 625.529C-96.1222 708.459 -59.6074 783.598 8.24989 847.959Z" fill="#FFDCB6"/>
</g>
</g>
<defs>
<filter id="filter0_f_1463_83442" x="-242.041" y="59.0844" width="973.098" height="956.995" filterUnits="userSpaceOnUse" color-interpolation-filters="sRGB">
<feFlood flood-opacity="0" result="BackgroundImageFix"/>
<feBlend mode="normal" in="SourceGraphic" in2="BackgroundImageFix" result="shape"/>
<feGaussianBlur stdDeviation="2" result="effect1_foregroundBlur_1463_83442"/>
</filter>
<clipPath id="clip0_1463_83442">
<rect width="784" height="1070" fill="white"/>
</clipPath>
</defs>
</svg>
