<svg width="920" height="982" viewBox="0 0 920 982" fill="none" xmlns="http://www.w3.org/2000/svg">
<g opacity="0.9">
<g clip-path="url(#clip0_1463_83454)">
<path d="M556.332 490.794C553.129 486.43 551.626 481.049 552.108 475.657C552.589 470.266 555.02 465.234 558.946 461.507C562.182 457.848 566.633 455.485 571.477 454.854C576.321 454.223 581.229 455.367 585.295 458.075C587.973 460.02 590.116 462.609 591.524 465.604C592.933 468.599 593.562 471.901 593.353 475.204C593.184 478.347 592.316 481.413 590.811 484.178C589.306 486.943 587.203 489.337 584.656 491.186C580.975 493.845 576.613 495.4 572.08 495.67C567.547 495.939 563.032 494.912 559.062 492.708L556.332 490.794Z" fill="#DE923E"/>
<path d="M557.88 489.736C555.403 486.436 554.003 482.452 553.871 478.328C553.74 474.204 554.883 470.139 557.144 466.687C558.698 464.139 560.76 461.94 563.203 460.227C565.646 458.515 568.416 457.325 571.341 456.733C575.191 456.352 579.071 457.06 582.538 458.777C584.57 459.725 586.359 461.122 587.772 462.863C589.185 464.604 590.184 466.643 590.694 468.826C591.947 473.236 591.595 477.947 589.698 482.121C587.801 486.295 584.483 489.659 580.337 491.615C576.142 493.643 571.422 494.325 566.824 493.566C563.445 492.888 560.258 491.469 557.493 489.411C555.723 487.926 553.216 490.913 555.126 492.232C558.092 494.423 561.451 496.025 565.02 496.953C569.785 497.985 574.743 497.676 579.343 496.058C584.354 494.391 588.653 491.078 591.542 486.656C594.43 482.235 595.738 476.966 595.252 471.707C594.808 466.426 592.443 461.491 588.606 457.836C584.748 454.823 580.075 453.036 575.191 452.706C571.604 452.627 568.048 453.382 564.802 454.911C561.556 456.44 558.71 458.701 556.487 461.517C552.835 465.621 550.697 470.852 550.431 476.339C550.165 481.826 551.787 487.24 555.025 491.677C556.331 493.716 559.325 491.608 557.88 489.736Z" fill="#DE923E"/>
<path d="M560.01 488.32C558.227 485.712 557.131 482.697 556.823 479.553C556.515 476.409 557.005 473.239 558.248 470.334C559.491 467.43 561.447 464.887 563.935 462.94C566.422 460.993 569.361 459.706 572.478 459.196C574.412 458.986 576.368 459.158 578.235 459.704C580.102 460.25 581.843 461.158 583.358 462.377C584.874 463.597 586.134 465.103 587.067 466.809C588 468.516 588.588 470.389 588.797 472.323C589.162 476.558 587.966 480.78 585.432 484.193C582.898 487.606 579.202 489.974 575.042 490.849C571.078 491.762 566.927 491.394 563.186 489.796C559.445 488.198 556.308 485.454 554.227 481.958C549.729 474.132 548.233 464.936 550.016 456.087C551.468 447.843 555.221 440.178 560.842 433.975C567.367 425.946 576.298 420.224 586.319 417.652C593.313 416.266 600.53 416.477 607.431 418.27C614.332 420.062 620.739 423.388 626.175 428.002C632.968 433.282 638.035 440.465 640.73 448.635C643.426 456.806 643.627 465.593 641.309 473.879C638.622 481.499 633.036 487.752 625.766 491.279C617.376 494.366 609.687 499.099 603.152 505.199C600.503 508.294 598.539 511.914 597.388 515.821C596.237 519.729 595.926 523.836 596.475 527.872C597.383 535.326 600.558 542.325 601.115 549.861C601.434 554.244 600.136 558.593 597.467 562.084C594.798 565.575 590.943 567.968 586.63 568.81C576.325 570.373 565.795 568.384 556.771 563.171C555.716 562.801 554.562 562.839 553.535 563.278C552.507 563.716 551.68 564.523 551.217 565.539C550.754 566.556 550.687 567.708 551.031 568.771C551.374 569.834 552.102 570.731 553.073 571.284C562.717 576.349 573.546 578.729 584.425 578.176C589.338 577.711 594.055 576.024 598.146 573.266C602.238 570.509 605.574 566.77 607.849 562.392C615.635 545.362 597.238 526.626 609.669 511.138C617.094 502.288 629.921 500.705 638.599 493.283C645.875 486.87 650.598 478.052 651.904 468.442C652.673 459.158 651.12 449.83 647.388 441.295C643.655 432.761 637.858 425.288 630.519 419.551C623.181 413.814 614.53 409.991 605.347 408.428C596.164 406.865 586.736 407.611 577.913 410.598C565.583 415.585 555.207 424.442 548.347 435.836C544.468 441.994 541.955 448.912 540.977 456.123C539.999 463.334 540.578 470.671 542.676 477.639C544.041 482.522 546.6 486.988 550.122 490.634C553.644 494.281 558.018 496.993 562.851 498.527C567.286 499.779 571.962 499.914 576.462 498.921C580.962 497.929 585.147 495.838 588.643 492.836C592.858 489.204 595.768 484.293 596.93 478.852C598.092 473.411 597.442 467.739 595.078 462.702C592.757 458.207 589.077 454.558 584.562 452.276C580.047 449.993 574.927 449.193 569.93 449.989C565.451 450.891 561.264 452.886 557.742 455.797C554.22 458.708 551.472 462.443 549.742 466.673C548.012 470.902 547.354 475.493 547.827 480.038C548.3 484.582 549.889 488.94 552.452 492.723C555.922 497.236 563.177 492.297 559.754 487.727L560.01 488.32Z" fill="#DE923E"/>
<path d="M631.847 352.835C635.699 354.459 639.906 355.053 644.057 354.56C648.207 354.067 652.159 352.504 655.523 350.024C658.887 347.543 661.549 344.231 663.247 340.412C664.946 336.593 665.622 332.398 665.211 328.238C664.668 324.073 663.021 320.129 660.44 316.816C657.86 313.502 654.439 310.939 650.534 309.393C646.629 307.847 642.38 307.374 638.231 308.024C634.081 308.673 630.18 310.421 626.934 313.086C611.775 326.097 618.478 347.651 634.034 356.744C642.141 361.005 651.473 362.333 660.447 360.501C669.421 358.67 677.487 353.793 683.277 346.696C689.145 339.45 692.762 330.642 693.681 321.363C694.599 312.084 692.779 302.739 688.446 294.482C683.933 285.844 677.101 278.636 668.718 273.666C660.335 268.696 650.732 266.162 640.988 266.347C631.872 267.037 623.026 269.757 615.098 274.308C607.169 278.859 600.359 285.126 595.166 292.649C587.008 303.487 581.787 316.248 580.008 329.696C576.378 364.351 593.473 399.242 618.224 422.65C622.306 426.546 628.015 419.743 623.933 415.847C591.533 385.267 572.339 328.728 606.981 292.385C611.619 286.966 617.378 282.619 623.86 279.645C630.343 276.671 637.394 275.141 644.526 275.16C652.581 275.612 660.349 278.303 666.956 282.931C673.564 287.56 678.747 293.941 681.923 301.357C684.877 308.176 685.793 315.705 684.561 323.034C683.329 330.362 680.001 337.178 674.979 342.656C669.955 348.146 663.085 351.59 655.681 352.333C648.277 353.075 640.858 351.063 634.845 346.68C631.506 344.34 629.053 340.943 627.884 337.037C626.715 333.131 626.897 328.945 628.401 325.155C630.092 321.6 633.124 318.861 636.831 317.538C640.539 316.214 644.62 316.414 648.18 318.094C649.923 318.909 651.486 320.064 652.777 321.491C654.068 322.917 655.061 324.587 655.698 326.403C656.334 328.219 656.601 330.144 656.483 332.065C656.365 333.985 655.864 335.863 655.01 337.587C653.297 341.081 650.317 343.79 646.677 345.165C643.037 346.54 639.01 346.478 635.414 344.99C630.152 342.837 626.446 350.848 631.708 353.001L631.847 352.835Z" fill="#DE923E"/>
<path d="M681.191 342.78C677.185 345.128 674.022 348.678 672.149 352.927C670.276 357.176 669.789 361.906 670.757 366.447C672.034 371.665 675.391 376.651 674.476 382.01C672.79 386.627 670.198 390.862 666.853 394.464C663.573 399.584 662.304 405.738 663.291 411.739C664.397 417.689 667.74 422.99 672.633 426.552C665.502 423.832 659.286 419.151 654.699 413.052C650.112 406.952 647.342 399.68 646.708 392.075C646.324 384.391 648.073 376.75 651.76 369.997C655.447 363.244 660.929 357.641 667.601 353.809L681.191 342.78Z" fill="#DE923E"/>
<path d="M680.142 341.333C675.217 344.134 671.466 348.617 669.58 353.96C667.694 359.303 667.799 365.146 669.875 370.419C671.376 374.695 673.82 379.196 672.121 383.803C669.89 387.834 667.309 391.661 664.41 395.241C662.318 398.758 661.118 402.733 660.913 406.821C660.711 410.977 661.529 415.12 663.297 418.887C665.065 422.655 667.729 425.931 671.055 428.432L672.988 425.341C667.928 423.417 663.333 420.441 659.509 416.609C655.684 412.777 652.715 408.178 650.8 403.114C648.884 398.05 648.065 392.637 648.397 387.233C648.728 381.83 650.202 376.558 652.721 371.766C655.322 366.981 658.857 362.768 663.117 359.376C665.37 357.591 667.917 356.24 670.16 354.353L681.961 344.557C683.493 342.731 681.663 339.97 679.846 341.462L669.481 350.107C664.597 353.49 659.973 357.235 655.65 361.311C651.004 366.326 647.661 372.406 645.915 379.017C644.169 385.627 644.074 392.565 645.639 399.22C647.203 405.876 650.378 412.045 654.886 417.186C659.393 422.327 665.095 426.281 671.489 428.701C673.344 429.41 675.183 426.994 673.477 425.657C670.003 423.156 667.348 419.68 665.848 415.67C664.348 411.66 664.07 407.296 665.049 403.128C666.199 399.007 668.266 395.199 671.095 391.99C673.501 389.323 675.225 386.113 676.119 382.634C677.261 375.769 672.353 370.048 671.868 363.326C671.668 359.573 672.505 355.837 674.285 352.527C676.065 349.217 678.72 346.46 681.961 344.557C684.296 343.122 682.189 340.129 680.142 341.333Z" fill="#DE923E"/>
<path d="M655.5 272.305C653.525 265.699 652.21 258.912 651.575 252.046C648.607 247.142 644.937 242.697 640.684 238.854C637.808 234.327 635.941 229.234 635.211 223.921C634.481 218.608 634.905 213.2 636.453 208.065C638.919 197.599 643.916 187.937 647.011 177.622C650.106 167.306 648.847 148.813 635.598 127.422C648.181 140.263 658.994 154.726 667.752 170.426C676.536 186.331 678.672 205.065 673.695 222.539C670.754 231.099 665.579 238.726 662.333 247.313C660.292 251.354 659.115 255.775 658.875 260.296C658.635 264.816 659.339 269.337 660.941 273.571L655.5 272.305Z" fill="#DE923E"/>
<path d="M657.406 271.83C655.77 265.781 654.647 259.605 654.047 253.367C651.797 247.825 648.16 242.954 643.483 239.224C632.738 226.532 638.022 208.44 643.219 194.61C647.984 184.73 650.436 173.894 650.389 162.925C648.931 150.009 644.496 137.608 637.431 126.698L634.383 128.758C652.903 149.482 673.154 172.413 674.728 201.538C675.086 207.81 674.425 214.099 672.77 220.16C670.308 227.252 667.183 234.098 663.438 240.605C658.244 250.95 654.024 263.055 659.033 274.609L661.074 272.176L656.087 270.818C653.825 270.145 653.395 274.026 655.428 274.412L660.415 275.77C660.734 275.835 661.065 275.813 661.373 275.706C661.68 275.599 661.953 275.411 662.162 275.162C662.371 274.912 662.509 274.611 662.561 274.29C662.613 273.968 662.577 273.639 662.457 273.336C656.265 259.375 665.297 245.464 671.116 233.476C676.914 222.367 679.24 209.771 677.793 197.324C674.412 169.228 655.369 147.217 637.199 126.975C636.89 126.671 636.485 126.484 636.054 126.445C635.623 126.405 635.191 126.516 634.833 126.759C634.474 127.001 634.21 127.36 634.086 127.775C633.961 128.19 633.984 128.635 634.15 129.035C641.498 140.258 645.808 153.195 646.66 166.583C646.93 179.627 639.699 191.278 636.052 203.487C632.405 215.696 631.247 229.994 639.189 240.522C643.009 245.518 649.311 249.015 650.241 255.545C650.726 261.698 651.963 267.769 653.924 273.621C654.889 275.279 658.369 274.052 657.406 271.83Z" fill="#DE923E"/>
<path d="M634.756 430.019C639.857 435.658 643.721 442.303 646.098 449.526C648.538 456.739 648.792 464.513 646.828 471.87C644.864 479.227 640.769 485.839 635.058 490.876C629.035 494.937 622.599 498.352 615.859 501.063C609.336 504.269 604.3 509.869 601.801 516.695C596.956 530.443 608.788 544.424 604.618 558.267C602.898 562.807 599.874 566.736 595.926 569.561C591.979 572.387 587.285 573.983 582.433 574.148L580.593 574.206C605.544 574.125 622.654 552.948 633.756 536.909C643.27 523.608 649.79 508.404 652.867 492.342C655.565 476.321 652.014 446.856 636.305 431.319L634.756 430.019Z" fill="#DE923E"/>
<path d="M633.255 431.022C637.95 435.968 641.495 441.89 643.638 448.364C645.782 454.838 646.47 461.705 645.654 468.476C644.733 474.554 642.208 480.277 638.341 485.055C633.706 490.063 627.976 493.932 621.598 496.359C611.2 501.112 601.204 507.522 599.147 519.745C597.46 529.169 601.978 538.05 603.398 547.253C604.162 550.612 604.045 554.112 603.058 557.413C602.072 560.713 600.251 563.703 597.769 566.093C593.027 570.235 586.951 572.531 580.654 572.561C578.204 572.673 578.571 576.28 580.975 576.223C604.763 575.731 622.075 557.458 634.774 539.178C650.158 517.025 659.304 491.523 654.118 464.456C652.096 451.034 645.856 438.603 636.303 428.961C634.765 427.2 631.717 429.26 633.255 431.022C636.453 434.426 639.377 438.077 642 441.941C645.271 447.499 647.729 453.498 649.298 459.753C652.275 470.597 652.901 481.952 651.136 493.057C646.05 517.432 633.591 539.652 615.449 556.705C606.256 566.177 593.833 571.838 580.654 572.561L580.975 576.223C586.36 576.337 591.655 574.835 596.177 571.908C600.699 568.982 604.24 564.767 606.342 559.808C609.881 549.299 604.562 539.464 603.008 528.735C602.391 525.414 602.499 521.999 603.327 518.724C604.156 515.449 605.684 512.392 607.806 509.763C613.455 504.193 620.253 499.926 627.724 497.258C633.149 494.747 637.9 490.983 641.587 486.277C645.274 481.571 647.79 476.057 648.93 470.188C650.136 462.81 649.639 455.253 647.476 448.096C645.313 440.94 641.542 434.372 636.451 428.897C634.765 427.2 631.717 429.26 633.255 431.022Z" fill="#DE923E"/>
<path d="M633.701 348.83C637.448 350.476 641.618 350.901 645.62 350.044C649.623 349.188 653.253 347.093 655.998 344.058C658.744 341.022 660.465 337.199 660.916 333.132C661.367 329.064 660.527 324.957 658.514 321.394C656.411 317.929 653.281 315.205 649.558 313.602C645.836 311.999 641.706 311.596 637.744 312.449C633.778 313.445 630.209 315.626 627.512 318.699C624.815 321.773 623.118 325.595 622.645 329.656C622.452 333.553 623.213 337.437 624.862 340.972C626.511 344.508 628.998 347.587 632.107 349.944L633.701 348.83Z" fill="#DE923E"/>
<path d="M632.973 350.483C636.872 352.03 641.135 352.412 645.247 351.583C649.358 350.754 653.14 348.749 656.133 345.812C659.127 342.874 661.204 339.13 662.111 335.035C663.019 330.941 662.717 326.671 661.244 322.744C659.501 318.952 656.699 315.743 653.176 313.506C649.653 311.268 645.558 310.097 641.384 310.131C636.997 310.324 632.771 311.847 629.269 314.497C625.766 317.146 623.152 320.798 621.772 324.967C620.46 329.781 620.625 334.878 622.244 339.598C623.863 344.317 626.862 348.442 630.853 351.437C631.167 351.68 631.55 351.817 631.947 351.829C632.344 351.84 632.735 351.724 633.062 351.5L634.712 350.433C635.054 350.125 635.271 349.702 635.322 349.244C635.373 348.786 635.253 348.325 634.986 347.949C634.719 347.574 634.323 347.309 633.874 347.207C633.424 347.105 632.953 347.171 632.549 347.394L630.956 348.507L633.22 348.616C630.224 346.407 627.849 343.464 626.322 340.07C624.795 336.675 624.169 332.945 624.504 329.238C625.045 325.646 626.65 322.299 629.11 319.626C631.571 316.954 634.775 315.08 638.31 314.244C641.707 313.587 645.222 313.937 648.424 315.25C651.625 316.563 654.373 318.782 656.33 321.636C658.363 324.823 659.316 328.58 659.05 332.351C658.783 336.122 657.311 339.707 654.85 342.577C652.39 345.446 649.071 347.449 645.385 348.287C641.698 349.126 637.84 348.757 634.38 347.234C632.341 346.182 630.739 349.551 632.973 350.483Z" fill="#DE923E"/>
<path d="M552.267 569.099C558.801 562.884 563.878 555.3 567.133 546.89C568.441 542.932 568.659 538.695 567.762 534.624C566.864 530.554 564.885 526.801 562.034 523.761C558.54 520.886 554.205 519.23 549.684 519.042C545.164 518.855 540.705 520.148 536.985 522.724C534.676 531.392 530.491 539.447 524.724 546.319C518.958 553.191 511.752 558.712 503.617 562.491C501.733 566.597 501.242 571.207 502.22 575.618C503.198 580.029 505.591 583.999 509.034 586.924C512.524 589.204 516.563 590.5 520.728 590.677C524.892 590.854 529.027 589.905 532.697 587.929C540.555 583.206 547.245 576.77 552.267 569.099Z" fill="#DE923E"/>
<path d="M553.65 570.26C561.192 563.419 566.686 554.617 569.516 544.836C570.655 540.386 570.462 535.699 568.961 531.357C567.461 527.015 564.719 523.21 561.076 520.411C557.381 518.156 553.126 516.988 548.798 517.04C544.469 517.092 540.244 518.363 536.605 520.707C532.542 523.544 529.201 527.295 526.851 531.657C524.5 536.019 523.204 540.871 523.069 545.825L524.275 544.387C519.513 545.378 515.037 547.439 511.187 550.413C507.337 553.386 504.212 557.195 502.048 561.552C500.107 565.583 499.461 570.116 500.199 574.529C500.938 578.941 503.024 583.017 506.173 586.195C509.321 589.374 513.376 591.5 517.781 592.281C522.186 593.062 526.725 592.46 530.774 590.557C540.187 586.123 548.127 579.078 553.65 570.26C555.135 568.49 552.25 565.975 550.829 567.893C546.347 574.562 540.666 580.342 534.075 584.939C530.508 587.353 526.302 588.649 521.994 588.661C517.686 588.672 513.473 587.399 509.892 585.004C506.854 582.227 504.796 578.541 504.027 574.498C503.257 570.454 503.817 566.271 505.623 562.572C507.643 558.817 510.469 555.557 513.898 553.024C517.327 550.491 521.274 548.749 525.456 547.922C525.774 547.824 526.057 547.636 526.271 547.381C526.485 547.126 526.621 546.814 526.663 546.484C526.745 542.333 527.721 538.248 529.526 534.508C531.33 530.769 533.919 527.462 537.117 524.814C540.454 522.22 544.556 520.804 548.782 520.786C553.008 520.769 557.121 522.151 560.479 524.717C563.374 527.745 565.33 531.546 566.109 535.662C566.887 539.779 566.455 544.032 564.865 547.908C561.551 555.459 556.764 562.272 550.783 567.949C549.187 569.626 552.007 571.992 553.65 570.26Z" fill="#DE923E"/>
<path d="M600.741 126.167C601.077 146.996 601.217 168.508 593.118 187.82C585.019 207.132 570.27 221.901 565.369 241.446C557.927 271.206 575.826 303.567 564.691 332.113C554.972 357.512 526.16 370.282 511.079 392.972C490.972 423.226 496.168 472.073 471.663 501.277C447.159 530.48 398.151 533.845 371.849 558.901C352.076 577.748 344.549 608.285 321.178 622.322C294.926 637.994 259.855 626.098 232.051 638.678C213.655 646.899 200.994 664.457 184.012 675.373C167.03 686.289 145.376 690.079 124.619 693.586L2.39502 713.556C35.8555 725.798 63.4016 748.346 93.5968 766.614C102.236 772.877 112.314 776.86 122.9 778.195C133.039 778.692 142.908 774.344 153.05 774.276C175.329 774.121 194.334 793.932 216.701 792.436C233.974 791.284 249.349 777.229 266.594 778.692C279.532 780.123 291.091 789.822 304.227 790.006C319.915 790.068 331.896 776.464 345.742 768.949C351.504 764.682 358.517 762.447 365.685 762.592C386.065 766.497 398.763 778.66 419.802 765.493C435.263 755.941 442.463 734.555 459.906 729.492C473.398 725.545 489.107 732.883 501.353 725.815C513.598 718.748 514.803 698.552 525.758 687.857C536.712 677.161 553.341 677.449 567.945 672.737C579.704 668.177 589.675 659.938 596.368 649.248C603.062 638.558 606.12 625.992 605.087 613.421C617.526 612.384 629.284 607.306 638.566 598.961C647.848 590.617 654.144 579.465 656.495 567.207C658.829 552.294 655.032 535.253 664.013 523.09C672.994 510.927 691.895 506.711 697.204 492.409C701.991 479.178 691.981 464.936 693.581 451.01C695.538 432.952 715.349 422.148 722.118 405.207C731.376 382.155 717.146 371.818 709.816 352.472C708.446 345.438 709.429 338.148 712.613 331.728C717.471 316.953 728.974 302.57 726.188 287.132C723.82 274.117 711.935 264.804 708.512 252.035C703.855 235.121 715.2 217.78 713.382 200.514C710.925 178.282 688.179 163.155 684.399 141.039C682.751 130.984 685.32 120.509 683.07 110.61C679.886 100.431 674.217 91.2049 666.577 83.7635C643.343 57.1992 616.354 33.9871 598.487 3.1608L600.741 126.167ZM699.767 279.194C705.741 363.317 690.184 447.576 654.562 524.019C641.357 552.337 617.682 585.157 591.745 603.263C578.651 631.673 550.951 660.079 525.357 678.001C456.244 726.324 375.975 756.273 292.1 765.032C209.332 773.81 117.542 763.238 42.6178 721.67C82.531 720.372 122.117 713.999 160.42 702.703C201.395 690.713 243.372 664.388 279.557 655.636C318.961 646.193 354.116 622.156 385.699 596.536C406.066 579.789 423.819 559.53 446.605 546.416C469.391 533.301 503.248 529.57 523.484 545.891C503.898 528.796 501.748 494.852 510.652 470.088C519.555 445.325 536.423 424.323 549.388 401.459C569.245 366 586.812 327.205 589.159 286.667C591.494 249.512 610.129 203.603 614.868 161.112C619.612 121.252 619.255 80.95 613.805 41.1802C667.688 107.6 693.763 195.927 699.767 279.194V279.194Z" fill="#DE923E"/>
<path d="M598.91 126.327C599.832 142.856 598.594 159.434 595.23 175.643C590.782 192.176 580.688 205.666 572.337 220.336C565.082 232.339 561.368 246.149 561.626 260.172C561.942 273.161 564.691 285.835 565.969 298.689C568.186 312.555 565.851 326.767 559.315 339.195C550.658 353.892 536.166 363.974 524.007 375.544C513.265 385.342 505.131 397.661 500.339 411.388C496.109 425.021 492.685 438.891 490.085 452.926C487.479 467.657 482.202 481.788 474.514 494.621C465.777 506.501 454.035 515.842 440.495 521.685C415.614 533.701 386.001 540.238 366.904 561.537C355.648 574.053 348.754 589.57 338.808 602.996C329.974 615.95 316.356 624.865 300.95 627.781C275.688 632.503 248.622 626.568 225.438 639.82C211.044 648.101 200.358 661.285 187.004 670.909C172.873 680.303 156.836 686.449 140.046 688.906C103.617 696.039 67.1866 700.815 30.8542 706.71L2.6059 711.282C0.94088 711.582 0.192894 714.158 1.99332 714.82C30.6609 725.586 54.9689 743.344 80.2339 759.737C90.7605 767.581 102.394 773.818 114.755 778.242C127.149 781.667 138.453 776.732 150.669 775.766C174.184 773.914 192.5 794.656 215.91 793.94C226.494 792.548 236.756 789.326 246.237 784.419C251.447 782.054 257.018 780.58 262.716 780.057C269.318 780.056 275.828 781.61 281.717 784.595C292.046 789.021 302.062 793.372 313.36 790.129C323.506 786.003 332.981 780.39 341.474 773.473C346.599 769.997 352.136 767.171 357.957 765.061C364.029 763.599 370.416 764.213 376.098 766.806C384.208 770.202 392.796 772.321 401.555 773.086C412.003 772.652 421.887 768.229 429.173 760.727C438.337 751.828 444.657 739.129 456.215 732.993C466.355 727.647 477.706 730.857 488.606 730.672C493.592 730.752 498.505 729.458 502.804 726.93C507.103 724.402 510.623 720.739 512.977 716.342C519.347 705.381 521.622 691.55 533.321 684.684C545.02 677.818 557.055 678.303 568.559 674.477C578.42 670.842 587.162 664.694 593.918 656.642C600.675 648.59 605.211 638.914 607.079 628.571C608.009 623.467 608.192 618.254 607.621 613.097L605.904 615.144C616.359 614.226 626.387 610.566 634.974 604.532C643.562 598.499 650.405 590.306 654.813 580.781C658.798 570.193 660.634 558.917 660.214 547.612C660.167 541.481 661.195 535.39 663.251 529.614C665.995 523.421 670.563 518.211 676.346 514.683C685.427 508.353 696.687 502.909 700.091 491.439C702.971 481.603 698.864 471.559 696.632 461.864C695.191 455.9 695.553 449.644 697.673 443.887C700.335 437.946 703.982 432.498 708.461 427.773C716.857 419.618 723.103 409.511 726.643 398.354C728.445 389.357 726.954 380.011 722.442 372.021C717.915 363.039 709.887 353.286 711.615 342.578C715.468 321.587 735.846 301.457 726.232 279.441C721.297 268.137 711.093 259.292 709.685 246.705C708.604 235.525 712.986 224.687 714.752 213.821C716.654 203.633 715.064 193.102 710.24 183.928C705.051 173.825 697.545 165.359 692.014 155.439C688.833 150.003 686.805 143.97 686.056 137.716C685.504 131.41 686.182 125.098 686.046 118.858C685.22 106.724 680.154 95.2663 671.734 86.49C652.813 64.1095 630.527 44.2786 612.728 20.6725C608.168 14.6872 603.975 8.43073 600.173 1.93753C599.153 0.233077 596.801 1.46348 596.795 3.1552L598.91 126.327C598.911 128.684 602.62 128.308 602.618 125.951L601.06 2.11579L597.682 3.33414C612.195 28.0477 632.566 48.2515 652.057 68.9421C662.292 78.3353 671.256 89.0254 678.721 100.741C685.225 112.984 681.613 125.6 683.27 138.677C686.161 161.179 707.977 175.055 712.1 196.988C716.222 218.92 700.054 237.964 710.468 258.578C715.913 269.274 725.792 278.506 725.684 291.327C725.576 304.149 718.74 313.306 714.314 323.635C710.484 332.58 705.705 343.555 709.518 353.164C713.331 362.773 718.651 369.688 722.032 378.463C723.95 383.773 724.55 389.469 723.781 395.062C723.011 400.655 720.896 405.977 717.616 410.572C711.203 420.461 701.72 428.055 696.24 438.631C692.136 447.695 691.625 457.978 694.81 467.404C697.47 479.061 700.123 490.053 690.579 499.293C681.035 508.532 667.544 512.48 661.234 524.717C654.925 536.954 657.212 549.617 656.172 561.752C654.726 574.445 648.918 586.242 639.741 595.13C630.565 604.017 618.588 609.444 605.855 610.484C605.362 610.543 604.91 610.787 604.591 611.167C604.272 611.548 604.11 612.035 604.138 612.531C605.111 623.85 602.646 635.2 597.066 645.097C591.486 654.994 583.05 662.977 572.861 668.003C562.425 672.913 550.674 673.326 539.818 676.941C534.764 678.642 530.135 681.41 526.245 685.057C522.355 688.705 519.295 693.146 517.273 698.081C512.095 709.193 508.231 723.01 494.3 725.458C484.319 727.357 474.087 724.049 464.079 725.642C439.67 729.572 433.381 760.205 410.366 767.19C390.989 772.985 373.084 753.437 354.428 761.629C344.466 766.682 334.952 772.572 325.988 779.236C321.191 782.715 315.744 785.196 309.97 786.531C303.712 787.414 297.332 786.478 291.592 783.834C281.345 779.759 271.757 774.448 260.511 775.945C250.381 778.265 240.541 781.704 231.171 786.198C220.307 790.557 208.172 790.516 197.337 786.084C187.209 782.204 177.863 776.717 167.501 773.678C156.498 771.265 145.071 771.578 134.217 774.591C127.515 776.008 120.564 775.718 114.003 773.746C108.04 771.541 102.33 768.707 96.9663 765.294C72.3058 750.54 49.4766 732.704 23.7468 719.785C17.2757 716.52 10.6392 713.594 3.86404 711.018L3.25089 714.557L117.964 696.014C134.342 694.024 150.506 690.551 166.256 685.639C181.384 679.641 195.122 670.608 206.624 659.096C217.789 647.549 231.971 639.366 247.555 635.477C260.832 633.732 274.203 632.802 287.593 632.691C300.265 632.573 312.711 629.318 323.818 623.218C337.622 614.631 345.999 600.266 354.356 586.825C362.026 572.429 373.013 560.067 386.408 550.76C399.732 543.255 413.66 536.876 428.046 531.691C441.281 526.772 453.719 519.934 464.963 511.395C475.529 502.309 483.41 490.508 487.756 477.268C497.472 450.076 497.09 418.181 513.656 393.721C531.309 367.628 565.698 354.164 570.353 320.087C573.678 293.659 561.019 267.297 567.958 241.168C572.498 224.525 583.962 210.863 591.981 195.914C599.068 181.374 602.788 165.423 602.863 149.248C603.204 141.428 603.092 133.699 603.026 125.915C602.571 123.649 598.909 123.969 598.91 126.327Z" fill="#DE923E"/>
<path d="M697.935 279.355C702.374 342.237 694.748 405.388 675.468 465.407C666.704 495.151 654.046 523.605 637.824 550.032C629.397 563.275 619.5 575.522 608.321 586.54C605.632 589.184 603.072 591.561 600.022 594.186C596.865 596.26 593.863 598.561 591.04 601.07C589.465 603.31 588.163 605.729 587.161 608.277C585.133 612.042 582.846 615.778 580.495 619.366C562.47 645.316 539.334 667.308 512.504 683.994C486.177 701.3 458.235 716.017 429.071 727.937C371.316 751.489 309.659 764.01 247.292 764.853C184.475 766.953 121.991 754.886 64.4731 729.547C57.6891 726.399 51.0438 723.086 44.0869 719.133L43.4192 722.625C79.3668 721.428 115.062 716.156 149.821 706.91C183.224 697.991 213.58 682.37 245.251 668.888C252.269 665.917 259.507 663.131 266.671 660.659C273.835 658.187 282.18 656.33 289.87 654.017C305.959 649.014 321.406 642.141 335.893 633.539C350.85 624.709 365.159 614.826 378.712 603.964C393.089 592.559 406.232 579.929 419.991 567.912C434.098 554.077 451.39 543.922 470.344 538.343C487.868 534.196 508.176 534.931 522.863 546.407C523.244 546.616 523.685 546.686 524.112 546.606C524.538 546.526 524.925 546.3 525.204 545.967C525.483 545.635 525.638 545.215 525.643 544.781C525.648 544.347 525.502 543.925 525.23 543.586C519.611 537.982 515.179 531.302 512.202 523.945C509.224 516.588 507.763 508.706 507.903 500.771C507.955 483.312 512.588 466.172 521.338 451.063C530 434.674 540.987 419.671 550.24 403.589C559.074 388.294 566.966 372.474 573.872 356.217C580.491 340.653 585.496 324.45 588.809 307.864C591.738 292.131 591.985 276.222 595.117 260.471C601.617 227.564 613.022 195.663 617.018 162.258C621.695 121.866 621.104 81.0364 615.258 40.7969L611.935 42.0617C654.079 94.3899 678.94 158.89 690.79 224.631C693.988 242.737 696.252 260.996 697.575 279.335C697.733 281.73 701.442 281.354 701.237 279.014C697.301 211.98 678.779 146.613 646.966 87.4784C637.642 70.7644 626.924 54.8671 614.928 39.955C613.656 38.8876 611.326 39.1936 611.55 41.1727C616.822 78.086 617.704 115.494 614.176 152.615C610.711 187.409 599.793 220.189 592.505 254.036C590.685 261.934 589.364 269.686 588.366 277.614C587.369 285.543 587.108 294.278 585.777 302.492C582.833 320.175 577.825 337.453 570.857 353.97C564.009 370.259 556.134 386.097 547.28 401.388C537.813 417.95 526.556 433.387 517.633 450.311C508.598 466.225 504 484.273 504.32 502.571C504.373 510.751 506.044 518.839 509.236 526.37C512.428 533.901 517.078 540.727 522.919 546.453L525.286 543.632C501.083 524.738 465.255 531.716 441.176 547.045C425.574 557.989 410.907 570.208 397.326 583.578C383.993 595.61 369.885 606.757 355.095 616.946C340.265 627.476 324.392 636.456 307.727 643.743C292.914 650.163 276.375 653.25 260.872 658.809C228.68 670.44 198.836 687.811 166.194 698.405C126.342 710.974 84.9271 717.91 43.1539 719.01C41.2123 719.077 40.9724 721.61 42.5408 722.549C98.6026 751.997 160.829 767.783 224.15 768.62C319.421 771.768 413.603 747.576 495.564 698.904C523.133 683.521 547.993 663.721 569.155 640.294C574.452 634.223 579.335 627.803 583.771 621.078C585.574 618.255 587.423 615.377 589.107 612.36C590.542 608.712 592.67 605.376 595.371 602.536C607.217 593.129 617.987 582.441 627.484 570.668C646.32 545.874 661.081 518.234 671.211 488.79C693.473 429.373 704.18 366.25 702.755 302.815C702.579 294.938 702.189 286.977 701.597 279.034C701.494 276.686 697.777 276.96 697.935 279.355Z" fill="#DE923E"/>
<path d="M476.32 586.148C471.45 583.774 465.884 583.248 460.655 584.667C455.426 586.086 450.889 589.353 447.886 593.863C444.851 597.68 443.305 602.469 443.533 607.341C443.762 612.212 445.749 616.835 449.128 620.352C451.487 622.671 454.398 624.349 457.587 625.227C460.776 626.105 464.136 626.154 467.35 625.369C470.414 624.652 473.28 623.262 475.741 621.301C478.202 619.339 480.196 616.855 481.578 614.028C483.575 609.946 484.359 605.376 483.837 600.862C483.315 596.348 481.509 592.078 478.633 588.559L476.32 586.148Z" fill="#DE923E"/>
<path d="M477.104 584.541C473.222 582.791 468.958 582.058 464.715 582.414C460.471 582.769 456.389 584.199 452.852 586.571C449.315 588.942 446.441 592.176 444.501 595.966C442.561 599.757 441.619 603.98 441.764 608.235C442.424 613.087 444.44 617.654 447.581 621.41C449.248 623.253 451.264 624.749 453.511 625.81C455.759 626.871 458.195 627.477 460.678 627.593C465.926 628 471.155 626.608 475.507 623.647C479.858 620.686 483.073 616.333 484.621 611.302C486.251 606.112 486.212 600.541 484.508 595.374C483.047 591.327 480.637 587.689 477.481 584.765C475.711 583.28 473.484 585.934 475.115 587.585C477.688 589.994 479.646 592.984 480.828 596.304C482.01 599.624 482.381 603.178 481.909 606.67C481.36 611.152 479.294 615.311 476.054 618.457C472.815 621.602 468.597 623.545 464.101 623.962C459.573 624.387 455.054 623.058 451.477 620.249C448.49 617.272 446.462 613.469 445.653 609.33C445.254 606.513 445.48 603.641 446.313 600.921C447.147 598.2 448.568 595.696 450.476 593.585C453.358 589.891 457.426 587.304 461.993 586.26C466.561 585.216 471.348 585.78 475.548 587.855C477.643 588.953 479.198 585.639 477.104 584.541Z" fill="#DE923E"/>
<path d="M478.175 582.141C474.403 580.453 470.303 579.624 466.171 579.716C462.04 579.807 457.98 580.816 454.287 582.67C450.593 584.523 447.358 587.175 444.816 590.433C442.273 593.691 440.488 597.474 439.587 601.507C438.832 605.69 439.122 609.995 440.432 614.038C441.743 618.081 444.033 621.737 447.098 624.681C450.802 627.733 455.317 629.637 460.088 630.157C464.859 630.677 469.678 629.793 473.952 627.61C478.183 625.258 481.724 621.839 484.224 617.694C486.723 613.548 488.094 608.82 488.199 603.981C488.304 599.141 487.14 594.359 484.823 590.109C482.507 585.859 479.118 582.289 474.993 579.755C467.552 575.988 459.233 574.298 450.913 574.864C442.592 575.429 434.578 578.23 427.715 582.969C415.954 590.362 407.345 601.845 403.546 615.207C399.747 628.569 401.028 642.865 407.141 655.339C412.007 664.71 419.348 672.567 428.367 678.058C437.386 683.549 447.737 686.462 458.296 686.482C468.066 686.181 477.466 682.675 485.047 676.505C492.427 669.646 497.387 660.581 499.186 650.668C500.221 643.931 503.396 637.707 508.241 632.913C512.023 629.735 516.814 628.007 521.755 628.04C531.277 627.924 540.577 630.545 549.786 627.433C554.857 625.506 559.235 622.104 562.354 617.666C565.474 613.227 567.192 607.956 567.287 602.532C567.027 590.316 562.735 578.529 555.078 569.007C554.416 568.039 553.396 567.374 552.243 567.157C551.09 566.941 549.898 567.192 548.929 567.854C547.961 568.516 547.296 569.536 547.08 570.689C546.864 571.842 547.114 573.034 547.776 574.002C553.433 581.156 557.113 589.67 558.444 598.693C559.015 602.817 558.245 607.015 556.248 610.669C554.252 614.322 551.135 617.237 547.356 618.984C540.768 620.475 533.947 620.619 527.302 619.407C520.763 618.534 514.109 619.471 508.065 622.115C500.6 626.065 494.972 632.772 492.378 640.809C490.812 649.562 487.616 657.942 482.958 665.515C471.773 678.845 452.265 679.629 437.478 672.877C431.428 670.207 426.018 666.277 421.611 661.347C417.203 656.418 413.9 650.603 411.921 644.294C409.942 637.985 409.335 631.325 410.139 624.761C410.942 618.198 413.138 611.882 416.58 606.236C421.257 598.591 427.841 592.293 435.686 587.96C447.79 581.622 468.448 579.918 476.491 593.359C478.866 597.292 479.728 601.955 478.916 606.477C478.105 611 475.675 615.072 472.081 617.934C470.131 619.391 467.885 620.4 465.502 620.892C463.118 621.384 460.655 621.346 458.288 620.78C456.12 620.247 454.118 619.181 452.465 617.679C450.813 616.177 449.561 614.287 448.823 612.179C442.402 597.366 460.625 583.062 473.997 590.041C478.998 592.73 482.696 584.616 477.648 581.983L478.175 582.141Z" fill="#DE923E"/>
<path d="M346.28 689.568C348.132 692.468 348.953 695.907 348.611 699.331C348.269 702.755 346.784 705.963 344.394 708.439C341.961 710.848 338.781 712.359 335.376 712.722C331.971 713.085 328.544 712.279 325.658 710.437C311.796 700.785 322.988 679.921 338.691 683.672C354.394 687.423 360.168 704.804 356.553 718.547C354.216 725.809 349.663 732.157 343.535 736.7C337.407 741.244 330.011 743.755 322.383 743.881C314.937 744.073 307.57 742.31 301.019 738.766C294.467 735.222 288.96 730.023 285.045 723.686C281.13 717.349 278.945 710.096 278.708 702.652C278.471 695.207 280.191 687.831 283.694 681.258C288.614 671.359 295.855 662.797 304.8 656.303C313.745 649.809 324.128 645.576 335.063 643.964C363.439 640.71 391.973 648.573 414.676 665.903C418.99 669.523 424.884 662.499 420.338 659.155C407.632 649.339 393.061 642.212 377.513 638.206C361.964 634.201 345.763 633.402 329.896 635.857C301.201 641.186 273.253 666.181 269.972 696.039C269.085 705.349 270.736 714.726 274.75 723.173C278.765 731.62 284.993 738.821 292.772 744.012C300.492 749.218 309.514 752.16 318.819 752.505C328.123 752.851 337.338 750.586 345.422 745.966C353.625 741.176 359.947 733.73 363.346 724.86C366.744 715.99 367.015 706.226 364.114 697.181C358.621 681.262 339.05 667.856 322.487 677.71C318.488 680.174 315.306 683.765 313.342 688.032C311.378 692.3 310.719 697.053 311.448 701.693C312.177 706.334 314.262 710.655 317.44 714.115C320.618 717.574 324.748 720.017 329.31 721.135C333.932 721.976 338.699 721.449 343.024 719.618C347.35 717.787 351.047 714.732 353.662 710.83C356.276 706.927 357.693 702.346 357.739 697.649C357.786 692.952 356.46 688.343 353.924 684.389C350.889 679.581 343.643 684.623 346.677 689.431L346.28 689.568Z" fill="#DE923E"/>
<path d="M352.236 734.812C353.856 730.448 356.808 726.705 360.675 724.113C364.542 721.521 369.126 720.212 373.779 720.372C379.139 720.723 384.632 723.163 389.704 721.387C393.957 718.922 397.676 715.635 400.645 711.718C405.104 707.611 410.931 705.311 416.993 705.265C423.045 705.321 428.845 707.693 433.204 711.893C429.286 705.343 423.597 700.033 416.794 696.576C409.99 693.118 402.348 691.652 394.748 692.348C387.126 693.301 379.915 696.342 373.913 701.136C367.911 705.93 363.351 712.29 360.738 719.514L352.236 734.812Z" fill="#DE923E"/>
<path d="M353.999 735.632C355.29 732.176 357.486 729.13 360.358 726.814C363.23 724.498 366.672 722.997 370.324 722.467C377.066 721.621 383.819 725.592 390.53 723.211C397.24 720.83 401.152 712.237 408.299 708.998C412.271 707.171 416.703 706.589 421.012 707.328C425.321 708.067 429.305 710.092 432.441 713.138C434.101 714.53 436.169 712.402 435.094 710.651C430.62 703.204 423.948 697.328 415.997 693.829C408.046 690.331 399.206 689.382 390.694 691.114C384.315 692.63 378.358 695.559 373.264 699.686C368.17 703.813 364.068 709.032 361.262 714.958C360.428 716.983 359.489 718.964 358.45 720.892L350.805 734.271C349.652 736.319 353.012 737.82 354.22 735.818L361.865 722.438C363.334 719.901 364.175 717.214 365.589 714.631C368.174 709.865 371.694 705.669 375.939 702.296C380.222 698.984 385.159 696.616 390.424 695.349C395.688 694.082 401.162 693.946 406.483 694.947C411.805 695.948 416.853 698.066 421.297 701.16C425.741 704.254 429.48 708.254 432.266 712.897L434.974 710.457C431.95 707.616 428.281 705.553 424.283 704.448C420.284 703.342 416.076 703.227 412.023 704.111C407.975 705.04 404.205 706.915 401.022 709.583C398 713.06 394.679 716.266 391.098 719.164C386.8 721.59 381.998 720.011 377.526 719.275C373.976 718.677 370.34 718.838 366.857 719.747C363.202 720.768 359.835 722.628 357.024 725.178C354.214 727.728 352.037 730.898 350.666 734.437C349.8 736.255 353.113 737.811 353.999 735.632Z" fill="#DE923E"/>
<path d="M278.325 721.805C271.48 720.95 264.562 720.834 257.692 721.458C252.347 719.386 247.333 716.544 242.809 713.023C237.861 710.98 232.532 710.023 227.182 710.217C221.833 710.411 216.587 711.75 211.8 714.146C201.922 718.393 193.274 724.992 183.652 729.831C174.031 734.67 155.6 736.642 132.187 727.364C147.017 737.541 163.158 745.662 180.168 751.507C197.358 757.379 216.172 756.231 232.521 748.31C240.44 743.928 247.099 737.451 254.992 732.763C258.605 730.048 262.748 728.122 267.153 727.11C271.558 726.098 276.127 726.022 280.563 726.888L278.325 721.805Z" fill="#DE923E"/>
<path d="M278.848 720.17C272.749 719.198 266.548 719.033 260.407 719.682C253.768 719.955 249.322 714.247 243.693 711.408C231.945 705.415 218.095 708.778 206.723 714.693C195.35 720.608 184.901 729.466 172.22 731.549C158.887 733.068 145.39 731.069 133.071 725.75C132.648 725.655 132.206 725.71 131.819 725.904C131.432 726.099 131.125 726.421 130.948 726.816C130.771 727.212 130.737 727.656 130.851 728.074C130.964 728.492 131.218 728.858 131.571 729.11C154.661 743.489 179.599 758.475 207.901 756.87C220.415 756.152 232.419 751.672 242.343 744.017C253.325 735.984 265.446 724.571 280.095 728.569C280.414 728.634 280.744 728.612 281.052 728.505C281.359 728.398 281.632 728.211 281.842 727.961C282.051 727.712 282.189 727.41 282.241 727.088C282.293 726.767 282.257 726.437 282.137 726.135L279.934 721.459C278.98 719.339 275.5 720.566 276.51 722.732L278.712 727.408L280.754 724.974C268.802 721.92 257.503 728.085 248.031 735.217C242.25 740.004 236.054 744.268 229.518 747.958C223.823 750.657 217.729 752.419 211.473 753.176C182.452 756.535 156.473 740.768 132.839 726.026L131.339 729.386C143.29 734.466 156.257 736.7 169.219 735.912C180.03 734.054 190.275 729.757 199.177 723.348C211.84 715.783 228.786 707.381 243.16 715.861C247.606 719.862 253.026 722.623 258.876 723.865C265.121 723.317 271.404 723.35 277.642 723.966C278.145 724.126 278.692 724.079 279.16 723.836C279.629 723.593 279.983 723.174 280.143 722.671C280.303 722.168 280.256 721.622 280.013 721.153C279.77 720.684 279.351 720.33 278.848 720.17Z" fill="#DE923E"/>
<path d="M430.041 673.989C436.5 678.017 443.731 680.649 451.268 681.716C458.796 682.886 466.503 681.795 473.411 678.581C480.319 675.368 486.118 670.176 490.072 663.664C493.001 657.017 495.245 650.089 496.771 642.988C498.776 636.024 503.402 630.109 509.677 626.484C522.375 619.325 538.199 628.549 551.108 622.039C555.279 619.556 558.623 615.896 560.721 611.518C562.818 607.14 563.574 602.24 562.894 597.434L562.679 595.556C566.885 620.198 548.769 641.001 535.18 654.387C523.712 666.077 509.858 675.155 494.562 681.003C479.253 686.442 449.666 688.005 431.868 674.956L430.041 673.989Z" fill="#DE923E"/>
<path d="M429.314 675.641C440.52 682.876 454.133 685.388 467.183 682.629C473.082 681.301 478.573 678.571 483.192 674.669C487.81 670.768 491.421 665.811 493.717 660.218C496.301 653.432 496.983 645.993 500.102 639.467C501.679 635.961 504.072 632.882 507.081 630.488C510.089 628.094 513.627 626.454 517.399 625.705C528.128 624.152 538.799 628.395 549.313 624.964C554.905 622.592 559.496 618.347 562.298 612.958C565.1 607.569 565.937 601.373 564.666 595.433L561.005 595.754C564.451 618.156 550.021 637.15 535.031 652.094C516.646 670.409 493.971 683.617 467.644 683.204C460.17 683.217 452.739 682.069 445.617 679.801C440.388 677.813 435.4 675.241 430.75 672.133C428.98 670.648 427.146 674.293 429.25 675.493C433.712 678.459 438.464 680.962 443.433 682.965C449.608 685.082 456.047 686.33 462.566 686.671C474.19 687.652 485.888 686.122 496.869 682.185C521.181 672.347 541.767 655.085 555.693 632.861C563.123 621.886 566.312 608.585 564.666 595.433C564.258 593.112 560.643 593.377 561.005 595.754C562.619 607.759 556.927 620.607 543.951 622.255C534.443 623.702 525.025 620.323 515.663 622.27C510.456 623.583 505.717 626.323 501.981 630.181C498.245 634.038 495.658 638.861 494.512 644.107C493.103 650.735 490.877 657.161 487.883 663.24C484.602 668.761 479.767 673.195 473.982 675.987C466.957 679.06 459.263 680.289 451.63 679.558C443.997 678.827 436.677 676.159 430.362 671.808C428.812 671.073 427.257 674.386 429.314 675.641Z" fill="#DE923E"/>
<path d="M349.995 686.937C352.286 690.332 353.446 694.363 353.309 698.456C353.171 702.549 351.743 706.494 349.229 709.727C346.715 712.959 343.243 715.315 339.31 716.456C335.377 717.598 331.184 717.467 327.33 716.082C323.541 714.642 320.299 712.049 318.063 708.667C315.827 705.286 314.709 701.287 314.868 697.236C315.161 693.158 316.688 689.264 319.247 686.075C321.806 682.885 325.274 680.55 329.193 679.379C332.996 678.513 336.954 678.588 340.721 679.598C344.489 680.608 347.954 682.522 350.814 685.174L349.995 686.937Z" fill="#DE923E"/>
<path d="M348.401 688.051C350.383 690.996 351.429 694.472 351.401 698.022C351.374 701.573 350.273 705.032 348.246 707.946C346.218 710.861 343.357 713.094 340.038 714.355C336.719 715.615 333.096 715.843 329.645 715.009C326.289 714.136 323.268 712.288 320.962 709.698C318.656 707.109 317.168 703.894 316.687 700.46C316.322 696.812 317.067 693.138 318.825 689.921C320.583 686.704 323.271 684.093 326.539 682.43C330.379 680.856 334.59 680.419 338.672 681.171C342.753 681.922 346.533 683.83 349.562 686.668L349.014 684.512L348.195 686.275C348.021 686.722 348.025 687.22 348.207 687.664C348.388 688.109 348.733 688.467 349.17 688.665C349.608 688.863 350.104 688.886 350.558 688.729C351.012 688.572 351.389 688.247 351.61 687.821L352.374 686.011C352.539 685.65 352.584 685.246 352.504 684.857C352.424 684.468 352.222 684.114 351.929 683.847C348.606 680.794 344.538 678.67 340.134 677.688C335.729 676.706 331.145 676.901 326.84 678.252C322.843 679.834 319.394 682.546 316.916 686.058C314.438 689.57 313.037 693.729 312.887 698.025C312.918 702.223 314.168 706.321 316.485 709.821C318.802 713.322 322.086 716.073 325.938 717.742C330.15 719.181 334.702 719.288 338.977 718.048C343.252 716.809 347.04 714.282 349.828 710.812C352.616 707.343 354.267 703.098 354.557 698.657C354.847 694.216 353.762 689.793 351.45 685.99C351.177 685.586 350.754 685.307 350.275 685.214C349.796 685.121 349.3 685.223 348.896 685.496C348.491 685.769 348.212 686.192 348.119 686.671C348.027 687.151 348.128 687.646 348.401 688.051V688.051Z" fill="#DE923E"/>
</g>
</g>
<defs>
<clipPath id="clip0_1463_83454">
<rect width="931.109" height="417.974" fill="white" transform="translate(0.371582 713.271) rotate(-50)"/>
</clipPath>
</defs>
</svg>
