<svg width="266" height="658" viewBox="0 0 266 658" fill="none" xmlns="http://www.w3.org/2000/svg">
<g opacity="0.4" clip-path="url(#clip0_1463_83435)">
<g clip-path="url(#clip1_1463_83435)">
<path d="M133.858 290.43C130.515 289.614 127.584 287.607 125.615 284.784C123.646 281.961 122.774 278.517 123.162 275.097C123.243 271.993 124.445 269.022 126.547 266.735C128.648 264.449 131.506 263 134.593 262.657C136.692 262.51 138.794 262.896 140.704 263.778C142.614 264.661 144.27 266.012 145.518 267.707C146.72 269.307 147.55 271.155 147.948 273.116C148.345 275.078 148.299 277.103 147.814 279.045C147.107 281.844 145.619 284.385 143.521 286.369C141.424 288.352 138.804 289.697 135.97 290.246L133.858 290.43Z" fill="#DE923E"/>
<path d="M134.18 289.282C131.625 288.687 129.315 287.319 127.565 285.364C125.816 283.409 124.711 280.962 124.402 278.357C124.117 276.481 124.223 274.567 124.713 272.734C125.203 270.902 126.066 269.19 127.248 267.707C128.968 265.948 131.147 264.707 133.537 264.126C134.914 263.757 136.357 263.706 137.756 263.977C139.156 264.247 140.476 264.832 141.617 265.687C144.029 267.323 145.783 269.762 146.565 272.57C147.346 275.378 147.106 278.372 145.886 281.019C144.671 283.722 142.651 285.983 140.102 287.492C138.178 288.543 136.046 289.154 133.858 289.282C132.389 289.282 132.389 291.761 133.858 291.623C136.199 291.478 138.489 290.886 140.607 289.879C143.35 288.434 145.638 286.257 147.217 283.59C148.977 280.73 149.716 277.359 149.316 274.025C148.916 270.691 147.4 267.59 145.013 265.228C142.639 262.837 139.471 261.4 136.108 261.188C132.997 261.297 129.991 262.337 127.477 264.172C125.698 265.599 124.275 267.42 123.319 269.491C122.363 271.563 121.901 273.827 121.969 276.107C121.867 279.599 122.964 283.02 125.077 285.801C127.19 288.582 130.192 290.557 133.583 291.394C135.052 291.853 135.649 289.603 134.18 289.282Z" fill="#DE923E"/>
<path d="M134.639 287.721C132.705 287.179 130.939 286.159 129.504 284.753C128.069 283.348 127.012 281.603 126.43 279.681C125.849 277.758 125.762 275.72 126.178 273.755C126.594 271.791 127.499 269.963 128.809 268.44C129.665 267.548 130.688 266.832 131.82 266.335C132.953 265.838 134.172 265.569 135.408 265.543C136.645 265.518 137.874 265.736 139.026 266.186C140.178 266.636 141.23 267.308 142.122 268.165C144.03 270.078 145.173 272.623 145.334 275.321C145.495 278.019 144.662 280.683 142.994 282.809C141.437 284.874 139.264 286.391 136.789 287.142C134.314 287.892 131.664 287.838 129.222 286.986C123.833 285.012 119.346 281.145 116.598 276.106C113.936 271.497 112.631 266.23 112.834 260.912C112.73 254.334 114.742 247.898 118.572 242.549C121.412 239.016 125.013 236.17 129.107 234.222C133.2 232.275 137.68 231.277 142.213 231.302C147.68 231.097 153.083 232.525 157.735 235.403C162.387 238.281 166.077 242.478 168.334 247.461C170.139 252.271 169.974 257.599 167.875 262.289C165.05 267.221 163.239 272.668 162.55 278.31C162.524 280.9 163.047 283.466 164.083 285.839C165.12 288.213 166.646 290.34 168.563 292.082C172.052 295.341 176.459 297.452 179.81 300.895C181.757 302.9 182.902 305.548 183.028 308.339C183.155 311.131 182.255 313.872 180.499 316.045C176.119 321.017 170.178 324.352 163.651 325.501C162.987 325.752 162.44 326.242 162.119 326.875C161.798 327.509 161.725 328.24 161.914 328.924C162.104 329.609 162.543 330.197 163.145 330.574C163.746 330.952 164.468 331.091 165.166 330.964C171.934 329.489 178.18 326.223 183.253 321.507C185.456 319.273 187.063 316.523 187.929 313.508C188.796 310.493 188.892 307.309 188.211 304.246C185.044 292.77 168.426 291.163 168.15 278.539C168.15 271.194 173.751 265.181 174.944 258.02C175.867 251.923 174.563 245.698 171.272 240.483C167.852 235.648 163.284 231.738 157.978 229.107C152.672 226.476 146.795 225.206 140.876 225.41C134.956 225.615 129.181 227.289 124.07 230.281C118.958 233.272 114.671 237.489 111.594 242.549C107.627 250.017 106.193 258.572 107.509 266.925C108.136 271.509 109.74 275.906 112.21 279.818C114.681 283.73 117.962 287.066 121.831 289.603C124.492 291.423 127.563 292.552 130.769 292.889C133.974 293.225 137.213 292.759 140.194 291.531C142.865 290.328 145.198 288.483 146.984 286.16C148.771 283.838 149.954 281.109 150.43 278.218C150.999 274.727 150.409 271.145 148.751 268.021C147.094 264.896 144.459 262.399 141.249 260.912C138.282 259.671 134.998 259.398 131.866 260.131C128.734 260.865 125.913 262.568 123.805 264.997C121.992 267.267 120.768 269.95 120.242 272.807C119.716 275.664 119.905 278.607 120.791 281.374C121.677 284.14 123.233 286.646 125.32 288.666C127.408 290.686 129.963 292.159 132.757 292.954C136.292 293.734 137.807 288.363 134.272 287.537L134.639 287.721Z" fill="#DE923E"/>
<path d="M114.257 192.374C116.796 191.59 119.088 190.16 120.908 188.224C122.729 186.288 124.014 183.911 124.639 181.328C125.264 178.745 125.207 176.044 124.473 173.49C123.74 170.936 122.355 168.616 120.454 166.758C118.488 164.952 116.074 163.704 113.462 163.145C110.851 162.585 108.138 162.735 105.604 163.578C103.07 164.421 100.808 165.927 99.052 167.939C97.2963 169.951 96.111 172.397 95.6191 175.022C93.5534 187.554 105.627 195.312 116.919 193.384C122.61 192.146 127.697 188.979 131.319 184.419C134.942 179.86 136.877 174.188 136.797 168.365C136.693 162.437 134.856 156.67 131.511 151.775C128.166 146.88 123.46 143.072 117.975 140.822C112.247 138.459 105.974 137.74 99.8595 138.745C93.7452 139.751 88.0323 142.441 83.3624 146.514C79.2045 150.575 76.0077 155.515 74.0061 160.972C72.0045 166.429 71.2486 172.264 71.794 178.051C72.2499 186.664 74.9222 195.013 79.5521 202.289C91.9467 220.652 114.532 230.659 136.154 231.944C139.735 232.174 139.735 226.528 136.154 226.298C107.876 224.645 75.4208 204.952 77.4406 173.093C77.4847 168.559 78.5133 164.088 80.4552 159.99C82.3971 155.892 85.206 152.265 88.6876 149.36C92.795 146.288 97.6786 144.424 102.788 143.978C107.898 143.532 113.031 144.522 117.608 146.836C121.834 148.95 125.357 152.242 127.752 156.315C130.147 160.388 131.311 165.068 131.104 169.788C130.901 174.515 128.962 179.001 125.66 182.388C122.357 185.776 117.921 187.828 113.201 188.151C110.619 188.376 108.036 187.723 105.87 186.299C103.704 184.874 102.082 182.761 101.266 180.3C100.637 177.878 100.994 175.305 102.259 173.145C103.524 170.985 105.593 169.415 108.014 168.778C109.196 168.462 110.429 168.386 111.641 168.553C112.853 168.721 114.019 169.128 115.071 169.753C116.123 170.377 117.04 171.205 117.767 172.189C118.494 173.173 119.018 174.292 119.307 175.481C119.9 177.882 119.556 180.42 118.345 182.577C117.134 184.735 115.147 186.35 112.788 187.095C109.345 188.197 110.814 193.613 114.257 192.512L114.257 192.374Z" fill="#DE923E"/>
<path d="M134.18 167.31C133.189 170.091 133.099 173.113 133.923 175.948C134.747 178.783 136.443 181.286 138.77 183.102C141.525 185.122 145.197 186.178 146.942 189.162C148.008 192.1 148.476 195.221 148.319 198.343C148.814 202.177 150.711 205.693 153.644 208.213C156.615 210.658 160.409 211.874 164.248 211.609C159.663 213.198 154.723 213.46 149.996 212.363C145.269 211.267 140.948 208.857 137.531 205.412C134.204 201.826 131.933 197.39 130.969 192.594C130.005 187.798 130.385 182.829 132.068 178.236L134.18 167.31Z" fill="#DE923E"/>
<path d="M133.078 167.034C131.823 170.411 131.829 174.128 133.094 177.501C134.359 180.874 136.798 183.677 139.964 185.396C142.443 186.865 145.473 188.059 146.528 190.997C147.088 193.872 147.396 196.791 147.447 199.719C147.866 202.287 148.906 204.714 150.476 206.788C152.076 208.896 154.168 210.579 156.569 211.691C158.969 212.803 161.606 213.311 164.248 213.169L163.927 210.874C160.675 212.005 157.221 212.433 153.792 212.13C150.364 211.827 147.038 210.8 144.036 209.116C141.033 207.433 138.422 205.131 136.375 202.364C134.328 199.596 132.891 196.426 132.16 193.063C131.471 189.67 131.471 186.173 132.16 182.78C132.527 180.99 133.216 179.291 133.537 177.455L135.281 167.861C135.281 166.346 133.262 165.749 132.986 167.218L131.471 175.664C130.475 179.308 129.754 183.022 129.314 186.774C129.1 191.115 129.957 195.443 131.808 199.376C133.659 203.309 136.449 206.727 139.931 209.329C143.412 211.932 147.48 213.639 151.777 214.3C156.073 214.962 160.466 214.558 164.569 213.123C165.763 212.71 165.671 210.782 164.294 210.828C161.579 211.029 158.866 210.422 156.496 209.082C154.127 207.742 152.208 205.73 150.981 203.3C149.857 200.822 149.308 198.123 149.374 195.404C149.456 193.122 148.984 190.854 147.997 188.794C145.748 184.984 141.02 184.203 138.036 181.127C136.405 179.381 135.286 177.219 134.8 174.88C134.314 172.54 134.481 170.112 135.281 167.861C135.832 166.208 133.583 165.611 133.078 167.034Z" fill="#DE923E"/>
<path d="M92.865 143.486C89.203 141.076 85.7894 138.308 82.674 135.223C79.2239 134.048 75.6204 133.382 71.9779 133.249C68.7273 132.219 65.7365 130.502 63.2095 128.212C60.6825 125.923 58.6786 123.116 57.334 119.982C54.2583 113.877 52.7433 107.129 50.0349 100.84C47.3264 94.5507 39.1552 86.0578 23.9604 81.0541C35.3367 82.1661 46.5138 84.7909 57.1961 88.8584C67.9744 93.0152 76.6712 101.266 81.3885 111.811C83.4543 117.182 84.0511 123.012 85.9791 128.521C86.6367 131.323 87.87 133.958 89.6008 136.258C91.3316 138.557 93.5219 140.472 96.0325 141.879L92.865 143.486Z" fill="#DE923E"/>
<path d="M93.5992 142.474C90.3305 140.196 87.2593 137.647 84.4181 134.854C81.0569 133.074 77.2948 132.189 73.4927 132.283C63.0722 130.492 58.2521 119.521 55.1305 110.661C53.414 103.902 50.1797 97.6221 45.6736 92.2991C39.6853 86.6041 32.4568 82.3766 24.5571 79.9502L23.9143 82.1995C41.4044 84.7243 60.639 87.6164 73.3089 101.159C76.0465 104.067 78.2945 107.4 79.9653 111.028C81.665 115.489 82.9407 120.1 83.7756 124.8C85.4741 131.961 88.3661 139.582 95.5274 143.162L95.5274 141.143L92.5435 142.52C91.1663 143.116 92.5435 145.183 93.6911 144.54L96.6751 143.162C96.8573 143.064 97.0095 142.918 97.1155 142.74C97.2216 142.563 97.2775 142.36 97.2775 142.153C97.2775 141.946 97.2216 141.743 97.1155 141.565C97.0095 141.387 96.8573 141.241 96.6751 141.143C87.953 136.874 86.6676 126.407 84.6019 118.19C82.8857 110.41 78.8713 103.325 73.0795 97.8535C59.9504 85.5508 41.6799 82.613 24.5571 80.1799C24.2826 80.1585 24.0091 80.2324 23.7829 80.3895C23.5568 80.5466 23.3921 80.7771 23.3164 81.0418C23.2408 81.3065 23.259 81.5892 23.368 81.842C23.477 82.0949 23.6699 82.3025 23.9143 82.4293C32.0796 84.8927 39.4664 89.4322 45.3525 95.6042C50.8153 101.847 52.0546 110.478 55.268 117.914C58.4814 125.351 63.7606 132.788 71.9318 134.67C75.8338 135.542 80.3326 134.67 83.4542 137.47C86.2051 140.269 89.2885 142.72 92.6354 144.769C93.783 145.182 94.9764 143.162 93.5992 142.474Z" fill="#DE923E"/>
<path d="M147.217 228.778C152.007 229.44 156.604 231.097 160.714 233.644C164.85 236.16 168.151 239.842 170.201 244.228C172.251 248.614 172.959 253.508 172.236 258.295C170.962 262.735 169.223 267.028 167.048 271.103C165.181 275.331 165.017 280.116 166.589 284.462C169.849 293.138 181.325 295.112 184.952 303.559C185.969 306.473 186.102 309.622 185.334 312.612C184.566 315.601 182.932 318.297 180.636 320.36L179.764 321.141C191.883 310.904 191.562 293.597 190.414 281.248C189.613 270.881 186.574 260.812 181.509 251.731C176.275 242.825 162.504 229.926 148.502 228.778L147.217 228.778Z" fill="#DE923E"/>
<path d="M146.896 229.88C151.204 230.371 155.351 231.806 159.041 234.083C162.731 236.36 165.872 239.424 168.242 243.055C170.277 246.392 171.387 250.211 171.456 254.118C171.245 258.452 170.035 262.678 167.921 266.467C164.799 273.031 162.55 280.238 166.544 287.033C169.573 292.312 175.403 294.791 179.856 298.693C181.601 300.017 182.974 301.769 183.843 303.78C184.711 305.79 185.046 307.991 184.814 310.169C184.197 314.125 182.176 317.726 179.122 320.314C177.974 321.37 179.627 322.977 180.775 321.967C192.159 312.005 193.123 296.03 191.838 281.937C190.277 264.86 184.309 248.701 170.721 237.638C164.251 231.927 156.132 228.423 147.539 227.631C146.07 227.401 145.427 229.651 146.896 229.88C149.845 230.231 152.761 230.814 155.618 231.625C159.483 232.995 163.131 234.912 166.452 237.317C172.333 241.382 177.279 246.656 180.958 252.787C188.442 266.737 191.455 282.651 189.588 298.372C188.982 306.742 185.245 314.576 179.122 320.314L180.775 321.967C183.444 319.822 185.409 316.926 186.415 313.652C187.422 310.379 187.424 306.879 186.421 303.604C183.85 297.04 177.24 294.423 172.098 289.833C170.44 288.468 169.097 286.76 168.162 284.826C167.227 282.893 166.722 280.779 166.681 278.632C167.156 273.611 168.723 268.754 171.272 264.401C172.888 260.961 173.664 257.186 173.536 253.387C173.408 249.588 172.381 245.874 170.537 242.55C168.109 238.463 164.779 234.986 160.801 232.384C156.822 229.783 152.302 228.125 147.584 227.539C146.07 227.401 145.427 229.651 146.896 229.88Z" fill="#DE923E"/>
<path d="M113.522 189.667C116.02 188.937 118.225 187.439 119.824 185.386C121.423 183.334 122.336 180.83 122.432 178.229C122.529 175.629 121.804 173.064 120.362 170.898C118.919 168.732 116.831 167.076 114.395 166.163C111.955 165.334 109.317 165.287 106.848 166.028C104.38 166.768 102.204 168.26 100.623 170.295C99.0987 172.401 98.2514 174.921 98.194 177.521C98.1366 180.12 98.8718 182.675 100.302 184.846C101.8 186.823 103.758 188.403 106.006 189.451C108.254 190.499 110.724 190.983 113.201 190.86L113.522 189.667Z" fill="#DE923E"/>
<path d="M113.844 190.768C116.375 189.929 118.607 188.372 120.271 186.288C121.934 184.204 122.957 181.682 123.215 179.028C123.472 176.374 122.954 173.701 121.722 171.336C120.49 168.971 118.599 167.015 116.276 165.704C113.877 164.569 111.202 164.152 108.571 164.502C105.941 164.852 103.468 165.955 101.449 167.678C99.3909 169.565 97.9552 172.033 97.3322 174.755C96.7091 177.477 96.928 180.324 97.9601 182.919C99.2887 185.799 101.452 188.215 104.169 189.852C106.887 191.488 110.033 192.272 113.201 192.1C113.453 192.09 113.696 192 113.894 191.843C114.092 191.686 114.235 191.47 114.302 191.227L114.67 190.034C114.711 189.743 114.644 189.449 114.481 189.205C114.318 188.961 114.072 188.785 113.788 188.712C113.505 188.638 113.204 188.671 112.943 188.805C112.683 188.938 112.48 189.163 112.375 189.437L112.053 190.63L113.201 189.758C110.839 189.907 108.479 189.444 106.348 188.415C104.217 187.386 102.388 185.824 101.036 183.882C99.8318 181.912 99.2451 179.625 99.3515 177.318C99.4578 175.011 100.252 172.789 101.632 170.937C103.019 169.229 104.874 167.962 106.969 167.294C109.065 166.625 111.311 166.583 113.43 167.173C115.723 167.894 117.723 169.335 119.134 171.28C120.545 173.226 121.293 175.573 121.268 177.977C121.242 180.38 120.444 182.712 118.991 184.627C117.538 186.541 115.508 187.938 113.201 188.611C111.778 188.932 112.375 191.227 113.844 190.768Z" fill="#DE923E"/>
<path d="M163.881 330.23C164.523 324.533 163.896 318.764 162.045 313.337C161.065 310.875 159.439 308.722 157.338 307.106C155.238 305.491 152.74 304.472 150.109 304.156C147.232 304.184 144.444 305.149 142.165 306.905C139.887 308.662 138.244 311.113 137.485 313.888C139.903 319.054 141.156 324.688 141.156 330.391C141.156 336.095 139.903 341.728 137.485 346.894C138.245 349.664 139.891 352.11 142.17 353.858C144.449 355.607 147.236 356.563 150.109 356.58C152.74 356.264 155.238 355.245 157.338 353.629C159.439 352.013 161.065 349.861 162.045 347.399C163.942 341.887 164.569 336.018 163.881 330.23Z" fill="#DE923E"/>
<path d="M165.028 330.23C165.906 323.816 164.985 317.284 162.366 311.363C161.102 308.73 159.092 306.526 156.587 305.025C154.082 303.523 151.191 302.79 148.273 302.916C145.552 303.328 143.002 304.498 140.915 306.292C138.828 308.086 137.29 310.433 136.475 313.061C135.656 316.104 135.562 319.296 136.2 322.381C136.837 325.466 138.189 328.359 140.148 330.827L140.148 329.633C138.233 332.063 136.896 334.896 136.236 337.917C135.576 340.939 135.61 344.071 136.337 347.078C137.039 349.834 138.577 352.306 140.74 354.154C142.903 356.001 145.585 357.133 148.417 357.395C151.25 357.656 154.094 357.034 156.558 355.614C159.023 354.195 160.988 352.046 162.182 349.465C164.954 343.459 165.942 336.782 165.028 330.23C165.028 328.761 162.596 328.715 162.687 330.23C163.23 335.31 162.825 340.447 161.494 345.379C160.743 348.013 159.224 350.363 157.131 352.129C155.037 353.896 152.465 354.998 149.742 355.294C147.127 355.184 144.619 354.229 142.591 352.574C140.564 350.92 139.127 348.653 138.495 346.113C137.944 343.459 137.988 340.717 138.623 338.082C139.258 335.446 140.468 332.985 142.167 330.873C142.282 330.695 142.343 330.488 142.343 330.276C142.343 330.064 142.282 329.857 142.167 329.679C140.511 327.624 139.317 325.235 138.668 322.676C138.018 320.117 137.928 317.449 138.403 314.852C138.968 312.225 140.387 309.859 142.438 308.123C144.49 306.388 147.058 305.38 149.742 305.258C152.389 305.549 154.896 306.601 156.957 308.288C159.018 309.974 160.546 312.223 161.356 314.76C162.828 319.792 163.281 325.067 162.687 330.276C162.596 331.745 164.937 331.745 165.028 330.23Z" fill="#DE923E"/>
<path d="M6.47004 94.6885C15.1462 104.696 24.006 115.116 27.9539 127.832C31.9018 140.548 30.7542 153.769 36.3547 165.292C44.8932 182.828 66.8361 191.274 73.0793 209.728C78.7257 226.07 69.9117 244.065 71.8397 261.28C74.4105 284.233 96.9044 305.9 96.9044 330.139C96.9044 354.377 74.4105 376.044 71.8397 398.997C69.9117 416.258 78.7257 434.207 73.0793 450.595C66.6984 468.957 44.7555 477.496 36.3547 494.986C30.7542 506.508 31.7641 520.234 27.9539 532.491C24.1437 544.748 15.1462 555.444 6.47006 565.635L-44.8984 625.312C-23.5982 617.6 -0.966557 617.325 21.2059 613.882C27.9727 613.401 34.5092 611.223 40.2109 607.547C45.3524 603.645 48.382 597.494 53.294 593.316C64.0818 584.135 81.4341 586.017 91.717 576.148C99.6587 568.527 101.403 555.398 110.401 549.063C117.287 544.473 126.881 544.472 133.354 539.193C141.02 532.812 141.295 521.29 144.968 511.971C146.03 507.538 148.533 503.583 152.083 500.724C163.605 494.298 174.761 495.032 179.627 480.021C183.253 469.049 178.02 455.691 184.447 446.096C189.404 438.66 200.055 435.814 203.13 427.367C206.206 418.92 198.54 408.591 199.504 398.905C200.468 389.219 208.685 382.563 213.872 374.3C217.736 367.273 219.225 359.185 218.116 351.243C217.007 343.301 213.361 335.931 207.721 330.23C213.355 324.642 217.006 317.363 218.117 309.506C219.228 301.648 217.737 293.643 213.872 286.712C208.914 278.495 200.1 271.747 199.504 262.152C198.907 252.558 206.39 242.78 203.13 233.645C200.055 225.244 189.359 222.398 184.447 214.961C178.02 205.367 183.253 192.008 179.627 180.991C174.715 165.98 163.56 166.76 152.083 160.333C148.541 157.467 146.04 153.515 144.968 149.087C141.295 139.906 141.02 128.199 133.354 121.818C126.881 116.447 117.287 116.769 110.401 111.949C101.22 105.614 99.6587 92.5309 91.717 84.8646C81.4341 75.0408 64.1736 76.9689 53.2939 67.7419C48.382 63.5186 45.3524 57.3667 40.2109 53.4647C34.4998 49.8086 27.9684 47.6315 21.2059 47.1297C-0.966582 43.6868 -23.5982 43.4114 -44.8985 35.6992L6.47004 94.6885ZM117.241 128.75C154.53 167.281 181.388 214.678 195.28 266.467C200.422 285.656 202.304 311.317 197.071 330.735C202.304 349.924 200.422 375.08 195.28 394.269C181.368 446.05 154.513 493.442 117.241 531.986C80.516 570.088 31.4886 602.452 -21.9915 612.826C-3.08219 595.882 13.5932 576.6 27.6325 555.444C42.6896 532.859 52.3758 502.882 66.4229 483.831C81.7554 463.127 89.0544 437.053 93.9663 411.667C97.042 395.187 97.4093 378.064 103.147 362.364C108.886 346.665 123.851 331.011 140.377 330.689C123.851 330.368 108.932 314.714 103.147 299.014C97.3634 283.315 96.9961 266.192 93.9663 249.758C89.1462 224.372 81.8472 198.297 66.4229 177.594C52.3758 158.543 42.6896 128.567 27.6325 105.935C13.6529 84.5824 -2.99198 65.0989 -21.8997 47.9562C31.4887 58.285 80.2865 90.6484 117.241 128.75Z" fill="#DE923E"/>
<path d="M5.64409 95.5137C12.848 103.187 19.0208 111.768 24.0064 121.038C28.5969 130.907 29.1937 141.603 31.1217 152.161C32.4934 160.972 36.3289 169.216 42.1851 175.941C47.6479 182.138 54.1663 187.187 60.0423 192.926C66.7887 198.773 71.4595 206.649 73.355 215.373C75.1453 226.07 72.2073 236.903 71.0138 247.508C69.7862 256.67 70.859 265.994 74.1353 274.638C77.6464 283.007 81.6473 291.161 86.1169 299.06C90.8682 307.299 94.073 316.339 95.5735 325.731C96.1729 335.088 94.2716 344.436 90.0648 352.815C82.8576 368.837 71.1057 384.123 70.5089 402.301C70.1417 412.997 73.1256 423.372 73.7683 433.976C74.7599 443.896 71.7712 453.803 65.4594 461.52C55.0847 474.144 39.4767 482.315 33.6008 498.244C29.9743 508.16 30.1579 518.948 27.5872 529.094C24.5435 539.444 19.2444 548.992 12.071 557.05C-2.75653 575.412 -18.5481 592.627 -33.8347 610.346L-45.7244 624.118C-46.413 624.944 -45.7244 626.505 -44.5768 626.092C-26.2145 619.619 -7.11774 618.334 11.8872 615.993C20.2201 615.511 28.4352 613.794 36.2631 610.897C43.6999 607.5 47.1888 600.477 52.7434 595.014C63.4395 584.502 80.8376 587.118 91.9468 577.203C96.5327 572.199 100.214 566.436 102.826 560.171C104.398 556.89 106.508 553.895 109.07 551.312C112.285 548.613 116.091 546.71 120.179 545.757C127.019 543.691 133.675 541.717 137.853 535.52C141.108 529.364 143.429 522.758 144.738 515.918C145.814 512.131 147.356 508.491 149.329 505.084C151.689 501.891 155.05 499.58 158.877 498.52C164.215 496.86 169.264 494.382 173.843 491.175C178.754 486.694 181.76 480.5 182.243 473.869C183.07 465.789 180.958 457.022 184.08 449.309C186.834 442.561 193.674 439.486 198.907 434.941C201.369 432.942 203.232 430.304 204.293 427.316C205.354 424.328 205.571 421.105 204.921 418.001C203.544 410.06 198.999 402.393 201.891 394.268C204.783 386.143 210.843 381.46 214.882 374.896C218.2 369.095 219.945 362.528 219.945 355.845C219.945 349.162 218.2 342.596 214.882 336.794C213.249 333.928 211.208 331.315 208.823 329.036L208.823 330.735C213.54 326.015 216.928 320.134 218.645 313.686C220.362 307.238 220.346 300.45 218.601 294.01C216.214 287.225 212.5 280.982 207.675 275.648C205.147 272.681 203.158 269.294 201.799 265.641C200.604 261.503 200.7 257.098 202.075 253.016C203.911 246.222 207.17 238.969 204.14 231.991C201.524 226.024 195.418 222.81 190.369 219C187.23 216.685 184.849 213.489 183.529 209.819C182.397 205.838 181.947 201.694 182.198 197.562C182.954 190.159 181.866 182.683 179.03 175.803C176.231 170.684 171.685 166.742 166.222 164.694C160.346 162.169 152.451 160.7 148.916 154.778C142.214 142.98 143.912 124.848 130.232 118.054C123.209 114.565 114.624 114.427 108.794 108.872C103.699 103.869 101.403 96.7989 97.8228 90.7853C94.5854 85.0458 89.5069 80.5663 83.4084 78.0699C76.7521 75.2696 69.6365 74.2137 62.8884 71.643C59.1174 70.2949 55.6643 68.1855 52.7434 65.4459C49.8972 62.5997 47.6479 59.2486 45.0313 56.2647C39.67 50.6925 32.5202 47.1825 24.8326 46.3489C6.47035 43.1814 -12.4887 42.6306 -30.8051 38.4073C-35.4722 37.3558 -40.0712 36.0222 -44.5768 34.4135C-45.7703 34.0004 -46.413 35.5609 -45.7244 36.3871L5.64409 95.5137C6.60811 96.6614 8.26065 94.9629 7.29663 93.8152L-44.0719 34.1378L-45.2195 36.112C-28.0508 42.2175 -9.87191 43.7324 8.07722 45.844C16.9011 46.2361 25.6357 47.7794 34.0597 50.4346C42.231 53.7398 45.6279 61.3601 51.7793 67.0524C62.3835 76.8303 78.68 74.6727 89.6515 83.6703C100.623 92.6678 100.531 108.551 114.027 114.335C121.051 117.319 129.635 117.778 134.823 124.067C140.01 130.356 140.423 137.609 142.489 144.449C144.279 150.371 146.437 157.67 152.221 160.792C158.005 163.913 163.422 165.107 168.655 167.999C171.76 169.801 174.38 172.331 176.291 175.369C178.202 178.408 179.347 181.864 179.627 185.443C180.545 192.88 179.03 200.454 180.683 207.845C182.388 213.936 186.342 219.154 191.746 222.443C197.805 227.034 203.59 231.303 202.717 239.704C201.845 248.104 196.887 255.541 198.815 264.079C200.743 272.618 207.033 277.851 211.485 284.186C215.968 290.959 217.961 299.079 217.124 307.158C216.287 315.237 212.671 322.775 206.895 328.485C206.679 328.715 206.558 329.019 206.558 329.335C206.558 329.65 206.679 329.954 206.895 330.184C211.995 335.299 215.433 341.835 216.76 348.935C218.086 356.036 217.24 363.372 214.332 369.984C211.256 376.641 205.701 381.644 201.891 387.842C200.125 390.736 199.001 393.975 198.597 397.342C198.193 400.708 198.518 404.122 199.55 407.352C201.57 414.88 205.334 423.189 199.55 430.075C195.464 435.078 189.129 437.649 184.906 442.515C174.623 454.404 184.08 471.895 175.725 484.703C168.655 495.444 151.946 493.241 146.207 504.855C143.421 511.387 141.194 518.145 139.551 525.054C138.637 528.709 136.998 532.143 134.731 535.153C132.044 538.141 128.554 540.292 124.678 541.35C118.021 543.553 111.181 544.885 106.315 550.21C102.33 555.48 98.9426 561.176 96.216 567.195C92.7057 573.758 86.7787 578.697 79.6901 580.967C73.1714 583.216 66.3773 584.364 60.0882 587.118C53.743 590.439 48.3059 595.262 44.2507 601.165C41.5654 604.595 38.0611 607.294 34.0598 609.015C30.2544 610.378 26.315 611.332 22.3079 611.861C4.26696 614.753 -14.1413 615.396 -31.9527 619.619C-36.4388 620.674 -40.8671 621.961 -45.2195 623.475L-44.0719 625.45L4.22104 569.536C11.3847 561.874 17.838 553.576 23.5015 544.747C28.4184 535.643 31.4179 525.629 32.3153 515.322C33.0342 505.134 36.5968 495.353 42.5982 487.09C48.3516 480.814 54.4839 474.897 60.9604 469.37C67.0837 464.134 71.815 457.462 74.7321 449.952C77.9455 440.128 76.1552 429.707 74.7321 419.746C72.5846 409.6 72.8836 399.089 75.6044 389.081C79.0262 379.98 83.203 371.181 88.0909 362.777C92.5266 354.972 95.7902 346.558 97.7769 337.804C99.2094 329.061 98.2253 320.092 94.9308 311.867C88.5499 294.653 75.329 279.274 73.401 260.591C71.3352 240.667 82.5819 220.056 70.9219 201.556C61.7407 187.325 44.8017 179.659 37.5027 164.097C32.9121 154.136 32.9122 142.797 30.7087 132.238C28.2182 122.26 23.511 112.971 16.937 105.062C13.9072 101.114 10.6938 97.3957 7.48043 93.6315C6.33279 92.7133 4.68007 94.3661 5.64409 95.5137Z" fill="#DE923E"/>
<path d="M116.414 129.575C144.275 158.388 166.37 192.263 181.509 229.374C189.396 247.443 194.86 266.475 197.759 285.976C199.067 295.869 199.252 305.879 198.31 315.814C198.081 318.201 197.805 320.405 197.392 322.93C196.703 325.23 196.181 327.578 195.831 329.954C195.979 331.688 196.334 333.399 196.887 335.049C197.438 337.712 197.851 340.466 198.173 343.175C199.999 363.18 197.718 383.346 191.47 402.438C185.72 421.627 178.125 440.214 168.793 457.939C150.288 493.014 125.375 524.31 95.3436 550.209C65.6067 576.904 30.2422 596.563 -8.12778 607.729C-12.7184 608.968 -17.309 610.07 -22.3128 610.988L-21.2108 612.962C-4.1916 597.688 11.0392 580.532 24.1897 561.823C36.8138 543.828 45.2148 523.813 55.1304 504.303C57.3339 499.988 59.7209 495.673 62.1998 491.542C64.6787 487.41 67.9839 483.095 70.7841 478.826C76.5759 469.814 81.2905 460.153 84.8313 450.043C88.5073 439.629 91.4372 428.968 93.5992 418.138C95.9403 406.708 97.18 395.186 98.9703 383.709C100.187 371.205 104.459 359.193 111.411 348.729C118.251 339.548 128.442 331.606 140.285 331.193C140.556 331.139 140.8 330.993 140.975 330.78C141.15 330.566 141.246 330.298 141.246 330.022C141.246 329.746 141.15 329.478 140.975 329.265C140.8 329.052 140.556 328.905 140.285 328.851C135.258 328.419 130.37 326.976 125.913 324.61C121.456 322.244 117.523 319.002 114.349 315.08C107.239 306.555 102.49 296.314 100.577 285.379C98.098 273.857 97.3177 262.059 95.252 250.445C93.3036 239.385 90.682 228.454 87.402 217.714C84.2647 207.428 80.0808 197.491 74.9158 188.059C69.912 179.199 63.5309 171.349 58.619 162.398C48.3361 143.714 40.8536 123.516 29.1476 105.612C14.9182 84.0278 -2.05606 64.3835 -21.3487 47.174L-22.4504 49.1483C19.4616 57.4113 57.9305 78.6655 90.5695 105.842C99.5267 113.354 108.092 121.321 116.231 129.713C117.287 130.815 118.939 129.116 117.883 128.06C88.5704 97.0196 52.835 72.7521 13.1725 56.952C1.80065 52.6218 -9.91628 49.2591 -21.8536 46.8989C-22.9094 46.8989 -23.9193 48.0003 -23.0012 48.8726C-5.34731 64.6965 10.3702 82.5562 23.8227 102.078C36.3549 120.44 44.4343 140.868 54.7171 160.332C57.0583 164.922 59.583 169.237 62.3374 173.507C65.0917 177.776 68.5346 182.137 71.2431 186.682C77.0363 196.498 81.6584 206.959 85.0148 217.852C88.3366 228.584 90.974 239.516 92.9107 250.583C95.0683 262.518 95.8944 274.637 98.4651 286.526C100.569 297.97 105.705 308.64 113.339 317.421C116.708 321.383 120.827 324.64 125.459 327.003C130.092 329.367 135.146 330.791 140.331 331.193L140.331 328.851C120.821 329.54 106.223 347.581 100.76 364.888C97.6339 376.594 95.4844 388.54 94.3338 400.602C92.7569 411.912 90.4413 423.106 87.402 434.113C84.4825 445.303 80.4214 456.163 75.2828 466.523C70.6922 475.704 63.8982 483.967 58.619 493.01C47.6935 511.832 40.2569 532.489 28.6887 550.989C14.4152 573.398 -2.9215 593.702 -22.8177 611.309C-23.7358 612.136 -22.8177 613.467 -21.67 613.284C17.6703 604.715 54.4294 586.972 85.6116 561.502C133.3 524.099 169.285 473.826 189.313 416.624C196.453 397.864 200.47 378.061 201.202 358.002C201.301 352.88 201.056 347.758 200.468 342.669C200.192 340.557 199.917 338.4 199.504 336.243C198.712 333.88 198.385 331.385 198.54 328.897C200.465 319.475 201.342 309.868 201.156 300.252C200.197 280.478 196.091 260.984 188.991 242.503C175.551 204.466 154.968 169.345 128.35 139.031C125.045 135.267 121.602 131.549 118.067 127.923C117.057 126.821 115.359 128.473 116.414 129.575Z" fill="#DE923E"/>
<path d="M133.858 369.57C130.516 370.405 127.59 372.423 125.623 375.251C123.656 378.079 122.782 381.525 123.162 384.948C123.244 388.048 124.448 391.012 126.551 393.292C128.653 395.571 131.51 397.01 134.593 397.343C136.69 397.508 138.793 397.135 140.705 396.259C142.617 395.384 144.274 394.034 145.518 392.339C146.717 390.737 147.546 388.889 147.943 386.928C148.339 384.967 148.295 382.942 147.814 381.001C147.118 378.196 145.632 375.65 143.533 373.665C141.434 371.679 138.809 370.338 135.97 369.799L133.858 369.57Z" fill="#DE923E"/>
<path d="M133.583 368.468C130.977 369.202 128.601 370.588 126.68 372.495C124.758 374.402 123.354 376.768 122.601 379.368C121.847 381.968 121.769 384.718 122.373 387.357C122.977 389.996 124.244 392.438 126.054 394.451C128.358 396.545 131.207 397.945 134.272 398.491C135.837 398.707 137.43 398.612 138.958 398.21C140.487 397.808 141.921 397.108 143.177 396.149C145.9 394.203 147.878 391.388 148.787 388.167C149.697 384.947 149.483 381.513 148.181 378.43C146.854 375.235 144.558 372.538 141.617 370.718C139.251 369.344 136.591 368.557 133.858 368.423C132.389 368.423 132.389 370.626 133.858 370.763C136.096 370.885 138.272 371.541 140.204 372.675C142.137 373.809 143.77 375.388 144.968 377.282C146.532 379.69 147.225 382.56 146.933 385.415C146.641 388.271 145.38 390.942 143.361 392.982C141.329 395.04 138.585 396.239 135.695 396.333C133.023 396.103 130.481 395.08 128.396 393.395C127.05 392.186 125.987 390.695 125.281 389.029C124.575 387.363 124.243 385.563 124.31 383.755C124.204 380.778 125.128 377.856 126.926 375.481C128.724 373.106 131.286 371.424 134.18 370.718C135.649 370.397 135.052 368.147 133.583 368.468Z" fill="#DE923E"/>
<path d="M133.124 366.862C130.597 367.581 128.262 368.853 126.287 370.586C124.312 372.319 122.747 374.47 121.705 376.882C120.664 379.294 120.172 381.908 120.266 384.534C120.359 387.16 121.035 389.732 122.245 392.064C123.586 394.41 125.487 396.388 127.777 397.822C130.068 399.256 132.678 400.1 135.374 400.281C138.425 400.255 141.402 399.336 143.938 397.64C146.475 395.943 148.46 393.543 149.65 390.733C150.75 387.859 151.077 384.746 150.6 381.706C150.123 378.665 148.859 375.802 146.932 373.402C145.006 371.002 142.484 369.149 139.619 368.025C136.753 366.902 133.644 366.548 130.599 367C125.436 368.206 120.693 370.783 116.872 374.459C113.05 378.135 110.292 382.774 108.886 387.887C106.179 396.294 106.679 405.406 110.29 413.466C113.9 421.527 120.366 427.966 128.442 431.544C134.642 434.119 141.428 434.946 148.065 433.934C154.702 432.922 160.934 430.111 166.085 425.805C170.72 421.666 173.866 416.117 175.036 410.013C175.828 403.657 174.539 397.215 171.364 391.651C169.115 387.947 168.117 383.618 168.518 379.303C169.061 376.209 170.689 373.41 173.108 371.407C177.699 367.459 183.299 364.934 186.513 359.655C188.195 356.644 188.937 353.198 188.642 349.761C188.348 346.325 187.03 343.055 184.86 340.374C179.741 334.531 172.833 330.544 165.212 329.036C164.494 328.835 163.725 328.928 163.075 329.293C162.425 329.659 161.947 330.269 161.747 330.987C161.546 331.705 161.638 332.474 162.004 333.124C162.37 333.774 162.979 334.252 163.697 334.453C169.377 335.625 174.648 338.268 178.984 342.119C180.947 343.894 182.288 346.254 182.809 348.849C183.33 351.444 183.003 354.138 181.876 356.533C179.277 359.951 176.013 362.809 172.282 364.934C168.74 367.182 165.883 370.358 164.019 374.115C161.998 379.09 161.998 384.657 164.019 389.632C166.833 394.535 168.701 399.922 169.528 405.515C169.528 416.578 160.347 424.933 150.385 427.687C146.348 428.859 142.106 429.156 137.945 428.556C133.784 427.957 129.798 426.475 126.256 424.211C122.714 421.946 119.696 418.951 117.405 415.426C115.114 411.9 113.603 407.927 112.972 403.77C112.125 398.135 112.758 392.377 114.808 387.061C118.113 379.027 127.478 369.754 136.889 373.014C139.653 373.959 141.978 375.878 143.431 378.412C144.884 380.946 145.365 383.923 144.784 386.785C144.43 388.292 143.748 389.701 142.789 390.915C141.829 392.129 140.614 393.116 139.23 393.809C137.955 394.435 136.545 394.734 135.126 394.678C133.708 394.622 132.325 394.212 131.105 393.488C121.923 388.897 124.953 374.483 134.318 372.417C137.853 371.682 136.338 366.219 132.803 367L133.124 366.862Z" fill="#DE923E"/>
<path d="M112.788 473.087C114.876 473.742 116.681 475.082 117.914 476.889C119.146 478.697 119.734 480.867 119.582 483.049C119.382 485.217 118.45 487.252 116.94 488.82C115.43 490.389 113.432 491.397 111.273 491.679C100.577 492.643 97.5016 477.908 106.683 473.317C115.864 468.726 125.779 474.832 129.636 483.003C131.465 487.495 131.842 492.447 130.714 497.165C129.586 501.882 127.01 506.128 123.347 509.307C119.798 512.443 115.49 514.595 110.85 515.547C106.211 516.498 101.404 516.217 96.9073 514.73C92.4108 513.244 88.3826 510.604 85.2246 507.075C82.0667 503.546 79.8894 499.251 78.9098 494.617C77.2603 487.786 77.2879 480.656 78.9905 473.838C80.6931 467.019 84.0203 460.714 88.6877 455.46C101.178 442.278 118.289 434.446 136.43 433.608C140.01 433.608 140.01 427.779 136.43 428.008C126.229 428.42 116.22 430.903 107.01 435.307C97.7998 439.711 89.5824 445.943 82.8576 453.623C71.0599 467.946 67.6628 491.541 78.2671 507.425C81.6398 512.322 86.2761 516.214 91.6835 518.688C97.0909 521.161 103.068 522.123 108.978 521.472C114.865 520.853 120.462 518.598 125.135 514.964C129.808 511.329 133.37 506.46 135.42 500.906C137.457 495.221 137.494 489.011 135.524 483.302C133.554 477.593 129.695 472.726 124.586 469.506C115.405 463.998 100.394 465.467 96.3539 477.035C95.413 479.87 95.331 482.919 96.1183 485.8C96.9056 488.682 98.5272 491.266 100.779 493.228C103.031 495.19 105.812 496.443 108.774 496.829C111.735 497.215 114.745 496.717 117.424 495.397C120.019 493.918 122.125 491.713 123.484 489.053C124.843 486.394 125.395 483.395 125.073 480.426C124.751 477.457 123.569 474.646 121.672 472.34C119.775 470.033 117.246 468.33 114.395 467.441C110.952 466.339 109.483 471.756 112.926 472.858L112.788 473.087Z" fill="#DE923E"/>
<path d="M134.18 492.689C133.185 489.902 133.093 486.872 133.917 484.029C134.741 481.187 136.439 478.676 138.771 476.852C141.525 474.832 145.198 473.776 146.942 470.838C148.006 467.9 148.474 464.779 148.319 461.657C148.813 457.835 150.711 454.333 153.644 451.833C156.615 449.387 160.409 448.172 164.248 448.436C159.663 446.847 154.723 446.586 149.996 447.683C145.269 448.779 140.948 451.188 137.531 454.633C134.208 458.212 131.939 462.641 130.975 467.428C130.011 472.216 130.389 477.178 132.068 481.764L134.18 492.689Z" fill="#DE923E"/>
<path d="M135.374 492.368C134.59 490.157 134.415 487.776 134.867 485.474C135.32 483.172 136.382 481.034 137.944 479.284C140.882 476.117 145.794 475.291 148.09 471.389C150.385 467.487 148.778 461.703 150.936 457.204C152.124 454.691 154.044 452.596 156.445 451.195C158.846 449.794 161.614 449.152 164.386 449.354C165.763 449.354 165.901 447.472 164.662 447.058C159.44 445.26 153.788 445.125 148.486 446.67C143.184 448.216 138.49 451.366 135.052 455.689C132.565 459.034 130.861 462.895 130.066 466.987C129.272 471.079 129.407 475.297 130.462 479.33C130.884 480.658 131.236 482.006 131.518 483.37L133.262 493.01C133.537 494.479 135.787 493.837 135.557 492.368L133.813 482.727C133.492 480.891 132.803 479.239 132.436 477.403C131.747 474.025 131.747 470.543 132.436 467.165C133.168 463.801 134.605 460.63 136.651 457.862C138.698 455.093 141.308 452.79 144.309 451.103C147.31 449.416 150.634 448.384 154.063 448.074C157.492 447.765 160.948 448.186 164.202 449.308L164.524 447.013C161.89 446.865 159.26 447.36 156.861 448.455C154.462 449.551 152.365 451.215 150.752 453.302C149.16 455.409 148.091 457.863 147.631 460.463C147.58 463.392 147.272 466.31 146.712 469.185C145.611 472.123 142.627 473.317 140.148 474.786C138.174 475.945 136.469 477.51 135.144 479.376C133.781 481.367 132.901 483.649 132.575 486.04C132.248 488.43 132.483 490.864 133.262 493.148C133.583 494.387 135.833 493.791 135.374 492.368Z" fill="#DE923E"/>
<path d="M92.865 516.56C89.1816 518.941 85.7651 521.712 82.674 524.823C79.2239 525.999 75.6204 526.664 71.9779 526.797C68.733 527.825 65.7465 529.536 63.2201 531.817C60.6938 534.098 58.6865 536.894 57.334 540.018C54.2583 546.123 52.7433 552.872 50.0349 559.161C47.3264 565.45 39.1552 573.943 23.9604 578.992C35.3426 577.888 46.5227 575.247 57.1961 571.142C67.969 566.977 76.6629 558.728 81.3885 548.189C83.4543 542.818 84.0511 536.942 85.9791 531.433C86.6292 528.634 87.86 526.003 89.5918 523.71C91.3237 521.416 93.518 519.512 96.0325 518.121L92.865 516.56Z" fill="#DE923E"/>
<path d="M92.4515 515.551C89.0836 517.57 85.9966 520.024 83.2703 522.85C80.1487 525.696 75.6502 524.733 71.7482 525.651C63.577 527.533 58.206 534.832 55.0844 542.36C51.9629 549.889 50.4937 558.474 45.1686 564.671C39.2959 570.859 31.9047 575.402 23.7308 577.846C23.4864 577.972 23.2934 578.18 23.1844 578.432C23.0754 578.685 23.0572 578.968 23.1328 579.233C23.2085 579.497 23.3732 579.728 23.5993 579.885C23.8255 580.042 24.099 580.116 24.3735 580.095C41.4963 577.662 59.7668 574.77 72.8959 562.421C78.6967 556.957 82.7125 549.869 84.418 542.085C86.4837 533.684 87.7232 523.172 96.4912 519.132C96.6734 519.034 96.8256 518.888 96.9317 518.71C97.0377 518.532 97.0939 518.329 97.0939 518.122C97.0939 517.915 97.0377 517.712 96.9317 517.534C96.8256 517.356 96.6734 517.21 96.4912 517.112L93.5075 515.735C92.1762 515.092 90.9827 517.112 92.3599 517.755L95.3436 519.132L95.3436 517.112C88.2741 520.509 85.2902 528.129 83.5917 535.474C82.7323 540.169 81.4574 544.777 79.7817 549.246C78.111 552.888 75.8633 556.236 73.1254 559.162C60.3636 572.658 41.2667 575.596 23.7308 578.075L24.3735 580.324C32.2703 577.914 39.4991 573.703 45.49 568.022C49.9961 562.699 53.2302 556.419 54.9466 549.66C58.0223 540.8 62.8424 529.782 73.3089 528.038C77.1092 528.169 80.8772 527.299 84.2345 525.513C87.0519 522.694 90.1255 520.142 93.4156 517.893C93.7261 517.765 93.9729 517.519 94.1021 517.209C94.2312 516.899 94.2321 516.55 94.1043 516.24C93.9765 515.93 93.7306 515.683 93.4206 515.554C93.1107 515.424 92.7619 515.423 92.4515 515.551Z" fill="#DE923E"/>
<path d="M147.217 431.268C152.009 430.589 156.607 428.916 160.714 426.356C164.859 423.849 168.166 420.168 170.217 415.779C172.269 411.391 172.971 406.493 172.236 401.705C170.945 397.27 169.207 392.979 167.048 388.897C165.179 384.686 165.015 379.914 166.589 375.584C169.849 366.908 181.325 364.934 184.952 356.487C185.969 353.573 186.102 350.424 185.334 347.434C184.566 344.445 182.932 341.749 180.636 339.686L179.764 338.859C191.883 349.142 191.562 366.679 190.414 378.752C189.606 389.132 186.569 399.215 181.509 408.315C176.275 417.22 162.504 430.074 148.502 430.992L147.217 431.268Z" fill="#DE923E"/>
<path d="M147.538 432.37C155.953 431.314 163.61 426.975 168.839 420.297C171.169 417.24 172.727 413.666 173.382 409.878C174.038 406.09 173.77 402.2 172.603 398.538C171.088 394.177 168.38 390.275 167.232 385.822C166.567 383.469 166.474 380.992 166.961 378.596C167.449 376.201 168.501 373.956 170.032 372.05C174.623 366.909 181.555 364.614 185.273 358.646C187.027 355.206 187.528 351.262 186.691 347.492C185.853 343.722 183.729 340.362 180.682 337.988L179.03 339.641C189.864 349.143 190.598 364.292 189.405 377.696C187.936 394.131 182.289 409.831 169.298 420.389C165.663 423.45 161.574 425.928 157.179 427.734C153.82 428.903 150.339 429.688 146.804 430.075C145.335 430.075 145.932 432.6 147.447 432.324C150.832 431.945 154.17 431.223 157.408 430.167C161.281 428.675 164.927 426.651 168.242 424.153C174.304 419.88 179.376 414.354 183.115 407.949C190.936 393.221 193.908 376.401 191.608 359.885C190.742 351.503 186.859 343.721 180.682 337.988C179.535 337.024 177.882 338.631 179.03 339.641C184.722 344.828 187.201 353.413 181.555 359.518C177.515 364.109 171.547 366.312 167.783 371.086C165.783 373.854 164.595 377.125 164.352 380.531C164.109 383.937 164.82 387.342 166.406 390.366C168.428 394.17 169.97 398.21 170.996 402.394C171.655 406.424 171.112 410.56 169.435 414.284C167.27 418.652 164.025 422.394 160.008 425.158C155.992 427.921 151.336 429.614 146.483 430.075C145.427 430.35 146.023 432.6 147.538 432.37Z" fill="#DE923E"/>
<path d="M113.522 470.288C116.026 471.005 118.238 472.494 119.844 474.544C121.45 476.594 122.366 479.098 122.463 481.7C122.56 484.302 121.832 486.869 120.383 489.032C118.933 491.195 116.838 492.845 114.395 493.746C111.961 494.593 109.322 494.655 106.851 493.922C104.38 493.189 102.201 491.698 100.623 489.66C99.0987 487.554 98.2514 485.033 98.194 482.434C98.1366 479.835 98.8718 477.28 100.302 475.108C101.8 473.132 103.758 471.551 106.006 470.503C108.254 469.455 110.724 468.971 113.201 469.094L113.522 470.288Z" fill="#DE923E"/>
<path d="M113.201 471.481C115.37 472.106 117.3 473.371 118.737 475.112C120.175 476.852 121.053 478.987 121.256 481.235C121.46 483.483 120.979 485.74 119.877 487.711C118.776 489.681 117.105 491.272 115.083 492.277C113.092 493.223 110.865 493.557 108.683 493.239C106.502 492.92 104.464 491.962 102.826 490.486C101.157 488.859 100.019 486.765 99.5601 484.48C99.1013 482.194 99.3437 479.824 100.255 477.678C101.483 475.342 103.355 473.409 105.65 472.106C107.945 470.804 110.566 470.189 113.201 470.333L112.053 469.507L112.375 470.701C112.473 470.99 112.678 471.23 112.948 471.372C113.218 471.515 113.533 471.548 113.827 471.466C114.121 471.384 114.372 471.192 114.529 470.93C114.686 470.668 114.736 470.356 114.67 470.058L114.303 468.864C114.235 468.621 114.092 468.406 113.894 468.249C113.696 468.092 113.453 468.002 113.201 467.992C110.335 467.863 107.485 468.491 104.939 469.813C102.393 471.134 100.239 473.103 98.6948 475.521C97.3944 477.925 96.8232 480.655 97.0515 483.378C97.2799 486.102 98.2975 488.7 99.9801 490.853C101.711 492.885 103.994 494.37 106.554 495.128C109.113 495.886 111.837 495.884 114.395 495.123C117.034 494.102 119.295 492.294 120.87 489.943C122.446 487.592 123.258 484.813 123.198 481.984C123.138 479.155 122.208 476.413 120.534 474.131C118.86 471.849 116.524 470.139 113.844 469.232C113.545 469.147 113.226 469.183 112.954 469.334C112.683 469.484 112.483 469.736 112.398 470.035C112.312 470.333 112.349 470.653 112.5 470.925C112.651 471.196 112.903 471.396 113.201 471.481Z" fill="#DE923E"/>
</g>
</g>
<defs>
<clipPath id="clip0_1463_83435">
<rect width="658" height="266" fill="white" transform="translate(0 658) rotate(-90)"/>
</clipPath>
<clipPath id="clip1_1463_83435">
<rect width="592" height="265.748" fill="white" transform="translate(-46 626) rotate(-90)"/>
</clipPath>
</defs>
</svg>
