<svg width="783" height="798" viewBox="0 0 783 798" fill="none" xmlns="http://www.w3.org/2000/svg">
<path opacity="0.4" d="M72.5659 778.129C42.1218 655.422 140.516 643.76 156.933 647.254C143.158 621.791 139.062 592.027 145.437 563.684C152.232 535.712 163.256 509.78 196.162 497.511C222.078 488.08 272.706 490.372 287.903 508.737C276.043 506.165 263.678 508.256 253.267 514.596C242.856 520.935 235.164 531.057 231.726 542.945C229.075 555.062 230.333 567.736 235.309 579.069C240.286 590.403 248.714 599.786 259.332 605.815C270.122 611.504 282.215 614.097 294.323 613.319C306.431 612.542 318.103 608.422 328.099 601.398C337.965 594.179 346.205 584.882 352.265 574.131C358.324 563.38 362.065 551.425 363.233 539.067C369.114 483.17 328.549 430.633 332.463 374.515C334.523 352.613 343.137 331.902 357.13 315.206C371.123 298.511 389.813 286.644 410.652 281.224C382.883 262.396 363.43 233.18 356.476 199.855C348.844 169.68 357.584 101.95 405.713 70.0696C402.651 93.2727 406.092 116.895 415.635 138.19C425.179 159.484 440.434 177.574 459.624 190.356C465.09 169.631 474.873 150.366 488.302 133.88C501.731 117.395 518.488 104.079 537.426 94.847C556.363 85.615 577.032 80.6847 598.015 80.3938C618.999 80.103 639.8 84.4584 658.994 93.1619C667.567 97.5803 676.386 101.481 685.404 104.846C694.472 108.242 704.455 108.008 713.355 104.192C718.775 101.619 723.202 97.2731 725.938 91.8378C728.673 86.4024 729.562 80.1879 728.463 74.1747C727.364 68.1615 724.339 62.6919 719.866 58.6284C715.394 54.5649 709.729 52.1382 703.764 51.7325C751.304 33.7724 768.758 70.4039 767.296 91.6989C765.954 102.331 762.13 112.473 756.149 121.27C750.169 130.068 742.206 137.261 732.933 142.244C714.321 152.048 693.974 157.934 673.093 159.556C652.222 161.289 631.537 164.859 611.268 170.228C579.797 180.43 553.12 202.151 536.343 231.236C519.567 260.321 513.87 294.726 520.341 327.866C524.353 318.565 530.716 310.53 538.777 304.587C546.837 298.644 556.303 295.008 566.199 294.054C576.094 293.101 586.062 294.864 595.076 299.162C604.089 303.46 611.823 310.138 617.48 318.508C624.388 328.623 628.107 340.654 628.139 352.988C628.17 365.321 624.512 377.364 617.657 387.501C610.405 362.398 577.622 352.067 554.178 361.039C530.715 372.027 511.748 391.057 500.551 414.843C480.268 454.935 463.108 496.604 449.231 539.463C435.263 582.378 414.09 622.466 386.661 657.927C372.757 675.544 355.338 689.917 335.563 700.087C315.789 710.258 294.116 715.991 271.993 716.904C274.339 725.599 273.356 734.879 269.244 742.852C265.132 750.824 258.202 756.889 249.866 759.809C232.83 764.888 214.609 763.9 198.181 757.006C181.901 750.095 164.904 745.109 147.521 742.145C132.915 741.029 118.297 744.072 105.287 750.938C92.2761 757.803 81.3803 768.223 73.8096 781.042L72.5659 778.129Z" fill="#E36E84"/>
</svg>
