<svg width="479" height="918" viewBox="0 0 479 918" fill="none" xmlns="http://www.w3.org/2000/svg">
<g clip-path="url(#clip0_1463_83437)">
<path d="M664.247 912.511C542.952 907.98 559.304 812.276 567.038 797.778C539.815 803.853 511.299 799.66 486.972 786.003C463.103 772.051 442.275 754.672 440.043 720.403C438.497 693.477 454.543 646.474 475.625 637.144C469.993 647.604 468.514 659.801 471.482 671.307C474.45 682.813 481.647 692.784 491.64 699.232C502.061 705.001 514.069 707.243 525.868 705.625C537.667 704.007 548.621 698.616 557.092 690.257C565.297 681.646 571.011 670.972 573.629 659.373C576.246 647.773 575.668 635.681 571.956 624.38C568.029 613.148 561.742 602.885 553.517 594.279C545.292 585.673 535.32 578.923 524.27 574.484C474.452 553.844 414.941 577.801 364.379 558.95C344.792 551.092 328.104 537.392 316.592 519.717C305.081 502.043 299.306 481.254 300.054 460.188C275.085 481.219 242.845 491.62 210.266 489.154C180.398 488.177 120.478 461.649 104.39 407.76C124.898 416.912 147.583 420.061 169.805 416.839C192.027 413.618 212.873 404.158 229.916 389.562C212.35 378.819 197.315 364.41 185.841 347.322C174.368 330.234 166.727 310.873 163.444 290.565C160.162 270.256 161.314 249.482 166.822 229.666C172.33 209.85 182.064 191.46 195.356 175.759C201.782 168.889 207.799 161.648 213.377 154.075C218.998 146.463 221.531 137.009 220.469 127.607C219.594 121.813 216.813 116.474 212.564 112.431C208.316 108.389 202.842 105.873 197.006 105.282C191.17 104.691 185.304 106.058 180.334 109.166C175.364 112.274 171.571 116.948 169.556 122.449C166.115 72.8763 204.628 66.3598 223.821 73.491C233.235 77.6277 241.515 83.9653 247.964 91.9689C254.413 99.9725 258.841 109.407 260.874 119.476C264.772 139.633 264.588 160.363 260.333 180.442C256.183 200.543 253.775 220.965 253.136 241.481C253.861 273.841 266.506 304.806 288.652 328.448C310.798 352.089 340.89 366.747 373.167 369.618C365.712 363.33 360.069 355.173 356.819 345.985C353.569 336.796 352.829 326.91 354.676 317.344C356.522 307.779 360.888 298.879 367.324 291.562C373.761 284.246 382.035 278.776 391.293 275.717C402.502 271.953 414.598 271.707 425.956 275.011C437.313 278.314 447.389 285.01 454.829 294.199C429.734 294.235 411.203 322.279 413.007 346.756C416.659 371.796 428.95 394.781 447.756 411.743C479.065 441.658 512.686 469.062 548.305 493.699C583.951 518.437 615.012 549.189 640.094 584.575C652.477 602.414 660.909 622.684 664.825 644.034C668.741 665.383 668.051 687.319 662.801 708.375C671.449 708.519 679.717 711.952 685.922 717.974C692.126 723.997 695.799 732.155 696.192 740.785C696.177 758.182 690.252 775.055 679.386 788.644C668.545 802.09 659.278 816.73 651.767 832.279C646.719 845.716 645.496 860.289 648.232 874.383C650.969 888.477 657.558 901.542 667.27 912.128L664.247 912.511Z" fill="#68355B"/>
</g>
<defs>
<clipPath id="clip0_1463_83437">
<rect width="479" height="918" fill="white"/>
</clipPath>
</defs>
</svg>
