<svg width="329" height="690" viewBox="0 0 329 690" fill="none" xmlns="http://www.w3.org/2000/svg">
<g opacity="0.8" clip-path="url(#clip0_1463_83451)">
<path d="M176.626 540.814C171.372 547.425 164.751 552.821 157.218 556.631C149.684 560.442 141.417 562.577 132.981 562.89C133.272 554.445 135.396 546.165 139.207 538.625C143.017 531.084 148.421 524.463 155.045 519.222L179.002 517.185L176.626 540.814Z" fill="#FFDCB6"/>
<path d="M176.043 540.522C170.714 546.806 164.131 551.905 156.714 555.49C149.298 559.075 141.213 561.066 132.981 561.337L134.484 562.453C134.784 554.283 136.837 546.272 140.502 538.964C144.166 531.656 149.358 525.221 155.725 520.095L154.318 520.581C162.417 519.902 170.369 518.689 178.565 517.864L177.692 517.233C177.159 525.142 176.819 533.05 176.14 540.959C176.14 541.541 177.207 541.25 177.255 540.668C177.934 532.759 179.001 524.851 179.826 516.942C179.851 516.826 179.847 516.706 179.815 516.592C179.783 516.478 179.725 516.374 179.643 516.288C179.562 516.202 179.462 516.137 179.35 516.098C179.238 516.06 179.119 516.05 179.002 516.069C172.116 516.554 165.278 516.699 158.441 517.233C157.374 517.233 156.355 517.233 155.288 517.475C152.815 517.815 150.439 520.629 148.79 522.327C137.733 533.156 131.3 547.852 130.847 563.327C130.847 564.055 131.72 564.443 132.35 564.443C141.16 564.263 149.808 562.05 157.622 557.977C165.437 553.903 172.206 548.08 177.401 540.959C177.838 540.183 176.431 539.989 176.043 540.522Z" fill="black"/>
<path d="M92.6826 476.04C103.012 494.38 142.776 528.587 172.212 522.425C170.66 557.359 197.768 595.204 215.856 605.684L223.179 585.112C223.939 582.185 223.983 579.119 223.308 576.171C222.632 573.224 221.257 570.482 219.299 568.179C215.366 563.62 210.714 559.736 205.528 556.68C200.326 553.604 195.658 549.704 191.706 545.132C189.749 542.838 188.373 540.105 187.698 537.165C187.022 534.225 187.066 531.166 187.827 528.247C190.356 522.566 194.827 517.973 200.435 515.292C206.006 512.635 210.775 508.551 214.257 503.453C216.631 506.835 220.135 509.256 224.137 510.279C228.138 511.303 232.374 510.861 236.079 509.033C243.353 505.152 246.844 495.496 245.778 481.231C250.916 483.431 256.592 484.051 262.084 483.015C267.576 481.978 272.635 479.331 276.619 475.409C281.177 470.557 284.136 464.395 289.519 460.853C292.378 458.957 295.712 457.902 299.141 457.807C302.57 457.713 305.957 458.583 308.916 460.319C309.222 453.161 307.345 446.078 303.534 440.012C299.723 433.946 294.158 429.183 287.579 426.355C295.492 423.638 302.067 417.996 305.958 410.586C309.808 403.213 313.052 395.537 315.657 387.636C318.214 379.718 322.486 372.462 328.168 366.385C322.127 372.099 314.886 376.393 306.976 378.952C299.072 381.536 291.399 384.782 284.039 388.655C276.632 392.548 270.994 399.127 268.278 407.044C265.452 400.461 260.691 394.894 254.629 391.081C248.566 387.268 241.487 385.39 234.333 385.696C236.051 388.662 236.912 392.048 236.818 395.475C236.723 398.903 235.678 402.237 233.799 405.104C230.065 410.489 223.712 413.401 219.25 418.01C215.331 421.996 212.686 427.059 211.65 432.553C210.613 438.048 211.233 443.727 213.431 448.868C199.126 447.995 189.524 451.489 185.645 458.572C183.811 462.27 183.366 466.503 184.39 470.502C185.413 474.5 187.838 477.997 191.222 480.358C186.123 483.871 182.027 488.654 179.34 494.235C176.649 499.821 172.084 504.285 166.441 506.85C163.516 507.61 160.451 507.655 157.505 506.979C154.559 506.303 151.819 504.928 149.517 502.968C144.973 499.002 141.092 494.333 138.024 489.14C134.954 483.961 131.074 479.309 126.531 475.36C124.225 473.407 121.488 472.031 118.544 471.348C115.601 470.664 112.537 470.692 109.607 471.43L92.6826 476.04Z" fill="#E25A6B"/>
<path d="M269.927 446.685C256.345 447.134 243.338 452.278 233.12 461.241C242.068 451.011 247.208 438.002 247.668 424.415L269.927 446.685Z" fill="#FFDCB6"/>
<path d="M328.217 366.288C318.518 375.701 303.97 378.127 291.701 383.076C280.693 387.491 269.879 395.012 266.387 406.947L270.848 405.929C267.868 399.043 262.858 393.232 256.49 389.27C250.121 385.308 242.695 383.384 235.205 383.755C234.138 383.755 231.81 385.017 232.683 386.472C234.368 389.223 235.228 392.401 235.159 395.627C235.09 398.852 234.096 401.99 232.296 404.667C228.611 409.907 222.597 412.721 217.748 417.185C213.606 421.308 210.801 426.583 209.697 432.323C208.24 438.162 209.055 444.336 211.976 449.597C212.752 450.761 215.566 450.081 215.178 448.48C213.348 442.689 213.031 436.526 214.257 430.577C215.915 424.689 219.544 419.551 224.537 416.021C230.005 412.775 234.534 408.159 237.678 402.629C238.884 399.773 239.419 396.678 239.242 393.583C239.066 390.488 238.182 387.474 236.66 384.774L234.138 387.539C240.949 387.339 247.663 389.194 253.405 392.863C259.148 396.532 263.655 401.846 266.339 408.112C267.163 410.101 270.363 408.597 270.8 407.045C274.243 395.109 286.123 388.995 296.889 384.774C308.43 380.213 320.263 376.332 328.798 366.87C329.283 366.385 328.411 366.142 328.071 366.482L328.217 366.288Z" fill="black"/>
<path d="M109.899 472.207C113.676 471.584 117.552 472.036 121.084 473.512C124.617 474.987 127.664 477.427 129.877 480.553C134.727 486.278 138.218 493.265 143.068 499.087C145.179 501.903 147.842 504.258 150.893 506.01C153.945 507.762 157.322 508.873 160.817 509.276C164.219 509.302 167.571 508.46 170.557 506.83C173.544 505.2 176.067 502.836 177.887 499.96C182.348 493.993 185.258 485.793 192.047 481.96C193.114 481.329 194.034 480.067 192.725 479.145C191 477.922 189.538 476.366 188.425 474.567C187.312 472.769 186.571 470.766 186.245 468.675C185.92 466.585 186.016 464.451 186.53 462.399C187.043 460.347 187.962 458.419 189.234 456.729C195.053 450.082 205.479 449.985 213.48 449.548C214.111 449.548 215.033 448.384 214.014 448.238C204.655 446.54 192.338 447.753 185.936 455.71C184.434 457.688 183.347 459.949 182.742 462.358C182.137 464.767 182.027 467.273 182.417 469.727C182.806 472.18 183.689 474.528 185.011 476.631C186.332 478.733 188.066 480.546 190.107 481.96L190.786 479.194C185.247 482.94 180.771 488.054 177.79 494.041C174.298 499.815 169.691 506.268 162.175 506.171C154.658 506.074 148.306 500.203 143.893 494.381C139.913 488.024 135.316 482.076 130.169 476.622C127.539 473.946 124.239 472.025 120.613 471.061C116.988 470.096 113.17 470.124 109.559 471.14C108.831 471.382 109.026 472.45 109.85 472.207H109.899Z" fill="black"/>
<path d="M328.216 366.288C318.517 374.925 314.638 386.812 310.031 398.457C305.909 408.937 299.799 421.213 288.063 424.609C286.851 424.949 284.571 427.229 286.657 428.103C293.01 430.831 298.388 435.42 302.084 441.266C305.78 447.112 307.621 453.941 307.364 460.853L311.001 458.815C308.275 457.282 305.245 456.37 302.127 456.143C299.009 455.917 295.879 456.382 292.961 457.505C287.26 460.38 282.499 464.824 279.237 470.314C275.809 475.386 270.768 479.148 264.932 480.989C258.986 482.378 252.772 482.075 246.989 480.116C245.631 479.776 243.545 481.62 245.146 482.687C250.434 485.512 256.562 486.338 262.41 485.016C268.2 483.956 273.567 481.263 277.879 477.253C282.728 472.935 285.202 466.821 290.197 462.697C292.748 460.753 295.829 459.629 299.032 459.473C302.236 459.317 305.411 460.137 308.139 461.824C308.509 461.986 308.913 462.059 309.317 462.036C309.721 462.013 310.113 461.895 310.463 461.692C310.813 461.489 311.11 461.206 311.33 460.866C311.549 460.526 311.685 460.14 311.727 459.737C312.041 452.341 310.105 445.023 306.174 438.751C302.243 432.479 296.502 427.548 289.711 424.609L288.306 428.151C300.478 424.609 308.091 413.935 312.553 402.678C317.402 390.645 319.681 376.283 328.894 366.531C329.379 366.046 328.507 365.852 328.168 366.143L328.216 366.288Z" fill="black"/>
<path d="M224.197 585.306C225.133 582.079 225.233 578.666 224.486 575.389C223.739 572.113 222.172 569.08 219.93 566.578C214.872 561.227 209.094 556.605 202.763 552.846C196.244 548.972 191.494 542.705 189.525 535.379C188.312 527.616 193.259 522.279 199.223 518.252C205.188 514.225 212.462 510.877 216.245 504.084L212.656 504.521C215.633 508.621 220.094 511.393 225.087 512.246C230.08 513.098 235.209 511.962 239.376 509.082C247.572 502.823 249.075 490.692 246.99 481.28C246.99 480.358 245.438 480.892 245.389 481.619C244.759 489.771 244.614 500.202 238.115 506.17C236.499 507.449 234.636 508.382 232.644 508.91C230.653 509.438 228.574 509.551 226.537 509.242C224.499 508.932 222.547 508.207 220.802 507.111C219.056 506.015 217.555 504.572 216.39 502.871C216.156 502.602 215.859 502.394 215.526 502.266C215.193 502.138 214.834 502.093 214.479 502.136C214.125 502.179 213.788 502.309 213.496 502.513C213.203 502.717 212.965 502.99 212.802 503.308C206.207 514.953 187.1 516.311 185.548 531.546C183.85 547.898 201.89 555.224 212.365 563.472C218.96 568.664 224.974 576.427 222.743 585.355C222.501 586.228 223.906 585.937 224.149 585.355L224.197 585.306Z" fill="black"/>
<path d="M270.266 446.346C267.219 445.636 264.039 445.753 261.053 446.686C257.536 447.327 254.08 448.268 250.724 449.5C243.939 451.94 237.659 455.608 232.199 460.32L234.284 461.824C238.87 456.607 242.542 450.652 245.147 444.212C246.404 441.062 247.41 437.817 248.154 434.508C249.095 431.164 249.342 427.664 248.881 424.221L246.553 425.289C253.1 431.79 260.083 437.952 266.775 444.26C267.745 445.182 268.763 446.055 269.685 446.977C269.685 446.977 270.363 446.977 270.169 446.638C263.671 440.184 257.61 433.295 251.354 426.599C250.481 425.628 249.608 424.658 248.687 423.736C248.49 423.604 248.265 423.519 248.031 423.488C247.796 423.456 247.557 423.478 247.332 423.553C247.108 423.628 246.903 423.754 246.734 423.92C246.566 424.086 246.437 424.289 246.359 424.513C245.486 427.715 245.437 431.014 244.807 434.216C244.163 437.403 243.272 440.533 242.141 443.581C239.755 449.829 236.291 455.609 231.908 460.66C230.696 462.115 232.829 463.231 233.993 462.212C239.012 457.751 244.751 454.175 250.966 451.635C254.103 450.383 257.35 449.425 260.664 448.772C262.265 448.433 263.865 448.19 265.514 447.996C267.164 447.944 268.798 447.65 270.363 447.123C270.363 447.123 270.606 446.492 270.266 446.346Z" fill="black"/>
<path d="M154.318 162.554C147.71 157.297 142.317 150.673 138.509 143.136C134.7 135.598 132.566 127.326 132.253 118.886C140.693 119.177 148.969 121.302 156.506 125.114C164.042 128.926 170.659 134.334 175.897 140.962L177.935 164.931L154.318 162.554Z" fill="#FFDCB6"/>
<path d="M154.949 162.068C148.635 156.573 143.524 149.831 139.935 142.267C136.347 134.703 134.359 126.478 134.096 118.109L131.866 120.05C145.819 120.612 159.091 126.234 169.206 135.867C170.382 136.989 171.499 138.171 172.551 139.41C173.16 139.954 173.698 140.574 174.152 141.253C174.347 142.261 174.444 143.284 174.442 144.31C174.442 146.105 174.782 147.949 174.976 149.744C175.17 151.54 175.849 154.014 176.043 156.149L177.013 164.883L178.322 163.718C170.369 163.184 162.368 162.748 154.366 162.068C153.784 162.068 153.396 162.942 154.366 162.99C162.125 163.669 169.982 164.64 177.789 165.513C178.468 165.513 179.437 165.173 179.389 164.349C178.952 157.459 178.904 150.617 178.419 143.728C178.419 142.66 178.419 141.447 178.128 140.38C177.937 139.672 177.551 139.033 177.013 138.536C175.849 137.129 174.636 135.771 173.327 134.461C168.334 129.454 162.488 125.379 156.064 122.428C148.745 119.081 140.83 117.233 132.787 116.994C132.231 116.965 131.686 117.15 131.262 117.511C130.838 117.872 130.569 118.381 130.508 118.934C130.712 127.609 132.934 136.117 137 143.782C141.066 151.447 146.863 158.057 153.929 163.087C154.317 163.475 155.579 162.602 154.949 162.068Z" fill="black"/>
<path d="M219.058 78.6626C200.727 88.9973 170.127 126.552 172.697 158.235H172.552C137.636 156.731 99.8116 183.805 89.3369 202.146L109.898 209.472C112.823 210.233 115.889 210.277 118.834 209.601C121.78 208.926 124.52 207.55 126.822 205.59C131.379 201.655 135.261 197 138.315 191.811C141.386 186.605 145.285 181.934 149.857 177.982C152.15 176.024 154.881 174.648 157.819 173.972C160.757 173.296 163.815 173.34 166.733 174.101C172.395 176.638 176.968 181.11 179.632 186.716C182.333 192.287 186.425 197.067 191.512 200.593C188.128 202.953 185.705 206.451 184.681 210.449C183.658 214.448 184.103 218.681 185.936 222.378C189.815 229.656 199.466 233.15 213.723 232.082C211.524 237.223 210.904 242.902 211.94 248.397C212.976 253.892 215.622 258.955 219.542 262.941C224.391 267.502 230.55 270.461 234.09 275.847C235.985 278.708 237.039 282.044 237.134 285.475C237.228 288.906 236.359 292.294 234.624 295.255C241.778 295.561 248.857 293.683 254.92 289.87C260.983 286.057 265.743 280.489 268.569 273.906C271.285 281.824 276.924 288.402 284.33 292.295C291.707 296.065 299.378 299.229 307.267 301.757C315.181 304.316 322.433 308.59 328.507 314.275C322.796 308.23 318.506 300.986 315.948 293.072C313.443 285.171 310.28 277.494 306.492 270.122C302.601 262.712 296.026 257.07 288.113 254.353C294.692 251.525 300.256 246.762 304.067 240.696C307.878 234.63 309.755 227.547 309.449 220.389C306.485 222.109 303.1 222.969 299.675 222.875C296.249 222.781 292.918 221.735 290.052 219.855C284.669 216.119 281.76 209.763 277.153 205.299C273.169 201.377 268.109 198.73 262.617 197.693C257.125 196.657 251.449 197.277 246.31 199.477C247.183 185.212 243.692 175.557 236.612 171.675C232.916 169.841 228.686 169.395 224.69 170.419C220.693 171.443 217.197 173.869 214.838 177.255C211.327 172.153 206.547 168.056 200.97 165.367C195.377 162.688 190.91 158.117 188.361 152.461C187.605 149.534 187.562 146.468 188.238 143.521C188.913 140.575 190.286 137.833 192.24 135.528C196.204 130.981 200.87 127.099 206.06 124.028C211.236 120.957 215.887 117.075 219.833 112.529C221.786 110.222 223.161 107.483 223.844 104.538C224.527 101.593 224.499 98.5277 223.761 95.596L219.058 78.6626Z" fill="#E25A6B"/>
<path d="M248.395 255.906C247.935 242.319 242.795 229.309 233.847 219.079C244.072 228.032 257.075 233.174 270.654 233.635L248.395 255.906Z" fill="#FFDCB6"/>
<path d="M328.945 314.275C319.828 304.571 317.5 290.015 312.796 278.079C308.48 267.017 301.158 256.294 289.18 252.801L288.889 256.294C295.906 253.31 301.848 248.256 305.921 241.806C309.993 235.356 312.002 227.817 311.681 220.195C311.681 218.448 309.256 218.885 308.286 219.468C305.473 221.058 302.241 221.748 299.024 221.444C295.808 221.14 292.761 219.858 290.295 217.769C285.446 213.694 282.633 207.677 278.026 203.213C273.73 199.136 268.283 196.484 262.426 195.615C256.568 194.747 250.586 195.706 245.293 198.361C244.997 198.496 244.767 198.743 244.654 199.048C244.54 199.353 244.552 199.691 244.687 199.987C244.822 200.283 245.069 200.513 245.373 200.627C245.678 200.74 246.015 200.728 246.311 200.593C252.027 198.627 258.187 198.34 264.061 199.769C270.058 201.652 275.26 205.475 278.85 210.637C282.117 216.205 286.961 220.68 292.768 223.494C295.717 224.503 298.85 224.856 301.949 224.529C305.047 224.203 308.037 223.204 310.711 221.602L307.317 220.875C307.587 227.565 305.834 234.182 302.287 239.86C298.74 245.539 293.563 250.015 287.434 252.703C285.833 253.334 285.106 255.566 287.142 256.148C299.023 259.642 305.377 271.578 309.693 282.252C314.542 293.994 318.373 305.881 328.121 314.566C328.46 314.857 329.333 314.566 328.945 313.935V314.275Z" fill="black"/>
<path d="M222.743 95.9359C223.383 99.7321 222.96 103.631 221.522 107.202C220.084 110.773 217.687 113.876 214.595 116.169C208.873 121.021 201.939 124.562 196.071 129.463C193.251 131.546 190.87 134.165 189.064 137.171C187.258 140.177 186.063 143.51 185.548 146.979C185.428 150.344 186.211 153.679 187.814 156.639C189.417 159.6 191.783 162.077 194.665 163.815C200.824 168.327 208.776 171.287 212.704 178.371C213.529 179.827 215.517 179.002 216.293 177.934C217.484 176.229 219.027 174.799 220.818 173.74C222.609 172.682 224.606 172.02 226.674 171.799C228.742 171.579 230.834 171.804 232.808 172.461C234.781 173.117 236.591 174.189 238.115 175.605C244.468 181.719 244.71 191.714 245.389 199.865C245.389 200.739 246.893 200.302 246.99 199.865C248.784 190.549 247.911 178.128 239.619 171.966C235.356 169.128 230.144 168.091 225.12 169.082C220.097 170.073 215.669 173.011 212.802 177.255L216.39 176.818C212.588 171.353 207.444 166.959 201.454 164.058C195.634 160.419 189.476 155.664 189.282 148.192C189.088 140.72 194.81 134.072 200.678 129.609C206.915 125.675 212.789 121.193 218.232 116.217C221.006 113.669 223.027 110.406 224.07 106.786C225.114 103.166 225.14 99.3281 224.148 95.6933C224.148 95.0626 222.549 95.6932 222.743 96.1784V95.9359Z" fill="black"/>
<path d="M328.943 314.274C320.311 304.571 308.431 300.786 296.744 296.08C285.833 291.664 274.339 285.26 270.799 273.178C270.314 271.383 267.065 272.451 266.58 273.712C263.989 279.845 259.597 285.046 253.985 288.624C248.373 292.203 241.806 293.991 235.156 293.751L236.66 295.982C238.213 293.306 239.13 290.308 239.34 287.221C239.55 284.133 239.048 281.038 237.872 278.176C234.742 272.635 230.21 268.016 224.73 264.784C219.797 261.195 216.183 256.079 214.449 250.228C213.097 244.296 213.383 238.107 215.274 232.324C215.759 230.384 212.8 231.014 212.17 232.033C205.963 241.737 209.698 256.633 217.699 264.493C222.16 268.957 228.271 271.723 232.247 276.914C234.127 279.575 235.193 282.727 235.313 285.984C235.434 289.24 234.604 292.462 232.925 295.255C232.198 296.516 233.265 297.438 234.478 297.487C242.129 297.818 249.701 295.826 256.2 291.774C262.7 287.722 267.823 281.797 270.896 274.779L266.628 275.313C270.071 287.152 281.176 294.381 292.088 298.603C304.211 303.455 318.518 305.88 328.313 315.051C328.653 315.342 329.525 315.051 329.137 314.42L328.943 314.274Z" fill="black"/>
<path d="M109.509 210.006C112.685 210.911 116.036 211.013 119.261 210.302C122.486 209.59 125.485 208.088 127.986 205.93C133.444 201.057 138.106 195.36 141.806 189.045C146.025 182.981 151.505 176.673 158.827 175.217C166.15 173.762 172.163 179.002 176.091 184.921C180.019 190.841 183.414 198.119 190.106 201.903V199.38C188.065 200.782 186.323 202.577 184.984 204.66C183.644 206.744 182.733 209.073 182.304 211.513C181.875 213.952 181.937 216.453 182.486 218.869C183.034 221.284 184.058 223.566 185.499 225.581C191.803 233.635 204.266 234.363 213.48 232.81C214.304 232.81 214.595 231.549 213.48 231.5C205.236 231.015 195.1 230.724 189.233 224.077C187.901 222.422 186.921 220.513 186.35 218.467C185.779 216.421 185.628 214.281 185.909 212.175C186.191 210.069 186.897 208.043 187.985 206.219C189.073 204.395 190.521 202.811 192.24 201.564C193.113 200.981 193.501 199.671 192.24 199.041C180.601 192.49 179.195 173.422 164.065 171.821C160.597 171.651 157.135 172.241 153.919 173.548C150.702 174.855 147.809 176.849 145.443 179.39C140.423 185.219 135.868 191.433 131.817 197.973C126.628 204.863 118.917 211.171 109.704 208.793C109.025 208.793 108.151 209.666 109.073 209.958L109.509 210.006Z" fill="black"/>
<path d="M248.832 256.003C249.597 252.797 249.48 249.443 248.492 246.299C247.837 242.999 246.93 239.755 245.778 236.595C243.39 229.951 239.807 223.801 235.205 218.448L232.586 220.341C237.857 225.024 243.916 228.737 250.481 231.306C253.636 232.522 256.878 233.495 260.18 234.217C263.616 235.088 267.18 235.334 270.703 234.945L269.685 233.441C263.235 239.894 257.124 246.687 250.82 253.286C249.947 254.256 249.075 255.227 248.154 256.148C247.232 257.07 248.153 256.585 248.541 256.148C255.136 249.598 262.023 243.339 268.764 236.983C269.685 236.061 270.703 235.188 271.624 234.217C271.744 234.111 271.832 233.973 271.879 233.819C271.925 233.666 271.929 233.502 271.889 233.347C271.849 233.192 271.766 233.05 271.651 232.938C271.536 232.827 271.393 232.749 271.237 232.713C268.133 231.888 264.836 231.84 261.538 231.209C258.229 230.58 254.983 229.655 251.839 228.443C245.671 226.012 239.951 222.568 234.915 218.254C233.751 217.284 231.084 218.788 232.296 220.146C236.765 225.206 240.355 230.979 242.916 237.226C244.196 240.363 245.187 243.611 245.875 246.93C246.214 248.531 246.456 250.132 246.65 251.781C246.672 253.335 247.001 254.869 247.62 256.294C247.639 256.373 247.674 256.449 247.722 256.515C247.77 256.581 247.831 256.637 247.9 256.68C247.97 256.723 248.048 256.752 248.129 256.764C248.21 256.777 248.292 256.774 248.372 256.755C248.451 256.736 248.527 256.701 248.593 256.653C248.659 256.605 248.715 256.544 248.758 256.474C248.8 256.404 248.829 256.327 248.842 256.246C248.854 256.165 248.851 256.082 248.832 256.003Z" fill="black"/>
<path d="M225.119 88.6578C224.069 94.4163 224.376 100.341 226.018 105.959C227.659 111.577 230.59 116.735 234.575 121.02C238.572 124.587 243.425 127.057 248.66 128.188C253.896 129.319 259.335 129.073 264.447 127.474C269.548 125.724 274.116 122.696 277.715 118.678C281.314 114.661 283.825 109.788 285.008 104.524C283.406 105.209 281.683 105.562 279.941 105.562C278.199 105.562 276.475 105.209 274.874 104.524C273.267 103.829 271.831 102.792 270.667 101.484C269.503 100.177 268.638 98.6311 268.132 96.9547C267.563 94.1483 267.798 91.238 268.811 88.5594C269.823 85.8809 271.571 83.5434 273.854 81.8166C278.461 78.5023 283.804 76.3545 289.422 75.5574C299.605 73.5195 327.198 71.8698 342.765 94.3345L340.921 91.3263C342.19 92.6815 343.103 94.331 343.577 96.1264C344.051 97.9219 344.072 99.807 343.637 101.612C342.699 105.201 341.348 108.669 339.612 111.947C337.888 115.243 337.148 118.965 337.479 122.67C337.888 125.136 339.072 127.406 340.86 129.152C342.648 130.897 344.946 132.026 347.42 132.374L341.504 130.579C334.803 133.035 329.202 137.81 325.715 144.04C322.228 150.27 321.085 157.543 322.494 164.543C325.84 178.614 338.982 188.22 344.607 201.563C348.923 213.726 348.923 227.004 344.607 239.166C340.921 251.393 316.626 285.988 328.798 314.615L354.743 340.572L380.686 314.615C392.809 285.988 368.563 251.539 364.877 239.166C360.561 227.004 360.561 213.726 364.877 201.563C370.502 188.22 383.644 178.614 386.942 164.543C388.374 157.548 387.248 150.27 383.768 144.036C380.288 137.803 374.685 133.027 367.981 130.579L362.065 132.374C364.539 132.026 366.836 130.897 368.624 129.152C370.412 127.406 371.596 125.136 372.005 122.67C372.312 118.966 371.573 115.251 369.872 111.947C368.136 108.669 366.786 105.201 365.848 101.612C365.4 99.8077 365.413 97.9193 365.888 96.1214C366.363 94.3235 367.282 92.6743 368.563 91.3263L366.72 94.3345C382.238 71.8698 409.831 73.5195 420.063 75.5574C425.682 76.3545 431.023 78.5023 435.63 81.8166C437.913 83.5434 439.662 85.8809 440.674 88.5594C441.687 91.238 441.921 94.1483 441.352 96.9547C440.846 98.6311 439.981 100.177 438.817 101.484C437.653 102.792 436.218 103.829 434.612 104.524C433.001 105.207 431.269 105.559 429.52 105.559C427.77 105.559 426.038 105.207 424.427 104.524C425.628 109.787 428.151 114.658 431.757 118.673C435.364 122.689 439.934 125.718 445.037 127.474C450.149 129.073 455.588 129.319 460.824 128.188C466.059 127.057 470.913 124.587 474.91 121.02C478.895 116.735 481.825 111.577 483.466 105.959C485.108 100.341 485.416 94.4163 484.366 88.6578C508.613 111.753 526.992 134.994 537.224 158.381C537.203 144.114 534.168 130.012 528.318 117.001C522.468 103.99 513.935 92.3633 503.278 82.8839C484.522 65.976 460.587 55.9351 435.387 54.4028C389.318 51.4916 361.483 79.8271 354.743 91.9571C348.147 79.8756 320.263 51.2976 274 54.2088C248.8 55.7411 224.865 65.782 206.109 82.6899C195.449 92.1674 186.915 103.794 181.065 116.805C175.215 129.817 172.18 143.919 172.163 158.187C183.074 134.169 201.648 111.074 225.119 88.6578Z" fill="#E25A6B"/>
<path d="M341.407 130.142C337.333 131.321 333.573 133.393 330.399 136.207C327.07 139.226 324.438 142.935 322.688 147.075C320.912 151.239 320.103 155.751 320.322 160.272C320.54 164.794 321.78 169.207 323.949 173.179C328.507 182.107 335.927 189.094 340.873 197.779C346.301 208.128 347.734 220.113 344.899 231.451C344.169 235.323 343.048 239.111 341.553 242.757C340.244 245.765 338.788 248.676 337.333 251.636C333.411 259.271 330.056 267.185 327.295 275.314C324.211 284.22 323.022 293.673 323.803 303.067C324.058 305.291 324.463 307.496 325.016 309.665C325.375 311.748 326.097 313.752 327.149 315.585C327.925 316.442 328.751 317.252 329.622 318.011C337.284 325.677 344.995 333.198 352.754 340.718C352.939 340.952 353.151 341.164 353.385 341.349C354.306 342.319 356.682 340.767 355.616 339.699C348.826 332.858 342.232 325.871 335.443 319.03L331.029 314.566C329.834 313.179 329.016 311.508 328.653 309.714C326.253 300.651 326.253 291.12 328.653 282.058C330.877 273.491 333.914 265.156 337.722 257.167C340.243 251.539 343.346 246.056 345.383 240.185C349.072 230.034 350.026 219.09 348.147 208.453C345.545 199.091 340.871 190.435 334.472 183.126C328.022 174.586 321.96 165.319 323.609 154.014C324.371 148.955 326.416 144.176 329.549 140.133C332.682 136.09 336.798 132.918 341.504 130.919C341.989 130.919 341.892 130.045 341.504 130.191L341.407 130.142Z" fill="black"/>
<path d="M343.394 94.0434C336.508 79.9241 319.584 73.7623 304.842 73.0345C299.431 72.7179 294.002 73.1093 288.693 74.199C279.479 76.0427 269.296 80.2152 266.435 90.0647C265.648 92.4854 265.61 95.0879 266.329 97.5299C267.047 99.9719 268.487 102.139 270.459 103.747C272.593 105.262 275.087 106.189 277.691 106.435C280.295 106.682 282.919 106.241 285.299 105.155L284.184 104.572C283.387 107.67 282.004 110.585 280.11 113.16C278.47 115.823 276.443 118.227 274.096 120.293C269.524 124.381 263.726 126.838 257.609 127.28C251.235 127.603 244.922 125.905 239.57 122.428C234.544 119.068 230.748 114.163 228.756 108.454C226.46 102.057 225.664 95.2176 226.428 88.4638C226.428 86.8627 224.1 87.2993 223.809 88.4638C222.241 94.9407 222.533 101.729 224.652 108.047C226.771 114.365 230.631 119.955 235.787 124.174C241.495 128.21 248.35 130.299 255.337 130.133C262.324 129.967 269.072 127.554 274.582 123.252C277.428 120.925 279.884 118.156 281.856 115.053C283.66 111.689 284.952 108.075 285.687 104.33C285.687 103.602 285.008 103.602 284.572 103.747C282.447 104.475 280.153 104.559 277.981 103.988C275.809 103.416 273.854 102.215 272.362 100.535C270.87 98.8557 269.907 96.7723 269.594 94.5469C269.281 92.3214 269.633 90.0531 270.605 88.027C274.194 80.3609 283.116 77.935 290.778 76.625C301.394 74.7458 312.324 75.8543 322.347 79.8271C329.751 83.2836 336.356 88.2401 341.745 94.3831C342.181 94.7712 343.297 94.3833 343.006 93.6555L343.394 94.0434Z" fill="black"/>
<path d="M355.615 91.6662C349.946 82.0496 342.024 73.9569 332.532 68.0856C317.549 58.3008 300.087 52.9984 282.196 52.8018C265.894 52.6303 249.742 55.9385 234.818 62.5057C217.51 70.1112 202.471 82.0818 191.174 97.2461C179.593 112.583 172.718 130.957 171.388 150.132C171.388 152.947 171.388 155.761 171.388 158.575C171.388 159.594 173.181 159.06 173.23 158.187C173.398 147.559 175.198 137.021 178.565 126.94C181.508 118.48 185.569 110.451 190.64 103.068C200.641 88.1737 214.233 76.0418 230.161 67.7945C259.937 52.7048 296.646 50.8611 326.082 67.7945C332.563 71.4852 338.572 75.9493 343.977 81.0889C347.743 84.5116 351.008 88.4479 353.676 92.782C354.258 93.8009 356.343 92.7823 355.809 91.8119L355.615 91.6662Z" fill="black"/>
<path d="M39.8237 340.67C44.0917 335.163 49.6421 330.785 55.9903 327.918C62.3384 325.051 69.2915 323.782 76.2425 324.222C82.1424 324.56 87.8949 326.202 93.0851 329.029C98.2753 331.856 102.775 335.799 106.261 340.573V340.088C102.775 344.862 98.2753 348.805 93.0851 351.632C87.8949 354.459 82.1424 356.101 76.2425 356.439C69.2915 356.879 62.3384 355.61 55.9903 352.743C49.6421 349.876 44.0917 345.498 39.8237 339.991V340.67Z" fill="#FFDCB6"/>
<path d="M105.824 340.039C99.1251 348.056 89.7565 353.381 79.4437 355.032C70.5025 356.132 61.4394 354.438 53.4991 350.18C48.7667 347.274 44.4173 343.785 40.5517 339.797C40.0182 339.312 38.7086 339.797 39.0481 340.67C41.3923 345.312 45.1202 349.11 49.7165 351.538C54.0571 354.177 58.8123 356.063 63.7803 357.118C73.8778 359.38 84.4514 357.915 93.555 352.994C99.0014 350.055 103.583 345.739 106.842 340.476C107.23 339.845 106.163 339.748 105.824 340.136V340.039Z" fill="black"/>
<path d="M106.842 340.67C95.9313 321.65 69.6484 318.981 51.7057 328.928C46.3815 331.499 41.9784 335.65 39.0968 340.815C38.6604 341.786 39.9699 341.785 40.5034 341.3C43.818 337.629 47.5631 334.371 51.6571 331.596C55.6054 329.309 59.8945 327.671 64.3619 326.744C73.63 324.604 83.3576 325.824 91.8101 330.189C97.0702 333 101.797 336.711 105.776 341.155C106.115 341.543 107.182 341.155 106.842 340.524V340.67Z" fill="black"/>
<path d="M102.769 469.975C108.525 471.026 114.445 470.717 120.06 469.075C125.676 467.432 130.831 464.501 135.114 460.514C138.679 456.514 141.146 451.659 142.277 446.42C143.407 441.182 143.162 435.74 141.564 430.625C139.815 425.522 136.789 420.952 132.773 417.35C128.758 413.749 123.887 411.237 118.625 410.053C119.31 411.656 119.663 413.38 119.663 415.123C119.663 416.866 119.31 418.591 118.625 420.194C117.931 421.801 116.894 423.237 115.587 424.402C114.281 425.567 112.737 426.432 111.061 426.938C108.256 427.508 105.347 427.273 102.67 426.26C99.9925 425.247 97.6566 423.497 95.9307 421.213C92.6182 416.603 90.4715 411.259 89.6749 405.638C87.6381 395.449 85.9899 367.841 108.442 352.266L105.435 354.11C106.79 352.84 108.439 351.927 110.234 351.453C112.028 350.979 113.912 350.958 115.717 351.393C119.303 352.332 122.769 353.683 126.045 355.42C129.339 357.144 133.06 357.885 136.763 357.555C139.193 357.159 141.436 356.009 143.177 354.268C144.917 352.527 146.067 350.281 146.462 347.851L144.667 353.77C147.114 360.478 151.887 366.083 158.118 369.565C164.348 373.047 171.621 374.174 178.613 372.741C192.676 369.442 202.278 356.293 215.565 350.665C227.738 346.346 241.023 346.346 253.195 350.665C265.416 354.352 299.944 378.661 328.603 366.482L354.548 340.524L328.603 314.566C299.944 302.436 265.561 326.696 253.195 330.384C241.023 334.702 227.738 334.702 215.565 330.384C202.278 324.755 192.676 311.607 178.613 308.307C171.621 306.874 164.348 308.002 158.118 311.484C151.887 314.966 147.114 320.571 144.667 327.278L146.462 333.198C146.067 330.767 144.917 328.522 143.177 326.78C141.436 325.039 139.193 323.889 136.763 323.494C133.062 323.187 129.347 323.927 126.045 325.629C122.769 327.366 119.303 328.717 115.717 329.656C113.913 330.104 112.025 330.09 110.228 329.615C108.431 329.14 106.783 328.22 105.435 326.939L108.442 328.782C85.9899 313.256 87.6381 285.648 89.6749 275.411C90.4715 269.789 92.6182 264.445 95.9307 259.836C97.6566 257.551 99.9925 255.802 102.67 254.788C105.347 253.775 108.256 253.54 111.061 254.11C112.737 254.616 114.281 255.482 115.587 256.646C116.894 257.811 117.931 259.247 118.625 260.855C119.308 262.466 119.661 264.199 119.661 265.949C119.661 267.7 119.308 269.432 118.625 271.044C123.886 269.843 128.755 267.319 132.769 263.71C136.782 260.102 139.81 255.529 141.564 250.423C143.162 245.308 143.407 239.866 142.277 234.628C141.146 229.39 138.679 224.534 135.114 220.535C130.853 216.505 125.709 213.528 120.092 211.843C114.476 210.158 108.543 209.812 102.769 210.831C125.852 186.571 149.08 168.182 172.454 157.944C158.195 157.965 144.101 161.001 131.097 166.854C118.093 172.708 106.472 181.246 96.9974 191.908C80.0986 210.675 70.0637 234.623 68.5323 259.836C65.6226 305.93 93.9429 333.78 106.066 340.524C93.9914 347.123 65.4285 375.022 68.3381 421.31C69.8696 446.523 79.9045 470.471 96.8033 489.237C106.284 499.893 117.906 508.426 130.909 514.279C143.911 520.131 158.002 523.172 172.26 523.201C148.304 512.042 125.173 493.556 102.769 469.975Z" fill="#E25A6B"/>
<path d="M144.182 353.77C145.294 358.044 147.443 361.977 150.438 365.22C153.516 368.419 157.257 370.903 161.398 372.498C165.646 374.095 170.192 374.74 174.717 374.388C179.241 374.036 183.634 372.695 187.585 370.461C196.411 365.609 203.441 358.331 212.17 353.479C222.697 348.246 234.78 347.072 246.116 350.179C249.723 350.933 253.248 352.038 256.64 353.479C259.743 354.837 262.701 356.341 265.708 357.845C273.392 361.706 281.369 364.951 289.566 367.549C298.488 370.538 307.944 371.596 317.306 370.655C319.585 370.359 321.838 369.888 324.046 369.248C326.089 368.859 328.034 368.067 329.768 366.919C330.64 366.191 331.416 365.269 332.241 364.493C339.806 356.875 347.323 349.16 354.888 341.494L355.469 340.863C356.779 339.553 354.452 338.777 353.433 339.796C346.547 346.637 339.564 353.333 332.678 360.126L328.217 364.59C327.95 364.905 327.658 365.197 327.343 365.463C327.003 365.706 327.343 365.463 327.343 365.463C326.116 365.993 324.852 366.431 323.56 366.773C314.52 369.039 305.047 368.922 296.065 366.433C287.524 364.17 279.212 361.116 271.237 357.312C265.758 354.474 260.124 351.947 254.361 349.743C244.152 346.103 233.172 345.183 222.5 347.074C213.075 349.728 204.361 354.452 196.992 360.902C188.506 367.355 179.341 373.42 168.139 371.528C163.087 370.63 158.331 368.507 154.289 365.343C150.248 362.179 147.045 358.072 144.959 353.382C144.959 352.896 143.94 353.382 144.085 353.77H144.182Z" fill="black"/>
<path d="M108.201 351.83C94.2346 359.35 87.6884 375.459 86.8155 390.646C86.4823 396.041 86.8572 401.456 87.9307 406.754C89.7735 415.924 93.8472 426.162 103.885 428.491C106.373 429.216 109.018 429.197 111.496 428.438C113.973 427.678 116.174 426.21 117.828 424.215C119.483 422.219 120.518 419.783 120.806 417.207C121.094 414.631 120.624 412.026 119.452 409.714L118.239 410.781C121.228 411.551 124.043 412.885 126.532 414.711C129.141 416.364 131.508 418.373 133.563 420.679C137.688 425.274 140.281 431.04 140.983 437.176C141.587 443.529 140.178 449.911 136.957 455.42C133.863 460.585 129.086 464.525 123.428 466.579C117.039 469.035 110.137 469.852 103.351 468.957C102.139 468.957 100.393 470.655 102.139 471.091C108.577 472.558 115.298 472.188 121.537 470.024C127.94 468.26 133.647 464.567 137.879 459.447C140.686 456.013 142.722 452.016 143.85 447.726C144.978 443.437 145.171 438.955 144.417 434.584C143.663 430.213 141.979 426.055 139.479 422.392C136.979 418.729 133.721 415.646 129.926 413.353C126.464 411.473 122.735 410.131 118.869 409.374C118.287 409.374 117.463 409.811 117.657 410.442C118.508 412.765 118.611 415.297 117.95 417.681C117.289 420.066 115.897 422.183 113.971 423.736C112.342 424.966 110.383 425.683 108.345 425.795C106.307 425.908 104.282 425.41 102.527 424.367C95.0594 420.485 92.4888 411.509 91.1794 403.794C89.2027 393.036 90.2958 381.937 94.3322 371.771C97.6393 364.359 102.619 357.816 108.88 352.654C109.414 352.121 108.88 351.587 108.104 351.878L108.201 351.83Z" fill="black"/>
<path d="M105.873 339.699C96.2418 345.401 88.1252 353.339 82.2087 362.843C72.4244 377.633 67.0263 394.893 66.6412 412.624C66.3903 429.006 69.6996 445.246 76.3399 460.222C83.9202 477.552 95.8888 492.604 111.062 503.89C126.435 515.414 144.806 522.254 163.968 523.589C166.781 523.589 169.642 523.832 172.503 523.589C173.473 523.589 174.152 522.085 172.892 522.085C162.354 521.909 151.904 520.125 141.904 516.796C133.482 513.878 125.503 509.813 118.191 504.715C103.292 494.713 91.1376 481.134 82.8385 465.22C67.6115 435.623 65.284 398.65 81.8203 369.053C85.4442 362.508 89.8755 356.444 95.0105 351.004C98.4527 347.201 102.44 343.931 106.843 341.3C108.104 340.572 107.425 338.971 106.116 339.699H105.873Z" fill="black"/>
<path d="M145.735 347.656C145.284 349.552 144.37 351.307 143.076 352.764C141.781 354.22 140.145 355.332 138.315 356.001C133.65 356.747 128.874 355.764 124.882 353.236C118.723 350.47 110.092 347.656 104.952 353.915C104.418 354.643 105.437 354.837 105.921 354.449C107.825 353.144 110.056 352.397 112.361 352.295C114.666 352.192 116.954 352.736 118.966 353.866C123.072 355.996 127.42 357.625 131.915 358.718C133.674 359.074 135.489 359.053 137.24 358.658C138.991 358.263 140.64 357.502 142.077 356.426C143.515 355.35 144.708 353.982 145.581 352.412C146.453 350.842 146.985 349.106 147.141 347.316C147.141 346.589 145.88 346.928 145.735 347.316V347.656Z" fill="black"/>
<path d="M145.105 327.473C146.926 323.166 149.722 319.343 153.274 316.303C156.825 313.263 161.035 311.091 165.569 309.957C170.064 309.071 174.699 309.181 179.147 310.279C183.596 311.377 187.751 313.436 191.319 316.313C199.321 321.796 206.545 328.734 215.808 332.179C226.2 335.587 237.366 335.857 247.911 332.955C254.393 331.208 260.669 328.768 266.629 325.677C274.083 322.002 281.779 318.841 289.663 316.216C298.263 313.207 307.412 312.097 316.481 312.965C318.681 313.21 320.856 313.648 322.979 314.275C324.458 314.576 325.891 315.065 327.246 315.731C328.348 316.663 329.37 317.685 330.302 318.787C337.915 326.357 345.771 333.732 353.385 341.349C354.306 342.32 356.682 340.767 355.615 339.7C348.632 332.713 341.843 325.483 334.86 318.496L330.642 314.275C328.788 312.798 326.581 311.828 324.24 311.461C315.088 309.156 305.508 309.156 296.356 311.461C287.64 313.626 279.185 316.734 271.14 320.728C265.397 323.824 259.469 326.562 253.39 328.928C242.385 332.965 230.387 333.424 219.106 330.238C209.407 326.89 201.891 319.37 193.501 313.693C189.848 310.85 185.657 308.774 181.182 307.59C176.708 306.406 172.04 306.139 167.46 306.803C163.127 307.597 159.013 309.305 155.392 311.815C151.771 314.325 148.727 317.579 146.463 321.359C145.467 323.239 144.685 325.224 144.134 327.278C144.134 327.861 144.911 327.667 145.105 327.278V327.473Z" fill="black"/>
<path d="M109.024 328.345C103.519 323.492 98.9511 317.671 95.5441 311.169C92.8267 305.367 91.1836 299.12 90.6947 292.732C90.2531 287.881 90.3825 282.996 91.0818 278.176C92.1487 271.043 94.0891 262.504 100.199 257.992C102.02 256.489 104.276 255.611 106.634 255.489C108.991 255.367 111.326 256.006 113.292 257.312C115.472 258.801 117.097 260.97 117.913 263.481C118.729 265.992 118.69 268.703 117.802 271.189C117.802 271.723 118.287 271.965 118.674 271.868C122.022 271.163 125.277 270.072 128.373 268.618C131.276 266.973 133.923 264.914 136.23 262.504C141.066 257.533 144.075 251.067 144.765 244.163C145.451 237.051 143.745 229.913 139.915 223.882C136.231 218.331 130.832 214.139 124.543 211.946C117.578 209.177 109.946 208.552 102.624 210.151C101.072 210.539 100.975 212.528 102.624 212.286C113.923 210.782 127.549 214.081 134.726 223.397C138.602 228.451 140.752 234.617 140.857 240.986C140.961 247.356 139.016 253.59 135.309 258.768C133.235 261.499 130.748 263.889 127.938 265.852C125.093 268.151 121.784 269.806 118.239 270.704L119.063 271.577C120.07 269.443 120.543 267.095 120.442 264.737C120.341 262.378 119.668 260.08 118.481 258.04C117.229 256.195 115.509 254.716 113.498 253.753C111.488 252.79 109.258 252.378 107.036 252.557C96.8528 253.285 90.9362 262.261 88.5115 271.383C85.0557 283.787 85.6163 296.968 90.1122 309.034C93.2588 317.805 99.503 325.122 107.667 329.607C108.104 329.849 109.219 329.219 108.686 328.733L109.024 328.345Z" fill="black"/>
<path d="M106.842 339.651C97.6589 333.724 89.9874 325.732 84.439 316.313C75.2127 301.79 70.178 284.999 69.8908 267.793C69.7549 252.13 72.8928 236.611 79.1042 222.233C86.4182 205.381 97.9403 190.694 112.564 179.584C129.532 166.24 150.485 158.979 172.066 158.963C173.036 158.963 173.715 157.41 172.455 157.41C152.55 157.103 133.008 162.764 116.347 173.665C100.907 183.758 88.2508 197.573 79.541 213.839C72.0935 228.111 67.6839 243.773 66.5924 259.836C65.3097 278.319 69.4212 296.776 78.4258 312.965C84.2712 323.729 92.58 332.957 102.673 339.894C103.449 340.379 104.224 340.864 105.049 341.301C105.873 341.737 107.715 340.33 106.551 339.651H106.842Z" fill="black"/>
<path d="M147.141 333.246C147.025 331.423 146.501 329.65 145.608 328.057C144.714 326.465 143.475 325.093 141.98 324.045C140.485 322.996 138.773 322.298 136.972 322.001C135.171 321.704 133.327 321.816 131.575 322.329C123.767 324.076 113.68 333.101 105.97 326.502C105.533 326.114 104.467 326.502 104.903 327.23C109.753 333.731 118.917 330.238 124.979 327.23C128.879 324.838 133.544 324.022 138.024 324.949C139.872 325.64 141.533 326.755 142.872 328.204C144.211 329.653 145.191 331.397 145.734 333.295C145.734 334.071 147.189 333.683 147.141 333.003V333.246Z" fill="black"/>
<path d="M483.881 592.39C484.931 586.632 484.623 580.708 482.981 575.089C481.34 569.471 478.41 564.313 474.425 560.028C470.428 556.461 465.575 553.991 460.34 552.86C455.105 551.729 449.665 551.975 444.553 553.574C439.451 555.33 434.879 558.359 431.272 562.375C427.666 566.391 425.144 571.261 423.944 576.524C425.554 575.841 427.285 575.489 429.035 575.489C430.784 575.489 432.516 575.841 434.127 576.524C435.733 577.219 437.169 578.257 438.333 579.564C439.497 580.871 440.362 582.417 440.868 584.093C441.438 586.9 441.202 589.81 440.189 592.489C439.177 595.167 437.428 597.505 435.145 599.231C430.538 602.546 425.197 604.694 419.578 605.491C409.395 607.529 381.802 609.178 366.235 586.714L368.079 589.722C366.799 588.374 365.878 586.725 365.403 584.927C364.928 583.129 364.915 581.24 365.363 579.436C366.301 575.847 367.652 572.379 369.388 569.101C371.089 565.797 371.828 562.082 371.522 558.378C371.113 555.912 369.927 553.642 368.139 551.897C366.351 550.151 364.054 549.022 361.58 548.674L367.496 550.469C374.2 548.021 379.803 543.245 383.283 537.011C386.763 530.777 387.89 523.5 386.458 516.505C383.161 502.435 370.018 492.828 364.393 479.485C360.077 467.322 360.077 454.044 364.393 441.882C368.079 429.655 392.326 395.109 380.202 366.434L354.258 340.476L328.314 366.434C316.142 395.109 340.436 429.509 344.122 441.882C348.438 454.044 348.438 467.322 344.122 479.485C338.497 492.828 325.356 502.435 322.01 516.505C320.601 523.505 321.743 530.778 325.23 537.008C328.717 543.238 334.318 548.013 341.019 550.469L346.935 548.674C344.461 549.022 342.164 550.151 340.376 551.897C338.588 553.642 337.403 555.912 336.994 558.378C336.663 562.083 337.405 565.805 339.128 569.101C340.864 572.379 342.214 575.847 343.152 579.436C343.587 581.241 343.566 583.126 343.092 584.922C342.618 586.717 341.707 588.367 340.438 589.722L342.28 586.714C326.762 609.178 299.169 607.529 288.937 605.491C283.319 604.694 277.978 602.546 273.37 599.231C271.087 597.505 269.338 595.167 268.326 592.489C267.313 589.81 267.079 586.9 267.649 584.093C268.154 582.417 269.019 580.871 270.183 579.564C271.348 578.257 272.782 577.219 274.389 576.524C275.99 575.84 277.714 575.487 279.456 575.487C281.198 575.487 282.922 575.84 284.524 576.524C283.341 571.26 280.831 566.387 277.231 562.37C273.632 558.352 269.064 555.324 263.963 553.574C258.851 551.975 253.412 551.729 248.176 552.86C242.941 553.991 238.087 556.461 234.09 560.028C230.105 564.313 227.175 569.471 225.534 575.089C223.892 580.708 223.584 586.632 224.634 592.39C200.387 569.295 182.009 546.054 171.776 522.667C171.794 536.935 174.827 551.037 180.677 564.049C186.528 577.06 195.063 588.687 205.722 598.164C224.478 615.072 248.413 625.113 273.613 626.645C319.682 629.556 347.517 601.221 354.258 589.091C360.853 601.172 388.737 629.75 435 626.839C460.2 625.307 484.135 615.266 502.892 598.358C513.548 588.879 522.081 577.252 527.932 564.241C533.782 551.23 536.817 537.128 536.837 522.861C525.926 546.879 507.449 569.974 483.881 592.39Z" fill="#E25A6B"/>
<path d="M341.746 550.178C337.52 548.355 333.769 545.588 330.778 542.088C327.788 538.588 325.639 534.449 324.496 529.989C323.354 525.529 323.248 520.866 324.187 516.358C325.127 511.851 327.085 507.618 329.914 503.987C335.248 495.932 342.183 488.848 345.917 479.727C349.721 469.38 350.23 458.109 347.372 447.461C345.712 440.899 343.304 434.55 340.195 428.538C336.44 420.97 333.2 413.157 330.497 405.152C327.45 396.506 326.276 387.31 327.054 378.175C327.289 375.979 327.694 373.806 328.266 371.673C328.561 369.993 329.082 368.361 329.817 366.821C330.671 365.773 331.63 364.813 332.679 363.959C340.292 356.292 347.76 348.481 355.373 340.815C356.683 339.505 354.355 338.728 353.337 339.747C346.354 346.734 339.176 353.575 332.145 360.562L327.878 364.832C326.422 366.644 325.454 368.799 325.065 371.091C322.737 380.146 322.737 389.644 325.065 398.699C327.196 407.408 330.287 415.853 334.279 423.881C337.389 429.625 340.142 435.556 342.523 441.639C346.522 452.527 347.097 464.378 344.171 475.603C341.164 485.307 333.794 492.973 327.975 501.27C325.037 504.879 322.846 509.037 321.531 513.502C320.215 517.967 319.801 522.65 320.312 527.276C321.059 531.641 322.748 535.79 325.26 539.435C327.773 543.08 331.049 546.133 334.861 548.382C336.835 549.403 338.917 550.201 341.068 550.76C341.407 550.76 342.087 550.226 341.553 550.032L341.746 550.178Z" fill="black"/>
<path d="M342.28 586.423C337.525 592.158 331.65 596.863 325.016 600.251C319.338 602.925 313.23 604.568 306.977 605.103C302.271 605.492 297.537 605.345 292.865 604.666C285.591 603.55 277.298 601.512 272.643 595.35C271.109 593.531 270.145 591.301 269.869 588.937C269.593 586.573 270.018 584.18 271.092 582.056C272.416 579.759 274.515 578.01 277.012 577.121C279.509 576.232 282.24 576.261 284.717 577.204C285.348 577.204 286.124 576.768 285.93 576.137C285.297 572.768 284.204 569.503 282.681 566.433C281.008 563.552 278.898 560.949 276.425 558.718C271.329 554.124 264.842 551.374 257.999 550.906C250.824 550.425 243.683 552.261 237.63 556.146C232.123 559.834 227.942 565.19 225.701 571.43C222.832 578.325 222.221 585.952 223.956 593.216C224.247 594.429 226.719 593.216 226.574 592.342C225.216 581.134 227.932 567.209 237.292 559.98C242.326 556.108 248.496 554.009 254.846 554.009C261.195 554.009 267.367 556.108 272.401 559.98C275.148 562.107 277.552 564.643 279.529 567.5C281.762 570.298 283.411 573.515 284.379 576.962L285.785 576.137C283.751 575.154 281.506 574.686 279.249 574.775C276.992 574.864 274.792 575.508 272.841 576.649C270.891 577.79 269.251 579.393 268.067 581.318C266.882 583.242 266.189 585.428 266.048 587.684C266.048 598.213 276.086 604.133 284.96 606.413C297.419 609.646 310.568 608.985 322.64 604.521C331.454 601.383 338.863 595.208 343.541 587.102C343.929 586.326 342.765 586.277 342.377 586.666L342.28 586.423Z" fill="black"/>
<path d="M353.433 588.849C347.511 598.052 339.524 605.744 330.107 611.314C315.474 620.508 298.552 625.401 281.273 625.433C265.681 625.388 250.27 622.083 236.03 615.729C219.294 608.183 204.756 596.494 193.791 581.765C180.576 564.759 173.332 543.869 173.181 522.328C173.181 521.309 171.339 521.843 171.339 522.716C170.904 542.738 176.608 562.414 187.681 579.096C197.867 594.468 211.781 607.005 228.124 615.535C242.416 622.834 258.075 627.065 274.096 627.956C292.598 629.075 311.03 624.847 327.197 615.777C337.925 609.905 347.127 601.595 354.062 591.517C354.547 590.741 355.033 589.965 355.469 589.14C355.905 588.315 354.015 587.733 353.433 588.703V588.849Z" fill="black"/>
</g>
<defs>
<clipPath id="clip0_1463_83451">
<rect width="329" height="690" fill="white"/>
</clipPath>
</defs>
</svg>
