<svg width="262" height="262" viewBox="0 0 262 262" fill="none" xmlns="http://www.w3.org/2000/svg">
<g opacity="0.78" clip-path="url(#clip0_1234_60551)">
<path d="M138.708 107.911C139.603 108.805 136.884 112.969 132.652 117.236C128.419 121.503 124.221 124.118 123.326 123.292C122.432 122.466 125.116 118.199 129.383 113.967C133.65 109.734 137.813 107.016 138.708 107.911Z" fill="#B2001A"/>
<path d="M123.326 107.911C124.221 107.016 128.385 109.7 132.652 113.967C136.919 118.234 139.534 122.398 138.708 123.292C137.882 124.187 133.615 121.468 129.383 117.236C125.15 113.004 122.397 108.805 123.326 107.911Z" fill="#B2001A"/>
<path d="M138.708 123.292C139.603 124.187 136.884 128.385 132.652 132.617C128.419 136.85 124.221 139.499 123.326 138.674C122.432 137.848 125.116 133.615 129.383 129.348C133.65 125.081 137.813 122.397 138.708 123.292Z" fill="#B2001A"/>
<path d="M138.694 138.691C139.594 137.79 136.881 133.618 132.635 129.372C128.389 125.125 124.216 122.413 123.316 123.313C122.416 124.213 125.128 128.386 129.375 132.632C133.621 136.879 137.793 139.591 138.694 138.691Z" fill="#B2001A"/>
<path d="M138.708 138.674C139.603 139.568 136.884 143.766 132.652 147.999C128.419 152.231 124.221 154.881 123.326 154.089C122.432 153.298 125.116 148.997 129.383 144.73C133.65 140.463 137.813 137.779 138.708 138.674Z" fill="#B2001A"/>
<path d="M123.326 138.674C124.221 137.779 128.385 140.497 132.652 144.73C136.919 148.962 139.534 153.16 138.708 154.089C137.882 155.018 133.615 152.266 129.383 147.999C125.15 143.732 122.397 139.568 123.326 138.674Z" fill="#B2001A"/>
<path d="M154.089 138.673C153.194 139.568 149.031 136.884 144.764 132.617C140.497 128.35 137.882 124.187 138.708 123.292C139.534 122.397 143.8 125.116 148.033 129.348C152.265 133.581 154.984 137.779 154.089 138.673Z" fill="#B2001A"/>
<path d="M154.089 123.292C154.984 124.187 152.3 128.385 148.033 132.617C143.766 136.85 139.603 139.499 138.708 138.674C137.813 137.848 140.532 133.615 144.764 129.348C148.997 125.081 153.16 122.397 154.089 123.292Z" fill="#B2001A"/>
<path d="M123.326 138.673C122.397 139.568 118.234 136.884 114.001 132.617C109.769 128.35 107.119 124.187 107.911 123.292C108.702 122.397 113.004 125.116 117.236 129.348C121.469 133.581 124.221 137.779 123.326 138.673Z" fill="#B2001A"/>
<path d="M123.326 123.292C124.221 124.187 121.503 128.385 117.236 132.617C112.969 136.85 108.84 139.499 107.91 138.674C106.981 137.848 109.734 133.615 114.001 129.348C118.268 125.081 122.397 122.397 123.326 123.292Z" fill="#B2001A"/>
<path d="M92.5292 200.234C93.4239 201.163 90.7054 205.326 86.473 209.559C82.2405 213.791 78.0426 216.441 77.1479 215.649C76.2532 214.858 78.9717 210.557 83.2042 206.324C87.4366 202.092 91.6345 199.339 92.5292 200.234Z" fill="#B2001A"/>
<path d="M77.1482 200.234C78.0429 199.339 82.2064 202.057 86.4732 206.324C90.7401 210.591 93.3553 214.72 92.5295 215.649C91.7036 216.578 87.4713 213.826 83.2044 209.559C78.9376 205.292 76.2535 201.3 77.1482 200.234Z" fill="#B2001A"/>
<path d="M107.911 200.234C108.84 201.163 106.121 205.326 101.854 209.559C97.5874 213.791 93.4239 216.441 92.5293 215.649C91.6346 214.858 94.353 210.557 98.5855 206.324C102.818 202.092 107.016 199.339 107.911 200.234Z" fill="#B2001A"/>
<path d="M92.5293 200.234C93.424 199.339 97.6219 202.057 101.854 206.324C106.087 210.591 108.736 214.72 107.911 215.649C107.085 216.578 102.852 213.826 98.5855 209.559C94.3187 205.292 91.6346 201.3 92.5293 200.234Z" fill="#B2001A"/>
<path d="M92.5292 215.649C93.4239 216.544 90.7054 220.708 86.473 224.974C82.2405 229.241 78.0426 231.857 77.1479 231.031C76.2532 230.205 78.9717 225.938 83.2042 221.705C87.4366 217.473 91.6345 214.72 92.5292 215.649Z" fill="#B2001A"/>
<path d="M92.4885 231.017C93.3888 230.117 90.6764 225.944 86.4299 221.698C82.1835 217.451 78.0112 214.739 77.1108 215.639C76.2105 216.54 78.9228 220.712 83.1693 224.959C87.4157 229.205 91.5881 231.917 92.4885 231.017Z" fill="#B2001A"/>
<path d="M86.4569 240.367C90.7034 236.12 93.416 231.948 92.5156 231.048C91.6153 230.147 87.4429 232.86 83.1965 237.106C78.9501 241.353 76.2374 245.525 77.1378 246.426C78.0381 247.326 82.2105 244.613 86.4569 240.367Z" fill="#B2001A"/>
<path d="M77.1482 231.031C78.0429 230.136 82.2064 232.854 86.4732 237.087C90.7401 241.319 93.3553 245.517 92.5295 246.412C91.7036 247.307 87.4713 244.623 83.2044 240.356C78.9376 236.089 76.2535 231.925 77.1482 231.031Z" fill="#B2001A"/>
<path d="M107.911 215.649C108.84 216.544 106.121 220.708 101.854 224.974C97.5874 229.241 93.4239 231.857 92.5293 231.031C91.6346 230.205 94.353 225.938 98.5855 221.705C102.818 217.473 107.016 214.72 107.911 215.649Z" fill="#B2001A"/>
<path d="M92.5293 215.649C93.424 214.72 97.6219 217.439 101.854 221.706C106.087 225.972 108.736 230.136 107.911 231.031C107.085 231.925 102.852 229.207 98.5855 224.975C94.3187 220.742 91.6346 216.544 92.5293 215.649Z" fill="#B2001A"/>
<path d="M117.22 209.579C121.466 205.333 124.179 201.16 123.278 200.26C122.378 199.36 118.206 202.072 113.959 206.319C109.713 210.565 107 214.737 107.901 215.638C108.801 216.538 112.973 213.826 117.22 209.579Z" fill="#B2001A"/>
<path d="M123.278 215.638C124.179 214.738 121.466 210.565 117.22 206.319C112.973 202.072 108.801 199.36 107.901 200.26C107 201.161 109.713 205.333 113.959 209.579C118.206 213.825 122.378 216.538 123.278 215.638Z" fill="#B2001A"/>
<path d="M107.911 184.852C108.84 185.747 106.121 189.945 101.854 194.177C97.5874 198.41 93.4239 201.059 92.5293 200.233C91.6346 199.408 94.353 195.175 98.5855 190.908C102.818 186.641 107.016 184.095 107.911 184.852Z" fill="#B2001A"/>
<path d="M107.926 200.256C108.826 199.356 106.114 195.184 101.867 190.937C97.6211 186.691 93.4487 183.978 92.5483 184.879C91.648 185.779 94.3604 189.952 98.6068 194.198C102.853 198.444 107.026 201.157 107.926 200.256Z" fill="#B2001A"/>
<path d="M123.326 184.852C124.221 185.747 121.503 189.945 117.236 194.177C112.969 198.41 108.84 201.059 107.91 200.233C106.981 199.408 109.734 195.175 114.001 190.908C118.268 186.641 122.397 184.095 123.326 184.852Z" fill="#B2001A"/>
<path d="M107.911 184.852C108.84 183.957 113.004 186.676 117.236 190.908C121.468 195.141 124.118 199.339 123.326 200.234C122.535 201.128 118.234 198.444 114.001 194.177C109.769 189.91 107.016 185.747 107.911 184.852Z" fill="#B2001A"/>
<path d="M123.326 169.471C124.221 170.365 121.503 174.529 117.236 178.796C112.969 183.063 108.84 185.678 107.91 184.852C106.981 184.026 109.734 179.794 114.001 175.527C118.268 171.26 122.397 168.576 123.326 169.471Z" fill="#B2001A"/>
<path d="M107.911 169.471C108.84 168.576 113.004 171.294 117.236 175.527C121.468 179.759 124.118 183.957 123.326 184.852C122.535 185.747 118.234 183.028 114.001 178.796C109.769 174.563 107.016 170.331 107.911 169.471Z" fill="#B2001A"/>
<path d="M92.5292 246.412C93.4239 247.307 90.7054 251.505 86.473 255.737C82.2405 259.97 78.0426 262.619 77.1479 261.794C76.2532 260.968 78.9717 256.735 83.2042 252.468C87.4366 248.201 91.6345 245.517 92.5292 246.412Z" fill="#B2001A"/>
<path d="M107.911 231.031C108.84 231.925 106.121 236.089 101.854 240.356C97.5874 244.623 93.4239 247.238 92.5293 246.412C91.6346 245.586 94.353 241.354 98.5855 237.087C102.818 232.82 107.016 230.136 107.911 231.031Z" fill="#B2001A"/>
<path d="M123.326 215.649C124.221 216.544 121.503 220.708 117.236 224.974C112.969 229.241 108.84 231.857 107.91 231.031C106.981 230.205 109.734 225.938 114.001 221.705C118.268 217.473 122.397 214.72 123.326 215.649Z" fill="#B2001A"/>
<path d="M86.4589 194.19C90.7053 189.944 93.418 185.772 92.5176 184.871C91.6173 183.971 87.4449 186.683 83.1984 190.93C78.952 195.176 76.2394 199.349 77.1398 200.249C78.0401 201.149 82.2125 198.437 86.4589 194.19Z" fill="#B2001A"/>
<path d="M107.911 169.471C108.84 170.365 106.121 174.529 101.854 178.796C97.5874 183.063 93.4239 185.678 92.5293 184.852C91.6346 184.026 94.353 179.794 98.5855 175.527C102.818 171.26 107.016 168.576 107.911 169.471Z" fill="#B2001A"/>
<path d="M123.326 154.089C124.221 154.984 121.503 159.148 117.236 163.414C112.969 167.681 108.84 170.297 107.91 169.471C106.981 168.645 109.734 164.378 114.001 160.145C118.268 155.913 122.397 153.126 123.326 154.089Z" fill="#B2001A"/>
<path d="M123.326 200.234C124.6 200.234 125.632 203.675 125.632 207.941C125.632 212.208 124.6 215.649 123.326 215.649C122.053 215.649 121.021 212.208 121.021 207.941C121.021 203.675 122.191 200.234 123.326 200.234Z" fill="#B2001A"/>
<path d="M123.326 184.852C124.6 184.852 125.632 188.293 125.632 192.56C125.632 196.827 124.6 200.233 123.326 200.233C122.053 200.233 121.021 196.792 121.021 192.56C121.021 188.328 122.191 184.852 123.326 184.852Z" fill="#B2001A"/>
<path d="M123.326 169.471C124.6 169.471 125.632 172.912 125.632 177.144C125.632 181.377 124.6 184.852 123.326 184.852C122.053 184.852 121.021 181.411 121.021 177.144C121.021 172.877 122.191 169.471 123.326 169.471Z" fill="#B2001A"/>
<path d="M123.326 154.089C124.6 154.089 125.632 157.53 125.632 161.763C125.632 165.995 124.6 169.471 123.326 169.471C122.053 169.471 121.021 166.03 121.021 161.763C121.021 157.496 122.191 154.089 123.326 154.089Z" fill="#B2001A"/>
<path d="M77.1479 246.412C78.4211 246.412 79.4531 249.853 79.4531 254.12C79.4531 258.387 78.4211 261.794 77.1479 261.794C75.8747 261.794 74.8423 258.353 74.8423 254.12C74.8423 249.888 75.8747 246.412 77.1479 246.412Z" fill="#B2001A"/>
<path d="M77.1479 231.031C78.4211 231.031 79.4531 234.472 79.4531 238.739C79.4531 243.006 78.4211 246.412 77.1479 246.412C75.8747 246.412 74.8423 242.971 74.8423 238.739C74.8423 234.506 75.8747 231.031 77.1479 231.031Z" fill="#B2001A"/>
<path d="M77.1479 215.649C78.4211 215.649 79.4531 219.09 79.4531 223.323C79.4531 227.555 78.4211 231.031 77.1479 231.031C75.8747 231.031 74.8423 227.59 74.8423 223.323C74.8423 219.056 75.8747 215.649 77.1479 215.649Z" fill="#B2001A"/>
<path d="M77.1479 200.234C78.4211 200.234 79.4531 203.675 79.4531 207.941C79.4531 212.208 78.4211 215.649 77.1479 215.649C75.8747 215.649 74.8423 212.208 74.8423 207.941C74.8423 203.675 75.8747 200.234 77.1479 200.234Z" fill="#B2001A"/>
<path d="M169.471 200.234C170.4 199.339 174.563 202.057 178.83 206.324C183.097 210.591 185.712 214.72 184.886 215.649C184.06 216.578 179.794 213.826 175.561 209.559C171.329 205.292 168.576 201.3 169.471 200.234Z" fill="#B2001A"/>
<path d="M184.886 200.234C185.781 201.163 183.062 205.326 178.83 209.559C174.598 213.791 170.4 216.441 169.47 215.649C168.541 214.858 171.294 210.557 175.561 206.324C179.828 202.092 184.129 199.339 184.886 200.234Z" fill="#B2001A"/>
<path d="M169.455 215.64C170.355 214.74 167.643 210.567 163.396 206.321C159.15 202.074 154.977 199.362 154.077 200.262C153.177 201.163 155.889 205.335 160.136 209.582C164.382 213.828 168.554 216.54 169.455 215.64Z" fill="#B2001A"/>
<path d="M163.396 209.581C167.643 205.335 170.355 201.163 169.455 200.262C168.554 199.362 164.382 202.074 160.136 206.321C155.889 210.567 153.177 214.74 154.077 215.64C154.977 216.54 159.15 213.828 163.396 209.581Z" fill="#B2001A"/>
<path d="M184.841 231.021C185.742 230.121 183.029 225.949 178.783 221.702C174.536 217.456 170.364 214.743 169.464 215.644C168.563 216.544 171.276 220.716 175.523 224.963C179.769 229.209 183.941 231.922 184.841 231.021Z" fill="#B2001A"/>
<path d="M184.886 215.649C185.781 216.544 183.062 220.708 178.83 224.974C174.598 229.241 170.4 231.857 169.47 231.031C168.541 230.205 171.294 225.938 175.561 221.705C179.828 217.473 184.129 214.72 184.886 215.649Z" fill="#B2001A"/>
<path d="M169.471 231.031C170.4 230.136 174.563 232.854 178.83 237.087C183.097 241.319 185.712 245.517 184.886 246.412C184.06 247.307 179.794 244.623 175.561 240.356C171.329 236.089 168.576 231.925 169.471 231.031Z" fill="#B2001A"/>
<path d="M178.81 240.371C183.056 236.125 185.769 231.952 184.868 231.052C183.968 230.152 179.796 232.864 175.549 237.111C171.303 241.357 168.59 245.53 169.491 246.43C170.391 247.33 174.563 244.618 178.81 240.371Z" fill="#B2001A"/>
<path d="M154.09 215.649C154.984 214.72 159.182 217.439 163.415 221.706C167.647 225.972 170.297 230.136 169.471 231.031C168.645 231.925 164.413 229.207 160.146 224.975C155.879 220.742 153.16 216.544 154.09 215.649Z" fill="#B2001A"/>
<path d="M169.471 215.649C170.4 216.544 167.681 220.708 163.414 224.974C159.147 229.241 154.984 231.857 154.089 231.031C153.195 230.205 155.913 225.938 160.146 221.705C164.378 217.473 168.576 214.72 169.471 215.649Z" fill="#B2001A"/>
<path d="M138.708 200.234C139.603 199.339 143.801 202.057 148.033 206.324C152.266 210.591 154.915 214.72 154.09 215.649C153.264 216.578 149.031 213.826 144.764 209.559C140.498 205.292 137.814 201.3 138.708 200.234Z" fill="#B2001A"/>
<path d="M154.089 200.234C154.984 201.163 152.3 205.326 148.033 209.559C143.766 213.791 139.603 216.441 138.708 215.649C137.813 214.858 140.532 210.557 144.764 206.324C148.997 202.092 153.16 199.339 154.089 200.234Z" fill="#B2001A"/>
<path d="M154.09 184.852C154.984 183.957 159.182 186.676 163.415 190.908C167.647 195.141 170.297 199.339 169.471 200.234C168.645 201.128 164.413 198.444 160.146 194.177C155.879 189.91 153.16 185.747 154.09 184.852Z" fill="#B2001A"/>
<path d="M169.471 184.852C170.4 185.747 167.681 189.945 163.414 194.177C159.147 198.41 154.984 201.059 154.089 200.233C153.195 199.408 155.913 195.175 160.146 190.908C164.378 186.641 168.576 184.095 169.471 184.852Z" fill="#B2001A"/>
<path d="M154.102 200.259C155.003 199.358 152.29 195.186 148.044 190.94C143.797 186.693 139.625 183.981 138.725 184.881C137.824 185.781 140.537 189.954 144.783 194.2C149.03 198.446 153.202 201.159 154.102 200.259Z" fill="#B2001A"/>
<path d="M154.089 184.852C154.984 185.747 152.3 189.945 148.033 194.177C143.766 198.41 139.603 201.059 138.708 200.233C137.813 199.408 140.532 195.175 144.764 190.908C148.997 186.641 153.16 184.095 154.089 184.852Z" fill="#B2001A"/>
<path d="M138.708 169.471C139.603 168.576 143.801 171.294 148.033 175.527C152.266 179.759 154.915 183.957 154.09 184.852C153.264 185.747 149.031 183.028 144.764 178.796C140.498 174.563 137.814 170.331 138.708 169.471Z" fill="#B2001A"/>
<path d="M154.089 169.471C154.984 170.365 152.3 174.529 148.033 178.796C143.766 183.063 139.603 185.678 138.708 184.852C137.813 184.026 140.532 179.794 144.764 175.527C148.997 171.26 153.16 168.576 154.089 169.471Z" fill="#B2001A"/>
<path d="M169.471 246.412C170.4 245.517 174.563 248.236 178.83 252.468C183.097 256.701 185.712 260.899 184.886 261.793C184.06 262.688 179.794 260.004 175.561 255.737C171.329 251.47 168.576 247.307 169.471 246.412Z" fill="#B2001A"/>
<path d="M154.09 231.031C154.984 230.136 159.182 232.854 163.415 237.087C167.647 241.319 170.297 245.517 169.471 246.412C168.645 247.307 164.413 244.623 160.146 240.356C155.879 236.089 153.16 231.925 154.09 231.031Z" fill="#B2001A"/>
<path d="M138.708 215.649C139.603 214.72 143.801 217.439 148.033 221.706C152.266 225.972 154.915 230.136 154.09 231.031C153.264 231.925 149.031 229.207 144.764 224.975C140.498 220.742 137.814 216.544 138.708 215.649Z" fill="#B2001A"/>
<path d="M169.471 184.852C170.4 183.957 174.563 186.676 178.83 190.908C183.097 195.141 185.712 199.339 184.886 200.234C184.06 201.128 179.794 198.444 175.561 194.177C171.329 189.91 168.576 185.747 169.471 184.852Z" fill="#B2001A"/>
<path d="M154.09 169.471C154.984 168.576 159.182 171.294 163.415 175.527C167.647 179.759 170.297 183.957 169.471 184.852C168.645 185.747 164.413 183.028 160.146 178.796C155.879 174.563 153.16 170.331 154.09 169.471Z" fill="#B2001A"/>
<path d="M138.708 154.089C139.603 153.16 143.801 155.879 148.033 160.146C152.266 164.412 154.915 168.576 154.09 169.471C153.264 170.365 149.031 167.647 144.764 163.415C140.498 159.182 137.814 154.984 138.708 154.089Z" fill="#B2001A"/>
<path d="M138.673 215.649C139.947 215.649 140.979 212.198 140.979 207.941C140.979 203.684 139.947 200.234 138.673 200.234C137.4 200.234 136.368 203.684 136.368 207.941C136.368 212.198 137.4 215.649 138.673 215.649Z" fill="#B2001A"/>
<path d="M138.673 200.268C139.947 200.268 140.979 196.817 140.979 192.56C140.979 188.303 139.947 184.852 138.673 184.852C137.4 184.852 136.368 188.303 136.368 192.56C136.368 196.817 137.4 200.268 138.673 200.268Z" fill="#B2001A"/>
<path d="M138.673 184.887C139.947 184.887 140.979 181.436 140.979 177.179C140.979 172.922 139.947 169.471 138.673 169.471C137.4 169.471 136.368 172.922 136.368 177.179C136.368 181.436 137.4 184.887 138.673 184.887Z" fill="#B2001A"/>
<path d="M138.673 169.471C139.947 169.471 140.979 166.02 140.979 161.763C140.979 157.506 139.947 154.055 138.673 154.055C137.4 154.055 136.368 157.506 136.368 161.763C136.368 166.02 137.4 169.471 138.673 169.471Z" fill="#B2001A"/>
<path d="M184.852 261.828C186.125 261.828 187.158 258.377 187.158 254.12C187.158 249.863 186.125 246.412 184.852 246.412C183.579 246.412 182.547 249.863 182.547 254.12C182.547 258.377 183.579 261.828 184.852 261.828Z" fill="#B2001A"/>
<path d="M184.852 246.447C186.125 246.447 187.158 242.996 187.158 238.739C187.158 234.482 186.125 231.031 184.852 231.031C183.579 231.031 182.547 234.482 182.547 238.739C182.547 242.996 183.579 246.447 184.852 246.447Z" fill="#B2001A"/>
<path d="M184.852 231.031C186.125 231.031 187.158 227.58 187.158 223.323C187.158 219.066 186.125 215.615 184.852 215.615C183.579 215.615 182.547 219.066 182.547 223.323C182.547 227.58 183.579 231.031 184.852 231.031Z" fill="#B2001A"/>
<path d="M184.852 215.649C186.125 215.649 187.158 212.198 187.158 207.941C187.158 203.684 186.125 200.234 184.852 200.234C183.579 200.234 182.547 203.684 182.547 207.941C182.547 212.198 183.579 215.649 184.852 215.649Z" fill="#B2001A"/>
<path d="M92.529 61.7321C91.6344 62.6268 87.4709 59.9083 83.204 55.6759C78.9371 51.4434 76.3219 47.2454 77.1477 46.3507C77.9736 45.456 82.2059 48.14 86.4728 52.4069C90.7397 56.6738 93.4237 60.8374 92.529 61.7321Z" fill="#B2001A"/>
<path d="M86.4311 55.661C90.6775 51.4146 93.3901 47.2422 92.4897 46.3419C91.5894 45.4415 87.417 48.1541 83.1706 52.4006C78.9242 56.647 76.2116 60.8194 77.1119 61.7197C78.0123 62.6201 82.1846 59.9074 86.4311 55.661Z" fill="#B2001A"/>
<path d="M107.91 61.7321C107.016 62.6268 102.852 59.9083 98.5853 55.6759C94.3185 51.4434 91.7032 47.2454 92.5291 46.3507C93.3549 45.456 97.6217 48.14 101.854 52.4069C106.087 56.6738 108.839 60.8374 107.91 61.7321Z" fill="#B2001A"/>
<path d="M92.5293 61.7321C91.6346 60.8375 94.353 56.6394 98.5855 52.4069C102.818 48.1744 107.016 45.5249 107.911 46.3507C108.805 47.1766 106.121 51.409 101.854 55.6759C97.5874 59.9428 93.4239 62.6268 92.5293 61.7321Z" fill="#B2001A"/>
<path d="M92.487 46.3356C93.3873 45.4352 90.6749 41.2628 86.4285 37.0164C82.1821 32.77 78.0097 30.0576 77.1093 30.9579C76.209 31.8583 78.9214 36.0306 83.1678 40.2771C87.4142 44.5235 91.5866 47.2359 92.487 46.3356Z" fill="#B2001A"/>
<path d="M77.1479 46.4538C76.2532 45.5248 78.9717 41.3611 83.2042 37.1286C87.4366 32.8962 91.6345 30.2466 92.5292 31.0381C93.4239 31.8295 90.7054 36.1307 86.473 40.3632C82.2405 44.5957 78.0426 47.2453 77.1479 46.4538Z" fill="#B2001A"/>
<path d="M92.529 30.9348C91.6344 31.8639 87.4709 29.1455 83.204 24.8786C78.9371 20.6117 76.3219 16.4481 77.1477 15.5534C77.9736 14.6588 82.2059 17.3772 86.4728 21.6096C90.7397 25.8421 93.4237 30.0402 92.529 30.9348Z" fill="#B2001A"/>
<path d="M77.1479 30.9349C76.2532 30.0402 78.9717 25.8766 83.2042 21.6097C87.4366 17.3428 91.6345 14.7277 92.5292 15.5535C93.4239 16.3794 90.7054 20.6462 86.473 24.8787C82.2405 29.1111 78.0426 31.864 77.1479 30.9349Z" fill="#B2001A"/>
<path d="M107.91 46.4539C107.016 47.3486 102.852 44.6302 98.5853 40.3633C94.3185 36.0964 91.7032 31.9672 92.5291 31.0381C93.3549 30.109 97.6217 32.8618 101.854 37.1287C106.087 41.3956 108.839 45.4216 107.91 46.4539Z" fill="#B2001A"/>
<path d="M101.837 40.2844C106.083 36.038 108.796 31.8656 107.896 30.9653C106.995 30.0649 102.823 32.7775 98.5764 37.024C94.3299 41.2704 91.6173 45.4428 92.5177 46.3431C93.418 47.2435 97.5904 44.5308 101.837 40.2844Z" fill="#B2001A"/>
<path d="M123.326 61.7321C122.397 62.6268 118.234 59.9083 114.001 55.6759C109.769 51.4434 107.119 47.2454 107.911 46.3507C108.702 45.456 113.004 48.14 117.236 52.4069C121.469 56.6738 124.221 60.8374 123.326 61.7321Z" fill="#B2001A"/>
<path d="M107.911 61.7321C107.016 60.8375 109.735 56.6394 114.001 52.4069C118.268 48.1744 122.397 45.5249 123.327 46.3507C124.256 47.1766 121.503 51.409 117.236 55.6759C112.969 59.9428 108.84 62.6268 107.911 61.7321Z" fill="#B2001A"/>
<path d="M107.91 77.1134C107.016 78.0081 102.852 75.3241 98.5853 71.0572C94.3185 66.7903 91.7032 62.6267 92.5291 61.732C93.3549 60.8373 97.6217 63.5557 101.854 67.7882C106.087 72.0207 108.839 76.2188 107.91 77.1134Z" fill="#B2001A"/>
<path d="M92.5293 77.1135C91.6346 76.2188 94.353 72.0552 98.5855 67.7883C102.818 63.5214 107.016 60.9063 107.911 61.7321C108.805 62.5579 106.121 66.8248 101.854 71.0573C97.5874 75.2897 93.4239 78.0082 92.5293 77.1135Z" fill="#B2001A"/>
<path d="M123.309 77.1329C124.209 76.2325 121.497 72.0601 117.25 67.8137C113.004 63.5673 108.832 60.8549 107.931 61.7552C107.031 62.6556 109.744 66.8276 113.99 71.0741C118.237 75.3205 122.409 78.0332 123.309 77.1329Z" fill="#B2001A"/>
<path d="M117.25 71.0743C121.497 66.8279 124.209 62.6555 123.309 61.7551C122.409 60.8548 118.236 63.5674 113.99 67.8138C109.743 72.0602 107.031 76.2323 107.931 77.1327C108.832 78.033 113.004 75.3207 117.25 71.0743Z" fill="#B2001A"/>
<path d="M123.326 92.4949C122.397 93.424 118.234 90.7055 114.001 86.4386C109.769 82.1718 107.119 78.0082 107.911 77.1135C108.702 76.2188 113.004 78.9372 117.236 83.1697C121.469 87.4021 124.221 91.6002 123.326 92.4949Z" fill="#B2001A"/>
<path d="M107.911 92.4949C107.016 91.6002 109.735 87.4365 114.001 83.1696C118.268 78.9028 122.397 76.2876 123.327 77.1134C124.256 77.9393 121.503 82.2061 117.236 86.4386C112.969 90.6711 108.84 93.4239 107.911 92.4949Z" fill="#B2001A"/>
<path d="M92.529 15.4846C91.6344 16.3793 87.4709 13.6609 83.204 9.42844C78.9371 5.19598 76.3219 0.997898 77.1477 0.10323C77.9736 -0.791437 82.2059 1.92696 86.4728 6.15942C90.7397 10.3919 93.4237 14.6588 92.529 15.4846Z" fill="#B2001A"/>
<path d="M107.91 30.9348C107.016 31.8639 102.852 29.1455 98.5853 24.8786C94.3185 20.6117 91.7032 16.4481 92.5291 15.5534C93.3549 14.6588 97.6217 17.3772 101.854 21.6096C106.087 25.8421 108.839 30.0402 107.91 30.9348Z" fill="#B2001A"/>
<path d="M123.326 46.4539C122.397 47.3486 118.234 44.6302 114.001 40.3633C109.769 36.0964 107.119 31.9672 107.911 31.0381C108.702 30.109 113.004 32.8618 117.236 37.1287C121.469 41.3956 124.221 45.4216 123.326 46.4539Z" fill="#B2001A"/>
<path d="M92.529 77.1134C91.6344 78.0081 87.4709 75.3241 83.204 71.0572C78.9371 66.7903 76.3219 62.6267 77.1477 61.732C77.9736 60.8373 82.2059 63.5557 86.4728 67.7882C90.7397 72.0207 93.4237 76.2188 92.529 77.1134Z" fill="#B2001A"/>
<path d="M107.91 92.4949C107.016 93.424 102.852 90.7055 98.5853 86.4386C94.3185 82.1718 91.7032 78.0082 92.5291 77.1135C93.3549 76.2188 97.6217 78.9372 101.854 83.1697C106.087 87.4021 108.839 91.6002 107.91 92.4949Z" fill="#B2001A"/>
<path d="M123.326 107.911C122.397 108.805 118.234 106.087 114.001 101.855C109.769 97.622 107.119 93.424 107.911 92.4949C108.702 91.5658 113.004 94.3186 117.236 98.5855C121.469 102.852 124.221 107.016 123.326 107.911Z" fill="#B2001A"/>
<path d="M123.326 61.7321C122.053 61.7321 121.021 58.2911 121.021 54.0242C121.021 49.7573 122.053 46.3507 123.326 46.3507C124.6 46.3507 125.632 49.7917 125.632 54.0242C125.632 58.2567 124.6 61.7321 123.326 61.7321Z" fill="#B2001A"/>
<path d="M123.326 77.1135C122.053 77.1135 121.021 73.6724 121.021 69.4399C121.021 65.2075 122.053 61.7321 123.326 61.7321C124.6 61.7321 125.632 65.1731 125.632 69.4399C125.632 73.7068 124.6 77.1135 123.326 77.1135Z" fill="#B2001A"/>
<path d="M123.326 92.4949C122.053 92.4949 121.021 89.0539 121.021 84.8214C121.021 80.5889 122.053 77.1135 123.326 77.1135C124.6 77.1135 125.632 80.5545 125.632 84.8214C125.632 89.0883 124.6 92.4949 123.326 92.4949Z" fill="#B2001A"/>
<path d="M123.326 107.911C122.053 107.911 121.021 104.47 121.021 100.203C121.021 95.9359 122.053 92.4949 123.326 92.4949C124.6 92.4949 125.632 95.9359 125.632 100.203C125.632 104.47 124.6 107.911 123.326 107.911Z" fill="#B2001A"/>
<path d="M77.1479 15.4847C75.8747 15.4847 74.8423 12.0436 74.8423 7.77675C74.8423 3.50988 75.8747 0.103271 77.1479 0.103271C78.4211 0.103271 79.4531 3.54429 79.4531 7.77675C79.4531 12.0092 78.4211 15.4847 77.1479 15.4847Z" fill="#B2001A"/>
<path d="M77.1479 30.9349C75.8747 30.9349 74.8423 27.4938 74.8423 23.2613C74.8423 19.0289 75.8747 15.5535 77.1479 15.5535C78.4211 15.5535 79.4531 18.9945 79.4531 23.2613C79.4531 27.5282 78.4211 30.9349 77.1479 30.9349Z" fill="#B2001A"/>
<path d="M77.1479 46.4539C75.8747 46.4539 74.8423 43.0128 74.8423 38.746C74.8423 34.4791 75.8747 31.0381 77.1479 31.0381C78.4211 31.0381 79.4531 34.4791 79.4531 38.746C79.4531 43.0128 78.4211 46.4539 77.1479 46.4539Z" fill="#B2001A"/>
<path d="M77.1479 61.7321C75.8747 61.7321 74.8423 58.2911 74.8423 54.0242C74.8423 49.7573 75.8747 46.3507 77.1479 46.3507C78.4211 46.3507 79.4531 49.7917 79.4531 54.0242C79.4531 58.2567 78.4211 61.7321 77.1479 61.7321Z" fill="#B2001A"/>
<path d="M178.784 55.6654C183.03 51.419 185.743 47.2466 184.843 46.3463C183.942 45.4459 179.77 48.1585 175.523 52.405C171.277 56.6514 168.564 60.8237 169.465 61.7241C170.365 62.6244 174.537 59.9118 178.784 55.6654Z" fill="#B2001A"/>
<path d="M184.887 61.7321C183.992 62.6268 179.794 59.9083 175.561 55.6759C171.329 51.4434 168.679 47.2454 169.471 46.3507C170.262 45.456 174.563 48.14 178.83 52.4069C183.097 56.6738 185.781 60.8374 184.887 61.7321Z" fill="#B2001A"/>
<path d="M154.089 61.7321C153.195 60.8375 155.913 56.6394 160.146 52.4069C164.378 48.1744 168.576 45.5249 169.471 46.3507C170.365 47.1766 167.681 51.409 163.414 55.6759C159.147 59.9428 154.984 62.6268 154.089 61.7321Z" fill="#B2001A"/>
<path d="M169.47 61.7321C168.576 62.6268 164.412 59.9083 160.145 55.6759C155.879 51.4434 153.263 47.2454 154.089 46.3507C154.915 45.456 159.182 48.14 163.414 52.4069C167.647 56.6738 170.365 60.8374 169.47 61.7321Z" fill="#B2001A"/>
<path d="M169.471 46.4538C168.576 45.5248 171.295 41.3611 175.562 37.1286C179.828 32.8962 183.992 30.2466 184.887 31.0381C185.781 31.8295 183.063 36.1307 178.83 40.3632C174.598 44.5957 170.365 47.2453 169.471 46.4538Z" fill="#B2001A"/>
<path d="M184.84 46.3399C185.74 45.4395 183.028 41.2671 178.781 37.0207C174.535 32.7743 170.363 30.0619 169.462 30.9622C168.562 31.8626 171.275 36.0347 175.521 40.2811C179.768 44.5275 183.94 47.2402 184.84 46.3399Z" fill="#B2001A"/>
<path d="M169.471 30.9349C168.576 30.0402 171.295 25.8766 175.562 21.6097C179.828 17.3428 183.992 14.7277 184.887 15.5535C185.781 16.3794 183.063 20.6462 178.83 24.8787C174.598 29.1111 170.365 31.864 169.471 30.9349Z" fill="#B2001A"/>
<path d="M184.887 30.9348C183.992 31.8639 179.794 29.1455 175.561 24.8786C171.329 20.6117 168.679 16.4481 169.471 15.5534C170.262 14.6588 174.563 17.3772 178.83 21.6096C183.097 25.8421 185.781 30.0402 184.887 30.9348Z" fill="#B2001A"/>
<path d="M154.089 46.4538C153.195 45.5248 155.913 41.3611 160.146 37.1286C164.378 32.8962 168.576 30.2466 169.471 31.0381C170.365 31.8295 167.681 36.1307 163.414 40.3632C159.147 44.5957 154.984 47.2453 154.089 46.4538Z" fill="#B2001A"/>
<path d="M169.47 46.4539C168.576 47.3486 164.412 44.6302 160.145 40.3633C155.879 36.0964 153.263 31.9672 154.089 31.0381C154.915 30.109 159.182 32.8618 163.414 37.1287C167.647 41.3956 170.365 45.4216 169.47 46.4539Z" fill="#B2001A"/>
<path d="M138.708 61.7321C137.813 60.8375 140.532 56.6394 144.764 52.4069C148.997 48.1744 153.195 45.5249 154.089 46.3507C154.984 47.1766 152.3 51.409 148.033 55.6759C143.766 59.9428 139.603 62.6268 138.708 61.7321Z" fill="#B2001A"/>
<path d="M154.089 61.7321C153.194 62.6268 149.031 59.9083 144.764 55.6759C140.497 51.4434 137.882 47.2454 138.708 46.3507C139.534 45.456 143.8 48.14 148.033 52.4069C152.265 56.6738 154.984 60.8374 154.089 61.7321Z" fill="#B2001A"/>
<path d="M163.427 71.0763C167.673 66.8299 170.386 62.6575 169.486 61.7572C168.585 60.8568 164.413 63.5694 160.166 67.8158C155.92 72.0623 153.207 76.2346 154.108 77.135C155.008 78.0353 159.181 75.3228 163.427 71.0763Z" fill="#B2001A"/>
<path d="M169.486 77.1349C170.386 76.2345 167.673 72.0621 163.427 67.8157C159.181 63.5693 155.008 60.8569 154.108 61.7572C153.208 62.6576 155.92 66.83 160.166 71.0764C164.413 75.3228 168.585 78.0352 169.486 77.1349Z" fill="#B2001A"/>
<path d="M138.708 77.1135C137.813 76.2188 140.532 72.0552 144.764 67.7883C148.997 63.5214 153.195 60.9063 154.089 61.7321C154.984 62.5579 152.3 66.8248 148.033 71.0573C143.766 75.2897 139.603 78.0082 138.708 77.1135Z" fill="#B2001A"/>
<path d="M154.089 77.1134C153.194 78.0081 149.031 75.3241 144.764 71.0572C140.497 66.7903 137.882 62.6267 138.708 61.732C139.534 60.8373 143.8 63.5557 148.033 67.7882C152.265 72.0207 154.984 76.2188 154.089 77.1134Z" fill="#B2001A"/>
<path d="M148.046 86.4285C152.292 82.1821 155.004 78.01 154.104 77.1096C153.204 76.2093 149.032 78.9216 144.785 83.168C140.539 87.4144 137.826 91.5868 138.726 92.4872C139.627 93.3875 143.799 90.6749 148.046 86.4285Z" fill="#B2001A"/>
<path d="M154.089 92.4949C153.194 93.424 149.031 90.7055 144.764 86.4386C140.497 82.1718 137.882 78.0082 138.708 77.1135C139.534 76.2188 143.8 78.9372 148.033 83.1697C152.265 87.4021 154.984 91.6002 154.089 92.4949Z" fill="#B2001A"/>
<path d="M169.471 15.4846C168.576 14.5899 171.295 10.4263 175.562 6.15939C179.828 1.89251 183.992 -0.722654 184.887 0.103194C185.781 0.929041 183.063 5.16153 178.83 9.42841C174.598 13.6953 170.365 16.4481 169.471 15.4846Z" fill="#B2001A"/>
<path d="M154.089 30.9349C153.195 30.0402 155.913 25.8766 160.146 21.6097C164.378 17.3428 168.576 14.7277 169.471 15.5535C170.365 16.3794 167.681 20.6462 163.414 24.8787C159.147 29.1111 154.984 31.864 154.089 30.9349Z" fill="#B2001A"/>
<path d="M148.013 40.2521C152.26 36.0056 154.972 31.8336 154.072 30.9332C153.171 30.0329 148.999 32.7452 144.753 36.9916C140.506 41.2381 137.794 45.4104 138.694 46.3108C139.595 47.2111 143.767 44.4985 148.013 40.2521Z" fill="#B2001A"/>
<path d="M169.471 77.1135C168.576 76.2188 171.295 72.0552 175.562 67.7883C179.828 63.5214 183.992 60.9063 184.887 61.7321C185.781 62.5579 183.063 66.8248 178.83 71.0573C174.598 75.2897 170.365 78.0082 169.471 77.1135Z" fill="#B2001A"/>
<path d="M154.089 92.4949C153.195 91.6002 155.913 87.4365 160.146 83.1696C164.378 78.9028 168.576 76.2876 169.471 77.1134C170.365 77.9393 167.681 82.2061 163.414 86.4386C159.147 90.6711 154.984 93.4239 154.089 92.4949Z" fill="#B2001A"/>
<path d="M138.708 107.911C137.813 107.016 140.532 102.818 144.764 98.5854C148.997 94.353 153.195 91.7034 154.089 92.4948C154.984 93.2863 152.3 97.5876 148.033 101.854C143.766 106.121 139.603 108.805 138.708 107.911Z" fill="#B2001A"/>
<path d="M138.673 61.7321C139.947 61.7321 140.979 58.2811 140.979 54.0242C140.979 49.7672 139.947 46.3163 138.673 46.3163C137.4 46.3163 136.368 49.7672 136.368 54.0242C136.368 58.2811 137.4 61.7321 138.673 61.7321Z" fill="#B2001A"/>
<path d="M138.673 77.1479C139.947 77.1479 140.979 73.6969 140.979 69.44C140.979 65.183 139.947 61.7321 138.673 61.7321C137.4 61.7321 136.368 65.183 136.368 69.44C136.368 73.6969 137.4 77.1479 138.673 77.1479Z" fill="#B2001A"/>
<path d="M138.673 92.5293C139.947 92.5293 140.979 89.0784 140.979 84.8214C140.979 80.5645 139.947 77.1135 138.673 77.1135C137.4 77.1135 136.368 80.5645 136.368 84.8214C136.368 89.0784 137.4 92.5293 138.673 92.5293Z" fill="#B2001A"/>
<path d="M138.673 107.911C139.947 107.911 140.979 104.46 140.979 100.203C140.979 95.9458 139.947 92.4949 138.673 92.4949C137.4 92.4949 136.368 95.9458 136.368 100.203C136.368 104.46 137.4 107.911 138.673 107.911Z" fill="#B2001A"/>
<path d="M184.852 15.5878C186.125 15.5878 187.158 12.1369 187.158 7.8799C187.158 3.62294 186.125 0.171997 184.852 0.171997C183.579 0.171997 182.547 3.62294 182.547 7.8799C182.547 12.1369 183.579 15.5878 184.852 15.5878Z" fill="#B2001A"/>
<path d="M184.852 30.9693C186.125 30.9693 187.158 27.5183 187.158 23.2614C187.158 19.0044 186.125 15.5535 184.852 15.5535C183.579 15.5535 182.547 19.0044 182.547 23.2614C182.547 27.5183 183.579 30.9693 184.852 30.9693Z" fill="#B2001A"/>
<path d="M184.852 46.3506C186.125 46.3506 187.158 42.8997 187.158 38.6427C187.158 34.3858 186.125 30.9348 184.852 30.9348C183.579 30.9348 182.547 34.3858 182.547 38.6427C182.547 42.8997 183.579 46.3506 184.852 46.3506Z" fill="#B2001A"/>
<path d="M184.852 61.7321C186.125 61.7321 187.158 58.2811 187.158 54.0242C187.158 49.7672 186.125 46.3163 184.852 46.3163C183.579 46.3163 182.547 49.7672 182.547 54.0242C182.547 58.2811 183.579 61.7321 184.852 61.7321Z" fill="#B2001A"/>
<path d="M61.7664 92.4949C60.8373 93.424 56.6738 90.7055 52.4414 86.4386C48.2089 82.1718 45.5592 78.0082 46.3507 77.1135C47.1421 76.2188 51.4437 78.9372 55.6761 83.1697C59.9086 87.4021 62.6611 91.6002 61.7664 92.4949Z" fill="#B2001A"/>
<path d="M61.7661 77.1135C62.6608 78.0082 59.9427 82.2062 55.6758 86.4387C51.409 90.6711 47.2794 93.3208 46.3504 92.4949C45.4213 91.6691 48.1742 87.4366 52.4411 83.1697C56.7079 78.9028 60.837 76.2189 61.7661 77.1135Z" fill="#B2001A"/>
<path d="M61.7664 107.911C60.8373 108.805 56.6738 106.087 52.4414 101.855C48.2089 97.622 45.5592 93.424 46.3507 92.4949C47.1421 91.5658 51.4437 94.3186 55.6761 98.5855C59.9086 102.852 62.6611 107.016 61.7664 107.911Z" fill="#B2001A"/>
<path d="M61.7661 92.4949C62.6608 93.4239 59.9427 97.5876 55.6758 101.854C51.409 106.121 47.2794 108.737 46.3504 107.911C45.4213 107.085 48.1742 102.818 52.4411 98.5855C56.7079 94.353 60.837 91.6002 61.7661 92.4949Z" fill="#B2001A"/>
<path d="M46.3671 92.52C47.2674 91.6196 44.555 87.4472 40.3086 83.2008C36.0621 78.9543 31.8898 76.242 30.9894 77.1423C30.0891 78.0427 32.8018 82.2147 37.0482 86.4611C41.2946 90.7076 45.4667 93.4203 46.3671 92.52Z" fill="#B2001A"/>
<path d="M46.4882 77.1135C47.4173 78.0082 44.6988 82.2062 40.4319 86.4387C36.1651 90.6711 32.0016 93.3208 31.1069 92.4949C30.2122 91.6691 32.9307 87.4366 37.1631 83.1697C41.3956 78.9028 45.4559 76.2189 46.4882 77.1135Z" fill="#B2001A"/>
<path d="M30.9693 92.4949C30.0747 93.424 25.8767 90.7055 21.6443 86.4386C17.4118 82.1718 14.7622 78.0082 15.588 77.1135C16.4139 76.2188 20.6462 78.9372 24.9131 83.1697C29.18 87.4021 31.864 91.6002 30.9693 92.4949Z" fill="#B2001A"/>
<path d="M30.9692 77.1135C31.8639 78.0082 29.1454 82.2062 24.9129 86.4387C20.6805 90.6711 16.4825 93.3208 15.5879 92.4949C14.6932 91.6691 17.3773 87.4366 21.6441 83.1697C25.911 78.9028 30.0745 76.2189 30.9692 77.1135Z" fill="#B2001A"/>
<path d="M46.488 107.911C45.5934 108.805 41.4299 106.087 37.163 101.855C32.8961 97.622 30.2809 93.424 31.1067 92.4949C31.9326 91.5658 36.1993 94.3186 40.4318 98.5855C44.6643 102.852 47.2795 107.016 46.488 107.911Z" fill="#B2001A"/>
<path d="M40.2768 101.845C44.5232 97.599 47.2358 93.4267 46.3354 92.5263C45.4351 91.626 41.2627 94.3386 37.0163 98.585C32.7699 102.831 30.0573 107.004 30.9576 107.904C31.858 108.804 36.0303 106.092 40.2768 101.845Z" fill="#B2001A"/>
<path d="M61.7664 123.292C60.8373 124.187 56.6738 121.468 52.4414 117.236C48.2089 113.004 45.5592 108.805 46.3507 107.911C47.1421 107.016 51.4437 109.7 55.6761 113.967C59.9086 118.234 62.6611 122.398 61.7664 123.292Z" fill="#B2001A"/>
<path d="M61.7661 107.911C62.6608 108.805 59.9427 112.969 55.6758 117.236C51.409 121.503 47.2794 124.118 46.3504 123.292C45.4213 122.466 48.1742 118.199 52.4411 113.967C56.7079 109.734 60.837 107.016 61.7661 107.911Z" fill="#B2001A"/>
<path d="M77.1482 107.911C76.2535 108.805 72.0552 106.087 67.8227 101.855C63.5903 97.622 60.9406 93.424 61.7665 92.4949C62.5923 91.5658 66.8251 94.3186 71.092 98.5855C75.3588 102.852 78.0429 107.016 77.1482 107.911Z" fill="#B2001A"/>
<path d="M77.1481 92.4949C78.0427 93.4239 75.3243 97.5876 71.0918 101.854C66.8594 106.121 62.661 108.737 61.7663 107.911C60.8717 107.085 63.5557 102.818 67.8226 98.5855C72.0895 94.353 76.2534 91.6002 77.1481 92.4949Z" fill="#B2001A"/>
<path d="M77.1062 123.283C78.0065 122.382 75.2938 118.21 71.0474 113.964C66.8009 109.717 62.6288 107.005 61.7285 107.905C60.8281 108.805 63.5406 112.978 67.787 117.224C72.0334 121.471 76.2058 124.183 77.1062 123.283Z" fill="#B2001A"/>
<path d="M71.0475 117.224C75.2939 112.978 78.0063 108.806 77.1059 107.905C76.2056 107.005 72.0335 109.717 67.7871 113.964C63.5406 118.21 60.828 122.382 61.7284 123.283C62.6287 124.183 66.8011 121.47 71.0475 117.224Z" fill="#B2001A"/>
<path d="M92.529 123.292C91.6344 124.187 87.4709 121.468 83.204 117.236C78.9371 113.004 76.3219 108.805 77.1477 107.911C77.9736 107.016 82.2059 109.7 86.4728 113.967C90.7397 118.234 93.4237 122.398 92.529 123.292Z" fill="#B2001A"/>
<path d="M92.5292 107.911C93.4239 108.805 90.7054 112.969 86.473 117.236C82.2405 121.503 78.0426 124.118 77.1479 123.292C76.2532 122.466 78.9717 118.199 83.2042 113.967C87.4366 109.734 91.6345 107.016 92.5292 107.911Z" fill="#B2001A"/>
<path d="M15.5405 92.5151C16.4408 91.6148 13.7281 87.4427 9.48165 83.1963C5.23522 78.9498 1.06316 76.2371 0.162805 77.1375C-0.737545 78.0378 1.97485 82.2102 6.22128 86.4566C10.4677 90.7031 14.6401 93.4155 15.5405 92.5151Z" fill="#B2001A"/>
<path d="M30.9693 107.911C30.0747 108.805 25.8767 106.087 21.6443 101.855C17.4118 97.622 14.7622 93.424 15.588 92.4949C16.4139 91.5658 20.6462 94.3186 24.9131 98.5855C29.18 102.852 31.864 107.016 30.9693 107.911Z" fill="#B2001A"/>
<path d="M46.488 123.292C45.5934 124.187 41.4299 121.468 37.163 117.236C32.8961 113.004 30.2809 108.805 31.1067 107.911C31.9326 107.016 36.1993 109.7 40.4318 113.967C44.6643 118.234 47.2795 122.398 46.488 123.292Z" fill="#B2001A"/>
<path d="M77.1482 92.4949C76.2535 93.424 72.0552 90.7055 67.8227 86.4386C63.5903 82.1718 60.9406 78.0082 61.7665 77.1135C62.5923 76.2188 66.8251 78.9372 71.092 83.1697C75.3588 87.4021 78.0429 91.6002 77.1482 92.4949Z" fill="#B2001A"/>
<path d="M92.529 107.911C91.6344 108.805 87.4709 106.087 83.204 101.855C78.9371 97.622 76.3219 93.424 77.1477 92.4949C77.9736 91.5658 82.2059 94.3186 86.4728 98.5855C90.7397 102.852 93.4237 107.016 92.529 107.911Z" fill="#B2001A"/>
<path d="M107.91 123.292C107.016 124.187 102.852 121.468 98.5853 117.236C94.3185 113.004 91.7032 108.805 92.5291 107.911C93.3549 107.016 97.6217 109.7 101.854 113.967C106.087 118.234 108.839 122.398 107.91 123.292Z" fill="#B2001A"/>
<path d="M61.7663 123.292C61.7663 124.565 58.3253 125.598 54.0585 125.598C49.7916 125.598 46.3506 124.565 46.3506 123.292C46.3506 122.019 49.7916 120.987 54.0585 120.987C58.3253 120.987 61.7663 122.157 61.7663 123.292Z" fill="#B2001A"/>
<path d="M77.1481 123.292C77.1481 124.565 73.7071 125.598 69.4402 125.598C65.1733 125.598 61.7664 124.565 61.7664 123.292C61.7664 122.019 65.2077 120.987 69.4402 120.987C73.6727 120.987 77.1481 122.157 77.1481 123.292Z" fill="#B2001A"/>
<path d="M92.5293 123.292C92.5293 124.565 89.0883 125.598 84.8214 125.598C80.5545 125.598 77.1479 124.565 77.1479 123.292C77.1479 122.019 80.5889 120.987 84.8214 120.987C89.0538 120.987 92.5293 122.157 92.5293 123.292Z" fill="#B2001A"/>
<path d="M107.911 123.292C107.911 124.565 104.47 125.598 100.237 125.598C96.0047 125.598 92.5293 124.565 92.5293 123.292C92.5293 122.019 95.9703 120.987 100.237 120.987C104.504 120.987 107.911 122.157 107.911 123.292Z" fill="#B2001A"/>
<path d="M15.519 77.1135C15.519 78.3866 12.078 79.419 7.81112 79.419C3.54425 79.419 0.137695 78.3866 0.137695 77.1135C0.137695 75.8403 3.57866 74.808 7.81112 74.808C12.0436 74.808 15.519 75.8403 15.519 77.1135Z" fill="#B2001A"/>
<path d="M30.9692 77.1135C30.9692 78.3866 27.5282 79.419 23.2613 79.419C18.9944 79.419 15.5879 78.3866 15.5879 77.1135C15.5879 75.8403 19.0289 74.808 23.2613 74.808C27.4938 74.808 30.9692 75.8403 30.9692 77.1135Z" fill="#B2001A"/>
<path d="M46.4882 77.1135C46.4882 78.3866 43.0473 79.419 38.8148 79.419C34.5823 79.419 31.1069 78.3866 31.1069 77.1135C31.1069 75.8403 34.5479 74.808 38.8148 74.808C43.0817 74.808 46.4882 75.8403 46.4882 77.1135Z" fill="#B2001A"/>
<path d="M61.7663 77.1135C61.7663 78.3866 58.3253 79.419 54.0585 79.419C49.7916 79.419 46.3506 78.3866 46.3506 77.1135C46.3506 75.8403 49.7916 74.808 54.0585 74.808C58.3253 74.808 61.7663 75.8403 61.7663 77.1135Z" fill="#B2001A"/>
<path d="M61.7661 169.471C62.6608 170.365 59.9427 174.529 55.6758 178.796C51.409 183.063 47.2794 185.678 46.3504 184.852C45.4213 184.026 48.1742 179.794 52.4411 175.527C56.7079 171.26 60.837 168.576 61.7661 169.471Z" fill="#B2001A"/>
<path d="M61.7664 184.852C60.8373 185.747 56.6738 183.028 52.4414 178.796C48.2089 174.563 45.5592 170.365 46.3507 169.471C47.1421 168.576 51.4437 171.294 55.6761 175.527C59.9086 179.759 62.6611 184.095 61.7664 184.852Z" fill="#B2001A"/>
<path d="M61.7661 154.089C62.6608 154.984 59.9427 159.148 55.6758 163.414C51.409 167.681 47.2794 170.297 46.3504 169.471C45.4213 168.645 48.1742 164.378 52.4411 160.145C56.7079 155.913 60.837 153.126 61.7661 154.089Z" fill="#B2001A"/>
<path d="M61.7664 169.471C60.8373 170.365 56.6738 167.647 52.4414 163.415C48.2089 159.182 45.5592 154.984 46.3507 154.089C47.1421 153.195 51.4437 155.879 55.6761 160.146C59.9086 164.412 62.6611 168.576 61.7664 169.471Z" fill="#B2001A"/>
<path d="M46.4882 169.471C47.4173 170.365 44.6988 174.529 40.4319 178.796C36.1651 183.063 32.0016 185.678 31.1069 184.852C30.2122 184.026 32.9307 179.794 37.1631 175.527C41.3956 171.26 45.4559 168.576 46.4882 169.471Z" fill="#B2001A"/>
<path d="M46.3385 184.849C47.2388 183.948 44.5264 179.776 40.28 175.529C36.0336 171.283 31.8612 168.571 30.9608 169.471C30.0605 170.371 32.7732 174.543 37.0196 178.79C41.266 183.036 45.4381 185.749 46.3385 184.849Z" fill="#B2001A"/>
<path d="M30.9692 169.471C31.8639 170.365 29.1454 174.529 24.9129 178.796C20.6805 183.063 16.4825 185.678 15.5879 184.852C14.6932 184.026 17.3773 179.794 21.6441 175.527C25.911 171.26 30.0745 168.576 30.9692 169.471Z" fill="#B2001A"/>
<path d="M30.9693 184.852C30.0747 185.747 25.8767 183.028 21.6443 178.796C17.4118 174.563 14.7622 170.365 15.588 169.471C16.4139 168.576 20.6462 171.294 24.9131 175.527C29.18 179.759 31.864 184.095 30.9693 184.852Z" fill="#B2001A"/>
<path d="M46.4882 154.089C47.4173 154.984 44.6988 159.148 40.4319 163.414C36.1651 167.681 32.0016 170.297 31.1069 169.471C30.2122 168.645 32.9307 164.378 37.1631 160.145C41.3956 155.913 45.4559 153.126 46.4882 154.089Z" fill="#B2001A"/>
<path d="M46.488 169.471C45.5934 170.365 41.4299 167.647 37.163 163.415C32.8961 159.182 30.2809 154.984 31.1067 154.089C31.9326 153.195 36.1993 155.879 40.4318 160.146C44.6643 164.412 47.2795 168.576 46.488 169.471Z" fill="#B2001A"/>
<path d="M61.7661 138.674C62.6608 139.568 59.9427 143.766 55.6758 147.999C51.409 152.231 47.2794 154.881 46.3504 154.089C45.4213 153.298 48.1742 148.997 52.4411 144.73C56.7079 140.463 60.837 137.779 61.7661 138.674Z" fill="#B2001A"/>
<path d="M61.7664 154.089C60.8373 154.984 56.6738 152.266 52.4414 147.999C48.2089 143.732 45.5592 139.568 46.3507 138.674C47.1421 137.779 51.4437 140.497 55.6761 144.73C59.9086 148.962 62.6611 153.126 61.7664 154.089Z" fill="#B2001A"/>
<path d="M71.0453 163.401C75.2917 159.154 78.0041 154.982 77.1037 154.082C76.2034 153.181 72.0313 155.894 67.7849 160.14C63.5384 164.386 60.8258 168.559 61.7262 169.459C62.6265 170.36 66.7989 167.647 71.0453 163.401Z" fill="#B2001A"/>
<path d="M77.1039 169.459C78.0043 168.559 75.2916 164.387 71.0451 160.14C66.7987 155.894 62.6266 153.181 61.7263 154.081C60.8259 154.982 63.5383 159.154 67.7848 163.401C72.0312 167.647 76.2036 170.359 77.1039 169.459Z" fill="#B2001A"/>
<path d="M77.1481 138.674C78.0427 139.568 75.3243 143.766 71.0918 147.999C66.8594 152.231 62.661 154.881 61.7663 154.089C60.8717 153.298 63.5557 148.997 67.8226 144.73C72.0895 140.463 76.2534 137.779 77.1481 138.674Z" fill="#B2001A"/>
<path d="M77.1482 154.089C76.2535 154.984 72.0552 152.266 67.8227 147.999C63.5903 143.732 60.9406 139.568 61.7665 138.674C62.5923 137.779 66.8251 140.497 71.092 144.73C75.3588 148.962 78.0429 153.126 77.1482 154.089Z" fill="#B2001A"/>
<path d="M86.4267 148.014C90.6731 143.768 93.3857 139.595 92.4854 138.695C91.585 137.794 87.4126 140.507 83.1662 144.753C78.9198 149 76.2072 153.172 77.1075 154.073C78.0079 154.973 82.1803 152.26 86.4267 148.014Z" fill="#B2001A"/>
<path d="M92.529 154.089C91.6344 154.984 87.4709 152.266 83.204 147.999C78.9371 143.732 76.3219 139.568 77.1477 138.674C77.9736 137.779 82.2059 140.497 86.4728 144.73C90.7397 148.962 93.4237 153.126 92.529 154.089Z" fill="#B2001A"/>
<path d="M15.5192 169.471C16.4139 170.365 13.6955 174.529 9.46299 178.796C5.23052 183.063 1.0326 185.678 0.13793 184.852C-0.756737 184.026 1.9273 179.794 6.19418 175.527C10.4611 171.26 14.6934 168.576 15.5192 169.471Z" fill="#B2001A"/>
<path d="M30.9692 154.089C31.8639 154.984 29.1454 159.148 24.9129 163.414C20.6805 167.681 16.4825 170.297 15.5879 169.471C14.6932 168.645 17.3773 164.378 21.6441 160.145C25.911 155.913 30.0745 153.126 30.9692 154.089Z" fill="#B2001A"/>
<path d="M40.2746 148.022C44.521 143.775 47.2336 139.603 46.3333 138.703C45.4329 137.802 41.2605 140.515 37.0141 144.761C32.7677 149.008 30.0551 153.18 30.9554 154.081C31.8558 154.981 36.0282 152.268 40.2746 148.022Z" fill="#B2001A"/>
<path d="M71.048 178.785C75.2944 174.538 78.0067 170.366 77.1064 169.466C76.206 168.565 72.034 171.278 67.7875 175.524C63.5411 179.771 60.8285 183.943 61.7289 184.843C62.6292 185.744 66.8016 183.031 71.048 178.785Z" fill="#B2001A"/>
<path d="M92.5292 154.089C93.4239 154.984 90.7054 159.148 86.473 163.414C82.2405 167.681 78.0426 170.297 77.1479 169.471C76.2532 168.645 78.9717 164.378 83.2042 160.145C87.4366 155.913 91.6345 153.126 92.5292 154.089Z" fill="#B2001A"/>
<path d="M107.911 138.674C108.84 139.568 106.121 143.766 101.854 147.999C97.5874 152.231 93.4239 154.881 92.5293 154.089C91.6346 153.298 94.353 148.997 98.5855 144.73C102.818 140.463 107.016 137.779 107.911 138.674Z" fill="#B2001A"/>
<path d="M54.0241 140.979C58.281 140.979 61.732 139.947 61.732 138.674C61.732 137.4 58.281 136.368 54.0241 136.368C49.7671 136.368 46.3162 137.4 46.3162 138.674C46.3162 139.947 49.7671 140.979 54.0241 140.979Z" fill="#B2001A"/>
<path d="M69.4401 140.979C73.697 140.979 77.148 139.947 77.148 138.674C77.148 137.4 73.697 136.368 69.4401 136.368C65.1831 136.368 61.7322 137.4 61.7322 138.674C61.7322 139.947 65.1831 140.979 69.4401 140.979Z" fill="#B2001A"/>
<path d="M84.8214 140.979C89.0784 140.979 92.5293 139.947 92.5293 138.674C92.5293 137.4 89.0784 136.368 84.8214 136.368C80.5645 136.368 77.1135 137.4 77.1135 138.674C77.1135 139.947 80.5645 140.979 84.8214 140.979Z" fill="#B2001A"/>
<path d="M100.203 140.979C104.46 140.979 107.911 139.947 107.911 138.674C107.911 137.4 104.46 136.368 100.203 136.368C95.9458 136.368 92.4949 137.4 92.4949 138.674C92.4949 139.947 95.9458 140.979 100.203 140.979Z" fill="#B2001A"/>
<path d="M7.88003 187.158C12.137 187.158 15.5879 186.125 15.5879 184.852C15.5879 183.579 12.137 182.547 7.88003 182.547C3.62307 182.547 0.172119 183.579 0.172119 184.852C0.172119 186.125 3.62307 187.158 7.88003 187.158Z" fill="#B2001A"/>
<path d="M23.2614 187.158C27.5183 187.158 30.9693 186.125 30.9693 184.852C30.9693 183.579 27.5183 182.547 23.2614 182.547C19.0044 182.547 15.5535 183.579 15.5535 184.852C15.5535 186.125 19.0044 187.158 23.2614 187.158Z" fill="#B2001A"/>
<path d="M38.6427 187.158C42.8997 187.158 46.3506 186.125 46.3506 184.852C46.3506 183.579 42.8997 182.547 38.6427 182.547C34.3858 182.547 30.9348 183.579 30.9348 184.852C30.9348 186.125 34.3858 187.158 38.6427 187.158Z" fill="#B2001A"/>
<path d="M54.0241 187.158C58.281 187.158 61.732 186.125 61.732 184.852C61.732 183.579 58.281 182.547 54.0241 182.547C49.7671 182.547 46.3162 183.579 46.3162 184.852C46.3162 186.125 49.7671 187.158 54.0241 187.158Z" fill="#B2001A"/>
<path d="M200.268 92.4949C199.373 91.6002 202.091 87.4365 206.324 83.1696C210.556 78.9028 214.755 76.2876 215.649 77.1134C216.544 77.9393 213.86 82.2061 209.593 86.4386C205.326 90.6711 201.334 93.4239 200.268 92.4949Z" fill="#B2001A"/>
<path d="M200.268 77.1135C201.162 76.2188 205.361 78.9372 209.593 83.1697C213.826 87.4021 216.475 91.6002 215.65 92.4949C214.824 93.3896 210.591 90.7055 206.324 86.4386C202.057 82.1718 199.373 78.0082 200.268 77.1135Z" fill="#B2001A"/>
<path d="M200.268 107.911C199.373 107.016 202.091 102.818 206.324 98.5854C210.556 94.353 214.755 91.7034 215.649 92.4948C216.544 93.2863 213.86 97.5876 209.593 101.854C205.326 106.121 201.334 108.805 200.268 107.911Z" fill="#B2001A"/>
<path d="M200.268 92.4949C201.162 91.6002 205.361 94.3186 209.593 98.5855C213.826 102.852 216.475 107.016 215.65 107.911C214.824 108.805 210.591 106.087 206.324 101.854C202.057 97.622 199.373 93.424 200.268 92.4949Z" fill="#B2001A"/>
<path d="M215.649 92.4949C214.755 91.6002 217.473 87.4365 221.706 83.1696C225.938 78.9028 230.136 76.2876 231.065 77.1134C231.994 77.9393 229.241 82.2061 224.974 86.4386C220.708 90.6711 216.578 93.4239 215.649 92.4949Z" fill="#B2001A"/>
<path d="M215.649 77.1135C216.578 76.2188 220.742 78.9372 224.974 83.1697C229.207 87.4021 231.857 91.6002 231.065 92.4949C230.274 93.3896 225.973 90.7055 221.706 86.4386C217.439 82.1718 214.755 78.0082 215.649 77.1135Z" fill="#B2001A"/>
<path d="M231.065 92.4949C230.136 91.6002 232.855 87.4365 237.122 83.1696C241.389 78.9028 245.552 76.2876 246.447 77.1134C247.341 77.9393 244.623 82.2061 240.39 86.4386C236.158 90.6711 231.96 93.4239 231.065 92.4949Z" fill="#B2001A"/>
<path d="M231.065 77.1135C231.96 76.2188 236.123 78.9372 240.39 83.1697C244.657 87.4021 247.272 91.6002 246.446 92.4949C245.62 93.3896 241.354 90.7055 237.121 86.4386C232.889 82.1718 230.136 78.0082 231.065 77.1135Z" fill="#B2001A"/>
<path d="M215.649 107.911C214.755 107.016 217.473 102.818 221.706 98.5854C225.938 94.353 230.136 91.7034 231.065 92.4948C231.994 93.2863 229.241 97.5876 224.974 101.854C220.708 106.121 216.578 108.805 215.649 107.911Z" fill="#B2001A"/>
<path d="M215.649 92.4949C216.578 91.6002 220.742 94.3186 224.974 98.5855C229.207 102.852 231.857 107.016 231.065 107.911C230.274 108.805 225.973 106.087 221.706 101.854C217.439 97.622 214.755 93.424 215.649 92.4949Z" fill="#B2001A"/>
<path d="M209.577 117.23C213.823 112.984 216.536 108.812 215.635 107.912C214.735 107.011 210.563 109.724 206.317 113.97C202.07 118.216 199.358 122.389 200.258 123.289C201.158 124.19 205.331 121.477 209.577 117.23Z" fill="#B2001A"/>
<path d="M215.636 123.255C216.536 122.354 213.823 118.182 209.577 113.936C205.33 109.689 201.158 106.977 200.258 107.877C199.358 108.777 202.07 112.95 206.317 117.196C210.563 121.443 214.735 124.155 215.636 123.255Z" fill="#B2001A"/>
<path d="M184.886 107.911C183.992 107.016 186.676 102.818 190.943 98.5854C195.21 94.353 199.373 91.7034 200.268 92.4948C201.162 93.2863 198.444 97.5876 194.212 101.854C189.979 106.121 185.781 108.805 184.886 107.911Z" fill="#B2001A"/>
<path d="M184.886 92.4949C185.781 91.6002 189.945 94.3186 194.212 98.5855C198.479 102.852 201.093 107.016 200.268 107.911C199.442 108.805 195.175 106.087 190.942 101.854C186.71 97.622 184.129 93.424 184.886 92.4949Z" fill="#B2001A"/>
<path d="M184.886 123.292C183.992 122.397 186.676 118.199 190.943 113.967C195.21 109.734 199.373 107.085 200.268 107.911C201.162 108.736 198.444 112.969 194.212 117.236C189.979 121.503 185.781 124.187 184.886 123.292Z" fill="#B2001A"/>
<path d="M184.886 107.911C185.781 107.016 189.945 109.7 194.212 113.967C198.479 118.234 201.093 122.398 200.268 123.292C199.442 124.187 195.175 121.468 190.942 117.236C186.71 113.004 184.129 108.805 184.886 107.911Z" fill="#B2001A"/>
<path d="M169.471 123.292C168.576 122.397 171.295 118.199 175.562 113.967C179.828 109.734 183.992 107.085 184.887 107.911C185.781 108.736 183.063 112.969 178.83 117.236C174.598 121.503 170.365 124.187 169.471 123.292Z" fill="#B2001A"/>
<path d="M169.471 107.911C170.4 107.016 174.563 109.7 178.83 113.967C183.097 118.234 185.712 122.398 184.886 123.292C184.06 124.187 179.794 121.468 175.561 117.236C171.329 113.004 168.576 108.805 169.471 107.911Z" fill="#B2001A"/>
<path d="M246.446 92.4949C245.552 91.6002 248.27 87.4365 252.502 83.1696C256.735 78.9028 260.933 76.2876 261.828 77.1134C262.722 77.9393 260.004 82.2061 255.771 86.4386C251.539 90.6711 247.341 93.4239 246.446 92.4949Z" fill="#B2001A"/>
<path d="M231.065 107.911C230.136 107.016 232.855 102.818 237.122 98.5854C241.389 94.353 245.552 91.7034 246.447 92.4948C247.341 93.2863 244.623 97.5876 240.39 101.854C236.158 106.121 231.96 108.805 231.065 107.911Z" fill="#B2001A"/>
<path d="M215.649 123.292C214.755 122.397 217.473 118.199 221.706 113.967C225.938 109.734 230.136 107.085 231.065 107.911C231.994 108.736 229.241 112.969 224.974 117.236C220.708 121.503 216.578 124.187 215.649 123.292Z" fill="#B2001A"/>
<path d="M194.198 86.4553C198.444 82.2089 201.157 78.0365 200.256 77.1361C199.356 76.2358 195.184 78.9484 190.937 83.1948C186.691 87.4412 183.978 91.6133 184.879 92.5136C185.779 93.414 189.951 90.7017 194.198 86.4553Z" fill="#B2001A"/>
<path d="M178.782 101.842C183.028 97.5954 185.741 93.423 184.84 92.5227C183.94 91.6223 179.768 94.3349 175.521 98.5813C171.275 102.828 168.562 107 169.462 107.9C170.363 108.801 174.535 106.088 178.782 101.842Z" fill="#B2001A"/>
<path d="M154.089 123.292C153.195 122.397 155.913 118.199 160.146 113.967C164.378 109.734 168.576 107.085 169.471 107.911C170.365 108.736 167.681 112.969 163.414 117.236C159.147 121.503 154.984 124.187 154.089 123.292Z" fill="#B2001A"/>
<path d="M200.268 123.292C200.268 122.019 203.709 120.987 207.976 120.987C212.243 120.987 215.65 122.019 215.65 123.292C215.65 124.565 212.209 125.598 207.976 125.598C203.744 125.598 200.268 124.565 200.268 123.292Z" fill="#B2001A"/>
<path d="M184.886 123.292C184.886 122.019 188.327 120.987 192.56 120.987C196.792 120.987 200.268 122.019 200.268 123.292C200.268 124.565 196.827 125.598 192.56 125.598C188.293 125.598 184.886 124.565 184.886 123.292Z" fill="#B2001A"/>
<path d="M169.471 123.292C169.471 122.019 172.912 120.987 177.179 120.987C181.445 120.987 184.886 122.019 184.886 123.292C184.886 124.565 181.445 125.598 177.179 125.598C172.912 125.598 169.471 124.565 169.471 123.292Z" fill="#B2001A"/>
<path d="M154.089 123.292C154.089 122.019 157.53 120.987 161.797 120.987C166.064 120.987 169.471 122.019 169.471 123.292C169.471 124.565 166.03 125.598 161.797 125.598C157.565 125.598 154.089 124.565 154.089 123.292Z" fill="#B2001A"/>
<path d="M246.447 77.1135C246.447 75.8403 249.887 74.808 254.12 74.808C258.352 74.808 261.828 75.8403 261.828 77.1135C261.828 78.3866 258.387 79.419 254.12 79.419C249.853 79.419 246.447 78.3866 246.447 77.1135Z" fill="#B2001A"/>
<path d="M231.065 77.1135C231.065 75.8403 234.506 74.808 238.739 74.808C242.971 74.808 246.446 75.8403 246.446 77.1135C246.446 78.3866 243.005 79.419 238.739 79.419C234.472 79.419 231.065 78.3866 231.065 77.1135Z" fill="#B2001A"/>
<path d="M215.649 77.1135C215.649 75.8403 219.09 74.808 223.357 74.808C227.624 74.808 231.065 75.8403 231.065 77.1135C231.065 78.3866 227.624 79.419 223.357 79.419C219.09 79.419 215.649 78.3866 215.649 77.1135Z" fill="#B2001A"/>
<path d="M200.268 77.1135C200.268 75.8403 203.709 74.808 207.976 74.808C212.243 74.808 215.65 75.8403 215.65 77.1135C215.65 78.3866 212.209 79.419 207.976 79.419C203.744 79.419 200.268 78.3866 200.268 77.1135Z" fill="#B2001A"/>
<path d="M200.268 169.471C201.162 168.576 205.361 171.294 209.593 175.527C213.826 179.759 216.475 183.957 215.65 184.852C214.824 185.747 210.591 183.028 206.324 178.796C202.057 174.563 199.373 170.331 200.268 169.471Z" fill="#B2001A"/>
<path d="M200.268 184.852C199.373 183.957 202.091 179.794 206.324 175.527C210.556 171.26 214.755 168.645 215.649 169.471C216.544 170.297 213.86 174.529 209.593 178.796C205.326 183.063 201.334 185.747 200.268 184.852Z" fill="#B2001A"/>
<path d="M215.633 169.431C216.534 168.531 213.821 164.359 209.575 160.112C205.328 155.866 201.156 153.153 200.256 154.054C199.355 154.954 202.068 159.126 206.314 163.373C210.561 167.619 214.733 170.332 215.633 169.431Z" fill="#B2001A"/>
<path d="M209.575 163.407C213.821 159.161 216.534 154.988 215.633 154.088C214.733 153.188 210.561 155.9 206.314 160.147C202.068 164.393 199.355 168.565 200.256 169.466C201.156 170.366 205.328 167.653 209.575 163.407Z" fill="#B2001A"/>
<path d="M215.649 169.471C216.578 168.576 220.742 171.294 224.974 175.527C229.207 179.759 231.857 183.957 231.065 184.852C230.274 185.747 225.973 183.028 221.706 178.796C217.439 174.563 214.755 170.331 215.649 169.471Z" fill="#B2001A"/>
<path d="M215.649 184.852C214.755 183.957 217.473 179.794 221.706 175.527C225.938 171.26 230.136 168.645 231.065 169.471C231.994 170.297 229.241 174.529 224.974 178.796C220.708 183.063 216.578 185.747 215.649 184.852Z" fill="#B2001A"/>
<path d="M231.065 169.471C231.96 168.576 236.123 171.294 240.39 175.527C244.657 179.759 247.272 183.957 246.446 184.852C245.62 185.747 241.354 183.028 237.121 178.796C232.889 174.563 230.136 170.331 231.065 169.471Z" fill="#B2001A"/>
<path d="M231.065 184.852C230.136 183.957 232.855 179.794 237.122 175.527C241.389 171.26 245.552 168.645 246.447 169.471C247.341 170.297 244.623 174.529 240.39 178.796C236.158 183.063 231.96 185.747 231.065 184.852Z" fill="#B2001A"/>
<path d="M215.649 154.089C216.578 153.16 220.742 155.879 224.974 160.146C229.207 164.412 231.857 168.576 231.065 169.471C230.274 170.365 225.973 167.647 221.706 163.415C217.439 159.182 214.755 154.984 215.649 154.089Z" fill="#B2001A"/>
<path d="M215.649 169.471C214.755 168.576 217.473 164.378 221.706 160.145C225.938 155.913 230.136 153.263 231.065 154.089C231.994 154.915 229.241 159.148 224.974 163.414C220.708 167.681 216.578 170.331 215.649 169.471Z" fill="#B2001A"/>
<path d="M200.268 138.674C201.162 137.779 205.361 140.497 209.593 144.73C213.826 148.962 216.475 153.16 215.65 154.089C214.824 155.018 210.591 152.266 206.324 147.999C202.057 143.732 199.373 139.568 200.268 138.674Z" fill="#B2001A"/>
<path d="M200.268 154.089C199.373 153.16 202.091 148.997 206.324 144.73C210.556 140.463 214.755 137.848 215.649 138.674C216.544 139.499 213.86 143.766 209.593 147.999C205.326 152.231 201.334 154.984 200.268 154.089Z" fill="#B2001A"/>
<path d="M184.886 154.089C185.781 153.16 189.945 155.879 194.212 160.146C198.479 164.412 201.093 168.576 200.268 169.471C199.442 170.365 195.175 167.647 190.942 163.415C186.71 159.182 184.129 154.984 184.886 154.089Z" fill="#B2001A"/>
<path d="M184.886 169.471C183.992 168.576 186.676 164.378 190.943 160.145C195.21 155.913 199.373 153.263 200.268 154.089C201.162 154.915 198.444 159.148 194.212 163.414C189.979 167.681 185.781 170.331 184.886 169.471Z" fill="#B2001A"/>
<path d="M184.886 138.674C185.781 137.779 189.945 140.497 194.212 144.73C198.479 148.962 201.093 153.16 200.268 154.089C199.442 155.018 195.175 152.266 190.942 147.999C186.71 143.732 184.129 139.568 184.886 138.674Z" fill="#B2001A"/>
<path d="M184.886 154.089C183.992 153.16 186.676 148.997 190.943 144.73C195.21 140.463 199.373 137.848 200.268 138.674C201.162 139.499 198.444 143.766 194.212 147.999C189.979 152.231 185.781 154.984 184.886 154.089Z" fill="#B2001A"/>
<path d="M169.471 138.674C170.4 137.779 174.563 140.497 178.83 144.73C183.097 148.962 185.712 153.16 184.886 154.089C184.06 155.018 179.794 152.266 175.561 147.999C171.329 143.732 168.576 139.568 169.471 138.674Z" fill="#B2001A"/>
<path d="M169.471 154.089C168.576 153.16 171.295 148.997 175.562 144.73C179.828 140.463 183.992 137.848 184.887 138.674C185.781 139.499 183.063 143.766 178.83 147.999C174.598 152.231 170.365 154.984 169.471 154.089Z" fill="#B2001A"/>
<path d="M246.447 169.471C247.341 168.576 251.505 171.294 255.772 175.527C260.038 179.759 262.654 183.957 261.828 184.852C261.002 185.747 256.77 183.028 252.503 178.796C248.236 174.563 245.552 170.331 246.447 169.471Z" fill="#B2001A"/>
<path d="M231.065 154.089C231.96 153.16 236.123 155.879 240.39 160.146C244.657 164.412 247.272 168.576 246.446 169.471C245.62 170.365 241.354 167.647 237.121 163.415C232.889 159.182 230.136 154.984 231.065 154.089Z" fill="#B2001A"/>
<path d="M215.649 138.674C216.578 137.779 220.742 140.497 224.974 144.73C229.207 148.962 231.857 153.16 231.065 154.089C230.274 155.018 225.973 152.266 221.706 147.999C217.439 143.732 214.755 139.568 215.649 138.674Z" fill="#B2001A"/>
<path d="M184.886 169.471C185.781 168.576 189.945 171.294 194.212 175.527C198.479 179.759 201.093 183.957 200.268 184.852C199.442 185.747 195.175 183.028 190.942 178.796C186.71 174.563 184.129 170.331 184.886 169.471Z" fill="#B2001A"/>
<path d="M169.471 154.089C170.4 153.16 174.563 155.879 178.83 160.146C183.097 164.412 185.712 168.576 184.886 169.471C184.06 170.365 179.794 167.647 175.561 163.415C171.329 159.182 168.576 154.984 169.471 154.089Z" fill="#B2001A"/>
<path d="M154.09 138.674C154.984 137.779 159.182 140.497 163.415 144.73C167.647 148.962 170.297 153.16 169.471 154.089C168.645 155.018 164.413 152.266 160.146 147.999C155.879 143.732 153.16 139.568 154.09 138.674Z" fill="#B2001A"/>
<path d="M207.941 140.979C212.198 140.979 215.649 139.947 215.649 138.674C215.649 137.4 212.198 136.368 207.941 136.368C203.684 136.368 200.233 137.4 200.233 138.674C200.233 139.947 203.684 140.979 207.941 140.979Z" fill="#B2001A"/>
<path d="M192.56 140.979C196.817 140.979 200.268 139.947 200.268 138.674C200.268 137.4 196.817 136.368 192.56 136.368C188.303 136.368 184.852 137.4 184.852 138.674C184.852 139.947 188.303 140.979 192.56 140.979Z" fill="#B2001A"/>
<path d="M177.179 140.979C181.436 140.979 184.887 139.947 184.887 138.674C184.887 137.4 181.436 136.368 177.179 136.368C172.922 136.368 169.471 137.4 169.471 138.674C169.471 139.947 172.922 140.979 177.179 140.979Z" fill="#B2001A"/>
<path d="M161.763 140.979C166.02 140.979 169.471 139.947 169.471 138.674C169.471 137.4 166.02 136.368 161.763 136.368C157.506 136.368 154.055 137.4 154.055 138.674C154.055 139.947 157.506 140.979 161.763 140.979Z" fill="#B2001A"/>
<path d="M254.12 187.158C258.377 187.158 261.828 186.125 261.828 184.852C261.828 183.579 258.377 182.547 254.12 182.547C249.863 182.547 246.412 183.579 246.412 184.852C246.412 186.125 249.863 187.158 254.12 187.158Z" fill="#B2001A"/>
<path d="M238.739 187.158C242.996 187.158 246.447 186.125 246.447 184.852C246.447 183.579 242.996 182.547 238.739 182.547C234.482 182.547 231.031 183.579 231.031 184.852C231.031 186.125 234.482 187.158 238.739 187.158Z" fill="#B2001A"/>
<path d="M223.323 187.158C227.58 187.158 231.031 186.125 231.031 184.852C231.031 183.579 227.58 182.547 223.323 182.547C219.066 182.547 215.615 183.579 215.615 184.852C215.615 186.125 219.066 187.158 223.323 187.158Z" fill="#B2001A"/>
<path d="M207.941 187.158C212.198 187.158 215.649 186.125 215.649 184.852C215.649 183.579 212.198 182.547 207.941 182.547C203.684 182.547 200.233 183.579 200.233 184.852C200.233 186.125 203.684 187.158 207.941 187.158Z" fill="#B2001A"/>
<path d="M117.224 117.226C121.47 112.98 124.183 108.808 123.283 107.907C122.382 107.007 118.21 109.719 113.964 113.966C109.717 118.212 107.005 122.384 107.905 123.285C108.805 124.185 112.978 121.473 117.224 117.226Z" fill="#B2001A"/>
<path d="M138.708 107.911C139.603 107.016 143.801 109.7 148.033 113.967C152.266 118.234 154.915 122.398 154.09 123.292C153.264 124.187 149.031 121.468 144.764 117.236C140.498 113.004 137.814 108.805 138.708 107.911Z" fill="#B2001A"/>
<path d="M154.089 138.708C155.362 138.708 156.395 135.257 156.395 131C156.395 126.743 155.362 123.292 154.089 123.292C152.816 123.292 151.784 126.743 151.784 131C151.784 135.257 152.816 138.708 154.089 138.708Z" fill="#B2001A"/>
<path d="M123.326 154.089C122.397 154.984 118.234 152.266 114.001 147.999C109.769 143.732 107.119 139.568 107.911 138.674C108.702 137.779 113.004 140.497 117.236 144.73C121.469 148.962 124.221 153.126 123.326 154.089Z" fill="#B2001A"/>
<path d="M138.708 154.089C137.813 153.16 140.532 148.997 144.764 144.73C148.997 140.463 153.195 137.848 154.089 138.674C154.984 139.499 152.3 143.766 148.033 147.999C143.766 152.231 139.603 154.984 138.708 154.089Z" fill="#B2001A"/>
<path d="M131 156.395C135.257 156.395 138.708 155.363 138.708 154.089C138.708 152.816 135.257 151.784 131 151.784C126.743 151.784 123.292 152.816 123.292 154.089C123.292 155.363 126.743 156.395 131 156.395Z" fill="#B2001A"/>
<path d="M138.708 107.911C138.708 109.184 135.267 110.216 131 110.216C126.733 110.216 123.326 109.184 123.326 107.911C123.326 106.638 126.768 105.605 131 105.605C135.233 105.605 138.708 106.638 138.708 107.911Z" fill="#B2001A"/>
<path d="M154.089 138.708C155.362 138.708 156.395 135.257 156.395 131C156.395 126.743 155.362 123.292 154.089 123.292C152.816 123.292 151.784 126.743 151.784 131C151.784 135.257 152.816 138.708 154.089 138.708Z" fill="#B2001A"/>
<path d="M107.911 138.674C106.638 138.674 105.605 135.233 105.605 131C105.605 126.768 106.638 123.292 107.911 123.292C109.184 123.292 110.216 126.733 110.216 131C110.216 135.267 109.184 138.674 107.911 138.674Z" fill="#B2001A"/>
</g>
<defs>
<clipPath id="clip0_1234_60551">
<rect width="262" height="262" fill="white"/>
</clipPath>
</defs>
</svg>
