<svg width="280" height="478" viewBox="0 0 280 478" fill="none" xmlns="http://www.w3.org/2000/svg">
<g clip-path="url(#clip0_1234_60145)">
<path d="M25.9097 37.2324C25.9097 33.9675 32.9449 31.3955 41.6601 31.3955C50.3753 31.3955 57.3054 33.9675 57.3054 37.2324C57.3054 40.4973 50.2703 43.1689 41.6601 43.1689C33.0499 43.1689 25.9097 40.5962 25.9097 37.2324Z" fill="#B2001A"/>
<path d="M41.6075 12.5583C50.2772 12.5583 57.3054 9.74702 57.3054 6.27915C57.3054 2.81127 50.2772 0 41.6075 0C32.9378 0 25.9097 2.81127 25.9097 6.27915C25.9097 9.74702 32.9378 12.5583 41.6075 12.5583Z" fill="#B2001A"/>
<path d="M57.3054 37.675C60.7733 37.675 63.5845 30.6469 63.5845 21.9772C63.5845 13.3075 60.7733 6.2793 57.3054 6.2793C53.8375 6.2793 51.0262 13.3075 51.0262 21.9772C51.0262 30.6469 53.8375 37.675 57.3054 37.675Z" fill="#B2001A"/>
<path d="M26.3021 37.675C29.5532 37.675 32.1888 30.6469 32.1888 21.9772C32.1888 13.3075 29.5532 6.2793 26.3021 6.2793C23.051 6.2793 20.4154 13.3075 20.4154 21.9772C20.4154 30.6469 23.051 37.675 26.3021 37.675Z" fill="#B2001A"/>
<path d="M25.9097 160.903C25.9097 157.449 32.9449 154.624 41.6601 154.624C50.3753 154.624 57.3054 157.449 57.3054 160.903C57.3054 164.357 50.2703 167.182 41.6601 167.182C33.0499 167.182 25.9097 164.671 25.9097 160.903Z" fill="#B2001A"/>
<path d="M41.6075 136.571C50.2772 136.571 57.3054 133.76 57.3054 130.292C57.3054 126.824 50.2772 124.013 41.6075 124.013C32.9378 124.013 25.9097 126.824 25.9097 130.292C25.9097 133.76 32.9378 136.571 41.6075 136.571Z" fill="#B2001A"/>
<path d="M57.3054 161.688C60.7733 161.688 63.5845 154.66 63.5845 145.99C63.5845 137.321 60.7733 130.292 57.3054 130.292C53.8375 130.292 51.0262 137.321 51.0262 145.99C51.0262 154.66 53.8375 161.688 57.3054 161.688Z" fill="#B2001A"/>
<path d="M26.3021 161.688C29.5532 161.688 32.1888 154.66 32.1888 145.99C32.1888 137.321 29.5532 130.292 26.3021 130.292C23.051 130.292 20.4154 137.321 20.4154 145.99C20.4154 154.66 23.051 161.688 26.3021 161.688Z" fill="#B2001A"/>
<path d="M-4.7012 98.8967C-8.15487 98.8967 -10.9803 91.8615 -10.9803 83.1463C-10.9803 74.4311 -8.15487 67.501 -4.7012 67.501C-1.24753 67.501 1.57795 74.5361 1.57795 83.1463C1.57795 91.7565 -1.24753 98.8967 -4.7012 98.8967Z" fill="#B2001A"/>
<path d="M26.3021 68.2854C29.5532 68.2854 32.1888 61.2572 32.1888 52.5875C32.1888 43.9178 29.5532 36.8896 26.3021 36.8896C23.051 36.8896 20.4154 43.9178 20.4154 52.5875C20.4154 61.2572 23.051 68.2854 26.3021 68.2854Z" fill="#B2001A"/>
<path d="M-4.7012 68.2854C-1.23333 68.2854 1.57795 61.2572 1.57795 52.5875C1.57795 43.9178 -1.23333 36.8896 -4.7012 36.8896C-8.16908 36.8896 -10.9803 43.9178 -10.9803 52.5875C-10.9803 61.2572 -8.16908 68.2854 -4.7012 68.2854Z" fill="#B2001A"/>
<path d="M25.9097 37.2324C25.9097 40.4973 19.0504 43.1689 10.553 43.1689C2.05566 43.1689 -4.70117 40.4973 -4.70117 37.2324C-4.70117 33.9675 2.15804 31.3955 10.553 31.3955C18.948 31.3955 25.9097 33.9675 25.9097 37.2324Z" fill="#B2001A"/>
<path d="M10.6042 74.5651C19.0572 74.5651 25.9097 71.7539 25.9097 68.286C25.9097 64.8181 19.0572 62.0068 10.6042 62.0068C2.1513 62.0068 -4.70117 64.8181 -4.70117 68.286C-4.70117 71.7539 2.1513 74.5651 10.6042 74.5651Z" fill="#B2001A"/>
<path d="M88.3086 68.2854C91.5597 68.2854 94.1953 61.2572 94.1953 52.5875C94.1953 43.9178 91.5597 36.8896 88.3086 36.8896C85.0574 36.8896 82.4219 43.9178 82.4219 52.5875C82.4219 61.2572 85.0574 68.2854 88.3086 68.2854Z" fill="#B2001A"/>
<path d="M57.3054 68.2854C60.7733 68.2854 63.5845 61.2572 63.5845 52.5875C63.5845 43.9178 60.7733 36.8896 57.3054 36.8896C53.8375 36.8896 51.0262 43.9178 51.0262 52.5875C51.0262 61.2572 53.8375 68.2854 57.3054 68.2854Z" fill="#B2001A"/>
<path d="M87.9163 37.2324C87.9163 40.4973 81.0798 43.1689 72.6108 43.1689C64.1418 43.1689 57.3054 40.4973 57.3054 37.2324C57.3054 33.9675 64.1418 31.3955 72.6108 31.3955C81.0798 31.3955 87.9163 33.9675 87.9163 37.2324Z" fill="#B2001A"/>
<path d="M73.0033 74.5651C81.673 74.5651 88.7011 71.7539 88.7011 68.286C88.7011 64.8181 81.673 62.0068 73.0033 62.0068C64.3336 62.0068 57.3054 64.8181 57.3054 68.286C57.3054 71.7539 64.3336 74.5651 73.0033 74.5651Z" fill="#B2001A"/>
<path d="M26.3021 130.292C29.5532 130.292 32.1888 123.264 32.1888 114.594C32.1888 105.925 29.5532 98.8965 26.3021 98.8965C23.051 98.8965 20.4154 105.925 20.4154 114.594C20.4154 123.264 23.051 130.292 26.3021 130.292Z" fill="#B2001A"/>
<path d="M-4.7012 130.292C-1.23333 130.292 1.57795 123.264 1.57795 114.594C1.57795 105.925 -1.23333 98.8965 -4.7012 98.8965C-8.16908 98.8965 -10.9803 105.925 -10.9803 114.594C-10.9803 123.264 -8.16908 130.292 -4.7012 130.292Z" fill="#B2001A"/>
<path d="M10.6042 105.176C19.0572 105.176 25.9097 102.54 25.9097 99.289C25.9097 96.0379 19.0572 93.4023 10.6042 93.4023C2.1513 93.4023 -4.70117 96.0379 -4.70117 99.289C-4.70117 102.54 2.1513 105.176 10.6042 105.176Z" fill="#B2001A"/>
<path d="M25.9097 129.9C25.9097 133.138 19.0504 135.787 10.553 135.787C2.05566 135.787 -4.70117 133.138 -4.70117 129.9C-4.70117 126.662 2.15804 124.013 10.553 124.013C18.948 124.013 25.9097 126.956 25.9097 129.9Z" fill="#B2001A"/>
<path d="M88.3086 130.292C91.5597 130.292 94.1953 123.264 94.1953 114.594C94.1953 105.925 91.5597 98.8965 88.3086 98.8965C85.0574 98.8965 82.4219 105.925 82.4219 114.594C82.4219 123.264 85.0574 130.292 88.3086 130.292Z" fill="#B2001A"/>
<path d="M57.3054 130.292C60.7733 130.292 63.5845 123.264 63.5845 114.594C63.5845 105.925 60.7733 98.8965 57.3054 98.8965C53.8375 98.8965 51.0262 105.925 51.0262 114.594C51.0262 123.264 53.8375 130.292 57.3054 130.292Z" fill="#B2001A"/>
<path d="M73.0033 105.176C81.673 105.176 88.7011 102.54 88.7011 99.289C88.7011 96.0379 81.673 93.4023 73.0033 93.4023C64.3336 93.4023 57.3054 96.0379 57.3054 99.289C57.3054 102.54 64.3336 105.176 73.0033 105.176Z" fill="#B2001A"/>
<path d="M87.9163 129.9C87.9163 133.138 81.0798 135.787 72.6108 135.787C64.1418 135.787 57.3054 133.138 57.3054 129.9C57.3054 126.662 64.1418 124.013 72.6108 124.013C81.0798 124.013 87.9163 126.956 87.9163 129.9Z" fill="#B2001A"/>
<path d="M119.311 98.8967C115.858 98.8967 113.033 91.8615 113.033 83.1463C113.033 74.4311 115.858 67.501 119.311 67.501C122.765 67.501 125.591 74.5361 125.591 83.1463C125.591 91.7565 122.765 98.8967 119.311 98.8967Z" fill="#B2001A"/>
<path d="M88.3575 98.8967C85.0928 98.8967 82.4219 91.8615 82.4219 83.1463C82.4219 74.4311 85.0928 67.501 88.3575 67.501C91.6222 67.501 94.1953 74.5361 94.1953 83.1463C94.1953 91.7565 91.6222 98.8967 88.3575 98.8967Z" fill="#B2001A"/>
<path d="M103.614 74.5651C112.284 74.5651 119.312 71.7539 119.312 68.286C119.312 64.8181 112.284 62.0068 103.614 62.0068C94.9444 62.0068 87.9163 64.8181 87.9163 68.286C87.9163 71.7539 94.9444 74.5651 103.614 74.5651Z" fill="#B2001A"/>
<path d="M103.614 105.176C112.284 105.176 119.312 102.54 119.312 99.289C119.312 96.0379 112.284 93.4023 103.614 93.4023C94.9444 93.4023 87.9163 96.0379 87.9163 99.289C87.9163 102.54 94.9444 105.176 103.614 105.176Z" fill="#B2001A"/>
<path d="M25.9097 347.365C25.9097 344.001 32.9449 341.429 41.6601 341.429C50.3753 341.429 57.3054 344.001 57.3054 347.365C57.3054 350.728 50.2703 353.202 41.6601 353.202C33.0499 353.202 25.9097 350.531 25.9097 347.365Z" fill="#B2001A"/>
<path d="M41.6075 322.591C50.2772 322.591 57.3054 319.78 57.3054 316.312C57.3054 312.844 50.2772 310.033 41.6075 310.033C32.9378 310.033 25.9097 312.844 25.9097 316.312C25.9097 319.78 32.9378 322.591 41.6075 322.591Z" fill="#B2001A"/>
<path d="M57.3054 347.708C60.7733 347.708 63.5845 340.68 63.5845 332.01C63.5845 323.34 60.7733 316.312 57.3054 316.312C53.8375 316.312 51.0262 323.34 51.0262 332.01C51.0262 340.68 53.8375 347.708 57.3054 347.708Z" fill="#B2001A"/>
<path d="M26.3021 347.708C29.5532 347.708 32.1888 340.68 32.1888 332.01C32.1888 323.34 29.5532 316.312 26.3021 316.312C23.051 316.312 20.4154 323.34 20.4154 332.01C20.4154 340.68 23.051 347.708 26.3021 347.708Z" fill="#B2001A"/>
<path d="M25.9097 471.721C25.9097 468.267 32.9449 465.442 41.6601 465.442C50.3753 465.442 57.3054 468.267 57.3054 471.721C57.3054 475.175 50.2703 478 41.6601 478C33.0499 478 25.9097 474.756 25.9097 471.721Z" fill="#B2001A"/>
<path d="M25.9097 440.669C25.9097 437.404 32.9449 434.831 41.6601 434.831C50.3753 434.831 57.3054 437.404 57.3054 440.669C57.3054 443.933 50.2703 446.604 41.6601 446.604C33.0499 446.604 25.9097 443.538 25.9097 440.669Z" fill="#B2001A"/>
<path d="M57.3054 471.721C60.7733 471.721 63.5845 464.693 63.5845 456.023C63.5845 447.353 60.7733 440.325 57.3054 440.325C53.8375 440.325 51.0262 447.353 51.0262 456.023C51.0262 464.693 53.8375 471.721 57.3054 471.721Z" fill="#B2001A"/>
<path d="M26.3021 471.721C29.5532 471.721 32.1888 464.693 32.1888 456.023C32.1888 447.353 29.5532 440.325 26.3021 440.325C23.051 440.325 20.4154 447.353 20.4154 456.023C20.4154 464.693 23.051 471.721 26.3021 471.721Z" fill="#B2001A"/>
<path d="M-4.7012 408.929C-1.23333 408.929 1.57795 402.077 1.57795 393.624C1.57795 385.171 -1.23333 378.318 -4.7012 378.318C-8.16908 378.318 -10.9803 385.171 -10.9803 393.624C-10.9803 402.077 -8.16908 408.929 -4.7012 408.929Z" fill="#B2001A"/>
<path d="M26.3021 378.319C29.5532 378.319 32.1888 371.29 32.1888 362.621C32.1888 353.951 29.5532 346.923 26.3021 346.923C23.051 346.923 20.4154 353.951 20.4154 362.621C20.4154 371.29 23.051 378.319 26.3021 378.319Z" fill="#B2001A"/>
<path d="M-4.7012 378.319C-1.23333 378.319 1.57795 371.29 1.57795 362.621C1.57795 353.951 -1.23333 346.923 -4.7012 346.923C-8.16908 346.923 -10.9803 353.951 -10.9803 362.621C-10.9803 371.29 -8.16908 378.319 -4.7012 378.319Z" fill="#B2001A"/>
<path d="M25.9097 347.655C25.9097 351.243 19.0504 353.987 10.553 353.987C2.05566 353.987 -4.70117 351.243 -4.70117 347.655C-4.70117 344.067 2.15804 341.429 10.553 341.429C18.948 341.429 25.9097 343.962 25.9097 347.655Z" fill="#B2001A"/>
<path d="M25.9097 378.319C25.9097 381.772 19.0504 384.598 10.553 384.598C2.05566 384.598 -4.70117 381.772 -4.70117 378.319C-4.70117 374.865 2.15804 372.04 10.553 372.04C18.948 372.04 25.9097 374.656 25.9097 378.319Z" fill="#B2001A"/>
<path d="M88.3086 378.319C91.5597 378.319 94.1953 371.29 94.1953 362.621C94.1953 353.951 91.5597 346.923 88.3086 346.923C85.0574 346.923 82.4219 353.951 82.4219 362.621C82.4219 371.29 85.0574 378.319 88.3086 378.319Z" fill="#B2001A"/>
<path d="M57.3054 378.319C60.7733 378.319 63.5845 371.29 63.5845 362.621C63.5845 353.951 60.7733 346.923 57.3054 346.923C53.8375 346.923 51.0262 353.951 51.0262 362.621C51.0262 371.29 53.8375 378.319 57.3054 378.319Z" fill="#B2001A"/>
<path d="M87.9163 347.655C87.9163 351.243 81.0798 353.987 72.6108 353.987C64.1418 353.987 57.3054 351.243 57.3054 347.655C57.3054 344.067 64.1418 341.429 72.6108 341.429C81.0798 341.429 87.9163 343.962 87.9163 347.655Z" fill="#B2001A"/>
<path d="M87.9163 378.319C87.9163 381.772 81.0798 384.598 72.6108 384.598C64.1418 384.598 57.3054 381.772 57.3054 378.319C57.3054 374.865 64.1418 372.04 72.6108 372.04C81.0798 372.04 87.9163 374.656 87.9163 378.319Z" fill="#B2001A"/>
<path d="M26.3021 440.325C29.5532 440.325 32.1888 433.297 32.1888 424.627C32.1888 415.957 29.5532 408.929 26.3021 408.929C23.051 408.929 20.4154 415.957 20.4154 424.627C20.4154 433.297 23.051 440.325 26.3021 440.325Z" fill="#B2001A"/>
<path d="M-4.7012 440.325C-1.23333 440.325 1.57795 433.297 1.57795 424.627C1.57795 415.957 -1.23333 408.929 -4.7012 408.929C-8.16908 408.929 -10.9803 415.957 -10.9803 424.627C-10.9803 433.297 -8.16908 440.325 -4.7012 440.325Z" fill="#B2001A"/>
<path d="M25.9097 409.714C25.9097 413.168 19.0504 415.993 10.553 415.993C2.05566 415.993 -4.70117 413.168 -4.70117 409.714C-4.70117 406.261 2.15804 403.435 10.553 403.435C18.948 403.435 25.9097 405.947 25.9097 409.714Z" fill="#B2001A"/>
<path d="M10.6042 446.604C19.0572 446.604 25.9097 443.793 25.9097 440.325C25.9097 436.857 19.0572 434.046 10.6042 434.046C2.1513 434.046 -4.70117 436.857 -4.70117 440.325C-4.70117 443.793 2.1513 446.604 10.6042 446.604Z" fill="#B2001A"/>
<path d="M88.3086 440.325C91.5597 440.325 94.1953 433.297 94.1953 424.627C94.1953 415.957 91.5597 408.929 88.3086 408.929C85.0574 408.929 82.4219 415.957 82.4219 424.627C82.4219 433.297 85.0574 440.325 88.3086 440.325Z" fill="#B2001A"/>
<path d="M57.3054 440.325C60.7733 440.325 63.5845 433.297 63.5845 424.627C63.5845 415.957 60.7733 408.929 57.3054 408.929C53.8375 408.929 51.0262 415.957 51.0262 424.627C51.0262 433.297 53.8375 440.325 57.3054 440.325Z" fill="#B2001A"/>
<path d="M87.9163 409.714C87.9163 413.168 81.0798 415.993 72.6108 415.993C64.1418 415.993 57.3054 413.168 57.3054 409.714C57.3054 406.261 64.1418 403.435 72.6108 403.435C81.0798 403.435 87.9163 405.947 87.9163 409.714Z" fill="#B2001A"/>
<path d="M73.0033 446.604C81.673 446.604 88.7011 443.793 88.7011 440.325C88.7011 436.857 81.673 434.046 73.0033 434.046C64.3336 434.046 57.3054 436.857 57.3054 440.325C57.3054 443.793 64.3336 446.604 73.0033 446.604Z" fill="#B2001A"/>
<path d="M119.312 408.929C122.78 408.929 125.591 402.077 125.591 393.624C125.591 385.171 122.78 378.318 119.312 378.318C115.844 378.318 113.033 385.171 113.033 393.624C113.033 402.077 115.844 408.929 119.312 408.929Z" fill="#B2001A"/>
<path d="M88.3086 408.929C91.5597 408.929 94.1953 402.077 94.1953 393.624C94.1953 385.171 91.5597 378.318 88.3086 378.318C85.0574 378.318 82.4219 385.171 82.4219 393.624C82.4219 402.077 85.0574 408.929 88.3086 408.929Z" fill="#B2001A"/>
<path d="M119.312 378.319C119.312 381.772 112.453 384.598 103.955 384.598C95.458 384.598 88.7012 381.772 88.7012 378.319C88.7012 374.865 95.5604 372.04 103.955 372.04C112.35 372.04 119.312 374.656 119.312 378.319Z" fill="#B2001A"/>
<path d="M103.614 415.208C112.284 415.208 119.312 412.573 119.312 409.322C119.312 406.071 112.284 403.435 103.614 403.435C94.9444 403.435 87.9163 406.071 87.9163 409.322C87.9163 412.573 94.9444 415.208 103.614 415.208Z" fill="#B2001A"/>
<path d="M150.315 254.305C153.566 254.305 156.202 247.277 156.202 238.608C156.202 229.938 153.566 222.91 150.315 222.91C147.064 222.91 144.428 229.938 144.428 238.608C144.428 247.277 147.064 254.305 150.315 254.305Z" fill="#B2001A"/>
<path d="M119.312 254.305C122.78 254.305 125.591 247.277 125.591 238.608C125.591 229.938 122.78 222.91 119.312 222.91C115.844 222.91 113.033 229.938 113.033 238.608C113.033 247.277 115.844 254.305 119.312 254.305Z" fill="#B2001A"/>
<path d="M135.01 229.189C143.68 229.189 150.708 226.553 150.708 223.302C150.708 220.051 143.68 217.416 135.01 217.416C126.34 217.416 119.312 220.051 119.312 223.302C119.312 226.553 126.34 229.189 135.01 229.189Z" fill="#B2001A"/>
<path d="M149.923 254.358C149.923 257.841 143.063 260.585 134.668 260.585C126.273 260.585 119.312 257.841 119.312 254.358C119.312 250.875 126.171 248.026 134.668 248.026C143.165 248.026 149.923 250.981 149.923 254.358Z" fill="#B2001A"/>
<path d="M274.328 254.305C277.58 254.305 280.215 247.277 280.215 238.608C280.215 229.938 277.58 222.91 274.328 222.91C271.077 222.91 268.442 229.938 268.442 238.608C268.442 247.277 271.077 254.305 274.328 254.305Z" fill="#B2001A"/>
<path d="M243.325 254.305C246.793 254.305 249.604 247.277 249.604 238.608C249.604 229.938 246.793 222.91 243.325 222.91C239.857 222.91 237.046 229.938 237.046 238.608C237.046 247.277 239.857 254.305 243.325 254.305Z" fill="#B2001A"/>
<path d="M259.023 229.189C267.693 229.189 274.721 226.553 274.721 223.302C274.721 220.051 267.693 217.416 259.023 217.416C250.353 217.416 243.325 220.051 243.325 223.302C243.325 226.553 250.353 229.189 259.023 229.189Z" fill="#B2001A"/>
<path d="M273.936 254.358C273.936 257.841 267.077 260.585 258.682 260.585C250.287 260.585 243.325 257.841 243.325 254.358C243.325 250.875 250.185 248.026 258.682 248.026C267.179 248.026 273.936 250.981 273.936 254.358Z" fill="#B2001A"/>
<path d="M211.929 285.309C211.929 288.546 205.07 291.195 196.573 291.195C188.075 291.195 181.319 288.546 181.319 285.309C181.319 282.071 188.178 279.422 196.573 279.422C204.968 279.422 211.929 282.071 211.929 285.309Z" fill="#B2001A"/>
<path d="M196.624 322.591C205.077 322.591 211.929 319.78 211.929 316.312C211.929 312.844 205.077 310.033 196.624 310.033C188.171 310.033 181.319 312.844 181.319 316.312C181.319 319.78 188.171 322.591 196.624 322.591Z" fill="#B2001A"/>
<path d="M181.318 316.312C184.786 316.312 187.598 309.284 187.598 300.614C187.598 291.944 184.786 284.916 181.318 284.916C177.851 284.916 175.039 291.944 175.039 300.614C175.039 309.284 177.851 316.312 181.318 316.312Z" fill="#B2001A"/>
<path d="M212.322 316.312C215.573 316.312 218.208 309.284 218.208 300.614C218.208 291.944 215.573 284.916 212.322 284.916C209.071 284.916 206.435 291.944 206.435 300.614C206.435 309.284 209.071 316.312 212.322 316.312Z" fill="#B2001A"/>
<path d="M165.621 260.585C174.29 260.585 181.319 257.773 181.319 254.306C181.319 250.838 174.29 248.026 165.621 248.026C156.951 248.026 149.923 250.838 149.923 254.306C149.923 257.773 156.951 260.585 165.621 260.585Z" fill="#B2001A"/>
<path d="M165.621 291.195C174.29 291.195 181.319 288.56 181.319 285.309C181.319 282.057 174.29 279.422 165.621 279.422C156.951 279.422 149.923 282.057 149.923 285.309C149.923 288.56 156.951 291.195 165.621 291.195Z" fill="#B2001A"/>
<path d="M150.315 284.917C153.566 284.917 156.202 278.064 156.202 269.611C156.202 261.158 153.566 254.306 150.315 254.306C147.064 254.306 144.428 261.158 144.428 269.611C144.428 278.064 147.064 284.917 150.315 284.917Z" fill="#B2001A"/>
<path d="M181.318 284.917C184.786 284.917 187.598 278.064 187.598 269.611C187.598 261.158 184.786 254.306 181.318 254.306C177.851 254.306 175.039 261.158 175.039 269.611C175.039 278.064 177.851 284.917 181.318 284.917Z" fill="#B2001A"/>
<path d="M165.621 198.578C174.29 198.578 181.319 195.767 181.319 192.299C181.319 188.831 174.29 186.02 165.621 186.02C156.951 186.02 149.923 188.831 149.923 192.299C149.923 195.767 156.951 198.578 165.621 198.578Z" fill="#B2001A"/>
<path d="M181.319 222.91C181.319 226.363 174.307 229.189 165.621 229.189C156.935 229.189 149.923 226.363 149.923 222.91C149.923 219.456 156.935 216.63 165.621 216.63C174.307 216.63 181.319 219.561 181.319 222.91Z" fill="#B2001A"/>
<path d="M150.315 222.91C153.566 222.91 156.202 216.057 156.202 207.604C156.202 199.151 153.566 192.299 150.315 192.299C147.064 192.299 144.428 199.151 144.428 207.604C144.428 216.057 147.064 222.91 150.315 222.91Z" fill="#B2001A"/>
<path d="M181.318 222.91C184.786 222.91 187.598 216.057 187.598 207.604C187.598 199.151 184.786 192.299 181.318 192.299C177.851 192.299 175.039 199.151 175.039 207.604C175.039 216.057 177.851 222.91 181.318 222.91Z" fill="#B2001A"/>
<path d="M227.627 260.585C236.297 260.585 243.325 257.773 243.325 254.306C243.325 250.838 236.297 248.026 227.627 248.026C218.958 248.026 211.929 250.838 211.929 254.306C211.929 257.773 218.958 260.585 227.627 260.585Z" fill="#B2001A"/>
<path d="M227.627 291.195C236.297 291.195 243.325 288.56 243.325 285.309C243.325 282.057 236.297 279.422 227.627 279.422C218.958 279.422 211.929 282.057 211.929 285.309C211.929 288.56 218.958 291.195 227.627 291.195Z" fill="#B2001A"/>
<path d="M212.322 284.917C215.573 284.917 218.208 278.064 218.208 269.611C218.208 261.158 215.573 254.306 212.322 254.306C209.071 254.306 206.435 261.158 206.435 269.611C206.435 278.064 209.071 284.917 212.322 284.917Z" fill="#B2001A"/>
<path d="M243.325 284.917C246.793 284.917 249.604 278.064 249.604 269.611C249.604 261.158 246.793 254.306 243.325 254.306C239.857 254.306 237.046 261.158 237.046 269.611C237.046 278.064 239.857 284.917 243.325 284.917Z" fill="#B2001A"/>
<path d="M227.627 198.578C236.297 198.578 243.325 195.767 243.325 192.299C243.325 188.831 236.297 186.02 227.627 186.02C218.958 186.02 211.929 188.831 211.929 192.299C211.929 195.767 218.958 198.578 227.627 198.578Z" fill="#B2001A"/>
<path d="M243.325 222.91C243.325 226.363 236.29 229.189 227.68 229.189C219.07 229.189 211.929 226.363 211.929 222.91C211.929 219.456 218.965 216.63 227.68 216.63C236.395 216.63 243.325 219.561 243.325 222.91Z" fill="#B2001A"/>
<path d="M212.322 222.91C215.573 222.91 218.208 216.057 218.208 207.604C218.208 199.151 215.573 192.299 212.322 192.299C209.071 192.299 206.435 199.151 206.435 207.604C206.435 216.057 209.071 222.91 212.322 222.91Z" fill="#B2001A"/>
<path d="M243.325 222.91C246.793 222.91 249.604 216.057 249.604 207.604C249.604 199.151 246.793 192.299 243.325 192.299C239.857 192.299 237.046 199.151 237.046 207.604C237.046 216.057 239.857 222.91 243.325 222.91Z" fill="#B2001A"/>
<path d="M211.929 160.903C211.929 164.357 205.07 167.182 196.573 167.182C188.075 167.182 181.319 164.357 181.319 160.903C181.319 157.449 188.178 154.624 196.573 154.624C204.968 154.624 211.929 157.763 211.929 160.903Z" fill="#B2001A"/>
<path d="M211.929 192.299C211.929 195.752 205.07 198.578 196.573 198.578C188.075 198.578 181.319 195.752 181.319 192.299C181.319 188.845 188.178 186.02 196.573 186.02C204.968 186.02 211.929 189.054 211.929 192.299Z" fill="#B2001A"/>
<path d="M181.318 192.299C184.786 192.299 187.598 185.271 187.598 176.601C187.598 167.931 184.786 160.903 181.318 160.903C177.851 160.903 175.039 167.931 175.039 176.601C175.039 185.271 177.851 192.299 181.318 192.299Z" fill="#B2001A"/>
<path d="M212.322 192.299C215.573 192.299 218.208 185.271 218.208 176.601C218.208 167.931 215.573 160.903 212.322 160.903C209.071 160.903 206.435 167.931 206.435 176.601C206.435 185.271 209.071 192.299 212.322 192.299Z" fill="#B2001A"/>
<path d="M-6.2709 254.305C-2.80303 254.305 0.00824356 247.277 0.00824356 238.608C0.00824356 229.938 -2.80303 222.91 -6.2709 222.91C-9.73878 222.91 -12.55 229.938 -12.55 238.608C-12.55 247.277 -9.73878 254.305 -6.2709 254.305Z" fill="#B2001A"/>
<path d="M117.742 254.305C121.21 254.305 124.021 247.277 124.021 238.608C124.021 229.938 121.21 222.91 117.742 222.91C114.274 222.91 111.463 229.938 111.463 238.608C111.463 247.277 114.274 254.305 117.742 254.305Z" fill="#B2001A"/>
<path d="M87.1314 254.305C90.5993 254.305 93.4106 247.277 93.4106 238.608C93.4106 229.938 90.5993 222.91 87.1314 222.91C83.6636 222.91 80.8523 229.938 80.8523 238.608C80.8523 247.277 83.6636 254.305 87.1314 254.305Z" fill="#B2001A"/>
<path d="M102.437 229.189C110.89 229.189 117.742 226.553 117.742 223.302C117.742 220.051 110.89 217.416 102.437 217.416C93.9838 217.416 87.1313 220.051 87.1313 223.302C87.1313 226.553 93.9838 229.189 102.437 229.189Z" fill="#B2001A"/>
<path d="M117.742 254.358C117.742 257.841 110.883 260.585 102.386 260.585C93.8882 260.585 87.1313 257.841 87.1313 254.358C87.1313 250.875 93.9906 248.026 102.386 248.026C110.781 248.026 117.742 250.981 117.742 254.358Z" fill="#B2001A"/>
<path d="M55.7356 285.309C55.7356 288.546 48.8992 291.195 40.4302 291.195C31.9612 291.195 25.1248 288.546 25.1248 285.309C25.1248 282.071 31.9612 279.422 40.4302 279.422C48.8992 279.422 55.7356 282.071 55.7356 285.309Z" fill="#B2001A"/>
<path d="M40.4302 322.591C48.8831 322.591 55.7356 319.78 55.7356 316.312C55.7356 312.844 48.8831 310.033 40.4302 310.033C31.9772 310.033 25.1248 312.844 25.1248 316.312C25.1248 319.78 31.9772 322.591 40.4302 322.591Z" fill="#B2001A"/>
<path d="M25.1248 316.312C28.5927 316.312 31.404 309.284 31.404 300.614C31.404 291.944 28.5927 284.916 25.1248 284.916C21.657 284.916 18.8457 291.944 18.8457 300.614C18.8457 309.284 21.657 316.312 25.1248 316.312Z" fill="#B2001A"/>
<path d="M55.7357 316.312C59.2036 316.312 62.0148 309.284 62.0148 300.614C62.0148 291.944 59.2036 284.916 55.7357 284.916C52.2678 284.916 49.4565 291.944 49.4565 300.614C49.4565 309.284 52.2678 316.312 55.7357 316.312Z" fill="#B2001A"/>
<path d="M9.42687 260.585C18.0966 260.585 25.1247 257.773 25.1247 254.306C25.1247 250.838 18.0966 248.026 9.42687 248.026C0.757177 248.026 -6.271 250.838 -6.271 254.306C-6.271 257.773 0.757177 260.585 9.42687 260.585Z" fill="#B2001A"/>
<path d="M9.42687 291.195C18.0966 291.195 25.1247 288.56 25.1247 285.309C25.1247 282.057 18.0966 279.422 9.42687 279.422C0.757177 279.422 -6.271 282.057 -6.271 285.309C-6.271 288.56 0.757177 291.195 9.42687 291.195Z" fill="#B2001A"/>
<path d="M-6.2709 284.917C-2.80303 284.917 0.00824356 278.064 0.00824356 269.611C0.00824356 261.158 -2.80303 254.306 -6.2709 254.306C-9.73878 254.306 -12.55 261.158 -12.55 269.611C-12.55 278.064 -9.73878 284.917 -6.2709 284.917Z" fill="#B2001A"/>
<path d="M25.1248 284.917C28.5927 284.917 31.404 278.064 31.404 269.611C31.404 261.158 28.5927 254.306 25.1248 254.306C21.657 254.306 18.8457 261.158 18.8457 269.611C18.8457 278.064 21.657 284.917 25.1248 284.917Z" fill="#B2001A"/>
<path d="M9.42687 198.578C18.0966 198.578 25.1247 195.767 25.1247 192.299C25.1247 188.831 18.0966 186.02 9.42687 186.02C0.757177 186.02 -6.271 188.831 -6.271 192.299C-6.271 195.767 0.757177 198.578 9.42687 198.578Z" fill="#B2001A"/>
<path d="M25.1247 222.91C25.1247 226.363 18.0896 229.189 9.47942 229.189C0.869194 229.189 -6.271 226.363 -6.271 222.91C-6.271 219.456 0.764191 216.63 9.47942 216.63C18.1947 216.63 25.1247 219.561 25.1247 222.91Z" fill="#B2001A"/>
<path d="M-6.2709 222.91C-2.80303 222.91 0.00824356 216.057 0.00824356 207.604C0.00824356 199.151 -2.80303 192.299 -6.2709 192.299C-9.73878 192.299 -12.55 199.151 -12.55 207.604C-12.55 216.057 -9.73878 222.91 -6.2709 222.91Z" fill="#B2001A"/>
<path d="M25.1248 222.91C28.5927 222.91 31.404 216.057 31.404 207.604C31.404 199.151 28.5927 192.299 25.1248 192.299C21.657 192.299 18.8457 199.151 18.8457 207.604C18.8457 216.057 21.657 222.91 25.1248 222.91Z" fill="#B2001A"/>
<path d="M71.4335 260.585C80.1032 260.585 87.1313 257.773 87.1313 254.306C87.1313 250.838 80.1032 248.026 71.4335 248.026C62.7638 248.026 55.7356 250.838 55.7356 254.306C55.7356 257.773 62.7638 260.585 71.4335 260.585Z" fill="#B2001A"/>
<path d="M71.4335 291.195C80.1032 291.195 87.1313 288.56 87.1313 285.309C87.1313 282.057 80.1032 279.422 71.4335 279.422C62.7638 279.422 55.7356 282.057 55.7356 285.309C55.7356 288.56 62.7638 291.195 71.4335 291.195Z" fill="#B2001A"/>
<path d="M55.7357 284.917C59.2036 284.917 62.0148 278.064 62.0148 269.611C62.0148 261.158 59.2036 254.306 55.7357 254.306C52.2678 254.306 49.4565 261.158 49.4565 269.611C49.4565 278.064 52.2678 284.917 55.7357 284.917Z" fill="#B2001A"/>
<path d="M87.1314 284.917C90.5993 284.917 93.4106 278.064 93.4106 269.611C93.4106 261.158 90.5993 254.306 87.1314 254.306C83.6636 254.306 80.8523 261.158 80.8523 269.611C80.8523 278.064 83.6636 284.917 87.1314 284.917Z" fill="#B2001A"/>
<path d="M71.4335 198.578C80.1032 198.578 87.1313 195.767 87.1313 192.299C87.1313 188.831 80.1032 186.02 71.4335 186.02C62.7638 186.02 55.7356 188.831 55.7356 192.299C55.7356 195.767 62.7638 198.578 71.4335 198.578Z" fill="#B2001A"/>
<path d="M87.1313 222.91C87.1313 226.363 80.0961 229.189 71.3809 229.189C62.6657 229.189 55.7356 226.363 55.7356 222.91C55.7356 219.456 62.7707 216.63 71.3809 216.63C79.9911 216.63 87.1313 219.561 87.1313 222.91Z" fill="#B2001A"/>
<path d="M55.7357 222.91C59.2036 222.91 62.0148 216.057 62.0148 207.604C62.0148 199.151 59.2036 192.299 55.7357 192.299C52.2678 192.299 49.4565 199.151 49.4565 207.604C49.4565 216.057 52.2678 222.91 55.7357 222.91Z" fill="#B2001A"/>
<path d="M87.1314 222.91C90.5993 222.91 93.4106 216.057 93.4106 207.604C93.4106 199.151 90.5993 192.299 87.1314 192.299C83.6636 192.299 80.8523 199.151 80.8523 207.604C80.8523 216.057 83.6636 222.91 87.1314 222.91Z" fill="#B2001A"/>
<path d="M55.7356 160.903C55.7356 164.357 48.8992 167.182 40.4302 167.182C31.9612 167.182 25.1248 164.357 25.1248 160.903C25.1248 157.449 31.9612 154.624 40.4302 154.624C48.8992 154.624 55.7356 157.763 55.7356 160.903Z" fill="#B2001A"/>
<path d="M55.7356 192.299C55.7356 195.752 48.8992 198.578 40.4302 198.578C31.9612 198.578 25.1248 195.752 25.1248 192.299C25.1248 188.845 31.9612 186.02 40.4302 186.02C48.8992 186.02 55.7356 189.054 55.7356 192.299Z" fill="#B2001A"/>
<path d="M25.1248 192.299C28.5927 192.299 31.404 185.271 31.404 176.601C31.404 167.931 28.5927 160.903 25.1248 160.903C21.657 160.903 18.8457 167.931 18.8457 176.601C18.8457 185.271 21.657 192.299 25.1248 192.299Z" fill="#B2001A"/>
<path d="M55.7357 192.299C59.2036 192.299 62.0148 185.271 62.0148 176.601C62.0148 167.931 59.2036 160.903 55.7357 160.903C52.2678 160.903 49.4565 167.931 49.4565 176.601C49.4565 185.271 52.2678 192.299 55.7357 192.299Z" fill="#B2001A"/>
</g>
<defs>
<clipPath id="clip0_1234_60145">
<rect width="280" height="478" fill="white"/>
</clipPath>
</defs>
</svg>
