<svg width="1441" height="1855" viewBox="0 0 1441 1855" fill="none" xmlns="http://www.w3.org/2000/svg">
<path d="M915.5 -107C889.5 -55 859 69.5 697 142.5C535 215.5 410.999 183 299.499 209C187.999 235 151 319 219.499 375.5C287.998 432 527.499 436 746.999 375.5C966.499 315 1051.5 280.5 1204 375.5C1356.5 470.5 1361.5 713.5 1270 896C1028.47 1377.74 563.874 1259.89 209 1577.5C109 1667 122 1834 327 1805C532 1776 784.999 1655 1024.5 1582.5C1264 1510 1514.5 1485 1573 1727" stroke="#FFEE50" stroke-width="15" stroke-linecap="round"/>
</svg>
