<svg width="486" height="561" viewBox="0 0 486 561" fill="none" xmlns="http://www.w3.org/2000/svg">
<g opacity="0.7" clip-path="url(#clip0_1234_60388)">
<path d="M433.804 392.458C434.696 392.469 435.582 392.302 436.409 391.968C437.237 391.633 437.991 391.137 438.626 390.509C439.261 389.881 439.764 389.133 440.108 388.308C440.452 387.483 440.63 386.597 440.63 385.703L440.63 344.005C440.735 343.05 440.639 342.082 440.346 341.166C440.053 340.25 439.572 339.407 438.931 338.69C438.291 337.974 437.507 337.401 436.631 337.008C435.754 336.616 434.805 336.413 433.845 336.413C432.885 336.413 431.936 336.616 431.06 337.008C430.184 337.401 429.4 337.974 428.759 338.69C428.119 339.407 427.636 340.25 427.344 341.166C427.051 342.082 426.954 343.05 427.06 344.005L427.06 385.703C427.06 386.59 427.234 387.469 427.573 388.288C427.912 389.108 428.409 389.852 429.036 390.48C429.662 391.107 430.404 391.604 431.223 391.944C432.041 392.283 432.918 392.458 433.804 392.458Z" fill="#CA001D"/>
<path d="M392.512 392.458L434.136 392.458C435.09 392.564 436.056 392.467 436.97 392.174C437.884 391.881 438.727 391.398 439.442 390.756C440.158 390.115 440.729 389.329 441.121 388.452C441.513 387.574 441.716 386.623 441.716 385.661C441.716 384.7 441.513 383.749 441.121 382.871C440.729 381.993 440.158 381.207 439.442 380.566C438.727 379.925 437.884 379.442 436.97 379.148C436.056 378.855 435.09 378.758 434.136 378.864L392.512 378.864C391.558 378.758 390.593 378.855 389.679 379.148C388.764 379.442 387.922 379.925 387.206 380.566C386.491 381.207 385.919 381.993 385.528 382.871C385.136 383.749 384.933 384.7 384.933 385.661C384.933 386.623 385.136 387.574 385.528 388.452C385.919 389.329 386.491 390.115 387.206 390.756C387.922 391.398 388.764 391.881 389.679 392.174C390.593 392.467 391.558 392.564 392.512 392.458Z" fill="#CA001D"/>
<path d="M392.512 433.906C394.322 433.906 396.059 433.185 397.339 431.903C398.619 430.62 399.339 428.881 399.339 427.067L399.339 385.37C399.339 383.556 398.619 381.817 397.339 380.534C396.059 379.252 394.322 378.531 392.512 378.531C390.702 378.531 388.966 379.252 387.686 380.534C386.406 381.817 385.686 383.556 385.686 385.37L385.686 427.067C385.686 428.881 386.406 430.62 387.686 431.903C388.966 433.185 390.702 433.906 392.512 433.906Z" fill="#CA001D"/>
<path d="M351.138 433.906L392.762 433.906C394.573 433.906 396.309 433.185 397.589 431.903C398.869 430.621 399.589 428.881 399.589 427.067C399.589 425.254 398.869 423.514 397.589 422.232C396.309 420.949 394.573 420.229 392.762 420.229L351.138 420.229C349.328 420.229 347.592 420.949 346.311 422.232C345.031 423.514 344.313 425.254 344.313 427.067C344.313 428.881 345.031 430.621 346.311 431.903C347.592 433.185 349.328 433.906 351.138 433.906Z" fill="#CA001D"/>
<path d="M351.138 475.27C352.03 475.281 352.916 475.114 353.744 474.779C354.572 474.445 355.325 473.949 355.96 473.321C356.595 472.693 357.099 471.944 357.443 471.119C357.787 470.294 357.965 469.409 357.965 468.515L357.964 426.817C358.07 425.861 357.974 424.894 357.681 423.978C357.388 423.062 356.906 422.218 356.265 421.502C355.625 420.785 354.841 420.212 353.965 419.82C353.088 419.427 352.139 419.225 351.179 419.225C350.219 419.225 349.27 419.427 348.394 419.82C347.517 420.212 346.733 420.785 346.093 421.502C345.453 422.218 344.971 423.062 344.679 423.978C344.386 424.894 344.289 425.861 344.395 426.817L344.395 468.515C344.395 470.306 345.105 472.024 346.37 473.291C347.634 474.558 349.349 475.27 351.138 475.27Z" fill="#CA001D"/>
<path d="M356.633 392.458C358.429 392.458 360.152 391.749 361.43 390.485C362.708 389.22 363.437 387.502 363.459 385.703L363.458 344.005C363.458 342.192 362.74 340.452 361.46 339.17C360.179 337.887 358.443 337.167 356.633 337.167C354.822 337.167 353.086 337.887 351.806 339.17C350.525 340.452 349.807 342.192 349.807 344.005L349.807 385.703C349.829 387.502 350.557 389.22 351.835 390.485C353.113 391.749 354.837 392.458 356.633 392.458Z" fill="#CA001D"/>
<path d="M315.343 392.458L356.967 392.458C357.921 392.564 358.885 392.467 359.8 392.174C360.714 391.881 361.557 391.398 362.272 390.756C362.987 390.115 363.559 389.329 363.951 388.452C364.343 387.574 364.545 386.623 364.545 385.661C364.545 384.7 364.343 383.749 363.951 382.871C363.559 381.993 362.987 381.207 362.272 380.566C361.557 379.925 360.714 379.442 359.8 379.148C358.885 378.855 357.921 378.758 356.967 378.864L315.343 378.864C314.389 378.758 313.423 378.855 312.509 379.148C311.594 379.442 310.752 379.925 310.037 380.566C309.322 381.207 308.749 381.993 308.357 382.871C307.966 383.749 307.764 384.7 307.764 385.661C307.764 386.623 307.966 387.574 308.357 388.452C308.749 389.329 309.322 390.115 310.037 390.756C310.752 391.398 311.594 391.881 312.509 392.174C313.423 392.467 314.389 392.564 315.343 392.458Z" fill="#CA001D"/>
<path d="M315.342 433.906C317.153 433.906 318.889 433.185 320.169 431.903C321.45 430.62 322.168 428.881 322.168 427.067L322.168 385.37C322.168 383.556 321.45 381.817 320.169 380.534C318.889 379.252 317.153 378.531 315.342 378.531C313.532 378.531 311.796 379.252 310.515 380.534C309.235 381.817 308.515 383.556 308.515 385.37L308.515 427.067C308.515 428.881 309.235 430.62 310.515 431.903C311.796 433.185 313.532 433.906 315.342 433.906Z" fill="#CA001D"/>
<path d="M273.968 433.906L315.592 433.906C317.402 433.906 319.139 433.185 320.419 431.903C321.699 430.621 322.419 428.881 322.419 427.067C322.419 425.254 321.699 423.514 320.419 422.232C319.139 420.949 317.402 420.229 315.592 420.229L273.968 420.229C272.158 420.229 270.421 420.949 269.141 422.232C267.861 423.514 267.142 425.254 267.142 427.067C267.142 428.881 267.861 430.621 269.141 431.903C270.421 433.185 272.158 433.906 273.968 433.906Z" fill="#CA001D"/>
<path d="M273.968 475.27C275.764 475.27 277.489 474.561 278.767 473.296C280.045 472.032 280.773 470.314 280.795 468.515L280.795 426.817C280.795 425.003 280.075 423.264 278.795 421.981C277.515 420.699 275.779 419.979 273.968 419.979C272.158 419.979 270.421 420.699 269.141 421.981C267.861 423.264 267.142 425.003 267.142 426.817L267.142 468.515C267.164 470.314 267.893 472.032 269.171 473.296C270.449 474.561 272.172 475.27 273.968 475.27Z" fill="#CA001D"/>
<path d="M279.462 392.458C281.258 392.458 282.982 391.749 284.259 390.485C285.537 389.22 286.267 387.502 286.289 385.703L286.289 344.005C286.289 342.192 285.569 340.452 284.289 339.17C283.009 337.887 281.272 337.167 279.462 337.167C277.651 337.167 275.915 337.887 274.635 339.17C273.355 340.452 272.636 342.192 272.636 344.005L272.636 385.703C272.658 387.502 273.387 389.22 274.664 390.485C275.942 391.749 277.666 392.458 279.462 392.458Z" fill="#CA001D"/>
<path d="M238.088 392.458L279.712 392.458C280.666 392.564 281.632 392.467 282.546 392.174C283.46 391.881 284.302 391.398 285.018 390.756C285.733 390.115 286.305 389.329 286.696 388.452C287.088 387.574 287.291 386.623 287.291 385.661C287.291 384.7 287.088 383.749 286.696 382.871C286.305 381.993 285.733 381.207 285.018 380.566C284.302 379.925 283.46 379.442 282.546 379.148C281.632 378.855 280.666 378.758 279.712 378.864L238.088 378.864C236.418 379.05 234.876 379.846 233.755 381.1C232.634 382.354 232.014 383.978 232.014 385.661C232.014 387.344 232.634 388.968 233.755 390.222C234.876 391.476 236.418 392.272 238.088 392.458Z" fill="#CA001D"/>
<path d="M238.089 433.906C239.899 433.906 241.636 433.185 242.916 431.903C244.196 430.62 244.915 428.881 244.915 427.067L244.915 385.37C245.021 384.414 244.924 383.446 244.631 382.53C244.338 381.615 243.857 380.771 243.217 380.054C242.576 379.338 241.792 378.765 240.916 378.372C240.04 377.98 239.09 377.777 238.131 377.777C237.171 377.777 236.221 377.98 235.345 378.372C234.469 378.765 233.685 379.338 233.044 380.054C232.404 380.771 231.922 381.615 231.629 382.53C231.336 383.446 231.239 384.414 231.345 385.37L231.345 427.067C231.345 428.867 232.053 430.593 233.316 431.873C234.578 433.153 236.293 433.884 238.089 433.906Z" fill="#CA001D"/>
<path d="M196.798 433.906L238.421 433.906C240.232 433.906 241.968 433.185 243.248 431.903C244.529 430.621 245.247 428.881 245.247 427.067C245.247 425.254 244.529 423.514 243.248 422.232C241.968 420.949 240.232 420.229 238.421 420.229L196.798 420.229C194.987 420.229 193.251 420.949 191.971 422.232C190.691 423.514 189.971 425.254 189.971 427.067C189.971 428.881 190.691 430.621 191.971 431.903C193.251 433.185 194.987 433.906 196.798 433.906Z" fill="#CA001D"/>
<path d="M196.798 475.27C198.594 475.27 200.317 474.561 201.595 473.296C202.873 472.032 203.602 470.314 203.624 468.515L203.624 426.817C203.624 425.003 202.905 423.264 201.625 421.981C200.344 420.699 198.608 419.979 196.798 419.979C194.987 419.979 193.251 420.699 191.971 421.981C190.691 423.264 189.971 425.003 189.971 426.817L189.971 468.515C189.993 470.314 190.721 472.032 191.999 473.296C193.277 474.561 195.002 475.27 196.798 475.27Z" fill="#CA001D"/>
<path d="M202.292 392.458C204.088 392.458 205.811 391.749 207.089 390.485C208.367 389.22 209.097 387.502 209.118 385.703L209.118 344.005C209.118 342.192 208.399 340.452 207.119 339.17C205.838 337.887 204.102 337.167 202.292 337.167C200.481 337.167 198.745 337.887 197.465 339.17C196.184 340.452 195.466 342.192 195.466 344.005L195.466 385.703C195.488 387.502 196.216 389.22 197.494 390.485C198.772 391.749 200.495 392.458 202.292 392.458Z" fill="#CA001D"/>
<path d="M160.917 392.458L202.541 392.458C203.495 392.564 204.46 392.467 205.375 392.174C206.289 391.881 207.131 391.398 207.846 390.756C208.561 390.115 209.133 389.329 209.525 388.452C209.917 387.574 210.119 386.623 210.119 385.661C210.119 384.7 209.917 383.749 209.525 382.871C209.133 381.993 208.561 381.207 207.846 380.566C207.131 379.925 206.289 379.442 205.375 379.148C204.46 378.855 203.495 378.758 202.541 378.864L160.917 378.864C159.247 379.05 157.704 379.846 156.584 381.1C155.463 382.354 154.843 383.978 154.843 385.661C154.843 387.344 155.463 388.968 156.584 390.222C157.704 391.476 159.247 392.272 160.917 392.458Z" fill="#CA001D"/>
<path d="M202.292 351.094L243.916 351.094C245.726 351.094 247.463 350.373 248.743 349.091C250.023 347.809 250.743 346.07 250.743 344.256C250.743 342.442 250.023 340.703 248.743 339.42C247.463 338.138 245.726 337.417 243.916 337.417L202.292 337.417C200.482 337.417 198.745 338.138 197.465 339.42C196.185 340.703 195.466 342.442 195.466 344.256C195.466 346.07 196.185 347.809 197.465 349.091C198.745 350.373 200.482 351.094 202.292 351.094Z" fill="#CA001D"/>
<path d="M160.918 433.906C162.728 433.906 164.465 433.185 165.745 431.903C167.025 430.62 167.744 428.881 167.744 427.067L167.744 385.37C167.85 384.414 167.754 383.446 167.461 382.53C167.169 381.615 166.686 380.771 166.046 380.054C165.406 379.338 164.621 378.765 163.745 378.372C162.869 377.98 161.92 377.777 160.96 377.777C160 377.777 159.051 377.98 158.174 378.372C157.298 378.765 156.514 379.338 155.874 380.054C155.233 380.771 154.751 381.615 154.458 382.53C154.165 383.446 154.07 384.414 154.175 385.37L154.175 427.067C154.175 428.867 154.883 430.593 156.145 431.873C157.407 433.153 159.122 433.884 160.918 433.906Z" fill="#CA001D"/>
<path d="M119.627 433.906L161.251 433.906C163.061 433.906 164.798 433.185 166.078 431.903C167.358 430.621 168.077 428.881 168.077 427.067C168.077 425.254 167.358 423.514 166.078 422.232C164.798 420.949 163.061 420.229 161.251 420.229L119.627 420.229C117.817 420.229 116.08 420.949 114.8 422.232C113.52 423.514 112.8 425.254 112.8 427.067C112.8 428.881 113.52 430.621 114.8 431.903C116.08 433.185 117.817 433.906 119.627 433.906Z" fill="#CA001D"/>
<path d="M119.627 475.27C121.423 475.27 123.147 474.561 124.425 473.296C125.703 472.032 126.431 470.314 126.453 468.515L126.453 426.817C126.453 425.003 125.734 423.264 124.454 421.981C123.174 420.699 121.438 419.979 119.627 419.979C117.817 419.979 116.08 420.699 114.8 421.981C113.52 423.264 112.8 425.003 112.8 426.817L112.8 468.515C112.822 470.314 113.552 472.032 114.83 473.296C116.108 474.561 117.831 475.27 119.627 475.27Z" fill="#CA001D"/>
<path d="M185.475 207.654L227.099 207.654C228.909 207.654 230.645 206.934 231.926 205.652C233.206 204.369 233.926 202.63 233.926 200.816C233.926 199.002 233.206 197.263 231.926 195.98C230.645 194.698 228.909 193.978 227.099 193.978L185.475 193.978C183.664 193.978 181.928 194.698 180.648 195.98C179.368 197.263 178.649 199.002 178.649 200.816C178.649 202.63 179.368 204.369 180.648 205.652C181.928 206.934 183.664 207.654 185.475 207.654Z" fill="#CA001D"/>
<path d="M144.101 249.018L185.724 249.018C187.394 248.832 188.937 248.036 190.058 246.782C191.178 245.528 191.798 243.904 191.798 242.221C191.798 240.538 191.178 238.914 190.058 237.66C188.937 236.406 187.394 235.61 185.724 235.424L144.101 235.424C143.147 235.318 142.181 235.415 141.266 235.709C140.352 236.002 139.51 236.485 138.795 237.126C138.08 237.768 137.508 238.553 137.116 239.431C136.725 240.309 136.522 241.26 136.522 242.221C136.522 243.183 136.725 244.134 137.116 245.012C137.508 245.89 138.08 246.675 138.795 247.316C139.51 247.958 140.352 248.441 141.266 248.734C142.181 249.027 143.147 249.124 144.101 249.018Z" fill="#CA001D"/>
<path d="M185.474 249.018C186.367 249.018 187.251 248.841 188.075 248.496C188.898 248.152 189.646 247.647 190.273 247.011C190.9 246.374 191.395 245.619 191.729 244.79C192.063 243.961 192.229 243.074 192.218 242.18L192.218 200.482C192.324 199.526 192.227 198.559 191.934 197.643C191.642 196.727 191.159 195.883 190.519 195.167C189.879 194.45 189.096 193.878 188.219 193.485C187.343 193.093 186.393 192.89 185.433 192.89C184.473 192.89 183.524 193.093 182.647 193.485C181.771 193.878 180.988 194.45 180.348 195.167C179.707 195.883 179.225 196.727 178.932 197.643C178.639 198.559 178.543 199.526 178.649 200.482L178.649 242.18C178.637 243.081 178.806 243.975 179.145 244.81C179.485 245.645 179.987 246.403 180.623 247.04C181.259 247.677 182.016 248.181 182.85 248.52C183.683 248.86 184.575 249.029 185.474 249.018Z" fill="#CA001D"/>
<path d="M185.475 288.381L227.099 288.381C228.909 288.381 230.645 287.661 231.926 286.378C233.206 285.096 233.926 283.356 233.926 281.543C233.926 279.729 233.206 277.989 231.926 276.707C230.645 275.425 228.909 274.704 227.099 274.704L185.475 274.704C183.664 274.704 181.928 275.425 180.648 276.707C179.368 277.989 178.649 279.729 178.649 281.543C178.649 283.356 179.368 285.096 180.648 286.378C181.928 287.661 183.664 288.381 185.475 288.381Z" fill="#CA001D"/>
<path d="M144.101 329.745L185.724 329.745C187.394 329.559 188.937 328.763 190.058 327.509C191.178 326.255 191.798 324.631 191.798 322.948C191.798 321.265 191.178 319.641 190.058 318.387C188.937 317.133 187.394 316.337 185.724 316.151L144.101 316.151C143.147 316.045 142.181 316.142 141.266 316.435C140.352 316.728 139.51 317.211 138.795 317.853C138.08 318.494 137.508 319.279 137.116 320.157C136.725 321.035 136.522 321.986 136.522 322.948C136.522 323.909 136.725 324.861 137.116 325.739C137.508 326.617 138.08 327.402 138.795 328.043C139.51 328.684 140.352 329.168 141.266 329.461C142.181 329.754 143.147 329.851 144.101 329.745Z" fill="#CA001D"/>
<path d="M185.474 329.745C186.367 329.745 187.251 329.568 188.075 329.223C188.898 328.878 189.646 328.373 190.273 327.737C190.9 327.101 191.395 326.346 191.729 325.517C192.063 324.688 192.229 323.801 192.218 322.907L192.218 281.209C192.324 280.253 192.227 279.286 191.934 278.37C191.642 277.454 191.159 276.61 190.519 275.893C189.879 275.177 189.096 274.604 188.219 274.212C187.343 273.819 186.393 273.616 185.433 273.616C184.473 273.616 183.524 273.819 182.647 274.212C181.771 274.604 180.988 275.177 180.348 275.893C179.707 276.61 179.225 277.454 178.932 278.37C178.639 279.286 178.543 280.253 178.649 281.209L178.649 322.907C178.637 323.808 178.806 324.702 179.145 325.537C179.485 326.371 179.987 327.129 180.623 327.767C181.259 328.404 182.016 328.908 182.85 329.247C183.683 329.587 184.575 329.756 185.474 329.745Z" fill="#CA001D"/>
<path d="M141.188 171.127L195.466 171.127C197.136 170.942 198.678 170.146 199.799 168.892C200.919 167.638 201.54 166.014 201.54 164.331C201.54 162.648 200.919 161.023 199.799 159.769C198.678 158.515 197.136 157.719 195.466 157.534L141.188 157.534C140.234 157.428 139.268 157.525 138.354 157.818C137.44 158.111 136.598 158.594 135.882 159.235C135.167 159.877 134.595 160.662 134.204 161.54C133.812 162.418 133.609 163.369 133.609 164.331C133.609 165.292 133.812 166.243 134.204 167.121C134.595 167.999 135.167 168.784 135.883 169.426C136.598 170.067 137.44 170.55 138.354 170.843C139.268 171.137 140.234 171.233 141.188 171.127Z" fill="#CA001D"/>
<path d="M99.8138 212.574L141.438 212.574C143.248 212.574 144.984 211.854 146.265 210.571C147.545 209.289 148.263 207.55 148.263 205.736C148.263 203.922 147.545 202.183 146.265 200.9C144.984 199.618 143.248 198.897 141.438 198.897L99.8138 198.897C98.0033 198.897 96.267 199.618 94.9868 200.9C93.7066 202.183 92.9869 203.922 92.9869 205.736C92.9869 207.55 93.7066 209.289 94.9868 210.571C96.267 211.854 98.0033 212.574 99.8138 212.574Z" fill="#CA001D"/>
<path d="M141.187 212.574C142.998 212.574 144.734 211.854 146.014 210.571C147.294 209.289 148.013 207.549 148.013 205.736L148.013 164.038C148.013 162.225 147.294 160.485 146.014 159.203C144.734 157.92 142.998 157.2 141.187 157.2C139.377 157.2 137.64 157.92 136.36 159.203C135.08 160.485 134.361 162.225 134.361 164.038L134.361 205.736C134.361 207.549 135.08 209.289 136.36 210.571C137.64 211.854 139.377 212.574 141.187 212.574Z" fill="#CA001D"/>
<path d="M163.581 140.855C164.478 140.855 165.366 140.678 166.195 140.335C167.023 139.991 167.776 139.488 168.41 138.853L238.172 68.8844C239.441 67.6126 240.154 65.8876 240.154 64.0891C240.154 62.2905 239.441 60.5655 238.172 59.2938C236.902 58.022 235.18 57.3076 233.384 57.3076C231.589 57.3076 229.868 58.022 228.598 59.2938L158.753 129.179C157.798 130.135 157.147 131.354 156.883 132.681C156.62 134.008 156.756 135.383 157.273 136.633C157.789 137.883 158.665 138.951 159.788 139.703C160.911 140.454 162.231 140.855 163.581 140.855Z" fill="#CA001D"/>
<path d="M233.425 140.855C235.209 140.843 236.916 140.123 238.171 138.853C238.805 138.218 239.308 137.464 239.651 136.634C239.995 135.804 240.172 134.915 240.172 134.016C240.172 133.118 239.995 132.228 239.651 131.399C239.308 130.569 238.805 129.814 238.171 129.179L168.409 59.294C167.775 58.6586 167.022 58.1547 166.194 57.8108C165.365 57.4669 164.477 57.2896 163.58 57.2896C162.683 57.2896 161.796 57.4669 160.968 57.8108C160.139 58.1547 159.386 58.6586 158.752 59.294C158.12 59.922 157.619 60.6689 157.277 61.4919C156.934 62.3149 156.758 63.1978 156.758 64.0893C156.758 64.9809 156.934 65.8638 157.277 66.6868C157.619 67.5098 158.12 68.2567 158.752 68.8847L228.597 138.853C229.231 139.488 229.984 139.992 230.812 140.335C231.641 140.679 232.528 140.855 233.425 140.855Z" fill="#CA001D"/>
<path d="M39.2106 140.855C40.1072 140.855 40.9948 140.678 41.8233 140.335C42.6517 139.991 43.4044 139.488 44.0386 138.853L113.8 68.8844C114.429 68.2547 114.927 67.5073 115.267 66.6845C115.608 65.8617 115.783 64.9796 115.783 64.0891C115.783 63.1985 115.608 62.3169 115.267 61.4942C114.927 60.6714 114.429 59.9235 113.8 59.2938C113.171 58.664 112.425 58.1645 111.604 57.8237C110.783 57.4829 109.903 57.3076 109.014 57.3076C108.125 57.3076 107.245 57.4829 106.423 57.8237C105.602 58.1645 104.856 58.664 104.227 59.2938L34.3826 129.179C33.4274 130.135 32.7764 131.354 32.5128 132.681C32.2492 134.008 32.3841 135.383 32.901 136.633C33.4179 137.883 34.294 138.951 35.4171 139.703C36.5402 140.454 37.8601 140.855 39.2106 140.855Z" fill="#CA001D"/>
<path d="M109.137 140.855C110.921 140.843 112.627 140.123 113.882 138.853C114.516 138.218 115.019 137.464 115.363 136.634C115.706 135.804 115.883 134.915 115.883 134.016C115.883 133.118 115.706 132.228 115.363 131.399C115.019 130.569 114.516 129.814 113.882 129.179L44.1204 59.294C43.4865 58.6586 42.7335 58.1547 41.9051 57.8108C41.0766 57.4669 40.1892 57.2896 39.2924 57.2896C38.3956 57.2896 37.5072 57.4669 36.6787 57.8108C35.8503 58.1547 35.0983 58.6586 34.4644 59.294C33.8326 59.922 33.3311 60.6689 32.9889 61.4919C32.6467 62.3149 32.4706 63.1978 32.4706 64.0893C32.4706 64.9809 32.6467 65.8638 32.9889 66.6868C33.3311 67.5098 33.8326 68.2567 34.4644 68.8847L104.308 138.853C104.942 139.488 105.696 139.992 106.525 140.335C107.353 140.679 108.241 140.855 109.137 140.855Z" fill="#CA001D"/>
<path d="M6.82629 243.764C7.72287 243.765 8.6105 243.588 9.43896 243.245C10.2674 242.902 11.0201 242.398 11.6543 241.763L84.2469 169.042C85.5275 167.759 86.2468 166.019 86.2468 164.205C86.2468 162.391 85.5275 160.651 84.2469 159.368C82.9664 158.085 81.2289 157.365 79.4179 157.365C77.6069 157.365 75.8705 158.085 74.5899 159.368L1.9983 232.089C1.04304 233.046 0.392104 234.264 0.128478 235.591C-0.135155 236.918 -0.000237066 238.294 0.51667 239.544C1.03357 240.793 1.90968 241.861 3.03279 242.613C4.1559 243.364 5.47575 243.765 6.82629 243.764Z" fill="#CA001D"/>
<path d="M363.875 561C365.686 561 367.422 560.279 368.702 558.997C369.982 557.715 370.701 555.975 370.701 554.161L370.701 468.765C370.701 466.951 369.982 465.212 368.702 463.929C367.422 462.647 365.686 461.926 363.875 461.926C362.065 461.926 360.329 462.647 359.048 463.929C357.768 465.212 357.049 466.951 357.049 468.765L357.049 554.161C357.049 555.975 357.768 557.715 359.048 558.997C360.329 560.279 362.065 561 363.875 561Z" fill="#CA001D"/>
<path d="M409.161 547.323C410.058 547.323 410.947 547.147 411.775 546.803C412.603 546.46 413.356 545.957 413.99 545.322C414.622 544.694 415.124 543.947 415.466 543.124C415.808 542.301 415.984 541.418 415.984 540.526C415.984 539.635 415.808 538.752 415.466 537.929C415.124 537.106 414.622 536.359 413.99 535.731L369.12 490.698C367.839 489.415 366.103 488.694 364.292 488.694C362.481 488.694 360.743 489.415 359.463 490.698C358.182 491.981 357.463 493.72 357.463 495.534C357.463 497.349 358.182 499.089 359.463 500.371L404.333 545.322C404.968 545.957 405.72 546.46 406.549 546.803C407.377 547.147 408.265 547.323 409.161 547.323Z" fill="#CA001D"/>
<path d="M319.338 547.323C320.235 547.324 321.123 547.147 321.951 546.804C322.779 546.46 323.532 545.957 324.166 545.322L369.12 500.372C370.401 499.089 371.12 497.349 371.12 495.535C371.12 493.721 370.401 491.981 369.12 490.698C367.84 489.415 366.103 488.694 364.292 488.694C362.481 488.694 360.744 489.415 359.463 490.698L314.593 535.731C313.961 536.359 313.46 537.106 313.118 537.929C312.776 538.752 312.599 539.635 312.599 540.527C312.599 541.418 312.776 542.301 313.118 543.124C313.46 543.947 313.961 544.694 314.593 545.322C315.206 545.962 315.943 546.47 316.759 546.814C317.575 547.158 318.453 547.332 319.338 547.323Z" fill="#CA001D"/>
<path d="M119.627 561C121.423 560.978 123.138 560.247 124.401 558.967C125.663 557.687 126.37 555.961 126.37 554.161L126.37 468.765C126.476 467.809 126.379 466.841 126.086 465.925C125.794 465.01 125.312 464.166 124.672 463.449C124.032 462.733 123.248 462.16 122.371 461.767C121.495 461.375 120.546 461.172 119.586 461.172C118.626 461.172 117.677 461.375 116.8 461.767C115.924 462.16 115.14 462.733 114.5 463.449C113.859 464.166 113.377 465.01 113.084 465.925C112.791 466.841 112.695 467.809 112.801 468.765L112.801 554.161C112.801 555.975 113.52 557.714 114.801 558.997C116.081 560.279 117.817 561 119.627 561Z" fill="#CA001D"/>
<path d="M164.082 547.323C164.978 547.324 165.866 547.147 166.694 546.804C167.523 546.46 168.275 545.957 168.91 545.322C169.541 544.694 170.043 543.947 170.385 543.124C170.727 542.301 170.903 541.418 170.903 540.527C170.903 539.635 170.727 538.752 170.385 537.929C170.043 537.106 169.541 536.359 168.91 535.731L124.039 490.698C123.405 490.063 122.653 489.559 121.825 489.215C120.996 488.871 120.108 488.694 119.211 488.694C118.314 488.694 117.427 488.871 116.598 489.215C115.77 489.559 115.017 490.063 114.383 490.698C113.749 491.333 113.246 492.087 112.902 492.917C112.559 493.747 112.383 494.637 112.383 495.535C112.383 496.433 112.559 497.323 112.902 498.153C113.246 498.983 113.749 499.737 114.383 500.372L159.254 545.322C159.888 545.957 160.64 546.46 161.469 546.804C162.297 547.147 163.185 547.324 164.082 547.323Z" fill="#CA001D"/>
<path d="M74.6724 547.324C75.569 547.324 76.4566 547.147 77.2851 546.804C78.1135 546.46 78.8662 545.957 79.5004 545.322L124.454 500.372C125.696 499.069 126.389 497.336 126.389 495.535C126.389 493.733 125.696 492.001 124.454 490.698C123.82 490.063 123.067 489.558 122.239 489.215C121.411 488.871 120.523 488.694 119.626 488.694C118.73 488.694 117.841 488.871 117.013 489.215C116.184 489.558 115.431 490.063 114.797 490.698L69.8444 535.731C69.2127 536.359 68.7111 537.106 68.3689 537.929C68.0267 538.752 67.8506 539.635 67.8506 540.527C67.8506 541.418 68.0267 542.301 68.3689 543.124C68.7111 543.947 69.2127 544.694 69.8444 545.322C70.4786 545.957 71.2313 546.46 72.0598 546.804C72.8882 547.147 73.7758 547.324 74.6724 547.324Z" fill="#CA001D"/>
<path d="M249.16 351.344C250.057 351.345 250.944 351.168 251.773 350.825C252.601 350.481 253.355 349.978 253.989 349.343L353.386 249.769C354.667 248.486 355.386 246.746 355.386 244.932C355.386 243.118 354.667 241.378 353.386 240.095C352.106 238.812 350.369 238.091 348.558 238.091C346.747 238.091 345.01 238.812 343.729 240.095L244.332 339.335C243.377 340.292 242.726 341.51 242.462 342.837C242.199 344.164 242.333 345.54 242.85 346.79C243.367 348.04 244.243 349.108 245.366 349.859C246.49 350.61 247.809 351.011 249.16 351.011L249.16 351.344Z" fill="#CA001D"/>
<path d="M278.379 322.156C280.175 322.134 281.89 321.404 283.152 320.124C284.415 318.844 285.123 317.117 285.123 315.318L285.123 251.687C285.229 250.731 285.132 249.764 284.839 248.848C284.546 247.932 284.064 247.089 283.424 246.372C282.783 245.656 281.999 245.082 281.123 244.69C280.247 244.297 279.297 244.095 278.337 244.095C277.378 244.095 276.428 244.297 275.552 244.69C274.676 245.082 273.892 245.656 273.251 246.372C272.611 247.089 272.13 247.932 271.837 248.848C271.544 249.764 271.447 250.731 271.553 251.687L271.553 315.318C271.553 316.216 271.73 317.105 272.073 317.934C272.416 318.764 272.918 319.518 273.552 320.153C274.186 320.788 274.939 321.292 275.768 321.635C276.596 321.979 277.483 322.156 278.379 322.156Z" fill="#CA001D"/>
<path d="M278.38 322.156L341.815 322.156C343.625 322.156 345.362 321.435 346.642 320.153C347.922 318.871 348.642 317.131 348.642 315.317C348.642 313.504 347.922 311.764 346.642 310.482C345.362 309.199 343.625 308.479 341.815 308.479L278.38 308.479C276.57 308.479 274.833 309.199 273.553 310.482C272.273 311.764 271.554 313.504 271.554 315.317C271.554 317.131 272.273 318.871 273.553 320.153C274.833 321.435 276.57 322.156 278.38 322.156Z" fill="#CA001D"/>
<path d="M315.426 284.962C316.323 284.962 317.21 284.785 318.038 284.441C318.866 284.098 319.619 283.594 320.253 282.959C320.887 282.324 321.39 281.57 321.733 280.74C322.076 279.911 322.252 279.021 322.252 278.123L322.252 242.013C322.252 240.2 321.533 238.46 320.253 237.178C318.973 235.895 317.237 235.175 315.426 235.175C313.616 235.175 311.879 235.895 310.599 237.178C309.319 238.46 308.599 240.2 308.599 242.013L308.599 278.123C308.599 279.021 308.775 279.911 309.119 280.74C309.462 281.57 309.965 282.324 310.599 282.959C311.233 283.594 311.985 284.098 312.813 284.441C313.642 284.785 314.53 284.962 315.426 284.962Z" fill="#CA001D"/>
<path d="M315.425 284.962L351.555 284.962C353.365 284.962 355.101 284.241 356.381 282.959C357.662 281.676 358.38 279.937 358.38 278.123C358.38 276.309 357.662 274.571 356.381 273.288C355.101 272.006 353.365 271.285 351.555 271.285L315.425 271.285C313.615 271.285 311.879 272.006 310.598 273.288C309.318 274.571 308.598 276.309 308.598 278.123C308.598 279.937 309.318 281.676 310.598 282.959C311.879 284.241 313.615 284.962 315.425 284.962Z" fill="#CA001D"/>
<path d="M508.227 309.896C509.124 309.897 510.012 309.721 510.841 309.377C511.669 309.034 512.422 308.53 513.056 307.895L554.68 266.197C555.314 265.562 555.816 264.808 556.159 263.978C556.501 263.148 556.678 262.259 556.678 261.361C556.697 260.46 556.53 259.564 556.186 258.732C555.842 257.899 555.329 257.147 554.68 256.524L513.056 214.826C511.765 213.559 510.034 212.842 508.227 212.825C506.418 212.833 504.685 213.552 503.399 214.826L461.775 256.524C461.141 257.159 460.638 257.913 460.295 258.743C459.952 259.572 459.775 260.462 459.775 261.361C459.775 262.259 459.952 263.149 460.295 263.979C460.638 264.809 461.141 265.562 461.775 266.197L503.399 307.895C504.033 308.53 504.786 309.034 505.615 309.377C506.443 309.721 507.331 309.897 508.227 309.896ZM540.028 261.611L508.227 293.468L476.427 261.611L508.227 229.754L540.028 261.611Z" fill="#CA001D"/>
<path d="M466.77 268.366C468.564 268.363 470.289 267.677 471.598 266.448L513.222 224.75C513.856 224.115 514.36 223.361 514.703 222.531C515.046 221.701 515.222 220.812 515.222 219.913C515.222 219.015 515.046 218.125 514.703 217.296C514.36 216.466 513.856 215.711 513.222 215.076L471.598 173.379C470.278 172.171 468.557 171.502 466.77 171.502C464.983 171.502 463.261 172.171 461.942 173.379L420.318 215.076C419.677 215.706 419.168 216.459 418.825 217.29C418.482 218.122 418.31 219.014 418.32 219.913C418.301 220.814 418.468 221.709 418.812 222.542C419.156 223.374 419.669 224.127 420.318 224.75L461.942 266.448C463.25 267.677 464.976 268.363 466.77 268.366ZM498.571 220.08L466.77 251.937L434.97 220.08L466.77 188.223L498.571 220.08Z" fill="#CA001D"/>
<path d="M425.313 226.919C426.209 226.919 427.097 226.742 427.925 226.399C428.754 226.056 429.507 225.552 430.141 224.917L471.764 183.22C472.399 182.585 472.903 181.83 473.246 181C473.589 180.17 473.765 179.281 473.765 178.383C473.765 177.484 473.589 176.595 473.246 175.765C472.903 174.935 472.399 174.181 471.764 173.546L430.141 131.848C429.514 131.215 428.768 130.713 427.947 130.37C427.125 130.027 426.244 129.851 425.354 129.851C424.464 129.851 423.584 130.027 422.762 130.37C421.94 130.713 421.195 131.215 420.568 131.848L378.944 173.546C378.31 174.181 377.806 174.935 377.463 175.765C377.119 176.595 376.943 177.484 376.943 178.383C376.943 179.281 377.119 180.17 377.463 181C377.806 181.83 378.31 182.585 378.944 183.22L420.568 224.917C421.187 225.55 421.925 226.052 422.74 226.396C423.554 226.74 424.429 226.917 425.313 226.919ZM457.113 178.549L425.313 210.406L393.513 178.549L425.313 146.693L457.113 178.549Z" fill="#CA001D"/>
<path d="M508.227 392.958C509.123 392.959 510.012 392.782 510.84 392.439C511.669 392.095 512.422 391.592 513.056 390.957L554.68 349.259C555.314 348.624 555.817 347.87 556.16 347.04C556.503 346.21 556.68 345.321 556.68 344.422C556.68 343.524 556.503 342.634 556.16 341.804C555.817 340.974 555.314 340.221 554.68 339.586L513.056 297.888C511.755 296.644 510.025 295.95 508.227 295.95C506.428 295.95 504.7 296.644 503.399 297.888L461.775 339.586C460.51 340.879 459.794 342.612 459.777 344.422C459.785 346.234 460.503 347.971 461.775 349.259L503.399 390.957C504.033 391.592 504.786 392.095 505.614 392.439C506.443 392.782 507.33 392.959 508.227 392.958ZM540.028 344.589L508.227 376.446L476.427 344.589L508.227 312.732L540.028 344.589Z" fill="#CA001D"/>
<path d="M466.936 185.221C468.287 185.221 469.607 184.82 470.73 184.069C471.853 183.318 472.729 182.25 473.246 181C473.763 179.75 473.898 178.374 473.634 177.047C473.37 175.72 472.719 174.502 471.764 173.545L340.649 42.1978C340.015 41.5624 339.263 41.0585 338.435 40.7146C337.606 40.3707 336.718 40.1934 335.821 40.1934C334.924 40.1934 334.036 40.3707 333.208 40.7146C332.379 41.0585 331.627 41.5624 330.993 42.1978C330.361 42.8258 329.86 43.5727 329.518 44.3957C329.176 45.2187 328.999 46.1016 328.999 46.9932C328.999 47.8847 329.176 48.7676 329.518 49.5906C329.86 50.4136 330.361 51.1606 330.993 51.7885L462.192 183.219C463.447 184.489 465.152 185.209 466.936 185.221Z" fill="#CA001D"/>
<path d="M335.82 123.759C336.717 123.759 337.605 123.583 338.433 123.239C339.262 122.896 340.014 122.392 340.648 121.757L410.41 51.7887C411.679 50.5169 412.393 48.7919 412.393 46.9934C412.393 45.1948 411.679 43.4698 410.41 42.198C409.14 40.9263 407.419 40.2119 405.624 40.2119C403.828 40.2119 402.106 40.9263 400.836 42.198L330.992 112.083C330.037 113.04 329.386 114.258 329.123 115.585C328.859 116.912 328.994 118.288 329.511 119.538C330.028 120.788 330.903 121.856 332.026 122.607C333.149 123.358 334.47 123.759 335.82 123.759Z" fill="#CA001D"/>
<path d="M335.821 89.1493L405.499 89.1493C406.453 89.2553 407.419 89.1585 408.333 88.8653C409.248 88.5721 410.09 88.0891 410.805 87.4477C411.52 86.8063 412.092 86.0209 412.484 85.1429C412.875 84.265 413.078 83.3142 413.078 82.3526C413.078 81.3909 412.875 80.4402 412.484 79.5622C412.092 78.6843 411.52 77.8988 410.805 77.2574C410.09 76.616 409.248 76.1331 408.333 75.8399C407.419 75.5467 406.453 75.4498 405.499 75.5558L335.738 75.5558C334.784 75.4498 333.818 75.5467 332.904 75.8399C331.989 76.1331 331.147 76.616 330.432 77.2574C329.717 77.8989 329.145 78.6843 328.753 79.5622C328.362 80.4402 328.159 81.3909 328.159 82.3526C328.159 83.3142 328.362 84.265 328.753 85.1429C329.145 86.0209 329.717 86.8063 330.432 87.4477C331.147 88.0891 331.989 88.5721 332.904 88.8653C333.818 89.1585 334.784 89.2554 335.738 89.1493L335.821 89.1493Z" fill="#CA001D"/>
<path d="M370.701 123.759C372.512 123.759 374.248 123.038 375.528 121.756C376.809 120.474 377.528 118.734 377.528 116.921L377.528 46.9518C377.528 45.1381 376.809 43.3987 375.528 42.1162C374.248 40.8338 372.512 40.1133 370.701 40.1133C368.891 40.1133 367.155 40.8338 365.874 42.1162C364.594 43.3987 363.876 45.1381 363.876 46.9518L363.876 116.921C363.876 118.734 364.594 120.474 365.874 121.756C367.155 123.038 368.891 123.759 370.701 123.759Z" fill="#CA001D"/>
<path d="M509.142 521.304L518.799 511.63L429.808 422.731C429.174 422.095 428.421 421.591 427.592 421.247C426.764 420.903 425.875 420.726 424.979 420.726C424.082 420.726 423.194 420.903 422.366 421.247C421.538 421.591 420.785 422.095 420.151 422.731C419.519 423.358 419.017 424.105 418.675 424.928C418.333 425.751 418.157 426.634 418.157 427.526C418.157 428.417 418.333 429.3 418.675 430.123C419.017 430.946 419.519 431.693 420.151 432.321L509.142 521.304Z" fill="#CA001D"/>
<path d="M444.209 523.305C445.105 523.305 445.993 523.129 446.821 522.785C447.65 522.442 448.403 521.938 449.037 521.304L518.798 451.335C519.432 450.7 519.936 449.945 520.279 449.116C520.622 448.286 520.798 447.396 520.798 446.498C520.798 445.599 520.622 444.71 520.279 443.88C519.936 443.05 519.432 442.296 518.798 441.661C518.164 441.026 517.411 440.522 516.583 440.178C515.754 439.834 514.867 439.658 513.97 439.658C513.073 439.658 512.185 439.834 511.357 440.178C510.528 440.522 509.775 441.026 509.141 441.661L439.38 511.629C438.424 512.586 437.775 513.805 437.511 515.132C437.247 516.459 437.382 517.834 437.899 519.084C438.416 520.334 439.291 521.402 440.414 522.154C441.537 522.905 442.858 523.306 444.209 523.305Z" fill="#CA001D"/>
<path d="M444.209 488.279L513.72 488.279C514.675 488.385 515.64 488.288 516.555 487.995C517.469 487.702 518.311 487.219 519.026 486.578C519.741 485.936 520.313 485.151 520.705 484.273C521.097 483.395 521.299 482.444 521.299 481.482C521.299 480.521 521.097 479.57 520.705 478.692C520.313 477.814 519.741 477.029 519.026 476.387C518.311 475.746 517.469 475.263 516.555 474.97C515.64 474.677 514.675 474.58 513.72 474.686L443.959 474.686C443.005 474.58 442.039 474.677 441.125 474.97C440.211 475.263 439.369 475.746 438.653 476.387C437.938 477.029 437.366 477.814 436.975 478.692C436.583 479.57 436.38 480.521 436.38 481.482C436.38 482.444 436.583 483.395 436.975 484.273C437.366 485.151 437.938 485.936 438.653 486.578C439.369 487.219 440.211 487.702 441.125 487.995C442.039 488.288 443.005 488.385 443.959 488.279L444.209 488.279Z" fill="#CA001D"/>
<path d="M479.089 523.305C479.986 523.305 480.874 523.128 481.702 522.785C482.53 522.441 483.282 521.937 483.916 521.302C484.55 520.667 485.053 519.913 485.396 519.084C485.739 518.254 485.916 517.365 485.916 516.467L485.916 446.498C485.916 444.684 485.197 442.946 483.916 441.663C482.636 440.381 480.9 439.66 479.089 439.66C477.279 439.66 475.543 440.381 474.262 441.663C472.982 442.946 472.264 444.684 472.264 446.498L472.264 516.467C472.264 517.365 472.44 518.254 472.783 519.084C473.126 519.913 473.629 520.667 474.262 521.302C474.896 521.937 475.65 522.441 476.478 522.785C477.306 523.128 478.193 523.305 479.089 523.305Z" fill="#CA001D"/>
<path d="M424.229 145.024C425.125 145.025 426.013 144.848 426.841 144.505C427.67 144.161 428.423 143.658 429.057 143.023L560.172 11.5919C560.8 10.9622 561.299 10.2148 561.639 9.39201C561.979 8.56925 562.154 7.68716 562.154 6.7966C562.154 5.90604 561.979 5.02395 561.639 4.20119C561.299 3.37842 560.8 2.63099 560.172 2.00127C559.543 1.37155 558.797 0.872068 557.976 0.531267C557.154 0.190466 556.274 0.0151372 555.385 0.0151373C554.496 0.0151374 553.616 0.190467 552.795 0.531268C551.974 0.872069 551.228 1.37155 550.599 2.00127L419.401 133.349C418.446 134.305 417.795 135.524 417.531 136.851C417.267 138.178 417.402 139.553 417.919 140.803C418.436 142.053 419.312 143.121 420.435 143.872C421.558 144.624 422.878 145.025 424.229 145.024Z" fill="#CA001D"/>
<path d="M555.345 83.5623C557.128 83.5502 558.834 82.8306 560.089 81.5609C560.724 80.9259 561.228 80.1716 561.571 79.3417C561.914 78.5117 562.09 77.6223 562.09 76.7239C562.09 75.8255 561.914 74.936 561.571 74.1061C561.228 73.2761 560.724 72.5219 560.089 71.8868L490.328 2.00154C489.694 1.3661 488.942 0.862214 488.114 0.518297C487.285 0.17438 486.397 -0.00292307 485.5 -0.00292299C484.603 -0.00292291 483.716 0.174381 482.887 0.518298C482.059 0.862215 481.306 1.3661 480.672 2.00154C480.04 2.62947 479.539 3.37641 479.196 4.19942C478.854 5.02242 478.678 5.90532 478.678 6.79687C478.678 7.68841 478.854 8.57131 479.196 9.39432C479.539 10.2173 480.04 10.9643 480.672 11.5922L550.517 81.5609C551.151 82.1959 551.904 82.6992 552.732 83.0427C553.561 83.3861 554.448 83.5627 555.345 83.5623Z" fill="#CA001D"/>
<path d="M485.583 48.536L555.344 48.536C557.014 48.3504 558.557 47.5545 559.677 46.3005C560.798 45.0465 561.418 43.4224 561.418 41.7393C561.418 40.0562 560.798 38.4321 559.677 37.1781C558.557 35.9241 557.014 35.1281 555.344 34.9426L485.499 34.9426C484.545 34.8365 483.579 34.9334 482.665 35.2266C481.751 35.5198 480.909 36.0028 480.194 36.6442C479.478 37.2856 478.907 38.071 478.515 38.9489C478.123 39.8269 477.92 40.7777 477.92 41.7393C477.92 42.701 478.123 43.6517 478.515 44.5297C478.907 45.4076 479.478 46.193 480.194 46.8344C480.909 47.4758 481.751 47.9588 482.665 48.252C483.579 48.5452 484.545 48.6421 485.499 48.536L485.583 48.536Z" fill="#CA001D"/>
<path d="M116.796 475.103L424.812 475.103C426.608 475.103 428.333 474.394 429.611 473.13C430.888 471.865 431.617 470.147 431.639 468.348L431.639 433.906L464.938 433.906C466.011 434.082 467.109 434.008 468.148 433.689C469.188 433.371 470.14 432.817 470.932 432.071L512.555 390.373C513.82 389.08 514.536 387.346 514.553 385.536C514.545 383.724 513.828 381.988 512.555 380.7L471.681 339.752C471.04 338.979 470.24 338.354 469.334 337.922C468.428 337.49 467.439 337.261 466.436 337.25L235.424 337.25L235.424 198.815C235.424 195.395 235.424 190.475 168.826 129.013C167.56 127.832 165.894 127.176 164.164 127.178L109.72 127.178C107.911 127.186 106.178 127.905 104.892 129.179L34.3818 199.815C33.3927 200.435 32.5756 201.295 32.0079 202.315C31.4402 203.336 31.1403 204.484 31.135 205.653C31.2543 207.441 32.0226 209.124 33.2954 210.384C34.5684 211.644 36.2575 212.393 38.0442 212.491L105.142 212.491L136.942 244.265L136.942 337.584L111.386 337.584C110.489 337.584 109.601 337.76 108.772 338.104C107.944 338.447 107.191 338.951 106.557 339.586L71.4266 374.778C70.7852 375.408 70.2781 376.161 69.9348 376.993C69.5914 377.824 69.419 378.716 69.4287 379.615L69.4287 427.401C69.419 428.3 69.5914 429.192 69.9348 430.024C70.2781 430.855 70.7852 431.608 71.4266 432.238L112.301 473.185C113.508 474.365 115.111 475.049 116.796 475.103ZM417.986 461.51L119.627 461.51L82.7481 424.565L82.7481 382.451L113.966 351.177L143.519 351.177C145.315 351.177 147.039 350.468 148.317 349.204C149.595 347.939 150.323 346.222 150.345 344.422L150.345 241.513C150.337 239.701 149.62 237.964 148.347 236.676L112.551 200.816C111.266 199.541 109.531 198.823 107.722 198.815L54.3604 198.815L112.634 140.855L161.583 140.855C188.556 165.873 217.276 193.644 222.188 200.399L222.188 344.422C222.188 346.214 222.899 347.932 224.163 349.199C225.428 350.466 227.143 351.177 228.931 351.177L463.772 351.177L498.32 385.87L464.022 420.229L425.062 420.229C424.166 420.229 423.279 420.405 422.45 420.749C421.622 421.093 420.869 421.597 420.235 422.232C419.601 422.867 419.099 423.62 418.756 424.45C418.412 425.28 418.236 426.169 418.236 427.067L417.986 461.51Z" fill="#CA001D"/>
</g>
<defs>
<clipPath id="clip0_1234_60388">
<rect width="486" height="561" fill="white" transform="matrix(-1 8.74228e-08 8.74228e-08 1 486 0)"/>
</clipPath>
</defs>
</svg>
