<svg width="210" height="211" viewBox="0 0 210 211" fill="none" xmlns="http://www.w3.org/2000/svg">
<g clip-path="url(#clip0_1374_51007)">
<path d="M113.23 183.063C113.23 184.951 109.384 186.496 104.619 186.496C99.8549 186.496 96.0662 184.951 96.0662 183.063C96.0662 181.174 99.9123 179.629 104.619 179.629C109.327 179.629 113.23 181.174 113.23 183.063Z" fill="#B2001A"/>
<path d="M130.451 165.95C132.354 165.95 133.896 162.107 133.896 157.366C133.896 152.625 132.354 148.782 130.451 148.782C128.549 148.782 127.007 152.625 127.007 157.366C127.007 162.107 128.549 165.95 130.451 165.95Z" fill="#B2001A"/>
<path d="M130.451 148.782C132.354 148.782 133.896 144.939 133.896 140.198C133.896 135.457 132.354 131.613 130.451 131.613C128.549 131.613 127.007 135.457 127.007 140.198C127.007 144.939 128.549 148.782 130.451 148.782Z" fill="#B2001A"/>
<path d="M78.9017 165.95C80.804 165.95 82.346 162.107 82.346 157.366C82.346 152.625 80.804 148.782 78.9017 148.782C76.9995 148.782 75.4574 152.625 75.4574 157.366C75.4574 162.107 76.9995 165.95 78.9017 165.95Z" fill="#B2001A"/>
<path d="M78.9017 148.782C80.804 148.782 82.346 144.939 82.346 140.198C82.346 135.457 80.804 131.613 78.9017 131.613C76.9995 131.613 75.4574 135.457 75.4574 140.198C75.4574 144.939 76.9995 148.782 78.9017 148.782Z" fill="#B2001A"/>
<path d="M78.8452 165.894C80.2229 164.521 85.16 167.268 89.8672 172.018C94.5745 176.768 97.3871 181.69 96.0667 183.006C94.7464 184.322 89.7519 181.575 85.0447 176.882C80.3374 172.19 77.5248 167.268 78.8452 165.894Z" fill="#B2001A"/>
<path d="M130.394 165.894C131.771 167.21 129.016 172.132 124.252 176.882C119.487 181.632 114.55 184.322 113.229 183.006C111.909 181.689 114.664 176.768 119.372 172.018C124.079 167.268 129.073 164.578 130.394 165.894Z" fill="#B2001A"/>
<path d="M113.23 28.8867C113.23 30.7753 109.384 32.3203 104.619 32.3203C99.8549 32.3203 96.0662 30.7753 96.0662 28.8867C96.0662 26.9982 99.9123 25.4531 104.619 25.4531C109.327 25.4531 113.23 26.9982 113.23 28.8867Z" fill="#B2001A"/>
<path d="M130.451 63.1673C132.354 63.1673 133.896 59.3239 133.896 54.5829C133.896 49.8419 132.354 45.9985 130.451 45.9985C128.549 45.9985 127.007 49.8419 127.007 54.5829C127.007 59.3239 128.549 63.1673 130.451 63.1673Z" fill="#B2001A"/>
<path d="M130.451 80.2781C132.354 80.2781 133.896 76.4348 133.896 71.6938C133.896 66.9527 132.354 63.1094 130.451 63.1094C128.549 63.1094 127.007 66.9527 127.007 71.6938C127.007 76.4348 128.549 80.2781 130.451 80.2781Z" fill="#B2001A"/>
<path d="M78.9017 63.1673C80.804 63.1673 82.346 59.3239 82.346 54.5829C82.346 49.8419 80.804 45.9985 78.9017 45.9985C76.9995 45.9985 75.4574 49.8419 75.4574 54.5829C75.4574 59.3239 76.9995 63.1673 78.9017 63.1673Z" fill="#B2001A"/>
<path d="M78.9017 80.2781C80.804 80.2781 82.346 76.4348 82.346 71.6938C82.346 66.9527 80.804 63.1094 78.9017 63.1094C76.9995 63.1094 75.4574 66.9527 75.4574 71.6938C75.4574 76.4348 76.9995 80.2781 78.9017 80.2781Z" fill="#B2001A"/>
<path d="M78.8442 45.9986C77.5238 44.6823 80.279 39.7607 85.0437 35.068C89.8083 30.3752 94.688 27.5708 96.0657 28.8871C97.4435 30.2034 94.6309 35.1822 89.8662 39.875C85.1016 44.5678 80.2219 47.3721 78.8442 45.9986Z" fill="#B2001A"/>
<path d="M130.395 45.9989C129.075 47.3724 124.138 44.6253 119.373 39.8753C114.608 35.1253 111.911 30.2609 113.231 28.8874C114.551 27.5139 119.488 30.3182 124.253 35.0682C129.018 39.8183 131.773 44.6826 130.395 45.9989Z" fill="#B2001A"/>
<path d="M27.352 114.559C29.2542 114.559 30.7963 110.716 30.7963 105.975C30.7963 101.233 29.2542 97.3901 27.352 97.3901C25.4498 97.3901 23.9077 101.233 23.9077 105.975C23.9077 110.716 25.4498 114.559 27.352 114.559Z" fill="#B2001A"/>
<path d="M61.6806 131.557C61.6806 133.445 57.8344 134.99 53.0698 134.99C48.3052 134.99 44.5165 133.445 44.5165 131.557C44.5165 129.668 48.3626 128.123 53.0698 128.123C57.777 128.123 61.6806 129.783 61.6806 131.557Z" fill="#B2001A"/>
<path d="M78.8441 131.557C78.8441 133.445 74.998 134.99 70.2907 134.99C65.5835 134.99 61.6799 133.445 61.6799 131.557C61.6799 129.668 65.5261 128.123 70.2907 128.123C75.0554 128.123 78.8441 129.783 78.8441 131.557Z" fill="#B2001A"/>
<path d="M53.1273 83.7122C57.8829 83.7122 61.7381 82.1749 61.7381 80.2785C61.7381 78.3821 57.8829 76.8447 53.1273 76.8447C48.3717 76.8447 44.5165 78.3821 44.5165 80.2785C44.5165 82.1749 48.3717 83.7122 53.1273 83.7122Z" fill="#B2001A"/>
<path d="M70.2907 83.7122C75.0463 83.7122 78.9015 82.1749 78.9015 80.2785C78.9015 78.3821 75.0463 76.8447 70.2907 76.8447C65.5351 76.8447 61.6799 78.3821 61.6799 80.2785C61.6799 82.1749 65.5351 83.7122 70.2907 83.7122Z" fill="#B2001A"/>
<path d="M44.5173 80.0496C45.8376 81.3658 43.0817 86.2874 38.3171 91.0375C33.5524 95.7875 28.6735 98.5345 27.3532 97.161C26.0328 95.7875 28.7306 90.9232 33.4952 86.1731C38.2599 81.4231 43.1396 78.9622 44.5173 80.0496Z" fill="#B2001A"/>
<path d="M44.517 131.556C43.1393 132.872 38.2022 130.125 33.4949 125.432C28.7877 120.74 25.9751 115.761 27.3529 114.444C28.7306 113.128 33.6095 115.818 38.3168 120.568C43.024 125.318 45.8373 130.354 44.517 131.556Z" fill="#B2001A"/>
<path d="M182.002 114.559C183.905 114.559 185.447 110.716 185.447 105.975C185.447 101.233 183.905 97.3901 182.002 97.3901C180.1 97.3901 178.558 101.233 178.558 105.975C178.558 110.716 180.1 114.559 182.002 114.559Z" fill="#B2001A"/>
<path d="M147.616 131.557C147.616 129.668 151.462 128.123 156.169 128.123C160.876 128.123 164.78 129.668 164.78 131.557C164.78 133.445 160.934 134.99 156.169 134.99C151.405 134.99 147.616 133.56 147.616 131.557Z" fill="#B2001A"/>
<path d="M130.394 131.557C130.394 129.668 134.241 128.123 139.005 128.123C143.77 128.123 147.616 129.668 147.616 131.557C147.616 133.445 143.77 134.99 139.005 134.99C134.241 134.99 130.394 133.56 130.394 131.557Z" fill="#B2001A"/>
<path d="M156.227 83.7122C160.982 83.7122 164.837 82.1749 164.837 80.2785C164.837 78.3821 160.982 76.8447 156.227 76.8447C151.471 76.8447 147.616 78.3821 147.616 80.2785C147.616 82.1749 151.471 83.7122 156.227 83.7122Z" fill="#B2001A"/>
<path d="M139.005 83.7122C143.761 83.7122 147.616 82.1749 147.616 80.2785C147.616 78.3821 143.761 76.8447 139.005 76.8447C134.25 76.8447 130.394 78.3821 130.394 80.2785C130.394 82.1749 134.25 83.7122 139.005 83.7122Z" fill="#B2001A"/>
<path d="M164.781 80.0501C166.101 78.7338 171.038 81.4809 175.803 86.1737C180.567 90.8665 183.323 95.8453 181.945 97.1616C180.567 98.4779 175.688 95.788 170.923 91.038C166.159 86.288 163.46 81.5953 164.781 80.0501Z" fill="#B2001A"/>
<path d="M164.78 131.556C163.46 130.24 166.216 125.318 170.923 120.568C175.63 115.818 180.624 113.071 181.944 114.445C183.265 115.818 180.567 120.683 175.802 125.433C171.038 130.183 166.101 132.987 164.78 131.556Z" fill="#B2001A"/>
<path d="M96.0664 46.0555C97.9686 46.0555 99.5107 42.2121 99.5107 37.4711C99.5107 32.7301 97.9686 28.8867 96.0664 28.8867C94.1641 28.8867 92.6221 32.7301 92.6221 37.4711C92.6221 42.2121 94.1641 46.0555 96.0664 46.0555Z" fill="#B2001A"/>
<path d="M113.23 46.0555C115.132 46.0555 116.674 42.2121 116.674 37.4711C116.674 32.7301 115.132 28.8867 113.23 28.8867C111.328 28.8867 109.786 32.7301 109.786 37.4711C109.786 42.2121 111.328 46.0555 113.23 46.0555Z" fill="#B2001A"/>
<path d="M96.0662 28.8867C96.0662 26.9982 99.9123 25.4531 104.619 25.4531C109.327 25.4531 113.23 26.9982 113.23 28.8867C113.23 30.7753 109.384 32.3203 104.619 32.3203C99.8549 32.3203 96.0662 30.7753 96.0662 28.8867Z" fill="#B2001A"/>
<path d="M104.677 49.4329C109.433 49.4329 113.288 47.8956 113.288 45.9992C113.288 44.1028 109.433 42.5654 104.677 42.5654C99.9213 42.5654 96.0662 44.1028 96.0662 45.9992C96.0662 47.8956 99.9213 49.4329 104.677 49.4329Z" fill="#B2001A"/>
<path d="M96.0664 63.1673C97.9686 63.1673 99.5107 59.3239 99.5107 54.5829C99.5107 49.8419 97.9686 45.9985 96.0664 45.9985C94.1641 45.9985 92.6221 49.8419 92.6221 54.5829C92.6221 59.3239 94.1641 63.1673 96.0664 63.1673Z" fill="#B2001A"/>
<path d="M113.23 63.1673C115.132 63.1673 116.674 59.3239 116.674 54.5829C116.674 49.8419 115.132 45.9985 113.23 45.9985C111.328 45.9985 109.786 49.8419 109.786 54.5829C109.786 59.3239 111.328 63.1673 113.23 63.1673Z" fill="#B2001A"/>
<path d="M96.0662 45.9979C96.0662 44.1093 99.9123 42.6216 104.619 42.6216C109.327 42.6216 113.23 44.1093 113.23 45.9979C113.23 47.8865 109.384 49.4319 104.619 49.4319C99.8549 49.4319 96.0662 47.9437 96.0662 45.9979Z" fill="#B2001A"/>
<path d="M104.677 66.5433C109.433 66.5433 113.288 65.0059 113.288 63.1095C113.288 61.2131 109.433 59.6758 104.677 59.6758C99.9213 59.6758 96.0662 61.2131 96.0662 63.1095C96.0662 65.0059 99.9213 66.5433 104.677 66.5433Z" fill="#B2001A"/>
<path d="M96.0664 80.2781C97.9686 80.2781 99.5107 76.4348 99.5107 71.6938C99.5107 66.9527 97.9686 63.1094 96.0664 63.1094C94.1641 63.1094 92.6221 66.9527 92.6221 71.6938C92.6221 76.4348 94.1641 80.2781 96.0664 80.2781Z" fill="#B2001A"/>
<path d="M113.23 80.2781C115.132 80.2781 116.674 76.4348 116.674 71.6938C116.674 66.9527 115.132 63.1094 113.23 63.1094C111.328 63.1094 109.786 66.9527 109.786 71.6938C109.786 76.4348 111.328 80.2781 113.23 80.2781Z" fill="#B2001A"/>
<path d="M104.677 66.5433C109.433 66.5433 113.288 65.0059 113.288 63.1095C113.288 61.2131 109.433 59.6758 104.677 59.6758C99.9213 59.6758 96.0662 61.2131 96.0662 63.1095C96.0662 65.0059 99.9213 66.5433 104.677 66.5433Z" fill="#B2001A"/>
<path d="M104.677 83.7122C109.433 83.7122 113.288 82.1749 113.288 80.2785C113.288 78.3821 109.433 76.8447 104.677 76.8447C99.9213 76.8447 96.0662 78.3821 96.0662 80.2785C96.0662 82.1749 99.9213 83.7122 104.677 83.7122Z" fill="#B2001A"/>
<path d="M96.0664 97.3904C97.9686 97.3904 99.5107 93.5471 99.5107 88.8061C99.5107 84.065 97.9686 80.2217 96.0664 80.2217C94.1641 80.2217 92.6221 84.065 92.6221 88.8061C92.6221 93.5471 94.1641 97.3904 96.0664 97.3904Z" fill="#B2001A"/>
<path d="M113.23 97.3904C115.132 97.3904 116.674 93.5471 116.674 88.8061C116.674 84.065 115.132 80.2217 113.23 80.2217C111.328 80.2217 109.786 84.065 109.786 88.8061C109.786 93.5471 111.328 97.3904 113.23 97.3904Z" fill="#B2001A"/>
<path d="M104.677 83.7122C109.433 83.7122 113.288 82.1749 113.288 80.2785C113.288 78.3821 109.433 76.8447 104.677 76.8447C99.9213 76.8447 96.0662 78.3821 96.0662 80.2785C96.0662 82.1749 99.9213 83.7122 104.677 83.7122Z" fill="#B2001A"/>
<path d="M104.677 100.824C109.433 100.824 113.288 99.2867 113.288 97.3903C113.288 95.4939 109.433 93.9565 104.677 93.9565C99.9213 93.9565 96.0662 95.4939 96.0662 97.3903C96.0662 99.2867 99.9213 100.824 104.677 100.824Z" fill="#B2001A"/>
<path d="M96.0664 114.559C97.9686 114.559 99.5107 110.716 99.5107 105.975C99.5107 101.233 97.9686 97.3901 96.0664 97.3901C94.1641 97.3901 92.6221 101.233 92.6221 105.975C92.6221 110.716 94.1641 114.559 96.0664 114.559Z" fill="#B2001A"/>
<path d="M113.23 114.559C115.132 114.559 116.674 110.716 116.674 105.975C116.674 101.233 115.132 97.3901 113.23 97.3901C111.328 97.3901 109.786 101.233 109.786 105.975C109.786 110.716 111.328 114.559 113.23 114.559Z" fill="#B2001A"/>
<path d="M96.0662 97.2178C96.0662 95.3292 99.9123 93.7842 104.619 93.7842C109.327 93.7842 113.23 95.3292 113.23 97.2178C113.23 99.1064 109.384 100.651 104.619 100.651C99.8549 100.651 96.0662 99.278 96.0662 97.2178Z" fill="#B2001A"/>
<path d="M96.0662 114.387C96.0662 112.441 99.9123 110.953 104.619 110.953C109.327 110.953 113.23 112.441 113.23 114.387C113.23 116.333 109.384 117.763 104.619 117.763C99.8549 117.763 96.0662 116.447 96.0662 114.387Z" fill="#B2001A"/>
<path d="M96.0664 131.671C97.9686 131.671 99.5107 127.828 99.5107 123.087C99.5107 118.346 97.9686 114.502 96.0664 114.502C94.1641 114.502 92.6221 118.346 92.6221 123.087C92.6221 127.828 94.1641 131.671 96.0664 131.671Z" fill="#B2001A"/>
<path d="M113.23 131.671C115.132 131.671 116.674 127.828 116.674 123.087C116.674 118.346 115.132 114.502 113.23 114.502C111.328 114.502 109.786 118.346 109.786 123.087C109.786 127.828 111.328 131.671 113.23 131.671Z" fill="#B2001A"/>
<path d="M104.677 117.935C109.433 117.935 113.288 116.398 113.288 114.501C113.288 112.605 109.433 111.067 104.677 111.067C99.9213 111.067 96.0662 112.605 96.0662 114.501C96.0662 116.398 99.9213 117.935 104.677 117.935Z" fill="#B2001A"/>
<path d="M96.0662 131.557C96.0662 129.668 99.9123 128.123 104.619 128.123C109.327 128.123 113.23 129.668 113.23 131.557C113.23 133.445 109.384 134.99 104.619 134.99C99.8549 134.99 96.0662 133.56 96.0662 131.557Z" fill="#B2001A"/>
<path d="M96.0664 148.782C97.9686 148.782 99.5107 144.939 99.5107 140.198C99.5107 135.457 97.9686 131.613 96.0664 131.613C94.1641 131.613 92.6221 135.457 92.6221 140.198C92.6221 144.939 94.1641 148.782 96.0664 148.782Z" fill="#B2001A"/>
<path d="M113.23 148.782C115.132 148.782 116.674 144.939 116.674 140.198C116.674 135.457 115.132 131.613 113.23 131.613C111.328 131.613 109.786 135.457 109.786 140.198C109.786 144.939 111.328 148.782 113.23 148.782Z" fill="#B2001A"/>
<path d="M104.677 135.047C109.432 135.047 113.288 133.51 113.288 131.613C113.288 129.717 109.432 128.18 104.677 128.18C99.9213 128.18 96.0661 129.717 96.0661 131.613C96.0661 133.51 99.9213 135.047 104.677 135.047Z" fill="#B2001A"/>
<path d="M96.0662 148.725C96.0662 146.837 99.9123 145.292 104.619 145.292C109.327 145.292 113.23 146.837 113.23 148.725C113.23 150.614 109.384 152.159 104.619 152.159C99.8549 152.159 96.0662 150.671 96.0662 148.725Z" fill="#B2001A"/>
<path d="M96.0664 165.894C97.9686 165.894 99.5107 162.051 99.5107 157.309C99.5107 152.568 97.9686 148.725 96.0664 148.725C94.1641 148.725 92.6221 152.568 92.6221 157.309C92.6221 162.051 94.1641 165.894 96.0664 165.894Z" fill="#B2001A"/>
<path d="M113.23 165.894C115.132 165.894 116.674 162.051 116.674 157.309C116.674 152.568 115.132 148.725 113.23 148.725C111.328 148.725 109.786 152.568 109.786 157.309C109.786 162.051 111.328 165.894 113.23 165.894Z" fill="#B2001A"/>
<path d="M104.677 152.216C109.432 152.216 113.288 150.678 113.288 148.782C113.288 146.885 109.432 145.348 104.677 145.348C99.9213 145.348 96.0661 146.885 96.0661 148.782C96.0661 150.678 99.9213 152.216 104.677 152.216Z" fill="#B2001A"/>
<path d="M104.677 169.328C109.433 169.328 113.288 167.791 113.288 165.894C113.288 163.998 109.433 162.46 104.677 162.46C99.9213 162.46 96.0662 163.998 96.0662 165.894C96.0662 167.791 99.9213 169.328 104.677 169.328Z" fill="#B2001A"/>
<path d="M113.23 63.1673C115.132 63.1673 116.674 59.3239 116.674 54.5829C116.674 49.8419 115.132 45.9985 113.23 45.9985C111.328 45.9985 109.786 49.8419 109.786 54.5829C109.786 59.3239 111.328 63.1673 113.23 63.1673Z" fill="#B2001A"/>
<path d="M130.451 63.1673C132.354 63.1673 133.896 59.3239 133.896 54.5829C133.896 49.8419 132.354 45.9985 130.451 45.9985C128.549 45.9985 127.007 49.8419 127.007 54.5829C127.007 59.3239 128.549 63.1673 130.451 63.1673Z" fill="#B2001A"/>
<path d="M113.231 45.9979C113.231 44.1093 117.077 42.6216 121.842 42.6216C126.606 42.6216 130.395 44.1093 130.395 45.9979C130.395 47.8865 126.549 49.4319 121.842 49.4319C117.134 49.4319 113.231 47.9437 113.231 45.9979Z" fill="#B2001A"/>
<path d="M121.842 66.5433C126.597 66.5433 130.452 65.0059 130.452 63.1095C130.452 61.2131 126.597 59.6758 121.842 59.6758C117.086 59.6758 113.231 61.2131 113.231 63.1095C113.231 65.0059 117.086 66.5433 121.842 66.5433Z" fill="#B2001A"/>
<path d="M113.23 80.2781C115.132 80.2781 116.674 76.4348 116.674 71.6938C116.674 66.9527 115.132 63.1094 113.23 63.1094C111.328 63.1094 109.786 66.9527 109.786 71.6938C109.786 76.4348 111.328 80.2781 113.23 80.2781Z" fill="#B2001A"/>
<path d="M130.451 80.2781C132.354 80.2781 133.896 76.4348 133.896 71.6938C133.896 66.9527 132.354 63.1094 130.451 63.1094C128.549 63.1094 127.007 66.9527 127.007 71.6938C127.007 76.4348 128.549 80.2781 130.451 80.2781Z" fill="#B2001A"/>
<path d="M121.842 66.5433C126.597 66.5433 130.452 65.0059 130.452 63.1095C130.452 61.2131 126.597 59.6758 121.842 59.6758C117.086 59.6758 113.231 61.2131 113.231 63.1095C113.231 65.0059 117.086 66.5433 121.842 66.5433Z" fill="#B2001A"/>
<path d="M121.842 83.7122C126.597 83.7122 130.452 82.1749 130.452 80.2785C130.452 78.3821 126.597 76.8447 121.842 76.8447C117.086 76.8447 113.231 78.3821 113.231 80.2785C113.231 82.1749 117.086 83.7122 121.842 83.7122Z" fill="#B2001A"/>
<path d="M113.23 97.3904C115.132 97.3904 116.674 93.5471 116.674 88.8061C116.674 84.065 115.132 80.2217 113.23 80.2217C111.328 80.2217 109.786 84.065 109.786 88.8061C109.786 93.5471 111.328 97.3904 113.23 97.3904Z" fill="#B2001A"/>
<path d="M130.451 97.3904C132.354 97.3904 133.896 93.5471 133.896 88.8061C133.896 84.065 132.354 80.2217 130.451 80.2217C128.549 80.2217 127.007 84.065 127.007 88.8061C127.007 93.5471 128.549 97.3904 130.451 97.3904Z" fill="#B2001A"/>
<path d="M121.842 83.7122C126.597 83.7122 130.452 82.1749 130.452 80.2785C130.452 78.3821 126.597 76.8447 121.842 76.8447C117.086 76.8447 113.231 78.3821 113.231 80.2785C113.231 82.1749 117.086 83.7122 121.842 83.7122Z" fill="#B2001A"/>
<path d="M121.842 100.824C126.597 100.824 130.452 99.2867 130.452 97.3903C130.452 95.4939 126.597 93.9565 121.842 93.9565C117.086 93.9565 113.231 95.4939 113.231 97.3903C113.231 99.2867 117.086 100.824 121.842 100.824Z" fill="#B2001A"/>
<path d="M113.23 114.559C115.132 114.559 116.674 110.716 116.674 105.975C116.674 101.233 115.132 97.3901 113.23 97.3901C111.328 97.3901 109.786 101.233 109.786 105.975C109.786 110.716 111.328 114.559 113.23 114.559Z" fill="#B2001A"/>
<path d="M130.451 114.559C132.354 114.559 133.896 110.716 133.896 105.975C133.896 101.233 132.354 97.3901 130.451 97.3901C128.549 97.3901 127.007 101.233 127.007 105.975C127.007 110.716 128.549 114.559 130.451 114.559Z" fill="#B2001A"/>
<path d="M113.231 97.2178C113.231 95.3292 117.077 93.7842 121.842 93.7842C126.606 93.7842 130.395 95.3292 130.395 97.2178C130.395 99.1064 126.549 100.651 121.842 100.651C117.134 100.651 113.231 99.278 113.231 97.2178Z" fill="#B2001A"/>
<path d="M113.231 114.387C113.231 112.441 117.077 110.953 121.842 110.953C126.606 110.953 130.395 112.441 130.395 114.387C130.395 116.333 126.549 117.763 121.842 117.763C117.134 117.763 113.231 116.447 113.231 114.387Z" fill="#B2001A"/>
<path d="M113.23 131.671C115.132 131.671 116.674 127.828 116.674 123.087C116.674 118.346 115.132 114.502 113.23 114.502C111.328 114.502 109.786 118.346 109.786 123.087C109.786 127.828 111.328 131.671 113.23 131.671Z" fill="#B2001A"/>
<path d="M130.451 131.671C132.354 131.671 133.896 127.828 133.896 123.087C133.896 118.346 132.354 114.502 130.451 114.502C128.549 114.502 127.007 118.346 127.007 123.087C127.007 127.828 128.549 131.671 130.451 131.671Z" fill="#B2001A"/>
<path d="M121.842 117.935C126.597 117.935 130.452 116.398 130.452 114.501C130.452 112.605 126.597 111.067 121.842 111.067C117.086 111.067 113.231 112.605 113.231 114.501C113.231 116.398 117.086 117.935 121.842 117.935Z" fill="#B2001A"/>
<path d="M113.231 131.557C113.231 129.668 117.077 128.123 121.842 128.123C126.606 128.123 130.395 129.668 130.395 131.557C130.395 133.445 126.549 134.99 121.842 134.99C117.134 134.99 113.231 133.56 113.231 131.557Z" fill="#B2001A"/>
<path d="M130.451 97.3904C132.354 97.3904 133.896 93.5471 133.896 88.8061C133.896 84.065 132.354 80.2217 130.451 80.2217C128.549 80.2217 127.007 84.065 127.007 88.8061C127.007 93.5471 128.549 97.3904 130.451 97.3904Z" fill="#B2001A"/>
<path d="M147.616 97.3904C149.518 97.3904 151.06 93.5471 151.06 88.8061C151.06 84.065 149.518 80.2217 147.616 80.2217C145.714 80.2217 144.172 84.065 144.172 88.8061C144.172 93.5471 145.714 97.3904 147.616 97.3904Z" fill="#B2001A"/>
<path d="M139.005 83.7122C143.761 83.7122 147.616 82.1749 147.616 80.2785C147.616 78.3821 143.761 76.8447 139.005 76.8447C134.25 76.8447 130.394 78.3821 130.394 80.2785C130.394 82.1749 134.25 83.7122 139.005 83.7122Z" fill="#B2001A"/>
<path d="M139.005 100.824C143.761 100.824 147.616 99.2867 147.616 97.3903C147.616 95.4939 143.761 93.9565 139.005 93.9565C134.25 93.9565 130.394 95.4939 130.394 97.3903C130.394 99.2867 134.25 100.824 139.005 100.824Z" fill="#B2001A"/>
<path d="M130.451 114.559C132.354 114.559 133.896 110.716 133.896 105.975C133.896 101.233 132.354 97.3901 130.451 97.3901C128.549 97.3901 127.007 101.233 127.007 105.975C127.007 110.716 128.549 114.559 130.451 114.559Z" fill="#B2001A"/>
<path d="M147.616 114.559C149.518 114.559 151.06 110.716 151.06 105.975C151.06 101.233 149.518 97.3901 147.616 97.3901C145.714 97.3901 144.172 101.233 144.172 105.975C144.172 110.716 145.714 114.559 147.616 114.559Z" fill="#B2001A"/>
<path d="M130.394 97.2178C130.394 95.3292 134.241 93.7842 139.005 93.7842C143.77 93.7842 147.616 95.3292 147.616 97.2178C147.616 99.1064 143.77 100.651 139.005 100.651C134.241 100.651 130.394 99.278 130.394 97.2178Z" fill="#B2001A"/>
<path d="M130.394 114.387C130.394 112.441 134.241 110.953 139.005 110.953C143.77 110.953 147.616 112.441 147.616 114.387C147.616 116.333 143.77 117.763 139.005 117.763C134.241 117.763 130.394 116.447 130.394 114.387Z" fill="#B2001A"/>
<path d="M130.451 131.671C132.354 131.671 133.896 127.828 133.896 123.087C133.896 118.346 132.354 114.502 130.451 114.502C128.549 114.502 127.007 118.346 127.007 123.087C127.007 127.828 128.549 131.671 130.451 131.671Z" fill="#B2001A"/>
<path d="M147.616 131.671C149.518 131.671 151.06 127.828 151.06 123.087C151.06 118.346 149.518 114.502 147.616 114.502C145.714 114.502 144.172 118.346 144.172 123.087C144.172 127.828 145.714 131.671 147.616 131.671Z" fill="#B2001A"/>
<path d="M139.005 117.935C143.761 117.935 147.616 116.398 147.616 114.501C147.616 112.605 143.761 111.067 139.005 111.067C134.25 111.067 130.394 112.605 130.394 114.501C130.394 116.398 134.25 117.935 139.005 117.935Z" fill="#B2001A"/>
<path d="M130.394 131.557C130.394 129.668 134.241 128.123 139.005 128.123C143.77 128.123 147.616 129.668 147.616 131.557C147.616 133.445 143.77 134.99 139.005 134.99C134.241 134.99 130.394 133.56 130.394 131.557Z" fill="#B2001A"/>
<path d="M147.616 97.3904C149.518 97.3904 151.06 93.5471 151.06 88.8061C151.06 84.065 149.518 80.2217 147.616 80.2217C145.714 80.2217 144.172 84.065 144.172 88.8061C144.172 93.5471 145.714 97.3904 147.616 97.3904Z" fill="#B2001A"/>
<path d="M164.781 97.3904C166.683 97.3904 168.225 93.5471 168.225 88.8061C168.225 84.065 166.683 80.2217 164.781 80.2217C162.879 80.2217 161.337 84.065 161.337 88.8061C161.337 93.5471 162.879 97.3904 164.781 97.3904Z" fill="#B2001A"/>
<path d="M156.227 83.7122C160.982 83.7122 164.837 82.1749 164.837 80.2785C164.837 78.3821 160.982 76.8447 156.227 76.8447C151.471 76.8447 147.616 78.3821 147.616 80.2785C147.616 82.1749 151.471 83.7122 156.227 83.7122Z" fill="#B2001A"/>
<path d="M156.227 100.824C160.982 100.824 164.837 99.2867 164.837 97.3903C164.837 95.4939 160.982 93.9565 156.227 93.9565C151.471 93.9565 147.616 95.4939 147.616 97.3903C147.616 99.2867 151.471 100.824 156.227 100.824Z" fill="#B2001A"/>
<path d="M147.616 114.559C149.518 114.559 151.06 110.716 151.06 105.975C151.06 101.233 149.518 97.3901 147.616 97.3901C145.714 97.3901 144.172 101.233 144.172 105.975C144.172 110.716 145.714 114.559 147.616 114.559Z" fill="#B2001A"/>
<path d="M164.781 114.559C166.683 114.559 168.225 110.716 168.225 105.975C168.225 101.233 166.683 97.3901 164.781 97.3901C162.879 97.3901 161.337 101.233 161.337 105.975C161.337 110.716 162.879 114.559 164.781 114.559Z" fill="#B2001A"/>
<path d="M164.781 97.2178C164.781 95.3292 168.627 93.7842 173.391 93.7842C178.156 93.7842 181.945 95.3292 181.945 97.2178C181.945 99.1064 178.099 100.651 173.391 100.651C168.684 100.651 164.781 99.278 164.781 97.2178Z" fill="#B2001A"/>
<path d="M147.616 114.387C147.616 112.441 151.462 110.953 156.169 110.953C160.876 110.953 164.78 112.441 164.78 114.387C164.78 116.333 160.934 117.763 156.169 117.763C151.405 117.763 147.616 116.447 147.616 114.387Z" fill="#B2001A"/>
<path d="M147.616 131.671C149.518 131.671 151.06 127.828 151.06 123.087C151.06 118.346 149.518 114.502 147.616 114.502C145.714 114.502 144.172 118.346 144.172 123.087C144.172 127.828 145.714 131.671 147.616 131.671Z" fill="#B2001A"/>
<path d="M164.781 131.671C166.683 131.671 168.225 127.828 168.225 123.087C168.225 118.346 166.683 114.502 164.781 114.502C162.879 114.502 161.337 118.346 161.337 123.087C161.337 127.828 162.879 131.671 164.781 131.671Z" fill="#B2001A"/>
<path d="M156.227 117.935C160.982 117.935 164.837 116.398 164.837 114.501C164.837 112.605 160.982 111.067 156.227 111.067C151.471 111.067 147.616 112.605 147.616 114.501C147.616 116.398 151.471 117.935 156.227 117.935Z" fill="#B2001A"/>
<path d="M164.781 97.2178C164.781 95.3292 168.627 93.7842 173.391 93.7842C178.156 93.7842 181.945 95.3292 181.945 97.2178C181.945 99.1064 178.099 100.651 173.391 100.651C168.684 100.651 164.781 99.278 164.781 97.2178Z" fill="#B2001A"/>
<path d="M173.391 117.935C178.147 117.935 182.002 116.398 182.002 114.501C182.002 112.605 178.147 111.067 173.391 111.067C168.636 111.067 164.781 112.605 164.781 114.501C164.781 116.398 168.636 117.935 173.391 117.935Z" fill="#B2001A"/>
<path d="M147.616 131.557C147.616 129.668 151.462 128.123 156.169 128.123C160.876 128.123 164.78 129.668 164.78 131.557C164.78 133.445 160.934 134.99 156.169 134.99C151.405 134.99 147.616 133.56 147.616 131.557Z" fill="#B2001A"/>
<path d="M113.23 148.782C115.132 148.782 116.674 144.939 116.674 140.198C116.674 135.457 115.132 131.613 113.23 131.613C111.328 131.613 109.786 135.457 109.786 140.198C109.786 144.939 111.328 148.782 113.23 148.782Z" fill="#B2001A"/>
<path d="M130.451 148.782C132.354 148.782 133.896 144.939 133.896 140.198C133.896 135.457 132.354 131.613 130.451 131.613C128.549 131.613 127.007 135.457 127.007 140.198C127.007 144.939 128.549 148.782 130.451 148.782Z" fill="#B2001A"/>
<path d="M121.842 135.047C126.597 135.047 130.452 133.51 130.452 131.613C130.452 129.717 126.597 128.18 121.842 128.18C117.086 128.18 113.231 129.717 113.231 131.613C113.231 133.51 117.086 135.047 121.842 135.047Z" fill="#B2001A"/>
<path d="M113.231 148.725C113.231 146.837 117.077 145.292 121.842 145.292C126.606 145.292 130.395 146.837 130.395 148.725C130.395 150.614 126.549 152.159 121.842 152.159C117.134 152.159 113.231 150.671 113.231 148.725Z" fill="#B2001A"/>
<path d="M113.23 165.894C115.132 165.894 116.674 162.051 116.674 157.309C116.674 152.568 115.132 148.725 113.23 148.725C111.328 148.725 109.786 152.568 109.786 157.309C109.786 162.051 111.328 165.894 113.23 165.894Z" fill="#B2001A"/>
<path d="M130.451 165.894C132.354 165.894 133.896 162.051 133.896 157.309C133.896 152.568 132.354 148.725 130.451 148.725C128.549 148.725 127.007 152.568 127.007 157.309C127.007 162.051 128.549 165.894 130.451 165.894Z" fill="#B2001A"/>
<path d="M121.842 152.216C126.597 152.216 130.452 150.678 130.452 148.782C130.452 146.885 126.597 145.348 121.842 145.348C117.086 145.348 113.231 146.885 113.231 148.782C113.231 150.678 117.086 152.216 121.842 152.216Z" fill="#B2001A"/>
<path d="M121.842 169.328C126.597 169.328 130.452 167.791 130.452 165.894C130.452 163.998 126.597 162.46 121.842 162.46C117.086 162.46 113.231 163.998 113.231 165.894C113.231 167.791 117.086 169.328 121.842 169.328Z" fill="#B2001A"/>
<path d="M78.9017 63.1673C80.804 63.1673 82.346 59.3239 82.346 54.5829C82.346 49.8419 80.804 45.9985 78.9017 45.9985C76.9995 45.9985 75.4574 49.8419 75.4574 54.5829C75.4574 59.3239 76.9995 63.1673 78.9017 63.1673Z" fill="#B2001A"/>
<path d="M96.0664 63.1673C97.9686 63.1673 99.5107 59.3239 99.5107 54.5829C99.5107 49.8419 97.9686 45.9985 96.0664 45.9985C94.1641 45.9985 92.6221 49.8419 92.6221 54.5829C92.6221 59.3239 94.1641 63.1673 96.0664 63.1673Z" fill="#B2001A"/>
<path d="M78.8447 45.9979C78.8447 44.1093 82.6908 42.6216 87.4555 42.6216C92.2201 42.6216 96.0662 44.1093 96.0662 45.9979C96.0662 47.8865 92.2201 49.4319 87.4555 49.4319C82.6908 49.4319 78.8447 47.9437 78.8447 45.9979Z" fill="#B2001A"/>
<path d="M87.4555 66.5433C92.2111 66.5433 96.0662 65.0059 96.0662 63.1095C96.0662 61.2131 92.2111 59.6758 87.4555 59.6758C82.6998 59.6758 78.8447 61.2131 78.8447 63.1095C78.8447 65.0059 82.6998 66.5433 87.4555 66.5433Z" fill="#B2001A"/>
<path d="M78.9017 80.2781C80.804 80.2781 82.346 76.4348 82.346 71.6938C82.346 66.9527 80.804 63.1094 78.9017 63.1094C76.9995 63.1094 75.4574 66.9527 75.4574 71.6938C75.4574 76.4348 76.9995 80.2781 78.9017 80.2781Z" fill="#B2001A"/>
<path d="M96.0664 80.2781C97.9686 80.2781 99.5107 76.4348 99.5107 71.6938C99.5107 66.9527 97.9686 63.1094 96.0664 63.1094C94.1641 63.1094 92.6221 66.9527 92.6221 71.6938C92.6221 76.4348 94.1641 80.2781 96.0664 80.2781Z" fill="#B2001A"/>
<path d="M87.4555 66.5433C92.2111 66.5433 96.0662 65.0059 96.0662 63.1095C96.0662 61.2131 92.2111 59.6758 87.4555 59.6758C82.6998 59.6758 78.8447 61.2131 78.8447 63.1095C78.8447 65.0059 82.6998 66.5433 87.4555 66.5433Z" fill="#B2001A"/>
<path d="M87.4555 83.7122C92.2111 83.7122 96.0662 82.1749 96.0662 80.2785C96.0662 78.3821 92.2111 76.8447 87.4555 76.8447C82.6998 76.8447 78.8447 78.3821 78.8447 80.2785C78.8447 82.1749 82.6998 83.7122 87.4555 83.7122Z" fill="#B2001A"/>
<path d="M78.9017 97.3904C80.804 97.3904 82.346 93.5471 82.346 88.8061C82.346 84.065 80.804 80.2217 78.9017 80.2217C76.9995 80.2217 75.4574 84.065 75.4574 88.8061C75.4574 93.5471 76.9995 97.3904 78.9017 97.3904Z" fill="#B2001A"/>
<path d="M96.0664 97.3904C97.9686 97.3904 99.5107 93.5471 99.5107 88.8061C99.5107 84.065 97.9686 80.2217 96.0664 80.2217C94.1641 80.2217 92.6221 84.065 92.6221 88.8061C92.6221 93.5471 94.1641 97.3904 96.0664 97.3904Z" fill="#B2001A"/>
<path d="M87.4555 83.7122C92.2111 83.7122 96.0662 82.1749 96.0662 80.2785C96.0662 78.3821 92.2111 76.8447 87.4555 76.8447C82.6998 76.8447 78.8447 78.3821 78.8447 80.2785C78.8447 82.1749 82.6998 83.7122 87.4555 83.7122Z" fill="#B2001A"/>
<path d="M87.4555 100.824C92.2111 100.824 96.0662 99.2867 96.0662 97.3903C96.0662 95.4939 92.2111 93.9565 87.4555 93.9565C82.6998 93.9565 78.8447 95.4939 78.8447 97.3903C78.8447 99.2867 82.6998 100.824 87.4555 100.824Z" fill="#B2001A"/>
<path d="M78.9017 114.559C80.804 114.559 82.346 110.716 82.346 105.975C82.346 101.233 80.804 97.3901 78.9017 97.3901C76.9995 97.3901 75.4574 101.233 75.4574 105.975C75.4574 110.716 76.9995 114.559 78.9017 114.559Z" fill="#B2001A"/>
<path d="M96.0664 114.559C97.9686 114.559 99.5107 110.716 99.5107 105.975C99.5107 101.233 97.9686 97.3901 96.0664 97.3901C94.1641 97.3901 92.6221 101.233 92.6221 105.975C92.6221 110.716 94.1641 114.559 96.0664 114.559Z" fill="#B2001A"/>
<path d="M78.8447 97.2178C78.8447 95.3292 82.6908 93.7842 87.4555 93.7842C92.2201 93.7842 96.0662 95.3292 96.0662 97.2178C96.0662 99.1064 92.2201 100.651 87.4555 100.651C82.6908 100.651 78.8447 99.278 78.8447 97.2178Z" fill="#B2001A"/>
<path d="M78.8447 114.387C78.8447 112.441 82.6908 110.953 87.4555 110.953C92.2201 110.953 96.0662 112.441 96.0662 114.387C96.0662 116.333 92.2201 117.763 87.4555 117.763C82.6908 117.763 78.8447 116.447 78.8447 114.387Z" fill="#B2001A"/>
<path d="M78.9017 131.671C80.804 131.671 82.346 127.828 82.346 123.087C82.346 118.346 80.804 114.502 78.9017 114.502C76.9995 114.502 75.4574 118.346 75.4574 123.087C75.4574 127.828 76.9995 131.671 78.9017 131.671Z" fill="#B2001A"/>
<path d="M96.0664 131.671C97.9686 131.671 99.5107 127.828 99.5107 123.087C99.5107 118.346 97.9686 114.502 96.0664 114.502C94.1641 114.502 92.6221 118.346 92.6221 123.087C92.6221 127.828 94.1641 131.671 96.0664 131.671Z" fill="#B2001A"/>
<path d="M87.4555 117.935C92.2111 117.935 96.0662 116.398 96.0662 114.501C96.0662 112.605 92.2111 111.067 87.4555 111.067C82.6998 111.067 78.8447 112.605 78.8447 114.501C78.8447 116.398 82.6998 117.935 87.4555 117.935Z" fill="#B2001A"/>
<path d="M78.8447 131.557C78.8447 129.668 82.6908 128.123 87.4555 128.123C92.2201 128.123 96.0662 129.668 96.0662 131.557C96.0662 133.445 92.2201 134.99 87.4555 134.99C82.6908 134.99 78.8447 133.56 78.8447 131.557Z" fill="#B2001A"/>
<path d="M61.6802 97.3904C63.5824 97.3904 65.1245 93.5471 65.1245 88.8061C65.1245 84.065 63.5824 80.2217 61.6802 80.2217C59.7779 80.2217 58.2358 84.065 58.2358 88.8061C58.2358 93.5471 59.7779 97.3904 61.6802 97.3904Z" fill="#B2001A"/>
<path d="M78.9017 97.3904C80.804 97.3904 82.346 93.5471 82.346 88.8061C82.346 84.065 80.804 80.2217 78.9017 80.2217C76.9995 80.2217 75.4574 84.065 75.4574 88.8061C75.4574 93.5471 76.9995 97.3904 78.9017 97.3904Z" fill="#B2001A"/>
<path d="M70.2907 83.7122C75.0463 83.7122 78.9015 82.1749 78.9015 80.2785C78.9015 78.3821 75.0463 76.8447 70.2907 76.8447C65.5351 76.8447 61.6799 78.3821 61.6799 80.2785C61.6799 82.1749 65.5351 83.7122 70.2907 83.7122Z" fill="#B2001A"/>
<path d="M70.2907 100.824C75.0463 100.824 78.9015 99.2867 78.9015 97.3903C78.9015 95.4939 75.0463 93.9565 70.2907 93.9565C65.5351 93.9565 61.6799 95.4939 61.6799 97.3903C61.6799 99.2867 65.5351 100.824 70.2907 100.824Z" fill="#B2001A"/>
<path d="M61.6802 114.559C63.5824 114.559 65.1245 110.716 65.1245 105.975C65.1245 101.233 63.5824 97.3901 61.6802 97.3901C59.7779 97.3901 58.2358 101.233 58.2358 105.975C58.2358 110.716 59.7779 114.559 61.6802 114.559Z" fill="#B2001A"/>
<path d="M78.9017 114.559C80.804 114.559 82.346 110.716 82.346 105.975C82.346 101.233 80.804 97.3901 78.9017 97.3901C76.9995 97.3901 75.4574 101.233 75.4574 105.975C75.4574 110.716 76.9995 114.559 78.9017 114.559Z" fill="#B2001A"/>
<path d="M61.6799 97.2178C61.6799 95.3292 65.5261 93.7842 70.2907 93.7842C75.0554 93.7842 78.8441 95.3292 78.8441 97.2178C78.8441 99.1064 74.998 100.651 70.2907 100.651C65.5835 100.651 61.6799 99.278 61.6799 97.2178Z" fill="#B2001A"/>
<path d="M61.6799 114.387C61.6799 112.441 65.5261 110.953 70.2907 110.953C75.0554 110.953 78.8441 112.441 78.8441 114.387C78.8441 116.333 74.998 117.763 70.2907 117.763C65.5835 117.763 61.6799 116.447 61.6799 114.387Z" fill="#B2001A"/>
<path d="M61.6802 131.671C63.5824 131.671 65.1245 127.828 65.1245 123.087C65.1245 118.346 63.5824 114.502 61.6802 114.502C59.7779 114.502 58.2358 118.346 58.2358 123.087C58.2358 127.828 59.7779 131.671 61.6802 131.671Z" fill="#B2001A"/>
<path d="M78.9017 131.671C80.804 131.671 82.346 127.828 82.346 123.087C82.346 118.346 80.804 114.502 78.9017 114.502C76.9995 114.502 75.4574 118.346 75.4574 123.087C75.4574 127.828 76.9995 131.671 78.9017 131.671Z" fill="#B2001A"/>
<path d="M70.2907 117.935C75.0463 117.935 78.9015 116.398 78.9015 114.501C78.9015 112.605 75.0463 111.067 70.2907 111.067C65.5351 111.067 61.6799 112.605 61.6799 114.501C61.6799 116.398 65.5351 117.935 70.2907 117.935Z" fill="#B2001A"/>
<path d="M61.6799 131.557C61.6799 129.668 65.5261 128.123 70.2907 128.123C75.0554 128.123 78.8441 129.668 78.8441 131.557C78.8441 133.445 74.998 134.99 70.2907 134.99C65.5835 134.99 61.6799 133.56 61.6799 131.557Z" fill="#B2001A"/>
<path d="M44.5167 97.3904C46.4189 97.3904 47.961 93.5471 47.961 88.8061C47.961 84.065 46.4189 80.2217 44.5167 80.2217C42.6145 80.2217 41.0724 84.065 41.0724 88.8061C41.0724 93.5471 42.6145 97.3904 44.5167 97.3904Z" fill="#B2001A"/>
<path d="M61.6802 97.3904C63.5824 97.3904 65.1245 93.5471 65.1245 88.8061C65.1245 84.065 63.5824 80.2217 61.6802 80.2217C59.7779 80.2217 58.2358 84.065 58.2358 88.8061C58.2358 93.5471 59.7779 97.3904 61.6802 97.3904Z" fill="#B2001A"/>
<path d="M53.1273 83.7122C57.8829 83.7122 61.7381 82.1749 61.7381 80.2785C61.7381 78.3821 57.8829 76.8447 53.1273 76.8447C48.3717 76.8447 44.5165 78.3821 44.5165 80.2785C44.5165 82.1749 48.3717 83.7122 53.1273 83.7122Z" fill="#B2001A"/>
<path d="M53.1273 100.824C57.8829 100.824 61.7381 99.2867 61.7381 97.3903C61.7381 95.4939 57.8829 93.9565 53.1273 93.9565C48.3717 93.9565 44.5165 95.4939 44.5165 97.3903C44.5165 99.2867 48.3717 100.824 53.1273 100.824Z" fill="#B2001A"/>
<path d="M44.5167 114.559C46.4189 114.559 47.961 110.716 47.961 105.975C47.961 101.233 46.4189 97.3901 44.5167 97.3901C42.6145 97.3901 41.0724 101.233 41.0724 105.975C41.0724 110.716 42.6145 114.559 44.5167 114.559Z" fill="#B2001A"/>
<path d="M61.6802 114.559C63.5824 114.559 65.1245 110.716 65.1245 105.975C65.1245 101.233 63.5824 97.3901 61.6802 97.3901C59.7779 97.3901 58.2358 101.233 58.2358 105.975C58.2358 110.716 59.7779 114.559 61.6802 114.559Z" fill="#B2001A"/>
<path d="M27.3517 97.2178C27.3517 95.3292 31.1404 93.7842 35.9051 93.7842C40.6697 93.7842 44.5159 95.3292 44.5159 97.2178C44.5159 99.1064 40.6697 100.651 35.9051 100.651C31.1404 100.651 27.3517 99.278 27.3517 97.2178Z" fill="#B2001A"/>
<path d="M44.5165 114.387C44.5165 112.441 48.3626 110.953 53.0698 110.953C57.777 110.953 61.6806 112.441 61.6806 114.387C61.6806 116.333 57.8344 117.763 53.0698 117.763C48.3052 117.763 44.5165 116.447 44.5165 114.387Z" fill="#B2001A"/>
<path d="M44.5167 131.671C46.4189 131.671 47.961 127.828 47.961 123.087C47.961 118.346 46.4189 114.502 44.5167 114.502C42.6145 114.502 41.0724 118.346 41.0724 123.087C41.0724 127.828 42.6145 131.671 44.5167 131.671Z" fill="#B2001A"/>
<path d="M61.6802 131.671C63.5824 131.671 65.1245 127.828 65.1245 123.087C65.1245 118.346 63.5824 114.502 61.6802 114.502C59.7779 114.502 58.2358 118.346 58.2358 123.087C58.2358 127.828 59.7779 131.671 61.6802 131.671Z" fill="#B2001A"/>
<path d="M53.1273 117.935C57.8829 117.935 61.7381 116.398 61.7381 114.501C61.7381 112.605 57.8829 111.067 53.1273 111.067C48.3717 111.067 44.5165 112.605 44.5165 114.501C44.5165 116.398 48.3717 117.935 53.1273 117.935Z" fill="#B2001A"/>
<path d="M27.3517 97.2178C27.3517 95.3292 31.1404 93.7842 35.9051 93.7842C40.6697 93.7842 44.5159 95.3292 44.5159 97.2178C44.5159 99.1064 40.6697 100.651 35.9051 100.651C31.1404 100.651 27.3517 99.278 27.3517 97.2178Z" fill="#B2001A"/>
<path d="M35.9057 117.935C40.6614 117.935 44.5165 116.398 44.5165 114.501C44.5165 112.605 40.6614 111.067 35.9057 111.067C31.1501 111.067 27.295 112.605 27.295 114.501C27.295 116.398 31.1501 117.935 35.9057 117.935Z" fill="#B2001A"/>
<path d="M44.5165 131.557C44.5165 129.668 48.3626 128.123 53.0698 128.123C57.777 128.123 61.6806 129.668 61.6806 131.557C61.6806 133.445 57.8344 134.99 53.0698 134.99C48.3052 134.99 44.5165 133.56 44.5165 131.557Z" fill="#B2001A"/>
<path d="M78.9017 148.782C80.804 148.782 82.346 144.939 82.346 140.198C82.346 135.457 80.804 131.613 78.9017 131.613C76.9995 131.613 75.4574 135.457 75.4574 140.198C75.4574 144.939 76.9995 148.782 78.9017 148.782Z" fill="#B2001A"/>
<path d="M96.0664 148.782C97.9686 148.782 99.5107 144.939 99.5107 140.198C99.5107 135.457 97.9686 131.613 96.0664 131.613C94.1641 131.613 92.6221 135.457 92.6221 140.198C92.6221 144.939 94.1641 148.782 96.0664 148.782Z" fill="#B2001A"/>
<path d="M87.4553 135.047C92.2109 135.047 96.0661 133.51 96.0661 131.613C96.0661 129.717 92.2109 128.18 87.4553 128.18C82.6997 128.18 78.8445 129.717 78.8445 131.613C78.8445 133.51 82.6997 135.047 87.4553 135.047Z" fill="#B2001A"/>
<path d="M78.8447 148.725C78.8447 146.837 82.6908 145.292 87.4555 145.292C92.2201 145.292 96.0662 146.837 96.0662 148.725C96.0662 150.614 92.2201 152.159 87.4555 152.159C82.6908 152.159 78.8447 150.671 78.8447 148.725Z" fill="#B2001A"/>
<path d="M78.9017 165.894C80.804 165.894 82.346 162.051 82.346 157.309C82.346 152.568 80.804 148.725 78.9017 148.725C76.9995 148.725 75.4574 152.568 75.4574 157.309C75.4574 162.051 76.9995 165.894 78.9017 165.894Z" fill="#B2001A"/>
<path d="M96.0664 165.894C97.9686 165.894 99.5107 162.051 99.5107 157.309C99.5107 152.568 97.9686 148.725 96.0664 148.725C94.1641 148.725 92.6221 152.568 92.6221 157.309C92.6221 162.051 94.1641 165.894 96.0664 165.894Z" fill="#B2001A"/>
<path d="M87.4553 152.216C92.2109 152.216 96.0661 150.678 96.0661 148.782C96.0661 146.885 92.2109 145.348 87.4553 145.348C82.6997 145.348 78.8445 146.885 78.8445 148.782C78.8445 150.678 82.6997 152.216 87.4553 152.216Z" fill="#B2001A"/>
<path d="M87.4555 169.328C92.2111 169.328 96.0662 167.791 96.0662 165.894C96.0662 163.998 92.2111 162.46 87.4555 162.46C82.6998 162.46 78.8447 163.998 78.8447 165.894C78.8447 167.791 82.6998 169.328 87.4555 169.328Z" fill="#B2001A"/>
<path d="M96.0664 183.063C97.9686 183.063 99.5107 179.219 99.5107 174.478C99.5107 169.737 97.9686 165.894 96.0664 165.894C94.1641 165.894 92.6221 169.737 92.6221 174.478C92.6221 179.219 94.1641 183.063 96.0664 183.063Z" fill="#B2001A"/>
<path d="M113.23 183.063C115.132 183.063 116.674 179.219 116.674 174.478C116.674 169.737 115.132 165.894 113.23 165.894C111.328 165.894 109.786 169.737 109.786 174.478C109.786 179.219 111.328 183.063 113.23 183.063Z" fill="#B2001A"/>
<path d="M96.0662 165.894C96.0662 164.005 99.9123 162.46 104.619 162.46C109.327 162.46 113.23 164.005 113.23 165.894C113.23 167.783 109.384 169.328 104.619 169.328C99.8549 169.328 96.0662 167.783 96.0662 165.894Z" fill="#B2001A"/>
<path d="M104.677 186.439C109.432 186.439 113.288 184.901 113.288 183.005C113.288 181.109 109.432 179.571 104.677 179.571C99.9213 179.571 96.0661 181.109 96.0661 183.005C96.0661 184.901 99.9213 186.439 104.677 186.439Z" fill="#B2001A"/>
</g>
<defs>
<clipPath id="clip0_1374_51007">
<rect width="161.538" height="161.043" fill="white" transform="translate(23.9077 25.4531)"/>
</clipPath>
</defs>
</svg>
