<svg width="210" height="210" viewBox="0 0 210 210" fill="none" xmlns="http://www.w3.org/2000/svg">
<g clip-path="url(#clip0_1374_33295)">
<path d="M133.91 140.342C134.657 141.083 132.387 144.557 128.852 148.061C125.317 151.564 121.811 153.758 121.064 153.074C120.317 152.39 122.587 148.887 126.122 145.355C129.657 141.823 133.162 139.63 133.91 140.342Z" fill="#B2001A"/>
<path d="M121.15 140.342C121.898 139.602 125.375 141.852 128.938 145.355C132.502 148.859 134.686 152.334 133.996 153.074C133.306 153.815 129.772 151.593 126.208 148.061C122.645 144.529 120.317 141.083 121.15 140.342Z" fill="#B2001A"/>
<path d="M128.849 135.317C132.396 131.802 134.661 128.348 133.909 127.603C133.157 126.858 129.673 129.103 126.126 132.618C122.58 136.133 120.315 139.587 121.067 140.332C121.819 141.077 125.303 138.832 128.849 135.317Z" fill="#B2001A"/>
<path d="M121.15 127.61C121.898 126.869 125.375 129.119 128.938 132.623C132.502 136.126 134.686 139.601 133.996 140.342C133.306 141.082 129.772 138.832 126.208 135.329C122.645 131.825 120.317 128.236 121.15 127.61Z" fill="#B2001A"/>
<path d="M146.756 127.61C147.532 128.351 145.262 131.797 141.698 135.329C138.135 138.861 134.657 141.026 133.91 140.342C133.163 139.659 135.433 136.155 138.968 132.623C142.503 129.091 146.009 126.869 146.756 127.61Z" fill="#B2001A"/>
<path d="M133.91 127.61C134.657 126.869 138.164 129.119 141.698 132.623C145.233 136.126 147.446 139.601 146.756 140.342C146.066 141.082 142.532 138.832 138.968 135.329C135.405 131.825 133.163 128.236 133.91 127.61Z" fill="#B2001A"/>
<path d="M154.545 135.313C158.092 131.798 160.357 128.344 159.605 127.599C158.853 126.854 155.369 129.099 151.822 132.614C148.276 136.129 146.011 139.583 146.763 140.328C147.514 141.073 150.999 138.828 154.545 135.313Z" fill="#B2001A"/>
<path d="M146.756 127.61C147.503 126.869 151.009 129.119 154.544 132.623C158.079 136.126 160.292 139.601 159.602 140.342C158.912 141.082 155.378 138.832 151.814 135.329C148.251 131.825 146.009 128.236 146.756 127.61Z" fill="#B2001A"/>
<path d="M115.981 135.339C119.527 131.824 121.793 128.37 121.041 127.625C120.289 126.88 116.804 129.125 113.258 132.64C109.711 136.155 107.446 139.609 108.198 140.354C108.95 141.1 112.434 138.854 115.981 135.339Z" fill="#B2001A"/>
<path d="M121.042 140.326C121.793 139.581 119.528 136.127 115.982 132.612C112.435 129.097 108.951 126.852 108.199 127.597C107.447 128.342 109.712 131.796 113.259 135.311C116.805 138.826 120.29 141.071 121.042 140.326Z" fill="#B2001A"/>
<path d="M108.19 127.61C108.966 128.351 106.695 131.797 103.132 135.329C99.5684 138.861 96.0912 141.026 95.344 140.342C94.5968 139.659 96.8671 136.155 100.402 132.623C103.937 129.091 107.443 126.869 108.19 127.61Z" fill="#B2001A"/>
<path d="M108.193 140.328C108.945 139.582 106.68 136.129 103.133 132.614C99.587 129.099 96.1024 126.853 95.3505 127.599C94.5985 128.344 96.8638 131.798 100.41 135.313C103.957 138.828 107.441 141.073 108.193 140.328Z" fill="#B2001A"/>
<path d="M95.2867 127.61C96.0339 128.351 93.7635 131.797 90.2288 135.329C86.694 138.861 83.1881 141.026 82.441 140.342C81.6938 139.659 83.9354 136.155 87.4988 132.623C91.0623 129.091 94.597 126.869 95.2867 127.61Z" fill="#B2001A"/>
<path d="M82.4979 127.61C83.2451 126.869 86.7222 129.119 90.2857 132.623C93.8492 136.126 96.0333 139.601 95.3436 140.342C94.6539 141.082 91.0905 138.832 87.5558 135.329C84.021 131.825 81.7507 128.236 82.4979 127.61Z" fill="#B2001A"/>
<path d="M82.4984 127.61C83.2456 128.351 80.9753 131.797 77.4118 135.329C73.8483 138.861 70.3995 141.026 69.6236 140.342C68.8477 139.659 71.1468 136.155 74.7102 132.623C78.2737 129.091 81.7225 126.869 82.4984 127.61Z" fill="#B2001A"/>
<path d="M69.624 127.61C70.3999 126.869 73.8774 129.119 77.4122 132.623C80.9469 136.126 83.1598 139.601 82.4988 140.342C81.8378 141.082 78.2454 138.832 74.7106 135.329C71.1759 131.825 68.8768 128.236 69.624 127.61Z" fill="#B2001A"/>
<path d="M69.6236 127.61C70.3708 128.351 68.1296 131.797 64.5661 135.329C61.0026 138.861 57.5251 141.026 56.7779 140.342C56.0307 139.659 58.301 136.155 61.8358 132.623C65.3705 129.091 68.8764 126.869 69.6236 127.61Z" fill="#B2001A"/>
<path d="M56.7779 127.61C57.5251 126.869 61.0313 129.119 64.5661 132.623C68.1008 136.126 70.3133 139.601 69.6236 140.342C68.9339 141.082 65.3992 138.832 61.8358 135.329C58.2723 131.825 56.0307 128.236 56.7779 127.61Z" fill="#B2001A"/>
<path d="M56.7775 127.61C57.5247 128.351 55.2544 131.797 51.7196 135.329C48.1849 138.861 44.679 141.026 43.9318 140.342C43.1846 139.659 45.4262 136.155 48.9897 132.623C52.5532 129.091 56.0303 126.869 56.7775 127.61Z" fill="#B2001A"/>
<path d="M43.9315 127.61C44.6786 126.869 48.1558 129.119 51.7193 132.623C55.2828 136.126 57.4669 139.601 56.7772 140.342C56.0875 141.082 52.5241 138.832 48.9894 135.329C45.4546 131.825 43.1555 128.236 43.9315 127.61Z" fill="#B2001A"/>
<path d="M133.91 114.878C134.657 115.618 132.387 119.065 128.852 122.597C125.317 126.129 121.811 128.293 121.064 127.61C120.317 126.926 122.587 123.394 126.122 119.891C129.657 116.387 133.162 113.995 133.91 114.878Z" fill="#B2001A"/>
<path d="M121.15 114.878C121.898 114.109 125.375 116.359 128.938 119.891C132.502 123.423 134.686 126.87 133.996 127.61C133.306 128.351 129.772 126.101 126.208 122.597C122.645 119.094 120.317 115.619 121.15 114.878Z" fill="#B2001A"/>
<path d="M141.696 122.58C145.242 119.065 147.507 115.612 146.755 114.867C146.003 114.121 142.519 116.366 138.973 119.882C135.426 123.397 133.161 126.85 133.913 127.596C134.665 128.341 138.149 126.095 141.696 122.58Z" fill="#B2001A"/>
<path d="M146.755 127.595C147.507 126.85 145.242 123.397 141.695 119.882C138.149 116.367 134.665 114.121 133.913 114.866C133.161 115.612 135.426 119.065 138.973 122.58C142.519 126.095 146.004 128.341 146.755 127.595Z" fill="#B2001A"/>
<path d="M159.602 114.878C160.378 115.618 158.107 119.065 154.544 122.597C150.98 126.129 147.503 128.293 146.756 127.61C146.009 126.926 148.279 123.394 151.814 119.891C155.349 116.387 158.855 113.995 159.602 114.878Z" fill="#B2001A"/>
<path d="M146.756 114.878C147.503 114.109 151.009 116.359 154.544 119.891C158.079 123.423 160.292 126.87 159.602 127.61C158.912 128.351 155.377 126.101 151.814 122.597C148.25 119.094 146.009 115.619 146.756 114.878Z" fill="#B2001A"/>
<path d="M121.15 114.878C121.897 115.618 119.627 119.065 116.092 122.597C112.557 126.129 109.051 128.293 108.275 127.61C107.5 126.926 109.799 123.394 113.362 119.891C116.926 116.387 120.317 113.995 121.15 114.878Z" fill="#B2001A"/>
<path d="M108.19 114.878C108.966 114.109 112.443 116.359 116.007 119.891C119.57 123.423 121.754 126.87 121.065 127.61C120.375 128.351 116.811 126.101 113.277 122.597C109.742 119.094 107.443 115.619 108.19 114.878Z" fill="#B2001A"/>
<path d="M108.19 114.878C108.966 115.618 106.695 119.065 103.132 122.597C99.5684 126.129 96.0912 128.293 95.344 127.61C94.5968 126.926 96.8671 123.394 100.402 119.891C103.937 116.387 107.443 113.995 108.19 114.878Z" fill="#B2001A"/>
<path d="M95.2869 114.878C96.0341 114.109 99.54 116.359 103.075 119.891C106.609 123.423 108.822 126.87 108.133 127.61C107.443 128.351 103.908 126.101 100.345 122.597C96.7813 119.094 94.5972 115.619 95.2869 114.878Z" fill="#B2001A"/>
<path d="M95.2867 114.878C96.0339 115.618 93.7635 119.065 90.2288 122.597C86.694 126.129 83.1881 128.293 82.441 127.61C81.6938 126.926 83.9354 123.394 87.4988 119.891C91.0623 116.387 94.597 113.995 95.2867 114.878Z" fill="#B2001A"/>
<path d="M82.4979 114.878C83.2451 114.109 86.7222 116.359 90.2857 119.891C93.8492 123.423 96.0333 126.87 95.3436 127.61C94.6539 128.351 91.0905 126.101 87.5558 122.597C84.021 119.094 81.7507 115.619 82.4979 114.878Z" fill="#B2001A"/>
<path d="M77.4146 122.575C80.961 119.06 83.2262 115.607 82.4743 114.862C81.7224 114.116 78.238 116.362 74.6916 119.877C71.1452 123.392 68.8798 126.845 69.6317 127.591C70.3836 128.336 73.8682 126.091 77.4146 122.575Z" fill="#B2001A"/>
<path d="M82.4745 127.59C83.2264 126.845 80.9609 123.392 77.4145 119.877C73.8681 116.362 70.3837 114.116 69.6318 114.861C68.8799 115.607 71.1451 119.06 74.6916 122.575C78.238 126.09 81.7226 128.336 82.4745 127.59Z" fill="#B2001A"/>
<path d="M64.567 122.577C68.1134 119.062 70.3789 115.608 69.627 114.863C68.875 114.117 65.3904 116.363 61.844 119.878C58.2976 123.393 56.0324 126.846 56.7844 127.592C57.5363 128.337 61.0206 126.092 64.567 122.577Z" fill="#B2001A"/>
<path d="M69.6269 127.592C70.3788 126.846 68.1135 123.393 64.5671 119.878C61.0207 116.363 57.5361 114.117 56.7842 114.863C56.0323 115.608 58.2978 119.061 61.8442 122.576C65.3906 126.091 68.875 128.337 69.6269 127.592Z" fill="#B2001A"/>
<path d="M56.7775 114.878C57.5247 115.618 55.2544 119.065 51.7196 122.597C48.1849 126.129 44.679 128.293 43.9318 127.61C43.1846 126.926 45.4262 123.394 48.9897 119.891C52.5532 116.387 56.0303 113.995 56.7775 114.878Z" fill="#B2001A"/>
<path d="M43.9315 114.878C44.6786 114.109 48.1558 116.359 51.7193 119.891C55.2828 123.423 57.4669 126.87 56.7772 127.61C56.0875 128.351 52.5241 126.101 48.9894 122.597C45.4546 119.094 43.1555 115.619 43.9315 114.878Z" fill="#B2001A"/>
<path d="M133.91 102.117C134.657 102.886 132.387 106.333 128.852 109.836C125.317 113.34 121.811 115.533 121.064 114.878C120.317 114.223 122.587 110.662 126.122 107.159C129.657 103.655 133.162 101.377 133.91 102.117Z" fill="#B2001A"/>
<path d="M121.15 102.118C121.898 101.377 125.375 103.627 128.938 107.159C132.502 110.691 134.686 114.109 133.996 114.878C133.306 115.647 129.772 113.369 126.208 109.837C122.645 106.305 120.317 102.887 121.15 102.118Z" fill="#B2001A"/>
<path d="M146.756 102.117C147.532 102.886 145.262 106.333 141.698 109.836C138.135 113.34 134.657 115.533 133.91 114.878C133.163 114.223 135.433 110.662 138.968 107.159C142.503 103.655 146.009 101.377 146.756 102.117Z" fill="#B2001A"/>
<path d="M133.91 102.118C134.657 101.377 138.164 103.627 141.698 107.159C145.233 110.691 147.446 114.109 146.756 114.878C146.066 115.647 142.532 113.369 138.968 109.837C135.405 106.305 133.163 102.887 133.91 102.118Z" fill="#B2001A"/>
<path d="M159.602 102.117C160.378 102.886 158.107 106.333 154.544 109.836C150.98 113.34 147.503 115.533 146.756 114.878C146.009 114.223 148.279 110.662 151.814 107.159C155.349 103.655 158.855 101.377 159.602 102.117Z" fill="#B2001A"/>
<path d="M146.756 102.118C147.503 101.377 151.009 103.627 154.544 107.159C158.079 110.691 160.292 114.109 159.602 114.878C158.912 115.647 155.378 113.369 151.814 109.837C148.251 106.305 146.009 102.887 146.756 102.118Z" fill="#B2001A"/>
<path d="M121.15 102.117C121.897 102.886 119.627 106.333 116.092 109.836C112.557 113.34 109.051 115.533 108.275 114.878C107.5 114.223 109.799 110.662 113.362 107.159C116.926 103.655 120.317 101.377 121.15 102.117Z" fill="#B2001A"/>
<path d="M108.19 102.118C108.966 101.377 112.443 103.627 116.007 107.159C119.57 110.691 121.754 114.109 121.065 114.878C120.375 115.647 116.811 113.369 113.277 109.837C109.742 106.305 107.443 102.887 108.19 102.118Z" fill="#B2001A"/>
<path d="M108.19 102.117C108.966 102.886 106.695 106.333 103.132 109.836C99.5684 113.34 96.0912 115.533 95.344 114.878C94.5968 114.223 96.8671 110.662 100.402 107.159C103.937 103.655 107.443 101.377 108.19 102.117Z" fill="#B2001A"/>
<path d="M95.2869 102.118C96.0341 101.377 99.54 103.627 103.075 107.159C106.609 110.691 108.822 114.109 108.133 114.878C107.443 115.647 103.908 113.369 100.345 109.837C96.7813 106.305 94.5972 102.887 95.2869 102.118Z" fill="#B2001A"/>
<path d="M95.2867 102.117C96.0339 102.886 93.7635 106.333 90.2288 109.836C86.694 113.34 83.1881 115.533 82.441 114.878C81.6938 114.223 83.9354 110.662 87.4988 107.159C91.0623 103.655 94.597 101.377 95.2867 102.117Z" fill="#B2001A"/>
<path d="M82.4979 102.118C83.2451 101.377 86.7222 103.627 90.2857 107.159C93.8492 110.691 96.0333 114.109 95.3436 114.878C94.6539 115.647 91.0905 113.369 87.5558 109.837C84.021 106.305 81.7507 102.887 82.4979 102.118Z" fill="#B2001A"/>
<path d="M82.4984 102.117C83.2456 102.886 80.9753 106.333 77.4118 109.836C73.8483 113.34 70.3995 115.533 69.6236 114.878C68.8477 114.223 71.1468 110.662 74.7102 107.159C78.2737 103.655 81.7225 101.377 82.4984 102.117Z" fill="#B2001A"/>
<path d="M69.624 102.118C70.3999 101.377 73.8774 103.627 77.4122 107.159C80.9469 110.691 83.1598 114.109 82.4988 114.878C81.8378 115.647 78.2454 113.369 74.7106 109.837C71.1759 106.305 68.8768 102.887 69.624 102.118Z" fill="#B2001A"/>
<path d="M69.6236 102.117C70.3708 102.886 68.1296 106.333 64.5661 109.836C61.0026 113.34 57.5251 115.533 56.7779 114.878C56.0307 114.223 58.301 110.662 61.8358 107.159C65.3705 103.655 68.8764 101.377 69.6236 102.117Z" fill="#B2001A"/>
<path d="M56.7779 102.118C57.5251 101.377 61.0313 103.627 64.5661 107.159C68.1008 110.691 70.3133 114.109 69.6236 114.878C68.9339 115.647 65.3992 113.369 61.8358 109.837C58.2723 106.305 56.0307 102.887 56.7779 102.118Z" fill="#B2001A"/>
<path d="M56.7775 102.117C57.5247 102.886 55.2544 106.333 51.7196 109.836C48.1849 113.34 44.679 115.533 43.9318 114.878C43.1846 114.223 45.4262 110.662 48.9897 107.159C52.5532 103.655 56.0303 101.377 56.7775 102.117Z" fill="#B2001A"/>
<path d="M43.9315 102.118C44.6786 101.377 48.1558 103.627 51.7193 107.159C55.2828 110.691 57.4669 114.109 56.7772 114.878C56.0875 115.647 52.5241 113.369 48.9894 109.837C45.4546 106.305 43.1555 102.887 43.9315 102.118Z" fill="#B2001A"/>
<path d="M38.8498 122.602C42.3962 119.087 44.6617 115.633 43.9098 114.888C43.1578 114.143 39.6732 116.388 36.1268 119.903C32.5804 123.418 30.315 126.872 31.0669 127.617C31.8189 128.362 35.3034 126.117 38.8498 122.602Z" fill="#B2001A"/>
<path d="M43.9097 127.617C44.6616 126.872 42.3963 123.418 38.8499 119.903C35.3035 116.388 31.8189 114.143 31.067 114.888C30.3151 115.633 32.5804 119.087 36.1268 122.602C39.6732 126.117 43.1578 128.362 43.9097 127.617Z" fill="#B2001A"/>
<path d="M43.932 102.117C44.6791 102.886 42.4088 106.333 38.8453 109.836C35.2818 113.34 31.8334 115.533 31.0575 114.878C30.2815 114.223 32.5806 110.662 36.1441 107.159C39.7076 103.655 43.156 101.377 43.932 102.117Z" fill="#B2001A"/>
<path d="M31.0579 102.118C31.8338 101.377 35.311 103.627 38.8458 107.159C42.3805 110.691 44.5934 114.109 43.9324 114.878C43.2714 115.647 39.6793 113.369 36.1446 109.837C32.6098 106.305 30.3107 102.887 31.0579 102.118Z" fill="#B2001A"/>
<path d="M69.6236 89.3845C70.3708 90.125 68.1296 93.6001 64.5661 97.1035C61.0026 100.607 57.5251 102.8 56.7779 102.117C56.0307 101.433 58.301 97.9295 61.8358 94.3976C65.3705 90.8656 68.8764 88.6439 69.6236 89.3845Z" fill="#B2001A"/>
<path d="M56.7779 89.3852C57.5251 88.6446 61.0314 90.8948 64.5661 94.3983C68.1009 97.9017 70.3134 101.377 69.6237 102.117C68.934 102.858 65.3993 100.636 61.8358 97.1042C58.2723 93.5723 56.0307 90.1257 56.7779 89.3852Z" fill="#B2001A"/>
<path d="M56.7775 89.3845C57.5247 90.125 55.2544 93.6001 51.7196 97.1035C48.1849 100.607 44.679 102.8 43.9318 102.117C43.1846 101.433 45.4262 97.9295 48.9897 94.3976C52.5532 90.8656 56.0303 88.6439 56.7775 89.3845Z" fill="#B2001A"/>
<path d="M43.9315 89.3852C44.6786 88.6446 48.1558 90.8948 51.7193 94.3983C55.2828 97.9017 57.4669 101.377 56.7772 102.117C56.0875 102.858 52.5241 100.636 48.9894 97.1042C45.4546 93.5723 43.1555 90.1257 43.9315 89.3852Z" fill="#B2001A"/>
<path d="M43.9321 89.3845C44.6792 90.125 42.4089 93.6001 38.8454 97.1035C35.2819 100.607 31.8335 102.8 31.0576 102.117C30.2816 101.433 32.5807 97.9295 36.1442 94.3976C39.7077 90.8656 43.1561 88.6439 43.9321 89.3845Z" fill="#B2001A"/>
<path d="M31.0579 89.3852C31.8338 88.6446 35.311 90.8948 38.8458 94.3983C42.3805 97.9017 44.5934 101.377 43.9324 102.117C43.2714 102.858 39.6793 100.636 36.1446 97.1042C32.6098 93.5723 30.3107 90.1257 31.0579 89.3852Z" fill="#B2001A"/>
<path d="M69.6236 76.6537C70.3708 77.3943 68.1296 80.8408 64.5661 84.3727C61.0026 87.9047 57.5251 90.0694 56.7779 89.3858C56.0307 88.7021 58.301 85.1702 61.8358 81.6668C65.3705 78.1633 68.8764 75.9132 69.6236 76.6537Z" fill="#B2001A"/>
<path d="M56.7779 76.654C57.5251 75.9134 61.0314 78.1351 64.5661 81.667C68.1009 85.199 70.3134 88.6454 69.6237 89.386C68.934 90.1266 65.3993 87.8764 61.8358 84.373C58.2723 80.8695 56.0307 77.3946 56.7779 76.654Z" fill="#B2001A"/>
<path d="M56.7775 76.6537C57.5247 77.3943 55.2544 80.8408 51.7196 84.3727C48.1849 87.9047 44.679 90.0694 43.9318 89.3858C43.1846 88.7021 45.4262 85.1702 48.9897 81.6668C52.5532 78.1633 56.0303 75.9132 56.7775 76.6537Z" fill="#B2001A"/>
<path d="M56.7596 89.3922C57.5115 88.6469 55.2462 85.1932 51.6998 81.6782C48.1534 78.1631 44.6688 75.9179 43.9169 76.6632C43.1649 77.4084 45.4302 80.8622 48.9767 84.3772C52.5231 87.8922 56.0077 90.1375 56.7596 89.3922Z" fill="#B2001A"/>
<path d="M43.9321 76.6537C44.6792 77.3943 42.4089 80.8408 38.8454 84.3727C35.2819 87.9047 31.8335 90.0694 31.0576 89.3858C30.2816 88.7021 32.5807 85.1702 36.1442 81.6668C39.7077 78.1633 43.1561 75.9132 43.9321 76.6537Z" fill="#B2001A"/>
<path d="M31.0579 76.654C31.8338 75.9134 35.311 78.1351 38.8458 81.667C42.3805 85.199 44.5934 88.6454 43.9324 89.386C43.2714 90.1266 39.6793 87.8764 36.1446 84.373C32.6098 80.8695 30.3107 77.3946 31.0579 76.654Z" fill="#B2001A"/>
<path d="M69.6236 63.8927C70.3708 64.6617 68.1296 68.1082 64.5661 71.6402C61.0026 75.1721 57.5251 77.3369 56.7779 76.6533C56.0307 75.9697 58.301 72.4377 61.8358 68.9342C65.3705 65.4307 68.8764 63.1521 69.6236 63.8927Z" fill="#B2001A"/>
<path d="M56.7779 63.8919C57.5251 63.1514 61.0314 65.4015 64.5661 68.9335C68.1009 72.4654 70.3134 75.912 69.6237 76.6526C68.934 77.3931 65.3993 75.1429 61.8358 71.6394C58.2723 68.136 56.0307 64.661 56.7779 63.8919Z" fill="#B2001A"/>
<path d="M56.7775 63.8927C57.5247 64.6617 55.2544 68.1082 51.7196 71.6402C48.1849 75.1721 44.679 77.3369 43.9318 76.6533C43.1846 75.9697 45.4262 72.4377 48.9897 68.9342C52.5532 65.4307 56.0303 63.1521 56.7775 63.8927Z" fill="#B2001A"/>
<path d="M43.9315 63.8919C44.6786 63.1514 48.1558 65.4015 51.7193 68.9335C55.2828 72.4654 57.4669 75.912 56.7772 76.6526C56.0875 77.3931 52.5241 75.1429 48.9894 71.6394C45.4546 68.136 43.1555 64.661 43.9315 63.8919Z" fill="#B2001A"/>
<path d="M43.9321 63.8927C44.6792 64.6617 42.4089 68.1082 38.8454 71.6402C35.2819 75.1721 31.8335 77.3369 31.0576 76.6533C30.2816 75.9697 32.5807 72.4377 36.1442 68.9342C39.7077 65.4307 43.1561 63.1521 43.9321 63.8927Z" fill="#B2001A"/>
<path d="M31.0579 63.8919C31.8338 63.1514 35.311 65.4015 38.8458 68.9335C42.3805 72.4654 44.5934 75.912 43.9324 76.6526C43.2714 77.3931 39.6793 75.1429 36.1446 71.6394C32.6098 68.136 30.3107 64.661 31.0579 63.8919Z" fill="#B2001A"/>
<path d="M69.6236 51.1598C70.3708 51.9004 68.1296 55.3754 64.5661 58.8788C61.0026 62.3823 57.5251 64.5756 56.7779 63.892C56.0307 63.2084 58.301 59.7049 61.8358 56.173C65.3705 52.641 68.8764 50.4193 69.6236 51.1598Z" fill="#B2001A"/>
<path d="M56.7779 51.1596C57.5251 50.419 61.0314 52.6692 64.5661 56.1727C68.1009 59.6762 70.3134 63.1511 69.6237 63.8917C68.934 64.6323 65.3993 62.4105 61.8358 58.8786C58.2723 55.3466 56.0307 51.9001 56.7779 51.1596Z" fill="#B2001A"/>
<path d="M56.7775 51.1598C57.5247 51.9004 55.2544 55.3754 51.7196 58.8788C48.1849 62.3823 44.679 64.5756 43.9318 63.892C43.1846 63.2084 45.4262 59.7049 48.9897 56.173C52.5532 52.641 56.0303 50.4193 56.7775 51.1598Z" fill="#B2001A"/>
<path d="M43.9315 51.1596C44.6786 50.419 48.1558 52.6692 51.7193 56.1727C55.2828 59.6762 57.4669 63.1511 56.7772 63.8917C56.0875 64.6323 52.5241 62.4105 48.9894 58.8786C45.4546 55.3466 43.1555 51.9001 43.9315 51.1596Z" fill="#B2001A"/>
<path d="M43.9321 51.1598C44.6792 51.9004 42.4089 55.3754 38.8454 58.8788C35.2819 62.3823 31.8335 64.5756 31.0576 63.892C30.2816 63.2084 32.5807 59.7049 36.1442 56.173C39.7077 52.641 43.1561 50.4193 43.9321 51.1598Z" fill="#B2001A"/>
<path d="M31.0579 51.1596C31.8338 50.419 35.311 52.6692 38.8458 56.1727C42.3805 59.6762 44.5934 63.1511 43.9324 63.8917C43.2714 64.6323 39.6793 62.4105 36.1446 58.8786C32.6098 55.3466 30.3107 51.9001 31.0579 51.1596Z" fill="#B2001A"/>
<path d="M25.9999 58.8841C29.5463 55.3691 31.8115 51.9156 31.0596 51.1703C30.3076 50.425 26.8234 52.6702 23.2769 56.1852C19.7305 59.7002 17.4651 63.1539 18.217 63.8992C18.9689 64.6445 22.4535 62.3991 25.9999 58.8841Z" fill="#B2001A"/>
<path d="M31.0598 63.899C31.8117 63.1538 29.5462 59.7003 25.9998 56.1852C22.4534 52.6702 18.969 50.4247 18.2171 51.17C17.4652 51.9153 19.7305 55.369 23.2769 58.884C26.8233 62.3991 30.3079 64.6443 31.0598 63.899Z" fill="#B2001A"/>
<path d="M56.7775 38.4284C57.5247 39.169 55.2544 42.6439 51.7196 46.1474C48.1849 49.6509 44.679 51.8441 43.9318 51.1605C43.1846 50.4769 45.4262 46.9735 48.9897 43.4415C52.5532 39.9096 56.0303 37.6878 56.7775 38.4284Z" fill="#B2001A"/>
<path d="M43.9315 38.4291C44.6786 37.6885 48.1558 39.9388 51.7193 43.4422C55.2828 46.9457 57.4669 50.4207 56.7772 51.1612C56.0875 51.9018 52.5241 49.6801 48.9894 46.1481C45.4546 42.6162 43.1555 39.1697 43.9315 38.4291Z" fill="#B2001A"/>
<path d="M43.9321 38.4284C44.6792 39.169 42.4089 42.6439 38.8454 46.1474C35.2819 49.6509 31.8335 51.8441 31.0576 51.1605C30.2816 50.4769 32.5807 46.9735 36.1442 43.4415C39.7077 39.9096 43.1561 37.6878 43.9321 38.4284Z" fill="#B2001A"/>
<path d="M31.0579 38.4291C31.8338 37.6885 35.311 39.9388 38.8458 43.4422C42.3805 46.9457 44.5934 50.4207 43.9324 51.1612C43.2714 51.9018 39.6793 49.6801 36.1446 46.1481C32.6098 42.6162 30.3107 39.1697 31.0579 38.4291Z" fill="#B2001A"/>
<path d="M133.91 153.075C134.657 153.844 132.387 157.291 128.852 160.794C125.317 164.298 121.811 166.491 121.064 165.836C120.317 165.181 122.587 161.62 126.122 158.117C129.657 154.613 133.162 152.335 133.91 153.075Z" fill="#B2001A"/>
<path d="M121.15 153.075C121.898 152.334 125.375 154.584 128.938 158.116C132.502 161.648 134.686 165.066 133.996 165.835C133.306 166.604 129.772 164.326 126.208 160.794C122.645 157.262 120.317 153.872 121.15 153.075Z" fill="#B2001A"/>
<path d="M128.848 173.541C132.394 170.026 134.66 166.572 133.908 165.827C133.156 165.081 129.671 167.327 126.125 170.842C122.579 174.357 120.313 177.81 121.065 178.555C121.817 179.301 125.302 177.056 128.848 173.541Z" fill="#B2001A"/>
<path d="M121.15 165.835C121.898 165.094 125.375 167.316 128.938 170.848C132.502 174.38 134.686 177.826 133.996 178.567C133.306 179.307 129.772 177.057 126.208 173.554C122.645 170.05 120.317 166.575 121.15 165.835Z" fill="#B2001A"/>
<path d="M128.842 186.294C132.388 182.779 134.654 179.326 133.902 178.581C133.15 177.835 129.665 180.081 126.119 183.596C122.572 187.111 120.307 190.564 121.059 191.309C121.811 192.055 125.295 189.81 128.842 186.294Z" fill="#B2001A"/>
<path d="M133.902 191.309C134.653 190.564 132.388 187.11 128.842 183.595C125.295 180.08 121.811 177.835 121.059 178.58C120.307 179.326 122.572 182.779 126.119 186.294C129.665 189.809 133.15 192.055 133.902 191.309Z" fill="#B2001A"/>
<path d="M133.91 191.299C134.657 192.068 132.387 195.514 128.852 199.018C125.317 202.521 121.811 204.715 121.064 204.059C120.317 203.404 122.587 199.844 126.122 196.34C129.657 192.837 133.162 190.558 133.91 191.299Z" fill="#B2001A"/>
<path d="M133.904 204.045C134.656 203.3 132.391 199.846 128.844 196.331C125.298 192.816 121.813 190.57 121.061 191.316C120.309 192.061 122.575 195.515 126.121 199.03C129.668 202.545 133.152 204.79 133.904 204.045Z" fill="#B2001A"/>
<path d="M121.15 191.299C121.897 192.068 119.627 195.514 116.092 199.018C112.557 202.521 109.051 204.715 108.275 204.059C107.5 203.404 109.799 199.844 113.362 196.34C116.926 192.837 120.317 190.558 121.15 191.299Z" fill="#B2001A"/>
<path d="M108.19 191.298C108.966 190.558 112.443 192.808 116.007 196.34C119.57 199.872 121.754 203.29 121.065 204.059C120.375 204.828 116.811 202.549 113.277 199.017C109.742 195.485 107.443 192.067 108.19 191.298Z" fill="#B2001A"/>
<path d="M82.4979 140.342C83.245 141.083 80.9747 144.557 77.44 148.061C73.9052 151.564 70.399 153.758 69.6518 153.074C68.9046 152.39 71.1462 148.887 74.7097 145.355C78.2732 141.823 81.7507 139.63 82.4979 140.342Z" fill="#B2001A"/>
<path d="M69.6518 140.342C70.399 139.602 73.8765 141.852 77.44 145.355C81.0035 148.859 83.1876 152.334 82.4979 153.074C81.8082 153.815 78.2444 151.593 74.7097 148.061C71.1749 144.529 68.9046 141.083 69.6518 140.342Z" fill="#B2001A"/>
<path d="M82.4979 153.075C83.245 153.844 80.9747 157.291 77.44 160.794C73.9052 164.298 70.399 166.491 69.6518 165.836C68.9046 165.181 71.1462 161.62 74.7097 158.117C78.2732 154.613 81.7507 152.335 82.4979 153.075Z" fill="#B2001A"/>
<path d="M69.6518 153.075C70.399 152.334 73.8765 154.584 77.44 158.116C81.0035 161.648 83.1876 165.066 82.4979 165.835C81.8082 166.604 78.2444 164.326 74.7097 160.794C71.1749 157.262 68.9046 153.872 69.6518 153.075Z" fill="#B2001A"/>
<path d="M82.4979 165.835C83.245 166.576 80.9747 170.022 77.44 173.554C73.9052 177.086 70.399 179.251 69.6518 178.567C68.9046 177.884 71.1462 174.352 74.7097 170.848C78.2732 167.345 81.7507 165.095 82.4979 165.835Z" fill="#B2001A"/>
<path d="M82.4745 178.576C83.2264 177.831 80.9609 174.377 77.4145 170.862C73.8681 167.347 70.3837 165.101 69.6318 165.847C68.8799 166.592 71.1451 170.046 74.6916 173.561C78.238 177.076 81.7226 179.321 82.4745 178.576Z" fill="#B2001A"/>
<path d="M77.4095 186.316C80.9559 182.801 83.2212 179.347 82.4692 178.602C81.7173 177.857 78.233 180.102 74.6866 183.617C71.1401 187.132 68.8747 190.586 69.6267 191.331C70.3786 192.076 73.8631 189.831 77.4095 186.316Z" fill="#B2001A"/>
<path d="M82.4694 191.33C83.2213 190.584 80.9558 187.131 77.4094 183.616C73.863 180.101 70.3786 177.855 69.6267 178.601C68.8748 179.346 71.1401 182.8 74.6865 186.315C78.2329 189.83 81.7175 192.075 82.4694 191.33Z" fill="#B2001A"/>
<path d="M77.4108 199.049C80.9572 195.534 83.2224 192.081 82.4705 191.335C81.7186 190.59 78.2342 192.835 74.6878 196.35C71.1414 199.865 68.876 203.319 69.6279 204.064C70.3799 204.81 73.8644 202.564 77.4108 199.049Z" fill="#B2001A"/>
<path d="M69.6518 191.298C70.399 190.558 73.8765 192.808 77.44 196.34C81.0035 199.872 83.1876 203.29 82.4979 204.059C81.8082 204.828 78.2444 202.549 74.7097 199.017C71.1749 195.485 68.9046 192.067 69.6518 191.298Z" fill="#B2001A"/>
<path d="M64.5632 199.023C68.1096 195.508 70.3751 192.054 69.6232 191.309C68.8712 190.564 65.3866 192.809 61.8402 196.324C58.2938 199.839 56.0287 203.293 56.7806 204.038C57.5325 204.783 61.0168 202.538 64.5632 199.023Z" fill="#B2001A"/>
<path d="M56.7779 191.298C57.5538 190.558 61.0313 192.808 64.5661 196.34C68.1008 199.872 70.3134 203.29 69.6524 204.059C68.9914 204.828 65.3993 202.549 61.8645 199.017C58.3298 195.485 56.0307 192.067 56.7779 191.298Z" fill="#B2001A"/>
<path d="M95.2868 76.6537C96.034 77.3943 93.7637 80.8408 90.2289 84.3727C86.6942 87.9047 83.1883 90.0694 82.4411 89.3858C81.6939 88.7021 83.9355 85.1702 87.499 81.6668C91.0625 78.1633 94.5971 75.9132 95.2868 76.6537Z" fill="#B2001A"/>
<path d="M108.19 63.8927C108.937 64.6617 106.667 68.1082 103.132 71.6402C99.597 75.1721 96.0911 77.3369 95.3439 76.6533C94.5968 75.9697 96.8671 72.4377 100.402 68.9342C103.937 65.4307 107.442 63.1521 108.19 63.8927Z" fill="#B2001A"/>
<path d="M115.977 58.8851C119.523 55.37 121.789 51.9163 121.037 51.171C120.285 50.4258 116.8 52.6712 113.254 56.1862C109.707 59.7012 107.442 63.1549 108.194 63.9002C108.946 64.6455 112.43 62.4001 115.977 58.8851Z" fill="#B2001A"/>
<path d="M69.6233 51.1612C68.8762 51.9018 65.399 49.6801 61.8355 46.1481C58.272 42.6162 56.0879 39.1697 56.7776 38.4291C57.4673 37.6885 61.0311 39.9388 64.5658 43.4422C68.1006 46.9457 70.3705 50.4207 69.6233 51.1612Z" fill="#B2001A"/>
<path d="M18.2118 51.1606C17.4646 50.42 19.7345 46.9735 23.2693 43.4416C26.804 39.9096 30.3103 37.7449 31.0575 38.4285C31.8047 39.1121 29.5631 42.644 25.9996 46.1475C22.4361 49.6509 18.9589 51.9012 18.2118 51.1606Z" fill="#B2001A"/>
<path d="M18.2118 69.19C19.2752 69.19 20.1372 65.1602 20.1372 60.1893C20.1372 55.2183 19.2752 51.1885 18.2118 51.1885C17.1484 51.1885 16.2863 55.2183 16.2863 60.1893C16.2863 65.1602 17.1484 69.19 18.2118 69.19Z" fill="#B2001A"/>
<path d="M82.4984 89.3845C83.2456 90.125 80.9753 93.6001 77.4118 97.1035C73.8483 100.607 70.3995 102.8 69.6236 102.117C68.8477 101.433 71.1468 97.9295 74.7102 94.3976C78.2737 90.8656 81.7225 88.6439 82.4984 89.3845Z" fill="#B2001A"/>
<path d="M108.19 51.1611C109.253 51.1611 110.116 54.0095 110.116 57.5414C110.116 61.0734 109.253 63.8932 108.19 63.8932C107.127 63.8932 106.265 61.0449 106.265 57.5414C106.265 54.0379 107.127 51.1611 108.19 51.1611Z" fill="#B2001A"/>
<path d="M95.2872 51.1611C96.3505 51.1611 97.2128 54.0095 97.2128 57.5414C97.2128 61.0734 96.3505 63.8932 95.2872 63.8932C94.2239 63.8932 93.3616 61.0449 93.3616 57.5414C93.3616 54.0379 94.2814 51.1611 95.2872 51.1611Z" fill="#B2001A"/>
<path d="M95.2872 63.8926C96.3505 63.8926 97.2128 66.7409 97.2128 70.2728C97.2128 73.8048 96.3505 76.6532 95.2872 76.6532C94.2239 76.6532 93.3616 73.8048 93.3616 70.2728C93.3616 66.7409 94.2814 63.8926 95.2872 63.8926Z" fill="#B2001A"/>
<path d="M82.4989 51.1611C83.5622 51.1611 84.4241 54.0095 84.4241 57.5414C84.4241 61.0734 83.5622 63.8932 82.4989 63.8932C81.4356 63.8932 80.5446 61.0449 80.5446 57.5414C80.5446 54.0379 81.4069 51.1611 82.4989 51.1611Z" fill="#B2001A"/>
<path d="M82.4989 63.8926C83.5622 63.8926 84.4241 66.7409 84.4241 70.2728C84.4241 73.8048 83.5622 76.6532 82.4989 76.6532C81.4356 76.6532 80.5446 73.8048 80.5446 70.2728C80.5446 66.7409 81.4069 63.8926 82.4989 63.8926Z" fill="#B2001A"/>
<path d="M82.4989 76.6533C83.5622 76.6533 84.4241 79.5016 84.4241 83.0051C84.4241 86.5085 83.5622 89.3853 82.4989 89.3853C81.4356 89.3853 80.5446 86.537 80.5446 83.0051C80.5446 79.4731 81.4069 76.6533 82.4989 76.6533Z" fill="#B2001A"/>
<path d="M114.599 65.8295C118.154 65.8295 121.036 64.9751 121.036 63.9211C121.036 62.8671 118.154 62.0127 114.599 62.0127C111.043 62.0127 108.161 62.8671 108.161 63.9211C108.161 64.9751 111.043 65.8295 114.599 65.8295Z" fill="#B2001A"/>
<path d="M50.3404 40.3363C53.8956 40.3363 56.7777 39.4819 56.7777 38.4279C56.7777 37.3739 53.8956 36.5195 50.3404 36.5195C46.7852 36.5195 43.9031 37.3739 43.9031 38.4279C43.9031 39.4819 46.7852 40.3363 50.3404 40.3363Z" fill="#B2001A"/>
<path d="M37.4943 40.3363C41.0495 40.3363 43.9316 39.4819 43.9316 38.4279C43.9316 37.3739 41.0495 36.5195 37.4943 36.5195C33.9391 36.5195 31.057 37.3739 31.057 38.4279C31.057 39.4819 33.9391 40.3363 37.4943 40.3363Z" fill="#B2001A"/>
<path d="M114.599 78.5619C118.154 78.5619 121.036 77.7075 121.036 76.6535C121.036 75.5995 118.154 74.7451 114.599 74.7451C111.043 74.7451 108.161 75.5995 108.161 76.6535C108.161 77.7075 111.043 78.5619 114.599 78.5619Z" fill="#B2001A"/>
<path d="M101.753 78.5619C105.308 78.5619 108.19 77.7075 108.19 76.6535C108.19 75.5995 105.308 74.7451 101.753 74.7451C98.1973 74.7451 95.3152 75.5995 95.3152 76.6535C95.3152 77.7075 98.1973 78.5619 101.753 78.5619Z" fill="#B2001A"/>
<path d="M121.151 89.3859C121.151 90.4398 118.277 91.2943 114.713 91.2943C111.15 91.2943 108.276 90.4398 108.276 89.3859C108.276 88.332 111.15 87.4775 114.713 87.4775C118.277 87.4775 121.151 88.3605 121.151 89.3859Z" fill="#B2001A"/>
<path d="M108.19 89.3859C108.19 90.4398 105.316 91.2943 101.782 91.2943C98.2468 91.2943 95.3443 90.4398 95.3443 89.3859C95.3443 88.332 98.2181 87.4775 101.782 87.4775C105.345 87.4775 108.19 88.3605 108.19 89.3859Z" fill="#B2001A"/>
<path d="M95.2871 89.3859C95.2871 90.4398 92.4134 91.2943 88.8499 91.2943C85.2864 91.2943 82.4414 90.4398 82.4414 89.3859C82.4414 88.332 85.3151 87.4775 88.8499 87.4775C92.3846 87.4775 95.2871 88.3605 95.2871 89.3859Z" fill="#B2001A"/>
<path d="M172.476 89.3845C173.223 90.125 170.953 93.6001 167.418 97.1035C163.884 100.607 160.378 102.8 159.602 102.117C158.826 101.433 161.125 97.9295 164.688 94.3976C168.252 90.8656 171.729 88.6439 172.476 89.3845Z" fill="#B2001A"/>
<path d="M185.322 76.6537C186.069 77.3943 183.799 80.8408 180.264 84.3727C176.729 87.9047 173.223 90.0694 172.476 89.3858C171.729 88.7021 173.97 85.1702 177.534 81.6668C181.097 78.1633 184.575 75.9132 185.322 76.6537Z" fill="#B2001A"/>
<path d="M198.168 63.8927C198.944 64.6617 196.674 68.1082 193.11 71.6402C189.547 75.1721 186.069 77.3369 185.322 76.6533C184.575 75.9697 186.845 72.4377 190.38 68.9342C193.915 65.4307 197.421 63.1521 198.168 63.8927Z" fill="#B2001A"/>
<path d="M159.602 102.117C160.378 102.886 158.107 106.333 154.544 109.836C150.98 113.34 147.503 115.533 146.756 114.878C146.009 114.223 148.279 110.662 151.814 107.159C155.349 103.655 158.855 101.377 159.602 102.117Z" fill="#B2001A"/>
<path d="M185.322 63.8926C186.385 63.8926 187.247 66.7409 187.247 70.2728C187.247 73.8048 186.385 76.6532 185.322 76.6532C184.259 76.6532 183.397 73.8048 183.397 70.2728C183.397 66.7409 184.373 63.8926 185.322 63.8926Z" fill="#B2001A"/>
<path d="M172.448 76.6532C173.512 76.6532 174.374 73.7966 174.374 70.2729C174.374 66.7491 173.512 63.8926 172.448 63.8926C171.385 63.8926 170.523 66.7491 170.523 70.2729C170.523 73.7966 171.385 76.6532 172.448 76.6532Z" fill="#B2001A"/>
<path d="M172.448 89.4139C173.512 89.4139 174.374 86.5574 174.374 83.0336C174.374 79.5099 173.512 76.6533 172.448 76.6533C171.385 76.6533 170.523 79.5099 170.523 83.0336C170.523 86.5574 171.385 89.4139 172.448 89.4139Z" fill="#B2001A"/>
<path d="M159.602 63.8926C160.666 63.8926 161.528 66.7409 161.528 70.2728C161.528 73.8048 160.666 76.6532 159.602 76.6532C158.539 76.6532 157.677 73.8048 157.677 70.2728C157.677 66.7409 158.51 63.8926 159.602 63.8926Z" fill="#B2001A"/>
<path d="M159.602 76.6533C160.666 76.6533 161.528 79.5016 161.528 83.0051C161.528 86.5085 160.666 89.3853 159.602 89.3853C158.539 89.3853 157.677 86.537 157.677 83.0051C157.677 79.4731 158.51 76.6533 159.602 76.6533Z" fill="#B2001A"/>
<path d="M159.602 89.3848C160.666 89.3848 161.528 92.2332 161.528 95.7651C161.528 99.2971 160.666 102.117 159.602 102.117C158.539 102.117 157.677 99.2686 157.677 95.7651C157.677 92.2617 158.51 89.3848 159.602 89.3848Z" fill="#B2001A"/>
<path d="M198.169 76.6528C198.169 77.7067 195.295 78.5611 191.76 78.5611C188.225 78.5611 185.323 77.7067 185.323 76.6528C185.323 75.5989 188.196 74.7158 191.76 74.7158C195.323 74.7158 198.169 75.5989 198.169 76.6528Z" fill="#B2001A"/>
<path d="M198.169 89.3859C198.169 90.4398 195.295 91.2943 191.76 91.2943C188.225 91.2943 185.323 90.4398 185.323 89.3859C185.323 88.332 188.196 87.4775 191.76 87.4775C195.323 87.4775 198.169 88.3605 198.169 89.3859Z" fill="#B2001A"/>
<path d="M185.322 89.3859C185.322 90.4398 182.448 91.2943 178.885 91.2943C175.321 91.2943 172.476 90.4398 172.476 89.3859C172.476 88.332 175.35 87.4775 178.885 87.4775C182.42 87.4775 185.322 88.3605 185.322 89.3859Z" fill="#B2001A"/>
<path d="M198.169 102.117C198.169 103.171 195.295 104.026 191.76 104.026C188.225 104.026 185.323 103.171 185.323 102.117C185.323 101.063 188.196 100.209 191.76 100.209C195.323 100.209 198.169 101.063 198.169 102.117Z" fill="#B2001A"/>
<path d="M185.322 102.117C185.322 103.171 182.448 104.026 178.885 104.026C175.321 104.026 172.476 103.171 172.476 102.117C172.476 101.063 175.35 100.209 178.885 100.209C182.42 100.209 185.322 101.063 185.322 102.117Z" fill="#B2001A"/>
<path d="M172.476 102.117C172.476 103.171 169.602 104.026 166.039 104.026C162.475 104.026 159.63 103.171 159.63 102.117C159.63 101.063 162.504 100.209 166.039 100.209C169.574 100.209 172.476 101.063 172.476 102.117Z" fill="#B2001A"/>
<path d="M172.476 153.074C171.729 153.843 168.223 151.593 164.688 148.061C161.154 144.529 158.941 141.083 159.602 140.342C160.263 139.602 163.855 141.852 167.418 145.355C170.982 148.859 173.223 152.334 172.476 153.074Z" fill="#B2001A"/>
<path d="M185.322 165.835C184.574 166.575 181.069 164.325 177.534 160.793C173.999 157.261 171.786 153.843 172.476 153.074C173.166 152.305 176.7 154.584 180.264 158.116C183.827 161.648 186.069 165.066 185.322 165.835Z" fill="#B2001A"/>
<path d="M43.9319 140.342C43.156 141.082 39.6788 138.832 36.1441 135.329C32.6093 131.825 30.3964 128.35 31.0574 127.61C31.7184 126.869 35.3105 129.119 38.8453 132.623C42.38 136.126 44.6791 139.63 43.9319 140.342Z" fill="#B2001A"/>
<path d="M31.058 89.3853C29.9947 89.3853 29.1324 86.537 29.1324 83.0051C29.1324 79.4731 29.9947 76.6533 31.058 76.6533C32.1213 76.6533 33.012 79.5016 33.012 83.0051C33.012 86.5085 32.0638 89.3853 31.058 89.3853Z" fill="#B2001A"/>
<path d="M31.058 102.117C29.9947 102.117 29.1324 99.2686 29.1324 95.7651C29.1324 92.2617 29.9947 89.3848 31.058 89.3848C32.1213 89.3848 33.012 92.2332 33.012 95.7651C33.012 99.2971 32.0638 102.117 31.058 102.117Z" fill="#B2001A"/>
<path d="M31.058 114.878C29.9947 114.878 29.1324 112.029 29.1324 108.498C29.1324 104.966 29.9947 102.117 31.058 102.117C32.1213 102.117 33.012 104.966 33.012 108.498C33.012 112.029 32.0638 114.878 31.058 114.878Z" fill="#B2001A"/>
<path d="M31.058 127.609C29.9947 127.609 29.1324 124.761 29.1324 121.229C29.1324 117.697 29.9947 114.877 31.058 114.877C32.1213 114.877 33.012 117.725 33.012 121.229C33.012 124.732 32.0638 127.609 31.058 127.609Z" fill="#B2001A"/>
<path d="M31.058 76.6532C29.9947 76.6532 29.1324 73.8048 29.1324 70.2728C29.1324 66.7409 29.9947 63.8926 31.058 63.8926C32.1213 63.8926 33.012 66.7409 33.012 70.2728C33.012 73.8048 32.0638 76.6532 31.058 76.6532Z" fill="#B2001A"/>
<path d="M198.168 178.567C197.421 179.307 193.943 177.057 190.38 173.554C186.816 170.05 184.632 166.575 185.322 165.835C186.012 165.094 189.575 167.316 193.11 170.848C196.645 174.38 198.944 177.826 198.168 178.567Z" fill="#B2001A"/>
<path d="M159.602 140.342C158.854 141.082 155.377 138.832 151.814 135.329C148.25 131.825 146.066 128.35 146.756 127.61C147.446 126.869 151.009 129.119 154.544 132.623C158.078 136.126 160.377 139.63 159.602 140.342Z" fill="#B2001A"/>
<path d="M185.322 178.567C184.259 178.567 183.397 175.719 183.397 172.187C183.397 168.655 184.259 165.835 185.322 165.835C186.385 165.835 187.247 168.683 187.247 172.187C187.247 175.69 186.385 178.567 185.322 178.567Z" fill="#B2001A"/>
<path d="M172.448 178.596C173.512 178.596 174.374 175.739 174.374 172.215C174.374 168.692 173.512 165.835 172.448 165.835C171.385 165.835 170.523 168.692 170.523 172.215C170.523 175.739 171.385 178.596 172.448 178.596Z" fill="#B2001A"/>
<path d="M172.448 165.836C173.512 165.836 174.374 162.979 174.374 159.456C174.374 155.932 173.512 153.075 172.448 153.075C171.385 153.075 170.523 155.932 170.523 159.456C170.523 162.979 171.385 165.836 172.448 165.836Z" fill="#B2001A"/>
<path d="M159.602 178.567C158.539 178.567 157.677 175.719 157.677 172.187C157.677 168.655 158.539 165.835 159.602 165.835C160.666 165.835 161.528 168.683 161.528 172.187C161.528 175.69 160.666 178.567 159.602 178.567Z" fill="#B2001A"/>
<path d="M159.602 165.836C158.539 165.836 157.677 162.987 157.677 159.455C157.677 155.924 158.539 153.075 159.602 153.075C160.666 153.075 161.528 155.924 161.528 159.455C161.528 162.987 160.666 165.836 159.602 165.836Z" fill="#B2001A"/>
<path d="M159.602 153.075C158.539 153.075 157.677 150.227 157.677 146.723C157.677 143.22 158.539 140.343 159.602 140.343C160.666 140.343 161.528 143.191 161.528 146.723C161.528 150.255 160.666 153.075 159.602 153.075Z" fill="#B2001A"/>
<path d="M191.731 167.744C195.286 167.744 198.168 166.889 198.168 165.835C198.168 164.781 195.286 163.927 191.731 163.927C188.176 163.927 185.293 164.781 185.293 165.835C185.293 166.889 188.176 167.744 191.731 167.744Z" fill="#B2001A"/>
<path d="M198.169 153.074C198.169 154.157 195.295 155.011 191.76 155.011C188.225 155.011 185.323 154.157 185.323 153.074C185.323 151.992 188.196 151.166 191.76 151.166C195.323 151.166 198.169 152.021 198.169 153.074Z" fill="#B2001A"/>
<path d="M185.322 153.074C185.322 154.157 182.448 155.011 178.885 155.011C175.321 155.011 172.476 154.157 172.476 153.074C172.476 151.992 175.35 151.166 178.885 151.166C182.42 151.166 185.322 152.021 185.322 153.074Z" fill="#B2001A"/>
<path d="M191.731 142.25C195.286 142.25 198.168 141.396 198.168 140.342C198.168 139.288 195.286 138.434 191.731 138.434C188.176 138.434 185.293 139.288 185.293 140.342C185.293 141.396 188.176 142.25 191.731 142.25Z" fill="#B2001A"/>
<path d="M178.885 142.25C182.44 142.25 185.322 141.396 185.322 140.342C185.322 139.288 182.44 138.434 178.885 138.434C175.329 138.434 172.447 139.288 172.447 140.342C172.447 141.396 175.329 142.25 178.885 142.25Z" fill="#B2001A"/>
<path d="M166.039 142.25C169.594 142.25 172.476 141.396 172.476 140.342C172.476 139.288 169.594 138.434 166.039 138.434C162.483 138.434 159.601 139.288 159.601 140.342C159.601 141.396 162.483 142.25 166.039 142.25Z" fill="#B2001A"/>
<path d="M161.815 121.23C161.815 122.284 160.378 123.138 158.596 123.138C156.814 123.138 155.406 122.284 155.406 121.23C155.406 120.176 156.843 119.321 158.596 119.321C160.349 119.321 161.815 120.176 161.815 121.23Z" fill="#B2001A"/>
<path d="M170.896 123.138C175.911 123.138 179.977 122.284 179.977 121.23C179.977 120.176 175.911 119.321 170.896 119.321C165.881 119.321 161.815 120.176 161.815 121.23C161.815 122.284 165.881 123.138 170.896 123.138Z" fill="#B2001A"/>
<path d="M198.168 121.23C198.168 122.284 194.116 123.138 189.087 123.138C184.058 123.138 180.006 122.284 180.006 121.23C180.006 120.176 184.058 119.321 189.087 119.321C194.116 119.321 198.168 120.176 198.168 121.23Z" fill="#B2001A"/>
<path d="M189.087 130.23C188.34 130.999 185.696 129.575 183.167 127.097C180.638 124.619 179.259 121.97 180.006 121.229C180.753 120.489 183.397 121.913 185.754 124.391C188.11 126.869 189.835 129.489 189.087 130.23Z" fill="#B2001A"/>
<path d="M180.006 139.26C179.258 140.001 176.586 138.576 174.086 136.098C171.586 133.62 170.149 131 170.896 130.231C171.643 129.462 174.316 130.914 176.816 133.392C179.316 135.87 180.753 138.519 180.006 139.26Z" fill="#B2001A"/>
<path d="M170.895 130.23C170.148 130.999 167.504 129.575 165.148 127.097C162.791 124.619 161.21 121.97 161.958 121.229C162.705 120.489 165.349 121.913 167.878 124.391C170.407 126.869 171.671 129.489 170.895 130.23Z" fill="#B2001A"/>
<path d="M185.889 118.102C188.403 115.61 189.831 112.986 189.079 112.241C188.327 111.496 185.68 112.912 183.166 115.403C180.652 117.895 179.223 120.519 179.975 121.264C180.727 122.01 183.375 120.594 185.889 118.102Z" fill="#B2001A"/>
<path d="M176.811 109.073C179.325 106.581 180.753 103.957 180.001 103.212C179.249 102.467 176.602 103.883 174.088 106.374C171.574 108.866 170.145 111.49 170.897 112.235C171.649 112.98 174.297 111.565 176.811 109.073Z" fill="#B2001A"/>
<path d="M198.168 139.26C197.42 140.001 194.776 138.576 192.42 136.098C190.063 133.62 188.483 131 189.23 130.231C189.977 129.462 192.621 130.914 195.15 133.392C197.679 135.87 198.943 138.519 198.168 139.26Z" fill="#B2001A"/>
<path d="M194.97 109.075C197.484 106.583 198.912 103.959 198.16 103.214C197.408 102.469 194.761 103.885 192.247 106.376C189.733 108.868 188.305 111.492 189.057 112.237C189.808 112.982 192.456 111.567 194.97 109.075Z" fill="#B2001A"/>
<path d="M170.924 112.229C171.672 112.97 170.235 115.59 167.735 118.097C165.234 120.603 162.591 121.971 161.815 121.23C161.039 120.489 162.504 117.869 165.005 115.391C167.505 112.913 170.149 111.489 170.924 112.229Z" fill="#B2001A"/>
<path d="M159.631 140.342C159.631 141.396 156.757 142.25 153.194 142.25C149.63 142.25 146.756 141.396 146.756 140.342C146.756 139.288 149.63 138.434 153.194 138.434C156.757 138.434 159.631 139.288 159.631 140.342Z" fill="#B2001A"/>
<path d="M146.756 140.342C146.756 141.396 143.883 142.25 140.348 142.25C136.813 142.25 133.91 141.396 133.91 140.342C133.91 139.288 136.784 138.434 140.348 138.434C143.911 138.434 146.756 139.288 146.756 140.342Z" fill="#B2001A"/>
<path d="M121.151 140.342C121.151 141.396 118.277 142.25 114.713 142.25C111.15 142.25 108.276 141.396 108.276 140.342C108.276 139.288 111.15 138.434 114.713 138.434C118.277 138.434 121.151 139.288 121.151 140.342Z" fill="#B2001A"/>
<path d="M108.19 140.342C108.19 141.396 105.316 142.25 101.781 142.25C98.2466 142.25 95.3441 141.396 95.3441 140.342C95.3441 139.288 98.2179 138.434 101.781 138.434C105.345 138.434 108.19 139.288 108.19 140.342Z" fill="#B2001A"/>
<path d="M95.2871 140.342C95.2871 141.396 92.4134 142.25 88.8787 142.25C85.3439 142.25 82.4414 141.396 82.4414 140.342C82.4414 139.288 85.3152 138.434 88.8787 138.434C92.4421 138.434 95.2871 139.288 95.2871 140.342Z" fill="#B2001A"/>
<path d="M69.6528 140.342C69.6528 141.396 66.779 142.25 63.2155 142.25C59.652 142.25 56.7783 141.396 56.7783 140.342C56.7783 139.288 59.652 138.434 63.2155 138.434C66.779 138.434 69.6528 139.288 69.6528 140.342Z" fill="#B2001A"/>
<path d="M56.7779 140.342C56.7779 141.396 53.9041 142.25 50.3694 142.25C46.8346 142.25 43.9321 141.396 43.9321 140.342C43.9321 139.288 46.8059 138.434 50.3694 138.434C53.9329 138.434 56.7779 139.288 56.7779 140.342Z" fill="#B2001A"/>
<path d="M159.631 102.117C159.631 103.171 156.757 104.026 153.194 104.026C149.63 104.026 146.756 103.171 146.756 102.117C146.756 101.063 149.63 100.209 153.194 100.209C156.757 100.209 159.631 101.063 159.631 102.117Z" fill="#B2001A"/>
<path d="M146.756 102.117C146.756 103.171 143.883 104.026 140.348 104.026C136.813 104.026 133.91 103.171 133.91 102.117C133.91 101.063 136.784 100.209 140.348 100.209C143.911 100.209 146.756 101.063 146.756 102.117Z" fill="#B2001A"/>
<path d="M133.91 102.117C133.91 103.171 131.036 104.026 127.473 104.026C123.909 104.026 121.064 103.171 121.064 102.117C121.064 101.063 123.938 100.209 127.473 100.209C131.007 100.209 133.91 101.063 133.91 102.117Z" fill="#B2001A"/>
<path d="M121.151 102.117C121.151 103.171 118.277 104.026 114.713 104.026C111.15 104.026 108.276 103.171 108.276 102.117C108.276 101.063 111.15 100.209 114.713 100.209C118.277 100.209 121.151 101.063 121.151 102.117Z" fill="#B2001A"/>
<path d="M108.19 102.117C108.19 103.171 105.316 104.026 101.782 104.026C98.2468 104.026 95.3443 103.171 95.3443 102.117C95.3443 101.063 98.2181 100.209 101.782 100.209C105.345 100.209 108.19 101.063 108.19 102.117Z" fill="#B2001A"/>
<path d="M95.2871 102.117C95.2871 103.171 92.4134 104.026 88.8787 104.026C85.3439 104.026 82.4414 103.171 82.4414 102.117C82.4414 101.063 85.3152 100.209 88.8787 100.209C92.4421 100.209 95.2871 101.063 95.2871 102.117Z" fill="#B2001A"/>
<path d="M82.4982 102.117C82.4982 103.171 79.6244 104.026 76.0609 104.026C72.4974 104.026 69.6521 103.171 69.6521 102.117C69.6521 101.063 72.5262 100.209 76.0609 100.209C79.5957 100.209 82.4982 101.063 82.4982 102.117Z" fill="#B2001A"/>
<path d="M133.91 140.343C134.973 140.343 135.835 143.191 135.835 146.723C135.835 150.255 134.973 153.103 133.91 153.103C132.846 153.103 131.984 150.255 131.984 146.723C131.984 143.191 132.846 140.343 133.91 140.343Z" fill="#B2001A"/>
<path d="M133.91 153.103C134.973 153.103 135.835 155.951 135.835 159.454C135.835 162.958 134.973 165.835 133.91 165.835C132.846 165.835 131.984 162.986 131.984 159.454C131.984 155.922 132.846 153.103 133.91 153.103Z" fill="#B2001A"/>
<path d="M133.91 165.835C134.973 165.835 135.835 168.683 135.835 172.187C135.835 175.69 134.973 178.567 133.91 178.567C132.846 178.567 131.984 175.719 131.984 172.187C131.984 168.655 132.846 165.835 133.91 165.835Z" fill="#B2001A"/>
<path d="M133.91 178.567C134.973 178.567 135.835 181.416 135.835 184.948C135.835 188.48 134.973 191.299 133.91 191.299C132.846 191.299 131.984 188.451 131.984 184.948C131.984 181.444 132.846 178.567 133.91 178.567Z" fill="#B2001A"/>
<path d="M133.91 191.299C134.973 191.299 135.835 194.147 135.835 197.679C135.835 201.211 134.973 204.059 133.91 204.059C132.846 204.059 131.984 201.211 131.984 197.679C131.984 194.147 132.846 191.299 133.91 191.299Z" fill="#B2001A"/>
<path d="M82.4979 140.343C83.5612 140.343 84.4232 143.191 84.4232 146.723C84.4232 150.255 83.5612 153.103 82.4979 153.103C81.4346 153.103 80.5724 150.255 80.5724 146.723C80.5724 143.191 81.4346 140.343 82.4979 140.343Z" fill="#B2001A"/>
<path d="M82.4979 153.103C83.5612 153.103 84.4232 155.951 84.4232 159.454C84.4232 162.958 83.5612 165.835 82.4979 165.835C81.4346 165.835 80.5724 162.986 80.5724 159.454C80.5724 155.922 81.4346 153.103 82.4979 153.103Z" fill="#B2001A"/>
<path d="M82.4979 165.835C83.5612 165.835 84.4232 168.683 84.4232 172.187C84.4232 175.69 83.5612 178.567 82.4979 178.567C81.4346 178.567 80.5724 175.719 80.5724 172.187C80.5724 168.655 81.4346 165.835 82.4979 165.835Z" fill="#B2001A"/>
<path d="M82.4979 178.567C83.5612 178.567 84.4232 181.416 84.4232 184.948C84.4232 188.48 83.5612 191.299 82.4979 191.299C81.4346 191.299 80.5724 188.451 80.5724 184.948C80.5724 181.444 81.4346 178.567 82.4979 178.567Z" fill="#B2001A"/>
<path d="M82.4979 191.299C83.5612 191.299 84.4232 194.147 84.4232 197.679C84.4232 201.211 83.5612 204.059 82.4979 204.059C81.4346 204.059 80.5724 201.211 80.5724 197.679C80.5724 194.147 81.4346 191.299 82.4979 191.299Z" fill="#B2001A"/>
<path d="M121.151 140.343C122.214 140.343 123.077 143.191 123.077 146.723C123.077 150.255 122.214 153.103 121.151 153.103C120.088 153.103 119.225 150.255 119.225 146.723C119.225 143.191 120.002 140.343 121.151 140.343Z" fill="#B2001A"/>
<path d="M121.151 153.103C122.214 153.103 123.077 155.951 123.077 159.454C123.077 162.958 122.214 165.835 121.151 165.835C120.088 165.835 119.225 162.986 119.225 159.454C119.225 155.922 120.002 153.103 121.151 153.103Z" fill="#B2001A"/>
<path d="M121.151 165.835C122.214 165.835 123.077 168.683 123.077 172.187C123.077 175.69 122.214 178.567 121.151 178.567C120.088 178.567 119.225 175.719 119.225 172.187C119.225 168.655 120.002 165.835 121.151 165.835Z" fill="#B2001A"/>
<path d="M121.151 178.567C122.214 178.567 123.077 181.416 123.077 184.948C123.077 188.48 122.214 191.299 121.151 191.299C120.088 191.299 119.225 188.451 119.225 184.948C119.225 181.444 120.002 178.567 121.151 178.567Z" fill="#B2001A"/>
<path d="M108.219 191.299C109.282 191.299 110.145 194.147 110.145 197.679C110.145 201.211 109.282 204.059 108.219 204.059C107.156 204.059 106.294 201.211 106.294 197.679C106.294 194.147 107.156 191.299 108.219 191.299Z" fill="#B2001A"/>
<path d="M69.6528 140.343C70.7161 140.343 71.5783 143.191 71.5783 146.723C71.5783 150.255 70.7161 153.103 69.6528 153.103C68.5894 153.103 67.7275 150.255 67.7275 146.723C67.7275 143.191 68.5894 140.343 69.6528 140.343Z" fill="#B2001A"/>
<path d="M69.6528 153.103C70.7161 153.103 71.5783 155.951 71.5783 159.454C71.5783 162.958 70.7161 165.835 69.6528 165.835C68.5894 165.835 67.7275 162.986 67.7275 159.454C67.7275 155.922 68.5894 153.103 69.6528 153.103Z" fill="#B2001A"/>
<path d="M69.6528 165.835C70.7161 165.835 71.5783 168.683 71.5783 172.187C71.5783 175.69 70.7161 178.567 69.6528 178.567C68.5894 178.567 67.7275 175.719 67.7275 172.187C67.7275 168.655 68.5894 165.835 69.6528 165.835Z" fill="#B2001A"/>
<path d="M69.6528 178.567C70.7161 178.567 71.5783 181.416 71.5783 184.948C71.5783 188.48 70.7161 191.299 69.6528 191.299C68.5894 191.299 67.7275 188.451 67.7275 184.948C67.7275 181.444 68.5894 178.567 69.6528 178.567Z" fill="#B2001A"/>
<path d="M56.8064 191.299C57.8697 191.299 58.732 194.147 58.732 197.679C58.732 201.211 57.8697 204.059 56.8064 204.059C55.7431 204.059 54.8524 201.211 54.8524 197.679C54.8524 194.147 55.7144 191.299 56.8064 191.299Z" fill="#B2001A"/>
<path d="M114.628 193.236C118.183 193.236 121.065 192.381 121.065 191.327C121.065 190.273 118.183 189.419 114.628 189.419C111.072 189.419 108.19 190.273 108.19 191.327C108.19 192.381 111.072 193.236 114.628 193.236Z" fill="#B2001A"/>
<path d="M63.2155 193.236C66.7707 193.236 69.6528 192.381 69.6528 191.327C69.6528 190.273 66.7707 189.419 63.2155 189.419C59.6603 189.419 56.7783 190.273 56.7783 191.327C56.7783 192.381 59.6603 193.236 63.2155 193.236Z" fill="#B2001A"/>
<path d="M69.6237 51.1611C70.687 51.1611 71.5493 54.0095 71.5493 57.5414C71.5493 61.0734 70.687 63.8932 69.6237 63.8932C68.5604 63.8932 67.6985 61.0449 67.6985 57.5414C67.6985 54.0379 68.5604 51.1611 69.6237 51.1611Z" fill="#B2001A"/>
<path d="M69.6237 63.8926C70.687 63.8926 71.5493 66.7409 71.5493 70.2728C71.5493 73.8048 70.687 76.6532 69.6237 76.6532C68.5604 76.6532 67.6985 73.8048 67.6985 70.2728C67.6985 66.7409 68.5604 63.8926 69.6237 63.8926Z" fill="#B2001A"/>
<path d="M69.6237 76.6533C70.687 76.6533 71.5493 79.5016 71.5493 83.0051C71.5493 86.5085 70.687 89.3853 69.6237 89.3853C68.5604 89.3853 67.6985 86.537 67.6985 83.0051C67.6985 79.4731 68.5604 76.6533 69.6237 76.6533Z" fill="#B2001A"/>
<path d="M69.6237 89.3848C70.687 89.3848 71.5493 92.2332 71.5493 95.7651C71.5493 99.2971 70.687 102.117 69.6237 102.117C68.5604 102.117 67.6985 99.2686 67.6985 95.7651C67.6985 92.2617 68.5604 89.3848 69.6237 89.3848Z" fill="#B2001A"/>
<path d="M83.8446 27.0404C87.3911 23.5254 89.6562 20.0719 88.9043 19.3266C88.1524 18.5813 84.668 20.8265 81.1216 24.3415C77.5752 27.8565 75.3098 31.3102 76.0617 32.0555C76.8136 32.8008 80.2982 30.5554 83.8446 27.0404Z" fill="#B2001A"/>
<path d="M88.9045 32.0553C89.6564 31.31 87.3909 27.8565 83.8445 24.3415C80.298 20.8265 76.8137 18.581 76.0618 19.3263C75.3098 20.0715 77.5751 23.5253 81.1215 27.0403C84.668 30.5553 88.1525 32.8006 88.9045 32.0553Z" fill="#B2001A"/>
<path d="M76.0616 19.3161C76.8088 20.0567 74.5384 23.5316 71.0037 27.0351C67.4689 30.5386 63.9627 32.7318 63.2155 32.0482C62.4683 31.3646 64.7099 27.8611 68.2734 24.3291C71.8369 20.7972 75.3144 18.5755 76.0616 19.3161Z" fill="#B2001A"/>
<path d="M63.2145 32.0479C63.9617 32.8169 63.2145 34.8961 61.3465 36.6052C59.4786 38.3142 57.5245 39.1687 56.7773 38.4281C56.0301 37.6876 56.7773 35.5798 58.6166 33.8993C60.4558 32.2188 62.4386 31.3928 63.2145 32.0479Z" fill="#B2001A"/>
<path d="M63.215 19.3158C63.9622 18.5753 67.4397 20.8254 71.0032 24.3289C74.5667 27.8323 76.7508 31.3074 76.0611 32.0479C75.3713 32.7885 71.8076 30.5668 68.2729 27.0348C64.7381 23.5029 62.4391 19.9994 63.215 19.3158Z" fill="#B2001A"/>
<path d="M88.9073 6.58457C89.6545 7.32514 87.4129 10.7716 83.8495 14.3036C80.286 17.8355 76.8088 20.0003 76.0616 19.3167C75.3144 18.6331 77.5844 15.1011 81.1191 11.5976C84.6539 8.09414 88.1602 5.75855 88.9073 6.58457Z" fill="#B2001A"/>
<path d="M76.0616 6.58367C76.8088 5.8431 80.3147 8.06476 83.8494 11.5967C87.3842 15.1287 89.597 18.5752 88.9073 19.3158C88.2176 20.0564 84.6826 17.8061 81.1191 14.3027C77.5556 10.7992 75.3144 7.32424 76.0616 6.58367Z" fill="#B2001A"/>
<path d="M70.9831 14.3082C74.5295 10.7931 76.7949 7.3394 76.043 6.59412C75.291 5.84885 71.8065 8.09428 68.2601 11.6093C64.7137 15.1243 62.4485 18.5778 63.2004 19.323C63.9523 20.0683 67.4367 17.8232 70.9831 14.3082Z" fill="#B2001A"/>
<path d="M63.215 6.58367C63.9622 5.8431 67.4397 8.06476 71.0032 11.5967C74.5667 15.1287 76.7508 18.5752 76.0611 19.3158C75.3713 20.0564 71.8076 17.8061 68.2729 14.3027C64.7381 10.7992 62.4391 7.32424 63.215 6.58367Z" fill="#B2001A"/>
<path d="M24.6235 32.0787C25.3754 31.3335 23.1099 27.88 19.5635 24.3649C16.0171 20.8499 12.5327 18.6044 11.7808 19.3497C11.0289 20.095 13.2942 23.5487 16.8406 27.0637C20.387 30.5788 23.8716 32.824 24.6235 32.0787Z" fill="#B2001A"/>
<path d="M19.5637 27.0629C23.1101 23.5478 25.3752 20.0943 24.6233 19.3491C23.8714 18.6038 20.387 20.8489 16.8406 24.3639C13.2942 27.879 11.0288 31.3327 11.7807 32.078C12.5327 32.8233 16.0173 30.5779 19.5637 27.0629Z" fill="#B2001A"/>
<path d="M24.6494 19.3158C25.3966 18.5753 28.8738 20.8254 32.4373 24.3289C36.0008 27.8323 38.1849 31.3074 37.4952 32.0479C36.8054 32.7885 33.2421 30.5668 29.7073 27.0348C26.1726 23.5029 23.9022 19.9994 24.6494 19.3158Z" fill="#B2001A"/>
<path d="M37.4947 32.0484C38.2419 31.3079 40.3684 32.0484 42.064 33.8998C43.7595 35.7513 44.6792 37.6881 43.932 38.4287C43.1848 39.1693 41.0583 38.4287 39.334 36.6057C37.6097 34.7828 36.7476 32.8175 37.4947 32.0484Z" fill="#B2001A"/>
<path d="M37.4952 19.3161C38.2423 20.0567 35.972 23.5316 32.4373 27.0351C28.9025 30.5386 25.3966 32.7318 24.6494 32.0482C23.9022 31.3646 26.1438 27.8611 29.7073 24.3291C33.2708 20.7972 36.748 18.5755 37.4952 19.3161Z" fill="#B2001A"/>
<path d="M11.7742 6.58367C12.5501 5.8431 16.0276 8.06476 19.5624 11.5967C23.0971 15.1287 25.31 18.5752 24.649 19.3158C23.9881 20.0564 20.3956 17.8061 16.8609 14.3027C13.3261 10.7992 11.027 7.32424 11.7742 6.58367Z" fill="#B2001A"/>
<path d="M24.6487 6.58457C25.3959 7.32514 23.1256 10.7716 19.5621 14.3036C15.9986 17.8355 12.5498 20.0003 11.7739 19.3167C10.998 18.6331 13.2971 15.1011 16.8605 11.5976C20.424 8.09414 23.8728 5.75855 24.6487 6.58457Z" fill="#B2001A"/>
<path d="M37.4495 19.3219C38.2015 18.5766 35.9359 15.1231 32.3895 11.6081C28.8431 8.09307 25.3587 5.84758 24.6068 6.59286C23.8549 7.33813 26.1202 10.7919 29.6666 14.3069C33.213 17.8219 36.6976 20.0672 37.4495 19.3219Z" fill="#B2001A"/>
<path d="M37.4952 6.58457C38.2423 7.32514 35.972 10.7716 32.4373 14.3036C28.9025 17.8355 25.3966 20.0003 24.6494 19.3167C23.9022 18.6331 26.1438 15.1011 29.7073 11.5976C33.2708 8.09414 36.748 5.75855 37.4952 6.58457Z" fill="#B2001A"/>
</g>
<defs>
<clipPath id="clip0_1374_33295">
<rect width="186.738" height="197.761" fill="white" transform="translate(11.6308 6.44141)"/>
</clipPath>
</defs>
</svg>
