<svg width="207" height="585" viewBox="0 0 207 585" fill="none" xmlns="http://www.w3.org/2000/svg">
<g opacity="0.7" clip-path="url(#clip0_1234_59838)">
<path d="M34.582 309.524C36.5712 311.598 30.6034 320.892 21.1161 330.339C11.6289 339.786 2.37148 345.7 0.382221 343.933C-1.60704 342.167 4.43733 332.566 13.8481 323.119C23.2588 313.672 32.8988 307.527 34.582 309.524Z" fill="#CA001D"/>
<path d="M0.382138 309.524C2.3714 307.527 11.7053 313.594 21.1161 323.118C30.5268 332.642 36.4181 341.859 34.5819 343.932C32.7456 346.006 23.3352 339.862 13.848 330.338C4.36073 320.814 -1.60712 311.597 0.382138 309.524Z" fill="#CA001D"/>
<path d="M68.7814 309.524C70.8472 311.598 64.8038 320.892 55.3165 330.339C45.8293 339.786 36.5709 345.7 34.5817 343.933C32.5924 342.167 38.6368 332.566 48.0475 323.119C57.4583 313.672 66.7922 307.527 68.7814 309.524Z" fill="#CA001D"/>
<path d="M68.7814 343.933C70.8471 341.859 80.1055 347.927 89.5162 357.451C98.9269 366.974 104.818 376.268 103.059 378.265C101.299 380.262 91.7345 374.194 82.3238 364.747C72.9131 355.3 66.7921 345.93 68.7814 343.933Z" fill="#CA001D"/>
<path d="M34.582 275.192C36.5712 277.189 30.6034 286.56 21.1161 296.007C11.6289 305.454 2.37148 311.367 0.382221 309.524C-1.60704 307.681 4.43733 298.234 13.8481 288.71C23.2588 279.186 32.8988 273.195 34.582 275.192Z" fill="#CA001D"/>
<path d="M0.382138 275.193C2.3714 273.196 11.7053 279.264 21.1161 288.711C30.5268 298.158 36.4181 307.528 34.5819 309.525C32.7456 311.522 23.3352 305.531 13.848 296.007C4.36073 286.483 -1.60712 277.19 0.382138 275.193Z" fill="#CA001D"/>
<path d="M68.7814 275.192C70.8472 277.189 64.8038 286.56 55.3165 296.007C45.8293 305.454 36.5709 311.367 34.5817 309.524C32.5924 307.681 38.6368 298.234 48.0475 288.71C57.4583 279.186 66.7922 273.195 68.7814 275.192Z" fill="#CA001D"/>
<path d="M34.5824 275.193C36.5717 273.196 45.9065 279.264 55.3173 288.711C64.728 298.158 70.6184 307.528 68.7822 309.525C66.9459 311.522 57.5355 305.531 48.0483 296.007C38.561 286.483 32.8992 277.19 34.5824 275.193Z" fill="#CA001D"/>
<path d="M34.582 412.597C36.5712 414.594 30.6034 423.965 21.1161 433.412C11.6289 442.859 2.37148 448.773 0.382221 446.929C-1.60704 445.086 4.43733 435.639 13.8481 426.115C23.2588 416.591 32.8988 410.677 34.582 412.597Z" fill="#CA001D"/>
<path d="M0.382138 412.597C2.3714 410.6 11.7053 416.668 21.1161 426.115C30.5268 435.562 36.4181 444.932 34.5819 446.929C32.7456 448.926 23.3352 442.935 13.848 433.411C4.36073 423.887 -1.60712 414.594 0.382138 412.597Z" fill="#CA001D"/>
<path d="M68.7814 412.597C70.8472 414.594 64.8038 423.965 55.3165 433.412C45.8293 442.859 36.5709 448.773 34.5817 446.929C32.5924 445.086 38.6368 435.639 48.0475 426.115C57.4583 416.591 66.7922 410.677 68.7814 412.597Z" fill="#CA001D"/>
<path d="M68.7814 446.929C70.8471 444.932 80.1055 451 89.5162 460.523C98.9269 470.047 104.818 479.264 103.059 481.338C101.299 483.411 91.7345 477.267 82.3238 467.743C72.9131 458.219 66.7921 449.079 68.7814 446.929Z" fill="#CA001D"/>
<path d="M34.582 378.264C36.5712 380.261 30.6034 389.555 21.1161 399.079C11.6289 408.602 2.37148 414.44 0.382221 412.596C-1.60704 410.753 4.43733 401.306 13.8481 391.782C23.2588 382.258 32.8988 376.268 34.582 378.264Z" fill="#CA001D"/>
<path d="M0.382138 378.265C2.3714 376.268 11.7053 382.336 21.1161 391.783C30.5268 401.23 36.4181 410.6 34.5819 412.597C32.7456 414.594 23.3352 408.526 13.848 399.079C4.36073 389.632 -1.60712 379.955 0.382138 378.265Z" fill="#CA001D"/>
<path d="M68.7814 378.264C70.8472 380.261 64.8038 389.555 55.3165 399.079C45.8293 408.602 36.5709 414.44 34.5817 412.596C32.5924 410.753 38.6368 401.306 48.0475 391.782C57.4583 382.258 66.7922 376.268 68.7814 378.264Z" fill="#CA001D"/>
<path d="M34.5824 378.265C36.5717 376.268 45.9065 382.336 55.3173 391.783C64.728 401.23 70.6184 410.6 68.7822 412.597C66.9459 414.594 57.5355 408.526 48.0483 399.079C38.561 389.632 32.8992 379.955 34.5824 378.265Z" fill="#CA001D"/>
<path d="M34.582 515.67C36.5712 517.667 30.6034 527.037 21.1161 536.484C11.6289 545.931 2.37148 551.845 0.382221 550.002C-1.60704 548.158 4.43733 538.711 13.8481 529.187C23.2588 519.663 32.8988 513.673 34.582 515.67Z" fill="#CA001D"/>
<path d="M34.6375 550.027C36.6394 548.018 30.6084 538.705 21.1666 529.227C11.7249 519.748 2.44768 513.694 0.445788 515.704C-1.55611 517.713 4.47489 527.026 13.9167 536.505C23.3584 545.983 32.6356 552.037 34.6375 550.027Z" fill="#CA001D"/>
<path d="M68.7814 515.67C70.8472 517.667 64.8038 527.037 55.3165 536.484C45.8293 545.931 36.5709 551.845 34.5817 550.002C32.5924 548.158 38.6368 538.711 48.0475 529.187C57.4583 519.663 66.7922 513.673 68.7814 515.67Z" fill="#CA001D"/>
<path d="M68.7814 550.001C70.8471 548.004 80.1055 554.072 89.5162 563.519C98.9269 572.966 104.818 582.336 103.059 584.333C101.299 586.33 91.7345 580.339 82.3238 570.815C72.9131 561.292 66.7921 551.998 68.7814 550.001Z" fill="#CA001D"/>
<path d="M21.107 502.114C30.5487 492.635 36.5801 483.322 34.5782 481.313C32.5763 479.303 23.2993 485.358 13.8575 494.836C4.41572 504.314 -1.61576 513.627 0.386132 515.637C2.38803 517.646 11.6652 511.592 21.107 502.114Z" fill="#CA001D"/>
<path d="M0.382138 481.338C2.3714 479.264 11.7053 485.332 21.1161 494.856C30.5268 504.379 36.4181 513.673 34.5819 515.67C32.7456 517.667 23.3352 511.599 13.848 502.152C4.36073 492.705 -1.60712 483.335 0.382138 481.338Z" fill="#CA001D"/>
<path d="M68.7814 481.338C70.8472 483.335 64.8038 492.629 55.3165 502.153C45.8293 511.676 36.5709 517.514 34.5817 515.67C32.5924 513.827 38.6368 504.303 48.0475 494.856C57.4583 485.409 66.7922 479.265 68.7814 481.338Z" fill="#CA001D"/>
<path d="M34.5824 481.338C36.5717 479.264 45.9065 485.332 55.3173 494.856C64.728 504.379 70.6184 513.673 68.7822 515.67C66.9459 517.667 57.5355 511.599 48.0483 502.152C38.561 492.705 32.8992 483.335 34.5824 481.338Z" fill="#CA001D"/>
<path d="M34.582 206.452C36.5712 208.526 30.6034 217.819 21.1161 227.343C11.6289 236.867 2.37148 242.704 0.382221 240.861C-1.60704 239.017 4.43733 229.493 13.8481 220.046C23.2588 210.599 32.8988 204.455 34.582 206.452Z" fill="#CA001D"/>
<path d="M0.382138 206.452C2.3714 204.455 11.7053 210.523 21.1161 220.047C30.5268 229.571 36.4181 238.864 34.5819 240.861C32.7456 242.858 23.3352 236.79 13.848 227.343C4.36073 217.896 -1.60712 208.526 0.382138 206.452Z" fill="#CA001D"/>
<path d="M68.7814 206.452C70.8472 208.526 64.8038 217.819 55.3165 227.343C45.8293 236.867 36.5709 242.704 34.5817 240.861C32.5924 239.017 38.6368 229.493 48.0475 220.046C57.4583 210.599 66.7922 204.455 68.7814 206.452Z" fill="#CA001D"/>
<path d="M68.7814 240.862C70.8471 238.865 80.1055 244.856 89.5162 254.38C98.9269 263.904 104.818 273.197 103.059 275.194C101.299 277.191 91.7345 271.123 82.3238 261.676C72.9131 252.229 66.7921 242.859 68.7814 240.862Z" fill="#CA001D"/>
<path d="M34.5817 172.12C36.571 174.117 30.6031 183.487 21.1159 192.934C11.6286 202.381 2.37124 208.295 0.381977 206.452C-1.60728 204.609 4.43708 195.162 13.8478 185.638C23.2585 176.114 32.8985 170.123 34.5817 172.12Z" fill="#CA001D"/>
<path d="M0.382138 172.12C2.3714 170.124 11.7053 176.191 21.1161 185.638C30.5268 195.085 36.4181 204.455 34.5819 206.452C32.7456 208.449 23.3352 202.458 13.848 192.935C4.36073 183.411 -1.60712 174.117 0.382138 172.12Z" fill="#CA001D"/>
<path d="M68.7814 172.12C70.8472 174.117 64.8038 183.487 55.3165 192.934C45.8293 202.381 36.5709 208.295 34.5817 206.452C32.5924 204.609 38.6368 195.162 48.0475 185.638C57.4583 176.114 66.7922 170.123 68.7814 172.12Z" fill="#CA001D"/>
<path d="M34.5824 172.12C36.5717 170.124 45.9065 176.191 55.3173 185.638C64.728 195.085 70.6184 204.455 68.7822 206.452C66.9459 208.449 57.5355 202.458 48.0483 192.935C38.561 183.411 32.8992 174.117 34.5824 172.12Z" fill="#CA001D"/>
<path d="M34.5817 103.457C36.571 105.454 30.6031 114.747 21.1159 124.271C11.6286 133.795 2.37124 139.632 0.381977 137.789C-1.60728 135.945 4.43708 126.421 13.8478 116.974C23.2585 107.527 32.8985 101.383 34.5817 103.457Z" fill="#CA001D"/>
<path d="M34.5794 137.759C36.5813 135.749 30.5503 126.436 21.1085 116.958C11.6668 107.48 2.38958 101.426 0.387683 103.435C-1.61421 105.445 4.41678 114.758 13.8586 124.236C23.3003 133.714 32.5775 139.768 34.5794 137.759Z" fill="#CA001D"/>
<path d="M55.3151 124.229C64.7568 114.751 70.7883 105.438 68.7864 103.429C66.7845 101.419 57.5073 107.474 48.0656 116.952C38.6238 126.43 32.5931 135.742 34.595 137.752C36.5969 139.762 45.8733 133.708 55.3151 124.229Z" fill="#CA001D"/>
<path d="M34.5824 103.457C36.5717 101.383 45.9065 107.451 55.3173 116.975C64.728 126.499 70.6184 135.792 68.7822 137.789C66.9459 139.786 57.5355 133.718 48.0483 124.271C38.561 114.824 32.8992 105.454 34.5824 103.457Z" fill="#CA001D"/>
<path d="M34.5824 309.524C36.5717 307.527 45.9065 313.594 55.3173 323.118C64.728 332.642 70.6184 341.859 68.7822 343.932C66.9459 346.006 57.5355 339.862 48.0483 330.338C38.561 320.814 32.8992 311.597 34.5824 309.524Z" fill="#CA001D"/>
<path d="M34.5824 412.597C36.5717 410.6 45.9065 416.668 55.3173 426.115C64.728 435.562 70.6184 444.932 68.7822 446.929C66.9459 448.926 57.5355 442.935 48.0483 433.411C38.561 423.887 32.8992 414.594 34.5824 412.597Z" fill="#CA001D"/>
<path d="M34.5824 515.67C36.5717 513.673 45.9065 519.741 55.3173 529.188C64.728 538.635 70.6184 548.005 68.7822 550.002C66.9459 551.999 57.5355 546.008 48.0483 536.484C38.561 526.961 32.8992 517.667 34.5824 515.67Z" fill="#CA001D"/>
<path d="M34.5824 206.452C36.5717 204.455 45.9065 210.523 55.3173 220.047C64.728 229.571 70.6184 238.864 68.7822 240.861C66.9459 242.858 57.5355 236.79 48.0483 227.343C38.561 217.896 32.8992 208.526 34.5824 206.452Z" fill="#CA001D"/>
<path d="M34.5824 103.457C36.5717 101.383 45.9065 107.451 55.3173 116.975C64.728 126.499 70.6184 135.792 68.7822 137.789C66.9459 139.786 57.5355 133.718 48.0483 124.271C38.561 114.824 32.8992 105.454 34.5824 103.457Z" fill="#CA001D"/>
<path d="M68.7814 343.933C70.8471 341.859 80.1055 347.927 89.5162 357.451C98.9269 366.974 104.818 376.268 103.059 378.265C101.299 380.262 91.7345 374.194 82.3238 364.747C72.9131 355.3 66.7921 345.93 68.7814 343.933Z" fill="#CA001D"/>
<path d="M68.7814 446.929C70.8471 444.932 80.1055 451 89.5162 460.523C98.9269 470.047 104.818 479.264 103.059 481.338C101.299 483.411 91.7345 477.267 82.3238 467.743C72.9131 458.219 66.7921 449.079 68.7814 446.929Z" fill="#CA001D"/>
<path d="M68.7814 550.001C70.8471 548.004 80.1055 554.072 89.5162 563.519C98.9269 572.966 104.818 582.336 103.059 584.333C101.299 586.33 91.7345 580.339 82.3238 570.815C72.9131 561.292 66.7921 551.998 68.7814 550.001Z" fill="#CA001D"/>
<path d="M68.7814 240.862C70.8471 238.865 80.1055 244.856 89.5162 254.38C98.9269 263.904 104.818 273.197 103.059 275.194C101.299 277.191 91.7345 271.123 82.3238 261.676C72.9131 252.229 66.7921 242.859 68.7814 240.862Z" fill="#CA001D"/>
<path d="M68.7814 343.933C70.8471 341.859 80.1055 347.927 89.5162 357.451C98.9269 366.974 104.818 376.268 103.059 378.265C101.299 380.262 91.7345 374.194 82.3238 364.747C72.9131 355.3 66.7921 345.93 68.7814 343.933Z" fill="#CA001D"/>
<path d="M68.7814 446.929C70.8471 444.932 80.1055 451 89.5162 460.523C98.9269 470.047 104.818 479.264 103.059 481.338C101.299 483.411 91.7345 477.267 82.3238 467.743C72.9131 458.219 66.7921 449.079 68.7814 446.929Z" fill="#CA001D"/>
<path d="M68.7814 550.001C70.8471 548.004 80.1055 554.072 89.5162 563.519C98.9269 572.966 104.818 582.336 103.059 584.333C101.299 586.33 91.7345 580.339 82.3238 570.815C72.9131 561.292 66.7921 551.998 68.7814 550.001Z" fill="#CA001D"/>
<path d="M68.7814 240.862C70.8471 238.865 80.1055 244.856 89.5162 254.38C98.9269 263.904 104.818 273.197 103.059 275.194C101.299 277.191 91.7345 271.123 82.3238 261.676C72.9131 252.229 66.7921 242.859 68.7814 240.862Z" fill="#CA001D"/>
<path d="M68.7814 137.788C70.8471 135.792 80.1055 141.859 89.5162 151.306C98.9269 160.753 104.818 170.123 103.059 172.12C101.299 174.117 91.7345 168.126 82.3238 158.603C72.9131 149.079 66.7921 139.785 68.7814 137.788Z" fill="#CA001D"/>
<path d="M34.5817 69.0467C36.571 71.1205 30.6031 80.4141 21.1159 89.8611C11.6286 99.3081 2.37124 105.222 0.381977 103.456C-1.60728 101.689 4.43708 92.0884 13.8478 82.6414C23.2585 73.1944 32.8985 67.0498 34.5817 69.0467Z" fill="#CA001D"/>
<path d="M0.382138 69.0481C2.3714 67.0511 11.7053 73.1189 21.1161 82.6427C30.5268 92.1666 36.4181 101.383 34.5819 103.457C32.7456 105.531 23.3352 99.3863 13.848 89.8624C4.36073 80.3386 -1.60712 71.1218 0.382138 69.0481Z" fill="#CA001D"/>
<path d="M68.7814 69.0467C70.8472 71.1205 64.8038 80.4141 55.3165 89.8611C45.8293 99.3081 36.5709 105.222 34.5817 103.456C32.5924 101.689 38.6368 92.0884 48.0475 82.6414C57.4583 73.1944 66.7922 67.0498 68.7814 69.0467Z" fill="#CA001D"/>
<path d="M68.7809 103.414C70.7828 101.404 64.7518 92.0912 55.31 82.613C45.8682 73.1348 36.5911 67.0806 34.5892 69.0902C32.5873 71.0998 38.6189 80.4121 48.0607 89.8903C57.5025 99.3685 66.779 105.423 68.7809 103.414Z" fill="#CA001D"/>
<path d="M205.654 343.886C207.656 341.877 201.625 332.564 192.183 323.086C182.742 313.608 173.464 307.553 171.462 309.563C169.461 311.572 175.492 320.885 184.934 330.363C194.376 339.841 203.652 345.896 205.654 343.886Z" fill="#CA001D"/>
<path d="M205.658 309.524C207.724 311.598 201.68 320.892 192.192 330.339C182.705 339.786 173.448 345.7 171.458 343.933C169.469 342.167 175.513 332.566 184.924 323.119C194.335 313.672 203.669 307.527 205.658 309.524Z" fill="#CA001D"/>
<path d="M137.26 309.524C139.249 307.527 148.583 313.594 157.994 323.118C167.404 332.642 173.296 341.859 171.46 343.932C169.623 346.006 160.213 339.862 150.726 330.338C141.238 320.814 135.271 311.597 137.26 309.524Z" fill="#CA001D"/>
<path d="M137.259 343.933C139.249 345.93 133.204 355.224 123.794 364.747C114.383 374.271 105.049 380.108 103.06 378.265C101.07 376.422 107.038 366.898 116.525 357.451C126.013 348.004 135.27 341.552 137.259 343.933Z" fill="#CA001D"/>
<path d="M171.459 275.193C173.448 273.196 182.782 279.264 192.193 288.711C201.604 298.158 207.495 307.528 205.659 309.525C203.823 311.522 194.412 305.531 184.925 296.007C175.438 286.483 169.47 277.19 171.459 275.193Z" fill="#CA001D"/>
<path d="M192.253 296.026C201.695 286.547 207.726 277.235 205.724 275.225C203.722 273.215 194.445 279.27 185.003 288.748C175.562 298.226 169.53 307.539 171.532 309.549C173.534 311.559 182.811 305.504 192.253 296.026Z" fill="#CA001D"/>
<path d="M137.26 275.193C139.249 273.196 148.583 279.264 157.994 288.711C167.404 298.158 173.296 307.528 171.46 309.525C169.623 311.522 160.213 305.531 150.726 296.007C141.238 286.483 135.271 277.19 137.26 275.193Z" fill="#CA001D"/>
<path d="M171.457 275.192C173.447 277.189 167.479 286.56 157.992 296.007C148.504 305.454 139.247 311.367 137.258 309.524C135.268 307.681 141.313 298.234 150.724 288.71C160.134 279.186 169.468 273.195 171.457 275.192Z" fill="#CA001D"/>
<path d="M205.725 446.954C207.727 444.944 201.696 435.631 192.254 426.153C182.813 416.675 173.535 410.621 171.534 412.63C169.532 414.64 175.563 423.952 185.005 433.43C194.447 442.909 203.723 448.963 205.725 446.954Z" fill="#CA001D"/>
<path d="M205.658 412.597C207.724 414.594 201.68 423.965 192.192 433.412C182.705 442.859 173.448 448.773 171.458 446.929C169.469 445.086 175.513 435.639 184.924 426.115C194.335 416.591 203.669 410.677 205.658 412.597Z" fill="#CA001D"/>
<path d="M137.26 412.597C139.249 410.6 148.583 416.668 157.994 426.115C167.404 435.562 173.296 444.932 171.46 446.929C169.623 448.926 160.213 442.935 150.726 433.411C141.238 423.887 135.271 414.594 137.26 412.597Z" fill="#CA001D"/>
<path d="M137.259 446.93C139.249 449.003 133.204 458.297 123.794 467.744C114.383 477.191 105.049 483.105 103.06 481.338C101.07 479.572 107.038 469.971 116.525 460.524C126.013 451.077 135.27 444.933 137.259 446.93Z" fill="#CA001D"/>
<path d="M171.459 378.265C173.448 376.268 182.782 382.336 192.193 391.783C201.603 401.23 207.495 410.6 205.659 412.597C203.822 414.594 194.412 408.526 184.925 399.079C175.437 389.632 169.47 379.955 171.459 378.265Z" fill="#CA001D"/>
<path d="M192.195 399.037C201.637 389.559 207.668 380.246 205.666 378.237C203.665 376.227 194.387 382.282 184.946 391.76C175.504 401.238 169.473 410.551 171.474 412.561C173.476 414.57 182.753 408.516 192.195 399.037Z" fill="#CA001D"/>
<path d="M137.26 378.265C139.249 376.268 148.583 382.336 157.994 391.783C167.404 401.23 173.296 410.6 171.46 412.597C169.623 414.594 160.213 408.526 150.726 399.079C141.238 389.632 135.271 379.955 137.26 378.265Z" fill="#CA001D"/>
<path d="M171.457 378.264C173.447 380.261 167.479 389.555 157.992 399.079C148.504 408.602 139.247 414.44 137.258 412.596C135.268 410.753 141.313 401.306 150.724 391.782C160.134 382.258 169.468 376.268 171.457 378.264Z" fill="#CA001D"/>
<path d="M171.459 515.67C173.448 513.673 182.782 519.741 192.193 529.188C201.603 538.635 207.495 548.005 205.659 550.002C203.822 551.999 194.412 546.008 184.925 536.484C175.437 526.961 169.47 517.667 171.459 515.67Z" fill="#CA001D"/>
<path d="M205.658 515.67C207.724 517.667 201.68 527.037 192.192 536.484C182.705 545.931 173.448 551.845 171.458 550.002C169.469 548.158 175.513 538.711 184.924 529.187C194.335 519.663 203.669 513.673 205.658 515.67Z" fill="#CA001D"/>
<path d="M137.26 515.67C139.249 513.673 148.583 519.741 157.994 529.188C167.404 538.635 173.296 548.005 171.46 550.002C169.623 551.999 160.213 546.008 150.726 536.484C141.238 526.961 135.271 517.667 137.26 515.67Z" fill="#CA001D"/>
<path d="M137.259 550.001C139.249 551.998 133.204 561.368 123.794 570.815C114.383 580.262 105.049 586.176 103.06 584.332C101.07 582.489 107.038 573.042 116.525 563.518C126.013 553.995 135.27 548.004 137.259 550.001Z" fill="#CA001D"/>
<path d="M171.459 481.338C173.448 479.264 182.782 485.332 192.193 494.856C201.604 504.379 207.495 513.673 205.659 515.67C203.823 517.667 194.412 511.599 184.925 502.152C175.438 492.705 169.47 483.335 171.459 481.338Z" fill="#CA001D"/>
<path d="M205.658 481.338C207.724 483.335 201.68 492.629 192.192 502.153C182.705 511.676 173.448 517.514 171.458 515.67C169.469 513.827 175.513 504.303 184.924 494.856C194.335 485.409 203.669 479.265 205.658 481.338Z" fill="#CA001D"/>
<path d="M137.26 481.338C139.249 479.264 148.583 485.332 157.994 494.856C167.404 504.379 173.296 513.673 171.46 515.67C169.623 517.667 160.213 511.599 150.726 502.152C141.238 492.705 135.271 483.335 137.26 481.338Z" fill="#CA001D"/>
<path d="M171.457 481.338C173.447 483.335 167.479 492.629 157.992 502.153C148.504 511.676 139.247 517.514 137.258 515.67C135.268 513.827 141.313 504.303 150.724 494.856C160.134 485.409 169.468 479.265 171.457 481.338Z" fill="#CA001D"/>
<path d="M205.658 240.819C207.66 238.809 201.629 229.496 192.187 220.018C182.746 210.54 173.469 204.486 171.467 206.495C169.465 208.505 175.496 217.817 184.938 227.296C194.38 236.774 203.656 242.829 205.658 240.819Z" fill="#CA001D"/>
<path d="M205.658 206.452C207.724 208.526 201.68 217.819 192.192 227.343C182.705 236.867 173.448 242.704 171.458 240.861C169.469 239.017 175.513 229.493 184.924 220.046C194.335 210.599 203.669 204.455 205.658 206.452Z" fill="#CA001D"/>
<path d="M137.26 206.452C139.249 204.455 148.583 210.523 157.994 220.047C167.404 229.571 173.296 238.864 171.46 240.861C169.623 242.858 160.213 236.79 150.726 227.343C141.238 217.896 135.271 208.526 137.26 206.452Z" fill="#CA001D"/>
<path d="M137.259 240.861C139.249 242.858 133.204 252.151 123.794 261.675C114.383 271.199 105.049 277.036 103.06 275.192C101.07 273.349 107.038 263.825 116.525 254.378C126.013 244.931 135.27 238.864 137.259 240.861Z" fill="#CA001D"/>
<path d="M171.459 172.12C173.448 170.124 182.782 176.191 192.193 185.638C201.603 195.085 207.495 204.455 205.659 206.452C203.822 208.449 194.412 202.458 184.925 192.935C175.437 183.411 169.47 174.117 171.459 172.12Z" fill="#CA001D"/>
<path d="M192.258 192.957C201.7 183.479 207.731 174.166 205.73 172.157C203.728 170.147 194.451 176.202 185.009 185.68C175.567 195.158 169.536 204.471 171.537 206.48C173.539 208.49 182.817 202.435 192.258 192.957Z" fill="#CA001D"/>
<path d="M137.26 172.12C139.249 170.124 148.583 176.191 157.994 185.638C167.404 195.085 173.296 204.455 171.46 206.452C169.623 208.449 160.213 202.458 150.726 192.935C141.238 183.411 135.271 174.117 137.26 172.12Z" fill="#CA001D"/>
<path d="M171.457 172.12C173.447 174.117 167.479 183.487 157.992 192.934C148.504 202.381 139.247 208.295 137.258 206.452C135.268 204.609 141.313 195.162 150.724 185.638C160.134 176.114 169.468 170.123 171.457 172.12Z" fill="#CA001D"/>
<path d="M205.665 137.751C207.667 135.741 201.636 126.428 192.194 116.95C182.752 107.472 173.475 101.418 171.473 103.427C169.471 105.437 175.503 114.749 184.944 124.227C194.386 133.705 203.663 139.76 205.665 137.751Z" fill="#CA001D"/>
<path d="M205.658 103.457C207.724 105.454 201.68 114.747 192.192 124.271C182.705 133.795 173.448 139.632 171.458 137.789C169.469 135.945 175.513 126.421 184.924 116.974C194.335 107.527 203.669 101.383 205.658 103.457Z" fill="#CA001D"/>
<path d="M137.26 103.457C139.249 101.383 148.583 107.451 157.994 116.975C167.404 126.499 173.296 135.792 171.46 137.789C169.623 139.786 160.213 133.718 150.726 124.271C141.238 114.824 135.271 105.454 137.26 103.457Z" fill="#CA001D"/>
<path d="M171.457 103.457C173.447 105.454 167.479 114.747 157.992 124.271C148.504 133.795 139.247 139.632 137.258 137.789C135.268 135.945 141.313 126.421 150.724 116.974C160.134 107.527 169.468 101.383 171.457 103.457Z" fill="#CA001D"/>
<path d="M171.457 309.524C173.447 311.598 167.479 320.892 157.992 330.339C148.504 339.786 139.247 345.7 137.258 343.933C135.268 342.167 141.313 332.566 150.724 323.119C160.134 313.672 169.468 307.527 171.457 309.524Z" fill="#CA001D"/>
<path d="M171.457 412.597C173.447 414.594 167.479 423.965 157.992 433.412C148.504 442.859 139.247 448.773 137.258 446.929C135.268 445.086 141.313 435.639 150.724 426.115C160.134 416.591 169.468 410.677 171.457 412.597Z" fill="#CA001D"/>
<path d="M171.457 515.67C173.447 517.667 167.479 527.037 157.992 536.484C148.504 545.931 139.247 551.845 137.258 550.002C135.268 548.158 141.313 538.711 150.724 529.187C160.134 519.663 169.468 513.673 171.457 515.67Z" fill="#CA001D"/>
<path d="M157.981 227.301C167.423 217.823 173.455 208.51 171.453 206.5C169.451 204.491 160.174 210.545 150.732 220.024C141.29 229.502 135.259 238.815 137.261 240.824C139.263 242.834 148.54 236.779 157.981 227.301Z" fill="#CA001D"/>
<path d="M171.457 103.457C173.447 105.454 167.479 114.747 157.992 124.271C148.504 133.795 139.247 139.632 137.258 137.789C135.268 135.945 141.313 126.421 150.724 116.974C160.134 107.527 169.468 101.383 171.457 103.457Z" fill="#CA001D"/>
<path d="M137.259 343.933C139.249 345.93 133.204 355.224 123.794 364.747C114.383 374.271 105.049 380.108 103.06 378.265C101.07 376.422 107.038 366.898 116.525 357.451C126.013 348.004 135.27 341.552 137.259 343.933Z" fill="#CA001D"/>
<path d="M137.259 446.93C139.249 449.003 133.204 458.297 123.794 467.744C114.383 477.191 105.049 483.105 103.06 481.338C101.07 479.572 107.038 469.971 116.525 460.524C126.013 451.077 135.27 444.933 137.259 446.93Z" fill="#CA001D"/>
<path d="M137.259 550.001C139.249 551.998 133.204 561.368 123.794 570.815C114.383 580.262 105.049 586.176 103.06 584.332C101.07 582.489 107.038 573.042 116.525 563.518C126.013 553.995 135.27 548.004 137.259 550.001Z" fill="#CA001D"/>
<path d="M137.259 240.861C139.249 242.858 133.204 252.151 123.794 261.675C114.383 271.199 105.049 277.036 103.06 275.192C101.07 273.349 107.038 263.825 116.525 254.378C126.013 244.931 135.27 238.864 137.259 240.861Z" fill="#CA001D"/>
<path d="M137.259 343.933C139.249 345.93 133.204 355.224 123.794 364.747C114.383 374.271 105.049 380.108 103.06 378.265C101.07 376.422 107.038 366.898 116.525 357.451C126.013 348.004 135.27 341.552 137.259 343.933Z" fill="#CA001D"/>
<path d="M137.259 446.93C139.249 449.003 133.204 458.297 123.794 467.744C114.383 477.191 105.049 483.105 103.06 481.338C101.07 479.572 107.038 469.971 116.525 460.524C126.013 451.077 135.27 444.933 137.259 446.93Z" fill="#CA001D"/>
<path d="M137.259 550.001C139.249 551.998 133.204 561.368 123.794 570.815C114.383 580.262 105.049 586.176 103.06 584.332C101.07 582.489 107.038 573.042 116.525 563.518C126.013 553.995 135.27 548.004 137.259 550.001Z" fill="#CA001D"/>
<path d="M137.259 240.861C139.249 242.858 133.204 252.151 123.794 261.675C114.383 271.199 105.049 277.036 103.06 275.192C101.07 273.349 107.038 263.825 116.525 254.378C126.013 244.931 135.27 238.864 137.259 240.861Z" fill="#CA001D"/>
<path d="M137.259 137.789C139.249 139.786 133.204 149.156 123.794 158.603C114.383 168.05 105.049 173.964 103.06 172.121C101.07 170.277 107.038 160.83 116.525 151.307C126.013 141.783 135.27 135.792 137.259 137.789Z" fill="#CA001D"/>
<path d="M205.658 103.412C207.66 101.402 201.629 92.0893 192.187 82.6111C182.746 73.1329 173.469 67.0786 171.467 69.0883C169.465 71.0979 175.496 80.4102 184.938 89.8884C194.38 99.3665 203.656 105.421 205.658 103.412Z" fill="#CA001D"/>
<path d="M205.658 69.0467C207.724 71.1205 201.68 80.4141 192.192 89.8611C182.705 99.3081 173.448 105.222 171.458 103.456C169.469 101.689 175.513 92.0884 184.924 82.6414C194.335 73.1944 203.669 67.0498 205.658 69.0467Z" fill="#CA001D"/>
<path d="M137.26 69.0481C139.249 67.0511 148.583 73.1189 157.994 82.6427C167.404 92.1666 173.296 101.383 171.46 103.457C169.623 105.531 160.213 99.3863 150.726 89.8624C141.238 80.3386 135.271 71.1218 137.26 69.0481Z" fill="#CA001D"/>
<path d="M171.457 69.0467C173.447 71.1205 167.479 80.4141 157.992 89.8611C148.504 99.3081 139.247 105.222 137.258 103.456C135.268 101.689 141.313 92.0884 150.724 82.6414C160.134 73.1944 169.468 67.0498 171.457 69.0467Z" fill="#CA001D"/>
<path d="M137.259 34.7156C139.249 36.7126 133.204 46.083 123.794 55.53C114.383 64.977 105.049 70.8909 103.06 69.0475C101.07 67.2042 107.038 57.7573 116.525 48.2334C126.013 38.7096 135.27 32.7187 137.259 34.7156Z" fill="#CA001D"/>
<path d="M103.059 34.7162C105.049 32.7193 114.306 38.7869 123.793 48.234C133.281 57.681 139.095 67.0512 137.259 69.0481C135.423 71.045 125.936 65.0544 116.525 55.5306C107.115 46.0067 101.07 36.7131 103.059 34.7162Z" fill="#CA001D"/>
<path d="M89.586 55.5461C99.0277 46.068 105.059 36.7558 103.057 34.7462C101.055 32.7366 91.7783 38.7905 82.3365 48.2687C72.8947 57.7469 66.8634 67.0599 68.8653 69.0695C70.8672 71.0791 80.1442 65.0243 89.586 55.5461Z" fill="#CA001D"/>
<path d="M103.057 69.0694C105.059 67.0598 99.0274 57.7475 89.5856 48.2693C80.1439 38.7911 70.8674 32.7362 68.8655 34.7458C66.8636 36.7554 72.8946 46.0684 82.3363 55.5466C91.7781 65.0247 101.055 71.079 103.057 69.0694Z" fill="#CA001D"/>
<path d="M137.259 0.383612C139.249 2.38054 133.204 11.6741 123.794 21.198C114.383 30.7218 105.049 36.5588 103.06 34.7155C101.07 32.8722 107.038 23.4252 116.525 13.9014C126.013 4.37755 135.27 -1.61332 137.259 0.383612Z" fill="#CA001D"/>
<path d="M103.059 0.384171C105.049 -1.61276 114.306 4.45492 123.793 13.9019C133.281 23.349 139.095 32.7191 137.259 34.7161C135.423 36.713 125.936 30.6455 116.525 21.1985C107.115 11.7515 101.07 2.3811 103.059 0.384171Z" fill="#CA001D"/>
<path d="M103.06 0.383612C105.049 2.38054 99.0044 11.6741 89.5172 21.198C80.0299 30.7218 70.8481 36.5588 68.7823 34.7155C66.7165 32.8722 72.8375 23.4252 82.3247 13.9014C91.812 4.37755 100.994 -1.61332 103.06 0.383612Z" fill="#CA001D"/>
<path d="M68.7814 0.384171C70.8471 -1.61276 80.1055 4.45492 89.5162 13.9019C98.9269 23.349 104.818 32.7191 103.059 34.7161C101.299 36.713 91.7345 30.6455 82.3238 21.1985C72.9131 11.7515 66.7921 2.3811 68.7814 0.384171Z" fill="#CA001D"/>
<path d="M103.059 584.41C105.89 584.41 108.185 576.707 108.185 567.205C108.185 557.704 105.89 550.001 103.059 550.001C100.228 550.001 97.9326 557.704 97.9326 567.205C97.9326 576.707 100.228 584.41 103.059 584.41Z" fill="#CA001D"/>
<path d="M103.059 550.078C105.89 550.078 108.185 542.375 108.185 532.873C108.185 523.372 105.89 515.669 103.059 515.669C100.228 515.669 97.9326 523.372 97.9326 532.873C97.9326 542.375 100.228 550.078 103.059 550.078Z" fill="#CA001D"/>
<path d="M103.059 515.669C105.89 515.669 108.185 507.967 108.185 498.465C108.185 488.963 105.89 481.261 103.059 481.261C100.228 481.261 97.9326 488.963 97.9326 498.465C97.9326 507.967 100.228 515.669 103.059 515.669Z" fill="#CA001D"/>
<path d="M103.059 481.338C105.89 481.338 108.185 473.636 108.185 464.134C108.185 454.632 105.89 446.93 103.059 446.93C100.228 446.93 97.9326 454.632 97.9326 464.134C97.9326 473.636 100.228 481.338 103.059 481.338Z" fill="#CA001D"/>
<path d="M103.059 447.006C105.89 447.006 108.185 439.304 108.185 429.802C108.185 420.3 105.89 412.598 103.059 412.598C100.228 412.598 97.9326 420.3 97.9326 429.802C97.9326 439.304 100.228 447.006 103.059 447.006Z" fill="#CA001D"/>
<path d="M103.059 412.674C105.89 412.674 108.185 404.972 108.185 395.47C108.185 385.968 105.89 378.266 103.059 378.266C100.228 378.266 97.9326 385.968 97.9326 395.47C97.9326 404.972 100.228 412.674 103.059 412.674Z" fill="#CA001D"/>
<path d="M103.059 378.265C105.89 378.265 108.185 370.562 108.185 361.061C108.185 351.559 105.89 343.856 103.059 343.856C100.228 343.856 97.9326 351.559 97.9326 361.061C97.9326 370.562 100.228 378.265 103.059 378.265Z" fill="#CA001D"/>
<path d="M103.059 343.933C105.89 343.933 108.185 336.23 108.185 326.729C108.185 317.227 105.89 309.524 103.059 309.524C100.228 309.524 97.9326 317.227 97.9326 326.729C97.9326 336.23 100.228 343.933 103.059 343.933Z" fill="#CA001D"/>
<path d="M103.059 309.602C105.89 309.602 108.185 301.899 108.185 292.398C108.185 282.896 105.89 275.193 103.059 275.193C100.228 275.193 97.9326 282.896 97.9326 292.398C97.9326 301.899 100.228 309.602 103.059 309.602Z" fill="#CA001D"/>
<path d="M103.059 275.269C105.89 275.269 108.185 267.566 108.185 258.065C108.185 248.563 105.89 240.86 103.059 240.86C100.228 240.86 97.9326 248.563 97.9326 258.065C97.9326 267.566 100.228 275.269 103.059 275.269Z" fill="#CA001D"/>
<path d="M103.059 240.861C105.89 240.861 108.185 233.158 108.185 223.657C108.185 214.155 105.89 206.452 103.059 206.452C100.228 206.452 97.9326 214.155 97.9326 223.657C97.9326 233.158 100.228 240.861 103.059 240.861Z" fill="#CA001D"/>
<path d="M103.059 206.529C105.89 206.529 108.185 198.826 108.185 189.324C108.185 179.823 105.89 172.12 103.059 172.12C100.228 172.12 97.9326 179.823 97.9326 189.324C97.9326 198.826 100.228 206.529 103.059 206.529Z" fill="#CA001D"/>
<path d="M103.059 172.197C105.89 172.197 108.185 164.494 108.185 154.992C108.185 145.491 105.89 137.788 103.059 137.788C100.228 137.788 97.9326 145.491 97.9326 154.992C97.9326 164.494 100.228 172.197 103.059 172.197Z" fill="#CA001D"/>
<path d="M103.059 137.789C105.89 137.789 108.185 130.086 108.185 120.584C108.185 111.083 105.89 103.38 103.059 103.38C100.228 103.38 97.9326 111.083 97.9326 120.584C97.9326 130.086 100.228 137.789 103.059 137.789Z" fill="#CA001D"/>
<path d="M103.059 103.456C105.89 103.456 108.185 95.7529 108.185 86.2512C108.185 76.7495 105.89 69.0469 103.059 69.0469C100.228 69.0469 97.9326 76.7495 97.9326 86.2512C97.9326 95.7529 100.228 103.456 103.059 103.456Z" fill="#CA001D"/>
</g>
<defs>
<clipPath id="clip0_1234_59838">
<rect width="206.041" height="584.794" fill="white"/>
</clipPath>
</defs>
</svg>
