<svg width="210" height="211" viewBox="0 0 210 211" fill="none" xmlns="http://www.w3.org/2000/svg">
<g clip-path="url(#clip0_1397_36301)">
<path d="M36.4636 89.0411C51.0295 89.0411 94.2341 96.5923 94.2341 105.931C94.2341 115.269 51.0295 122.865 36.4636 122.865C21.8977 122.865 14.8615 115.269 14.8615 105.931C14.8615 96.5923 22.0322 89.0411 36.4636 89.0411Z" fill="#FFDCB6"/>
<path d="M44.4413 142.076C54.7494 131.8 90.6937 106.69 97.2819 113.302C103.87 119.915 78.727 155.704 68.4637 165.98C58.2004 176.257 47.8027 175.855 41.1696 169.243C34.5366 162.63 34.1779 152.308 44.4413 142.076Z" fill="#FFDCB6"/>
<path d="M87.6914 173.934C87.6914 159.413 95.3101 116.34 104.677 116.34C114.044 116.34 121.618 159.413 121.618 173.934C121.618 188.455 114.044 195.47 104.677 195.47C95.3101 195.47 87.6914 188.455 87.6914 173.934Z" fill="#FFDCB6"/>
<path d="M140.89 165.98C130.626 155.704 105.438 119.915 112.026 113.302C118.615 106.69 154.604 131.8 164.912 142.076C175.22 152.353 174.817 162.63 168.184 169.243C161.55 175.855 151.198 176.257 140.89 165.98Z" fill="#FFDCB6"/>
<path d="M172.89 122.865C158.324 122.865 115.075 115.269 115.075 105.931C115.075 96.5923 158.324 89.0411 172.89 89.0411C187.456 89.0411 194.492 96.5923 194.492 105.931C194.492 115.269 187.411 122.865 172.89 122.865Z" fill="#FFDCB6"/>
<path d="M164.913 69.828C154.604 80.1045 118.66 105.215 112.027 98.602C105.394 91.9893 130.627 56.1553 140.89 45.9234C151.153 35.6916 161.551 36.049 168.184 42.6171C174.817 49.1851 175.176 59.5514 164.913 69.828Z" fill="#FFDCB6"/>
<path d="M121.618 37.971C121.618 52.4475 114.044 95.5638 104.677 95.5638C95.3101 95.5638 87.6914 52.4475 87.6914 37.971C87.6914 23.4945 95.3101 16.4347 104.677 16.4347C114.044 16.4347 121.618 23.4498 121.618 37.971Z" fill="#FFDCB6"/>
<path d="M68.4639 45.9238C78.7272 56.1557 103.915 91.9897 97.2821 98.6024C90.649 105.215 54.7496 80.1049 44.4414 69.8284C34.1333 59.5518 34.5367 49.2302 41.1698 42.6175C47.8029 36.0048 58.1557 35.6473 68.4639 45.9238Z" fill="#FFDCB6"/>
<path d="M104.676 126.929C116.285 126.929 125.696 117.547 125.696 105.974C125.696 94.4008 116.285 85.0188 104.676 85.0188C93.0676 85.0188 83.6567 94.4008 83.6567 105.974C83.6567 117.547 93.0676 126.929 104.676 126.929Z" fill="#A03D12"/>
</g>
<defs>
<clipPath id="clip0_1397_36301">
<rect width="179.631" height="179.08" fill="white" transform="translate(14.8615 16.4347)"/>
</clipPath>
</defs>
</svg>
