<svg width="210" height="210" viewBox="0 0 210 210" fill="none" xmlns="http://www.w3.org/2000/svg">
<g clip-path="url(#clip0_1374_32945)">
<path d="M85.8558 135.597C85.611 135.6 85.3682 135.554 85.1412 135.463C84.9141 135.371 84.7075 135.236 84.5333 135.064C84.3592 134.892 84.221 134.688 84.1267 134.462C84.0323 134.237 83.9837 133.995 83.9837 133.75V122.355C83.9547 122.094 83.9812 121.83 84.0615 121.579C84.1417 121.329 84.2738 121.098 84.4494 120.903C84.625 120.707 84.84 120.55 85.0804 120.443C85.3208 120.336 85.5811 120.28 85.8443 120.28C86.1076 120.28 86.3679 120.336 86.6083 120.443C86.8486 120.55 87.0637 120.707 87.2393 120.903C87.4149 121.098 87.5472 121.329 87.6275 121.579C87.7078 121.83 87.7343 122.094 87.7052 122.355V133.75C87.7052 133.993 87.6574 134.233 87.5645 134.457C87.4716 134.681 87.3352 134.884 87.1634 135.056C86.9917 135.227 86.788 135.363 86.5637 135.456C86.3393 135.549 86.0986 135.597 85.8558 135.597V135.597Z" fill="#B2001A"/>
<path d="M97.1803 135.596H85.7646C85.5029 135.625 85.238 135.599 84.9873 135.519C84.7365 135.439 84.5054 135.307 84.3092 135.131C84.113 134.956 83.9562 134.741 83.8488 134.502C83.7413 134.262 83.6857 134.002 83.6857 133.739C83.6857 133.476 83.7413 133.216 83.8488 132.976C83.9562 132.736 84.113 132.522 84.3092 132.347C84.5054 132.171 84.7365 132.039 84.9873 131.959C85.238 131.879 85.5029 131.853 85.7646 131.882H97.1803C97.442 131.853 97.7066 131.879 97.9574 131.959C98.2081 132.039 98.4393 132.171 98.6355 132.347C98.8316 132.522 98.9885 132.736 99.0959 132.976C99.2033 133.216 99.2589 133.476 99.2589 133.739C99.2589 134.002 99.2033 134.262 99.0959 134.502C98.9885 134.741 98.8316 134.956 98.6355 135.131C98.4393 135.307 98.2081 135.439 97.9574 135.519C97.7066 135.599 97.442 135.625 97.1803 135.596V135.596Z" fill="#B2001A"/>
<path d="M97.1801 146.924C96.6835 146.924 96.2073 146.727 95.8562 146.377C95.5051 146.026 95.3077 145.551 95.3077 145.055V133.66C95.3077 133.164 95.5051 132.689 95.8562 132.338C96.2073 131.988 96.6835 131.791 97.1801 131.791C97.6766 131.791 98.1525 131.988 98.5036 132.338C98.8548 132.689 99.0521 133.164 99.0521 133.66V145.055C99.0521 145.551 98.8548 146.026 98.5036 146.377C98.1525 146.727 97.6766 146.924 97.1801 146.924V146.924Z" fill="#B2001A"/>
<path d="M108.528 146.924H97.1119C96.6154 146.924 96.1392 146.727 95.7881 146.377C95.437 146.026 95.2396 145.551 95.2396 145.055C95.2396 144.56 95.437 144.084 95.7881 143.734C96.1392 143.383 96.6154 143.187 97.1119 143.187H108.528C109.024 143.187 109.5 143.383 109.852 143.734C110.203 144.084 110.4 144.56 110.4 145.055C110.4 145.551 110.203 146.026 109.852 146.377C109.5 146.727 109.024 146.924 108.528 146.924V146.924Z" fill="#B2001A"/>
<path d="M108.527 158.228C108.282 158.231 108.039 158.186 107.812 158.094C107.585 158.003 107.379 157.868 107.204 157.696C107.03 157.524 106.892 157.32 106.798 157.094C106.703 156.869 106.655 156.627 106.655 156.382V144.987C106.626 144.726 106.652 144.461 106.732 144.211C106.813 143.961 106.945 143.73 107.121 143.534C107.296 143.339 107.511 143.182 107.752 143.075C107.992 142.967 108.252 142.912 108.516 142.912C108.779 142.912 109.039 142.967 109.279 143.075C109.52 143.182 109.735 143.339 109.91 143.534C110.086 143.73 110.218 143.961 110.298 144.211C110.379 144.461 110.405 144.726 110.376 144.987V156.382C110.376 156.872 110.181 157.341 109.835 157.688C109.488 158.034 109.017 158.228 108.527 158.228V158.228Z" fill="#B2001A"/>
<path d="M107.021 135.597C106.528 135.597 106.056 135.403 105.705 135.057C105.355 134.712 105.155 134.242 105.149 133.751V122.355C105.149 121.86 105.346 121.384 105.697 121.034C106.048 120.683 106.524 120.486 107.021 120.486C107.518 120.486 107.994 120.683 108.345 121.034C108.696 121.384 108.893 121.86 108.893 122.355V133.751C108.887 134.242 108.687 134.712 108.337 135.057C107.986 135.403 107.514 135.597 107.021 135.597V135.597Z" fill="#B2001A"/>
<path d="M118.345 135.596H106.93C106.668 135.625 106.403 135.599 106.153 135.519C105.902 135.439 105.671 135.307 105.475 135.131C105.278 134.956 105.122 134.741 105.014 134.502C104.907 134.262 104.851 134.002 104.851 133.739C104.851 133.476 104.907 133.216 105.014 132.976C105.122 132.736 105.278 132.522 105.475 132.347C105.671 132.171 105.902 132.039 106.153 131.959C106.403 131.879 106.668 131.853 106.93 131.882H118.345C118.607 131.853 118.872 131.879 119.123 131.959C119.373 132.039 119.604 132.171 119.801 132.347C119.997 132.522 120.154 132.736 120.261 132.976C120.369 133.216 120.424 133.476 120.424 133.739C120.424 134.002 120.369 134.262 120.261 134.502C120.154 134.741 119.997 134.956 119.801 135.131C119.604 135.307 119.373 135.439 119.123 135.519C118.872 135.599 118.607 135.625 118.345 135.596V135.596Z" fill="#B2001A"/>
<path d="M118.345 146.924C117.849 146.924 117.372 146.727 117.021 146.377C116.67 146.026 116.473 145.551 116.473 145.055V133.66C116.473 133.164 116.67 132.689 117.021 132.338C117.372 131.988 117.849 131.791 118.345 131.791C118.842 131.791 119.318 131.988 119.669 132.338C120.02 132.689 120.217 133.164 120.217 133.66V145.055C120.217 145.551 120.02 146.026 119.669 146.377C119.318 146.727 118.842 146.924 118.345 146.924V146.924Z" fill="#B2001A"/>
<path d="M129.693 146.924H118.277C117.781 146.924 117.305 146.727 116.953 146.377C116.602 146.026 116.405 145.551 116.405 145.055C116.405 144.56 116.602 144.084 116.953 143.734C117.305 143.383 117.781 143.187 118.277 143.187H129.693C130.19 143.187 130.666 143.383 131.017 143.734C131.368 144.084 131.565 144.56 131.565 145.055C131.565 145.551 131.368 146.026 131.017 146.377C130.666 146.727 130.19 146.924 129.693 146.924V146.924Z" fill="#B2001A"/>
<path d="M129.692 158.227C129.2 158.227 128.727 158.034 128.376 157.688C128.026 157.343 127.826 156.873 127.82 156.381V144.986C127.82 144.49 128.017 144.015 128.368 143.665C128.719 143.314 129.196 143.117 129.692 143.117C130.189 143.117 130.665 143.314 131.016 143.665C131.367 144.015 131.564 144.49 131.564 144.986V156.381C131.558 156.873 131.358 157.343 131.008 157.688C130.657 158.034 130.185 158.227 129.692 158.227Z" fill="#B2001A"/>
<path d="M128.185 135.597C127.693 135.597 127.22 135.403 126.87 135.057C126.519 134.712 126.319 134.242 126.313 133.751V122.355C126.313 121.86 126.51 121.384 126.861 121.034C127.213 120.683 127.689 120.486 128.185 120.486C128.682 120.486 129.158 120.683 129.509 121.034C129.86 121.384 130.057 121.86 130.057 122.355V133.751C130.051 134.242 129.852 134.712 129.501 135.057C129.151 135.403 128.678 135.597 128.185 135.597Z" fill="#B2001A"/>
<path d="M139.532 135.596H128.116C127.855 135.625 127.59 135.599 127.339 135.519C127.088 135.439 126.857 135.307 126.661 135.131C126.465 134.956 126.308 134.741 126.201 134.502C126.093 134.262 126.038 134.002 126.038 133.739C126.038 133.476 126.093 133.216 126.201 132.976C126.308 132.736 126.465 132.522 126.661 132.347C126.857 132.171 127.088 132.039 127.339 131.959C127.59 131.879 127.855 131.853 128.116 131.882H139.532C139.99 131.932 140.413 132.15 140.721 132.492C141.028 132.835 141.198 133.279 141.198 133.739C141.198 134.199 141.028 134.643 140.721 134.985C140.413 135.328 139.99 135.546 139.532 135.596V135.596Z" fill="#B2001A"/>
<path d="M139.533 146.924C139.037 146.924 138.56 146.727 138.209 146.377C137.858 146.026 137.661 145.551 137.661 145.055V133.66C137.632 133.399 137.659 133.134 137.739 132.884C137.819 132.634 137.951 132.403 138.127 132.207C138.302 132.012 138.517 131.855 138.758 131.748C138.998 131.64 139.258 131.585 139.522 131.585C139.785 131.585 140.045 131.64 140.286 131.748C140.526 131.855 140.741 132.012 140.917 132.207C141.092 132.403 141.225 132.634 141.305 132.884C141.385 133.134 141.412 133.399 141.383 133.66V145.055C141.383 145.547 141.188 146.019 140.842 146.369C140.496 146.719 140.026 146.918 139.533 146.924Z" fill="#B2001A"/>
<path d="M150.857 146.924H139.441C138.944 146.924 138.468 146.727 138.117 146.377C137.766 146.026 137.569 145.551 137.569 145.055C137.569 144.56 137.766 144.084 138.117 143.734C138.468 143.383 138.944 143.187 139.441 143.187H150.857C151.353 143.187 151.83 143.383 152.181 143.734C152.532 144.084 152.729 144.56 152.729 145.055C152.729 145.551 152.532 146.026 152.181 146.377C151.83 146.727 151.353 146.924 150.857 146.924V146.924Z" fill="#B2001A"/>
<path d="M150.857 158.227C150.365 158.227 149.892 158.034 149.541 157.688C149.191 157.343 148.991 156.873 148.985 156.381V144.986C148.985 144.49 149.182 144.015 149.533 143.665C149.884 143.314 150.361 143.117 150.857 143.117C151.354 143.117 151.83 143.314 152.181 143.665C152.532 144.015 152.73 144.49 152.73 144.986V156.381C152.724 156.873 152.524 157.343 152.173 157.688C151.823 158.034 151.35 158.227 150.857 158.227V158.227Z" fill="#B2001A"/>
<path d="M149.351 135.597C148.858 135.597 148.385 135.403 148.035 135.057C147.684 134.712 147.484 134.242 147.478 133.751V122.355C147.478 121.86 147.676 121.384 148.027 121.034C148.378 120.683 148.854 120.486 149.351 120.486C149.847 120.486 150.323 120.683 150.675 121.034C151.026 121.384 151.223 121.86 151.223 122.355V133.751C151.217 134.242 151.017 134.712 150.666 135.057C150.316 135.403 149.843 135.597 149.351 135.597V135.597Z" fill="#B2001A"/>
<path d="M160.698 135.596H149.282C149.02 135.625 148.755 135.599 148.504 135.519C148.254 135.439 148.023 135.307 147.827 135.131C147.63 134.956 147.474 134.741 147.366 134.502C147.259 134.262 147.203 134.002 147.203 133.739C147.203 133.476 147.259 133.216 147.366 132.976C147.474 132.736 147.63 132.522 147.827 132.347C148.023 132.171 148.254 132.039 148.504 131.959C148.755 131.879 149.02 131.853 149.282 131.882H160.698C161.156 131.932 161.579 132.15 161.886 132.492C162.193 132.835 162.363 133.279 162.363 133.739C162.363 134.199 162.193 134.643 161.886 134.985C161.579 135.328 161.156 135.546 160.698 135.596V135.596Z" fill="#B2001A"/>
<path d="M149.35 124.292H137.934C137.438 124.292 136.962 124.095 136.611 123.745C136.259 123.394 136.062 122.919 136.062 122.424C136.062 121.928 136.259 121.453 136.611 121.102C136.962 120.752 137.438 120.555 137.934 120.555H149.35C149.847 120.555 150.323 120.752 150.674 121.102C151.025 121.453 151.222 121.928 151.222 122.424C151.222 122.919 151.025 123.394 150.674 123.745C150.323 124.095 149.847 124.292 149.35 124.292V124.292Z" fill="#B2001A"/>
<path d="M160.697 146.924C160.201 146.924 159.725 146.727 159.373 146.377C159.022 146.026 158.825 145.551 158.825 145.055V133.66C158.796 133.399 158.822 133.134 158.903 132.884C158.983 132.634 159.115 132.403 159.291 132.207C159.467 132.012 159.682 131.855 159.922 131.748C160.162 131.64 160.423 131.585 160.686 131.585C160.949 131.585 161.209 131.64 161.45 131.748C161.69 131.855 161.905 132.012 162.081 132.207C162.256 132.403 162.389 132.634 162.469 132.884C162.549 133.134 162.576 133.399 162.546 133.66V145.055C162.547 145.547 162.353 146.019 162.006 146.369C161.66 146.719 161.19 146.918 160.697 146.924V146.924Z" fill="#B2001A"/>
<path d="M172.022 146.924H160.606C160.11 146.924 159.634 146.727 159.282 146.377C158.931 146.026 158.734 145.551 158.734 145.055C158.734 144.56 158.931 144.084 159.282 143.734C159.634 143.383 160.11 143.187 160.606 143.187H172.022C172.519 143.187 172.995 143.383 173.346 143.734C173.697 144.084 173.894 144.56 173.894 145.055C173.894 145.551 173.697 146.026 173.346 146.377C172.995 146.727 172.519 146.924 172.022 146.924V146.924Z" fill="#B2001A"/>
<path d="M172.021 158.227C171.529 158.227 171.056 158.034 170.706 157.688C170.355 157.343 170.155 156.873 170.149 156.381V144.986C170.149 144.49 170.346 144.015 170.697 143.665C171.049 143.314 171.525 143.117 172.021 143.117C172.518 143.117 172.994 143.314 173.345 143.665C173.696 144.015 173.894 144.49 173.894 144.986V156.381C173.888 156.873 173.688 157.343 173.337 157.688C172.987 158.034 172.514 158.227 172.021 158.227V158.227Z" fill="#B2001A"/>
<path d="M153.963 85.0922H142.547C142.051 85.0922 141.574 84.8953 141.223 84.5448C140.872 84.1944 140.675 83.719 140.675 83.2233C140.675 82.7277 140.872 82.2523 141.223 81.9019C141.574 81.5514 142.051 81.3545 142.547 81.3545H153.963C154.459 81.3545 154.936 81.5514 155.287 81.9019C155.638 82.2523 155.835 82.7277 155.835 83.2233C155.835 83.719 155.638 84.1944 155.287 84.5448C154.936 84.8953 154.459 85.0922 153.963 85.0922V85.0922Z" fill="#B2001A"/>
<path d="M165.309 96.3962H153.893C153.435 96.3455 153.012 96.128 152.705 95.7853C152.397 95.4426 152.227 94.9987 152.227 94.5388C152.227 94.0788 152.397 93.635 152.705 93.2923C153.012 92.9495 153.435 92.732 153.893 92.6813H165.309C165.571 92.6523 165.835 92.6788 166.086 92.7589C166.337 92.8391 166.568 92.971 166.764 93.1463C166.96 93.3216 167.117 93.5363 167.224 93.7762C167.332 94.0161 167.387 94.276 167.387 94.5388C167.387 94.8016 167.332 95.0614 167.224 95.3013C167.117 95.5413 166.96 95.7559 166.764 95.9312C166.568 96.1065 166.337 96.2385 166.086 96.3186C165.835 96.3987 165.571 96.4252 165.309 96.3962V96.3962Z" fill="#B2001A"/>
<path d="M153.962 96.3967C153.717 96.3967 153.475 96.3483 153.249 96.2541C153.023 96.1599 152.818 96.0219 152.646 95.848C152.474 95.6742 152.338 95.4679 152.247 95.2413C152.155 95.0147 152.109 94.7722 152.112 94.5278V83.1325C152.083 82.8713 152.11 82.607 152.19 82.3567C152.271 82.1064 152.403 81.8758 152.578 81.68C152.754 81.4842 152.969 81.3276 153.209 81.2204C153.45 81.1131 153.71 81.0576 153.973 81.0576C154.237 81.0576 154.497 81.1131 154.737 81.2204C154.978 81.3276 155.192 81.4842 155.368 81.68C155.544 81.8758 155.676 82.1064 155.756 82.3567C155.837 82.607 155.863 82.8713 155.834 83.1325V94.5278C155.837 94.7741 155.791 95.0186 155.698 95.2467C155.605 95.4748 155.467 95.682 155.293 95.8561C155.118 96.0303 154.91 96.1678 154.682 96.2606C154.453 96.3535 154.209 96.3997 153.962 96.3967V96.3967Z" fill="#B2001A"/>
<path d="M153.963 107.154H142.547C142.051 107.154 141.574 106.957 141.223 106.606C140.872 106.256 140.675 105.781 140.675 105.285C140.675 104.789 140.872 104.314 141.223 103.963C141.574 103.613 142.051 103.416 142.547 103.416H153.963C154.459 103.416 154.936 103.613 155.287 103.963C155.638 104.314 155.835 104.789 155.835 105.285C155.835 105.781 155.638 106.256 155.287 106.606C154.936 106.957 154.459 107.154 153.963 107.154V107.154Z" fill="#B2001A"/>
<path d="M165.309 118.459H153.893C153.435 118.408 153.012 118.19 152.705 117.848C152.397 117.505 152.227 117.061 152.227 116.601C152.227 116.141 152.397 115.698 152.705 115.355C153.012 115.012 153.435 114.795 153.893 114.744H165.309C165.571 114.715 165.835 114.741 166.086 114.821C166.337 114.902 166.568 115.034 166.764 115.209C166.96 115.384 167.117 115.599 167.224 115.839C167.332 116.079 167.387 116.338 167.387 116.601C167.387 116.864 167.332 117.124 167.224 117.364C167.117 117.604 166.96 117.818 166.764 117.994C166.568 118.169 166.337 118.301 166.086 118.381C165.835 118.461 165.571 118.488 165.309 118.459V118.459Z" fill="#B2001A"/>
<path d="M153.962 118.458C153.717 118.458 153.475 118.41 153.249 118.316C153.023 118.221 152.818 118.083 152.646 117.91C152.474 117.736 152.338 117.529 152.247 117.303C152.155 117.076 152.109 116.834 152.112 116.589V105.194C152.083 104.933 152.11 104.669 152.19 104.418C152.271 104.168 152.403 103.937 152.578 103.741C152.754 103.546 152.969 103.389 153.209 103.282C153.45 103.175 153.71 103.119 153.973 103.119C154.237 103.119 154.497 103.175 154.737 103.282C154.978 103.389 155.192 103.546 155.368 103.741C155.544 103.937 155.676 104.168 155.756 104.418C155.837 104.669 155.863 104.933 155.834 105.194V116.589C155.837 116.836 155.791 117.08 155.698 117.308C155.605 117.536 155.467 117.743 155.293 117.918C155.118 118.092 154.91 118.229 154.682 118.322C154.453 118.415 154.209 118.461 153.962 118.458V118.458Z" fill="#B2001A"/>
<path d="M166.109 75.1101H151.223C150.765 75.0594 150.342 74.8418 150.034 74.4991C149.727 74.1564 149.557 73.7126 149.557 73.2526C149.557 72.7927 149.727 72.3488 150.034 72.0061C150.342 71.6634 150.765 71.4459 151.223 71.3952H166.109C166.371 71.3662 166.635 71.3927 166.886 71.4728C167.137 71.5529 167.368 71.6849 167.564 71.8602C167.76 72.0355 167.917 72.2501 168.024 72.4901C168.132 72.73 168.187 72.9898 168.187 73.2526C168.187 73.5154 168.132 73.7753 168.024 74.0152C167.917 74.2551 167.76 74.4698 167.564 74.645C167.368 74.8203 167.137 74.9523 166.886 75.0324C166.635 75.1126 166.371 75.139 166.109 75.1101V75.1101Z" fill="#B2001A"/>
<path d="M177.456 86.4369H166.041C165.544 86.4369 165.068 86.24 164.717 85.8896C164.366 85.5391 164.169 85.0637 164.169 84.5681C164.169 84.0724 164.366 83.5971 164.717 83.2466C165.068 82.8961 165.544 82.6992 166.041 82.6992H177.456C177.953 82.6992 178.429 82.8961 178.78 83.2466C179.131 83.5971 179.329 84.0724 179.329 84.5681C179.329 85.0637 179.131 85.5391 178.78 85.8896C178.429 86.24 177.953 86.4369 177.456 86.4369V86.4369Z" fill="#B2001A"/>
<path d="M166.109 86.4377C165.612 86.4377 165.136 86.2408 164.785 85.8904C164.434 85.5399 164.237 85.0645 164.237 84.5689V73.1735C164.237 72.6779 164.434 72.2025 164.785 71.8521C165.136 71.5016 165.612 71.3047 166.109 71.3047C166.605 71.3047 167.081 71.5016 167.433 71.8521C167.784 72.2025 167.981 72.6779 167.981 73.1735V84.5689C167.981 85.0645 167.784 85.5399 167.433 85.8904C167.081 86.2408 166.605 86.4377 166.109 86.4377V86.4377Z" fill="#B2001A"/>
<path d="M159.967 66.837C159.721 66.8371 159.477 66.7888 159.25 66.695C159.023 66.6011 158.817 66.4636 158.643 66.2901L139.51 47.1686C139.162 46.8211 138.966 46.3497 138.966 45.8582C138.966 45.3666 139.162 44.8952 139.51 44.5477C139.858 44.2001 140.33 44.0049 140.823 44.0049C141.315 44.0049 141.787 44.2001 142.135 44.5477L161.291 63.6463C161.553 63.9076 161.732 64.2407 161.804 64.6033C161.876 64.9659 161.839 65.3419 161.697 65.6834C161.555 66.025 161.315 66.3169 161.007 66.5222C160.699 66.7276 160.337 66.8372 159.967 66.837V66.837Z" fill="#B2001A"/>
<path d="M140.811 66.8371C140.322 66.8338 139.854 66.6372 139.51 66.2902C139.336 66.1166 139.198 65.9105 139.104 65.6837C139.01 65.4569 138.961 65.2138 138.961 64.9683C138.961 64.7228 139.01 64.4797 139.104 64.2529C139.198 64.0261 139.336 63.8199 139.51 63.6464L158.643 44.5478C158.817 44.3741 159.023 44.2364 159.25 44.1424C159.477 44.0485 159.721 44 159.967 44C160.213 44 160.456 44.0485 160.684 44.1424C160.911 44.2364 161.117 44.3741 161.291 44.5478C161.464 44.7194 161.602 44.9235 161.696 45.1484C161.79 45.3734 161.838 45.6146 161.838 45.8583C161.838 46.1019 161.79 46.3432 161.696 46.5681C161.602 46.793 161.464 46.9972 161.291 47.1688L142.136 66.2902C141.962 66.4637 141.755 66.6013 141.528 66.6951C141.301 66.789 141.057 66.8372 140.811 66.8371V66.8371Z" fill="#B2001A"/>
<path d="M194.077 66.837C193.831 66.8371 193.587 66.7888 193.36 66.695C193.133 66.6011 192.926 66.4636 192.752 66.2901L173.62 47.1686C173.447 46.9966 173.31 46.7923 173.217 46.5674C173.124 46.3426 173.076 46.1015 173.076 45.8582C173.076 45.6148 173.124 45.3739 173.217 45.149C173.31 44.9242 173.447 44.7198 173.62 44.5477C173.792 44.3756 173.997 44.2391 174.222 44.1459C174.447 44.0528 174.689 44.0049 174.932 44.0049C175.176 44.0049 175.417 44.0528 175.643 44.1459C175.868 44.2391 176.073 44.3756 176.245 44.5477L195.401 63.6463C195.663 63.9076 195.841 64.2407 195.914 64.6033C195.986 64.9659 195.949 65.3419 195.807 65.6834C195.665 66.025 195.425 66.3169 195.117 66.5222C194.809 66.7276 194.447 66.8372 194.077 66.837V66.837Z" fill="#B2001A"/>
<path d="M174.898 66.8371C174.409 66.8338 173.941 66.6372 173.597 66.2902C173.423 66.1166 173.285 65.9105 173.191 65.6837C173.097 65.4569 173.048 65.2138 173.048 64.9683C173.048 64.7228 173.097 64.4797 173.191 64.2529C173.285 64.0261 173.423 63.8199 173.597 63.6464L192.73 44.5478C192.904 44.3741 193.11 44.2364 193.337 44.1424C193.564 44.0485 193.808 44 194.054 44C194.3 44 194.543 44.0485 194.771 44.1424C194.998 44.2364 195.204 44.3741 195.378 44.5478C195.551 44.7194 195.689 44.9235 195.783 45.1484C195.876 45.3734 195.925 45.6146 195.925 45.8583C195.925 46.1019 195.876 46.3432 195.783 46.5681C195.689 46.793 195.551 46.9972 195.378 47.1688L176.223 66.2902C176.049 66.4637 175.842 66.6013 175.615 66.6951C175.387 66.789 175.144 66.8372 174.898 66.8371V66.8371Z" fill="#B2001A"/>
<path d="M202.959 94.9613C202.713 94.9614 202.469 94.9132 202.242 94.8194C202.015 94.7255 201.808 94.5878 201.635 94.4143L181.725 74.5409C181.374 74.1903 181.177 73.7148 181.177 73.219C181.177 72.7232 181.374 72.2477 181.725 71.8971C182.076 71.5465 182.553 71.3496 183.05 71.3496C183.546 71.3496 184.023 71.5465 184.374 71.8971L204.283 91.7707C204.545 92.032 204.723 92.3651 204.796 92.7277C204.868 93.0903 204.831 93.4662 204.689 93.8078C204.547 94.1494 204.307 94.4413 203.999 94.6466C203.691 94.852 203.329 94.9614 202.959 94.9613V94.9613Z" fill="#B2001A"/>
<path d="M105.035 181.656C104.538 181.656 104.062 181.46 103.711 181.109C103.36 180.759 103.163 180.283 103.163 179.788V156.45C103.163 155.954 103.36 155.479 103.711 155.128C104.062 154.778 104.538 154.581 105.035 154.581C105.531 154.581 106.007 154.778 106.358 155.128C106.71 155.479 106.907 155.954 106.907 156.45V179.788C106.907 180.283 106.71 180.759 106.358 181.109C106.007 181.46 105.531 181.656 105.035 181.656V181.656Z" fill="#B2001A"/>
<path d="M92.6142 177.919C92.3683 177.919 92.1246 177.871 91.8974 177.777C91.6702 177.683 91.4637 177.546 91.2898 177.372C91.1165 177.2 90.979 176.996 90.8851 176.771C90.7913 176.546 90.743 176.305 90.743 176.062C90.743 175.818 90.7913 175.577 90.8851 175.352C90.979 175.127 91.1165 174.923 91.2898 174.751L103.596 162.444C103.947 162.094 104.423 161.896 104.92 161.896C105.417 161.896 105.893 162.094 106.245 162.444C106.596 162.795 106.793 163.27 106.793 163.766C106.793 164.262 106.596 164.737 106.245 165.088L93.9383 177.372C93.7644 177.546 93.558 177.683 93.3308 177.777C93.1035 177.871 92.8601 177.919 92.6142 177.919V177.919Z" fill="#B2001A"/>
<path d="M117.249 177.919C117.003 177.919 116.76 177.871 116.533 177.777C116.306 177.683 116.099 177.546 115.925 177.372L103.596 165.088C103.245 164.737 103.048 164.262 103.048 163.766C103.048 163.27 103.245 162.795 103.596 162.444C103.947 162.094 104.424 161.896 104.92 161.896C105.417 161.896 105.893 162.094 106.245 162.444L118.551 174.751C118.724 174.923 118.861 175.127 118.955 175.352C119.049 175.577 119.098 175.818 119.098 176.062C119.098 176.305 119.049 176.546 118.955 176.771C118.861 176.996 118.724 177.2 118.551 177.372C118.383 177.547 118.181 177.686 117.957 177.78C117.733 177.874 117.492 177.921 117.249 177.919V177.919Z" fill="#B2001A"/>
<path d="M172.021 181.656C171.529 181.65 171.058 181.451 170.712 181.101C170.366 180.751 170.172 180.279 170.172 179.788V156.45C170.143 156.189 170.169 155.924 170.25 155.674C170.33 155.424 170.462 155.193 170.638 154.997C170.813 154.802 171.028 154.645 171.269 154.538C171.509 154.431 171.769 154.375 172.033 154.375C172.296 154.375 172.556 154.431 172.797 154.538C173.037 154.645 173.252 154.802 173.428 154.997C173.603 155.193 173.736 155.424 173.816 155.674C173.896 155.924 173.923 156.189 173.894 156.45V179.788C173.894 180.283 173.696 180.759 173.345 181.109C172.994 181.46 172.518 181.656 172.021 181.656V181.656Z" fill="#B2001A"/>
<path d="M159.83 177.919C159.584 177.919 159.341 177.871 159.114 177.777C158.887 177.683 158.68 177.546 158.506 177.372C158.333 177.2 158.195 176.996 158.101 176.771C158.008 176.546 157.959 176.305 157.959 176.062C157.959 175.818 158.008 175.577 158.101 175.352C158.195 175.127 158.333 174.923 158.506 174.751L170.812 162.444C170.986 162.271 171.192 162.133 171.42 162.039C171.647 161.945 171.891 161.896 172.137 161.896C172.382 161.896 172.626 161.945 172.853 162.039C173.08 162.133 173.287 162.271 173.461 162.444C173.635 162.618 173.773 162.824 173.867 163.05C173.961 163.277 174.009 163.52 174.009 163.766C174.009 164.011 173.961 164.254 173.867 164.481C173.773 164.708 173.635 164.914 173.461 165.088L161.154 177.372C160.98 177.546 160.774 177.683 160.547 177.777C160.32 177.871 160.076 177.919 159.83 177.919V177.919Z" fill="#B2001A"/>
<path d="M184.351 177.919C184.105 177.919 183.861 177.871 183.634 177.777C183.407 177.683 183.201 177.546 183.027 177.372L170.698 165.088C170.357 164.732 170.167 164.258 170.167 163.766C170.167 163.274 170.357 162.8 170.698 162.444C170.871 162.271 171.078 162.133 171.305 162.039C171.532 161.945 171.776 161.896 172.022 161.896C172.268 161.896 172.511 161.945 172.739 162.039C172.966 162.133 173.172 162.271 173.346 162.444L185.675 174.751C185.848 174.923 185.986 175.127 186.08 175.352C186.173 175.577 186.222 175.818 186.222 176.062C186.222 176.305 186.173 176.547 186.08 176.771C185.986 176.996 185.848 177.201 185.675 177.372C185.501 177.546 185.295 177.683 185.067 177.777C184.84 177.871 184.597 177.919 184.351 177.919V177.919Z" fill="#B2001A"/>
<path d="M136.496 124.36C136.25 124.361 136.007 124.312 135.78 124.218C135.552 124.125 135.346 123.987 135.172 123.814L107.911 96.6015C107.56 96.2509 107.363 95.7754 107.363 95.2796C107.363 94.7838 107.56 94.3082 107.911 93.9577C108.262 93.6071 108.738 93.4102 109.235 93.4102C109.732 93.4102 110.208 93.6071 110.56 93.9577L137.82 121.079C138.082 121.34 138.261 121.673 138.333 122.036C138.405 122.398 138.368 122.774 138.227 123.116C138.085 123.457 137.845 123.749 137.537 123.955C137.229 124.16 136.867 124.27 136.496 124.269V124.36Z" fill="#B2001A"/>
<path d="M128.482 116.384C127.989 116.378 127.519 116.178 127.173 115.828C126.827 115.479 126.632 115.007 126.632 114.515V97.1256C126.603 96.8644 126.63 96.6 126.71 96.3497C126.79 96.0994 126.923 95.8689 127.098 95.6731C127.274 95.4773 127.489 95.3206 127.729 95.2134C127.97 95.1062 128.23 95.0508 128.493 95.0508C128.757 95.0508 129.017 95.1062 129.257 95.2134C129.498 95.3206 129.713 95.4773 129.888 95.6731C130.064 95.8689 130.196 96.0994 130.276 96.3497C130.356 96.6 130.383 96.8644 130.354 97.1256V114.515C130.354 114.76 130.306 115.003 130.211 115.23C130.117 115.457 129.98 115.663 129.806 115.836C129.632 116.01 129.425 116.148 129.198 116.241C128.971 116.335 128.728 116.384 128.482 116.384V116.384Z" fill="#B2001A"/>
<path d="M128.483 116.383H111.085C110.588 116.383 110.112 116.186 109.761 115.836C109.41 115.485 109.213 115.01 109.213 114.514C109.213 114.019 109.41 113.543 109.761 113.193C110.112 112.842 110.588 112.646 111.085 112.646H128.483C128.979 112.646 129.455 112.842 129.806 113.193C130.158 113.543 130.355 114.019 130.355 114.514C130.355 115.01 130.158 115.485 129.806 115.836C129.455 116.186 128.979 116.383 128.483 116.383V116.383Z" fill="#B2001A"/>
<path d="M118.322 106.219C118.077 106.219 117.833 106.171 117.606 106.077C117.379 105.983 117.172 105.845 116.999 105.672C116.825 105.498 116.687 105.292 116.593 105.066C116.499 104.839 116.45 104.596 116.45 104.35V94.4821C116.45 93.9865 116.647 93.5111 116.999 93.1607C117.35 92.8102 117.826 92.6133 118.322 92.6133C118.819 92.6133 119.295 92.8102 119.646 93.1607C119.997 93.5111 120.195 93.9865 120.195 94.4821V104.35C120.195 104.596 120.146 104.839 120.052 105.066C119.958 105.292 119.82 105.498 119.646 105.672C119.472 105.845 119.266 105.983 119.039 106.077C118.812 106.171 118.568 106.219 118.322 106.219V106.219Z" fill="#B2001A"/>
<path d="M118.322 106.219H108.413C107.916 106.219 107.44 106.022 107.089 105.672C106.738 105.321 106.541 104.846 106.541 104.35C106.541 103.855 106.738 103.379 107.089 103.029C107.44 102.678 107.916 102.481 108.413 102.481H118.322C118.818 102.481 119.295 102.678 119.646 103.029C119.997 103.379 120.194 103.855 120.194 104.35C120.194 104.846 119.997 105.321 119.646 105.672C119.295 106.022 118.818 106.219 118.322 106.219V106.219Z" fill="#B2001A"/>
<path d="M54.0966 124.383C53.8507 124.383 53.6073 124.335 53.3801 124.241C53.1529 124.147 52.9464 124.01 52.7725 123.836L41.3568 112.441C41.1835 112.269 41.0459 112.065 40.9521 111.84C40.8582 111.615 40.8099 111.374 40.8099 111.131C40.8099 110.887 40.8582 110.646 40.9521 110.421C41.0459 110.196 41.1835 109.992 41.3568 109.82L52.7725 98.4247C52.9444 98.2518 53.1489 98.1145 53.3742 98.0208C53.5996 97.9271 53.8414 97.8789 54.0855 97.8789C54.3296 97.8789 54.5711 97.9271 54.7965 98.0208C55.0218 98.1145 55.2263 98.2518 55.3982 98.4247L66.8139 109.82C66.9872 109.992 67.1248 110.196 67.2186 110.421C67.3125 110.646 67.3608 110.887 67.3608 111.131C67.3608 111.374 67.3125 111.615 67.2186 111.84C67.1248 112.065 66.9872 112.269 66.8139 112.441L55.3982 123.836C55.0539 124.183 54.5858 124.38 54.0966 124.383V124.383ZM45.3523 111.165L54.0966 119.871L62.8184 111.165L54.0966 102.459L45.3523 111.165Z" fill="#B2001A"/>
<path d="M65.444 113.034C65.1981 113.034 64.9544 112.986 64.7272 112.892C64.5 112.798 64.2936 112.661 64.1196 112.487L52.7039 101.092C52.53 100.918 52.3924 100.712 52.2984 100.485C52.2043 100.259 52.1558 100.016 52.1559 99.7701C52.1506 99.5239 52.1965 99.2791 52.2908 99.0516C52.3852 98.824 52.5258 98.6186 52.7039 98.4482L64.1196 87.0528C64.4736 86.7065 64.9484 86.5105 65.444 86.5059V86.5059C65.9402 86.5081 66.4155 86.7045 66.7682 87.0528L78.1839 98.4482C78.3579 98.6217 78.4958 98.8277 78.59 99.0545C78.6841 99.2813 78.7327 99.5245 78.7327 99.7701C78.7327 100.016 78.6841 100.259 78.59 100.485C78.4958 100.712 78.3579 100.918 78.1839 101.092L66.7682 112.487C66.5942 112.661 66.3878 112.798 66.1606 112.892C65.9334 112.986 65.6899 113.034 65.444 113.034V113.034ZM56.7222 99.8384L65.444 108.544L74.1655 99.8384L65.444 91.1323L56.7222 99.8384Z" fill="#B2001A"/>
<path d="M76.815 101.683C76.3229 101.682 75.8497 101.495 75.4908 101.159L64.0751 89.7638C63.9011 89.5902 63.7629 89.3841 63.6687 89.1573C63.5746 88.9305 63.5263 88.6874 63.5263 88.4419C63.5263 88.1964 63.5746 87.9533 63.6687 87.7265C63.7629 87.4997 63.9011 87.2935 64.0751 87.12L75.4908 75.7246C75.8527 75.3947 76.3249 75.2119 76.815 75.2119C77.305 75.2119 77.7773 75.3947 78.1391 75.7246L89.5548 87.12C89.7307 87.2921 89.8701 87.4979 89.9643 87.7251C90.0584 87.9523 90.1054 88.1961 90.1028 88.4419C90.1081 88.6881 90.0622 88.9327 89.9679 89.1602C89.8735 89.3878 89.7329 89.5934 89.5548 89.7638L78.1391 101.159C77.7802 101.495 77.307 101.682 76.815 101.683ZM68.0932 88.4875L76.815 97.1936L85.5365 88.4875L76.815 79.7815L68.0932 88.4875Z" fill="#B2001A"/>
<path d="M88.1846 90.3574C87.9387 90.3575 87.6952 90.3092 87.468 90.2153C87.2408 90.1215 87.0344 89.9839 86.8605 89.8104L75.4447 78.4151C75.2707 78.2415 75.1325 78.0354 75.0384 77.8086C74.9442 77.5818 74.8959 77.3387 74.8959 77.0932C74.8959 76.8476 74.9442 76.6046 75.0384 76.3777C75.1325 76.1509 75.2707 75.9448 75.4447 75.7713L86.8605 64.3759C87.0324 64.203 87.2369 64.0656 87.4622 63.972C87.6875 63.8783 87.9291 63.8301 88.1732 63.8301C88.4172 63.8301 88.6588 63.8783 88.8841 63.972C89.1095 64.0656 89.3139 64.203 89.4859 64.3759L100.902 75.7713C101.076 75.9448 101.214 76.1509 101.308 76.3777C101.402 76.6046 101.45 76.8476 101.45 77.0932C101.45 77.3387 101.402 77.5818 101.308 77.8086C101.214 78.0354 101.076 78.2415 100.902 78.4151L89.4859 89.8104C89.3162 89.9832 89.1137 90.1206 88.8903 90.2145C88.6668 90.3084 88.427 90.357 88.1846 90.3574V90.3574ZM79.4631 77.1386L88.1846 85.8447L96.9061 77.1386L88.1846 68.4327L79.4631 77.1386Z" fill="#B2001A"/>
<path d="M65.4445 135.734C65.1986 135.734 64.9549 135.685 64.7277 135.592C64.5005 135.498 64.294 135.36 64.1201 135.187L52.7043 123.791C52.5304 123.618 52.3924 123.412 52.2983 123.185C52.2041 122.958 52.1556 122.715 52.1556 122.469C52.1556 122.224 52.2041 121.981 52.2983 121.754C52.3924 121.527 52.5304 121.321 52.7043 121.148L64.1201 109.752C64.4769 109.412 64.9513 109.223 65.4445 109.223C65.9377 109.223 66.4119 109.412 66.7686 109.752L78.1844 121.148C78.5313 121.501 78.7277 121.975 78.7323 122.469C78.7301 122.965 78.5333 123.439 78.1844 123.791L66.7686 135.187C66.5947 135.36 66.3883 135.498 66.1611 135.592C65.9338 135.685 65.6904 135.734 65.4445 135.734V135.734ZM56.7227 122.515L65.4445 131.221L74.166 122.515L65.4445 113.809L56.7227 122.515Z" fill="#B2001A"/>
<path d="M43.0243 113.352C42.7784 113.352 42.535 113.304 42.3078 113.21C42.0806 113.116 41.8741 112.979 41.7002 112.805L5.71774 76.9101C5.54384 76.7365 5.40578 76.5304 5.31167 76.3036C5.21755 76.0768 5.16925 75.8337 5.16925 75.5882C5.16925 75.3427 5.21755 75.0997 5.31167 74.8729C5.40578 74.6461 5.54384 74.44 5.71774 74.2664C5.89164 74.0928 6.09811 73.955 6.32532 73.8611C6.55253 73.7671 6.79594 73.7187 7.04187 73.7188C7.2878 73.7188 7.53149 73.7671 7.7587 73.8611C7.98591 73.955 8.19237 74.0928 8.36627 74.2664L44.3259 110.184C44.4992 110.356 44.6367 110.56 44.7306 110.785C44.8244 111.01 44.8727 111.251 44.8727 111.495C44.8727 111.739 44.8244 111.98 44.7306 112.205C44.6367 112.43 44.4992 112.634 44.3259 112.805C44.1562 112.978 43.9537 113.116 43.7303 113.209C43.5069 113.303 43.2668 113.352 43.0243 113.352V113.352Z" fill="#B2001A"/>
<path d="M7.04148 96.5567C6.79558 96.5568 6.55214 96.5086 6.32493 96.4147C6.09771 96.3209 5.89128 96.1833 5.71735 96.0098C5.54408 95.8382 5.40652 95.634 5.31267 95.4091C5.21882 95.1842 5.17053 94.9429 5.17053 94.6993C5.17053 94.4556 5.21882 94.2145 5.31267 93.9896C5.40652 93.7647 5.54408 93.5604 5.71735 93.3888L24.873 74.2675C25.0449 74.0946 25.2494 73.9572 25.4747 73.8636C25.7001 73.7699 25.9416 73.7217 26.1857 73.7217C26.4298 73.7217 26.6717 73.7699 26.897 73.8636C27.1223 73.9572 27.3268 74.0946 27.4987 74.2675C27.6727 74.4411 27.8106 74.6471 27.9048 74.8739C27.9989 75.1007 28.0475 75.3438 28.0475 75.5893C28.0475 75.8348 27.9989 76.078 27.9048 76.3048C27.8106 76.5316 27.6727 76.7376 27.4987 76.9112L8.36588 96.0098C8.19196 96.1833 7.98552 96.3209 7.75831 96.4147C7.53109 96.5086 7.28738 96.5568 7.04148 96.5567V96.5567Z" fill="#B2001A"/>
<path d="M16.6077 96.5553C16.1112 96.5553 15.6349 96.3584 15.2838 96.008C14.9327 95.6575 14.7354 95.1821 14.7354 94.6865V75.4968C14.7354 75.0011 14.9327 74.5258 15.2838 74.1753C15.6349 73.8248 16.1112 73.6279 16.6077 73.6279C17.1042 73.6279 17.5804 73.8248 17.9315 74.1753C18.2826 74.5258 18.4798 75.0011 18.4798 75.4968V94.5954C18.4921 94.8484 18.4529 95.1012 18.3644 95.3386C18.2758 95.576 18.1401 95.7928 17.965 95.9761C17.7899 96.1594 17.579 96.3054 17.3457 96.405C17.1124 96.5045 16.8614 96.5556 16.6077 96.5553Z" fill="#B2001A"/>
<path d="M26.197 87.0072H7.04131C6.54478 87.0072 6.06857 86.8103 5.71746 86.4599C5.36636 86.1094 5.16925 85.634 5.16925 85.1384C5.16925 84.6427 5.36636 84.1674 5.71746 83.8169C6.06857 83.4664 6.54478 83.2695 7.04131 83.2695H26.197C26.6935 83.2695 27.1697 83.4664 27.5208 83.8169C27.8719 84.1674 28.0693 84.6427 28.0693 85.1384C28.0693 85.634 27.8719 86.1094 27.5208 86.4599C27.1697 86.8103 26.6935 87.0072 26.197 87.0072V87.0072Z" fill="#B2001A"/>
<path d="M7.04148 148.702C6.79558 148.702 6.55214 148.654 6.32493 148.56C6.09771 148.466 5.89128 148.329 5.71735 148.155C5.54408 147.984 5.40652 147.779 5.31267 147.555C5.21882 147.33 5.17053 147.088 5.17053 146.845C5.17053 146.601 5.21882 146.36 5.31267 146.135C5.40652 145.91 5.54408 145.706 5.71735 145.534L41.6998 109.685C41.8717 109.512 42.0762 109.374 42.3016 109.281C42.5269 109.187 42.7684 109.139 43.0125 109.139C43.2566 109.139 43.4985 109.187 43.7238 109.281C43.9491 109.374 44.1536 109.512 44.3255 109.685C44.4995 109.858 44.6374 110.064 44.7316 110.291C44.8257 110.518 44.8743 110.761 44.8743 111.006C44.8743 111.252 44.8257 111.495 44.7316 111.722C44.6374 111.949 44.4995 112.155 44.3255 112.328L8.36588 148.223C8.0037 148.549 7.52847 148.721 7.04148 148.702V148.702Z" fill="#B2001A"/>
<path d="M26.1975 148.701C25.9516 148.701 25.7082 148.653 25.481 148.559C25.2538 148.465 25.0473 148.328 24.8734 148.154L5.71774 129.056C5.54384 128.882 5.40578 128.676 5.31167 128.449C5.21755 128.222 5.16925 127.979 5.16925 127.734C5.16925 127.488 5.21755 127.245 5.31167 127.018C5.40578 126.791 5.54384 126.585 5.71774 126.412C5.89164 126.238 6.09811 126.101 6.32532 126.007C6.55253 125.913 6.79594 125.864 7.04187 125.864C7.2878 125.864 7.53149 125.913 7.7587 126.007C7.98591 126.101 8.19237 126.238 8.36627 126.412L27.4991 145.533C27.7522 145.794 27.9234 146.123 27.9921 146.48C28.0608 146.837 28.024 147.206 27.8859 147.542C27.7479 147.878 27.5146 148.167 27.2148 148.373C26.915 148.578 26.5614 148.693 26.1975 148.701V148.701Z" fill="#B2001A"/>
<path d="M26.197 139.153H7.04131C6.54478 139.153 6.06857 138.956 5.71746 138.605C5.36636 138.255 5.16925 137.78 5.16925 137.284C5.16925 136.788 5.36636 136.313 5.71746 135.962C6.06857 135.612 6.54478 135.415 7.04131 135.415H26.197C26.6935 135.415 27.1697 135.612 27.5208 135.962C27.8719 136.313 28.0693 136.788 28.0693 137.284C28.0693 137.78 27.8719 138.255 27.5208 138.605C27.1697 138.956 26.6935 139.153 26.197 139.153V139.153Z" fill="#B2001A"/>
<path d="M16.6077 148.702C16.1151 148.702 15.6424 148.508 15.2919 148.162C14.9415 147.817 14.7414 147.347 14.7354 146.855V127.734C14.7354 127.238 14.9327 126.763 15.2838 126.413C15.6349 126.062 16.1112 125.865 16.6077 125.865C17.1042 125.865 17.5804 126.062 17.9315 126.413C18.2826 126.763 18.4798 127.238 18.4798 127.734V146.855C18.4737 147.347 18.2739 147.817 17.9235 148.162C17.573 148.508 17.1003 148.702 16.6077 148.702V148.702Z" fill="#B2001A"/>
<path d="M76.7688 78.963C76.3984 78.9631 76.0364 78.8535 75.7284 78.6482C75.4204 78.4428 75.1801 78.151 75.0383 77.8094C74.8965 77.4678 74.8595 77.0919 74.9318 76.7292C75.0042 76.3666 75.1827 76.0336 75.4447 75.7722L111.404 39.8769C111.578 39.7032 111.784 39.5655 112.012 39.4715C112.239 39.3776 112.482 39.3291 112.728 39.3291C112.974 39.3291 113.218 39.3776 113.445 39.4715C113.672 39.5655 113.879 39.7032 114.053 39.8769C114.226 40.0485 114.363 40.2526 114.457 40.4775C114.551 40.7025 114.599 40.9437 114.599 41.1874C114.599 41.431 114.551 41.6723 114.457 41.8972C114.363 42.1221 114.226 42.3263 114.053 42.4979L78.0701 78.416C77.7258 78.763 77.258 78.9596 76.7688 78.963V78.963Z" fill="#B2001A"/>
<path d="M112.728 62.1642C112.482 62.1643 112.239 62.116 112.012 62.0221C111.784 61.9283 111.578 61.7906 111.404 61.6171L92.2711 42.4958C91.9229 42.1482 91.7274 41.6768 91.7274 41.1853C91.7274 40.6938 91.9229 40.2224 92.2711 39.8748C92.6193 39.5273 93.0914 39.332 93.5838 39.332C94.0762 39.332 94.5486 39.5273 94.8968 39.8748L114.052 58.9734C114.314 59.2348 114.493 59.5678 114.565 59.9304C114.637 60.2931 114.6 60.669 114.459 61.0106C114.317 61.3522 114.077 61.644 113.769 61.8494C113.461 62.0547 113.098 62.1643 112.728 62.1642V62.1642Z" fill="#B2001A"/>
<path d="M112.728 52.7077H93.6179C93.3562 52.7367 93.0913 52.7102 92.8406 52.6301C92.5898 52.55 92.3589 52.418 92.1628 52.2427C91.9666 52.0674 91.8098 51.8528 91.7023 51.6128C91.5949 51.3729 91.5393 51.1131 91.5393 50.8503C91.5393 50.5875 91.5949 50.3276 91.7023 50.0877C91.8098 49.8478 91.9666 49.6331 92.1628 49.4579C92.3589 49.2826 92.5898 49.1506 92.8406 49.0705C93.0913 48.9903 93.3562 48.9639 93.6179 48.9928H112.751C113.012 48.9639 113.277 48.9903 113.528 49.0705C113.779 49.1506 114.01 49.2826 114.206 49.4579C114.402 49.6331 114.559 49.8478 114.666 50.0877C114.774 50.3276 114.829 50.5875 114.829 50.8503C114.829 51.1131 114.774 51.3729 114.666 51.6128C114.559 51.8528 114.402 52.0674 114.206 52.2427C114.01 52.418 113.779 52.55 113.528 52.6301C113.277 52.7102 113.012 52.7367 112.751 52.7077H112.728Z" fill="#B2001A"/>
<path d="M103.162 62.1648C102.665 62.1648 102.189 61.9679 101.838 61.6174C101.487 61.2669 101.29 60.7916 101.29 60.2959V41.1745C101.29 40.6789 101.487 40.2035 101.838 39.853C102.189 39.5026 102.665 39.3057 103.162 39.3057C103.659 39.3057 104.135 39.5026 104.486 39.853C104.837 40.2035 105.034 40.6789 105.034 41.1745V60.2959C105.034 60.7916 104.837 61.2669 104.486 61.6174C104.135 61.9679 103.659 62.1648 103.162 62.1648V62.1648Z" fill="#B2001A"/>
<path d="M29.6904 171.356C29.32 171.356 28.958 171.246 28.65 171.041C28.342 170.836 28.1017 170.544 27.9599 170.202C27.8182 169.86 27.7812 169.485 27.8535 169.122C27.9258 168.759 28.1043 168.426 28.3663 168.165L64.3488 132.247C64.7 131.896 65.1762 131.699 65.6729 131.699C66.1696 131.699 66.6458 131.896 66.997 132.247C67.3482 132.597 67.5455 133.073 67.5455 133.569C67.5455 134.064 67.3482 134.54 66.997 134.891L31.0146 170.809C30.8406 170.982 30.6342 171.12 30.407 171.214C30.1798 171.307 29.9363 171.356 29.6904 171.356V171.356Z" fill="#B2001A"/>
<path d="M48.8688 171.356C48.6229 171.356 48.3795 171.307 48.1523 171.214C47.9251 171.12 47.7184 170.982 47.5444 170.809L28.389 151.687C28.2151 151.514 28.0771 151.308 27.983 151.081C27.8889 150.854 27.8403 150.611 27.8403 150.365C27.8403 150.12 27.8889 149.877 27.983 149.65C28.0771 149.423 28.2151 149.217 28.389 149.044C28.5629 148.87 28.7694 148.732 28.9966 148.638C29.2238 148.544 29.4672 148.496 29.7132 148.496C29.9591 148.496 30.2025 148.544 30.4297 148.638C30.6569 148.732 30.8634 148.87 31.0373 149.044L50.193 168.165C50.5335 168.521 50.7236 168.994 50.7236 169.487C50.7236 169.979 50.5335 170.453 50.193 170.809C50.019 170.982 49.8126 171.12 49.5854 171.214C49.3582 171.307 49.1147 171.356 48.8688 171.356V171.356Z" fill="#B2001A"/>
<path d="M48.8689 161.783H29.6903C29.4287 161.812 29.1638 161.785 28.913 161.705C28.6623 161.625 28.4314 161.493 28.2352 161.318C28.0391 161.143 27.8822 160.928 27.7748 160.688C27.6674 160.448 27.6118 160.188 27.6118 159.925C27.6118 159.663 27.6674 159.403 27.7748 159.163C27.8822 158.923 28.0391 158.708 28.2352 158.533C28.4314 158.358 28.6623 158.226 28.913 158.146C29.1638 158.066 29.4287 158.039 29.6903 158.068H48.846C49.1077 158.039 49.3726 158.066 49.6233 158.146C49.8741 158.226 50.105 158.358 50.3011 158.533C50.4973 158.708 50.6541 158.923 50.7615 159.163C50.869 159.403 50.9246 159.663 50.9246 159.925C50.9246 160.188 50.869 160.448 50.7615 160.688C50.6541 160.928 50.4973 161.143 50.3011 161.318C50.105 161.493 49.8741 161.625 49.6233 161.705C49.3726 161.785 49.1077 161.812 48.846 161.783H48.8689Z" fill="#B2001A"/>
<path d="M39.2795 171.356C38.7869 171.35 38.3166 171.151 37.9704 170.801C37.6242 170.451 37.4303 169.979 37.4303 169.487V150.366C37.4013 150.105 37.4278 149.84 37.5081 149.59C37.5883 149.34 37.7204 149.109 37.896 148.913C38.0716 148.718 38.2866 148.561 38.527 148.454C38.7674 148.347 39.0277 148.291 39.2909 148.291C39.5542 148.291 39.8145 148.347 40.0549 148.454C40.2952 148.561 40.5102 148.718 40.6858 148.913C40.8614 149.109 40.9938 149.34 41.0741 149.59C41.1544 149.84 41.1809 150.105 41.1518 150.366V169.487C41.1518 169.733 41.1035 169.976 41.0094 170.202C40.9153 170.429 40.7772 170.635 40.6034 170.809C40.4295 170.982 40.2232 171.12 39.9961 171.214C39.7689 171.308 39.5254 171.356 39.2795 171.356V171.356Z" fill="#B2001A"/>
<path d="M65.193 170.809L62.5444 168.165L86.9512 143.87C87.125 143.696 87.3315 143.559 87.5588 143.465C87.786 143.371 88.0296 143.322 88.2756 143.322C88.5215 143.322 88.7649 143.371 88.9921 143.465C89.2194 143.559 89.4259 143.696 89.5997 143.87C89.773 144.042 89.9105 144.246 90.0044 144.471C90.0982 144.696 90.1465 144.937 90.1465 145.181C90.1465 145.424 90.0982 145.665 90.0044 145.89C89.9105 146.115 89.773 146.319 89.5997 146.491L65.193 170.809Z" fill="#B2001A"/>
<path d="M83.0021 171.356C82.7562 171.356 82.5128 171.307 82.2856 171.214C82.0584 171.12 81.8519 170.982 81.678 170.809L62.5452 151.687C62.3713 151.514 62.2332 151.308 62.1391 151.081C62.045 150.854 61.9967 150.611 61.9967 150.365C61.9967 150.12 62.045 149.877 62.1391 149.65C62.2332 149.423 62.3713 149.217 62.5452 149.044C62.7191 148.87 62.9256 148.732 63.1528 148.638C63.38 148.544 63.6234 148.496 63.8693 148.496C64.1153 148.496 64.3589 148.544 64.5862 148.638C64.8134 148.732 65.0198 148.87 65.1937 149.044L84.3265 168.165C84.5885 168.426 84.7668 168.759 84.8391 169.122C84.9114 169.485 84.8744 169.86 84.7326 170.202C84.5908 170.544 84.3508 170.836 84.0428 171.041C83.7348 171.246 83.3725 171.356 83.0021 171.356Z" fill="#B2001A"/>
<path d="M83.002 161.783H63.9377C63.676 161.812 63.4111 161.785 63.1604 161.705C62.9097 161.625 62.6788 161.493 62.4826 161.318C62.2864 161.143 62.1296 160.928 62.0222 160.688C61.9147 160.448 61.8591 160.188 61.8591 159.925C61.8591 159.663 61.9147 159.403 62.0222 159.163C62.1296 158.923 62.2864 158.708 62.4826 158.533C62.6788 158.358 62.9097 158.226 63.1604 158.146C63.4111 158.066 63.676 158.039 63.9377 158.068H83.0705C83.3322 158.039 83.5971 158.066 83.8478 158.146C84.0986 158.226 84.3295 158.358 84.5256 158.533C84.7218 158.708 84.8786 158.923 84.9861 159.163C85.0935 159.403 85.1491 159.663 85.1491 159.925C85.1491 160.188 85.0935 160.448 84.9861 160.688C84.8786 160.928 84.7218 161.143 84.5256 161.318C84.3295 161.493 84.0986 161.625 83.8478 161.705C83.5971 161.785 83.3322 161.812 83.0705 161.783H83.002Z" fill="#B2001A"/>
<path d="M73.4351 171.356C73.1893 171.356 72.9457 171.308 72.7186 171.214C72.4915 171.12 72.2851 170.982 72.1113 170.809C71.9374 170.635 71.7996 170.429 71.7055 170.202C71.6114 169.976 71.5628 169.733 71.5628 169.487V150.366C71.5628 149.87 71.7602 149.395 72.1113 149.044C72.4624 148.694 72.9386 148.497 73.4351 148.497C73.9317 148.497 74.4079 148.694 74.759 149.044C75.1101 149.395 75.3072 149.87 75.3072 150.366V169.487C75.3072 169.733 75.2589 169.976 75.1648 170.202C75.0707 170.429 74.9328 170.635 74.759 170.809C74.5851 170.982 74.3786 171.12 74.1514 171.214C73.9243 171.308 73.681 171.356 73.4351 171.356V171.356Z" fill="#B2001A"/>
<path d="M65.8096 90.6083C65.5637 90.6084 65.3203 90.5602 65.093 90.4663C64.8658 90.3725 64.6594 90.2349 64.4855 90.0614L28.503 54.1432C28.3297 53.9716 28.1922 53.7675 28.0983 53.5426C28.0045 53.3177 27.9562 53.0764 27.9562 52.8328C27.9562 52.5891 28.0045 52.3478 28.0983 52.1229C28.1922 51.898 28.3297 51.6939 28.503 51.5223C28.6769 51.3486 28.8834 51.2109 29.1106 51.1169C29.3378 51.0229 29.5814 50.9746 29.8274 50.9746C30.0734 50.9746 30.3167 51.0229 30.544 51.1169C30.7712 51.2109 30.9777 51.3486 31.1515 51.5223L67.134 87.4176C67.396 87.6789 67.5742 88.012 67.6465 88.3746C67.7188 88.7372 67.6818 89.1132 67.5401 89.4547C67.3983 89.7963 67.1583 90.0883 66.8503 90.2937C66.5423 90.499 66.18 90.6085 65.8096 90.6083V90.6083Z" fill="#B2001A"/>
<path d="M29.8269 73.8106C29.4565 73.8108 29.0943 73.7012 28.7862 73.4958C28.4782 73.2905 28.2382 72.9986 28.0964 72.6571C27.9547 72.3155 27.9174 71.9395 27.9897 71.5769C28.062 71.2143 28.2405 70.8812 28.5025 70.6199L47.6582 51.5213C47.8321 51.3476 48.0385 51.2099 48.2658 51.1159C48.493 51.0219 48.7364 50.9736 48.9823 50.9736C49.2283 50.9736 49.4719 51.0219 49.6991 51.1159C49.9264 51.2099 50.1329 51.3476 50.3067 51.5213C50.48 51.6929 50.6176 51.897 50.7114 52.1219C50.8052 52.3468 50.8535 52.5881 50.8535 52.8318C50.8535 53.0754 50.8052 53.3167 50.7114 53.5416C50.6176 53.7665 50.48 53.9707 50.3067 54.1423L31.1511 73.2637C30.9771 73.4372 30.7707 73.5748 30.5435 73.6686C30.3163 73.7625 30.0728 73.8107 29.8269 73.8106V73.8106Z" fill="#B2001A"/>
<path d="M39.4162 73.8109C38.9197 73.8109 38.4435 73.614 38.0924 73.2635C37.7413 72.913 37.5439 72.4377 37.5439 71.942V52.8434C37.5149 52.5822 37.5414 52.3178 37.6216 52.0675C37.7019 51.8172 37.8343 51.5867 38.0099 51.3909C38.1855 51.1951 38.4005 51.0384 38.6409 50.9312C38.8812 50.8239 39.1415 50.7686 39.4048 50.7686C39.6681 50.7686 39.9284 50.8239 40.1687 50.9312C40.4091 51.0384 40.6241 51.1951 40.7997 51.3909C40.9753 51.5867 41.1077 51.8172 41.1879 52.0675C41.2682 52.3178 41.2945 52.5822 41.2654 52.8434V71.942C41.2655 72.4337 41.0715 72.9056 40.7253 73.2554C40.3791 73.6053 39.9088 73.8049 39.4162 73.8109V73.8109Z" fill="#B2001A"/>
<path d="M48.9827 64.2621H29.8274C29.3308 64.2621 28.8546 64.0652 28.5035 63.7147C28.1524 63.3643 27.955 62.8889 27.955 62.3933C27.955 61.8976 28.1524 61.4223 28.5035 61.0718C28.8546 60.7213 29.3308 60.5244 29.8274 60.5244H48.9827C49.4793 60.5244 49.9555 60.7213 50.3066 61.0718C50.6577 61.4223 50.8551 61.8976 50.8551 62.3933C50.8551 62.8889 50.6577 63.3643 50.3066 63.7147C49.9555 64.0652 49.4793 64.2621 48.9827 64.2621V64.2621Z" fill="#B2001A"/>
<path d="M88.4812 67.9765C88.2353 67.9766 87.9919 67.9283 87.7646 67.8345C87.5374 67.7406 87.331 67.6031 87.1571 67.4296L51.1974 31.5114C51.025 31.3393 50.8883 31.1351 50.795 30.9102C50.7017 30.6854 50.6537 30.4443 50.6537 30.2009C50.6537 29.9576 50.7017 29.7165 50.795 29.4916C50.8883 29.2668 51.025 29.0625 51.1974 28.8904C51.3698 28.7183 51.5745 28.5818 51.7997 28.4887C52.025 28.3956 52.2663 28.3477 52.5101 28.3477C52.754 28.3477 52.9953 28.3956 53.2206 28.4887C53.4458 28.5818 53.6504 28.7183 53.8228 28.8904L89.8053 64.7858C90.0673 65.0471 90.2458 65.3802 90.3181 65.7428C90.3904 66.1054 90.3534 66.4813 90.2117 66.8229C90.0699 67.1645 89.8296 67.4564 89.5216 67.6617C89.2136 67.8671 88.8516 67.9767 88.4812 67.9765Z" fill="#B2001A"/>
<path d="M52.5214 51.1799C52.0322 51.1766 51.5643 50.9799 51.2201 50.633C51.0461 50.4594 50.9079 50.2533 50.8137 50.0265C50.7196 49.7997 50.6713 49.5566 50.6713 49.3111C50.6713 49.0656 50.7196 48.8225 50.8137 48.5957C50.9079 48.3688 51.0461 48.1627 51.2201 47.9892L70.3529 28.8906C70.5268 28.7169 70.733 28.5792 70.9602 28.4852C71.1874 28.3912 71.4311 28.3428 71.677 28.3428C71.923 28.3428 72.1664 28.3912 72.3936 28.4852C72.6208 28.5792 72.8273 28.7169 73.0012 28.8906C73.1744 29.0622 73.312 29.2663 73.4058 29.4912C73.4997 29.7161 73.548 29.9574 73.548 30.2011C73.548 30.4447 73.4997 30.686 73.4058 30.9109C73.312 31.1358 73.1744 31.3399 73.0012 31.5115L53.8455 50.633C53.6716 50.8065 53.4651 50.944 53.2379 51.0379C53.0107 51.1317 52.7673 51.18 52.5214 51.1799V51.1799Z" fill="#B2001A"/>
<path d="M62.0881 51.1804C61.5915 51.1804 61.1156 50.9835 60.7645 50.633C60.4134 50.2826 60.216 49.8072 60.216 49.3116V30.1901C60.216 29.6945 60.4134 29.2191 60.7645 28.8687C61.1156 28.5182 61.5915 28.3213 62.0881 28.3213C62.5846 28.3213 63.0608 28.5182 63.4119 28.8687C63.763 29.2191 63.9604 29.6945 63.9604 30.1901V49.3116C63.9604 49.8072 63.763 50.2826 63.4119 50.633C63.0608 50.9835 62.5846 51.1804 62.0881 51.1804V51.1804Z" fill="#B2001A"/>
<path d="M71.6542 41.6081H52.5214C52.0634 41.5574 51.6404 41.3399 51.333 40.9972C51.0257 40.6545 50.8556 40.2106 50.8556 39.7507C50.8556 39.2907 51.0257 38.8469 51.333 38.5042C51.6404 38.1615 52.0634 37.9439 52.5214 37.8932H71.6771C71.9388 37.8642 72.2036 37.8907 72.4544 37.9708C72.7051 38.051 72.936 38.183 73.1322 38.3582C73.3284 38.5335 73.4852 38.7482 73.5926 38.9881C73.7 39.228 73.7557 39.4879 73.7557 39.7507C73.7557 40.0135 73.7 40.2733 73.5926 40.5132C73.4852 40.7532 73.3284 40.9678 73.1322 41.1431C72.936 41.3184 72.7051 41.4504 72.4544 41.5305C72.2036 41.6106 71.9388 41.6371 71.6771 41.6081H71.6542Z" fill="#B2001A"/>
<path d="M172.798 158.182H88.3217C87.8291 158.182 87.3561 157.989 87.0057 157.643C86.6552 157.298 86.4554 156.828 86.4494 156.336V146.924H77.3168C77.0226 146.972 76.7214 146.952 76.4363 146.865C76.1513 146.778 75.89 146.626 75.673 146.422L64.2572 135.027C63.9103 134.674 63.714 134.2 63.7093 133.705C63.7116 133.21 63.9083 132.735 64.2572 132.383L75.4676 121.193C75.6432 120.982 75.8627 120.811 76.1111 120.693C76.3595 120.575 76.6309 120.512 76.906 120.509H140.263V82.6769C140.263 81.7424 140.263 80.3978 158.529 63.6011C158.876 63.2783 159.333 63.099 159.807 63.0996H174.739C175.235 63.1019 175.71 63.2982 176.063 63.6466L195.401 82.9503C195.673 83.1196 195.897 83.3547 196.052 83.6336C196.208 83.9126 196.29 84.2263 196.292 84.5456C196.259 85.0344 196.048 85.4944 195.699 85.8387C195.35 86.183 194.887 86.3877 194.397 86.4144H175.994L167.273 95.0977V120.6H174.282C174.528 120.6 174.772 120.649 174.999 120.742C175.226 120.836 175.433 120.974 175.607 121.148L185.241 130.765C185.417 130.937 185.556 131.143 185.65 131.37C185.745 131.597 185.792 131.841 185.789 132.087V145.146C185.792 145.392 185.745 145.636 185.65 145.863C185.556 146.09 185.417 146.296 185.241 146.468L174.031 157.658C173.7 157.981 173.26 158.168 172.798 158.182V158.182ZM90.1938 154.468H172.022L182.136 144.371V132.862L173.574 124.315H165.469C164.977 124.315 164.504 124.122 164.153 123.776C163.803 123.43 163.603 122.961 163.597 122.469V94.3457C163.599 93.8505 163.796 93.3758 164.145 93.0238L173.962 83.2238C174.315 82.8755 174.791 82.6791 175.287 82.6769H189.922L173.94 66.8373H160.515C153.118 73.6745 145.241 81.2639 143.894 83.1099V122.469C143.894 122.959 143.699 123.428 143.352 123.775C143.005 124.121 142.535 124.315 142.044 124.315H77.6365L68.1613 133.796L77.5679 143.186H88.2532C88.499 143.186 88.7423 143.234 88.9694 143.328C89.1966 143.422 89.4032 143.56 89.577 143.733C89.7509 143.907 89.8887 144.113 89.9828 144.34C90.0769 144.566 90.1252 144.81 90.1252 145.055L90.1938 154.468Z" fill="#B2001A"/>
</g>
<defs>
<clipPath id="clip0_1374_32945">
<rect width="199.662" height="153.313" fill="white" transform="translate(5.16925 28.3438)"/>
</clipPath>
</defs>
</svg>
