<svg width="160" height="673" viewBox="0 0 160 673" fill="none" xmlns="http://www.w3.org/2000/svg">
<g opacity="0.8" clip-path="url(#clip0_1216_94736)">
<path d="M39.778 356.21C42.0662 358.597 35.2016 369.292 24.2889 380.164C13.3762 391.036 2.72778 397.842 0.439626 395.809C-1.84853 393.776 5.10403 382.727 15.9288 371.855C26.7535 360.983 37.8419 353.912 39.778 356.21Z" fill="#CA001D"/>
<path d="M0.439555 356.21C2.72771 353.912 13.4641 360.895 24.2888 371.855C35.1135 382.815 41.8901 393.422 39.778 395.809C37.6658 398.195 26.8414 391.124 15.9287 380.164C5.01595 369.203 -1.8486 358.596 0.439555 356.21Z" fill="#CA001D"/>
<path d="M79.1162 356.21C81.4923 358.597 74.5408 369.292 63.6281 380.164C52.7154 391.036 42.0659 397.842 39.7778 395.809C37.4896 393.776 44.4422 382.727 55.2669 371.855C66.0916 360.983 76.828 353.912 79.1162 356.21Z" fill="#CA001D"/>
<path d="M79.1161 395.809C81.4922 393.422 92.1417 400.405 102.966 411.365C113.791 422.326 120.568 433.021 118.544 435.319C116.52 437.617 105.518 430.634 94.6933 419.762C83.8686 408.89 76.8279 398.107 79.1161 395.809Z" fill="#CA001D"/>
<path d="M39.778 316.7C42.0662 318.998 35.2016 329.782 24.2889 340.654C13.3762 351.526 2.72778 358.332 0.439626 356.211C-1.84853 354.089 5.10403 343.217 15.9288 332.257C26.7535 321.297 37.8419 314.402 39.778 316.7Z" fill="#CA001D"/>
<path d="M0.439555 316.7C2.72771 314.402 13.4641 321.385 24.2888 332.257C35.1135 343.129 41.8901 353.912 39.778 356.211C37.6658 358.509 26.8414 351.614 15.9287 340.654C5.01595 329.694 -1.8486 318.998 0.439555 316.7Z" fill="#CA001D"/>
<path d="M79.1162 316.7C81.4923 318.998 74.5408 329.782 63.6281 340.654C52.7154 351.526 42.0659 358.332 39.7778 356.211C37.4896 354.089 44.4422 343.217 55.2669 332.257C66.0916 321.297 76.828 314.402 79.1162 316.7Z" fill="#CA001D"/>
<path d="M39.7786 316.7C42.0667 314.402 52.8042 321.385 63.6289 332.257C74.4537 343.129 81.2291 353.912 79.117 356.211C77.0048 358.509 66.1804 351.614 55.2677 340.654C44.355 329.694 37.8424 318.998 39.7786 316.7Z" fill="#CA001D"/>
<path d="M39.778 474.83C42.0662 477.128 35.2016 487.911 24.2889 498.783C13.3762 509.655 2.72778 516.461 0.439626 514.34C-1.84853 512.219 5.10403 501.347 15.9288 490.386C26.7535 479.426 37.8419 472.62 39.778 474.83Z" fill="#CA001D"/>
<path d="M0.439555 474.83C2.72771 472.532 13.4641 479.515 24.2888 490.387C35.1135 501.259 41.8901 512.042 39.778 514.34C37.6658 516.639 26.8414 509.744 15.9287 498.784C5.01595 487.823 -1.8486 477.128 0.439555 474.83Z" fill="#CA001D"/>
<path d="M79.1162 474.83C81.4923 477.128 74.5408 487.911 63.6281 498.783C52.7154 509.655 42.0659 516.461 39.7778 514.34C37.4896 512.219 44.4422 501.347 55.2669 490.386C66.0916 479.426 76.828 472.62 79.1162 474.83Z" fill="#CA001D"/>
<path d="M79.1161 514.34C81.4922 512.042 92.1417 519.024 102.966 529.985C113.791 540.945 120.568 551.552 118.544 553.939C116.52 556.325 105.518 549.254 94.6933 538.293C83.8686 527.333 76.8279 516.815 79.1161 514.34Z" fill="#CA001D"/>
<path d="M39.778 435.319C42.0662 437.618 35.2016 448.313 24.2889 459.273C13.3762 470.233 2.72778 476.951 0.439626 474.83C-1.84853 472.708 5.10403 461.836 15.9288 450.876C26.7535 439.916 37.8419 433.021 39.778 435.319Z" fill="#CA001D"/>
<path d="M0.439555 435.319C2.72771 433.021 13.4641 440.004 24.2888 450.876C35.1135 461.748 41.8901 472.532 39.778 474.83C37.6658 477.128 26.8414 470.145 15.9287 459.273C5.01595 448.401 -1.8486 437.264 0.439555 435.319Z" fill="#CA001D"/>
<path d="M79.1162 435.319C81.4923 437.618 74.5408 448.313 63.6281 459.273C52.7154 470.233 42.0659 476.951 39.7778 474.83C37.4896 472.708 44.4422 461.836 55.2669 450.876C66.0916 439.916 76.828 433.021 79.1162 435.319Z" fill="#CA001D"/>
<path d="M39.7786 435.319C42.0667 433.021 52.8042 440.004 63.6289 450.876C74.4537 461.748 81.2291 472.532 79.117 474.83C77.0048 477.128 66.1804 470.145 55.2677 459.273C44.355 448.401 37.8424 437.264 39.7786 435.319Z" fill="#CA001D"/>
<path d="M39.778 593.45C42.0662 595.748 35.2016 606.532 24.2889 617.404C13.3762 628.276 2.72778 635.082 0.439626 632.961C-1.84853 630.839 5.10403 619.967 15.9288 609.007C26.7535 598.046 37.8419 591.152 39.778 593.45Z" fill="#CA001D"/>
<path d="M39.8418 632.99C42.1445 630.677 35.2073 619.959 24.3469 609.051C13.4865 598.144 2.81536 591.176 0.512674 593.489C-1.79001 595.802 5.14716 606.519 16.0076 617.427C26.868 628.335 37.5391 635.302 39.8418 632.99Z" fill="#CA001D"/>
<path d="M79.1162 593.45C81.4923 595.748 74.5408 606.532 63.6281 617.404C52.7154 628.276 42.0659 635.082 39.7778 632.961C37.4896 630.839 44.4422 619.967 55.2669 609.007C66.0916 598.046 76.828 591.152 79.1162 593.45Z" fill="#CA001D"/>
<path d="M79.1161 632.959C81.4922 630.661 92.1417 637.644 102.966 648.516C113.791 659.387 120.568 670.171 118.544 672.469C116.52 674.767 105.518 667.873 94.6933 656.913C83.8686 645.952 76.8279 635.257 79.1161 632.959Z" fill="#CA001D"/>
<path d="M24.2784 577.848C35.1388 566.94 42.0764 556.223 39.7737 553.91C37.471 551.597 26.8001 558.565 15.9397 569.473C5.07923 580.381 -1.85851 591.098 0.444179 593.411C2.74686 595.724 13.418 588.756 24.2784 577.848Z" fill="#CA001D"/>
<path d="M0.439555 553.939C2.72771 551.553 13.4641 558.535 24.2888 569.496C35.1135 580.456 41.8901 591.152 39.778 593.45C37.6658 595.748 26.8414 588.765 15.9287 577.893C5.01595 567.021 -1.8486 556.238 0.439555 553.939Z" fill="#CA001D"/>
<path d="M79.1162 553.939C81.4923 556.237 74.5408 566.933 63.6281 577.893C52.7154 588.853 42.0659 595.571 39.7778 593.45C37.4896 591.328 44.4422 580.368 55.2669 569.496C66.0916 558.624 76.828 551.553 79.1162 553.939Z" fill="#CA001D"/>
<path d="M39.7786 553.939C42.0667 551.553 52.8042 558.535 63.6289 569.496C74.4537 580.456 81.2291 591.152 79.117 593.45C77.0048 595.748 66.1804 588.765 55.2677 577.893C44.355 567.021 37.8424 556.238 39.7786 553.939Z" fill="#CA001D"/>
<path d="M39.778 237.592C42.0662 239.978 35.2016 250.674 24.2889 261.634C13.3762 272.594 2.72778 279.312 0.439626 277.191C-1.84853 275.069 5.10403 264.109 15.9288 253.237C26.7535 242.365 37.8419 235.294 39.778 237.592Z" fill="#CA001D"/>
<path d="M0.439555 237.592C2.72771 235.294 13.4641 242.276 24.2888 253.237C35.1135 264.197 41.8901 274.892 39.778 277.19C37.6658 279.489 26.8414 272.506 15.9287 261.634C5.01595 250.762 -1.8486 239.978 0.439555 237.592Z" fill="#CA001D"/>
<path d="M79.1162 237.592C81.4923 239.978 74.5408 250.674 63.6281 261.634C52.7154 272.594 42.0659 279.312 39.7778 277.191C37.4896 275.069 44.4422 264.109 55.2669 253.237C66.0916 242.365 76.828 235.294 79.1162 237.592Z" fill="#CA001D"/>
<path d="M79.1161 277.191C81.4922 274.893 92.1417 281.788 102.966 292.748C113.791 303.708 120.568 314.403 118.544 316.701C116.52 319 105.518 312.017 94.6933 301.145C83.8686 290.273 76.8279 279.49 79.1161 277.191Z" fill="#CA001D"/>
<path d="M39.7778 198.081C42.0659 200.379 35.2014 211.163 24.2886 222.035C13.3759 232.907 2.72754 239.713 0.439382 237.591C-1.84877 235.47 5.10378 224.598 15.9285 213.638C26.7532 202.677 37.8416 195.783 39.7778 198.081Z" fill="#CA001D"/>
<path d="M0.439555 198.082C2.72771 195.784 13.4641 202.767 24.2888 213.639C35.1135 224.511 41.8901 235.294 39.778 237.592C37.6658 239.891 26.8414 232.996 15.9287 222.036C5.01595 211.075 -1.8486 200.38 0.439555 198.082Z" fill="#CA001D"/>
<path d="M79.1162 198.081C81.4923 200.379 74.5408 211.163 63.6281 222.035C52.7154 232.907 42.0659 239.713 39.7778 237.591C37.4896 235.47 44.4422 224.598 55.2669 213.638C66.0916 202.677 76.828 195.783 79.1162 198.081Z" fill="#CA001D"/>
<path d="M39.7786 198.082C42.0667 195.784 52.8042 202.767 63.6289 213.639C74.4537 224.511 81.2291 235.294 79.117 237.592C77.0048 239.891 66.1804 232.996 55.2677 222.036C44.355 211.075 37.8424 200.38 39.7786 198.082Z" fill="#CA001D"/>
<path d="M39.7778 119.061C42.0659 121.36 35.2014 132.055 24.2886 143.015C13.3759 153.975 2.72754 160.693 0.439382 158.572C-1.84877 156.45 5.10378 145.49 15.9285 134.618C26.7532 123.746 37.8416 116.675 39.7778 119.061Z" fill="#CA001D"/>
<path d="M39.7752 158.536C42.0779 156.224 35.1407 145.506 24.2803 134.598C13.4198 123.69 2.74871 116.723 0.446024 119.036C-1.85666 121.349 5.08051 132.066 15.9409 142.974C26.8014 153.882 37.4725 160.849 39.7752 158.536Z" fill="#CA001D"/>
<path d="M63.6263 142.967C74.4867 132.059 81.4245 121.342 79.1218 119.029C76.8191 116.716 66.148 123.684 55.2875 134.592C44.4271 145.5 37.4903 156.217 39.793 158.529C42.0957 160.842 52.7659 153.875 63.6263 142.967Z" fill="#CA001D"/>
<path d="M39.7786 119.061C42.0667 116.675 52.8042 123.658 63.6289 134.618C74.4537 145.578 81.2291 156.274 79.117 158.572C77.0048 160.87 66.1804 153.887 55.2677 143.015C44.355 132.143 37.8424 121.36 39.7786 119.061Z" fill="#CA001D"/>
<path d="M39.7786 356.21C42.0667 353.912 52.8042 360.895 63.6289 371.855C74.4537 382.815 81.2291 393.422 79.117 395.809C77.0048 398.195 66.1804 391.124 55.2677 380.164C44.355 369.203 37.8424 358.596 39.7786 356.21Z" fill="#CA001D"/>
<path d="M39.7786 474.83C42.0667 472.532 52.8042 479.515 63.6289 490.387C74.4537 501.259 81.2291 512.042 79.117 514.34C77.0048 516.639 66.1804 509.744 55.2677 498.784C44.355 487.823 37.8424 477.128 39.7786 474.83Z" fill="#CA001D"/>
<path d="M39.7786 593.45C42.0667 591.152 52.8042 598.135 63.6289 609.007C74.4537 619.879 81.2291 630.662 79.117 632.961C77.0048 635.259 66.1804 628.364 55.2677 617.404C44.355 606.444 37.8424 595.748 39.7786 593.45Z" fill="#CA001D"/>
<path d="M39.7786 237.592C42.0667 235.294 52.8042 242.276 63.6289 253.237C74.4537 264.197 81.2291 274.892 79.117 277.19C77.0048 279.489 66.1804 272.506 55.2677 261.634C44.355 250.762 37.8424 239.978 39.7786 237.592Z" fill="#CA001D"/>
<path d="M39.7786 119.061C42.0667 116.675 52.8042 123.658 63.6289 134.618C74.4537 145.578 81.2291 156.274 79.117 158.572C77.0048 160.87 66.1804 153.887 55.2677 143.015C44.355 132.143 37.8424 121.36 39.7786 119.061Z" fill="#CA001D"/>
<path d="M79.1161 395.809C81.4922 393.422 92.1417 400.405 102.966 411.365C113.791 422.326 120.568 433.021 118.544 435.319C116.52 437.617 105.518 430.634 94.6933 419.762C83.8686 408.89 76.8279 398.107 79.1161 395.809Z" fill="#CA001D"/>
<path d="M79.1161 514.34C81.4922 512.042 92.1417 519.024 102.966 529.985C113.791 540.945 120.568 551.552 118.544 553.939C116.52 556.325 105.518 549.254 94.6933 538.293C83.8686 527.333 76.8279 516.815 79.1161 514.34Z" fill="#CA001D"/>
<path d="M79.1161 632.959C81.4922 630.661 92.1417 637.644 102.966 648.516C113.791 659.387 120.568 670.171 118.544 672.469C116.52 674.767 105.518 667.873 94.6933 656.913C83.8686 645.952 76.8279 635.257 79.1161 632.959Z" fill="#CA001D"/>
<path d="M79.1161 277.191C81.4922 274.893 92.1417 281.788 102.966 292.748C113.791 303.708 120.568 314.403 118.544 316.701C116.52 319 105.518 312.017 94.6933 301.145C83.8686 290.273 76.8279 279.49 79.1161 277.191Z" fill="#CA001D"/>
<path d="M79.1161 395.809C81.4922 393.422 92.1417 400.405 102.966 411.365C113.791 422.326 120.568 433.021 118.544 435.319C116.52 437.617 105.518 430.634 94.6933 419.762C83.8686 408.89 76.8279 398.107 79.1161 395.809Z" fill="#CA001D"/>
<path d="M79.1161 514.34C81.4922 512.042 92.1417 519.024 102.966 529.985C113.791 540.945 120.568 551.552 118.544 553.939C116.52 556.325 105.518 549.254 94.6933 538.293C83.8686 527.333 76.8279 516.815 79.1161 514.34Z" fill="#CA001D"/>
<path d="M79.1161 632.959C81.4922 630.661 92.1417 637.644 102.966 648.516C113.791 659.387 120.568 670.171 118.544 672.469C116.52 674.767 105.518 667.873 94.6933 656.913C83.8686 645.952 76.8279 635.257 79.1161 632.959Z" fill="#CA001D"/>
<path d="M79.1161 277.191C81.4922 274.893 92.1417 281.788 102.966 292.748C113.791 303.708 120.568 314.403 118.544 316.701C116.52 319 105.518 312.017 94.6933 301.145C83.8686 290.273 76.8279 279.49 79.1161 277.191Z" fill="#CA001D"/>
<path d="M79.1161 158.57C81.4922 156.272 92.1417 163.255 102.966 174.127C113.791 184.999 120.568 195.783 118.544 198.081C116.52 200.379 105.518 193.484 94.6933 182.524C83.8686 171.564 76.8279 160.869 79.1161 158.57Z" fill="#CA001D"/>
<path d="M39.7778 79.462C42.0659 81.8485 35.2014 92.5438 24.2886 103.416C13.3759 114.288 2.72754 121.094 0.439382 119.061C-1.84877 117.028 5.10378 105.979 15.9285 95.1071C26.7532 84.2352 37.8416 77.1638 39.7778 79.462Z" fill="#CA001D"/>
<path d="M0.439555 79.4618C2.72771 77.1637 13.4641 84.1467 24.2888 95.107C35.1135 106.067 41.8901 116.674 39.778 119.061C37.6658 121.447 26.8414 114.376 15.9287 103.416C5.01595 92.4553 -1.8486 81.8484 0.439555 79.4618Z" fill="#CA001D"/>
<path d="M79.1162 79.462C81.4923 81.8485 74.5408 92.5438 63.6281 103.416C52.7154 114.288 42.0659 121.094 39.7778 119.061C37.4896 117.028 44.4422 105.979 55.2669 95.1071C66.0916 84.2352 76.828 77.1638 79.1162 79.462Z" fill="#CA001D"/>
<path d="M79.1155 119.012C81.4182 116.699 74.481 105.981 63.6206 95.0737C52.7601 84.1659 42.089 77.1984 39.7863 79.5112C37.4836 81.8239 44.4216 92.5408 55.282 103.449C66.1424 114.356 76.8128 121.325 79.1155 119.012Z" fill="#CA001D"/>
<path d="M157.884 356.21C160.172 353.912 170.908 360.895 181.733 371.855C192.558 382.815 199.334 393.422 197.222 395.809C195.11 398.195 184.286 391.124 173.373 380.164C162.46 369.203 155.595 358.596 157.884 356.21Z" fill="#CA001D"/>
<path d="M157.883 395.809C160.171 398.107 153.219 408.802 142.394 419.762C131.569 430.723 120.833 437.441 118.545 435.319C116.257 433.198 123.121 422.238 134.034 411.366C144.947 400.494 155.595 393.069 157.883 395.809Z" fill="#CA001D"/>
<path d="M157.884 316.7C160.172 314.402 170.908 321.385 181.733 332.257C192.558 343.129 199.334 353.912 197.222 356.211C195.11 358.509 184.286 351.614 173.373 340.654C162.46 329.694 155.595 318.998 157.884 316.7Z" fill="#CA001D"/>
<path d="M197.22 316.7C199.508 318.998 192.643 329.782 181.731 340.654C170.818 351.526 160.169 358.332 157.881 356.211C155.593 354.089 162.546 343.217 173.37 332.257C184.195 321.297 194.932 314.402 197.22 316.7Z" fill="#CA001D"/>
<path d="M157.884 474.83C160.172 472.532 170.908 479.515 181.733 490.387C192.558 501.259 199.334 512.042 197.222 514.34C195.11 516.639 184.286 509.744 173.373 498.784C162.46 487.823 155.595 477.128 157.884 474.83Z" fill="#CA001D"/>
<path d="M157.883 514.34C160.171 516.726 153.219 527.422 142.394 538.293C131.569 549.165 120.833 555.972 118.545 553.939C116.257 551.906 123.121 540.857 134.034 529.985C144.947 519.113 155.595 512.042 157.883 514.34Z" fill="#CA001D"/>
<path d="M157.884 435.319C160.172 433.021 170.908 440.004 181.733 450.876C192.558 461.748 199.334 472.532 197.222 474.83C195.11 477.128 184.286 470.145 173.373 459.273C162.46 448.401 155.595 437.264 157.884 435.319Z" fill="#CA001D"/>
<path d="M197.22 435.319C199.508 437.618 192.643 448.313 181.731 459.273C170.818 470.233 160.169 476.951 157.881 474.83C155.593 472.708 162.546 461.836 173.37 450.876C184.195 439.916 194.932 433.021 197.22 435.319Z" fill="#CA001D"/>
<path d="M157.884 593.45C160.172 591.152 170.908 598.135 181.733 609.007C192.558 619.879 199.334 630.662 197.222 632.961C195.11 635.259 184.286 628.364 173.373 617.404C162.46 606.444 155.595 595.748 157.884 593.45Z" fill="#CA001D"/>
<path d="M157.883 632.958C160.171 635.256 153.219 646.04 142.394 656.912C131.569 667.784 120.833 674.589 118.545 672.468C116.257 670.347 123.121 659.475 134.034 648.515C144.947 637.554 155.595 630.66 157.883 632.958Z" fill="#CA001D"/>
<path d="M157.884 553.939C160.172 551.553 170.908 558.535 181.733 569.496C192.558 580.456 199.334 591.152 197.222 593.45C195.11 595.748 184.286 588.765 173.373 577.893C162.46 567.021 155.595 556.238 157.884 553.939Z" fill="#CA001D"/>
<path d="M197.22 553.939C199.508 556.237 192.643 566.933 181.731 577.893C170.818 588.853 160.169 595.571 157.881 593.45C155.593 591.328 162.546 580.368 173.37 569.496C184.195 558.624 194.932 551.553 197.22 553.939Z" fill="#CA001D"/>
<path d="M157.884 237.592C160.172 235.294 170.908 242.276 181.733 253.237C192.558 264.197 199.334 274.892 197.222 277.19C195.11 279.489 184.286 272.506 173.373 261.634C162.46 250.762 155.595 239.978 157.884 237.592Z" fill="#CA001D"/>
<path d="M157.883 277.191C160.171 279.489 153.219 290.184 142.394 301.144C131.569 312.104 120.833 318.822 118.545 316.701C116.257 314.579 123.121 303.619 134.034 292.747C144.947 281.875 155.595 274.892 157.883 277.191Z" fill="#CA001D"/>
<path d="M157.884 198.082C160.172 195.784 170.908 202.767 181.733 213.639C192.558 224.511 199.334 235.294 197.222 237.592C195.11 239.891 184.286 232.996 173.373 222.036C162.46 211.075 155.595 200.38 157.884 198.082Z" fill="#CA001D"/>
<path d="M197.22 198.081C199.508 200.379 192.643 211.163 181.731 222.035C170.818 232.907 160.169 239.713 157.881 237.591C155.593 235.47 162.546 224.598 173.37 213.638C184.195 202.677 194.932 195.783 197.22 198.081Z" fill="#CA001D"/>
<path d="M157.884 119.061C160.172 116.675 170.908 123.658 181.733 134.618C192.558 145.578 199.334 156.274 197.222 158.572C195.11 160.87 184.286 153.887 173.373 143.015C162.46 132.143 155.595 121.36 157.884 119.061Z" fill="#CA001D"/>
<path d="M197.22 119.061C199.508 121.36 192.643 132.055 181.731 143.015C170.818 153.975 160.169 160.693 157.881 158.572C155.593 156.45 162.546 145.49 173.37 134.618C184.195 123.746 194.932 116.675 197.22 119.061Z" fill="#CA001D"/>
<path d="M197.22 356.21C199.508 358.597 192.643 369.292 181.731 380.164C170.818 391.036 160.169 397.842 157.881 395.809C155.593 393.776 162.546 382.727 173.37 371.855C184.195 360.983 194.932 353.912 197.22 356.21Z" fill="#CA001D"/>
<path d="M197.22 474.83C199.508 477.128 192.643 487.911 181.731 498.783C170.818 509.655 160.169 516.461 157.881 514.34C155.593 512.219 162.546 501.347 173.37 490.386C184.195 479.426 194.932 472.62 197.22 474.83Z" fill="#CA001D"/>
<path d="M197.22 593.45C199.508 595.748 192.643 606.532 181.731 617.404C170.818 628.276 160.169 635.082 157.881 632.961C155.593 630.839 162.546 619.967 173.37 609.007C184.195 598.046 194.932 591.152 197.22 593.45Z" fill="#CA001D"/>
<path d="M181.719 261.586C192.579 250.678 199.517 239.96 197.214 237.647C194.911 235.335 184.241 242.303 173.38 253.21C162.52 264.118 155.582 274.836 157.885 277.148C160.187 279.461 170.858 272.493 181.719 261.586Z" fill="#CA001D"/>
<path d="M197.22 119.061C199.508 121.36 192.643 132.055 181.731 143.015C170.818 153.975 160.169 160.693 157.881 158.572C155.593 156.45 162.546 145.49 173.37 134.618C184.195 123.746 194.932 116.675 197.22 119.061Z" fill="#CA001D"/>
<path d="M157.883 395.809C160.171 398.107 153.219 408.802 142.394 419.762C131.569 430.723 120.833 437.441 118.545 435.319C116.257 433.198 123.121 422.238 134.034 411.366C144.947 400.494 155.595 393.069 157.883 395.809Z" fill="#CA001D"/>
<path d="M157.883 514.34C160.171 516.726 153.219 527.422 142.394 538.293C131.569 549.165 120.833 555.972 118.545 553.939C116.257 551.906 123.121 540.857 134.034 529.985C144.947 519.113 155.595 512.042 157.883 514.34Z" fill="#CA001D"/>
<path d="M157.883 632.958C160.171 635.256 153.219 646.04 142.394 656.912C131.569 667.784 120.833 674.589 118.545 672.468C116.257 670.347 123.121 659.475 134.034 648.515C144.947 637.554 155.595 630.66 157.883 632.958Z" fill="#CA001D"/>
<path d="M157.883 277.191C160.171 279.489 153.219 290.184 142.394 301.144C131.569 312.104 120.833 318.822 118.545 316.701C116.257 314.579 123.121 303.619 134.034 292.747C144.947 281.875 155.595 274.892 157.883 277.191Z" fill="#CA001D"/>
<path d="M157.883 395.809C160.171 398.107 153.219 408.802 142.394 419.762C131.569 430.723 120.833 437.441 118.545 435.319C116.257 433.198 123.121 422.238 134.034 411.366C144.947 400.494 155.595 393.069 157.883 395.809Z" fill="#CA001D"/>
<path d="M157.883 514.34C160.171 516.726 153.219 527.422 142.394 538.293C131.569 549.165 120.833 555.972 118.545 553.939C116.257 551.906 123.121 540.857 134.034 529.985C144.947 519.113 155.595 512.042 157.883 514.34Z" fill="#CA001D"/>
<path d="M157.883 632.958C160.171 635.256 153.219 646.04 142.394 656.912C131.569 667.784 120.833 674.589 118.545 672.468C116.257 670.347 123.121 659.475 134.034 648.515C144.947 637.554 155.595 630.66 157.883 632.958Z" fill="#CA001D"/>
<path d="M157.883 277.191C160.171 279.489 153.219 290.184 142.394 301.144C131.569 312.104 120.833 318.822 118.545 316.701C116.257 314.579 123.121 303.619 134.034 292.747C144.947 281.875 155.595 274.892 157.883 277.191Z" fill="#CA001D"/>
<path d="M157.883 158.572C160.171 160.87 153.219 171.654 142.394 182.526C131.569 193.398 120.833 200.204 118.545 198.083C116.257 195.961 123.121 185.089 134.034 174.129C144.947 163.169 155.595 156.274 157.883 158.572Z" fill="#CA001D"/>
<path d="M157.884 79.4618C160.172 77.1637 170.908 84.1467 181.733 95.107C192.558 106.067 199.334 116.674 197.222 119.061C195.11 121.447 184.286 114.376 173.373 103.416C162.46 92.4553 155.595 81.8484 157.884 79.4618Z" fill="#CA001D"/>
<path d="M197.22 79.462C199.508 81.8485 192.643 92.5438 181.731 103.416C170.818 114.288 160.169 121.094 157.881 119.061C155.593 117.028 162.546 105.979 173.37 95.1071C184.195 84.2352 194.932 77.1638 197.22 79.462Z" fill="#CA001D"/>
<path d="M157.883 39.9522C160.171 42.2503 153.219 53.0341 142.394 63.906C131.569 74.778 120.833 81.5838 118.545 79.4625C116.257 77.3411 123.121 66.4692 134.034 55.5089C144.947 44.5486 155.595 37.6541 157.883 39.9522Z" fill="#CA001D"/>
<path d="M118.545 39.9523C120.833 37.6541 131.481 44.637 142.394 55.509C153.307 66.3809 159.995 77.1644 157.883 79.4625C155.771 81.7607 144.858 74.8664 134.034 63.9061C123.209 52.9458 116.256 42.2504 118.545 39.9523Z" fill="#CA001D"/>
<path d="M103.047 63.9244C113.907 53.0166 120.844 42.2999 118.541 39.9871C116.239 37.6744 105.568 44.6415 94.708 55.5493C83.8475 66.4571 76.91 77.1747 79.2127 79.4875C81.5154 81.8002 92.1863 74.8322 103.047 63.9244Z" fill="#CA001D"/>
<path d="M118.542 79.4877C120.845 77.1749 113.907 66.458 103.046 55.5502C92.1859 44.6424 81.5156 37.6742 79.2129 39.987C76.9102 42.2997 83.8474 53.0174 94.7078 63.9252C105.568 74.833 116.239 81.8004 118.542 79.4877Z" fill="#CA001D"/>
<path d="M157.883 0.441473C160.171 2.73961 153.219 13.435 142.394 24.3953C131.569 35.3556 120.833 42.0731 118.545 39.9517C116.257 37.8304 123.121 26.9585 134.034 15.9982C144.947 5.03783 155.595 -1.85666 157.883 0.441473Z" fill="#CA001D"/>
<path d="M118.545 0.441527C120.833 -1.85661 131.481 5.12627 142.394 15.9982C153.307 26.8702 159.995 37.6536 157.883 39.9518C155.771 42.2499 144.858 35.2673 134.034 24.3954C123.209 13.5234 116.256 2.73966 118.545 0.441527Z" fill="#CA001D"/>
<path d="M118.545 0.441473C120.833 2.73961 113.88 13.435 102.968 24.3953C92.0549 35.3556 81.4934 42.0731 79.1173 39.9517C76.7411 37.8304 83.7817 26.9585 94.6945 15.9982C105.607 5.03783 116.169 -1.85666 118.545 0.441473Z" fill="#CA001D"/>
<path d="M79.1161 0.441527C81.4922 -1.85661 92.1417 5.12627 102.966 15.9982C113.791 26.8702 120.568 37.6536 118.544 39.9518C116.52 42.2499 105.518 35.2673 94.6933 24.3954C83.8686 13.5234 76.8279 2.73966 79.1161 0.441527Z" fill="#CA001D"/>
<path d="M118.544 672.558C121.8 672.558 124.44 663.693 124.44 652.758C124.44 641.823 121.8 632.959 118.544 632.959C115.287 632.959 112.647 641.823 112.647 652.758C112.647 663.693 115.287 672.558 118.544 672.558Z" fill="#CA001D"/>
<path d="M118.544 633.047C121.8 633.047 124.44 624.182 124.44 613.248C124.44 602.313 121.8 593.448 118.544 593.448C115.287 593.448 112.647 602.313 112.647 613.248C112.647 624.182 115.287 633.047 118.544 633.047Z" fill="#CA001D"/>
<path d="M118.544 593.449C121.8 593.449 124.44 584.585 124.44 573.65C124.44 562.715 121.8 553.851 118.544 553.851C115.287 553.851 112.647 562.715 112.647 573.65C112.647 584.585 115.287 593.449 118.544 593.449Z" fill="#CA001D"/>
<path d="M118.544 553.939C121.8 553.939 124.44 545.075 124.44 534.14C124.44 523.205 121.8 514.341 118.544 514.341C115.287 514.341 112.647 523.205 112.647 534.14C112.647 545.075 115.287 553.939 118.544 553.939Z" fill="#CA001D"/>
<path d="M118.544 514.429C121.8 514.429 124.44 505.564 124.44 494.629C124.44 483.695 121.8 474.83 118.544 474.83C115.287 474.83 112.647 483.695 112.647 494.629C112.647 505.564 115.287 514.429 118.544 514.429Z" fill="#CA001D"/>
<path d="M118.544 474.918C121.8 474.918 124.44 466.054 124.44 455.119C124.44 444.184 121.8 435.319 118.544 435.319C115.287 435.319 112.647 444.184 112.647 455.119C112.647 466.054 115.287 474.918 118.544 474.918Z" fill="#CA001D"/>
<path d="M118.544 435.319C121.8 435.319 124.44 426.455 124.44 415.52C124.44 404.585 121.8 395.721 118.544 395.721C115.287 395.721 112.647 404.585 112.647 415.52C112.647 426.455 115.287 435.319 118.544 435.319Z" fill="#CA001D"/>
<path d="M118.544 395.809C121.8 395.809 124.44 386.944 124.44 376.009C124.44 365.074 121.8 356.21 118.544 356.21C115.287 356.21 112.647 365.074 112.647 376.009C112.647 386.944 115.287 395.809 118.544 395.809Z" fill="#CA001D"/>
<path d="M118.544 356.3C121.8 356.3 124.44 347.435 124.44 336.5C124.44 325.566 121.8 316.701 118.544 316.701C115.287 316.701 112.647 325.566 112.647 336.5C112.647 347.435 115.287 356.3 118.544 356.3Z" fill="#CA001D"/>
<path d="M118.544 316.789C121.8 316.789 124.44 307.925 124.44 296.99C124.44 286.055 121.8 277.19 118.544 277.19C115.287 277.19 112.647 286.055 112.647 296.99C112.647 307.925 115.287 316.789 118.544 316.789Z" fill="#CA001D"/>
<path d="M118.544 277.191C121.8 277.191 124.44 268.327 124.44 257.392C124.44 246.457 121.8 237.593 118.544 237.593C115.287 237.593 112.647 246.457 112.647 257.392C112.647 268.327 115.287 277.191 118.544 277.191Z" fill="#CA001D"/>
<path d="M118.544 237.681C121.8 237.681 124.44 228.816 124.44 217.881C124.44 206.946 121.8 198.082 118.544 198.082C115.287 198.082 112.647 206.946 112.647 217.881C112.647 228.816 115.287 237.681 118.544 237.681Z" fill="#CA001D"/>
<path d="M118.544 198.17C121.8 198.17 124.44 189.305 124.44 178.371C124.44 167.436 121.8 158.571 118.544 158.571C115.287 158.571 112.647 167.436 112.647 178.371C112.647 189.305 115.287 198.17 118.544 198.17Z" fill="#CA001D"/>
<path d="M118.544 158.571C121.8 158.571 124.44 149.707 124.44 138.772C124.44 127.837 121.8 118.973 118.544 118.973C115.287 118.973 112.647 127.837 112.647 138.772C112.647 149.707 115.287 158.571 118.544 158.571Z" fill="#CA001D"/>
<path d="M118.544 119.061C121.8 119.061 124.44 110.196 124.44 99.2612C124.44 88.3264 121.8 79.4619 118.544 79.4619C115.287 79.4619 112.647 88.3264 112.647 99.2612C112.647 110.196 115.287 119.061 118.544 119.061Z" fill="#CA001D"/>
</g>
<defs>
<clipPath id="clip0_1216_94736">
<rect width="162" height="673" fill="white"/>
</clipPath>
</defs>
</svg>
