<svg width="1988" height="222" viewBox="0 0 1988 222" fill="none" xmlns="http://www.w3.org/2000/svg">
<path d="M1094.2 44.018C1091.21 64.9476 1093.67 85.8546 1097.55 106.49C1099.15 115.057 1100.99 123.6 1102.3 132.234C1103.47 138.74 1103.79 145.375 1103.26 151.966C1102.01 163.018 1098.44 176.241 1087.72 181.349C1084.46 182.913 1080.85 183.611 1077.25 183.378C1073.64 183.145 1070.16 181.988 1067.11 180.015C1064.26 178.065 1062 175.332 1060.61 172.133C1059.21 168.933 1058.74 165.397 1059.23 161.933C1059.44 159.404 1060.24 156.962 1061.57 154.814C1062.9 152.666 1064.71 150.875 1066.87 149.593C1069.04 148.363 1071.54 147.84 1074.02 148.094C1076.5 148.349 1078.84 149.368 1080.73 151.017C1082.45 152.632 1083.58 154.782 1083.96 157.128C1084.34 159.473 1083.93 161.88 1082.82 163.968C1082.23 165.063 1081.34 165.954 1080.25 166.526C1079.16 167.098 1077.93 167.325 1076.72 167.177C1076.29 167.097 1075.89 166.922 1075.54 166.666C1075.19 166.41 1074.9 166.078 1074.68 165.694C1074.47 165.31 1074.35 164.884 1074.31 164.445C1074.28 164.006 1074.35 163.565 1074.5 163.154C1075.63 160.103 1070.75 156.577 1069.37 159.899C1068.91 161.139 1068.69 162.462 1068.74 163.789C1068.79 165.116 1069.1 166.419 1069.66 167.62C1070.21 168.821 1071 169.896 1071.97 170.779C1072.95 171.662 1074.08 172.336 1075.32 172.76C1078.02 173.587 1080.92 173.349 1083.46 172.092C1085.99 170.835 1087.96 168.653 1088.99 165.979C1093.6 154.678 1084.35 142.27 1072.9 141.75C1061.05 141.207 1053.31 151.401 1052.93 162.747C1052.83 167.387 1053.94 171.971 1056.17 176.021C1058.39 180.072 1061.64 183.441 1065.58 185.779C1069.6 188.174 1074.14 189.502 1078.79 189.64C1083.45 189.779 1088.06 188.723 1092.21 186.57C1099.62 182.637 1104.17 175.269 1106.72 167.29C1108.51 161.827 1109.55 156.137 1109.8 150.384C1109.93 141.522 1109.03 132.676 1107.12 124.03C1102.92 101.427 1097.75 78.8253 1099.22 55.5224C1099.42 52.3355 1099.75 49.1486 1100.19 45.9617C1100.64 42.7748 1094.94 40.0399 1094.38 43.9501L1094.2 44.018Z" fill="#603631"/>
<path d="M934.793 45.3971C938.033 69.1971 933.928 92.6355 929.334 115.961C927.302 125.03 925.93 134.239 925.229 143.513C924.965 149.693 925.517 155.881 926.871 161.911C928.337 169.795 932.058 177.061 937.567 182.796C940.958 186.029 945.091 188.344 949.588 189.529C954.085 190.714 958.802 190.73 963.307 189.576C967.58 188.461 971.488 186.216 974.636 183.069C977.784 179.922 980.061 175.984 981.236 171.653C983.832 161.663 979.949 149.322 970.496 144.53C960.067 139.309 946.442 145.005 944.867 157.368C944.437 160.193 944.804 163.083 945.923 165.704C947.043 168.325 948.869 170.568 951.191 172.173C955.873 175.134 962.73 174.433 965.37 169.054C965.917 167.916 966.223 166.675 966.269 165.409C966.315 164.144 966.1 162.883 965.636 161.708C965.366 160.98 964.867 160.363 964.217 159.954C963.567 159.546 962.802 159.367 962.042 159.448C961.699 159.52 961.376 159.669 961.097 159.883C960.817 160.097 960.587 160.372 960.424 160.687C960.261 161.003 960.168 161.351 960.152 161.707C960.136 162.063 960.198 162.419 960.333 162.747C961.975 167.11 956.095 169.28 953.144 166.838C949.771 164.058 950.414 158.543 952.278 155.108C953.371 153.112 954.988 151.465 956.947 150.351C958.907 149.238 961.132 148.701 963.373 148.802C965.566 148.865 967.701 149.528 969.555 150.721C971.41 151.914 972.915 153.593 973.913 155.583C975.599 158.99 976.265 162.827 975.827 166.617C975.389 170.406 973.867 173.981 971.45 176.896C969.103 179.609 966.129 181.68 962.796 182.924C959.463 184.167 955.878 184.543 952.367 184.016C939.053 182.118 933.639 168.195 931.997 156.577C930.067 142.722 933.439 128.822 936.058 115.306C940.496 92.4774 944.068 69.3555 940.762 46.0979C940.655 45.275 940.284 44.5113 939.706 43.9265C939.127 43.3416 938.375 42.9685 937.567 42.8656C937.204 42.8221 936.836 42.8628 936.491 42.9848C936.145 43.1069 935.832 43.3071 935.574 43.5703C935.315 43.8335 935.119 44.1529 934.999 44.5045C934.879 44.8561 934.839 45.2308 934.882 45.6004L934.793 45.3971Z" fill="#E27A7A"/>
<path d="M1016.63 23.9705C1025.21 49.4501 1023.7 77.3305 1012.43 101.699L1016.87 100.841C1012.58 97.4136 1007.53 95.0939 1002.16 94.0786C996.797 93.0634 991.27 93.3826 986.051 95.0091C981.236 96.6064 976.839 99.2953 973.192 102.874C969.544 106.452 966.741 110.826 964.993 115.668C964.823 116.163 964.751 116.688 964.781 117.212C964.812 117.736 964.945 118.249 965.172 118.72C965.399 119.191 965.716 119.612 966.105 119.957C966.493 120.302 966.945 120.565 967.434 120.73C976.088 124.344 985.622 125.166 994.749 123.084C1003.88 121.003 1012.16 116.118 1018.47 109.09C1021.13 106.016 1016.43 101.338 1013.37 103.914C1009.01 107.61 1005.45 112.189 1002.92 117.36C1000.39 122.531 998.947 128.182 998.677 133.953C998.45 139.927 999.443 145.885 1001.59 151.449C1003.74 157.012 1007 162.061 1011.17 166.274C1011.76 166.961 1012.6 167.389 1013.49 167.469C1014.39 167.549 1015.28 167.275 1015.98 166.703C1019.69 163.4 1022.7 159.366 1024.83 154.844C1026.97 150.322 1028.18 145.406 1028.39 140.394C1028.92 129.093 1025.08 118.086 1021.2 107.576C1020.89 106.653 1020.29 105.866 1019.48 105.347C1018.67 104.828 1017.71 104.61 1016.76 104.728C1016.34 104.821 1015.95 105.006 1015.61 105.27C1015.27 105.534 1014.99 105.87 1014.79 106.256C1014.59 106.641 1014.48 107.067 1014.46 107.502C1014.44 107.937 1014.51 108.371 1014.68 108.774C1016.41 113.742 1019.24 118.244 1022.93 121.939C1026.62 125.635 1031.09 128.429 1036 130.11C1041.13 131.724 1046.57 132.013 1051.84 130.951C1057.11 129.89 1062.04 127.512 1066.18 124.03C1066.58 123.6 1066.84 123.064 1066.95 122.483C1067.06 121.903 1067.01 121.303 1066.8 120.753C1065.44 115.955 1063.03 111.529 1059.77 107.801C1056.51 104.073 1052.46 101.139 1047.94 99.2131C1043.13 97.2281 1037.9 96.5471 1032.76 97.2364C1027.62 97.9257 1022.74 99.9618 1018.6 103.146C1015.83 105.406 1020.16 110.582 1023.04 108.751C1026.44 106.358 1030.35 104.831 1034.45 104.3C1038.54 103.769 1042.71 104.249 1046.58 105.7C1049.95 107.16 1052.94 109.38 1055.33 112.192C1057.73 115.003 1059.46 118.333 1060.41 121.928L1061.01 118.674C1057.74 121.388 1053.86 123.247 1049.72 124.09C1045.59 124.933 1041.31 124.734 1037.26 123.51C1033.59 122.294 1030.23 120.235 1027.45 117.493C1024.68 114.75 1022.55 111.397 1021.24 107.689L1014.76 108.887C1018.25 118.289 1021.93 128.121 1021.62 138.27C1021.48 142.683 1020.45 147.02 1018.59 151.007C1016.72 154.994 1014.07 158.545 1010.79 161.437L1015.61 161.844C1012.13 158.348 1009.42 154.138 1007.66 149.492C1005.9 144.847 1005.13 139.873 1005.4 134.902C1005.75 129.923 1007.09 125.07 1009.34 120.639C1011.6 116.208 1014.72 112.293 1018.51 109.135L1013.41 103.96C1007.94 110.256 1000.67 114.652 992.616 116.532C984.568 118.412 976.143 117.683 968.521 114.447L970.962 119.51C972.434 115.418 974.768 111.705 977.801 108.632C980.833 105.559 984.49 103.2 988.514 101.722C992.823 100.293 997.414 99.9824 1001.87 100.819C1006.33 101.656 1010.51 103.613 1014.03 106.514C1014.37 106.768 1014.77 106.948 1015.18 107.042C1015.59 107.136 1016.02 107.142 1016.44 107.059C1016.86 106.976 1017.25 106.807 1017.6 106.561C1017.95 106.316 1018.25 105.999 1018.47 105.632C1030.56 80.2951 1032.45 49.1267 1021.62 23.089C1021.38 22.3736 1020.91 21.7616 1020.29 21.3516C1019.66 20.9416 1018.92 20.7574 1018.18 20.8288C1017.85 20.8905 1017.53 21.0287 1017.26 21.233C1016.99 21.4372 1016.77 21.7022 1016.61 22.0074C1016.46 22.3127 1016.37 22.6502 1016.36 22.9944C1016.35 23.3385 1016.42 23.6801 1016.56 23.9931L1016.63 23.9705Z" fill="#B2282B"/>
<path d="M938.721 47.9739C947.907 45.6233 957.079 43.2349 966.236 40.8089C980.851 36.9816 995.467 33.1393 1010.08 29.2819L1020.2 26.6147L1018.63 26.4792C1027.5 28.9052 1036.3 31.3311 1045.01 33.7571C1058.99 37.5994 1072.96 41.4194 1086.92 45.2165C1089.26 45.8494 1091.61 46.4595 1093.98 47.0472C1094.62 47.2054 1095.29 47.3861 1095.96 47.5443L1096.47 47.6801C1098.68 48.1999 1096.11 47.6801 1096.67 47.6801C1100.46 48.7198 1100.97 43.1596 1097.62 42.2781C1088.5 39.7693 1079.45 37.0572 1070.35 34.5031C1056.19 30.5402 1042.03 26.6223 1027.86 22.7498C1025.13 22.004 1022.42 21.1677 1019.67 20.4896C1018.55 20.2834 1017.4 20.4009 1016.34 20.8287L1010.86 22.2753C996.924 25.967 982.974 29.6663 969.009 33.373C958.425 36.1983 947.796 38.8877 937.256 41.8712L936.746 42.0069C932.996 43.024 935.414 48.7876 938.721 47.9287L938.721 47.9739Z" fill="#E27A7A"/>
<path d="M1255.19 46.9582C1258.43 70.7809 1254.34 94.2194 1249.75 117.522C1247.71 126.597 1246.34 135.814 1245.65 145.097C1245.36 151.27 1245.91 157.454 1247.29 163.473C1248.75 171.364 1252.47 178.638 1257.98 184.38C1261.39 187.586 1265.53 189.874 1270.02 191.034C1274.52 192.195 1279.23 192.192 1283.72 191.025C1288 189.918 1291.91 187.678 1295.06 184.534C1298.2 181.39 1300.48 177.454 1301.65 173.124C1304.25 163.111 1300.37 150.793 1290.91 146.001C1280.48 140.757 1266.86 146.453 1265.28 158.839C1264.86 161.661 1265.22 164.548 1266.34 167.167C1267.45 169.787 1269.27 172.032 1271.59 173.644C1276.29 176.582 1283.12 175.904 1285.76 170.524C1286.32 169.39 1286.63 168.148 1286.68 166.881C1286.73 165.614 1286.5 164.352 1286.03 163.179C1285.77 162.444 1285.27 161.82 1284.62 161.41C1283.97 160.999 1283.2 160.826 1282.44 160.918C1282.1 160.994 1281.78 161.144 1281.5 161.36C1281.22 161.575 1280.99 161.85 1280.83 162.165C1280.67 162.48 1280.58 162.828 1280.57 163.183C1280.55 163.537 1280.62 163.891 1280.75 164.218C1282.37 168.558 1276.49 170.728 1273.56 168.309C1270.19 165.507 1270.81 160.014 1272.7 156.579C1273.78 154.626 1275.37 153.008 1277.28 151.896C1279.2 150.784 1281.37 150.22 1283.58 150.261C1285.78 150.303 1287.93 150.95 1289.81 152.133C1291.68 153.317 1293.2 154.993 1294.22 156.986C1295.91 160.392 1296.58 164.23 1296.14 168.021C1295.7 171.812 1294.18 175.387 1291.76 178.3C1289.41 181.013 1286.44 183.086 1283.1 184.33C1279.77 185.573 1276.18 185.948 1272.67 185.419C1259.36 183.521 1253.95 169.598 1252.33 157.958C1250.39 144.102 1253.75 130.225 1256.39 116.686C1260.82 93.8804 1264.37 70.7586 1261.07 47.5009C1260.97 46.674 1260.6 45.9051 1260.02 45.3157C1259.44 44.7264 1258.68 44.35 1257.87 44.2461C1257.51 44.2111 1257.15 44.2578 1256.81 44.3829C1256.46 44.508 1256.15 44.7085 1255.9 44.9698C1255.64 45.231 1255.44 45.5466 1255.32 45.8943C1255.2 46.242 1255.15 46.613 1255.19 46.9808L1255.19 46.9582Z" fill="#E27A7A"/>
<path d="M772.188 44.0184C769.192 64.9481 771.655 85.8551 775.539 106.491C777.136 115.057 779 123.601 780.287 132.235C781.458 138.74 781.779 145.375 781.241 151.966C780.021 163.019 776.426 176.241 765.709 181.349C762.441 182.914 758.837 183.612 755.234 183.378C751.63 183.145 748.142 181.989 745.095 180.016C742.241 178.065 739.987 175.333 738.593 172.133C737.199 168.934 736.722 165.398 737.217 161.934C737.44 159.409 738.249 156.973 739.576 154.828C740.903 152.682 742.71 150.888 744.851 149.593C747.029 148.363 749.525 147.84 752.003 148.095C754.482 148.349 756.825 149.369 758.719 151.017C760.437 152.628 761.576 154.779 761.954 157.126C762.332 159.474 761.928 161.882 760.805 163.968C760.224 165.067 759.33 165.962 758.241 166.535C757.152 167.107 755.919 167.331 754.703 167.178C754.28 167.094 753.88 166.917 753.531 166.66C753.181 166.403 752.891 166.071 752.68 165.689C752.469 165.306 752.342 164.881 752.308 164.443C752.274 164.006 752.334 163.566 752.484 163.154C753.638 160.103 748.734 156.577 747.38 159.9C746.914 161.138 746.698 162.46 746.745 163.786C746.792 165.111 747.102 166.414 747.655 167.615C748.208 168.815 748.994 169.89 749.965 170.775C750.935 171.659 752.071 172.334 753.305 172.76C756.003 173.587 758.908 173.349 761.441 172.093C763.974 170.836 765.949 168.653 766.973 165.98C771.589 154.679 762.336 142.27 750.908 141.75C739.037 141.208 731.293 151.401 730.938 162.748C730.824 167.387 731.935 171.972 734.157 176.023C736.378 180.075 739.626 183.444 743.563 185.779C747.582 188.171 752.126 189.496 756.778 189.634C761.43 189.773 766.042 188.719 770.191 186.57C777.58 182.638 782.129 175.269 784.703 167.291C786.474 161.823 787.504 156.135 787.765 150.384C787.889 141.524 786.995 132.679 785.102 124.03C780.886 101.428 775.716 78.8257 777.203 55.5229C777.403 52.336 777.713 49.1491 778.157 45.9622C778.601 42.7753 772.898 40.0404 772.343 43.9506L772.188 44.0184Z" fill="#E27A7A"/>
<path d="M694.614 23.9705C703.19 49.4501 701.686 77.3305 690.42 101.699L694.858 100.841C690.561 97.4136 685.514 95.0939 680.149 94.0787C674.783 93.0634 669.255 93.3826 664.037 95.0091C659.219 96.5959 654.819 99.2814 651.174 102.861C647.529 106.441 644.733 110.821 643.001 115.668C642.827 116.161 642.751 116.686 642.779 117.209C642.807 117.733 642.937 118.246 643.163 118.718C643.388 119.19 643.704 119.611 644.091 119.957C644.479 120.302 644.931 120.565 645.42 120.73C654.073 124.344 663.608 125.166 672.734 123.084C681.861 121.003 690.141 116.118 696.456 109.09C699.118 106.016 694.436 101.338 691.374 103.914C687.007 107.605 683.444 112.182 680.911 117.354C678.378 122.526 676.931 128.179 676.662 133.953C676.435 139.927 677.428 145.885 679.578 151.449C681.729 157.012 684.99 162.061 689.155 166.274C689.75 166.961 690.582 167.389 691.478 167.469C692.375 167.549 693.267 167.275 693.97 166.703C697.68 163.401 700.694 159.368 702.83 154.846C704.966 150.324 706.179 145.408 706.396 140.394C706.907 129.093 703.068 118.086 699.185 107.576C698.88 106.653 698.272 105.866 697.464 105.347C696.655 104.828 695.695 104.61 694.747 104.728C694.331 104.824 693.941 105.011 693.603 105.276C693.266 105.541 692.989 105.878 692.793 106.263C692.596 106.648 692.485 107.072 692.466 107.506C692.447 107.94 692.521 108.372 692.683 108.774C694.413 113.743 697.23 118.246 700.92 121.942C704.611 125.639 709.079 128.432 713.985 130.11C719.119 131.726 724.567 132.016 729.839 130.955C735.11 129.893 740.04 127.514 744.185 124.03C744.575 123.595 744.837 123.058 744.943 122.479C745.049 121.9 744.994 121.302 744.784 120.753C743.424 115.953 741.024 111.526 737.759 107.798C734.495 104.07 730.45 101.136 725.923 99.2131C721.117 97.2281 715.888 96.5471 710.746 97.2364C705.605 97.9257 700.727 99.9618 696.589 103.146C693.815 105.406 698.142 110.582 701.027 108.751C704.418 106.356 708.327 104.828 712.421 104.297C716.515 103.766 720.674 104.247 724.547 105.7C727.911 107.157 730.904 109.376 733.299 112.188C735.694 115 737.429 118.331 738.372 121.928L738.971 118.674C735.699 121.388 731.826 123.247 727.688 124.09C723.55 124.933 719.273 124.734 715.228 123.51C711.549 122.294 708.193 120.235 705.416 117.493C702.639 114.75 700.515 111.397 699.207 107.689L692.75 108.887C696.211 118.289 699.895 128.121 699.584 138.27C699.45 142.666 698.429 146.988 696.585 150.966C694.742 154.943 692.114 158.492 688.867 161.392L693.682 161.799C690.193 158.308 687.476 154.098 685.712 149.452C683.948 144.806 683.178 139.83 683.452 134.857C683.799 129.878 685.141 125.024 687.396 120.593C689.651 116.162 692.772 112.248 696.566 109.09L691.485 103.914C686.004 110.21 678.73 114.604 670.678 116.485C662.626 118.365 654.199 117.637 646.573 114.402L649.014 119.465C650.489 115.375 652.824 111.663 655.856 108.59C658.888 105.518 662.544 103.158 666.566 101.677C670.879 100.25 675.473 99.9404 679.932 100.777C684.392 101.614 688.576 103.57 692.106 106.468C692.448 106.727 692.839 106.909 693.254 107.005C693.669 107.101 694.099 107.107 694.516 107.024C694.934 106.941 695.33 106.771 695.679 106.523C696.028 106.276 696.323 105.957 696.544 105.587C708.638 80.2499 710.524 49.0815 699.695 23.0438C699.458 22.3261 698.988 21.7117 698.363 21.3011C697.739 20.8906 696.996 20.7081 696.256 20.7835C695.923 20.8453 695.609 20.9835 695.337 21.1877C695.065 21.392 694.842 21.657 694.686 21.9622C694.53 22.2675 694.444 22.605 694.435 22.9491C694.427 23.2933 694.495 23.6349 694.636 23.9479L694.614 23.9705Z" fill="#603631"/>
<path d="M696.633 26.2035C705.508 28.7123 714.207 31.1534 723.016 33.5945C736.973 37.4594 750.908 41.3695 764.91 45.1215C767.24 45.7318 769.592 46.4326 771.944 46.975C772.61 47.1333 773.275 47.2688 773.941 47.427C774.607 47.5852 775.805 47.9018 774.651 47.5853C778.468 48.625 778.956 43.0649 775.605 42.1834C766.729 39.765 758.053 37.0754 749.266 34.6343C735.301 30.7618 721.337 26.9268 707.372 23.1296C704.133 22.2482 700.893 21.3895 697.653 20.5306C693.637 19.4683 693.215 25.1864 696.633 26.2035Z" fill="#E27A7A"/>
<path d="M617.606 48.1142C626.464 45.5385 635.135 42.9993 643.901 40.4011C657.788 36.2824 671.68 32.214 685.547 27.9752C687.847 27.2579 690.213 26.606 692.498 25.819C693.147 25.6003 693.784 25.3621 694.433 25.1434C695.082 24.9247 696.267 24.5581 695.12 24.9012C698.909 23.7603 696.486 18.7548 693.176 19.7831C684.365 22.436 675.586 24.7512 666.839 27.3376C652.941 31.4538 639.063 35.602 625.204 39.7826C621.988 40.7519 618.784 41.7408 615.581 42.7294C611.61 43.9572 614.17 49.0621 617.606 48.1142Z" fill="#E27A7A"/>
<path d="M1259.62 49.2067C1268.46 46.5789 1277.12 43.9887 1285.87 41.3389C1299.73 37.1386 1313.6 32.9885 1327.44 28.6682C1329.74 27.9373 1332.1 27.2716 1334.38 26.4711C1335.03 26.2486 1335.67 26.0067 1336.31 25.7841C1336.96 25.5616 1338.14 25.188 1337 25.5379C1340.78 24.3747 1338.33 19.3835 1335.03 20.4313C1326.23 23.136 1317.46 25.5029 1308.73 28.1407C1294.86 32.3387 1281 36.5685 1267.17 40.8305C1263.96 41.8187 1260.76 42.8264 1257.56 43.8339C1253.6 45.085 1256.19 50.1748 1259.62 49.2067Z" fill="#E27A7A"/>
<path d="M856.73 23.9705C865.307 49.4501 863.803 77.3305 852.536 101.699L856.974 100.841C852.681 97.4138 847.639 95.0941 842.277 94.0788C836.914 93.0635 831.39 93.3827 826.175 95.0091C821.358 96.6019 816.959 99.2893 813.311 102.868C809.663 106.447 806.861 110.824 805.117 115.668C804.947 116.163 804.875 116.688 804.905 117.212C804.936 117.736 805.069 118.249 805.296 118.72C805.523 119.191 805.84 119.612 806.229 119.957C806.617 120.302 807.069 120.565 807.558 120.73C816.212 124.344 825.746 125.166 834.873 123.084C844 121.003 852.28 116.118 858.594 109.09C861.257 106.016 856.553 101.338 853.49 103.914C849.127 107.606 845.566 112.184 843.037 117.356C840.508 122.528 839.065 128.181 838.801 133.953C838.568 139.928 839.559 145.887 841.709 151.452C843.86 157.016 847.124 162.064 851.294 166.274C851.889 166.961 852.721 167.389 853.617 167.469C854.513 167.549 855.405 167.275 856.109 166.703C859.832 163.408 862.859 159.377 865.006 154.855C867.154 150.332 868.377 145.413 868.602 140.394C869.134 129.093 865.295 118.086 861.412 107.576C861.104 106.656 860.495 105.871 859.688 105.353C858.88 104.834 857.922 104.614 856.974 104.728C856.557 104.821 856.164 105.006 855.824 105.27C855.484 105.534 855.204 105.87 855.006 106.256C854.807 106.641 854.693 107.067 854.673 107.502C854.653 107.937 854.726 108.371 854.888 108.774C856.626 113.742 859.448 118.244 863.142 121.939C866.836 125.635 871.305 128.429 876.213 130.11C881.343 131.724 886.787 132.013 892.055 130.951C897.323 129.89 902.249 127.512 906.39 124.03C906.784 123.597 907.05 123.061 907.16 122.482C907.269 121.903 907.218 121.304 907.012 120.753C905.648 115.952 903.243 111.524 899.975 107.796C896.707 104.068 892.658 101.135 888.128 99.2131C883.322 97.2281 878.093 96.5471 872.952 97.2364C867.81 97.9257 862.932 99.9618 858.794 103.146C856.042 105.406 860.347 110.582 863.232 108.751C866.628 106.356 870.54 104.828 874.637 104.297C878.735 103.766 882.898 104.247 886.775 105.7C890.134 107.164 893.123 109.386 895.517 112.197C897.911 115.007 899.649 118.335 900.599 121.928L901.198 118.674C897.922 121.388 894.045 123.247 889.904 124.09C885.762 124.933 881.482 124.734 877.433 123.51C873.759 122.289 870.408 120.229 867.635 117.487C864.862 114.745 862.741 111.393 861.434 107.689L854.955 108.887C858.416 118.289 862.1 128.121 861.812 138.27C861.651 142.686 860.594 147.02 858.707 150.999C856.82 154.979 854.145 158.517 850.85 161.392L855.665 161.799C852.184 158.303 849.473 154.093 847.713 149.447C845.953 144.802 845.185 139.828 845.458 134.857C845.804 129.878 847.146 125.024 849.401 120.593C851.657 116.162 854.777 112.248 858.572 109.09L853.468 103.914C847.993 110.211 840.722 114.606 832.674 116.487C824.625 118.367 816.201 117.638 808.579 114.402L810.997 119.465C812.477 115.374 814.816 111.662 817.852 108.59C820.888 105.517 824.546 103.158 828.572 101.677C832.881 100.25 837.471 99.9402 841.927 100.777C846.383 101.614 850.564 103.57 854.09 106.468C854.433 106.723 854.823 106.903 855.238 106.997C855.652 107.091 856.081 107.096 856.497 107.014C856.914 106.931 857.309 106.762 857.658 106.516C858.008 106.271 858.304 105.954 858.528 105.587C870.621 80.2499 872.507 49.0815 861.656 23.0438C861.423 22.3279 860.958 21.7141 860.337 21.3033C859.716 20.8926 858.976 20.7092 858.239 20.7835C857.907 20.8452 857.592 20.9835 857.32 21.1877C857.048 21.392 856.825 21.6569 856.669 21.9622C856.513 22.2674 856.427 22.605 856.419 22.9491C856.41 23.2933 856.478 23.6349 856.619 23.9479L856.73 23.9705Z" fill="#603631"/>
<path d="M778.823 47.9739C787.98 45.6233 797.151 43.2349 806.338 40.8089C820.953 36.9816 835.569 33.1393 850.184 29.2819L860.281 26.6147L858.727 26.4792C867.514 28.9052 876.309 31.3311 885.111 33.7571C899.061 37.5994 913.025 41.4194 927.005 45.2165C929.357 45.8494 931.709 46.4595 934.061 47.0472C934.727 47.2054 935.392 47.3861 936.058 47.5443L936.546 47.6801C938.765 48.1999 936.213 47.6801 936.746 47.6801C940.562 48.7198 941.051 43.1596 937.7 42.2781C928.602 39.7693 919.549 37.0572 910.451 34.5031C896.294 30.5402 882.13 26.6223 867.958 22.7498C865.229 22.004 862.522 21.1677 859.77 20.4896C858.644 20.2851 857.484 20.4025 856.42 20.8287L850.961 22.2753C837.011 25.967 823.061 29.6663 809.111 33.373C798.527 36.1983 787.898 38.8877 777.358 41.8712L776.826 42.0069C773.076 43.024 775.494 48.7876 778.823 47.9287L778.823 47.9739Z" fill="#E27A7A"/>
<path d="M1176.04 24.3756C1184.61 49.863 1183.11 77.7501 1171.84 102.127L1176.28 101.246C1171.99 97.819 1166.95 95.4993 1161.58 94.484C1156.22 93.4687 1150.7 93.7879 1145.48 95.4144C1140.67 97.0116 1136.27 99.7006 1132.62 103.279C1128.98 106.857 1126.17 111.232 1124.42 116.073C1124.25 116.568 1124.18 117.093 1124.21 117.617C1124.24 118.141 1124.38 118.654 1124.6 119.125C1124.83 119.597 1125.15 120.017 1125.54 120.362C1125.92 120.707 1126.38 120.97 1126.87 121.136C1135.52 124.756 1145.05 125.581 1154.18 123.499C1163.31 121.417 1171.59 116.529 1177.9 109.495C1180.56 106.422 1175.86 101.766 1172.8 104.32C1168.44 108.013 1164.88 112.592 1162.35 117.764C1159.82 122.935 1158.38 128.587 1158.11 134.358C1157.88 140.336 1158.87 146.298 1161.02 151.866C1163.17 157.434 1166.43 162.486 1170.6 166.702C1171.2 167.381 1172.04 167.801 1172.93 167.876C1173.82 167.952 1174.71 167.677 1175.42 167.108C1179.12 163.822 1182.14 159.805 1184.28 155.299C1186.43 150.793 1187.65 145.891 1187.89 140.89C1188.42 129.589 1184.58 118.582 1180.7 108.094C1180.39 107.17 1179.79 106.38 1178.98 105.857C1178.17 105.335 1177.21 105.111 1176.26 105.224C1175.84 105.316 1175.45 105.501 1175.11 105.765C1174.77 106.029 1174.49 106.366 1174.29 106.751C1174.09 107.137 1173.98 107.562 1173.96 107.997C1173.94 108.432 1174.01 108.867 1174.17 109.269C1175.91 114.239 1178.73 118.742 1182.42 122.439C1186.12 126.135 1190.59 128.928 1195.5 130.606C1200.63 132.219 1206.07 132.508 1211.34 131.447C1216.61 130.386 1221.53 128.007 1225.68 124.526C1226.07 124.094 1226.34 123.558 1226.45 122.978C1226.56 122.399 1226.51 121.799 1226.3 121.249C1224.93 116.449 1222.52 112.022 1219.26 108.295C1215.99 104.567 1211.94 101.633 1207.41 99.7088C1202.61 97.7238 1197.38 97.0426 1192.24 97.732C1187.1 98.4213 1182.22 100.458 1178.08 103.642C1175.33 105.902 1179.65 111.078 1182.52 109.247C1185.91 106.851 1189.82 105.323 1193.92 104.792C1198.02 104.261 1202.18 104.743 1206.06 106.196C1209.42 107.661 1212.41 109.885 1214.81 112.7C1217.2 115.516 1218.94 118.848 1219.88 122.447L1220.48 119.169C1217.21 121.889 1213.33 123.751 1209.19 124.594C1205.05 125.437 1200.77 125.235 1196.72 124.006C1193.04 122.786 1189.69 120.726 1186.92 117.984C1184.15 115.242 1182.03 111.89 1180.72 108.185L1174.24 109.36C1177.7 118.762 1181.39 128.617 1181.1 138.743C1180.96 143.157 1179.93 147.494 1178.07 151.482C1176.2 155.469 1173.55 159.02 1170.27 161.91L1175.08 162.339C1171.6 158.839 1168.89 154.624 1167.13 149.975C1165.37 145.326 1164.6 140.35 1164.88 135.375C1165.23 130.398 1166.57 125.546 1168.83 121.115C1171.08 116.685 1174.2 112.77 1177.99 109.608L1172.89 104.433C1167.41 110.73 1160.14 115.128 1152.09 117.012C1144.05 118.897 1135.62 118.173 1128 114.943L1130.44 119.983C1131.91 115.892 1134.24 112.179 1137.28 109.105C1140.31 106.032 1143.97 103.673 1147.99 102.195C1152.3 100.78 1156.89 100.477 1161.34 101.313C1165.8 102.15 1169.98 104.099 1173.51 106.987C1173.85 107.241 1174.24 107.421 1174.66 107.515C1175.07 107.609 1175.5 107.615 1175.92 107.532C1176.33 107.449 1176.73 107.28 1177.08 107.034C1177.43 106.789 1177.72 106.472 1177.95 106.105C1190.04 80.7907 1191.93 49.5997 1181.07 23.5619C1180.85 22.8437 1180.38 22.2276 1179.76 21.8163C1179.14 21.4049 1178.4 21.2232 1177.66 21.3017C1177.33 21.3644 1177.02 21.5023 1176.75 21.7051C1176.48 21.9079 1176.26 22.1703 1176.1 22.4727C1175.94 22.775 1175.86 23.1094 1175.85 23.4508C1175.84 23.7921 1175.9 24.1315 1176.04 24.4435L1176.04 24.3756Z" fill="#B2282B"/>
<path d="M1098.13 48.4037C1107.29 46.038 1116.46 43.6423 1125.65 41.2163C1140.26 37.389 1154.88 33.5467 1169.49 29.6893L1179.59 27.0221L1178.03 26.8866L1204.42 34.1644C1218.37 38.0068 1232.33 41.8265 1246.31 45.6236C1248.66 46.2565 1251.02 46.8669 1253.37 47.4545C1254.03 47.6353 1254.7 47.7935 1255.37 47.9517L1255.85 48.0872C1258.07 48.607 1255.52 48.0872 1256.05 48.0872C1259.87 49.1495 1260.36 43.567 1257.01 42.6855C1247.91 40.1767 1238.86 37.4643 1229.76 34.9102C1215.6 30.9473 1201.44 27.0297 1187.27 23.1572C1184.54 22.4113 1181.83 21.575 1179.08 20.897C1177.95 20.704 1176.79 20.8211 1175.73 21.2361L1170.27 22.6824L1128.42 33.7801C1117.83 36.6054 1107.21 39.2951 1096.67 42.2786C1096.49 42.3417 1096.31 42.3944 1096.13 42.4366C1092.41 43.4311 1094.8 49.2176 1098.13 48.3587L1098.13 48.4037Z" fill="#E27A7A"/>
<path d="M1733.77 44.018C1730.77 64.9476 1733.24 85.8546 1737.12 106.49C1738.72 115.057 1740.56 123.6 1741.87 132.234C1743.04 138.74 1743.36 145.375 1742.82 151.966C1741.58 163.018 1738.01 176.241 1727.29 181.349C1724.02 182.913 1720.42 183.611 1716.81 183.378C1713.21 183.145 1709.72 181.988 1706.68 180.015C1703.82 178.065 1701.57 175.332 1700.17 172.133C1698.78 168.933 1698.3 165.397 1698.8 161.933C1699.01 159.404 1699.81 156.962 1701.14 154.814C1702.46 152.666 1704.28 150.875 1706.43 149.593C1708.61 148.363 1711.11 147.84 1713.58 148.094C1716.06 148.349 1718.41 149.368 1720.3 151.017C1722.01 152.632 1723.15 154.782 1723.52 157.128C1723.9 159.473 1723.5 161.88 1722.39 163.968C1721.8 165.063 1720.91 165.954 1719.82 166.526C1718.73 167.098 1717.5 167.325 1716.28 167.177C1715.86 167.097 1715.46 166.922 1715.11 166.666C1714.75 166.41 1714.46 166.078 1714.25 165.694C1714.04 165.31 1713.91 164.884 1713.88 164.445C1713.85 164.006 1713.91 163.565 1714.07 163.154C1715.2 160.103 1710.32 156.577 1708.94 159.899C1708.47 161.139 1708.26 162.462 1708.31 163.789C1708.36 165.116 1708.67 166.419 1709.22 167.62C1709.78 168.821 1710.57 169.896 1711.54 170.779C1712.51 171.662 1713.65 172.336 1714.89 172.76C1717.58 173.587 1720.49 173.349 1723.02 172.092C1725.56 170.835 1727.53 168.653 1728.55 165.979C1733.17 154.678 1723.92 142.27 1712.47 141.75C1700.62 141.207 1692.87 151.401 1692.5 162.747C1692.39 167.387 1693.51 171.971 1695.73 176.021C1697.96 180.072 1701.21 183.441 1705.15 185.779C1709.16 188.174 1713.71 189.502 1718.36 189.64C1723.01 189.779 1727.62 188.723 1731.77 186.57C1739.18 182.637 1743.73 175.269 1746.28 167.29C1748.07 161.827 1749.11 156.137 1749.37 150.384C1749.5 141.522 1748.59 132.676 1746.68 124.03C1742.49 101.427 1737.32 78.8253 1738.78 55.5224C1738.98 52.3355 1739.32 49.1486 1739.76 45.9617C1740.2 42.7748 1734.5 40.0399 1733.95 43.9501L1733.77 44.018Z" fill="#603631"/>
<path d="M1574.36 45.3971C1577.6 69.1971 1573.49 92.6355 1568.9 115.961C1566.87 125.03 1565.5 134.239 1564.8 143.513C1564.53 149.693 1565.08 155.881 1566.44 161.911C1567.9 169.795 1571.62 177.061 1577.13 182.796C1580.52 186.029 1584.66 188.344 1589.15 189.529C1593.65 190.714 1598.37 190.73 1602.87 189.576C1607.15 188.461 1611.05 186.216 1614.2 183.069C1617.35 179.922 1619.63 175.984 1620.8 171.653C1623.4 161.663 1619.52 149.322 1610.06 144.53C1599.63 139.309 1586.01 145.005 1584.43 157.368C1584 160.193 1584.37 163.083 1585.49 165.704C1586.61 168.325 1588.44 170.568 1590.76 172.173C1595.44 175.134 1602.3 174.433 1604.94 169.054C1605.48 167.916 1605.79 166.675 1605.84 165.409C1605.88 164.144 1605.67 162.883 1605.2 161.708C1604.93 160.98 1604.43 160.363 1603.78 159.954C1603.13 159.546 1602.37 159.367 1601.61 159.448C1601.27 159.52 1600.94 159.669 1600.66 159.883C1600.38 160.097 1600.15 160.372 1599.99 160.687C1599.83 161.003 1599.73 161.351 1599.72 161.707C1599.7 162.063 1599.76 162.419 1599.9 162.747C1601.54 167.11 1595.66 169.28 1592.71 166.838C1589.34 164.058 1589.98 158.543 1591.84 155.108C1592.94 153.112 1594.55 151.465 1596.51 150.351C1598.47 149.238 1600.7 148.701 1602.94 148.802C1605.13 148.865 1607.27 149.528 1609.12 150.721C1610.98 151.914 1612.48 153.593 1613.48 155.583C1615.17 158.99 1615.83 162.827 1615.39 166.617C1614.96 170.406 1613.43 173.981 1611.02 176.896C1608.67 179.609 1605.69 181.68 1602.36 182.924C1599.03 184.167 1595.44 184.543 1591.93 184.016C1578.62 182.118 1573.21 168.195 1571.56 156.577C1569.63 142.722 1573.01 128.822 1575.62 115.306C1580.06 92.4774 1583.63 69.3555 1580.33 46.0979C1580.22 45.275 1579.85 44.5113 1579.27 43.9265C1578.69 43.3416 1577.94 42.9685 1577.13 42.8656C1576.77 42.8221 1576.4 42.8628 1576.06 42.9848C1575.71 43.1069 1575.4 43.3071 1575.14 43.5703C1574.88 43.8335 1574.69 44.1529 1574.57 44.5045C1574.45 44.8561 1574.41 45.2308 1574.45 45.6004L1574.36 45.3971Z" fill="#E27A7A"/>
<path d="M1656.19 23.9705C1664.77 49.4501 1663.27 77.3305 1652 101.699L1656.44 100.841C1652.14 97.4136 1647.1 95.0939 1641.73 94.0786C1636.36 93.0634 1630.84 93.3826 1625.62 95.0091C1620.8 96.6064 1616.41 99.2953 1612.76 102.874C1609.11 106.452 1606.31 110.826 1604.56 115.668C1604.39 116.163 1604.32 116.688 1604.35 117.212C1604.38 117.736 1604.51 118.249 1604.74 118.72C1604.97 119.191 1605.28 119.612 1605.67 119.957C1606.06 120.302 1606.51 120.565 1607 120.73C1615.65 124.344 1625.19 125.166 1634.32 123.084C1643.44 121.003 1651.72 116.118 1658.04 109.09C1660.7 106.016 1655.99 101.338 1652.93 103.914C1648.57 107.61 1645.02 112.189 1642.49 117.36C1639.96 122.531 1638.51 128.182 1638.24 133.953C1638.02 139.927 1639.01 145.885 1641.16 151.449C1643.31 157.012 1646.57 162.061 1650.74 166.274C1651.33 166.961 1652.16 167.389 1653.06 167.469C1653.96 167.549 1654.85 167.275 1655.55 166.703C1659.26 163.4 1662.27 159.366 1664.4 154.844C1666.53 150.322 1667.74 145.406 1667.96 140.394C1668.49 129.093 1664.65 118.086 1660.77 107.576C1660.46 106.653 1659.85 105.866 1659.04 105.347C1658.24 104.828 1657.28 104.61 1656.33 104.728C1655.91 104.821 1655.52 105.006 1655.18 105.27C1654.84 105.534 1654.56 105.87 1654.36 106.256C1654.16 106.641 1654.05 107.067 1654.03 107.502C1654.01 107.937 1654.08 108.371 1654.24 108.774C1655.98 113.742 1658.8 118.244 1662.5 121.939C1666.19 125.635 1670.66 128.429 1675.57 130.11C1680.7 131.724 1686.14 132.013 1691.41 130.951C1696.68 129.89 1701.6 127.512 1705.74 124.03C1706.14 123.6 1706.41 123.064 1706.52 122.483C1706.63 121.903 1706.58 121.303 1706.37 120.753C1705 115.955 1702.6 111.529 1699.34 107.801C1696.07 104.073 1692.03 101.139 1687.5 99.2131C1682.7 97.2281 1677.47 96.5471 1672.33 97.2364C1667.19 97.9257 1662.31 99.9618 1658.17 103.146C1655.4 105.406 1659.72 110.582 1662.61 108.751C1666 106.358 1669.92 104.831 1674.01 104.3C1678.11 103.769 1682.27 104.249 1686.15 105.7C1689.51 107.16 1692.5 109.38 1694.9 112.192C1697.29 115.003 1699.03 118.333 1699.97 121.928L1700.57 118.674C1697.3 121.388 1693.43 123.247 1689.29 124.09C1685.15 124.933 1680.88 124.734 1676.83 123.51C1673.15 122.294 1669.8 120.235 1667.02 117.493C1664.24 114.75 1662.12 111.397 1660.81 107.689L1654.33 108.887C1657.81 118.289 1661.5 128.121 1661.19 138.27C1661.05 142.683 1660.02 147.02 1658.15 151.007C1656.29 154.994 1653.64 158.545 1650.36 161.437L1655.17 161.844C1651.69 158.348 1648.98 154.138 1647.22 149.492C1645.46 144.847 1644.69 139.873 1644.97 134.902C1645.31 129.923 1646.66 125.07 1648.91 120.639C1651.17 116.208 1654.29 112.293 1658.08 109.135L1652.98 103.96C1647.5 110.256 1640.23 114.652 1632.18 116.532C1624.13 118.412 1615.71 117.683 1608.09 114.447L1610.53 119.51C1612 115.418 1614.33 111.705 1617.37 108.632C1620.4 105.559 1624.06 103.2 1628.08 101.722C1632.39 100.293 1636.98 99.9824 1641.44 100.819C1645.89 101.656 1650.07 103.613 1653.6 106.514C1653.94 106.768 1654.33 106.948 1654.75 107.042C1655.16 107.136 1655.59 107.142 1656.01 107.059C1656.42 106.976 1656.82 106.807 1657.17 106.561C1657.52 106.316 1657.81 105.999 1658.04 105.632C1670.13 80.2951 1672.02 49.1267 1661.19 23.089C1660.95 22.3736 1660.48 21.7616 1659.85 21.3516C1659.23 20.9416 1658.49 20.7574 1657.75 20.8288C1657.42 20.8905 1657.1 21.0287 1656.83 21.233C1656.56 21.4372 1656.33 21.7022 1656.18 22.0074C1656.02 22.3127 1655.94 22.6502 1655.93 22.9944C1655.92 23.3385 1655.99 23.6801 1656.13 23.9931L1656.19 23.9705Z" fill="#B2282B"/>
<path d="M1578.29 47.9739C1587.47 45.6233 1596.65 43.2349 1605.8 40.8089C1620.42 36.9816 1635.03 33.1393 1649.65 29.2819L1659.77 26.6147L1658.19 26.4792C1667.07 28.9052 1675.86 31.3311 1684.57 33.7571C1698.55 37.5994 1712.53 41.4194 1726.49 45.2165C1728.83 45.8494 1731.18 46.4595 1733.55 47.0472C1734.19 47.2054 1734.86 47.3861 1735.52 47.5443L1736.03 47.6801C1738.25 48.1999 1735.68 47.6801 1736.23 47.6801C1740.03 48.7198 1740.54 43.1596 1737.19 42.2781C1728.07 39.7693 1719.01 37.0572 1709.92 34.5031C1695.76 30.5402 1681.59 26.6223 1667.42 22.7498C1664.69 22.004 1661.99 21.1677 1659.23 20.4896C1658.12 20.2834 1656.96 20.4009 1655.91 20.8287L1650.43 22.2753C1636.49 25.967 1622.54 29.6663 1608.58 33.373C1597.99 36.1983 1587.36 38.8877 1576.82 41.8712L1576.31 42.0069C1572.56 43.024 1574.98 48.7876 1578.29 47.9287L1578.29 47.9739Z" fill="#E27A7A"/>
<path d="M1894.75 46.9582C1897.99 70.7809 1893.91 94.2194 1889.32 117.522C1887.28 126.597 1885.9 135.814 1885.21 145.097C1884.92 151.27 1885.48 157.454 1886.85 163.473C1888.32 171.364 1892.04 178.638 1897.55 184.38C1900.96 187.586 1905.1 189.874 1909.59 191.034C1914.09 192.195 1918.8 192.192 1923.29 191.025C1927.56 189.918 1931.47 187.678 1934.62 184.534C1937.77 181.39 1940.05 177.454 1941.22 173.124C1943.82 163.111 1939.93 150.793 1930.48 146.001C1920.05 140.757 1906.43 146.453 1904.85 158.839C1904.42 161.661 1904.79 164.548 1905.9 167.167C1907.02 169.787 1908.84 172.032 1911.15 173.644C1915.86 176.582 1922.69 175.904 1925.33 170.524C1925.89 169.39 1926.2 168.148 1926.25 166.881C1926.29 165.614 1926.07 164.352 1925.6 163.179C1925.34 162.444 1924.84 161.82 1924.19 161.41C1923.53 160.999 1922.76 160.826 1922 160.918C1921.66 160.994 1921.34 161.144 1921.06 161.36C1920.79 161.575 1920.56 161.85 1920.4 162.165C1920.24 162.48 1920.15 162.828 1920.13 163.183C1920.12 163.537 1920.18 163.891 1920.32 164.218C1921.94 168.558 1916.06 170.728 1913.13 168.309C1909.75 165.507 1910.38 160.014 1912.26 156.579C1913.35 154.626 1914.93 153.008 1916.85 151.896C1918.76 150.784 1920.94 150.22 1923.14 150.261C1925.35 150.303 1927.5 150.95 1929.37 152.133C1931.24 153.317 1932.77 154.993 1933.79 156.986C1935.48 160.392 1936.15 164.23 1935.71 168.021C1935.27 171.812 1933.74 175.387 1931.32 178.3C1928.98 181.013 1926 183.086 1922.67 184.33C1919.34 185.573 1915.75 185.948 1912.24 185.419C1898.93 183.521 1893.51 169.598 1891.89 157.958C1889.96 144.102 1893.31 130.225 1895.95 116.686C1900.39 93.8804 1903.94 70.7586 1900.63 47.5009C1900.53 46.674 1900.16 45.9051 1899.58 45.3157C1899.01 44.7264 1898.25 44.35 1897.44 44.2461C1897.08 44.2111 1896.71 44.2578 1896.37 44.3829C1896.03 44.508 1895.72 44.7085 1895.46 44.9698C1895.21 45.231 1895.01 45.5466 1894.89 45.8943C1894.77 46.242 1894.72 46.613 1894.75 46.9808L1894.75 46.9582Z" fill="#E27A7A"/>
<path d="M1411.75 44.0184C1408.76 64.9481 1411.22 85.8551 1415.11 106.491C1416.7 115.057 1418.57 123.601 1419.85 132.235C1421.02 138.74 1421.35 145.375 1420.81 151.966C1419.59 163.019 1415.99 176.241 1405.28 181.349C1402.01 182.914 1398.4 183.612 1394.8 183.378C1391.2 183.145 1387.71 181.989 1384.66 180.016C1381.81 178.065 1379.55 175.333 1378.16 172.133C1376.77 168.934 1376.29 165.398 1376.78 161.934C1377.01 159.409 1377.81 156.973 1379.14 154.828C1380.47 152.682 1382.28 150.888 1384.42 149.593C1386.6 148.363 1389.09 147.84 1391.57 148.095C1394.05 148.349 1396.39 149.369 1398.29 151.017C1400 152.628 1401.14 154.779 1401.52 157.126C1401.9 159.474 1401.49 161.882 1400.37 163.968C1399.79 165.067 1398.9 165.962 1397.81 166.535C1396.72 167.107 1395.49 167.331 1394.27 167.178C1393.85 167.094 1393.45 166.917 1393.1 166.66C1392.75 166.403 1392.46 166.071 1392.25 165.689C1392.04 165.306 1391.91 164.881 1391.87 164.443C1391.84 164.006 1391.9 163.566 1392.05 163.154C1393.2 160.103 1388.3 156.577 1386.95 159.9C1386.48 161.138 1386.26 162.46 1386.31 163.786C1386.36 165.111 1386.67 166.414 1387.22 167.615C1387.77 168.815 1388.56 169.89 1389.53 170.775C1390.5 171.659 1391.64 172.334 1392.87 172.76C1395.57 173.587 1398.47 173.349 1401.01 172.093C1403.54 170.836 1405.52 168.653 1406.54 165.98C1411.16 154.679 1401.9 142.27 1390.47 141.75C1378.6 141.208 1370.86 151.401 1370.5 162.748C1370.39 167.387 1371.5 171.972 1373.72 176.023C1375.94 180.075 1379.19 183.444 1383.13 185.779C1387.15 188.171 1391.69 189.496 1396.34 189.634C1401 189.773 1405.61 188.719 1409.76 186.57C1417.15 182.638 1421.7 175.269 1424.27 167.291C1426.04 161.823 1427.07 156.135 1427.33 150.384C1427.46 141.524 1426.56 132.679 1424.67 124.03C1420.45 101.428 1415.28 78.8257 1416.77 55.5229C1416.97 52.336 1417.28 49.1491 1417.72 45.9622C1418.17 42.7753 1412.46 40.0404 1411.91 43.9506L1411.75 44.0184Z" fill="#E27A7A"/>
<path d="M1334.18 23.9705C1342.76 49.4501 1341.25 77.3305 1329.99 101.699L1334.42 100.841C1330.13 97.4136 1325.08 95.0939 1319.71 94.0787C1314.35 93.0634 1308.82 93.3826 1303.6 95.0091C1298.78 96.5959 1294.39 99.2814 1290.74 102.861C1287.1 106.441 1284.3 110.821 1282.57 115.668C1282.39 116.161 1282.32 116.686 1282.35 117.209C1282.37 117.733 1282.5 118.246 1282.73 118.718C1282.95 119.19 1283.27 119.611 1283.66 119.957C1284.05 120.302 1284.5 120.565 1284.99 120.73C1293.64 124.344 1303.17 125.166 1312.3 123.084C1321.43 121.003 1329.71 116.118 1336.02 109.09C1338.68 106.016 1334 101.338 1330.94 103.914C1326.57 107.605 1323.01 112.182 1320.48 117.354C1317.94 122.526 1316.5 128.179 1316.23 133.953C1316 139.927 1316.99 145.885 1319.14 151.449C1321.3 157.012 1324.56 162.061 1328.72 166.274C1329.32 166.961 1330.15 167.389 1331.04 167.469C1331.94 167.549 1332.83 167.275 1333.54 166.703C1337.25 163.401 1340.26 159.368 1342.4 154.846C1344.53 150.324 1345.75 145.408 1345.96 140.394C1346.47 129.093 1342.63 118.086 1338.75 107.576C1338.45 106.653 1337.84 105.866 1337.03 105.347C1336.22 104.828 1335.26 104.61 1334.31 104.728C1333.9 104.824 1333.51 105.011 1333.17 105.276C1332.83 105.541 1332.56 105.878 1332.36 106.263C1332.16 106.648 1332.05 107.072 1332.03 107.506C1332.01 107.94 1332.09 108.372 1332.25 108.774C1333.98 113.743 1336.8 118.246 1340.49 121.942C1344.18 125.639 1348.64 128.432 1353.55 130.11C1358.69 131.726 1364.13 132.016 1369.41 130.955C1374.68 129.893 1379.61 127.514 1383.75 124.03C1384.14 123.595 1384.4 123.058 1384.51 122.479C1384.62 121.9 1384.56 121.302 1384.35 120.753C1382.99 115.953 1380.59 111.526 1377.33 107.798C1374.06 104.07 1370.02 101.136 1365.49 99.2131C1360.68 97.2281 1355.45 96.5471 1350.31 97.2364C1345.17 97.9257 1340.29 99.9618 1336.16 103.146C1333.38 105.406 1337.71 110.582 1340.59 108.751C1343.98 106.356 1347.89 104.828 1351.99 104.297C1356.08 103.766 1360.24 104.247 1364.11 105.7C1367.48 107.157 1370.47 109.376 1372.87 112.188C1375.26 115 1377 118.331 1377.94 121.928L1378.54 118.674C1375.27 121.388 1371.39 123.247 1367.25 124.09C1363.12 124.933 1358.84 124.734 1354.79 123.51C1351.12 122.294 1347.76 120.235 1344.98 117.493C1342.21 114.75 1340.08 111.397 1338.77 107.689L1332.32 108.887C1335.78 118.289 1339.46 128.121 1339.15 138.27C1339.02 142.666 1338 146.988 1336.15 150.966C1334.31 154.943 1331.68 158.492 1328.43 161.392L1333.25 161.799C1329.76 158.308 1327.04 154.098 1325.28 149.452C1323.51 144.806 1322.74 139.83 1323.02 134.857C1323.37 129.878 1324.71 125.024 1326.96 120.593C1329.22 116.162 1332.34 112.248 1336.13 109.09L1331.05 103.914C1325.57 110.21 1318.3 114.604 1310.24 116.485C1302.19 118.365 1293.77 117.637 1286.14 114.402L1288.58 119.465C1290.05 115.375 1292.39 111.663 1295.42 108.59C1298.45 105.518 1302.11 103.158 1306.13 101.677C1310.45 100.25 1315.04 99.9404 1319.5 100.777C1323.96 101.614 1328.14 103.57 1331.67 106.468C1332.01 106.727 1332.41 106.909 1332.82 107.005C1333.24 107.101 1333.66 107.107 1334.08 107.024C1334.5 106.941 1334.9 106.771 1335.25 106.523C1335.59 106.276 1335.89 105.957 1336.11 105.587C1348.2 80.2499 1350.09 49.0815 1339.26 23.0438C1339.02 22.3261 1338.55 21.7117 1337.93 21.3011C1337.31 20.8906 1336.56 20.7081 1335.82 20.7835C1335.49 20.8453 1335.18 20.9835 1334.9 21.1877C1334.63 21.392 1334.41 21.657 1334.25 21.9622C1334.1 22.2675 1334.01 22.605 1334 22.9491C1333.99 23.2933 1334.06 23.6349 1334.2 23.9479L1334.18 23.9705Z" fill="#603631"/>
<path d="M1336.2 26.2035C1345.08 28.7123 1353.77 31.1534 1362.58 33.5945C1376.54 37.4594 1390.48 41.3695 1404.48 45.1215C1406.81 45.7318 1409.16 46.4326 1411.51 46.975C1412.18 47.1333 1412.84 47.2688 1413.51 47.427C1414.17 47.5852 1415.37 47.9018 1414.22 47.5853C1418.03 48.625 1418.52 43.0649 1415.17 42.1834C1406.3 39.765 1397.62 37.0754 1388.83 34.6343C1374.87 30.7618 1360.9 26.9268 1346.94 23.1296C1343.7 22.2482 1340.46 21.3895 1337.22 20.5306C1333.2 19.4683 1332.78 25.1864 1336.2 26.2035Z" fill="#E27A7A"/>
<path d="M1496.3 23.9705C1504.87 49.4501 1503.37 77.3305 1492.1 101.699L1496.54 100.841C1492.25 97.4138 1487.21 95.0941 1481.84 94.0788C1476.48 93.0635 1470.96 93.3827 1465.74 95.0091C1460.92 96.6019 1456.53 99.2893 1452.88 102.868C1449.23 106.447 1446.43 110.824 1444.68 115.668C1444.51 116.163 1444.44 116.688 1444.47 117.212C1444.5 117.736 1444.64 118.249 1444.86 118.72C1445.09 119.191 1445.41 119.612 1445.8 119.957C1446.18 120.302 1446.64 120.565 1447.12 120.73C1455.78 124.344 1465.31 125.166 1474.44 123.084C1483.57 121.003 1491.85 116.118 1498.16 109.09C1500.82 106.016 1496.12 101.338 1493.06 103.914C1488.69 107.606 1485.13 112.184 1482.6 117.356C1480.07 122.528 1478.63 128.181 1478.37 133.953C1478.13 139.928 1479.12 145.887 1481.28 151.452C1483.43 157.016 1486.69 162.064 1490.86 166.274C1491.46 166.961 1492.29 167.389 1493.18 167.469C1494.08 167.549 1494.97 167.275 1495.68 166.703C1499.4 163.408 1502.43 159.377 1504.57 154.855C1506.72 150.332 1507.94 145.413 1508.17 140.394C1508.7 129.093 1504.86 118.086 1500.98 107.576C1500.67 106.656 1500.06 105.871 1499.25 105.353C1498.45 104.834 1497.49 104.614 1496.54 104.728C1496.12 104.821 1495.73 105.006 1495.39 105.27C1495.05 105.534 1494.77 105.87 1494.57 106.256C1494.37 106.641 1494.26 107.067 1494.24 107.502C1494.22 107.937 1494.29 108.371 1494.45 108.774C1496.19 113.742 1499.01 118.244 1502.71 121.939C1506.4 125.635 1510.87 128.429 1515.78 130.11C1520.91 131.724 1526.35 132.013 1531.62 130.951C1536.89 129.89 1541.82 127.512 1545.96 124.03C1546.35 123.597 1546.62 123.061 1546.73 122.482C1546.84 121.903 1546.78 121.304 1546.58 120.753C1545.21 115.952 1542.81 111.524 1539.54 107.796C1536.27 104.068 1532.22 101.135 1527.69 99.2131C1522.89 97.2281 1517.66 96.5471 1512.52 97.2364C1507.38 97.9257 1502.5 99.9618 1498.36 103.146C1495.61 105.406 1499.91 110.582 1502.8 108.751C1506.19 106.356 1510.11 104.828 1514.2 104.297C1518.3 103.766 1522.46 104.247 1526.34 105.7C1529.7 107.164 1532.69 109.386 1535.08 112.197C1537.48 115.007 1539.22 118.335 1540.17 121.928L1540.76 118.674C1537.49 121.388 1533.61 123.247 1529.47 124.09C1525.33 124.933 1521.05 124.734 1517 123.51C1513.33 122.289 1509.97 120.229 1507.2 117.487C1504.43 114.745 1502.31 111.393 1501 107.689L1494.52 108.887C1497.98 118.289 1501.67 128.121 1501.38 138.27C1501.22 142.686 1500.16 147.02 1498.27 150.999C1496.39 154.979 1493.71 158.517 1490.42 161.392L1495.23 161.799C1491.75 158.303 1489.04 154.093 1487.28 149.447C1485.52 144.802 1484.75 139.828 1485.02 134.857C1485.37 129.878 1486.71 125.024 1488.97 120.593C1491.22 116.162 1494.34 112.248 1498.14 109.09L1493.03 103.914C1487.56 110.211 1480.29 114.606 1472.24 116.487C1464.19 118.367 1455.77 117.638 1448.15 114.402L1450.56 119.465C1452.04 115.374 1454.38 111.662 1457.42 108.59C1460.45 105.517 1464.11 103.158 1468.14 101.677C1472.45 100.25 1477.04 99.9402 1481.49 100.777C1485.95 101.614 1490.13 103.57 1493.66 106.468C1494 106.723 1494.39 106.903 1494.8 106.997C1495.22 107.091 1495.65 107.096 1496.06 107.014C1496.48 106.931 1496.88 106.762 1497.22 106.516C1497.57 106.271 1497.87 105.954 1498.09 105.587C1510.19 80.2499 1512.07 49.0815 1501.22 23.0438C1500.99 22.3279 1500.52 21.7141 1499.9 21.3033C1499.28 20.8926 1498.54 20.7092 1497.81 20.7835C1497.47 20.8452 1497.16 20.9835 1496.89 21.1877C1496.61 21.392 1496.39 21.6569 1496.24 21.9622C1496.08 22.2674 1495.99 22.605 1495.98 22.9491C1495.98 23.2933 1496.04 23.6349 1496.19 23.9479L1496.3 23.9705Z" fill="#603631"/>
<path d="M1418.39 47.9739C1427.55 45.6233 1436.72 43.2349 1445.9 40.8089C1460.52 36.9816 1475.14 33.1393 1489.75 29.2819L1499.85 26.6147L1498.29 26.4792C1507.08 28.9052 1515.88 31.3311 1524.68 33.7571C1538.63 37.5994 1552.59 41.4194 1566.57 45.2165C1568.92 45.8494 1571.28 46.4595 1573.63 47.0472C1574.29 47.2054 1574.96 47.3861 1575.62 47.5443L1576.11 47.6801C1578.33 48.1999 1575.78 47.6801 1576.31 47.6801C1580.13 48.7198 1580.62 43.1596 1577.27 42.2781C1568.17 39.7693 1559.12 37.0572 1550.02 34.5031C1535.86 30.5402 1521.7 26.6223 1507.52 22.7498C1504.8 22.004 1502.09 21.1677 1499.34 20.4896C1498.21 20.2851 1497.05 20.4025 1495.99 20.8287L1490.53 22.2753C1476.58 25.967 1462.63 29.6663 1448.68 33.373C1438.09 36.1983 1427.46 38.8877 1416.92 41.8712L1416.39 42.0069C1412.64 43.024 1415.06 48.7876 1418.39 47.9287L1418.39 47.9739Z" fill="#E27A7A"/>
<path d="M1815.6 24.3756C1824.18 49.863 1822.68 77.7501 1811.41 102.127L1815.85 101.246C1811.56 97.819 1806.51 95.4993 1801.15 94.484C1795.79 93.4687 1790.26 93.7879 1785.05 95.4144C1780.23 97.0116 1775.84 99.7006 1772.19 103.279C1768.54 106.857 1765.74 111.232 1763.99 116.073C1763.82 116.568 1763.75 117.093 1763.78 117.617C1763.81 118.141 1763.94 118.654 1764.17 119.125C1764.4 119.597 1764.71 120.017 1765.1 120.362C1765.49 120.707 1765.94 120.97 1766.43 121.136C1775.08 124.756 1784.62 125.581 1793.75 123.499C1802.88 121.417 1811.16 116.529 1817.47 109.495C1820.13 106.422 1815.43 101.766 1812.36 104.32C1808 108.013 1804.44 112.592 1801.91 117.764C1799.39 122.935 1797.94 128.587 1797.67 134.358C1797.44 140.336 1798.44 146.298 1800.59 151.866C1802.74 157.434 1806 162.486 1810.17 166.702C1810.77 167.381 1811.6 167.801 1812.5 167.876C1813.39 167.952 1814.28 167.677 1814.98 167.108C1818.69 163.822 1821.71 159.805 1823.85 155.299C1825.99 150.793 1827.22 145.891 1827.45 140.89C1827.99 129.589 1824.15 118.582 1820.26 108.094C1819.96 107.17 1819.35 106.38 1818.54 105.857C1817.74 105.335 1816.78 105.111 1815.83 105.224C1815.41 105.316 1815.02 105.501 1814.68 105.765C1814.34 106.029 1814.06 106.366 1813.86 106.751C1813.66 107.137 1813.55 107.562 1813.52 107.997C1813.5 108.432 1813.58 108.867 1813.74 109.269C1815.48 114.239 1818.3 118.742 1821.99 122.439C1825.68 126.135 1830.16 128.928 1835.06 130.606C1840.2 132.219 1845.64 132.508 1850.91 131.447C1856.17 130.386 1861.1 128.007 1865.24 124.526C1865.64 124.094 1865.91 123.558 1866.02 122.978C1866.13 122.399 1866.07 121.799 1865.86 121.249C1864.5 116.449 1862.09 112.022 1858.82 108.295C1855.56 104.567 1851.51 101.633 1846.98 99.7088C1842.17 97.7238 1836.94 97.0426 1831.8 97.732C1826.66 98.4213 1821.78 100.458 1817.65 103.642C1814.89 105.902 1819.22 111.078 1822.08 109.247C1825.48 106.851 1829.39 105.323 1833.49 104.792C1837.59 104.261 1841.75 104.743 1845.63 106.196C1848.99 107.661 1851.98 109.885 1854.37 112.7C1856.77 115.516 1858.51 118.848 1859.45 122.447L1860.05 119.169C1856.78 121.889 1852.9 123.751 1848.76 124.594C1844.61 125.437 1840.33 125.235 1836.28 124.006C1832.61 122.786 1829.26 120.726 1826.49 117.984C1823.71 115.242 1821.59 111.89 1820.29 108.185L1813.81 109.36C1817.27 118.762 1820.95 128.617 1820.66 138.743C1820.53 143.157 1819.5 147.494 1817.63 151.482C1815.77 155.469 1813.11 159.02 1809.83 161.91L1814.65 162.339C1811.17 158.839 1808.46 154.624 1806.7 149.975C1804.94 145.326 1804.17 140.35 1804.44 135.375C1804.79 130.398 1806.14 125.546 1808.39 121.115C1810.65 116.685 1813.77 112.77 1817.56 109.608L1812.45 104.433C1806.98 110.73 1799.71 115.128 1791.66 117.012C1783.61 118.897 1775.19 118.173 1767.56 114.943L1770 119.983C1771.48 115.892 1773.81 112.179 1776.84 109.105C1779.88 106.032 1783.53 103.673 1787.56 102.195C1791.87 100.78 1796.45 100.477 1800.91 101.313C1805.36 102.15 1809.54 104.099 1813.07 106.987C1813.42 107.241 1813.81 107.421 1814.22 107.515C1814.64 107.609 1815.07 107.615 1815.48 107.532C1815.9 107.449 1816.29 107.28 1816.64 107.034C1816.99 106.789 1817.29 106.472 1817.51 106.105C1829.61 80.7907 1831.49 49.5997 1820.64 23.5619C1820.41 22.8437 1819.95 22.2276 1819.32 21.8163C1818.7 21.4049 1817.96 21.2232 1817.22 21.3017C1816.89 21.3644 1816.58 21.5023 1816.31 21.7051C1816.04 21.9079 1815.82 22.1703 1815.67 22.4727C1815.51 22.775 1815.42 23.1094 1815.41 23.4508C1815.4 23.7921 1815.47 24.1315 1815.6 24.4435L1815.6 24.3756Z" fill="#B2282B"/>
<path d="M1737.7 48.4037C1746.85 46.038 1756.03 43.6423 1765.21 41.2163C1779.83 37.389 1794.44 33.5467 1809.06 29.6893L1819.15 27.0221L1817.6 26.8866L1843.98 34.1644C1857.93 38.0068 1871.9 41.8265 1885.88 45.6236C1888.23 46.2565 1890.58 46.8669 1892.93 47.4545C1893.6 47.6353 1894.27 47.7935 1894.93 47.9517L1895.42 48.0872C1897.64 48.607 1895.09 48.0872 1895.62 48.0872C1899.44 49.1495 1899.92 43.567 1896.57 42.6855C1887.48 40.1767 1878.42 37.4643 1869.33 34.9102C1855.17 30.9473 1841 27.0297 1826.83 23.1572C1824.1 22.4113 1821.4 21.575 1818.64 20.897C1817.52 20.704 1816.36 20.8211 1815.29 21.2361L1809.84 22.6824L1767.99 33.7801C1757.4 36.6054 1746.77 39.2951 1736.23 42.2786C1736.06 42.3417 1735.88 42.3944 1735.7 42.4366C1731.97 43.4311 1734.37 49.2176 1737.7 48.3587L1737.7 48.4037Z" fill="#E27A7A"/>
<path d="M451.43 44.018C448.434 64.9476 450.897 85.8546 454.78 106.49C456.378 115.057 458.22 123.6 459.529 132.234C460.699 138.74 461.02 145.375 460.483 151.966C459.24 163.018 455.668 176.241 444.95 181.349C441.682 182.913 438.079 183.611 434.475 183.378C430.871 183.145 427.384 181.988 424.336 180.015C421.483 178.065 419.229 175.332 417.835 172.133C416.441 168.933 415.964 165.397 416.459 161.933C416.666 159.404 417.467 156.962 418.796 154.814C420.125 152.666 421.941 150.875 424.092 149.593C426.271 148.363 428.767 147.84 431.245 148.094C433.724 148.349 436.067 149.368 437.961 151.017C439.672 152.632 440.806 154.782 441.184 157.128C441.562 159.473 441.161 161.88 440.046 163.968C439.461 165.063 438.566 165.954 437.479 166.526C436.391 167.098 435.16 167.325 433.944 167.177C433.519 167.097 433.117 166.922 432.766 166.666C432.414 166.41 432.123 166.078 431.911 165.694C431.699 165.31 431.573 164.884 431.541 164.445C431.509 164.006 431.572 163.565 431.725 163.154C432.857 160.103 427.975 156.577 426.599 159.899C426.134 161.139 425.919 162.462 425.967 163.789C426.016 165.116 426.327 166.419 426.883 167.62C427.438 168.821 428.226 169.896 429.199 170.779C430.173 171.662 431.311 172.336 432.546 172.76C435.244 173.587 438.149 173.349 440.682 172.092C443.215 170.835 445.191 168.653 446.215 165.979C450.831 154.678 441.578 142.27 430.128 141.75C418.278 141.207 410.534 151.401 410.157 162.747C410.053 167.387 411.171 171.971 413.395 176.021C415.619 180.072 418.869 183.441 422.805 185.779C426.822 188.174 431.367 189.502 436.02 189.64C440.673 189.779 445.285 188.723 449.433 186.57C456.844 182.637 461.393 175.269 463.945 167.29C465.734 161.827 466.772 156.137 467.029 150.384C467.156 141.522 466.255 132.676 464.344 124.03C460.15 101.427 454.98 78.8253 456.444 55.5224C456.644 52.3355 456.977 49.1486 457.421 45.9617C457.865 42.7748 452.162 40.0399 451.607 43.9501L451.43 44.018Z" fill="#603631"/>
<path d="M292.02 45.3971C295.259 69.1971 291.154 92.6355 286.561 115.961C284.529 125.03 283.157 134.239 282.456 143.513C282.191 149.693 282.744 155.881 284.098 161.911C285.563 169.795 289.284 177.061 294.793 182.796C298.184 186.029 302.317 188.344 306.814 189.529C311.311 190.714 316.028 190.73 320.533 189.576C324.806 188.461 328.714 186.216 331.863 183.069C335.011 179.922 337.288 175.984 338.462 171.653C341.058 161.663 337.175 149.322 327.722 144.53C317.293 139.309 303.669 145.005 302.094 157.368C301.664 160.193 302.03 163.083 303.15 165.704C304.269 168.325 306.096 170.568 308.418 172.173C313.1 175.134 319.956 174.433 322.597 169.054C323.144 167.916 323.45 166.675 323.496 165.409C323.542 164.144 323.326 162.883 322.863 161.708C322.593 160.98 322.094 160.363 321.443 159.954C320.793 159.546 320.028 159.367 319.268 159.448C318.926 159.52 318.603 159.669 318.323 159.883C318.044 160.097 317.814 160.372 317.65 160.687C317.487 161.003 317.394 161.351 317.379 161.707C317.363 162.063 317.425 162.419 317.56 162.747C319.202 167.11 313.321 169.28 310.37 166.838C306.997 164.058 307.641 158.543 309.505 155.108C310.598 153.112 312.214 151.465 314.174 150.351C316.133 149.238 318.358 148.701 320.6 148.802C322.792 148.865 324.927 149.528 326.782 150.721C328.636 151.914 330.142 153.593 331.14 155.583C332.826 158.99 333.491 162.827 333.053 166.617C332.615 170.406 331.093 173.981 328.677 176.896C326.33 179.609 323.355 181.68 320.022 182.924C316.69 184.167 313.105 184.543 309.594 184.016C296.28 182.118 290.866 168.195 289.224 156.577C287.293 142.722 290.666 128.822 293.284 115.306C297.722 92.4774 301.295 69.3555 297.989 46.0979C297.882 45.275 297.51 44.5113 296.932 43.9265C296.354 43.3416 295.602 42.9685 294.793 42.8656C294.43 42.8221 294.062 42.8628 293.717 42.9848C293.372 43.1069 293.058 43.3071 292.8 43.5703C292.542 43.8335 292.345 44.1529 292.225 44.5045C292.106 44.8561 292.066 45.2308 292.108 45.6004L292.02 45.3971Z" fill="#E27A7A"/>
<path d="M373.855 23.9705C382.432 49.4501 380.927 77.3305 369.661 101.699L374.099 100.841C369.802 97.4136 364.756 95.0939 359.39 94.0786C354.024 93.0634 348.497 93.3826 343.278 95.0091C338.463 96.6064 334.066 99.2953 330.418 102.874C326.771 106.452 323.968 110.826 322.22 115.668C322.049 116.163 321.977 116.688 322.008 117.212C322.039 117.736 322.171 118.249 322.399 118.72C322.626 119.191 322.943 119.612 323.331 119.957C323.72 120.302 324.171 120.565 324.661 120.73C333.314 124.344 342.849 125.166 351.976 123.084C361.102 121.003 369.382 116.118 375.697 109.09C378.359 106.016 373.655 101.338 370.593 103.914C366.233 107.61 362.676 112.189 360.147 117.36C357.618 122.531 356.173 128.182 355.904 133.953C355.676 139.927 356.669 145.885 358.82 151.449C360.97 157.012 364.231 162.061 368.396 166.274C368.991 166.961 369.823 167.389 370.719 167.469C371.616 167.549 372.508 167.275 373.211 166.703C376.918 163.4 379.929 159.366 382.061 154.844C384.193 150.322 385.402 145.406 385.615 140.394C386.148 129.093 382.309 118.086 378.426 107.576C378.121 106.653 377.513 105.866 376.705 105.347C375.896 104.828 374.937 104.61 373.988 104.728C373.57 104.821 373.178 105.006 372.838 105.27C372.497 105.534 372.218 105.87 372.019 106.256C371.821 106.641 371.707 107.067 371.687 107.502C371.667 107.937 371.74 108.371 371.902 108.774C373.64 113.742 376.462 118.244 380.156 121.939C383.85 125.635 388.319 128.429 393.226 130.11C398.357 131.724 403.801 132.013 409.069 130.951C414.337 129.89 419.263 127.512 423.404 124.03C423.802 123.6 424.071 123.064 424.181 122.483C424.291 121.903 424.237 121.303 424.025 120.753C422.663 115.955 420.261 111.529 416.997 107.801C413.732 104.073 409.689 101.139 405.164 99.2131C400.358 97.2281 395.129 96.5471 389.988 97.2364C384.846 97.9257 379.968 99.9618 375.83 103.146C373.056 105.406 377.383 110.582 380.268 108.751C383.664 106.358 387.576 104.831 391.674 104.3C395.771 103.769 399.934 104.249 403.811 105.7C407.172 107.16 410.164 109.38 412.559 112.192C414.954 115.003 416.689 118.333 417.635 121.928L418.234 118.674C414.962 121.388 411.089 123.247 406.951 124.09C402.813 124.933 398.536 124.734 394.491 123.51C390.812 122.294 387.456 120.235 384.679 117.493C381.902 114.75 379.778 111.397 378.47 107.689L371.991 108.887C375.475 118.289 379.158 128.121 378.848 138.27C378.709 142.683 377.676 147.02 375.812 151.007C373.949 154.994 371.295 158.545 368.019 161.437L372.834 161.844C369.353 158.348 366.642 154.138 364.882 149.492C363.122 144.847 362.354 139.873 362.627 134.902C362.973 129.923 364.315 125.07 366.571 120.639C368.826 116.208 371.946 112.293 375.741 109.135L370.637 103.96C365.162 110.256 357.892 114.652 349.843 116.532C341.794 118.412 333.37 117.683 325.748 114.447L328.189 119.51C329.66 115.418 331.995 111.705 335.027 108.632C338.06 105.559 341.717 103.2 345.741 101.722C350.049 100.293 354.64 99.9824 359.097 100.819C363.553 101.656 367.734 103.613 371.259 106.514C371.602 106.768 371.992 106.948 372.407 107.042C372.821 107.136 373.25 107.142 373.666 107.059C374.083 106.976 374.478 106.807 374.828 106.561C375.177 106.316 375.473 105.999 375.697 105.632C387.79 80.2951 389.676 49.1267 378.848 23.089C378.607 22.3736 378.136 21.7616 377.512 21.3516C376.889 20.9416 376.147 20.7574 375.408 20.8288C375.076 20.8905 374.761 21.0287 374.489 21.233C374.217 21.4372 373.995 21.7022 373.838 22.0074C373.682 22.3127 373.596 22.6502 373.588 22.9944C373.579 23.3385 373.648 23.6801 373.788 23.9931L373.855 23.9705Z" fill="#B2282B"/>
<path d="M295.947 47.9739C305.134 45.6233 314.305 43.2349 323.462 40.8089C338.078 36.9816 352.693 33.1393 367.309 29.2819L377.427 26.6147L375.852 26.4792C384.727 28.9052 393.522 31.3311 402.235 33.7571C416.214 37.5994 430.186 41.4194 444.151 45.2165C446.488 45.8494 448.84 46.4595 451.207 47.0472C451.851 47.2054 452.517 47.3861 453.182 47.5443L453.693 47.6801C455.912 48.1999 453.338 47.6801 453.892 47.6801C457.687 48.7198 458.197 43.1596 454.846 42.2781C445.727 39.7693 436.673 37.0572 427.575 34.5031C413.419 30.5402 399.254 26.6223 385.083 22.7498C382.353 22.004 379.646 21.1677 376.895 20.4896C375.776 20.2834 374.623 20.4009 373.566 20.8287L368.085 22.2753C354.15 25.967 340.2 29.6663 326.236 33.373C315.651 36.1983 305.023 38.8877 294.483 41.8712L293.972 42.0069C290.222 43.024 292.641 48.7876 295.947 47.9287L295.947 47.9739Z" fill="#E27A7A"/>
<path d="M612.414 46.9582C615.654 70.7809 611.571 94.2194 606.978 117.522C604.937 126.597 603.564 135.814 602.873 145.097C602.585 151.27 603.138 157.454 604.515 163.473C605.976 171.364 609.697 178.638 615.21 184.38C618.616 187.586 622.755 189.874 627.251 191.034C631.747 192.195 636.456 192.192 640.95 191.025C645.224 189.918 649.133 187.678 652.282 184.534C655.431 181.39 657.707 177.454 658.879 173.124C661.475 163.111 657.592 150.793 648.139 146.001C637.71 140.757 624.086 146.453 622.511 158.839C622.084 161.661 622.449 164.548 623.564 167.167C624.679 169.787 626.499 172.032 628.812 173.644C633.517 176.582 640.351 175.904 642.991 170.524C643.548 169.39 643.86 168.148 643.906 166.881C643.952 165.614 643.731 164.352 643.258 163.179C642.997 162.444 642.5 161.82 641.848 161.41C641.195 160.999 640.425 160.826 639.663 160.918C639.322 160.994 639.002 161.144 638.725 161.36C638.448 161.575 638.221 161.85 638.06 162.165C637.899 162.48 637.808 162.828 637.794 163.183C637.779 163.537 637.842 163.891 637.977 164.218C639.596 168.558 633.716 170.728 630.787 168.309C627.414 165.507 628.036 160.014 629.922 156.579C631.01 154.626 632.595 153.008 634.51 151.896C636.425 150.784 638.599 150.22 640.803 150.261C643.007 150.303 645.159 150.95 647.032 152.133C648.905 153.317 650.43 154.993 651.446 156.986C653.138 160.392 653.806 164.23 653.368 168.021C652.93 171.812 651.405 175.387 648.983 178.3C646.637 181.013 643.663 183.086 640.33 184.33C636.997 185.573 633.411 185.948 629.9 185.419C616.586 183.521 611.172 169.598 609.552 157.958C607.621 144.102 610.972 130.225 613.613 116.686C618.05 93.8804 621.601 70.7586 618.295 47.5009C618.192 46.674 617.823 45.9051 617.244 45.3157C616.666 44.7264 615.911 44.35 615.099 44.2461C614.738 44.2111 614.374 44.2578 614.033 44.3829C613.691 44.508 613.381 44.7085 613.125 44.9698C612.868 45.231 612.672 45.5466 612.549 45.8943C612.426 46.242 612.38 46.613 612.414 46.9808L612.414 46.9582Z" fill="#E27A7A"/>
<path d="M129.415 44.0184C126.419 64.9481 128.882 85.8551 132.765 106.491C134.363 115.057 136.227 123.601 137.514 132.235C138.684 138.74 139.005 145.375 138.468 151.966C137.247 163.019 133.653 176.241 122.935 181.349C119.667 182.914 116.064 183.612 112.46 183.378C108.856 183.145 105.369 181.989 102.321 180.016C99.4675 178.065 97.2136 175.333 95.8198 172.133C94.4259 168.934 93.9489 165.398 94.4439 161.934C94.6669 159.409 95.4751 156.973 96.8021 154.828C98.1291 152.682 99.937 150.888 102.077 149.593C104.256 148.363 106.752 147.84 109.23 148.095C111.709 148.349 114.052 149.369 115.946 151.017C117.664 152.628 118.803 154.779 119.181 157.126C119.559 159.474 119.154 161.882 118.031 163.968C117.45 165.067 116.557 165.962 115.468 166.535C114.379 167.107 113.145 167.331 111.929 167.178C111.506 167.094 111.106 166.917 110.757 166.66C110.408 166.403 110.118 166.071 109.907 165.689C109.696 165.306 109.569 164.881 109.535 164.443C109.501 164.006 109.561 163.566 109.71 163.154C110.864 160.103 105.96 156.577 104.607 159.9C104.14 161.138 103.924 162.46 103.972 163.786C104.019 165.111 104.328 166.414 104.882 167.615C105.435 168.815 106.22 169.89 107.191 170.775C108.162 171.659 109.298 172.334 110.531 172.76C113.229 173.587 116.134 173.349 118.667 172.093C121.2 170.836 123.176 168.653 124.2 165.98C128.815 154.679 119.562 142.27 108.135 141.75C96.2634 141.208 88.5192 151.401 88.1642 162.748C88.0503 167.387 89.1621 171.972 91.3831 176.023C93.6042 180.075 96.8531 183.444 100.79 185.779C104.809 188.171 109.352 189.496 114.005 189.634C118.657 189.773 123.269 188.719 127.418 186.57C134.807 182.638 139.355 175.269 141.929 167.291C143.7 161.823 144.731 156.135 144.992 150.384C145.115 141.524 144.222 132.679 142.329 124.03C138.113 101.428 132.943 78.8257 134.429 55.5229C134.629 52.336 134.94 49.1491 135.384 45.9622C135.827 42.7753 130.125 40.0404 129.57 43.9506L129.415 44.0184Z" fill="#E27A7A"/>
<path d="M51.8403 23.9705C60.417 49.4501 58.9128 77.3305 47.6465 101.699L52.0844 100.841C47.7871 97.4136 42.741 95.0939 37.3751 94.0787C32.0092 93.0634 26.482 93.3826 21.2631 95.0091C16.4451 96.5959 12.0459 99.2814 8.40065 102.861C4.75536 106.441 1.96001 110.821 0.227394 115.668C0.0532103 116.161 -0.0221625 116.686 0.00562064 117.209C0.0334038 117.733 0.163783 118.246 0.38917 118.718C0.614558 119.19 0.93038 119.611 1.31798 119.957C1.70558 120.302 2.15717 120.565 2.64611 120.73C11.2999 124.344 20.8341 125.166 29.961 123.084C39.0878 121.003 47.3676 116.118 53.6821 109.09C56.3448 106.016 51.6628 101.338 48.6006 103.914C44.2338 107.605 40.6702 112.182 38.1372 117.354C35.6042 122.526 34.1573 128.179 33.889 133.953C33.6616 139.927 34.6546 145.885 36.805 151.449C38.9554 157.012 42.2165 162.061 46.3817 166.274C46.9769 166.961 47.8087 167.389 48.705 167.469C49.6013 167.549 50.4934 167.275 51.1968 166.703C54.9066 163.401 57.9205 159.368 60.0563 154.846C62.1921 150.324 63.4055 145.408 63.6229 140.394C64.1333 129.093 60.2945 118.086 56.4113 107.576C56.1067 106.653 55.4987 105.866 54.6902 105.347C53.8816 104.828 52.922 104.61 51.9734 104.728C51.5577 104.824 51.1675 105.011 50.83 105.276C50.4924 105.541 50.2157 105.878 50.0192 106.263C49.8228 106.648 49.7111 107.072 49.6922 107.506C49.6733 107.94 49.7476 108.372 49.9098 108.774C51.6396 113.743 54.4564 118.246 58.1469 121.942C61.8375 125.639 66.3051 128.432 71.2118 130.11C76.346 131.726 81.7939 132.016 87.0654 130.955C92.337 129.893 97.2669 127.514 101.412 124.03C101.801 123.595 102.063 123.058 102.169 122.479C102.275 121.9 102.22 121.302 102.011 120.753C100.651 115.953 98.2501 111.526 94.9856 107.798C91.7211 104.07 87.6763 101.136 83.1498 99.2131C78.3439 97.2281 73.1146 96.5471 67.973 97.2364C62.8313 97.9257 57.9532 99.9618 53.8152 103.146C51.0415 105.406 55.3685 110.582 58.2531 108.751C61.6449 106.356 65.5532 104.828 69.6474 104.297C73.7416 103.766 77.901 104.247 81.774 105.7C85.1372 107.157 88.1302 109.376 90.5256 112.188C92.9209 115 94.6557 118.331 95.5981 121.928L96.1972 118.674C92.9252 121.388 89.0521 123.247 84.9144 124.09C80.7767 124.933 76.4995 124.734 72.4544 123.51C68.7756 122.294 65.4192 120.235 62.6422 117.493C59.8652 114.75 57.7414 111.397 56.4335 107.689L49.9764 108.887C53.438 118.289 57.1214 128.121 56.8107 138.27C56.6765 142.666 55.6557 146.988 53.8119 150.966C51.9682 154.943 49.3408 158.492 46.0932 161.392L50.9084 161.799C47.4198 158.308 44.7026 154.098 42.9386 149.452C41.1746 144.806 40.4042 139.83 40.679 134.857C41.0254 129.878 42.3674 125.024 44.6226 120.593C46.8778 116.162 49.9985 112.248 53.793 109.09L48.7116 103.914C43.2307 110.21 35.9564 114.604 27.9047 116.485C19.8529 118.365 11.4257 117.637 3.79995 114.402L6.24081 119.465C7.71514 115.375 10.0503 111.663 13.0824 108.59C16.1145 105.518 19.7702 103.158 23.7927 101.677C28.1054 100.25 32.6992 99.9404 37.1587 100.777C41.6182 101.614 45.8024 103.57 49.3329 106.468C49.6746 106.727 50.0654 106.909 50.4803 107.005C50.8952 107.101 51.3251 107.107 51.7426 107.024C52.1602 106.941 52.5561 106.771 52.9054 106.523C53.2545 106.276 53.5493 105.957 53.7708 105.587C65.8641 80.2499 67.7502 49.0815 56.9217 23.0438C56.6843 22.3261 56.2148 21.7117 55.59 21.3011C54.9652 20.8906 54.2221 20.7081 53.4823 20.7835C53.1498 20.8453 52.8356 20.9835 52.5635 21.1877C52.2915 21.392 52.0689 21.657 51.9126 21.9622C51.7564 22.2675 51.6706 22.605 51.6619 22.9491C51.6532 23.2933 51.7218 23.6349 51.8625 23.9479L51.8403 23.9705Z" fill="#603631"/>
<path d="M53.8601 26.2035C62.7359 28.7123 71.4342 31.1534 80.2435 33.5945C94.2007 37.4594 108.136 41.3695 122.137 45.1215C124.467 45.7318 126.819 46.4326 129.171 46.975C129.837 47.1333 130.503 47.2688 131.168 47.427C131.834 47.5852 133.032 47.9018 131.878 47.5853C135.695 48.625 136.183 43.0649 132.833 42.1834C123.957 39.765 115.281 37.0754 106.494 34.6343C92.529 30.7618 78.5644 26.9268 64.5998 23.1296C61.3601 22.2482 58.1204 21.3895 54.8808 20.5306C50.8645 19.4683 50.4429 25.1864 53.8601 26.2035Z" fill="#E27A7A"/>
<path d="M213.957 23.9705C222.533 49.4501 221.029 77.3305 209.763 101.699L214.201 100.841C209.908 97.4138 204.865 95.0941 199.503 94.0788C194.141 93.0635 188.617 93.3827 183.402 95.0091C178.584 96.6019 174.185 99.2893 170.537 102.868C166.889 106.447 164.087 110.824 162.344 115.668C162.173 116.163 162.101 116.688 162.132 117.212C162.163 117.736 162.295 118.249 162.523 118.72C162.75 119.191 163.067 119.612 163.455 119.957C163.844 120.302 164.295 120.565 164.785 120.73C173.438 124.344 182.973 125.166 192.099 123.084C201.226 121.003 209.506 116.118 215.821 109.09C218.483 106.016 213.779 101.338 210.717 103.914C206.353 107.606 202.793 112.184 200.264 117.356C197.735 122.528 196.292 128.181 196.028 133.953C195.795 139.928 196.785 145.887 198.936 151.452C201.087 157.016 204.351 162.064 208.52 166.274C209.115 166.961 209.947 167.389 210.844 167.469C211.74 167.549 212.632 167.275 213.335 166.703C217.058 163.408 220.085 159.377 222.233 154.855C224.38 150.332 225.603 145.413 225.828 140.394C226.361 129.093 222.522 118.086 218.639 107.576C218.33 106.656 217.722 105.871 216.914 105.353C216.106 104.834 215.149 104.614 214.201 104.728C213.783 104.821 213.39 105.006 213.05 105.27C212.71 105.534 212.431 105.87 212.232 106.256C212.033 106.641 211.92 107.067 211.9 107.502C211.879 107.937 211.953 108.371 212.115 108.774C213.853 113.742 216.675 118.244 220.369 121.939C224.062 125.635 228.531 128.429 233.439 130.11C238.57 131.724 244.014 132.013 249.282 130.951C254.549 129.89 259.476 127.512 263.617 124.03C264.01 123.597 264.276 123.061 264.386 122.482C264.496 121.903 264.445 121.304 264.238 120.753C262.874 115.952 260.47 111.524 257.201 107.796C253.933 104.068 249.885 101.135 245.355 99.2131C240.549 97.2281 235.32 96.5471 230.178 97.2364C225.036 97.9257 220.158 99.9618 216.02 103.146C213.269 105.406 217.574 110.582 220.458 108.751C223.854 106.356 227.766 104.828 231.864 104.297C235.962 103.766 240.125 104.247 244.001 105.7C247.36 107.164 250.349 109.386 252.744 112.197C255.138 115.007 256.875 118.335 257.825 121.928L258.425 118.674C255.148 121.388 251.271 123.247 247.13 124.09C242.989 124.933 238.708 124.734 234.659 123.51C230.986 122.289 227.634 120.229 224.862 117.487C222.089 114.745 219.968 111.393 218.661 107.689L212.181 108.887C215.643 118.289 219.327 128.121 219.038 138.27C218.877 142.686 217.82 147.02 215.934 150.999C214.047 154.979 211.372 158.517 208.076 161.392L212.892 161.799C209.41 158.303 206.7 154.093 204.94 149.447C203.18 144.802 202.411 139.828 202.684 134.857C203.031 129.878 204.373 125.024 206.628 120.593C208.883 116.162 212.004 112.248 215.798 109.09L210.695 103.914C205.219 110.211 197.949 114.606 189.9 116.487C181.852 118.367 173.427 117.638 165.805 114.402L168.224 119.465C169.703 115.374 172.043 111.662 175.079 108.59C178.114 105.517 181.773 103.158 185.798 101.677C190.107 100.25 194.698 99.9402 199.154 100.777C203.61 101.614 207.79 103.57 211.316 106.468C211.659 106.723 212.05 106.903 212.464 106.997C212.878 107.091 213.307 107.096 213.724 107.014C214.14 106.931 214.536 106.762 214.885 106.516C215.234 106.271 215.53 105.954 215.754 105.587C227.847 80.2499 229.733 49.0815 218.883 23.0438C218.65 22.3279 218.184 21.7141 217.563 21.3033C216.942 20.8926 216.202 20.7092 215.466 20.7835C215.133 20.8452 214.819 20.9835 214.547 21.1877C214.275 21.392 214.052 21.6569 213.896 21.9622C213.74 22.2674 213.654 22.605 213.645 22.9491C213.636 23.2933 213.705 23.6349 213.846 23.9479L213.957 23.9705Z" fill="#603631"/>
<path d="M136.049 47.9739C145.206 45.6233 154.378 43.2349 163.564 40.8089C178.18 36.9816 192.795 33.1393 207.411 29.2819L217.507 26.6147L215.954 26.4792C224.741 28.9052 233.535 31.3311 242.337 33.7571C256.287 37.5994 270.252 41.4194 284.231 45.2165C286.583 45.8494 288.935 46.4595 291.287 47.0472C291.953 47.2054 292.619 47.3861 293.284 47.5443L293.773 47.6801C295.992 48.1999 293.44 47.6801 293.972 47.6801C297.789 48.7198 298.277 43.1596 294.926 42.2781C285.829 39.7693 276.775 37.0572 267.678 34.5031C253.521 30.5402 239.356 26.6223 225.185 22.7498C222.455 22.004 219.748 21.1677 216.997 20.4896C215.871 20.2851 214.711 20.4025 213.646 20.8287L208.188 22.2753C194.238 25.967 180.288 29.6663 166.338 33.373C155.754 36.1983 145.125 38.8877 134.585 41.8712L134.052 42.0069C130.302 43.024 132.721 48.7876 136.049 47.9287L136.049 47.9739Z" fill="#E27A7A"/>
<path d="M533.264 24.3756C541.84 49.863 540.336 77.7501 529.07 102.127L533.508 101.246C529.215 97.819 524.173 95.4993 518.811 94.484C513.448 93.4687 507.925 93.7879 502.709 95.4144C497.894 97.0116 493.497 99.7006 489.85 103.279C486.202 106.857 483.399 111.232 481.651 116.073C481.481 116.568 481.409 117.093 481.44 117.617C481.47 118.141 481.603 118.654 481.83 119.125C482.057 119.597 482.374 120.017 482.763 120.362C483.151 120.707 483.603 120.97 484.092 121.136C492.745 124.756 502.281 125.581 511.409 123.499C520.538 121.417 528.817 116.529 535.128 109.495C537.791 106.422 533.087 101.766 530.025 104.32C525.663 108.013 522.104 112.592 519.575 117.764C517.046 122.935 515.602 128.587 515.335 134.358C515.105 140.336 516.096 146.298 518.247 151.866C520.397 157.434 523.66 162.486 527.828 166.702C528.429 167.381 529.262 167.801 530.156 167.876C531.051 167.952 531.94 167.677 532.643 167.108C536.351 163.822 539.368 159.805 541.511 155.299C543.654 150.793 544.88 145.891 545.114 140.89C545.646 129.589 541.807 118.582 537.924 108.094C537.62 107.17 537.013 106.38 536.205 105.857C535.397 105.335 534.437 105.111 533.486 105.224C533.068 105.316 532.676 105.501 532.336 105.765C531.996 106.029 531.716 106.366 531.518 106.751C531.319 107.137 531.205 107.562 531.185 107.997C531.165 108.432 531.238 108.867 531.4 109.269C533.135 114.239 535.956 118.742 539.651 122.439C543.345 126.135 547.815 128.928 552.725 130.606C557.855 132.219 563.299 132.508 568.567 131.447C573.835 130.386 578.761 128.007 582.902 124.526C583.298 124.094 583.566 123.558 583.676 122.978C583.785 122.399 583.733 121.799 583.524 121.249C582.157 116.449 579.751 112.022 576.483 108.295C573.215 104.567 569.168 101.633 564.64 99.7088C559.834 97.7238 554.605 97.0426 549.464 97.732C544.322 98.4213 539.444 100.458 535.306 103.642C532.554 105.902 536.881 111.078 539.744 109.247C543.139 106.851 547.052 105.323 551.149 104.792C555.247 104.261 559.41 104.743 563.287 106.196C566.649 107.661 569.64 109.885 572.035 112.7C574.43 115.516 576.165 118.848 577.111 122.447L577.71 119.169C574.436 121.889 570.559 123.751 566.417 124.594C562.275 125.437 557.993 125.235 553.945 124.006C550.27 122.786 546.918 120.726 544.145 117.984C541.372 115.242 539.252 111.89 537.946 108.185L531.467 109.36C534.928 118.762 538.612 128.617 538.324 138.743C538.188 143.157 537.156 147.494 535.292 151.482C533.428 155.469 530.773 159.02 527.495 161.91L532.31 162.339C528.83 158.839 526.12 154.624 524.36 149.975C522.6 145.326 521.831 140.35 522.103 135.375C522.455 130.398 523.799 125.546 526.054 121.115C528.308 116.685 531.426 112.77 535.217 109.608L530.113 104.433C524.639 110.73 517.37 115.128 509.321 117.012C501.273 118.897 492.849 118.173 485.224 114.943L487.665 119.983C489.136 115.892 491.471 112.179 494.503 109.105C497.536 106.032 501.193 103.673 505.217 102.195C509.527 100.78 514.115 100.477 518.569 101.313C523.023 102.15 527.203 104.099 530.735 106.987C531.077 107.241 531.468 107.421 531.883 107.515C532.297 107.609 532.726 107.615 533.142 107.532C533.559 107.449 533.954 107.28 534.304 107.034C534.653 106.789 534.949 106.472 535.172 106.105C547.266 80.7907 549.152 49.5997 538.301 23.5619C538.072 22.8437 537.607 22.2276 536.985 21.8163C536.363 21.4049 535.622 21.2232 534.884 21.3017C534.555 21.3644 534.243 21.5023 533.973 21.7051C533.704 21.9079 533.483 22.1703 533.327 22.4727C533.171 22.775 533.084 23.1094 533.073 23.4508C533.063 23.7921 533.128 24.1315 533.264 24.4435L533.264 24.3756Z" fill="#B2282B"/>
<path d="M455.357 48.4037C464.514 46.038 473.686 43.6423 482.872 41.2163C497.488 37.389 512.103 33.5467 526.718 29.6893L536.815 27.0221L535.262 26.8866L561.645 34.1644C575.595 38.0068 589.559 41.8265 603.539 45.6236C605.891 46.2565 608.243 46.8669 610.595 47.4545C611.261 47.6353 611.926 47.7935 612.592 47.9517L613.08 48.0872C615.299 48.607 612.747 48.0872 613.28 48.0872C617.096 49.1495 617.585 43.567 614.234 42.6855C605.136 40.1767 596.083 37.4643 586.985 34.9102C572.828 30.9473 558.664 27.0297 544.492 23.1572C541.763 22.4113 539.056 21.575 536.304 20.897C535.178 20.704 534.021 20.8211 532.954 21.2361L527.495 22.6824L485.646 33.7801C475.061 36.6054 464.433 39.2951 453.893 42.2786C453.718 42.3417 453.54 42.3944 453.36 42.4366C449.632 43.4311 452.029 49.2176 455.357 48.3587L455.357 48.4037Z" fill="#E27A7A"/>
</svg>
