<svg width="520" height="520" viewBox="0 0 520 520" fill="none" xmlns="http://www.w3.org/2000/svg">
<g opacity="0.5" clip-path="url(#clip0_1216_95661)">
<path d="M275.299 214.174C277.074 215.95 271.679 224.214 263.279 232.682C254.878 241.151 246.546 246.341 244.77 244.702C242.994 243.063 248.321 234.594 256.79 226.194C265.259 217.794 273.523 212.398 275.299 214.174Z" fill="#B2001A"/>
<path d="M244.769 214.173C246.545 212.397 254.809 217.724 263.278 226.193C271.747 234.662 276.937 242.925 275.298 244.701C273.659 246.477 265.19 241.082 256.789 232.681C248.389 224.281 242.925 215.949 244.769 214.173Z" fill="#B2001A"/>
<path d="M275.298 244.702C277.074 246.478 271.679 254.81 263.278 263.21C254.878 271.611 246.545 276.87 244.77 275.23C242.994 273.591 248.321 265.191 256.79 256.722C265.258 248.254 273.523 242.927 275.298 244.702Z" fill="#B2001A"/>
<path d="M275.27 275.263C277.057 273.476 271.673 265.196 263.245 256.768C254.817 248.34 246.536 242.956 244.749 244.743C242.962 246.53 248.346 254.811 256.774 263.239C265.202 271.667 273.483 277.05 275.27 275.263Z" fill="#B2001A"/>
<path d="M275.299 275.23C277.074 277.005 271.679 285.337 263.279 293.738C254.878 302.138 246.546 307.397 244.77 305.826C242.994 304.255 248.321 295.718 256.79 287.25C265.259 278.781 273.523 273.454 275.299 275.23Z" fill="#B2001A"/>
<path d="M244.769 275.231C246.545 273.455 254.809 278.85 263.278 287.251C271.747 295.651 276.937 303.983 275.298 305.827C273.659 307.671 265.19 302.207 256.789 293.739C248.389 285.27 242.925 277.006 244.769 275.231Z" fill="#B2001A"/>
<path d="M305.826 275.229C304.051 277.005 295.787 271.678 287.319 263.209C278.85 254.741 273.659 246.477 275.299 244.701C276.938 242.926 285.406 248.321 293.806 256.721C302.207 265.122 307.602 273.454 305.826 275.229Z" fill="#B2001A"/>
<path d="M305.826 244.702C307.602 246.478 302.274 254.81 293.806 263.21C285.337 271.611 277.074 276.87 275.298 275.23C273.522 273.591 278.918 265.191 287.318 256.722C295.718 248.254 303.982 242.927 305.826 244.702Z" fill="#B2001A"/>
<path d="M244.769 275.229C242.925 277.005 234.662 271.678 226.262 263.209C217.861 254.741 212.603 246.477 214.173 244.701C215.744 242.926 224.282 248.321 232.682 256.721C241.082 265.122 246.545 273.454 244.769 275.229Z" fill="#B2001A"/>
<path d="M244.77 244.702C246.545 246.478 241.151 254.81 232.682 263.21C224.214 271.611 216.018 276.87 214.174 275.23C212.33 273.591 217.793 265.191 226.262 256.722C234.731 248.254 242.926 242.927 244.77 244.702Z" fill="#B2001A"/>
<path d="M183.645 397.409C185.421 399.253 180.025 407.517 171.625 415.917C163.225 424.318 154.893 429.576 153.117 428.006C151.342 426.435 156.737 417.898 165.137 409.498C173.538 401.097 181.87 395.634 183.645 397.409Z" fill="#B2001A"/>
<path d="M153.118 397.41C154.894 395.635 163.157 401.03 171.626 409.499C180.095 417.967 185.285 426.163 183.646 428.006C182.007 429.85 173.607 424.387 165.138 415.918C156.67 407.45 151.343 399.527 153.118 397.41Z" fill="#B2001A"/>
<path d="M214.174 397.409C216.017 399.253 210.622 407.517 202.153 415.917C193.685 424.318 185.421 429.576 183.646 428.006C181.87 426.435 187.265 417.898 195.666 409.498C204.066 401.097 212.398 395.634 214.174 397.409Z" fill="#B2001A"/>
<path d="M183.646 397.41C185.421 395.635 193.753 401.03 202.154 409.499C210.554 417.967 215.813 426.163 214.174 428.006C212.534 429.85 204.134 424.387 195.666 415.918C187.197 407.45 181.87 399.527 183.646 397.41Z" fill="#B2001A"/>
<path d="M183.645 428.007C185.421 429.782 180.025 438.046 171.625 446.515C163.225 454.983 154.893 460.174 153.117 458.535C151.342 456.896 156.737 448.427 165.137 440.027C173.538 431.626 181.87 426.163 183.645 428.007Z" fill="#B2001A"/>
<path d="M183.565 458.507C185.352 456.72 179.968 448.439 171.54 440.011C163.112 431.583 154.831 426.2 153.044 427.987C151.257 429.774 156.641 438.055 165.069 446.483C173.497 454.911 181.778 460.294 183.565 458.507Z" fill="#B2001A"/>
<path d="M171.594 477.064C180.022 468.636 185.406 460.355 183.619 458.568C181.832 456.781 173.551 462.165 165.123 470.593C156.695 479.021 151.311 487.302 153.098 489.089C154.885 490.876 163.166 485.492 171.594 477.064Z" fill="#B2001A"/>
<path d="M153.118 458.533C154.894 456.758 163.158 462.153 171.626 470.553C180.095 478.954 185.285 487.286 183.646 489.061C182.007 490.837 173.607 485.51 165.138 477.042C156.67 468.573 151.343 460.309 153.118 458.533Z" fill="#B2001A"/>
<path d="M214.174 428.007C216.017 429.782 210.622 438.046 202.153 446.515C193.685 454.983 185.421 460.174 183.646 458.535C181.87 456.896 187.265 448.427 195.666 440.027C204.066 431.626 212.398 426.163 214.174 428.007Z" fill="#B2001A"/>
<path d="M183.646 428.006C185.421 426.162 193.753 431.557 202.154 440.026C210.554 448.494 215.813 456.758 214.174 458.534C212.534 460.31 204.134 454.914 195.666 446.514C187.197 438.114 181.87 429.782 183.646 428.006Z" fill="#B2001A"/>
<path d="M232.65 415.959C241.078 407.531 246.462 399.25 244.675 397.463C242.888 395.676 234.607 401.06 226.179 409.488C217.751 417.916 212.368 426.197 214.155 427.984C215.941 429.771 224.222 424.387 232.65 415.959Z" fill="#B2001A"/>
<path d="M244.675 427.985C246.462 426.198 241.078 417.916 232.65 409.488C224.222 401.06 215.941 395.677 214.154 397.464C212.367 399.251 217.751 407.531 226.179 415.959C234.607 424.387 242.888 429.772 244.675 427.985Z" fill="#B2001A"/>
<path d="M214.174 366.882C216.017 368.658 210.622 376.99 202.153 385.39C193.685 393.791 185.421 399.049 183.646 397.41C181.87 395.771 187.265 387.371 195.666 378.902C204.066 370.434 212.398 365.38 214.174 366.882Z" fill="#B2001A"/>
<path d="M214.205 397.455C215.991 395.668 210.608 387.387 202.18 378.959C193.752 370.531 185.471 365.147 183.684 366.934C181.897 368.721 187.281 377.002 195.709 385.43C204.137 393.858 212.418 399.242 214.205 397.455Z" fill="#B2001A"/>
<path d="M244.769 366.882C246.545 368.658 241.151 376.99 232.682 385.39C224.213 393.791 216.017 399.049 214.173 397.41C212.329 395.771 217.793 387.371 226.262 378.902C234.73 370.434 242.925 365.38 244.769 366.882Z" fill="#B2001A"/>
<path d="M214.174 366.881C216.018 365.105 224.282 370.501 232.683 378.901C241.083 387.301 246.341 395.633 244.77 397.409C243.199 399.185 234.663 393.858 226.262 385.389C217.862 376.92 212.398 368.657 214.174 366.881Z" fill="#B2001A"/>
<path d="M244.77 336.355C246.545 338.13 241.151 346.394 232.682 354.863C224.214 363.331 216.018 368.522 214.174 366.883C212.33 365.244 217.793 356.843 226.262 348.375C234.731 339.906 242.926 334.579 244.77 336.355Z" fill="#B2001A"/>
<path d="M214.174 336.354C216.018 334.578 224.282 339.973 232.683 348.374C241.083 356.774 246.341 365.106 244.77 366.882C243.199 368.657 234.663 363.262 226.262 354.862C217.862 346.462 212.398 338.061 214.174 336.354Z" fill="#B2001A"/>
<path d="M183.645 489.062C185.421 490.837 180.025 499.17 171.625 507.57C163.225 515.97 154.893 521.229 153.117 519.59C151.342 517.951 156.737 509.55 165.137 501.082C173.538 492.613 181.87 487.286 183.645 489.062Z" fill="#B2001A"/>
<path d="M214.174 458.534C216.017 460.31 210.622 468.574 202.153 477.043C193.685 485.511 185.421 490.702 183.646 489.062C181.87 487.423 187.265 479.023 195.666 470.554C204.066 462.086 212.398 456.759 214.174 458.534Z" fill="#B2001A"/>
<path d="M244.77 428.007C246.545 429.782 241.151 438.046 232.682 446.515C224.214 454.983 216.018 460.174 214.174 458.535C212.33 456.896 217.793 448.427 226.262 440.027C234.731 431.626 242.926 426.163 244.77 428.007Z" fill="#B2001A"/>
<path d="M171.598 385.416C180.026 376.988 185.41 368.707 183.623 366.92C181.836 365.133 173.555 370.517 165.127 378.945C156.699 387.373 151.315 395.654 153.102 397.441C154.889 399.228 163.17 393.844 171.598 385.416Z" fill="#B2001A"/>
<path d="M214.174 336.355C216.017 338.13 210.622 346.394 202.153 354.863C193.685 363.331 185.421 368.522 183.646 366.883C181.87 365.244 187.265 356.843 195.666 348.375C204.066 339.906 212.398 334.579 214.174 336.355Z" fill="#B2001A"/>
<path d="M244.769 305.826C246.545 307.602 241.151 315.865 232.682 324.334C224.213 332.803 216.017 337.993 214.173 336.354C212.329 334.715 217.793 326.246 226.262 317.846C234.73 309.446 242.925 303.914 244.769 305.826Z" fill="#B2001A"/>
<path d="M244.77 397.41C247.297 397.41 249.346 404.24 249.346 412.708C249.346 421.177 247.297 428.006 244.77 428.006C242.243 428.006 240.194 421.177 240.194 412.708C240.194 404.24 242.516 397.41 244.77 397.41Z" fill="#B2001A"/>
<path d="M244.77 366.883C247.297 366.883 249.346 373.712 249.346 382.181C249.346 390.65 247.297 397.411 244.77 397.411C242.243 397.411 240.194 390.581 240.194 382.181C240.194 373.781 242.516 366.883 244.77 366.883Z" fill="#B2001A"/>
<path d="M244.77 336.354C247.297 336.354 249.346 343.183 249.346 351.583C249.346 359.984 247.297 366.881 244.77 366.881C242.243 366.881 240.194 360.052 240.194 351.583C240.194 343.115 242.516 336.354 244.77 336.354Z" fill="#B2001A"/>
<path d="M244.77 305.826C247.297 305.826 249.346 312.656 249.346 321.056C249.346 329.456 247.297 336.354 244.77 336.354C242.243 336.354 240.194 329.525 240.194 321.056C240.194 312.587 242.516 305.826 244.77 305.826Z" fill="#B2001A"/>
<path d="M153.118 489.062C155.645 489.062 157.693 495.892 157.693 504.361C157.693 512.829 155.645 519.59 153.118 519.59C150.591 519.59 148.542 512.761 148.542 504.361C148.542 495.96 150.591 489.062 153.118 489.062Z" fill="#B2001A"/>
<path d="M153.118 458.535C155.645 458.535 157.693 465.365 157.693 473.833C157.693 482.302 155.645 489.063 153.118 489.063C150.591 489.063 148.542 482.234 148.542 473.833C148.542 465.433 150.591 458.535 153.118 458.535Z" fill="#B2001A"/>
<path d="M153.118 428.006C155.645 428.006 157.693 434.835 157.693 443.236C157.693 451.636 155.645 458.534 153.118 458.534C150.591 458.534 148.542 451.704 148.542 443.236C148.542 434.767 150.591 428.006 153.118 428.006Z" fill="#B2001A"/>
<path d="M153.118 397.41C155.645 397.41 157.693 404.24 157.693 412.708C157.693 421.177 155.645 428.006 153.118 428.006C150.591 428.006 148.542 421.177 148.542 412.708C148.542 404.24 150.591 397.41 153.118 397.41Z" fill="#B2001A"/>
<path d="M336.354 397.41C338.198 395.635 346.461 401.03 354.93 409.499C363.398 417.967 368.589 426.163 366.95 428.006C365.311 429.85 356.842 424.387 348.442 415.918C340.042 407.45 334.578 399.527 336.354 397.41Z" fill="#B2001A"/>
<path d="M366.949 397.409C368.725 399.253 363.33 407.517 354.929 415.917C346.529 424.318 338.197 429.576 336.353 428.006C334.509 426.435 339.973 417.898 348.442 409.498C356.91 401.097 365.447 395.634 366.949 397.409Z" fill="#B2001A"/>
<path d="M336.323 427.988C338.11 426.201 332.726 417.92 324.298 409.492C315.87 401.064 307.589 395.68 305.802 397.467C304.015 399.254 309.399 407.535 317.827 415.963C326.255 424.391 334.536 429.775 336.323 427.988Z" fill="#B2001A"/>
<path d="M324.298 415.963C332.726 407.535 338.11 399.254 336.323 397.467C334.536 395.68 326.255 401.063 317.827 409.492C309.399 417.92 304.015 426.201 305.802 427.988C307.589 429.774 315.87 424.391 324.298 415.963Z" fill="#B2001A"/>
<path d="M366.86 458.516C368.647 456.729 363.264 448.448 354.836 440.02C346.408 431.592 338.127 426.208 336.34 427.995C334.553 429.782 339.937 438.063 348.365 446.491C356.793 454.919 365.073 460.303 366.86 458.516Z" fill="#B2001A"/>
<path d="M366.949 428.007C368.725 429.782 363.33 438.046 354.929 446.515C346.529 454.983 338.197 460.174 336.353 458.535C334.509 456.896 339.973 448.427 348.442 440.027C356.91 431.626 365.447 426.163 366.949 428.007Z" fill="#B2001A"/>
<path d="M336.354 458.533C338.198 456.758 346.461 462.153 354.93 470.553C363.398 478.954 368.589 487.286 366.95 489.061C365.311 490.837 356.842 485.51 348.442 477.042C340.042 468.573 334.578 460.309 336.354 458.533Z" fill="#B2001A"/>
<path d="M354.89 477.072C363.318 468.644 368.702 460.363 366.915 458.576C365.128 456.789 356.847 462.173 348.419 470.601C339.991 479.029 334.607 487.31 336.394 489.097C338.181 490.884 346.462 485.5 354.89 477.072Z" fill="#B2001A"/>
<path d="M305.826 428.006C307.602 426.162 315.934 431.557 324.334 440.026C332.734 448.494 337.993 456.758 336.354 458.534C334.715 460.31 326.315 454.914 317.846 446.514C309.378 438.114 303.982 429.782 305.826 428.006Z" fill="#B2001A"/>
<path d="M336.353 428.007C338.197 429.782 332.802 438.046 324.333 446.515C315.865 454.983 307.601 460.174 305.825 458.535C304.05 456.896 309.445 448.427 317.845 440.027C326.246 431.626 334.578 426.163 336.353 428.007Z" fill="#B2001A"/>
<path d="M275.298 397.41C277.074 395.635 285.406 401.03 293.806 409.499C302.206 417.967 307.465 426.163 305.826 428.006C304.187 429.85 295.787 424.387 287.318 415.918C278.85 407.45 273.522 399.527 275.298 397.41Z" fill="#B2001A"/>
<path d="M305.826 397.409C307.602 399.253 302.274 407.517 293.806 415.917C285.337 424.318 277.074 429.576 275.298 428.006C273.522 426.435 278.918 417.898 287.318 409.498C295.718 401.097 303.982 395.634 305.826 397.409Z" fill="#B2001A"/>
<path d="M305.826 366.881C307.602 365.105 315.934 370.501 324.334 378.901C332.734 387.301 337.993 395.633 336.354 397.409C334.715 399.185 326.315 393.858 317.846 385.389C309.378 376.92 303.982 368.657 305.826 366.881Z" fill="#B2001A"/>
<path d="M336.353 366.882C338.197 368.658 332.802 376.99 324.333 385.39C315.865 393.791 307.601 399.049 305.825 397.41C304.05 395.771 309.445 387.371 317.845 378.902C326.246 370.434 334.578 365.38 336.353 366.882Z" fill="#B2001A"/>
<path d="M305.852 397.461C307.639 395.674 302.255 387.393 293.827 378.965C285.399 370.537 277.118 365.153 275.331 366.94C273.545 368.727 278.928 377.008 287.356 385.436C295.784 393.864 304.065 399.247 305.852 397.461Z" fill="#B2001A"/>
<path d="M305.826 366.882C307.602 368.658 302.274 376.99 293.806 385.39C285.337 393.791 277.074 399.049 275.298 397.41C273.522 395.771 278.918 387.371 287.318 378.902C295.718 370.434 303.982 365.38 305.826 366.882Z" fill="#B2001A"/>
<path d="M275.298 336.354C277.074 334.578 285.406 339.973 293.806 348.374C302.206 356.774 307.465 365.106 305.826 366.882C304.187 368.657 295.787 363.262 287.318 354.862C278.85 346.462 273.522 338.061 275.298 336.354Z" fill="#B2001A"/>
<path d="M305.826 336.355C307.602 338.13 302.274 346.394 293.806 354.863C285.337 363.331 277.074 368.522 275.298 366.883C273.522 365.244 278.918 356.843 287.318 348.375C295.718 339.906 303.982 334.579 305.826 336.355Z" fill="#B2001A"/>
<path d="M336.354 489.063C338.198 487.287 346.461 492.682 354.93 501.083C363.398 509.483 368.589 517.815 366.95 519.591C365.311 521.366 356.842 516.039 348.442 507.571C340.042 499.102 334.578 490.838 336.354 489.063Z" fill="#B2001A"/>
<path d="M305.826 458.533C307.602 456.758 315.934 462.153 324.334 470.553C332.734 478.954 337.993 487.286 336.354 489.061C334.715 490.837 326.315 485.51 317.846 477.042C309.378 468.573 303.982 460.309 305.826 458.533Z" fill="#B2001A"/>
<path d="M275.298 428.006C277.074 426.162 285.406 431.557 293.806 440.026C302.206 448.494 307.465 456.758 305.826 458.534C304.187 460.31 295.787 454.914 287.318 446.514C278.85 438.114 273.522 429.782 275.298 428.006Z" fill="#B2001A"/>
<path d="M336.354 366.881C338.198 365.105 346.461 370.501 354.93 378.901C363.398 387.301 368.589 395.633 366.95 397.409C365.311 399.185 356.842 393.858 348.442 385.389C340.042 376.92 334.578 368.657 336.354 366.881Z" fill="#B2001A"/>
<path d="M305.826 336.354C307.602 334.578 315.934 339.973 324.334 348.374C332.734 356.774 337.993 365.106 336.354 366.882C334.715 368.657 326.315 363.262 317.846 354.862C309.378 346.462 303.982 338.061 305.826 336.354Z" fill="#B2001A"/>
<path d="M275.298 305.826C277.074 303.982 285.406 309.378 293.806 317.846C302.206 326.315 307.465 334.579 305.826 336.354C304.187 338.13 295.787 332.735 287.318 324.334C278.85 315.934 273.522 307.602 275.298 305.826Z" fill="#B2001A"/>
<path d="M275.23 428.006C277.757 428.006 279.806 421.157 279.806 412.708C279.806 404.259 277.757 397.41 275.23 397.41C272.703 397.41 270.654 404.259 270.654 412.708C270.654 421.157 272.703 428.006 275.23 428.006Z" fill="#B2001A"/>
<path d="M275.23 397.479C277.757 397.479 279.806 390.63 279.806 382.181C279.806 373.732 277.757 366.883 275.23 366.883C272.703 366.883 270.654 373.732 270.654 382.181C270.654 390.63 272.703 397.479 275.23 397.479Z" fill="#B2001A"/>
<path d="M275.23 366.95C277.757 366.95 279.806 360.101 279.806 351.652C279.806 343.203 277.757 336.354 275.23 336.354C272.703 336.354 270.654 343.203 270.654 351.652C270.654 360.101 272.703 366.95 275.23 366.95Z" fill="#B2001A"/>
<path d="M275.23 336.354C277.757 336.354 279.806 329.505 279.806 321.056C279.806 312.607 277.757 305.758 275.23 305.758C272.703 305.758 270.654 312.607 270.654 321.056C270.654 329.505 272.703 336.354 275.23 336.354Z" fill="#B2001A"/>
<path d="M366.882 519.659C369.41 519.659 371.458 512.81 371.458 504.361C371.458 495.912 369.41 489.062 366.882 489.062C364.355 489.062 362.307 495.912 362.307 504.361C362.307 512.81 364.355 519.659 366.882 519.659Z" fill="#B2001A"/>
<path d="M366.882 489.131C369.41 489.131 371.458 482.282 371.458 473.833C371.458 465.384 369.41 458.535 366.882 458.535C364.355 458.535 362.307 465.384 362.307 473.833C362.307 482.282 364.355 489.131 366.882 489.131Z" fill="#B2001A"/>
<path d="M366.882 458.534C369.41 458.534 371.458 451.685 371.458 443.236C371.458 434.787 369.41 427.938 366.882 427.938C364.355 427.938 362.307 434.787 362.307 443.236C362.307 451.685 364.355 458.534 366.882 458.534Z" fill="#B2001A"/>
<path d="M366.882 428.006C369.41 428.006 371.458 421.157 371.458 412.708C371.458 404.259 369.41 397.41 366.882 397.41C364.355 397.41 362.307 404.259 362.307 412.708C362.307 421.157 364.355 428.006 366.882 428.006Z" fill="#B2001A"/>
<path d="M183.646 122.521C181.87 124.297 173.607 118.902 165.138 110.501C156.669 102.101 151.479 93.7691 153.118 91.9935C154.757 90.2178 163.157 95.5448 171.626 104.013C180.094 112.482 185.421 120.746 183.646 122.521Z" fill="#B2001A"/>
<path d="M171.542 110.472C179.97 102.044 185.354 93.7633 183.567 91.9764C181.78 90.1894 173.499 95.5733 165.071 104.001C156.643 112.429 151.259 120.71 153.046 122.497C154.833 124.284 163.114 118.9 171.542 110.472Z" fill="#B2001A"/>
<path d="M214.173 122.521C212.397 124.297 204.134 118.902 195.665 110.501C187.197 102.101 182.006 93.7691 183.645 91.9935C185.284 90.2178 193.753 95.5448 202.153 104.013C210.553 112.482 216.017 120.746 214.173 122.521Z" fill="#B2001A"/>
<path d="M183.646 122.522C181.87 120.746 187.265 112.414 195.666 104.014C204.066 95.6137 212.398 90.355 214.174 91.9941C215.949 93.6331 210.622 102.033 202.153 110.502C193.685 118.971 185.421 124.298 183.646 122.522Z" fill="#B2001A"/>
<path d="M183.562 91.9644C185.349 90.1775 179.965 81.8964 171.537 73.4684C163.109 65.0403 154.828 59.657 153.041 61.4439C151.254 63.2309 156.638 71.5119 165.066 79.9399C173.494 88.3679 181.775 93.7514 183.562 91.9644Z" fill="#B2001A"/>
<path d="M153.117 92.1993C151.342 90.3553 156.737 82.0915 165.137 73.6912C173.538 65.2909 181.87 60.0322 183.645 61.603C185.421 63.1738 180.025 71.7107 171.625 80.111C163.225 88.5113 154.893 93.7701 153.117 92.1993Z" fill="#B2001A"/>
<path d="M183.646 61.3974C181.87 63.2413 173.607 57.8459 165.138 49.3773C156.669 40.9087 151.479 32.6451 153.118 30.8694C154.757 29.0937 163.157 34.489 171.626 42.8893C180.094 51.2896 185.421 59.6217 183.646 61.3974Z" fill="#B2001A"/>
<path d="M153.117 61.3978C151.342 59.6221 156.737 51.3584 165.137 42.8898C173.538 34.4212 181.87 29.2308 183.645 30.8698C185.421 32.5089 180.025 40.9775 171.625 49.3778C163.225 57.7781 154.893 63.2418 153.117 61.3978Z" fill="#B2001A"/>
<path d="M214.173 92.1985C212.397 93.9742 204.134 88.5788 195.665 80.1102C187.197 71.6416 182.006 63.4463 183.645 61.6023C185.284 59.7583 193.753 65.2219 202.153 73.6905C210.553 82.1591 216.017 90.1497 214.173 92.1985Z" fill="#B2001A"/>
<path d="M202.118 79.9529C210.546 71.5248 215.93 63.2438 214.143 61.4569C212.356 59.6699 204.075 65.0537 195.647 73.4817C187.219 81.9098 181.835 90.1908 183.622 91.9777C185.409 93.7647 193.69 88.3809 202.118 79.9529Z" fill="#B2001A"/>
<path d="M244.769 122.521C242.925 124.297 234.662 118.902 226.262 110.501C217.861 102.101 212.603 93.7691 214.173 91.9935C215.744 90.2178 224.282 95.5448 232.682 104.013C241.082 112.482 246.545 120.746 244.769 122.521Z" fill="#B2001A"/>
<path d="M214.174 122.522C212.398 120.746 217.794 112.414 226.262 104.014C234.731 95.6137 242.926 90.355 244.77 91.9941C246.614 93.6331 241.151 102.033 232.683 110.502C224.214 118.971 216.018 124.298 214.174 122.522Z" fill="#B2001A"/>
<path d="M214.173 153.05C212.397 154.825 204.134 149.498 195.665 141.03C187.197 132.561 182.006 124.297 183.645 122.522C185.284 120.746 193.753 126.141 202.153 134.542C210.553 142.942 216.017 151.274 214.173 153.05Z" fill="#B2001A"/>
<path d="M183.646 153.05C181.87 151.274 187.265 143.011 195.666 134.542C204.066 126.073 212.398 120.883 214.174 122.522C215.949 124.161 210.622 132.63 202.153 141.03C193.685 149.43 185.421 154.826 183.646 153.05Z" fill="#B2001A"/>
<path d="M244.735 153.088C246.522 151.301 241.139 143.02 232.711 134.592C224.283 126.164 216.002 120.781 214.215 122.568C212.428 124.354 217.812 132.635 226.24 141.063C234.668 149.491 242.948 154.875 244.735 153.088Z" fill="#B2001A"/>
<path d="M232.711 141.063C241.139 132.635 246.522 124.354 244.735 122.567C242.948 120.78 234.667 126.164 226.239 134.592C217.811 143.02 212.428 151.3 214.215 153.087C216.002 154.874 224.283 149.491 232.711 141.063Z" fill="#B2001A"/>
<path d="M244.769 183.577C242.925 185.421 234.662 180.026 226.262 171.557C217.861 163.088 212.603 154.825 214.173 153.049C215.744 151.273 224.282 156.669 232.682 165.069C241.082 173.469 246.545 181.801 244.769 183.577Z" fill="#B2001A"/>
<path d="M214.174 183.578C212.398 181.802 217.794 173.538 226.263 165.069C234.731 156.601 242.926 151.41 244.77 153.05C246.614 154.689 241.151 163.157 232.683 171.557C224.214 179.958 216.018 185.421 214.174 183.578Z" fill="#B2001A"/>
<path d="M183.646 30.7333C181.87 32.509 173.607 27.1137 165.138 18.7134C156.669 10.3131 151.479 1.981 153.118 0.205324C154.757 -1.57035 163.157 3.82493 171.626 12.2252C180.094 20.6256 185.421 29.0942 183.646 30.7333Z" fill="#B2001A"/>
<path d="M214.173 61.3974C212.397 63.2413 204.134 57.8459 195.665 49.3773C187.197 40.9087 182.006 32.6451 183.645 30.8694C185.284 29.0937 193.753 34.489 202.153 42.8893C210.553 51.2896 216.017 59.6217 214.173 61.3974Z" fill="#B2001A"/>
<path d="M244.769 92.1985C242.925 93.9742 234.662 88.5788 226.262 80.1102C217.861 71.6416 212.603 63.4463 214.173 61.6023C215.744 59.7583 224.282 65.2219 232.682 73.6905C241.082 82.1591 246.545 90.1497 244.769 92.1985Z" fill="#B2001A"/>
<path d="M183.646 153.05C181.87 154.825 173.607 149.498 165.138 141.03C156.669 132.561 151.479 124.297 153.118 122.522C154.757 120.746 163.157 126.141 171.626 134.542C180.094 142.942 185.421 151.274 183.646 153.05Z" fill="#B2001A"/>
<path d="M214.173 183.577C212.397 185.421 204.134 180.026 195.665 171.557C187.197 163.088 182.006 154.825 183.645 153.049C185.284 151.273 193.753 156.669 202.153 165.069C210.553 173.469 216.017 181.801 214.173 183.577Z" fill="#B2001A"/>
<path d="M244.769 214.173C242.925 215.949 234.662 210.554 226.262 202.153C217.861 193.753 212.603 185.421 214.173 183.577C215.744 181.733 224.282 187.196 232.682 195.665C241.082 204.134 246.545 212.397 244.769 214.173Z" fill="#B2001A"/>
<path d="M244.77 122.522C242.243 122.522 240.194 115.693 240.194 107.224C240.194 98.7553 242.243 91.9941 244.77 91.9941C247.297 91.9941 249.346 98.8236 249.346 107.224C249.346 115.624 247.297 122.522 244.77 122.522Z" fill="#B2001A"/>
<path d="M244.77 153.049C242.243 153.049 240.194 146.22 240.194 137.82C240.194 129.419 242.243 122.521 244.77 122.521C247.297 122.521 249.346 129.351 249.346 137.82C249.346 146.288 247.297 153.049 244.77 153.049Z" fill="#B2001A"/>
<path d="M244.77 183.577C242.243 183.577 240.194 176.747 240.194 168.347C240.194 159.947 242.243 153.049 244.77 153.049C247.297 153.049 249.346 159.878 249.346 168.347C249.346 176.816 247.297 183.577 244.77 183.577Z" fill="#B2001A"/>
<path d="M244.77 214.174C242.243 214.174 240.194 207.345 240.194 198.876C240.194 190.408 242.243 183.578 244.77 183.578C247.297 183.578 249.346 190.408 249.346 198.876C249.346 207.345 247.297 214.174 244.77 214.174Z" fill="#B2001A"/>
<path d="M153.118 30.7331C150.591 30.7331 148.542 23.9035 148.542 15.4349C148.542 6.96628 150.591 0.205078 153.118 0.205078C155.645 0.205078 157.693 7.03457 157.693 15.4349C157.693 23.8352 155.645 30.7331 153.118 30.7331Z" fill="#B2001A"/>
<path d="M153.118 61.3971C150.591 61.3971 148.542 54.5675 148.542 46.1672C148.542 37.7669 150.591 30.8691 153.118 30.8691C155.645 30.8691 157.693 37.6986 157.693 46.1672C157.693 54.6358 155.645 61.3971 153.118 61.3971Z" fill="#B2001A"/>
<path d="M153.118 92.1978C150.591 92.1978 148.542 85.3682 148.542 76.8996C148.542 68.431 150.591 61.6016 153.118 61.6016C155.645 61.6016 157.693 68.431 157.693 76.8996C157.693 85.3682 155.645 92.1978 153.118 92.1978Z" fill="#B2001A"/>
<path d="M153.118 122.522C150.591 122.522 148.542 115.693 148.542 107.224C148.542 98.7553 150.591 91.9941 153.118 91.9941C155.645 91.9941 157.693 98.8236 157.693 107.224C157.693 115.624 155.645 122.522 153.118 122.522Z" fill="#B2001A"/>
<path d="M354.838 110.48C363.266 102.052 368.65 93.7712 366.863 91.9842C365.076 90.1972 356.795 95.5811 348.367 104.009C339.939 112.437 334.555 120.718 336.342 122.505C338.129 124.292 346.41 118.908 354.838 110.48Z" fill="#B2001A"/>
<path d="M366.95 122.521C365.174 124.297 356.843 118.902 348.442 110.501C340.042 102.101 334.783 93.7691 336.354 91.9935C337.925 90.2178 346.461 95.5448 354.93 104.013C363.399 112.482 368.726 120.746 366.95 122.521Z" fill="#B2001A"/>
<path d="M305.825 122.522C304.05 120.746 309.445 112.414 317.845 104.014C326.246 95.6137 334.578 90.355 336.353 91.9941C338.129 93.6331 332.802 102.033 324.333 110.502C315.865 118.971 307.601 124.298 305.825 122.522Z" fill="#B2001A"/>
<path d="M336.354 122.521C334.578 124.297 326.315 118.902 317.846 110.501C309.377 102.101 304.187 93.7691 305.826 91.9935C307.465 90.2178 315.933 95.5448 324.334 104.013C332.734 112.482 338.129 120.746 336.354 122.521Z" fill="#B2001A"/>
<path d="M336.355 92.1993C334.579 90.3553 339.974 82.0915 348.443 73.6912C356.912 65.2909 365.175 60.0322 366.951 61.603C368.726 63.1738 363.331 71.7107 354.931 80.111C346.53 88.5113 338.13 93.7701 336.355 92.1993Z" fill="#B2001A"/>
<path d="M366.858 91.9728C368.645 90.1859 363.262 81.9048 354.834 73.4768C346.406 65.0487 338.125 59.6654 336.338 61.4523C334.551 63.2393 339.935 71.5197 348.363 79.9477C356.791 88.3757 365.071 93.7598 366.858 91.9728Z" fill="#B2001A"/>
<path d="M336.355 61.3978C334.579 59.6221 339.974 51.3584 348.443 42.8898C356.912 34.4212 365.175 29.2308 366.951 30.8698C368.726 32.5089 363.331 40.9775 354.931 49.3778C346.53 57.7781 338.13 63.2418 336.355 61.3978Z" fill="#B2001A"/>
<path d="M366.95 61.3974C365.174 63.2413 356.843 57.8459 348.442 49.3773C340.042 40.9087 334.783 32.6451 336.354 30.8694C337.925 29.0937 346.461 34.489 354.93 42.8893C363.399 51.2896 368.726 59.6217 366.95 61.3974Z" fill="#B2001A"/>
<path d="M305.825 92.1993C304.05 90.3553 309.445 82.0915 317.845 73.6912C326.246 65.2909 334.578 60.0322 336.353 61.603C338.129 63.1738 332.802 71.7107 324.333 80.111C315.865 88.5113 307.601 93.7701 305.825 92.1993Z" fill="#B2001A"/>
<path d="M336.354 92.1985C334.578 93.9742 326.315 88.5788 317.846 80.1102C309.377 71.6416 304.187 63.4463 305.826 61.6023C307.465 59.7583 315.933 65.2219 324.334 73.6905C332.734 82.1591 338.129 90.1497 336.354 92.1985Z" fill="#B2001A"/>
<path d="M275.298 122.522C273.522 120.746 278.918 112.414 287.318 104.014C295.718 95.6137 304.05 90.355 305.826 91.9941C307.602 93.6331 302.274 102.033 293.806 110.502C285.337 118.971 277.074 124.298 275.298 122.522Z" fill="#B2001A"/>
<path d="M305.826 122.521C304.051 124.297 295.787 118.902 287.319 110.501C278.85 102.101 273.659 93.7691 275.299 91.9935C276.938 90.2178 285.406 95.5448 293.806 104.013C302.207 112.482 307.602 120.746 305.826 122.521Z" fill="#B2001A"/>
<path d="M324.359 141.068C332.787 132.64 338.17 124.359 336.383 122.572C334.596 120.785 326.315 126.169 317.887 134.597C309.459 143.025 304.076 151.306 305.863 153.093C307.649 154.88 315.931 149.496 324.359 141.068Z" fill="#B2001A"/>
<path d="M336.383 153.091C338.17 151.304 332.787 143.023 324.359 134.595C315.931 126.167 307.65 120.784 305.863 122.571C304.076 124.358 309.459 132.639 317.887 141.067C326.315 149.495 334.596 154.878 336.383 153.091Z" fill="#B2001A"/>
<path d="M275.298 153.05C273.522 151.274 278.918 143.011 287.318 134.542C295.718 126.073 304.05 120.883 305.826 122.522C307.602 124.161 302.274 132.63 293.806 141.03C285.337 149.43 277.074 154.826 275.298 153.05Z" fill="#B2001A"/>
<path d="M305.826 153.05C304.051 154.825 295.787 149.498 287.319 141.03C278.85 132.561 273.659 124.297 275.299 122.522C276.938 120.746 285.406 126.141 293.806 134.542C302.207 142.942 307.602 151.274 305.826 153.05Z" fill="#B2001A"/>
<path d="M293.831 171.537C302.259 163.109 307.642 154.828 305.855 153.041C304.069 151.254 295.788 156.638 287.36 165.066C278.932 173.494 273.548 181.775 275.335 183.562C277.122 185.349 285.403 179.965 293.831 171.537Z" fill="#B2001A"/>
<path d="M305.826 183.577C304.051 185.421 295.787 180.026 287.319 171.557C278.85 163.088 273.659 154.825 275.299 153.049C276.938 151.273 285.406 156.669 293.806 165.069C302.207 173.469 307.602 181.801 305.826 183.577Z" fill="#B2001A"/>
<path d="M336.355 30.7338C334.579 28.9581 339.974 20.6943 348.443 12.2257C356.912 3.75709 365.175 -1.43331 366.951 0.205777C368.726 1.84486 363.331 10.2452 354.931 18.7138C346.53 27.1824 338.13 32.646 336.355 30.7338Z" fill="#B2001A"/>
<path d="M305.825 61.3978C304.05 59.6221 309.445 51.3584 317.845 42.8898C326.246 34.4212 334.578 29.2308 336.353 30.8698C338.129 32.5089 332.802 40.9775 324.333 49.3778C315.865 57.7781 307.601 63.2418 305.825 61.3978Z" fill="#B2001A"/>
<path d="M293.767 79.8904C302.195 71.4623 307.578 63.1819 305.791 61.3949C304.004 59.608 295.724 64.9912 287.296 73.4192C278.868 81.8473 273.484 90.1283 275.271 91.9152C277.058 93.7022 285.339 88.3184 293.767 79.8904Z" fill="#B2001A"/>
<path d="M336.355 153.05C334.579 151.274 339.974 143.011 348.443 134.542C356.912 126.073 365.175 120.883 366.951 122.522C368.726 124.161 363.331 132.63 354.931 141.03C346.53 149.43 338.13 154.826 336.355 153.05Z" fill="#B2001A"/>
<path d="M305.825 183.578C304.05 181.802 309.445 173.538 317.845 165.069C326.246 156.601 334.578 151.41 336.353 153.05C338.129 154.689 332.802 163.157 324.333 171.557C315.865 179.958 307.601 185.421 305.825 183.578Z" fill="#B2001A"/>
<path d="M275.298 214.174C273.522 212.398 278.918 204.066 287.318 195.666C295.718 187.266 304.05 182.007 305.826 183.578C307.602 185.148 302.274 193.685 293.806 202.154C285.337 210.623 277.074 215.95 275.298 214.174Z" fill="#B2001A"/>
<path d="M275.23 122.522C277.757 122.522 279.806 115.673 279.806 107.224C279.806 98.775 277.757 91.9258 275.23 91.9258C272.703 91.9258 270.654 98.775 270.654 107.224C270.654 115.673 272.703 122.522 275.23 122.522Z" fill="#B2001A"/>
<path d="M275.23 153.118C277.757 153.118 279.806 146.269 279.806 137.82C279.806 129.371 277.757 122.521 275.23 122.521C272.703 122.521 270.654 129.371 270.654 137.82C270.654 146.269 272.703 153.118 275.23 153.118Z" fill="#B2001A"/>
<path d="M275.23 183.645C277.757 183.645 279.806 176.796 279.806 168.347C279.806 159.898 277.757 153.049 275.23 153.049C272.703 153.049 270.654 159.898 270.654 168.347C270.654 176.796 272.703 183.645 275.23 183.645Z" fill="#B2001A"/>
<path d="M275.23 214.174C277.757 214.174 279.806 207.325 279.806 198.876C279.806 190.427 277.757 183.578 275.23 183.578C272.703 183.578 270.654 190.427 270.654 198.876C270.654 207.325 272.703 214.174 275.23 214.174Z" fill="#B2001A"/>
<path d="M366.882 30.9381C369.41 30.9381 371.458 24.0889 371.458 15.6399C371.458 7.19101 369.41 0.341797 366.882 0.341797C364.355 0.341797 362.307 7.19101 362.307 15.6399C362.307 24.0889 364.355 30.9381 366.882 30.9381Z" fill="#B2001A"/>
<path d="M366.882 61.4654C369.41 61.4654 371.458 54.6162 371.458 46.1673C371.458 37.7184 369.41 30.8691 366.882 30.8691C364.355 30.8691 362.307 37.7184 362.307 46.1673C362.307 54.6162 364.355 61.4654 366.882 61.4654Z" fill="#B2001A"/>
<path d="M366.882 91.9928C369.41 91.9928 371.458 85.1435 371.458 76.6946C371.458 68.2457 369.41 61.3965 366.882 61.3965C364.355 61.3965 362.307 68.2457 362.307 76.6946C362.307 85.1435 364.355 91.9928 366.882 91.9928Z" fill="#B2001A"/>
<path d="M366.882 122.522C369.41 122.522 371.458 115.673 371.458 107.224C371.458 98.775 369.41 91.9258 366.882 91.9258C364.355 91.9258 362.307 98.775 362.307 107.224C362.307 115.673 364.355 122.522 366.882 122.522Z" fill="#B2001A"/>
<path d="M122.59 183.577C120.746 185.421 112.482 180.026 104.082 171.557C95.6817 163.088 90.4229 154.825 91.9936 153.049C93.5644 151.273 102.102 156.669 110.502 165.069C118.903 173.469 124.365 181.801 122.59 183.577Z" fill="#B2001A"/>
<path d="M122.589 153.05C124.365 154.826 118.97 163.158 110.501 171.558C102.033 179.958 93.8369 185.217 91.9929 183.578C90.1489 181.939 95.6127 173.539 104.081 165.07C112.55 156.601 120.745 151.274 122.589 153.05Z" fill="#B2001A"/>
<path d="M122.59 214.173C120.746 215.949 112.482 210.554 104.082 202.153C95.6817 193.753 90.4229 185.421 91.9936 183.577C93.5644 181.733 102.102 187.196 110.502 195.665C118.903 204.134 124.365 212.397 122.59 214.173Z" fill="#B2001A"/>
<path d="M122.589 183.577C124.365 185.421 118.97 193.685 110.501 202.154C102.033 210.622 93.8369 215.813 91.9929 214.173C90.1489 212.534 95.6127 204.066 104.081 195.665C112.55 187.265 120.745 181.802 122.589 183.577Z" fill="#B2001A"/>
<path d="M92.0262 183.627C93.8132 181.84 88.4297 173.559 80.0017 165.131C71.5737 156.703 63.2927 151.32 61.5057 153.107C59.7187 154.894 65.1027 163.174 73.5307 171.602C81.9588 180.03 90.2393 185.414 92.0262 183.627Z" fill="#B2001A"/>
<path d="M92.2663 153.05C94.1103 154.826 88.7149 163.158 80.2463 171.558C71.7777 179.958 63.5142 185.217 61.7385 183.578C59.9628 181.939 65.3582 173.539 73.7586 165.07C82.1589 156.601 90.2174 151.274 92.2663 153.05Z" fill="#B2001A"/>
<path d="M61.4662 183.577C59.6905 185.421 51.3587 180.026 42.9584 171.557C34.5581 163.088 29.2993 154.825 30.9384 153.049C32.5775 151.273 40.9775 156.669 49.4461 165.069C57.9147 173.469 63.2418 181.801 61.4662 183.577Z" fill="#B2001A"/>
<path d="M61.4656 153.05C63.2412 154.826 57.8458 163.158 49.4455 171.558C41.0452 179.958 32.7135 185.217 30.9378 183.578C29.1621 181.939 34.4892 173.539 42.9578 165.07C51.4264 156.601 59.6899 151.274 61.4656 153.05Z" fill="#B2001A"/>
<path d="M92.2668 214.173C90.4911 215.949 82.2276 210.554 73.759 202.153C65.2904 193.753 60.0999 185.421 61.739 183.577C63.3781 181.733 71.8464 187.196 80.2467 195.665C88.647 204.134 93.8375 212.397 92.2668 214.173Z" fill="#B2001A"/>
<path d="M79.9386 202.136C88.3666 193.708 93.7504 185.427 91.9635 183.64C90.1765 181.853 81.8955 187.237 73.4675 195.665C65.0395 204.093 59.6556 212.374 61.4426 214.161C63.2295 215.948 71.5106 210.564 79.9386 202.136Z" fill="#B2001A"/>
<path d="M122.59 244.701C120.746 246.477 112.482 241.082 104.082 232.681C95.6817 224.281 90.4229 215.949 91.9936 214.173C93.5644 212.397 102.102 217.724 110.502 226.193C118.903 234.662 124.365 242.925 122.59 244.701Z" fill="#B2001A"/>
<path d="M122.589 214.174C124.365 215.95 118.97 224.214 110.502 232.682C102.033 241.151 93.8371 246.341 91.9931 244.702C90.1492 243.063 95.6129 234.594 104.082 226.194C112.55 217.794 120.745 212.398 122.589 214.174Z" fill="#B2001A"/>
<path d="M153.118 214.173C151.343 215.949 143.01 210.554 134.61 202.153C126.209 193.753 120.951 185.421 122.59 183.577C124.229 181.733 132.63 187.196 141.098 195.665C149.567 204.134 154.894 212.397 153.118 214.173Z" fill="#B2001A"/>
<path d="M153.119 183.577C154.894 185.421 149.499 193.685 141.099 202.154C132.698 210.622 124.366 215.813 122.59 214.173C120.814 212.534 126.142 204.066 134.61 195.665C143.079 187.265 151.343 181.802 153.119 183.577Z" fill="#B2001A"/>
<path d="M153.036 244.683C154.823 242.896 149.439 234.616 141.011 226.188C132.583 217.76 124.302 212.376 122.515 214.163C120.728 215.95 126.112 224.231 134.54 232.659C142.968 241.087 151.249 246.47 153.036 244.683Z" fill="#B2001A"/>
<path d="M141.011 232.658C149.439 224.23 154.822 215.949 153.035 214.163C151.248 212.376 142.968 217.759 134.54 226.187C126.112 234.615 120.728 242.896 122.515 244.683C124.302 246.47 132.583 241.086 141.011 232.658Z" fill="#B2001A"/>
<path d="M183.646 244.701C181.87 246.477 173.607 241.082 165.138 232.681C156.669 224.281 151.479 215.949 153.118 214.173C154.757 212.397 163.157 217.724 171.626 226.193C180.094 234.662 185.421 242.925 183.646 244.701Z" fill="#B2001A"/>
<path d="M183.645 214.174C185.421 215.95 180.025 224.214 171.625 232.682C163.225 241.151 154.893 246.341 153.117 244.702C151.342 243.063 156.737 234.594 165.137 226.194C173.538 217.794 181.87 212.398 183.645 214.174Z" fill="#B2001A"/>
<path d="M30.8432 183.617C32.6302 181.83 27.2461 173.549 18.8181 165.121C10.3901 156.693 2.10965 151.309 0.322692 153.096C-1.46426 154.883 3.91912 163.164 12.3471 171.592C20.7752 180.02 29.0563 185.404 30.8432 183.617Z" fill="#B2001A"/>
<path d="M61.4662 214.173C59.6905 215.949 51.3587 210.554 42.9584 202.153C34.5581 193.753 29.2993 185.421 30.9384 183.577C32.5775 181.733 40.9775 187.196 49.4461 195.665C57.9147 204.134 63.2418 212.397 61.4662 214.173Z" fill="#B2001A"/>
<path d="M92.2668 244.701C90.4911 246.477 82.2276 241.082 73.759 232.681C65.2904 224.281 60.0999 215.949 61.739 214.173C63.3781 212.397 71.8464 217.724 80.2467 226.193C88.647 234.662 93.8375 242.925 92.2668 244.701Z" fill="#B2001A"/>
<path d="M153.118 183.577C151.343 185.421 143.01 180.026 134.61 171.557C126.209 163.088 120.951 154.825 122.59 153.049C124.229 151.273 132.63 156.669 141.098 165.069C149.567 173.469 154.894 181.801 153.118 183.577Z" fill="#B2001A"/>
<path d="M183.646 214.173C181.87 215.949 173.607 210.554 165.138 202.153C156.669 193.753 151.479 185.421 153.118 183.577C154.757 181.733 163.157 187.196 171.626 195.665C180.094 204.134 185.421 212.397 183.646 214.173Z" fill="#B2001A"/>
<path d="M214.173 244.701C212.397 246.477 204.134 241.082 195.665 232.681C187.197 224.281 182.006 215.949 183.645 214.173C185.284 212.397 193.753 217.724 202.153 226.193C210.553 234.662 216.017 242.925 214.173 244.701Z" fill="#B2001A"/>
<path d="M122.589 244.703C122.589 247.23 115.76 249.278 107.291 249.278C98.8226 249.278 91.9932 247.23 91.9932 244.703C91.9932 242.176 98.8226 240.127 107.291 240.127C115.76 240.127 122.589 242.449 122.589 244.703Z" fill="#B2001A"/>
<path d="M153.118 244.703C153.118 247.23 146.289 249.278 137.82 249.278C129.352 249.278 122.59 247.23 122.59 244.703C122.59 242.176 129.42 240.127 137.82 240.127C146.221 240.127 153.118 242.449 153.118 244.703Z" fill="#B2001A"/>
<path d="M183.646 244.703C183.646 247.23 176.816 249.278 168.348 249.278C159.879 249.278 153.118 247.23 153.118 244.703C153.118 242.176 159.948 240.127 168.348 240.127C176.748 240.127 183.646 242.449 183.646 244.703Z" fill="#B2001A"/>
<path d="M214.173 244.703C214.173 247.23 207.344 249.278 198.944 249.278C190.543 249.278 183.646 247.23 183.646 244.703C183.646 242.176 190.475 240.127 198.944 240.127C207.412 240.127 214.173 242.449 214.173 244.703Z" fill="#B2001A"/>
<path d="M30.8012 153.05C30.8012 155.577 23.9718 157.626 15.5031 157.626C7.03453 157.626 0.273438 155.577 0.273438 153.05C0.273438 150.523 7.10283 148.475 15.5031 148.475C23.9035 148.475 30.8012 150.523 30.8012 153.05Z" fill="#B2001A"/>
<path d="M61.4653 153.05C61.4653 155.577 54.6358 157.626 46.1672 157.626C37.6986 157.626 30.9375 155.577 30.9375 153.05C30.9375 150.523 37.7669 148.475 46.1672 148.475C54.5675 148.475 61.4653 150.523 61.4653 153.05Z" fill="#B2001A"/>
<path d="M92.267 153.05C92.267 155.577 85.4376 157.626 77.0373 157.626C68.637 157.626 61.7393 155.577 61.7393 153.05C61.7393 150.523 68.5687 148.475 77.0373 148.475C85.5059 148.475 92.267 150.523 92.267 153.05Z" fill="#B2001A"/>
<path d="M122.589 153.05C122.589 155.577 115.76 157.626 107.291 157.626C98.8226 157.626 91.9932 155.577 91.9932 153.05C91.9932 150.523 98.8226 148.475 107.291 148.475C115.76 148.475 122.589 150.523 122.589 153.05Z" fill="#B2001A"/>
<path d="M122.589 336.355C124.365 338.13 118.97 346.394 110.501 354.863C102.033 363.331 93.8369 368.522 91.9929 366.883C90.1489 365.244 95.6127 356.843 104.081 348.375C112.55 339.906 120.745 334.579 122.589 336.355Z" fill="#B2001A"/>
<path d="M122.59 366.882C120.746 368.657 112.482 363.262 104.082 354.862C95.6817 346.462 90.4229 338.129 91.9936 336.354C93.5644 334.578 102.102 339.973 110.502 348.374C118.903 356.774 124.365 365.379 122.59 366.882Z" fill="#B2001A"/>
<path d="M122.589 305.826C124.365 307.602 118.97 315.865 110.502 324.334C102.033 332.803 93.8371 337.993 91.9931 336.354C90.1492 334.715 95.6129 326.246 104.082 317.846C112.55 309.446 120.745 303.914 122.589 305.826Z" fill="#B2001A"/>
<path d="M122.59 336.353C120.746 338.129 112.482 332.734 104.082 324.334C95.6817 315.933 90.4229 307.601 91.9936 305.825C93.5644 304.05 102.102 309.377 110.502 317.845C118.903 326.314 124.365 334.578 122.59 336.353Z" fill="#B2001A"/>
<path d="M92.2663 336.355C94.1103 338.13 88.7149 346.394 80.2463 354.863C71.7777 363.331 63.5142 368.522 61.7385 366.883C59.9628 365.244 65.3582 356.843 73.7586 348.375C82.1589 339.906 90.2174 334.579 92.2663 336.355Z" fill="#B2001A"/>
<path d="M91.9693 366.875C93.7563 365.088 88.3728 356.807 79.9448 348.379C71.5168 339.951 63.2358 334.568 61.4488 336.355C59.6619 338.142 65.0458 346.422 73.4738 354.85C81.9019 363.278 90.1824 368.662 91.9693 366.875Z" fill="#B2001A"/>
<path d="M61.4656 336.355C63.2412 338.13 57.8458 346.394 49.4455 354.863C41.0452 363.331 32.7135 368.522 30.9378 366.883C29.1621 365.244 34.4892 356.843 42.9578 348.375C51.4264 339.906 59.6899 334.579 61.4656 336.355Z" fill="#B2001A"/>
<path d="M61.4662 366.882C59.6905 368.657 51.3587 363.262 42.9584 354.862C34.5581 346.462 29.2993 338.129 30.9384 336.354C32.5775 334.578 40.9775 339.973 49.4461 348.374C57.9147 356.774 63.2418 365.379 61.4662 366.882Z" fill="#B2001A"/>
<path d="M92.2665 305.826C94.1105 307.602 88.7151 315.865 80.2465 324.334C71.7779 332.803 63.5144 337.993 61.7388 336.354C59.9631 334.715 65.3585 326.246 73.7588 317.846C82.1591 309.446 90.2177 303.914 92.2665 305.826Z" fill="#B2001A"/>
<path d="M92.2668 336.353C90.4911 338.129 82.2276 332.734 73.759 324.334C65.2904 315.933 60.0999 307.601 61.739 305.825C63.3781 304.05 71.8464 309.377 80.2467 317.845C88.647 326.314 93.8375 334.578 92.2668 336.353Z" fill="#B2001A"/>
<path d="M122.589 275.23C124.365 277.005 118.97 285.337 110.502 293.738C102.033 302.138 93.8371 307.397 91.9931 305.826C90.1492 304.255 95.6129 295.718 104.082 287.25C112.55 278.781 120.745 273.454 122.589 275.23Z" fill="#B2001A"/>
<path d="M122.59 305.827C120.746 307.603 112.482 302.207 104.082 293.739C95.6817 285.27 90.4229 277.006 91.9936 275.231C93.5644 273.455 102.102 278.85 110.502 287.251C118.903 295.651 124.365 303.915 122.59 305.827Z" fill="#B2001A"/>
<path d="M141.006 324.306C149.434 315.878 154.817 307.598 153.031 305.811C151.244 304.024 142.963 309.407 134.535 317.835C126.107 326.263 120.723 334.544 122.51 336.331C124.297 338.118 132.578 332.734 141.006 324.306Z" fill="#B2001A"/>
<path d="M153.031 336.332C154.818 334.545 149.434 326.264 141.006 317.836C132.578 309.408 124.297 304.024 122.51 305.811C120.723 307.598 126.107 315.879 134.535 324.307C142.963 332.735 151.244 338.119 153.031 336.332Z" fill="#B2001A"/>
<path d="M153.119 275.23C154.894 277.005 149.499 285.337 141.099 293.738C132.698 302.138 124.366 307.397 122.59 305.826C120.814 304.255 126.142 295.718 134.61 287.25C143.079 278.781 151.343 273.454 153.119 275.23Z" fill="#B2001A"/>
<path d="M153.118 305.827C151.343 307.603 143.01 302.207 134.61 293.739C126.209 285.27 120.951 277.006 122.59 275.231C124.229 273.455 132.63 278.85 141.098 287.251C149.567 295.651 154.894 303.915 153.118 305.827Z" fill="#B2001A"/>
<path d="M171.534 293.767C179.962 285.339 185.346 277.058 183.559 275.271C181.772 273.484 173.491 278.868 165.063 287.296C156.635 295.724 151.251 304.005 153.038 305.792C154.825 307.579 163.106 302.195 171.534 293.767Z" fill="#B2001A"/>
<path d="M183.646 305.827C181.87 307.603 173.607 302.207 165.138 293.739C156.669 285.27 151.479 277.006 153.118 275.231C154.757 273.455 163.157 278.85 171.626 287.251C180.094 295.651 185.421 303.915 183.646 305.827Z" fill="#B2001A"/>
<path d="M30.8015 336.355C32.5772 338.13 27.1818 346.394 18.7815 354.863C10.3812 363.331 2.0494 368.522 0.273725 366.883C-1.50195 365.244 3.82514 356.843 12.2938 348.375C20.7624 339.906 29.1624 334.579 30.8015 336.355Z" fill="#B2001A"/>
<path d="M61.4658 305.826C63.2415 307.602 57.8461 315.865 49.4458 324.334C41.0455 332.803 32.7137 337.993 30.938 336.354C29.1624 334.715 34.4895 326.246 42.9581 317.846C51.4267 309.446 59.6901 303.914 61.4658 305.826Z" fill="#B2001A"/>
<path d="M79.9338 293.783C88.3618 285.355 93.7456 277.074 91.9586 275.287C90.1716 273.5 81.8906 278.884 73.4626 287.312C65.0346 295.74 59.6508 304.021 61.4377 305.808C63.2247 307.595 71.5058 302.211 79.9338 293.783Z" fill="#B2001A"/>
<path d="M141.012 354.84C149.44 346.412 154.823 338.131 153.036 336.344C151.249 334.557 142.969 339.94 134.541 348.368C126.113 356.796 120.729 365.078 122.516 366.864C124.303 368.651 132.584 363.268 141.012 354.84Z" fill="#B2001A"/>
<path d="M183.645 305.826C185.421 307.602 180.025 315.865 171.625 324.334C163.225 332.803 154.893 337.993 153.117 336.354C151.342 334.715 156.737 326.246 165.137 317.846C173.538 309.446 181.87 303.914 183.645 305.826Z" fill="#B2001A"/>
<path d="M214.174 275.23C216.017 277.005 210.622 285.337 202.153 293.738C193.685 302.138 185.421 307.397 183.646 305.826C181.87 304.255 187.265 295.718 195.666 287.25C204.066 278.781 212.398 273.454 214.174 275.23Z" fill="#B2001A"/>
<path d="M107.224 279.806C115.673 279.806 122.522 277.757 122.522 275.23C122.522 272.703 115.673 270.654 107.224 270.654C98.775 270.654 91.9258 272.703 91.9258 275.23C91.9258 277.757 98.775 279.806 107.224 279.806Z" fill="#B2001A"/>
<path d="M137.82 279.806C146.269 279.806 153.118 277.757 153.118 275.23C153.118 272.703 146.269 270.654 137.82 270.654C129.371 270.654 122.521 272.703 122.521 275.23C122.521 277.757 129.371 279.806 137.82 279.806Z" fill="#B2001A"/>
<path d="M168.348 279.806C176.797 279.806 183.646 277.757 183.646 275.23C183.646 272.703 176.797 270.654 168.348 270.654C159.899 270.654 153.05 272.703 153.05 275.23C153.05 277.757 159.899 279.806 168.348 279.806Z" fill="#B2001A"/>
<path d="M198.875 279.806C207.324 279.806 214.173 277.757 214.173 275.23C214.173 272.703 207.324 270.654 198.875 270.654C190.426 270.654 183.577 272.703 183.577 275.23C183.577 277.757 190.426 279.806 198.875 279.806Z" fill="#B2001A"/>
<path d="M15.6399 371.458C24.0889 371.458 30.9381 369.41 30.9381 366.882C30.9381 364.355 24.0889 362.307 15.6399 362.307C7.19101 362.307 0.341797 364.355 0.341797 366.882C0.341797 369.41 7.19101 371.458 15.6399 371.458Z" fill="#B2001A"/>
<path d="M46.1673 371.458C54.6162 371.458 61.4654 369.41 61.4654 366.882C61.4654 364.355 54.6162 362.307 46.1673 362.307C37.7184 362.307 30.8691 364.355 30.8691 366.882C30.8691 369.41 37.7184 371.458 46.1673 371.458Z" fill="#B2001A"/>
<path d="M76.6956 371.458C85.1445 371.458 91.9937 369.41 91.9937 366.882C91.9937 364.355 85.1445 362.307 76.6956 362.307C68.2467 362.307 61.3975 364.355 61.3975 366.882C61.3975 369.41 68.2467 371.458 76.6956 371.458Z" fill="#B2001A"/>
<path d="M107.224 371.458C115.673 371.458 122.522 369.41 122.522 366.882C122.522 364.355 115.673 362.307 107.224 362.307C98.775 362.307 91.9258 364.355 91.9258 366.882C91.9258 369.41 98.775 371.458 107.224 371.458Z" fill="#B2001A"/>
<path d="M397.478 183.578C395.702 181.802 401.097 173.538 409.498 165.069C417.898 156.601 426.23 151.41 428.006 153.05C429.782 154.689 424.455 163.157 415.986 171.557C407.518 179.958 399.595 185.421 397.478 183.578Z" fill="#B2001A"/>
<path d="M397.478 153.049C399.254 151.273 407.586 156.669 415.986 165.069C424.387 173.469 429.646 181.801 428.006 183.577C426.367 185.353 417.966 180.026 409.498 171.557C401.029 163.088 395.702 154.825 397.478 153.049Z" fill="#B2001A"/>
<path d="M397.478 214.174C395.702 212.398 401.097 204.066 409.498 195.666C417.898 187.266 426.23 182.007 428.006 183.578C429.782 185.148 424.455 193.685 415.986 202.154C407.518 210.623 399.595 215.95 397.478 214.174Z" fill="#B2001A"/>
<path d="M397.478 183.578C399.254 181.803 407.586 187.198 415.986 195.666C424.387 204.135 429.646 212.399 428.006 214.174C426.367 215.95 417.966 210.555 409.498 202.155C401.029 193.754 395.702 185.422 397.478 183.578Z" fill="#B2001A"/>
<path d="M428.006 183.578C426.23 181.802 431.626 173.538 440.026 165.069C448.426 156.601 456.758 151.41 458.602 153.05C460.446 154.689 454.982 163.157 446.514 171.557C438.045 179.958 429.85 185.421 428.006 183.578Z" fill="#B2001A"/>
<path d="M428.007 153.049C429.851 151.273 438.115 156.669 446.515 165.069C454.915 173.469 460.174 181.801 458.603 183.577C457.032 185.353 448.496 180.026 440.027 171.557C431.559 163.088 426.231 154.825 428.007 153.049Z" fill="#B2001A"/>
<path d="M458.604 183.578C456.76 181.802 462.155 173.538 470.624 165.069C479.092 156.601 487.356 151.41 489.131 153.05C490.907 154.689 485.512 163.157 477.111 171.557C468.711 179.958 460.379 185.421 458.604 183.578Z" fill="#B2001A"/>
<path d="M458.602 153.049C460.378 151.273 468.642 156.669 477.11 165.069C485.579 173.469 490.769 181.801 489.13 183.577C487.491 185.353 479.023 180.026 470.622 171.557C462.222 163.088 456.758 154.825 458.602 153.049Z" fill="#B2001A"/>
<path d="M428.006 214.174C426.23 212.398 431.626 204.066 440.026 195.666C448.426 187.266 456.758 182.007 458.602 183.578C460.446 185.148 454.982 193.685 446.514 202.154C438.045 210.623 429.85 215.95 428.006 214.174Z" fill="#B2001A"/>
<path d="M428.007 183.578C429.851 181.803 438.115 187.198 446.515 195.666C454.915 204.135 460.174 212.399 458.603 214.174C457.032 215.95 448.496 210.555 440.027 202.155C431.559 193.754 426.231 185.422 428.007 183.578Z" fill="#B2001A"/>
<path d="M415.954 232.672C424.382 224.244 429.765 215.963 427.979 214.176C426.192 212.389 417.911 217.772 409.483 226.2C401.055 234.629 395.671 242.91 397.458 244.696C399.245 246.483 407.526 241.1 415.954 232.672Z" fill="#B2001A"/>
<path d="M427.979 244.629C429.766 242.842 424.382 234.561 415.954 226.133C407.526 217.705 399.245 212.321 397.458 214.108C395.671 215.895 401.055 224.176 409.483 232.604C417.911 241.032 426.192 246.416 427.979 244.629Z" fill="#B2001A"/>
<path d="M366.95 214.174C365.175 212.398 370.502 204.066 378.97 195.666C387.439 187.266 395.702 182.007 397.478 183.578C399.254 185.148 393.859 193.685 385.459 202.154C377.059 210.623 368.726 215.95 366.95 214.174Z" fill="#B2001A"/>
<path d="M366.95 183.578C368.726 181.803 376.99 187.198 385.459 195.666C393.927 204.135 399.117 212.399 397.478 214.174C395.839 215.95 387.37 210.555 378.97 202.155C370.57 193.754 365.448 185.422 366.95 183.578Z" fill="#B2001A"/>
<path d="M366.95 244.702C365.175 242.926 370.502 234.594 378.97 226.194C387.439 217.793 395.702 212.535 397.478 214.174C399.254 215.813 393.859 224.213 385.459 232.682C377.059 241.15 368.726 246.477 366.95 244.702Z" fill="#B2001A"/>
<path d="M366.95 214.173C368.726 212.397 376.99 217.724 385.459 226.193C393.927 234.662 399.117 242.925 397.478 244.701C395.839 246.477 387.37 241.082 378.97 232.681C370.57 224.281 365.448 215.949 366.95 214.173Z" fill="#B2001A"/>
<path d="M336.354 244.702C334.579 242.926 339.974 234.594 348.443 226.194C356.911 217.793 365.175 212.535 366.95 214.174C368.726 215.813 363.331 224.213 354.93 232.682C346.53 241.15 338.13 246.477 336.354 244.702Z" fill="#B2001A"/>
<path d="M336.354 214.173C338.198 212.397 346.461 217.724 354.93 226.193C363.398 234.662 368.589 242.925 366.95 244.701C365.311 246.477 356.842 241.082 348.442 232.681C340.042 224.281 334.578 215.949 336.354 214.173Z" fill="#B2001A"/>
<path d="M489.13 183.578C487.354 181.802 492.75 173.538 501.15 165.069C509.55 156.601 517.882 151.41 519.658 153.05C521.434 154.689 516.038 163.157 507.638 171.557C499.238 179.958 490.906 185.421 489.13 183.578Z" fill="#B2001A"/>
<path d="M458.604 214.174C456.76 212.398 462.155 204.066 470.624 195.666C479.092 187.266 487.356 182.007 489.131 183.578C490.907 185.148 485.512 193.685 477.111 202.154C468.711 210.623 460.379 215.95 458.604 214.174Z" fill="#B2001A"/>
<path d="M428.006 244.702C426.23 242.926 431.626 234.594 440.026 226.194C448.426 217.793 456.758 212.535 458.602 214.174C460.446 215.813 454.982 224.213 446.514 232.682C438.045 241.15 429.85 246.477 428.006 244.702Z" fill="#B2001A"/>
<path d="M385.43 171.59C393.858 163.162 399.242 154.881 397.455 153.094C395.668 151.307 387.387 156.691 378.959 165.119C370.531 173.547 365.148 181.828 366.935 183.614C368.722 185.401 377.002 180.018 385.43 171.59Z" fill="#B2001A"/>
<path d="M354.834 202.129C363.262 193.701 368.646 185.42 366.859 183.633C365.072 181.846 356.791 187.23 348.363 195.658C339.935 204.086 334.551 212.367 336.338 214.154C338.125 215.94 346.406 210.557 354.834 202.129Z" fill="#B2001A"/>
<path d="M305.825 244.702C304.05 242.926 309.445 234.594 317.845 226.194C326.246 217.793 334.578 212.535 336.353 214.174C338.129 215.813 332.802 224.213 324.333 232.682C315.865 241.15 307.601 246.477 305.825 244.702Z" fill="#B2001A"/>
<path d="M397.478 244.703C397.478 242.176 404.308 240.127 412.776 240.127C421.245 240.127 428.006 242.176 428.006 244.703C428.006 247.23 421.177 249.278 412.776 249.278C404.376 249.278 397.478 247.23 397.478 244.703Z" fill="#B2001A"/>
<path d="M366.95 244.703C366.95 242.176 373.78 240.127 382.18 240.127C390.58 240.127 397.478 242.176 397.478 244.703C397.478 247.23 390.649 249.278 382.18 249.278C373.711 249.278 366.95 247.23 366.95 244.703Z" fill="#B2001A"/>
<path d="M336.354 244.703C336.354 242.176 343.184 240.127 351.653 240.127C360.121 240.127 366.951 242.176 366.951 244.703C366.951 247.23 360.121 249.278 351.653 249.278C343.184 249.278 336.354 247.23 336.354 244.703Z" fill="#B2001A"/>
<path d="M305.826 244.703C305.826 242.176 312.656 240.127 321.124 240.127C329.593 240.127 336.354 242.176 336.354 244.703C336.354 247.23 329.525 249.278 321.124 249.278C312.724 249.278 305.826 247.23 305.826 244.703Z" fill="#B2001A"/>
<path d="M489.131 153.05C489.131 150.523 495.96 148.475 504.361 148.475C512.761 148.475 519.659 150.523 519.659 153.05C519.659 155.577 512.829 157.626 504.361 157.626C495.892 157.626 489.131 155.577 489.131 153.05Z" fill="#B2001A"/>
<path d="M458.603 153.05C458.603 150.523 465.432 148.475 473.832 148.475C482.233 148.475 489.13 150.523 489.13 153.05C489.13 155.577 482.301 157.626 473.832 157.626C465.364 157.626 458.603 155.577 458.603 153.05Z" fill="#B2001A"/>
<path d="M428.007 153.05C428.007 150.523 434.836 148.475 443.305 148.475C451.774 148.475 458.603 150.523 458.603 153.05C458.603 155.577 451.774 157.626 443.305 157.626C434.836 157.626 428.007 155.577 428.007 153.05Z" fill="#B2001A"/>
<path d="M397.478 153.05C397.478 150.523 404.308 148.475 412.776 148.475C421.245 148.475 428.006 150.523 428.006 153.05C428.006 155.577 421.177 157.626 412.776 157.626C404.376 157.626 397.478 155.577 397.478 153.05Z" fill="#B2001A"/>
<path d="M397.478 336.354C399.254 334.578 407.586 339.973 415.986 348.374C424.387 356.774 429.646 365.106 428.006 366.882C426.367 368.657 417.966 363.262 409.498 354.862C401.029 346.462 395.702 338.061 397.478 336.354Z" fill="#B2001A"/>
<path d="M397.478 366.882C395.702 365.107 401.097 356.843 409.498 348.374C417.898 339.906 426.23 334.715 428.006 336.354C429.782 337.993 424.455 346.394 415.986 354.862C407.518 363.331 399.595 368.658 397.478 366.882Z" fill="#B2001A"/>
<path d="M427.975 336.275C429.762 334.488 424.378 326.208 415.95 317.779C407.522 309.351 399.241 303.968 397.455 305.754C395.668 307.541 401.051 315.822 409.479 324.25C417.907 332.678 426.188 338.062 427.975 336.275Z" fill="#B2001A"/>
<path d="M415.95 324.32C424.378 315.892 429.762 307.612 427.975 305.825C426.188 304.038 417.907 309.421 409.479 317.849C401.051 326.277 395.667 334.558 397.454 336.345C399.241 338.132 407.522 332.748 415.95 324.32Z" fill="#B2001A"/>
<path d="M428.007 336.354C429.851 334.578 438.115 339.973 446.515 348.374C454.915 356.774 460.174 365.106 458.603 366.882C457.032 368.657 448.496 363.262 440.027 354.862C431.559 346.462 426.231 338.061 428.007 336.354Z" fill="#B2001A"/>
<path d="M428.006 366.882C426.23 365.107 431.626 356.843 440.026 348.374C448.426 339.906 456.758 334.715 458.602 336.354C460.446 337.993 454.982 346.394 446.514 354.862C438.045 363.331 429.85 368.658 428.006 366.882Z" fill="#B2001A"/>
<path d="M458.602 336.354C460.378 334.578 468.642 339.973 477.11 348.374C485.579 356.774 490.769 365.106 489.13 366.882C487.491 368.657 479.023 363.262 470.622 354.862C462.222 346.462 456.758 338.061 458.602 336.354Z" fill="#B2001A"/>
<path d="M458.604 366.882C456.76 365.107 462.155 356.843 470.624 348.374C479.092 339.906 487.356 334.715 489.131 336.354C490.907 337.993 485.512 346.394 477.111 354.862C468.711 363.331 460.379 368.658 458.604 366.882Z" fill="#B2001A"/>
<path d="M428.007 305.826C429.851 303.982 438.115 309.378 446.515 317.846C454.915 326.315 460.174 334.579 458.603 336.354C457.032 338.13 448.496 332.735 440.027 324.334C431.559 315.934 426.231 307.602 428.007 305.826Z" fill="#B2001A"/>
<path d="M428.006 336.354C426.23 334.578 431.626 326.246 440.026 317.846C448.426 309.446 456.758 304.187 458.602 305.826C460.446 307.465 454.982 315.866 446.514 324.334C438.045 332.803 429.85 338.061 428.006 336.354Z" fill="#B2001A"/>
<path d="M397.478 275.231C399.254 273.455 407.586 278.85 415.986 287.251C424.387 295.651 429.646 303.983 428.006 305.827C426.367 307.671 417.966 302.207 409.498 293.739C401.029 285.27 395.702 277.006 397.478 275.231Z" fill="#B2001A"/>
<path d="M397.478 305.825C395.702 303.981 401.097 295.718 409.498 287.249C417.898 278.781 426.231 273.59 428.006 275.229C429.782 276.868 424.455 285.337 415.986 293.737C407.518 302.137 399.595 307.601 397.478 305.825Z" fill="#B2001A"/>
<path d="M366.95 305.826C368.726 303.982 376.99 309.378 385.459 317.846C393.927 326.315 399.117 334.579 397.478 336.354C395.839 338.13 387.37 332.735 378.97 324.334C370.57 315.934 365.448 307.602 366.95 305.826Z" fill="#B2001A"/>
<path d="M366.95 336.354C365.175 334.578 370.502 326.246 378.97 317.846C387.439 309.446 395.702 304.187 397.478 305.826C399.254 307.465 393.859 315.866 385.459 324.334C377.059 332.803 368.726 338.061 366.95 336.354Z" fill="#B2001A"/>
<path d="M366.95 275.231C368.726 273.455 376.99 278.85 385.459 287.251C393.927 295.651 399.117 303.983 397.478 305.827C395.839 307.671 387.37 302.207 378.97 293.739C370.57 285.27 365.448 277.006 366.95 275.231Z" fill="#B2001A"/>
<path d="M366.95 305.825C365.175 303.981 370.502 295.718 378.971 287.249C387.439 278.781 395.703 273.59 397.478 275.229C399.254 276.868 393.859 285.337 385.459 293.737C377.059 302.137 368.726 307.601 366.95 305.825Z" fill="#B2001A"/>
<path d="M336.354 275.231C338.198 273.455 346.461 278.85 354.93 287.251C363.398 295.651 368.589 303.983 366.95 305.827C365.311 307.671 356.842 302.207 348.442 293.739C340.042 285.27 334.578 277.006 336.354 275.231Z" fill="#B2001A"/>
<path d="M336.355 305.825C334.579 303.981 339.974 295.718 348.443 287.249C356.912 278.781 365.175 273.59 366.951 275.229C368.726 276.868 363.331 285.337 354.931 293.737C346.53 302.137 338.13 307.601 336.355 305.825Z" fill="#B2001A"/>
<path d="M489.13 336.354C490.906 334.578 499.169 339.973 507.638 348.374C516.107 356.774 521.297 365.106 519.658 366.882C518.019 368.657 509.619 363.262 501.15 354.862C492.682 346.462 487.354 338.061 489.13 336.354Z" fill="#B2001A"/>
<path d="M458.602 305.826C460.378 303.982 468.642 309.378 477.11 317.846C485.579 326.315 490.769 334.579 489.13 336.354C487.491 338.13 479.023 332.735 470.622 324.334C462.222 315.934 456.758 307.602 458.602 305.826Z" fill="#B2001A"/>
<path d="M428.007 275.231C429.851 273.455 438.115 278.85 446.515 287.251C454.915 295.651 460.174 303.983 458.603 305.827C457.032 307.671 448.496 302.207 440.027 293.739C431.559 285.27 426.231 277.006 428.007 275.231Z" fill="#B2001A"/>
<path d="M366.95 336.354C368.726 334.578 376.99 339.973 385.459 348.374C393.927 356.774 399.117 365.106 397.478 366.882C395.839 368.657 387.37 363.262 378.97 354.862C370.57 346.462 365.448 338.061 366.95 336.354Z" fill="#B2001A"/>
<path d="M336.354 305.826C338.198 303.982 346.461 309.378 354.93 317.846C363.398 326.315 368.589 334.579 366.95 336.354C365.311 338.13 356.842 332.735 348.442 324.334C340.042 315.934 334.578 307.602 336.354 305.826Z" fill="#B2001A"/>
<path d="M305.826 275.231C307.602 273.455 315.934 278.85 324.334 287.251C332.734 295.651 337.993 303.983 336.354 305.827C334.715 307.671 326.315 302.207 317.846 293.739C309.378 285.27 303.982 277.006 305.826 275.231Z" fill="#B2001A"/>
<path d="M412.708 279.806C421.157 279.806 428.006 277.757 428.006 275.23C428.006 272.703 421.157 270.654 412.708 270.654C404.259 270.654 397.41 272.703 397.41 275.23C397.41 277.757 404.259 279.806 412.708 279.806Z" fill="#B2001A"/>
<path d="M382.18 279.806C390.629 279.806 397.478 277.757 397.478 275.23C397.478 272.703 390.629 270.654 382.18 270.654C373.731 270.654 366.882 272.703 366.882 275.23C366.882 277.757 373.731 279.806 382.18 279.806Z" fill="#B2001A"/>
<path d="M351.653 279.806C360.102 279.806 366.951 277.757 366.951 275.23C366.951 272.703 360.102 270.654 351.653 270.654C343.204 270.654 336.354 272.703 336.354 275.23C336.354 277.757 343.204 279.806 351.653 279.806Z" fill="#B2001A"/>
<path d="M321.056 279.806C329.505 279.806 336.354 277.757 336.354 275.23C336.354 272.703 329.505 270.654 321.056 270.654C312.607 270.654 305.758 272.703 305.758 275.23C305.758 277.757 312.607 279.806 321.056 279.806Z" fill="#B2001A"/>
<path d="M504.361 371.458C512.81 371.458 519.659 369.41 519.659 366.882C519.659 364.355 512.81 362.307 504.361 362.307C495.912 362.307 489.062 364.355 489.062 366.882C489.062 369.41 495.912 371.458 504.361 371.458Z" fill="#B2001A"/>
<path d="M473.832 371.458C482.281 371.458 489.13 369.41 489.13 366.882C489.13 364.355 482.281 362.307 473.832 362.307C465.383 362.307 458.534 364.355 458.534 366.882C458.534 369.41 465.383 371.458 473.832 371.458Z" fill="#B2001A"/>
<path d="M443.236 371.458C451.685 371.458 458.534 369.41 458.534 366.882C458.534 364.355 451.685 362.307 443.236 362.307C434.787 362.307 427.938 364.355 427.938 366.882C427.938 369.41 434.787 371.458 443.236 371.458Z" fill="#B2001A"/>
<path d="M412.708 371.458C421.157 371.458 428.006 369.41 428.006 366.882C428.006 364.355 421.157 362.307 412.708 362.307C404.259 362.307 397.41 364.355 397.41 366.882C397.41 369.41 404.259 371.458 412.708 371.458Z" fill="#B2001A"/>
<path d="M232.658 232.662C241.086 224.234 246.47 215.953 244.683 214.166C242.896 212.379 234.615 217.763 226.187 226.191C217.759 234.619 212.375 242.9 214.162 244.687C215.949 246.474 224.23 241.09 232.658 232.662Z" fill="#B2001A"/>
<path d="M275.298 214.173C277.074 212.397 285.406 217.724 293.806 226.193C302.206 234.662 307.465 242.925 305.826 244.701C304.187 246.477 295.787 241.082 287.318 232.681C278.85 224.281 273.522 215.949 275.298 214.173Z" fill="#B2001A"/>
<path d="M305.826 275.297C308.353 275.297 310.402 268.448 310.402 259.999C310.402 251.55 308.353 244.701 305.826 244.701C303.299 244.701 301.25 251.55 301.25 259.999C301.25 268.448 303.299 275.297 305.826 275.297Z" fill="#B2001A"/>
<path d="M244.769 305.827C242.925 307.603 234.662 302.207 226.262 293.739C217.861 285.27 212.603 277.006 214.173 275.231C215.744 273.455 224.282 278.85 232.682 287.251C241.082 295.651 246.545 303.915 244.769 305.827Z" fill="#B2001A"/>
<path d="M275.298 305.825C273.522 303.981 278.918 295.718 287.318 287.249C295.718 278.781 304.05 273.59 305.826 275.229C307.602 276.868 302.274 285.337 293.806 293.737C285.337 302.137 277.074 307.601 275.298 305.825Z" fill="#B2001A"/>
<path d="M260 310.402C268.449 310.402 275.298 308.353 275.298 305.826C275.298 303.299 268.449 301.25 260 301.25C251.551 301.25 244.702 303.299 244.702 305.826C244.702 308.353 251.551 310.402 260 310.402Z" fill="#B2001A"/>
<path d="M275.298 214.173C275.298 216.7 268.469 218.749 260 218.749C251.531 218.749 244.77 216.7 244.77 214.173C244.77 211.647 251.6 209.598 260 209.598C268.4 209.598 275.298 211.647 275.298 214.173Z" fill="#B2001A"/>
<path d="M305.826 275.297C308.353 275.297 310.402 268.448 310.402 259.999C310.402 251.55 308.353 244.701 305.826 244.701C303.299 244.701 301.25 251.55 301.25 259.999C301.25 268.448 303.299 275.297 305.826 275.297Z" fill="#B2001A"/>
<path d="M214.174 275.229C211.647 275.229 209.599 268.4 209.599 259.999C209.599 251.599 211.647 244.701 214.174 244.701C216.701 244.701 218.75 251.531 218.75 259.999C218.75 268.468 216.701 275.229 214.174 275.229Z" fill="#B2001A"/>
</g>
<defs>
<clipPath id="clip0_1216_95661">
<rect width="520" height="520" fill="white"/>
</clipPath>
</defs>
</svg>
