<svg width="285" height="809" viewBox="0 0 285 809" fill="none" xmlns="http://www.w3.org/2000/svg">
<g opacity="0.8" clip-path="url(#clip0_1234_62782)">
<path d="M47.8343 428.138C50.5858 431.007 42.331 443.862 29.2081 456.929C16.0852 469.996 3.28018 478.177 0.528606 475.733C-2.22297 473.29 6.1377 460.01 19.1548 446.943C32.1719 433.875 45.506 425.376 47.8343 428.138Z" fill="#CA001D"/>
<path d="M0.528579 428.138C3.28016 425.376 16.191 433.769 29.2081 446.942C42.2252 460.116 50.3742 472.864 47.8342 475.733C45.2943 478.601 32.2777 470.102 19.1547 456.929C6.03184 443.755 -2.223 431.006 0.528579 428.138Z" fill="#CA001D"/>
<path d="M95.1397 428.138C97.9971 431.007 89.6377 443.862 76.5148 456.929C63.3919 469.996 50.5856 478.177 47.834 475.733C45.0824 473.29 53.4431 460.01 66.4602 446.943C79.4773 433.875 92.3881 425.376 95.1397 428.138Z" fill="#CA001D"/>
<path d="M95.1396 475.734C97.997 472.865 110.803 481.258 123.82 494.432C136.837 507.605 144.987 520.46 142.552 523.222C140.118 525.984 126.889 517.591 113.872 504.524C100.855 491.457 92.388 478.496 95.1396 475.734Z" fill="#CA001D"/>
<path d="M47.8343 380.65C50.5858 383.412 42.331 396.374 29.2081 409.441C16.0852 422.508 3.28018 430.688 0.528606 428.139C-2.22297 425.589 6.1377 412.522 19.1548 399.348C32.1719 386.175 45.506 377.888 47.8343 380.65Z" fill="#CA001D"/>
<path d="M0.528579 380.651C3.28016 377.889 16.191 386.282 29.2081 399.349C42.2252 412.416 50.3742 425.377 47.8342 428.139C45.2943 430.902 32.2777 422.615 19.1547 409.442C6.03184 396.268 -2.223 383.413 0.528579 380.651Z" fill="#CA001D"/>
<path d="M95.1397 380.65C97.9971 383.412 89.6377 396.374 76.5148 409.441C63.3919 422.508 50.5856 430.688 47.834 428.139C45.0824 425.589 53.4431 412.522 66.4602 399.348C79.4773 386.175 92.3881 377.888 95.1397 380.65Z" fill="#CA001D"/>
<path d="M47.8351 380.651C50.5866 377.889 63.4988 386.282 76.5158 399.349C89.5329 412.416 97.6806 425.377 95.1407 428.139C92.6008 430.902 79.5841 422.615 66.4612 409.442C53.3383 396.268 45.5068 383.413 47.8351 380.651Z" fill="#CA001D"/>
<path d="M47.8343 570.711C50.5858 573.473 42.331 586.434 29.2081 599.501C16.0852 612.569 3.28018 620.749 0.528606 618.199C-2.22297 615.65 6.1377 602.583 19.1548 589.409C32.1719 576.235 45.506 568.055 47.8343 570.711Z" fill="#CA001D"/>
<path d="M0.528579 570.711C3.28016 567.949 16.191 576.342 29.2081 589.409C42.2252 602.476 50.3742 615.437 47.8342 618.2C45.2943 620.962 32.2777 612.675 19.1547 599.501C6.03184 586.328 -2.223 573.473 0.528579 570.711Z" fill="#CA001D"/>
<path d="M95.1397 570.711C97.9971 573.473 89.6377 586.434 76.5148 599.501C63.3919 612.569 50.5856 620.749 47.834 618.199C45.0824 615.65 53.4431 602.583 66.4602 589.409C79.4773 576.235 92.3881 568.055 95.1397 570.711Z" fill="#CA001D"/>
<path d="M95.1396 618.2C97.997 615.437 110.803 623.83 123.82 637.004C136.837 650.177 144.987 662.926 142.552 665.794C140.118 668.663 126.889 660.164 113.872 646.99C100.855 633.817 92.388 621.174 95.1396 618.2Z" fill="#CA001D"/>
<path d="M47.8343 523.223C50.5858 525.985 42.331 538.839 29.2081 552.013C16.0852 565.186 3.28018 573.261 0.528606 570.711C-2.22297 568.161 6.1377 555.094 19.1548 541.921C32.1719 528.747 45.506 520.46 47.8343 523.223Z" fill="#CA001D"/>
<path d="M0.528579 523.222C3.28016 520.46 16.191 528.853 29.2081 541.92C42.2252 554.988 50.3742 567.949 47.8342 570.711C45.2943 573.473 32.2777 565.08 19.1547 552.013C6.03184 538.945 -2.223 525.56 0.528579 523.222Z" fill="#CA001D"/>
<path d="M95.1397 523.223C97.9971 525.985 89.6377 538.839 76.5148 552.013C63.3919 565.186 50.5856 573.261 47.834 570.711C45.0824 568.161 53.4431 555.094 66.4602 541.921C79.4773 528.747 92.3881 520.46 95.1397 523.223Z" fill="#CA001D"/>
<path d="M47.8351 523.222C50.5866 520.46 63.4988 528.853 76.5158 541.92C89.5329 554.988 97.6806 567.949 95.1407 570.711C92.6008 573.473 79.5841 565.08 66.4612 552.013C53.3383 538.945 45.5068 525.56 47.8351 523.222Z" fill="#CA001D"/>
<path d="M47.8343 713.284C50.5858 716.046 42.331 729.007 29.2081 742.074C16.0852 755.141 3.28018 763.322 0.528606 760.772C-2.22297 758.222 6.1377 745.155 19.1548 731.981C32.1719 718.808 45.506 710.521 47.8343 713.284Z" fill="#CA001D"/>
<path d="M47.9112 760.808C50.6803 758.028 42.3381 745.146 29.2781 732.036C16.2181 718.925 3.38574 710.551 0.616683 713.331C-2.15237 716.111 6.1898 728.992 19.2498 742.103C32.3098 755.213 45.1422 763.587 47.9112 760.808Z" fill="#CA001D"/>
<path d="M95.1397 713.284C97.9971 716.046 89.6377 729.007 76.5148 742.074C63.3919 755.141 50.5856 763.322 47.834 760.772C45.0824 758.222 53.4431 745.155 66.4602 731.981C79.4773 718.808 92.3881 710.521 95.1397 713.284Z" fill="#CA001D"/>
<path d="M95.1396 760.771C97.997 758.009 110.803 766.402 123.82 779.469C136.837 792.536 144.987 805.497 142.552 808.259C140.118 811.021 126.889 802.735 113.872 789.562C100.855 776.388 92.388 763.533 95.1396 760.771Z" fill="#CA001D"/>
<path d="M29.1956 694.532C42.2556 681.421 50.5983 668.539 47.8292 665.76C45.0601 662.98 32.228 671.355 19.168 684.465C6.108 697.576 -2.23486 710.457 0.534195 713.237C3.30325 716.017 16.1356 707.642 29.1956 694.532Z" fill="#CA001D"/>
<path d="M0.528579 665.795C3.28016 662.927 16.191 671.319 29.2081 684.493C42.2252 697.666 50.3742 710.521 47.8342 713.284C45.2943 716.046 32.2777 707.653 19.1547 694.586C6.03184 681.518 -2.223 668.557 0.528579 665.795Z" fill="#CA001D"/>
<path d="M95.1397 665.795C97.9971 668.557 89.6377 681.412 76.5148 694.585C63.3919 707.759 50.5856 715.833 47.834 713.283C45.0824 710.733 53.4431 697.56 66.4602 684.492C79.4773 671.425 92.3881 662.926 95.1397 665.795Z" fill="#CA001D"/>
<path d="M47.8351 665.795C50.5866 662.927 63.4988 671.319 76.5158 684.493C89.5329 697.666 97.6806 710.521 95.1407 713.284C92.6008 716.046 79.5841 707.653 66.4612 694.586C53.3383 681.518 45.5068 668.557 47.8351 665.795Z" fill="#CA001D"/>
<path d="M47.8343 285.569C50.5858 288.437 42.331 301.292 29.2081 314.465C16.0852 327.639 3.28018 335.713 0.528606 333.163C-2.22297 330.614 6.1377 317.44 19.1548 304.373C32.1719 291.305 45.506 282.806 47.8343 285.569Z" fill="#CA001D"/>
<path d="M0.528579 285.568C3.28016 282.806 16.191 291.199 29.2081 304.372C42.2252 317.546 50.3742 330.401 47.8342 333.163C45.2943 335.925 32.2777 327.532 19.1547 314.465C6.03184 301.398 -2.223 288.437 0.528579 285.568Z" fill="#CA001D"/>
<path d="M95.1397 285.569C97.9971 288.437 89.6377 301.292 76.5148 314.465C63.3919 327.639 50.5856 335.713 47.834 333.163C45.0824 330.614 53.4431 317.44 66.4602 304.373C79.4773 291.305 92.3881 282.806 95.1397 285.569Z" fill="#CA001D"/>
<path d="M95.1396 333.164C97.997 330.402 110.803 338.689 123.82 351.862C136.837 365.036 144.987 377.89 142.552 380.653C140.118 383.415 126.889 375.022 113.872 361.955C100.855 348.888 92.388 335.927 95.1396 333.164Z" fill="#CA001D"/>
<path d="M47.834 238.079C50.5856 240.841 42.3308 253.802 29.2079 266.869C16.0849 279.937 3.27994 288.117 0.528362 285.567C-2.22322 283.018 6.13745 269.95 19.1545 256.777C32.1716 243.603 45.5058 235.317 47.834 238.079Z" fill="#CA001D"/>
<path d="M0.528579 238.08C3.28016 235.318 16.191 243.711 29.2081 256.778C42.2252 269.845 50.3742 282.806 47.8342 285.569C45.2943 288.331 32.2777 280.044 19.1547 266.871C6.03184 253.697 -2.223 240.842 0.528579 238.08Z" fill="#CA001D"/>
<path d="M95.1397 238.079C97.9971 240.841 89.6377 253.802 76.5148 266.869C63.3919 279.937 50.5856 288.117 47.834 285.567C45.0824 283.018 53.4431 269.95 66.4602 256.777C79.4773 243.603 92.3881 235.317 95.1397 238.079Z" fill="#CA001D"/>
<path d="M47.8351 238.08C50.5866 235.318 63.4988 243.711 76.5158 256.778C89.5329 269.845 97.6806 282.806 95.1407 285.569C92.6008 288.331 79.5841 280.044 66.4612 266.871C53.3383 253.697 45.5068 240.842 47.8351 238.08Z" fill="#CA001D"/>
<path d="M47.834 143.104C50.5856 145.866 42.3308 158.721 29.2079 171.894C16.0849 185.068 3.27994 193.142 0.528362 190.592C-2.22322 188.042 6.13745 174.869 19.1545 161.802C32.1716 148.734 45.5058 140.235 47.834 143.104Z" fill="#CA001D"/>
<path d="M47.8309 190.549C50.6 187.77 42.2578 174.888 29.1978 161.777C16.1378 148.667 3.30541 140.293 0.53636 143.072C-2.23269 145.852 6.10948 158.734 19.1695 171.844C32.2295 184.955 45.0619 193.329 47.8309 190.549Z" fill="#CA001D"/>
<path d="M76.5128 171.836C89.5728 158.726 97.9157 145.844 95.1466 143.065C92.3776 140.285 79.5452 148.66 66.4852 161.77C53.4252 174.88 45.0835 187.761 47.8525 190.541C50.6216 193.321 63.4528 184.947 76.5128 171.836Z" fill="#CA001D"/>
<path d="M47.8351 143.103C50.5866 140.235 63.4988 148.628 76.5158 161.801C89.5329 174.975 97.6806 187.829 95.1407 190.592C92.6008 193.354 79.5841 184.961 66.4612 171.894C53.3383 158.826 45.5068 145.865 47.8351 143.103Z" fill="#CA001D"/>
<path d="M47.8351 428.138C50.5866 425.376 63.4988 433.769 76.5158 446.942C89.5329 460.116 97.6806 472.864 95.1407 475.733C92.6008 478.601 79.5841 470.102 66.4612 456.929C53.3383 443.755 45.5068 431.006 47.8351 428.138Z" fill="#CA001D"/>
<path d="M47.8351 570.711C50.5866 567.949 63.4988 576.342 76.5158 589.409C89.5329 602.476 97.6806 615.437 95.1407 618.2C92.6008 620.962 79.5841 612.675 66.4612 599.501C53.3383 586.328 45.5068 573.473 47.8351 570.711Z" fill="#CA001D"/>
<path d="M47.8351 713.284C50.5866 710.522 63.4988 718.914 76.5158 731.982C89.5329 745.049 97.6806 758.01 95.1407 760.772C92.6008 763.534 79.5841 755.248 66.4612 742.074C53.3383 728.901 45.5068 716.046 47.8351 713.284Z" fill="#CA001D"/>
<path d="M47.8351 285.568C50.5866 282.806 63.4988 291.199 76.5158 304.372C89.5329 317.546 97.6806 330.401 95.1407 333.163C92.6008 335.925 79.5841 327.532 66.4612 314.465C53.3383 301.398 45.5068 288.437 47.8351 285.568Z" fill="#CA001D"/>
<path d="M47.8351 143.103C50.5866 140.235 63.4988 148.628 76.5158 161.801C89.5329 174.975 97.6806 187.829 95.1407 190.592C92.6008 193.354 79.5841 184.961 66.4612 171.894C53.3383 158.826 45.5068 145.865 47.8351 143.103Z" fill="#CA001D"/>
<path d="M95.1396 475.734C97.997 472.865 110.803 481.258 123.82 494.432C136.837 507.605 144.987 520.46 142.552 523.222C140.118 525.984 126.889 517.591 113.872 504.524C100.855 491.457 92.388 478.496 95.1396 475.734Z" fill="#CA001D"/>
<path d="M95.1396 618.2C97.997 615.437 110.803 623.83 123.82 637.004C136.837 650.177 144.987 662.926 142.552 665.794C140.118 668.663 126.889 660.164 113.872 646.99C100.855 633.817 92.388 621.174 95.1396 618.2Z" fill="#CA001D"/>
<path d="M95.1396 760.771C97.997 758.009 110.803 766.402 123.82 779.469C136.837 792.536 144.987 805.497 142.552 808.259C140.118 811.021 126.889 802.735 113.872 789.562C100.855 776.388 92.388 763.533 95.1396 760.771Z" fill="#CA001D"/>
<path d="M95.1396 333.164C97.997 330.402 110.803 338.689 123.82 351.862C136.837 365.036 144.987 377.89 142.552 380.653C140.118 383.415 126.889 375.022 113.872 361.955C100.855 348.888 92.388 335.927 95.1396 333.164Z" fill="#CA001D"/>
<path d="M95.1396 475.734C97.997 472.865 110.803 481.258 123.82 494.432C136.837 507.605 144.987 520.46 142.552 523.222C140.118 525.984 126.889 517.591 113.872 504.524C100.855 491.457 92.388 478.496 95.1396 475.734Z" fill="#CA001D"/>
<path d="M95.1396 618.2C97.997 615.437 110.803 623.83 123.82 637.004C136.837 650.177 144.987 662.926 142.552 665.794C140.118 668.663 126.889 660.164 113.872 646.99C100.855 633.817 92.388 621.174 95.1396 618.2Z" fill="#CA001D"/>
<path d="M95.1396 760.771C97.997 758.009 110.803 766.402 123.82 779.469C136.837 792.536 144.987 805.497 142.552 808.259C140.118 811.021 126.889 802.735 113.872 789.562C100.855 776.388 92.388 763.533 95.1396 760.771Z" fill="#CA001D"/>
<path d="M95.1396 333.164C97.997 330.402 110.803 338.689 123.82 351.862C136.837 365.036 144.987 377.89 142.552 380.653C140.118 383.415 126.889 375.022 113.872 361.955C100.855 348.888 92.388 335.927 95.1396 333.164Z" fill="#CA001D"/>
<path d="M95.1396 190.59C97.997 187.828 110.803 196.221 123.82 209.288C136.837 222.356 144.987 235.317 142.552 238.079C140.118 240.841 126.889 232.554 113.872 219.381C100.855 206.207 92.388 193.353 95.1396 190.59Z" fill="#CA001D"/>
<path d="M47.834 95.507C50.5856 98.3755 42.3308 111.231 29.2079 124.298C16.0849 137.365 3.27994 145.545 0.528362 143.102C-2.22322 140.658 6.13745 127.379 19.1545 114.311C32.1716 101.244 45.5058 92.7449 47.834 95.507Z" fill="#CA001D"/>
<path d="M0.528579 95.5077C3.28016 92.7455 16.191 101.139 29.2081 114.312C42.2252 127.486 50.3742 140.234 47.8342 143.102C45.2943 145.971 32.2777 137.472 19.1547 124.298C6.03184 111.125 -2.223 98.3761 0.528579 95.5077Z" fill="#CA001D"/>
<path d="M95.1397 95.507C97.9971 98.3755 89.6377 111.231 76.5148 124.298C63.3919 137.365 50.5856 145.545 47.834 143.102C45.0824 140.658 53.4431 127.379 66.4602 114.311C79.4773 101.244 92.3881 92.7449 95.1397 95.507Z" fill="#CA001D"/>
<path d="M95.1388 143.044C97.9079 140.264 89.5657 127.382 76.5057 114.272C63.4457 101.161 50.6133 92.7868 47.8443 95.5666C45.0752 98.3463 53.4183 111.227 66.4783 124.338C79.5383 137.448 92.3698 145.823 95.1388 143.044Z" fill="#CA001D"/>
<path d="M284.464 475.67C287.233 472.89 278.891 460.008 265.831 446.898C252.771 433.787 239.939 425.413 237.17 428.193C234.401 430.972 242.744 443.853 255.804 456.964C268.864 470.074 281.695 478.449 284.464 475.67Z" fill="#CA001D"/>
<path d="M284.47 428.138C287.327 431.007 278.967 443.862 265.844 456.929C252.721 469.996 239.916 478.177 237.164 475.733C234.413 473.29 242.773 460.01 255.79 446.943C268.807 433.875 281.718 425.376 284.47 428.138Z" fill="#CA001D"/>
<path d="M189.86 428.138C192.612 425.376 205.523 433.769 218.54 446.942C231.557 460.116 239.706 472.864 237.166 475.733C234.626 478.601 221.609 470.102 208.486 456.929C195.363 443.755 187.109 431.006 189.86 428.138Z" fill="#CA001D"/>
<path d="M189.859 475.733C192.611 478.496 184.25 491.35 171.233 504.524C158.216 517.697 145.305 525.772 142.554 523.222C139.802 520.672 148.057 507.499 161.18 494.431C174.303 481.364 187.108 472.44 189.859 475.733Z" fill="#CA001D"/>
<path d="M237.165 380.651C239.917 377.889 252.827 386.282 265.845 399.349C278.862 412.416 287.011 425.377 284.471 428.139C281.931 430.902 268.914 422.615 255.791 409.442C242.668 396.268 234.413 383.413 237.165 380.651Z" fill="#CA001D"/>
<path d="M265.928 409.468C278.988 396.357 287.33 383.476 284.561 380.696C281.792 377.916 268.96 386.291 255.9 399.401C242.84 412.512 234.497 425.394 237.266 428.173C240.035 430.953 252.868 422.578 265.928 409.468Z" fill="#CA001D"/>
<path d="M189.86 380.651C192.612 377.889 205.523 386.282 218.54 399.349C231.557 412.416 239.706 425.377 237.166 428.139C234.626 430.902 221.609 422.615 208.486 409.442C195.363 396.268 187.109 383.413 189.86 380.651Z" fill="#CA001D"/>
<path d="M237.163 380.65C239.914 383.412 231.66 396.374 218.537 409.441C205.414 422.508 192.609 430.688 189.857 428.139C187.106 425.589 195.466 412.522 208.483 399.348C221.5 386.175 234.411 377.888 237.163 380.65Z" fill="#CA001D"/>
<path d="M284.563 618.235C287.332 615.455 278.99 602.573 265.93 589.463C252.87 576.353 240.037 567.978 237.268 570.758C234.499 573.538 242.842 586.419 255.902 599.529C268.962 612.639 281.794 621.015 284.563 618.235Z" fill="#CA001D"/>
<path d="M284.47 570.711C287.327 573.473 278.967 586.434 265.844 599.501C252.721 612.569 239.916 620.749 237.164 618.199C234.413 615.65 242.773 602.583 255.79 589.409C268.807 576.235 281.718 568.055 284.47 570.711Z" fill="#CA001D"/>
<path d="M189.86 570.711C192.612 567.949 205.523 576.342 218.54 589.409C231.557 602.476 239.706 615.437 237.166 618.2C234.626 620.962 221.609 612.675 208.486 599.501C195.363 586.328 187.109 573.473 189.86 570.711Z" fill="#CA001D"/>
<path d="M189.859 618.2C192.611 621.068 184.25 633.923 171.233 646.99C158.216 660.058 145.305 668.238 142.554 665.795C139.802 663.351 148.057 650.071 161.18 637.004C174.303 623.937 187.108 615.438 189.859 618.2Z" fill="#CA001D"/>
<path d="M237.165 523.222C239.916 520.46 252.827 528.853 265.844 541.92C278.861 554.988 287.01 567.949 284.47 570.711C281.931 573.473 268.914 565.08 255.791 552.013C242.668 538.945 234.413 525.56 237.165 523.222Z" fill="#CA001D"/>
<path d="M265.847 551.955C278.907 538.845 287.25 525.963 284.481 523.183C281.712 520.404 268.88 528.778 255.82 541.889C242.76 554.999 234.417 567.881 237.186 570.661C239.955 573.44 252.787 565.065 265.847 551.955Z" fill="#CA001D"/>
<path d="M189.86 523.222C192.612 520.46 205.523 528.853 218.54 541.92C231.557 554.988 239.706 567.949 237.166 570.711C234.626 573.473 221.609 565.08 208.486 552.013C195.363 538.945 187.109 525.56 189.86 523.222Z" fill="#CA001D"/>
<path d="M237.163 523.223C239.914 525.985 231.66 538.839 218.537 552.013C205.414 565.186 192.609 573.261 189.857 570.711C187.106 568.161 195.466 555.094 208.483 541.921C221.5 528.747 234.411 520.46 237.163 523.223Z" fill="#CA001D"/>
<path d="M237.165 713.284C239.916 710.522 252.827 718.914 265.844 731.982C278.861 745.049 287.01 758.01 284.47 760.772C281.931 763.534 268.914 755.248 255.791 742.074C242.668 728.901 234.413 716.046 237.165 713.284Z" fill="#CA001D"/>
<path d="M284.47 713.284C287.327 716.046 278.967 729.007 265.844 742.074C252.721 755.141 239.916 763.322 237.164 760.772C234.413 758.222 242.773 745.155 255.79 731.981C268.807 718.808 281.718 710.521 284.47 713.284Z" fill="#CA001D"/>
<path d="M189.86 713.284C192.612 710.522 205.523 718.914 218.54 731.982C231.557 745.049 239.706 758.01 237.166 760.772C234.626 763.534 221.609 755.248 208.486 742.074C195.363 728.901 187.109 716.046 189.86 713.284Z" fill="#CA001D"/>
<path d="M189.859 760.77C192.611 763.532 184.25 776.493 171.233 789.56C158.216 802.628 145.305 810.808 142.554 808.258C139.802 805.708 148.057 792.641 161.18 779.468C174.303 766.294 187.108 758.008 189.859 760.77Z" fill="#CA001D"/>
<path d="M237.165 665.795C239.917 662.927 252.827 671.319 265.845 684.493C278.862 697.666 287.011 710.521 284.471 713.284C281.931 716.046 268.914 707.653 255.791 694.586C242.668 681.518 234.413 668.557 237.165 665.795Z" fill="#CA001D"/>
<path d="M284.47 665.795C287.327 668.557 278.967 681.412 265.844 694.585C252.721 707.759 239.916 715.833 237.164 713.283C234.413 710.733 242.773 697.56 255.79 684.492C268.807 671.425 281.718 662.926 284.47 665.795Z" fill="#CA001D"/>
<path d="M189.86 665.795C192.612 662.927 205.523 671.319 218.54 684.493C231.557 697.666 239.706 710.521 237.166 713.284C234.626 716.046 221.609 707.653 208.486 694.586C195.363 681.518 187.109 668.557 189.86 665.795Z" fill="#CA001D"/>
<path d="M237.163 665.795C239.914 668.557 231.66 681.412 218.537 694.585C205.414 707.759 192.609 715.833 189.857 713.283C187.106 710.733 195.466 697.56 208.483 684.492C221.5 671.425 234.411 662.926 237.163 665.795Z" fill="#CA001D"/>
<path d="M284.47 333.105C287.239 330.325 278.897 317.443 265.837 304.333C252.777 291.223 239.945 282.848 237.176 285.628C234.407 288.408 242.75 301.289 255.81 314.399C268.87 327.51 281.701 335.885 284.47 333.105Z" fill="#CA001D"/>
<path d="M284.47 285.569C287.327 288.437 278.967 301.292 265.844 314.465C252.721 327.639 239.916 335.713 237.164 333.163C234.413 330.614 242.773 317.44 255.79 304.373C268.807 291.305 281.718 282.806 284.47 285.569Z" fill="#CA001D"/>
<path d="M189.86 285.568C192.612 282.806 205.523 291.199 218.54 304.372C231.557 317.546 239.706 330.401 237.166 333.163C234.626 335.925 221.609 327.532 208.486 314.465C195.363 301.398 187.109 288.437 189.86 285.568Z" fill="#CA001D"/>
<path d="M189.859 333.163C192.611 335.925 184.25 348.78 171.233 361.953C158.216 375.127 145.305 383.201 142.554 380.651C139.802 378.101 148.057 364.928 161.18 351.86C174.303 338.793 187.108 330.401 189.859 333.163Z" fill="#CA001D"/>
<path d="M237.165 238.08C239.916 235.318 252.827 243.711 265.844 256.778C278.861 269.845 287.01 282.806 284.47 285.569C281.931 288.331 268.914 280.044 255.791 266.871C242.668 253.697 234.413 240.842 237.165 238.08Z" fill="#CA001D"/>
<path d="M265.935 266.902C278.995 253.792 287.338 240.91 284.568 238.13C281.799 235.351 268.967 243.726 255.907 256.836C242.847 269.946 234.504 282.828 237.273 285.608C240.043 288.387 252.875 280.013 265.935 266.902Z" fill="#CA001D"/>
<path d="M189.86 238.08C192.612 235.318 205.523 243.711 218.54 256.778C231.557 269.845 239.706 282.806 237.166 285.569C234.626 288.331 221.609 280.044 208.486 266.871C195.363 253.697 187.109 240.842 189.86 238.08Z" fill="#CA001D"/>
<path d="M237.163 238.079C239.914 240.841 231.66 253.802 218.537 266.869C205.414 279.937 192.609 288.117 189.857 285.567C187.106 283.018 195.466 269.95 208.483 256.777C221.5 243.603 234.411 235.317 237.163 238.079Z" fill="#CA001D"/>
<path d="M284.479 190.539C287.248 187.759 278.906 174.877 265.846 161.767C252.786 148.656 239.953 140.282 237.184 143.062C234.415 145.841 242.758 158.722 255.818 171.833C268.878 184.943 281.71 193.318 284.479 190.539Z" fill="#CA001D"/>
<path d="M284.47 143.104C287.327 145.866 278.967 158.721 265.844 171.894C252.721 185.068 239.916 193.142 237.164 190.592C234.413 188.042 242.773 174.869 255.79 161.802C268.807 148.734 281.718 140.235 284.47 143.104Z" fill="#CA001D"/>
<path d="M189.86 143.103C192.612 140.235 205.523 148.628 218.54 161.801C231.557 174.975 239.706 187.829 237.166 190.592C234.626 193.354 221.609 184.961 208.486 171.894C195.363 158.826 187.109 145.865 189.86 143.103Z" fill="#CA001D"/>
<path d="M237.163 143.104C239.914 145.866 231.66 158.721 218.537 171.894C205.414 185.068 192.609 193.142 189.857 190.592C187.106 188.042 195.466 174.869 208.483 161.802C221.5 148.734 234.411 140.235 237.163 143.104Z" fill="#CA001D"/>
<path d="M237.163 428.138C239.914 431.007 231.66 443.862 218.537 456.929C205.414 469.996 192.609 478.177 189.857 475.733C187.106 473.29 195.466 460.01 208.483 446.943C221.5 433.875 234.411 425.376 237.163 428.138Z" fill="#CA001D"/>
<path d="M237.163 570.711C239.914 573.473 231.66 586.434 218.537 599.501C205.414 612.569 192.609 620.749 189.857 618.199C187.106 615.65 195.466 602.583 208.483 589.409C221.5 576.235 234.411 568.055 237.163 570.711Z" fill="#CA001D"/>
<path d="M237.163 713.284C239.914 716.046 231.66 729.007 218.537 742.074C205.414 755.141 192.609 763.322 189.857 760.772C187.106 758.222 195.466 745.155 208.483 731.981C221.5 718.808 234.411 710.521 237.163 713.284Z" fill="#CA001D"/>
<path d="M218.523 314.407C231.583 301.296 239.925 288.414 237.156 285.635C234.387 282.855 221.555 291.23 208.495 304.34C195.435 317.451 187.092 330.332 189.861 333.112C192.63 335.892 205.463 327.517 218.523 314.407Z" fill="#CA001D"/>
<path d="M237.163 143.104C239.914 145.866 231.66 158.721 218.537 171.894C205.414 185.068 192.609 193.142 189.857 190.592C187.106 188.042 195.466 174.869 208.483 161.802C221.5 148.734 234.411 140.235 237.163 143.104Z" fill="#CA001D"/>
<path d="M189.859 475.733C192.611 478.496 184.25 491.35 171.233 504.524C158.216 517.697 145.305 525.772 142.554 523.222C139.802 520.672 148.057 507.499 161.18 494.431C174.303 481.364 187.108 472.44 189.859 475.733Z" fill="#CA001D"/>
<path d="M189.859 618.2C192.611 621.068 184.25 633.923 171.233 646.99C158.216 660.058 145.305 668.238 142.554 665.795C139.802 663.351 148.057 650.071 161.18 637.004C174.303 623.937 187.108 615.438 189.859 618.2Z" fill="#CA001D"/>
<path d="M189.859 760.77C192.611 763.532 184.25 776.493 171.233 789.56C158.216 802.628 145.305 810.808 142.554 808.258C139.802 805.708 148.057 792.641 161.18 779.468C174.303 766.294 187.108 758.008 189.859 760.77Z" fill="#CA001D"/>
<path d="M189.859 333.163C192.611 335.925 184.25 348.78 171.233 361.953C158.216 375.127 145.305 383.201 142.554 380.651C139.802 378.101 148.057 364.928 161.18 351.86C174.303 338.793 187.108 330.401 189.859 333.163Z" fill="#CA001D"/>
<path d="M189.859 475.733C192.611 478.496 184.25 491.35 171.233 504.524C158.216 517.697 145.305 525.772 142.554 523.222C139.802 520.672 148.057 507.499 161.18 494.431C174.303 481.364 187.108 472.44 189.859 475.733Z" fill="#CA001D"/>
<path d="M189.859 618.2C192.611 621.068 184.25 633.923 171.233 646.99C158.216 660.058 145.305 668.238 142.554 665.795C139.802 663.351 148.057 650.071 161.18 637.004C174.303 623.937 187.108 615.438 189.859 618.2Z" fill="#CA001D"/>
<path d="M189.859 760.77C192.611 763.532 184.25 776.493 171.233 789.56C158.216 802.628 145.305 810.808 142.554 808.258C139.802 805.708 148.057 792.641 161.18 779.468C174.303 766.294 187.108 758.008 189.859 760.77Z" fill="#CA001D"/>
<path d="M189.859 333.163C192.611 335.925 184.25 348.78 171.233 361.953C158.216 375.127 145.305 383.201 142.554 380.651C139.802 378.101 148.057 364.928 161.18 351.86C174.303 338.793 187.108 330.401 189.859 333.163Z" fill="#CA001D"/>
<path d="M189.859 190.592C192.611 193.354 184.25 206.315 171.233 219.383C158.216 232.45 145.305 240.63 142.554 238.081C139.802 235.531 148.057 222.464 161.18 209.29C174.303 196.117 187.108 187.83 189.859 190.592Z" fill="#CA001D"/>
<path d="M284.47 143.042C287.239 140.262 278.897 127.38 265.837 114.27C252.777 101.159 239.945 92.7849 237.176 95.5646C234.407 98.3443 242.75 111.225 255.81 124.336C268.87 137.446 281.701 145.821 284.47 143.042Z" fill="#CA001D"/>
<path d="M284.47 95.507C287.327 98.3755 278.967 111.231 265.844 124.298C252.721 137.365 239.916 145.545 237.164 143.102C234.413 140.658 242.773 127.379 255.79 114.311C268.807 101.244 281.718 92.7449 284.47 95.507Z" fill="#CA001D"/>
<path d="M189.86 95.5077C192.612 92.7455 205.523 101.139 218.54 114.312C231.557 127.486 239.706 140.234 237.166 143.102C234.626 145.971 221.609 137.472 208.486 124.298C195.363 111.125 187.109 98.3761 189.86 95.5077Z" fill="#CA001D"/>
<path d="M237.163 95.507C239.914 98.3755 231.66 111.231 218.537 124.298C205.414 137.365 192.609 145.545 189.857 143.102C187.106 140.658 195.466 127.379 208.483 114.311C221.5 101.244 234.411 92.7449 237.163 95.507Z" fill="#CA001D"/>
<path d="M189.859 48.0194C192.611 50.7816 184.25 63.7429 171.233 76.8102C158.216 89.8774 145.305 98.0576 142.554 95.5078C139.802 92.9581 148.057 79.8909 161.18 66.7174C174.303 53.5439 187.108 45.2572 189.859 48.0194Z" fill="#CA001D"/>
<path d="M142.554 48.0192C145.305 45.257 158.11 53.6499 171.233 66.7172C184.356 79.7845 192.399 92.7454 189.859 95.5076C187.319 98.2698 174.197 89.9834 161.18 76.8099C148.163 63.6364 139.802 50.7813 142.554 48.0192Z" fill="#CA001D"/>
<path d="M123.917 76.8325C136.977 63.7221 145.319 50.8414 142.55 48.0616C139.781 45.2819 126.949 53.6558 113.889 66.7662C100.829 79.8766 92.4866 92.7584 95.2556 95.5381C98.0247 98.3179 110.857 89.9428 123.917 76.8325Z" fill="#CA001D"/>
<path d="M142.55 95.5387C145.319 92.759 136.976 79.878 123.916 66.7676C110.856 53.6573 98.0249 45.282 95.2558 48.0617C92.4868 50.8415 100.829 63.7233 113.889 76.8337C126.949 89.9441 139.781 98.3184 142.55 95.5387Z" fill="#CA001D"/>
<path d="M189.859 0.530618C192.611 3.29281 184.25 16.1479 171.233 29.3214C158.216 42.4949 145.305 50.5688 142.554 48.0191C139.802 45.4694 148.057 32.4022 161.18 19.2286C174.303 6.0551 187.108 -2.23157 189.859 0.530618Z" fill="#CA001D"/>
<path d="M142.554 0.530871C145.305 -2.23132 158.11 6.1616 171.233 19.2289C184.356 32.2962 192.399 45.2571 189.859 48.0193C187.319 50.7815 174.197 42.3889 161.18 29.3216C148.163 16.2543 139.802 3.29306 142.554 0.530871Z" fill="#CA001D"/>
<path d="M142.554 0.530618C145.305 3.29281 136.945 16.1479 123.822 29.3214C110.699 42.4949 97.9983 50.5688 95.1409 48.0191C92.2835 45.4694 100.75 32.4022 113.873 19.2286C126.996 6.0551 139.696 -2.23157 142.554 0.530618Z" fill="#CA001D"/>
<path d="M95.1396 0.530871C97.997 -2.23132 110.803 6.1616 123.82 19.2289C136.837 32.2962 144.987 45.2571 142.552 48.0193C140.118 50.7815 126.889 42.3889 113.872 29.3216C100.855 16.2543 92.388 3.29306 95.1396 0.530871Z" fill="#CA001D"/>
<path d="M142.553 808.365C146.469 808.365 149.643 797.711 149.643 784.568C149.643 771.425 146.469 760.771 142.553 760.771C138.636 760.771 135.462 771.425 135.462 784.568C135.462 797.711 138.636 808.365 142.553 808.365Z" fill="#CA001D"/>
<path d="M142.553 760.876C146.469 760.876 149.643 750.222 149.643 737.079C149.643 723.936 146.469 713.282 142.553 713.282C138.636 713.282 135.462 723.936 135.462 737.079C135.462 750.222 138.636 760.876 142.553 760.876Z" fill="#CA001D"/>
<path d="M142.553 713.283C146.469 713.283 149.643 702.628 149.643 689.485C149.643 676.342 146.469 665.688 142.553 665.688C138.636 665.688 135.462 676.342 135.462 689.485C135.462 702.628 138.636 713.283 142.553 713.283Z" fill="#CA001D"/>
<path d="M142.553 665.795C146.469 665.795 149.643 655.14 149.643 641.998C149.643 628.855 146.469 618.2 142.553 618.2C138.636 618.2 135.462 628.855 135.462 641.998C135.462 655.14 138.636 665.795 142.553 665.795Z" fill="#CA001D"/>
<path d="M142.553 618.306C146.469 618.306 149.643 607.652 149.643 594.509C149.643 581.366 146.469 570.711 142.553 570.711C138.636 570.711 135.462 581.366 135.462 594.509C135.462 607.652 138.636 618.306 142.553 618.306Z" fill="#CA001D"/>
<path d="M142.553 570.817C146.469 570.817 149.643 560.163 149.643 547.02C149.643 533.877 146.469 523.223 142.553 523.223C138.636 523.223 135.462 533.877 135.462 547.02C135.462 560.163 138.636 570.817 142.553 570.817Z" fill="#CA001D"/>
<path d="M142.553 523.222C146.469 523.222 149.643 512.568 149.643 499.425C149.643 486.282 146.469 475.627 142.553 475.627C138.636 475.627 135.462 486.282 135.462 499.425C135.462 512.568 138.636 523.222 142.553 523.222Z" fill="#CA001D"/>
<path d="M142.553 475.733C146.469 475.733 149.643 465.079 149.643 451.936C149.643 438.793 146.469 428.139 142.553 428.139C138.636 428.139 135.462 438.793 135.462 451.936C135.462 465.079 138.636 475.733 142.553 475.733Z" fill="#CA001D"/>
<path d="M142.553 428.246C146.469 428.246 149.643 417.592 149.643 404.449C149.643 391.306 146.469 380.651 142.553 380.651C138.636 380.651 135.462 391.306 135.462 404.449C135.462 417.592 138.636 428.246 142.553 428.246Z" fill="#CA001D"/>
<path d="M142.553 380.757C146.469 380.757 149.643 370.103 149.643 356.96C149.643 343.817 146.469 333.163 142.553 333.163C138.636 333.163 135.462 343.817 135.462 356.96C135.462 370.103 138.636 380.757 142.553 380.757Z" fill="#CA001D"/>
<path d="M142.553 333.164C146.469 333.164 149.643 322.509 149.643 309.366C149.643 296.223 146.469 285.569 142.553 285.569C138.636 285.569 135.462 296.223 135.462 309.366C135.462 322.509 138.636 333.164 142.553 333.164Z" fill="#CA001D"/>
<path d="M142.553 285.675C146.469 285.675 149.643 275.02 149.643 261.877C149.643 248.735 146.469 238.08 142.553 238.08C138.636 238.08 135.462 248.735 135.462 261.877C135.462 275.02 138.636 285.675 142.553 285.675Z" fill="#CA001D"/>
<path d="M142.553 238.186C146.469 238.186 149.643 227.532 149.643 214.389C149.643 201.246 146.469 190.591 142.553 190.591C138.636 190.591 135.462 201.246 135.462 214.389C135.462 227.532 138.636 238.186 142.553 238.186Z" fill="#CA001D"/>
<path d="M142.553 190.591C146.469 190.591 149.643 179.936 149.643 166.793C149.643 153.651 146.469 142.996 142.553 142.996C138.636 142.996 135.462 153.651 135.462 166.793C135.462 179.936 138.636 190.591 142.553 190.591Z" fill="#CA001D"/>
<path d="M142.553 143.102C146.469 143.102 149.643 132.448 149.643 119.305C149.643 106.162 146.469 95.5073 142.553 95.5073C138.636 95.5073 135.462 106.162 135.462 119.305C135.462 132.448 138.636 143.102 142.553 143.102Z" fill="#CA001D"/>
</g>
<defs>
<clipPath id="clip0_1234_62782">
<rect width="285" height="808.897" fill="white"/>
</clipPath>
</defs>
</svg>
