<svg width="304" height="609" viewBox="0 0 304 609" fill="none" xmlns="http://www.w3.org/2000/svg">
<g clip-path="url(#clip0_1234_62915)">
<path d="M284 47.4365C284 43.2769 292.963 40 304.067 40C315.171 40 324 43.2769 324 47.4365C324 51.5962 315.037 55 304.067 55C293.097 55 284 51.7222 284 47.4365Z" fill="#B2001A"/>
<path d="M304 16C315.046 16 324 12.4183 324 8C324 3.58172 315.046 0 304 0C292.954 0 284 3.58172 284 8C284 12.4183 292.954 16 304 16Z" fill="#B2001A"/>
<path d="M284.5 48C288.642 48 292 39.0457 292 28C292 16.9543 288.642 8 284.5 8C280.358 8 277 16.9543 277 28C277 39.0457 280.358 48 284.5 48Z" fill="#B2001A"/>
<path d="M284 205C284 200.6 292.963 197 304.067 197C315.171 197 324 200.6 324 205C324 209.4 315.037 213 304.067 213C293.097 213 284 209.8 284 205Z" fill="#B2001A"/>
<path d="M304 174C315.046 174 324 170.418 324 166C324 161.582 315.046 158 304 158C292.954 158 284 161.582 284 166C284 170.418 292.954 174 304 174Z" fill="#B2001A"/>
<path d="M284.5 206C288.642 206 292 197.046 292 186C292 174.954 288.642 166 284.5 166C280.358 166 277 174.954 277 186C277 197.046 280.358 206 284.5 206Z" fill="#B2001A"/>
<path d="M245 126C240.6 126 237 117.037 237 105.933C237 94.8293 240.6 86 245 86C249.4 86 253 94.9631 253 105.933C253 116.903 249.4 126 245 126Z" fill="#B2001A"/>
<path d="M205.437 126C201.277 126 198 117.037 198 105.933C198 94.8293 201.277 86 205.437 86C209.597 86 213 94.9631 213 105.933C213 116.903 209.597 126 205.437 126Z" fill="#B2001A"/>
<path d="M225 95C236.046 95 245 91.4183 245 87C245 82.5817 236.046 79 225 79C213.954 79 205 82.5817 205 87C205 91.4183 213.954 95 225 95Z" fill="#B2001A"/>
<path d="M225 134C236.046 134 245 130.642 245 126.5C245 122.358 236.046 119 225 119C213.954 119 205 122.358 205 126.5C205 130.642 213.954 134 225 134Z" fill="#B2001A"/>
<path d="M284.5 87C288.642 87 292 78.0457 292 67C292 55.9543 288.642 47 284.5 47C280.358 47 277 55.9543 277 67C277 78.0457 280.358 87 284.5 87Z" fill="#B2001A"/>
<path d="M245 87C249.418 87 253 78.0457 253 67C253 55.9543 249.418 47 245 47C240.582 47 237 55.9543 237 67C237 78.0457 240.582 87 245 87Z" fill="#B2001A"/>
<path d="M284 47.4365C284 51.5962 275.261 55 264.435 55C253.609 55 245 51.5962 245 47.4365C245 43.2769 253.739 40 264.435 40C275.13 40 284 43.2769 284 47.4365Z" fill="#B2001A"/>
<path d="M264.5 95C275.27 95 284 91.4183 284 87C284 82.5817 275.27 79 264.5 79C253.73 79 245 82.5817 245 87C245 91.4183 253.73 95 264.5 95Z" fill="#B2001A"/>
<path d="M284.5 166C288.642 166 292 157.046 292 146C292 134.954 288.642 126 284.5 126C280.358 126 277 134.954 277 146C277 157.046 280.358 166 284.5 166Z" fill="#B2001A"/>
<path d="M245 166C249.418 166 253 157.046 253 146C253 134.954 249.418 126 245 126C240.582 126 237 134.954 237 146C237 157.046 240.582 166 245 166Z" fill="#B2001A"/>
<path d="M264.5 134C275.27 134 284 130.642 284 126.5C284 122.358 275.27 119 264.5 119C253.73 119 245 122.358 245 126.5C245 130.642 253.73 134 264.5 134Z" fill="#B2001A"/>
<path d="M284 165.5C284 169.625 275.261 173 264.435 173C253.609 173 245 169.625 245 165.5C245 161.375 253.739 158 264.435 158C275.13 158 284 161.75 284 165.5Z" fill="#B2001A"/>
<path d="M284 442.563C284 438.277 292.963 435 304.067 435C315.171 435 324 438.277 324 442.563C324 446.848 315.037 450 304.067 450C293.097 450 284 446.596 284 442.563Z" fill="#B2001A"/>
<path d="M304 411C315.046 411 324 407.418 324 403C324 398.582 315.046 395 304 395C292.954 395 284 398.582 284 403C284 407.418 292.954 411 304 411Z" fill="#B2001A"/>
<path d="M284.5 443C288.642 443 292 434.046 292 423C292 411.954 288.642 403 284.5 403C280.358 403 277 411.954 277 423C277 434.046 280.358 443 284.5 443Z" fill="#B2001A"/>
<path d="M284 601C284 596.6 292.963 593 304.067 593C315.171 593 324 596.6 324 601C324 605.4 315.037 609 304.067 609C293.097 609 284 604.867 284 601Z" fill="#B2001A"/>
<path d="M284 561.437C284 557.278 292.963 554 304.067 554C315.171 554 324 557.278 324 561.437C324 565.597 315.037 569 304.067 569C293.097 569 284 565.093 284 561.437Z" fill="#B2001A"/>
<path d="M284.5 601C288.642 601 292 592.046 292 581C292 569.954 288.642 561 284.5 561C280.358 561 277 569.954 277 581C277 592.046 280.358 601 284.5 601Z" fill="#B2001A"/>
<path d="M245 521C249.418 521 253 512.27 253 501.5C253 490.73 249.418 482 245 482C240.582 482 237 490.73 237 501.5C237 512.27 240.582 521 245 521Z" fill="#B2001A"/>
<path d="M205 521C209.418 521 213 512.27 213 501.5C213 490.73 209.418 482 205 482C200.582 482 197 490.73 197 501.5C197 512.27 200.582 521 205 521Z" fill="#B2001A"/>
<path d="M245 482C245 486.4 236.067 490 225 490C213.933 490 205 486.4 205 482C205 477.6 213.933 474 225 474C236.067 474 245 477.333 245 482Z" fill="#B2001A"/>
<path d="M225 529C236.046 529 245 525.642 245 521.5C245 517.358 236.046 514 225 514C213.954 514 205 517.358 205 521.5C205 525.642 213.954 529 225 529Z" fill="#B2001A"/>
<path d="M284.5 482C288.642 482 292 473.046 292 462C292 450.954 288.642 442 284.5 442C280.358 442 277 450.954 277 462C277 473.046 280.358 482 284.5 482Z" fill="#B2001A"/>
<path d="M245 482C249.418 482 253 473.046 253 462C253 450.954 249.418 442 245 442C240.582 442 237 450.954 237 462C237 473.046 240.582 482 245 482Z" fill="#B2001A"/>
<path d="M284 442.933C284 447.505 275.261 451 264.435 451C253.609 451 245 447.505 245 442.933C245 438.362 253.739 435 264.435 435C275.13 435 284 438.227 284 442.933Z" fill="#B2001A"/>
<path d="M284 482C284 486.4 275.261 490 264.435 490C253.609 490 245 486.4 245 482C245 477.6 253.739 474 264.435 474C275.13 474 284 477.333 284 482Z" fill="#B2001A"/>
<path d="M284.5 561C288.642 561 292 552.046 292 541C292 529.954 288.642 521 284.5 521C280.358 521 277 529.954 277 541C277 552.046 280.358 561 284.5 561Z" fill="#B2001A"/>
<path d="M245 561C249.418 561 253 552.046 253 541C253 529.954 249.418 521 245 521C240.582 521 237 529.954 237 541C237 552.046 240.582 561 245 561Z" fill="#B2001A"/>
<path d="M284 522C284 526.4 275.261 530 264.435 530C253.609 530 245 526.4 245 522C245 517.6 253.739 514 264.435 514C275.13 514 284 517.2 284 522Z" fill="#B2001A"/>
<path d="M264.5 569C275.27 569 284 565.418 284 561C284 556.582 275.27 553 264.5 553C253.73 553 245 556.582 245 561C245 565.418 253.73 569 264.5 569Z" fill="#B2001A"/>
<path d="M47 324C51.4183 324 55 315.046 55 304C55 292.954 51.4183 284 47 284C42.5817 284 39 292.954 39 304C39 315.046 42.5817 324 47 324Z" fill="#B2001A"/>
<path d="M8 324C12.4183 324 16 315.046 16 304C16 292.954 12.4183 284 8 284C3.58172 284 0 292.954 0 304C0 315.046 3.58172 324 8 324Z" fill="#B2001A"/>
<path d="M28 292C39.0457 292 48 288.642 48 284.5C48 280.358 39.0457 277 28 277C16.9543 277 8 280.358 8 284.5C8 288.642 16.9543 292 28 292Z" fill="#B2001A"/>
<path d="M47 324.067C47 328.504 38.261 332 27.5653 332C16.8696 332 8 328.504 8 324.067C8 319.63 16.7392 316 27.5653 316C38.3914 316 47 319.764 47 324.067Z" fill="#B2001A"/>
<path d="M205 324C209.418 324 213 315.046 213 304C213 292.954 209.418 284 205 284C200.582 284 197 292.954 197 304C197 315.046 200.582 324 205 324Z" fill="#B2001A"/>
<path d="M166 324C170.418 324 174 315.046 174 304C174 292.954 170.418 284 166 284C161.582 284 158 292.954 158 304C158 315.046 161.582 324 166 324Z" fill="#B2001A"/>
<path d="M186 292C197.046 292 206 288.642 206 284.5C206 280.358 197.046 277 186 277C174.954 277 166 280.358 166 284.5C166 288.642 174.954 292 186 292Z" fill="#B2001A"/>
<path d="M205 324.067C205 328.504 196.261 332 185.565 332C174.87 332 166 328.504 166 324.067C166 319.63 174.739 316 185.565 316C196.391 316 205 319.764 205 324.067Z" fill="#B2001A"/>
<path d="M126 363.5C126 367.625 117.29 371 106.5 371C95.71 371 87 367.625 87 363.5C87 359.375 95.71 356 106.5 356C117.29 356 126 359.375 126 363.5Z" fill="#B2001A"/>
<path d="M106.5 411C117.27 411 126 407.418 126 403C126 398.582 117.27 395 106.5 395C95.7304 395 87 398.582 87 403C87 407.418 95.7304 411 106.5 411Z" fill="#B2001A"/>
<path d="M87 403C91.4183 403 95 394.046 95 383C95 371.954 91.4183 363 87 363C82.5817 363 79 371.954 79 383C79 394.046 82.5817 403 87 403Z" fill="#B2001A"/>
<path d="M126.5 403C130.642 403 134 394.046 134 383C134 371.954 130.642 363 126.5 363C122.358 363 119 371.954 119 383C119 394.046 122.358 403 126.5 403Z" fill="#B2001A"/>
<path d="M67 332C78.0457 332 87 328.418 87 324C87 319.582 78.0457 316 67 316C55.9543 316 47 319.582 47 324C47 328.418 55.9543 332 67 332Z" fill="#B2001A"/>
<path d="M67 371C78.0457 371 87 367.642 87 363.5C87 359.358 78.0457 356 67 356C55.9543 356 47 359.358 47 363.5C47 367.642 55.9543 371 67 371Z" fill="#B2001A"/>
<path d="M47 363C51.4183 363 55 354.27 55 343.5C55 332.73 51.4183 324 47 324C42.5817 324 39 332.73 39 343.5C39 354.27 42.5817 363 47 363Z" fill="#B2001A"/>
<path d="M87 363C91.4183 363 95 354.27 95 343.5C95 332.73 91.4183 324 87 324C82.5817 324 79 332.73 79 343.5C79 354.27 82.5817 363 87 363Z" fill="#B2001A"/>
<path d="M67 253C78.0457 253 87 249.418 87 245C87 240.582 78.0457 237 67 237C55.9543 237 47 240.582 47 245C47 249.418 55.9543 253 67 253Z" fill="#B2001A"/>
<path d="M87 284C87 288.4 78.0369 292 67.067 292C56.097 292 47 288.4 47 284C47 279.6 55.9632 276 67.067 276C78.1707 276 87 279.733 87 284Z" fill="#B2001A"/>
<path d="M47 284C51.4183 284 55 275.27 55 264.5C55 253.73 51.4183 245 47 245C42.5817 245 39 253.73 39 264.5C39 275.27 42.5817 284 47 284Z" fill="#B2001A"/>
<path d="M87 284C91.4183 284 95 275.27 95 264.5C95 253.73 91.4183 245 87 245C82.5817 245 79 253.73 79 264.5C79 275.27 82.5817 284 87 284Z" fill="#B2001A"/>
<path d="M146 332C157.046 332 166 328.418 166 324C166 319.582 157.046 316 146 316C134.954 316 126 319.582 126 324C126 328.418 134.954 332 146 332Z" fill="#B2001A"/>
<path d="M146 371C157.046 371 166 367.642 166 363.5C166 359.358 157.046 356 146 356C134.954 356 126 359.358 126 363.5C126 367.642 134.954 371 146 371Z" fill="#B2001A"/>
<path d="M126.5 363C130.642 363 134 354.27 134 343.5C134 332.73 130.642 324 126.5 324C122.358 324 119 332.73 119 343.5C119 354.27 122.358 363 126.5 363Z" fill="#B2001A"/>
<path d="M166 363C170.418 363 174 354.27 174 343.5C174 332.73 170.418 324 166 324C161.582 324 158 332.73 158 343.5C158 354.27 161.582 363 166 363Z" fill="#B2001A"/>
<path d="M146 253C157.046 253 166 249.418 166 245C166 240.582 157.046 237 146 237C134.954 237 126 240.582 126 245C126 249.418 134.954 253 146 253Z" fill="#B2001A"/>
<path d="M166 284C166 288.4 157.037 292 145.933 292C134.829 292 126 288.4 126 284C126 279.6 134.963 276 145.933 276C156.903 276 166 279.733 166 284Z" fill="#B2001A"/>
<path d="M126.5 284C130.642 284 134 275.27 134 264.5C134 253.73 130.642 245 126.5 245C122.358 245 119 253.73 119 264.5C119 275.27 122.358 284 126.5 284Z" fill="#B2001A"/>
<path d="M166 284C170.418 284 174 275.27 174 264.5C174 253.73 170.418 245 166 245C161.582 245 158 253.73 158 264.5C158 275.27 161.582 284 166 284Z" fill="#B2001A"/>
<path d="M126 205C126 209.4 117.29 213 106.5 213C95.71 213 87 209.4 87 205C87 200.6 95.71 197 106.5 197C117.29 197 126 201 126 205Z" fill="#B2001A"/>
<path d="M126 245C126 249.4 117.29 253 106.5 253C95.71 253 87 249.4 87 245C87 240.6 95.71 237 106.5 237C117.29 237 126 240.866 126 245Z" fill="#B2001A"/>
<path d="M87 245C91.4183 245 95 236.046 95 225C95 213.954 91.4183 205 87 205C82.5817 205 79 213.954 79 225C79 236.046 82.5817 245 87 245Z" fill="#B2001A"/>
<path d="M126.5 245C130.642 245 134 236.046 134 225C134 213.954 130.642 205 126.5 205C122.358 205 119 213.954 119 225C119 236.046 122.358 245 126.5 245Z" fill="#B2001A"/>
<path d="M243 324C247.418 324 251 315.046 251 304C251 292.954 247.418 284 243 284C238.582 284 235 292.954 235 304C235 315.046 238.582 324 243 324Z" fill="#B2001A"/>
<path d="M204 324C208.418 324 212 315.046 212 304C212 292.954 208.418 284 204 284C199.582 284 196 292.954 196 304C196 315.046 199.582 324 204 324Z" fill="#B2001A"/>
<path d="M223.5 292C234.27 292 243 288.642 243 284.5C243 280.358 234.27 277 223.5 277C212.73 277 204 280.358 204 284.5C204 288.642 212.73 292 223.5 292Z" fill="#B2001A"/>
<path d="M243 324.067C243 328.504 234.261 332 223.435 332C212.609 332 204 328.504 204 324.067C204 319.63 212.739 316 223.435 316C234.13 316 243 319.764 243 324.067Z" fill="#B2001A"/>
<path d="M322 363.5C322 367.625 313.29 371 302.5 371C291.71 371 283 367.625 283 363.5C283 359.375 291.71 356 302.5 356C313.29 356 322 359.375 322 363.5Z" fill="#B2001A"/>
<path d="M302.5 411C313.27 411 322 407.418 322 403C322 398.582 313.27 395 302.5 395C291.73 395 283 398.582 283 403C283 407.418 291.73 411 302.5 411Z" fill="#B2001A"/>
<path d="M283 403C287.418 403 291 394.046 291 383C291 371.954 287.418 363 283 363C278.582 363 275 371.954 275 383C275 394.046 278.582 403 283 403Z" fill="#B2001A"/>
<path d="M263 332C274.046 332 283 328.418 283 324C283 319.582 274.046 316 263 316C251.954 316 243 319.582 243 324C243 328.418 251.954 332 263 332Z" fill="#B2001A"/>
<path d="M263 371C274.046 371 283 367.642 283 363.5C283 359.358 274.046 356 263 356C251.954 356 243 359.358 243 363.5C243 367.642 251.954 371 263 371Z" fill="#B2001A"/>
<path d="M243 363C247.418 363 251 354.27 251 343.5C251 332.73 247.418 324 243 324C238.582 324 235 332.73 235 343.5C235 354.27 238.582 363 243 363Z" fill="#B2001A"/>
<path d="M283 363C287.418 363 291 354.27 291 343.5C291 332.73 287.418 324 283 324C278.582 324 275 332.73 275 343.5C275 354.27 278.582 363 283 363Z" fill="#B2001A"/>
<path d="M263 253C274.046 253 283 249.418 283 245C283 240.582 274.046 237 263 237C251.954 237 243 240.582 243 245C243 249.418 251.954 253 263 253Z" fill="#B2001A"/>
<path d="M283 284C283 288.4 274.037 292 263.067 292C252.097 292 243 288.4 243 284C243 279.6 251.963 276 263.067 276C274.171 276 283 279.733 283 284Z" fill="#B2001A"/>
<path d="M243 177C247.418 177 251 168.27 251 157.5C251 146.73 247.418 138 243 138C238.582 138 235 146.73 235 157.5C235 168.27 238.582 177 243 177Z" fill="#B2001A"/>
<path d="M283 284C287.418 284 291 275.27 291 264.5C291 253.73 287.418 245 283 245C278.582 245 275 253.73 275 264.5C275 275.27 278.582 284 283 284Z" fill="#B2001A"/>
<path d="M322 205C322 209.4 313.29 213 302.5 213C291.71 213 283 209.4 283 205C283 200.6 291.71 197 302.5 197C313.29 197 322 201 322 205Z" fill="#B2001A"/>
<path d="M322 245C322 249.4 313.29 253 302.5 253C291.71 253 283 249.4 283 245C283 240.6 291.71 237 302.5 237C313.29 237 322 240.866 322 245Z" fill="#B2001A"/>
<path d="M283 245C287.418 245 291 236.046 291 225C291 213.954 287.418 205 283 205C278.582 205 275 213.954 275 225C275 236.046 278.582 245 283 245Z" fill="#B2001A"/>
</g>
<defs>
<clipPath id="clip0_1234_62915">
<rect width="304" height="609" fill="white"/>
</clipPath>
</defs>
</svg>
