<svg width="281" height="378" viewBox="0 0 281 378" fill="none" xmlns="http://www.w3.org/2000/svg">
<g opacity="0.7" clip-path="url(#clip0_1234_59971)">
<path d="M209.015 369.94C209.015 374.373 200.015 378 188.866 378C177.717 378 168.851 374.373 168.851 369.94C168.851 365.507 177.851 361.881 188.866 361.881C199.881 361.881 209.015 365.507 209.015 369.94Z" fill="#B2001A"/>
<path d="M249.313 329.776C253.765 329.776 257.373 320.755 257.373 309.627C257.373 298.499 253.765 289.478 249.313 289.478C244.862 289.478 241.254 298.499 241.254 309.627C241.254 320.755 244.862 329.776 249.313 329.776Z" fill="#B2001A"/>
<path d="M249.313 289.477C253.765 289.477 257.373 280.456 257.373 269.328C257.373 258.2 253.765 249.179 249.313 249.179C244.862 249.179 241.254 258.2 241.254 269.328C241.254 280.456 244.862 289.477 249.313 289.477Z" fill="#B2001A"/>
<path d="M128.686 329.776C133.138 329.776 136.746 320.755 136.746 309.627C136.746 298.499 133.138 289.478 128.686 289.478C124.235 289.478 120.627 298.499 120.627 309.627C120.627 320.755 124.235 329.776 128.686 329.776Z" fill="#B2001A"/>
<path d="M128.686 289.477C133.138 289.477 136.746 280.456 136.746 269.328C136.746 258.2 133.138 249.179 128.686 249.179C124.235 249.179 120.627 258.2 120.627 269.328C120.627 280.456 124.235 289.477 128.686 289.477Z" fill="#B2001A"/>
<path d="M128.553 329.641C131.777 326.417 143.329 332.865 154.344 344.014C165.359 355.164 171.941 366.716 168.851 369.805C165.762 372.895 154.074 366.447 143.06 355.432C132.045 344.417 125.463 332.865 128.553 329.641Z" fill="#B2001A"/>
<path d="M249.179 329.642C252.402 332.732 245.955 344.284 234.806 355.433C223.657 366.582 212.104 372.896 209.014 369.806C205.925 366.717 212.372 355.165 223.387 344.016C234.402 332.866 246.089 326.553 249.179 329.642Z" fill="#B2001A"/>
<path d="M209.015 8.05937C209.015 12.4922 200.015 16.1187 188.866 16.1187C177.717 16.1187 168.851 12.4922 168.851 8.05937C168.851 3.62654 177.851 0 188.866 0C199.881 0 209.015 3.62654 209.015 8.05937Z" fill="#B2001A"/>
<path d="M249.313 88.5221C253.765 88.5221 257.373 79.501 257.373 68.3729C257.373 57.2448 253.765 48.2236 249.313 48.2236C244.862 48.2236 241.254 57.2448 241.254 68.3729C241.254 79.501 244.862 88.5221 249.313 88.5221Z" fill="#B2001A"/>
<path d="M249.313 128.687C253.765 128.687 257.373 119.666 257.373 108.538C257.373 97.4098 253.765 88.3887 249.313 88.3887C244.862 88.3887 241.254 97.4098 241.254 108.538C241.254 119.666 244.862 128.687 249.313 128.687Z" fill="#B2001A"/>
<path d="M128.686 88.5221C133.138 88.5221 136.746 79.501 136.746 68.3729C136.746 57.2448 133.138 48.2236 128.686 48.2236C124.235 48.2236 120.627 57.2448 120.627 68.3729C120.627 79.501 124.235 88.5221 128.686 88.5221Z" fill="#B2001A"/>
<path d="M128.686 128.687C133.138 128.687 136.746 119.666 136.746 108.538C136.746 97.4098 133.138 88.3887 128.686 88.3887C124.235 88.3887 120.627 97.4098 120.627 108.538C120.627 119.666 124.235 128.687 128.686 128.687Z" fill="#B2001A"/>
<path d="M128.553 48.224C125.463 45.1344 131.91 33.5825 143.06 22.5676C154.209 11.5527 165.627 4.97038 168.851 8.05993C172.075 11.1495 165.494 22.8358 154.344 33.8507C143.195 44.8657 131.777 51.4479 128.553 48.224Z" fill="#B2001A"/>
<path d="M249.179 48.2232C246.09 51.4471 234.537 44.9992 223.388 33.8499C212.239 22.7007 205.926 11.283 209.015 8.05912C212.105 4.83524 223.658 11.4176 234.807 22.5668C245.956 33.7161 252.403 45.1336 249.179 48.2232Z" fill="#B2001A"/>
<path d="M8.0597 209.149C12.511 209.149 16.1194 200.128 16.1194 189C16.1194 177.872 12.511 168.851 8.0597 168.851C3.60845 168.851 0 177.872 0 189C0 200.128 3.60845 209.149 8.0597 209.149Z" fill="#B2001A"/>
<path d="M88.3882 249.045C88.3882 253.478 79.3882 257.104 68.2389 257.104C57.0897 257.104 48.2241 253.478 48.2241 249.045C48.2241 244.612 57.224 240.985 68.2389 240.985C79.2538 240.985 88.3882 244.881 88.3882 249.045Z" fill="#B2001A"/>
<path d="M128.552 249.045C128.552 253.478 119.552 257.104 108.537 257.104C97.5225 257.104 88.3882 253.478 88.3882 249.045C88.3882 244.612 97.3882 240.985 108.537 240.985C119.687 240.985 128.552 244.881 128.552 249.045Z" fill="#B2001A"/>
<path d="M68.3729 136.746C79.501 136.746 88.5221 133.138 88.5221 128.687C88.5221 124.235 79.501 120.627 68.3729 120.627C57.2448 120.627 48.2236 124.235 48.2236 128.687C48.2236 133.138 57.2448 136.746 68.3729 136.746Z" fill="#B2001A"/>
<path d="M108.537 136.746C119.665 136.746 128.686 133.138 128.686 128.687C128.686 124.235 119.665 120.627 108.537 120.627C97.4091 120.627 88.3879 124.235 88.3879 128.687C88.3879 133.138 97.4091 136.746 108.537 136.746Z" fill="#B2001A"/>
<path d="M48.2251 128.149C51.3147 131.239 44.8658 142.791 33.7166 153.94C22.5673 165.09 11.1506 171.537 8.06106 168.313C4.9715 165.09 11.2842 153.672 22.4335 142.523C33.5827 131.373 45.0012 125.597 48.2251 128.149Z" fill="#B2001A"/>
<path d="M48.2249 249.045C45.001 252.134 33.4482 245.686 22.4333 234.671C11.4183 223.656 4.83698 211.97 8.06086 208.881C11.2847 205.791 22.7015 212.105 33.7164 223.254C44.7313 234.403 51.3145 246.224 48.2249 249.045Z" fill="#B2001A"/>
<path d="M249.179 249.045C249.179 244.612 258.179 240.985 269.328 240.985C280.477 240.985 289.477 244.612 289.477 249.045C289.477 253.478 280.477 257.104 269.328 257.104C258.179 257.104 249.179 253.746 249.179 249.045Z" fill="#B2001A"/>
<path d="M269.328 136.746C280.456 136.746 289.477 133.138 289.477 128.687C289.477 124.235 280.456 120.627 269.328 120.627C258.2 120.627 249.179 124.235 249.179 128.687C249.179 133.138 258.2 136.746 269.328 136.746Z" fill="#B2001A"/>
<path d="M168.851 48.3581C173.302 48.3581 176.911 39.337 176.911 28.2088C176.911 17.0807 173.302 8.05957 168.851 8.05957C164.4 8.05957 160.791 17.0807 160.791 28.2088C160.791 39.337 164.4 48.3581 168.851 48.3581Z" fill="#B2001A"/>
<path d="M209.015 48.3581C213.466 48.3581 217.074 39.337 217.074 28.2088C217.074 17.0807 213.466 8.05957 209.015 8.05957C204.564 8.05957 200.955 17.0807 200.955 28.2088C200.955 39.337 204.564 48.3581 209.015 48.3581Z" fill="#B2001A"/>
<path d="M168.851 8.05937C168.851 3.62654 177.851 0 188.866 0C199.881 0 209.015 3.62654 209.015 8.05937C209.015 12.4922 200.015 16.1187 188.866 16.1187C177.717 16.1187 168.851 12.4922 168.851 8.05937Z" fill="#B2001A"/>
<path d="M189 56.2835C200.128 56.2835 209.149 52.675 209.149 48.2238C209.149 43.7725 200.128 40.1641 189 40.1641C177.871 40.1641 168.85 43.7725 168.85 48.2238C168.85 52.675 177.871 56.2835 189 56.2835Z" fill="#B2001A"/>
<path d="M168.851 88.5221C173.302 88.5221 176.911 79.501 176.911 68.3729C176.911 57.2448 173.302 48.2236 168.851 48.2236C164.4 48.2236 160.791 57.2448 160.791 68.3729C160.791 79.501 164.4 88.5221 168.851 88.5221Z" fill="#B2001A"/>
<path d="M209.015 88.5221C213.466 88.5221 217.074 79.501 217.074 68.3729C217.074 57.2448 213.466 48.2236 209.015 48.2236C204.564 48.2236 200.955 57.2448 200.955 68.3729C200.955 79.501 204.564 88.5221 209.015 88.5221Z" fill="#B2001A"/>
<path d="M168.851 48.2237C168.851 43.7909 177.851 40.2988 188.866 40.2988C199.881 40.2988 209.015 43.7909 209.015 48.2237C209.015 52.6566 200.015 56.2839 188.866 56.2839C177.717 56.2839 168.851 52.7909 168.851 48.2237Z" fill="#B2001A"/>
<path d="M189 96.4475C200.128 96.4475 209.149 92.8391 209.149 88.3878C209.149 83.9366 200.128 80.3281 189 80.3281C177.871 80.3281 168.85 83.9366 168.85 88.3878C168.85 92.8391 177.871 96.4475 189 96.4475Z" fill="#B2001A"/>
<path d="M168.851 128.687C173.302 128.687 176.911 119.666 176.911 108.538C176.911 97.4098 173.302 88.3887 168.851 88.3887C164.4 88.3887 160.791 97.4098 160.791 108.538C160.791 119.666 164.4 128.687 168.851 128.687Z" fill="#B2001A"/>
<path d="M209.015 128.687C213.466 128.687 217.074 119.666 217.074 108.538C217.074 97.4098 213.466 88.3887 209.015 88.3887C204.564 88.3887 200.955 97.4098 200.955 108.538C200.955 119.666 204.564 128.687 209.015 128.687Z" fill="#B2001A"/>
<path d="M189 96.4475C200.128 96.4475 209.149 92.8391 209.149 88.3878C209.149 83.9366 200.128 80.3281 189 80.3281C177.871 80.3281 168.85 83.9366 168.85 88.3878C168.85 92.8391 177.871 96.4475 189 96.4475Z" fill="#B2001A"/>
<path d="M189 136.746C200.128 136.746 209.149 133.138 209.149 128.687C209.149 124.235 200.128 120.627 189 120.627C177.871 120.627 168.85 124.235 168.85 128.687C168.85 133.138 177.871 136.746 189 136.746Z" fill="#B2001A"/>
<path d="M168.851 168.851C173.302 168.851 176.911 159.83 176.911 148.702C176.911 137.574 173.302 128.553 168.851 128.553C164.4 128.553 160.791 137.574 160.791 148.702C160.791 159.83 164.4 168.851 168.851 168.851Z" fill="#B2001A"/>
<path d="M209.015 168.85C213.466 168.85 217.074 159.829 217.074 148.701C217.074 137.573 213.466 128.552 209.015 128.552C204.564 128.552 200.955 137.573 200.955 148.701C200.955 159.829 204.564 168.85 209.015 168.85Z" fill="#B2001A"/>
<path d="M189 136.746C200.128 136.746 209.149 133.138 209.149 128.687C209.149 124.235 200.128 120.627 189 120.627C177.871 120.627 168.85 124.235 168.85 128.687C168.85 133.138 177.871 136.746 189 136.746Z" fill="#B2001A"/>
<path d="M189 176.91C200.128 176.91 209.149 173.302 209.149 168.851C209.149 164.399 200.128 160.791 189 160.791C177.871 160.791 168.85 164.399 168.85 168.851C168.85 173.302 177.871 176.91 189 176.91Z" fill="#B2001A"/>
<path d="M168.851 209.149C173.302 209.149 176.911 200.128 176.911 189C176.911 177.872 173.302 168.851 168.851 168.851C164.4 168.851 160.791 177.872 160.791 189C160.791 200.128 164.4 209.149 168.851 209.149Z" fill="#B2001A"/>
<path d="M209.015 209.149C213.466 209.149 217.074 200.128 217.074 189C217.074 177.872 213.466 168.851 209.015 168.851C204.564 168.851 200.955 177.872 200.955 189C200.955 200.128 204.564 209.149 209.015 209.149Z" fill="#B2001A"/>
<path d="M168.851 168.448C168.851 164.015 177.851 160.389 188.866 160.389C199.881 160.389 209.015 164.015 209.015 168.448C209.015 172.881 200.015 176.507 188.866 176.507C177.717 176.507 168.851 173.284 168.851 168.448Z" fill="#B2001A"/>
<path d="M168.851 208.746C168.851 204.179 177.851 200.687 188.866 200.687C199.881 200.687 209.015 204.179 209.015 208.746C209.015 213.313 200.015 216.672 188.866 216.672C177.717 216.672 168.851 213.582 168.851 208.746Z" fill="#B2001A"/>
<path d="M168.851 249.313C173.302 249.313 176.911 240.292 176.911 229.164C176.911 218.036 173.302 209.015 168.851 209.015C164.4 209.015 160.791 218.036 160.791 229.164C160.791 240.292 164.4 249.313 168.851 249.313Z" fill="#B2001A"/>
<path d="M209.015 249.313C213.466 249.313 217.074 240.292 217.074 229.164C217.074 218.036 213.466 209.015 209.015 209.015C204.564 209.015 200.955 218.036 200.955 229.164C200.955 240.292 204.564 249.313 209.015 249.313Z" fill="#B2001A"/>
<path d="M189 217.074C200.128 217.074 209.149 213.466 209.149 209.015C209.149 204.564 200.128 200.955 189 200.955C177.871 200.955 168.85 204.564 168.85 209.015C168.85 213.466 177.871 217.074 189 217.074Z" fill="#B2001A"/>
<path d="M168.851 249.046C168.851 244.613 177.851 240.986 188.866 240.986C199.881 240.986 209.015 244.613 209.015 249.046C209.015 253.479 200.015 257.105 188.866 257.105C177.717 257.105 168.851 253.747 168.851 249.046Z" fill="#B2001A"/>
<path d="M168.851 289.478C173.302 289.478 176.911 280.457 176.911 269.329C176.911 258.201 173.302 249.18 168.851 249.18C164.4 249.18 160.791 258.201 160.791 269.329C160.791 280.457 164.4 289.478 168.851 289.478Z" fill="#B2001A"/>
<path d="M209.015 289.477C213.466 289.477 217.074 280.456 217.074 269.328C217.074 258.2 213.466 249.179 209.015 249.179C204.564 249.179 200.955 258.2 200.955 269.328C200.955 280.456 204.564 289.477 209.015 289.477Z" fill="#B2001A"/>
<path d="M189 257.24C200.128 257.24 209.149 253.631 209.149 249.18C209.149 244.729 200.128 241.12 189 241.12C177.871 241.12 168.85 244.729 168.85 249.18C168.85 253.631 177.871 257.24 189 257.24Z" fill="#B2001A"/>
<path d="M168.851 289.343C168.851 284.91 177.851 281.283 188.866 281.283C199.881 281.283 209.015 284.91 209.015 289.343C209.015 293.775 200.015 297.402 188.866 297.402C177.717 297.402 168.851 293.91 168.851 289.343Z" fill="#B2001A"/>
<path d="M168.851 329.642C173.302 329.642 176.911 320.621 176.911 309.493C176.911 298.365 173.302 289.344 168.851 289.344C164.4 289.344 160.791 298.365 160.791 309.493C160.791 320.621 164.4 329.642 168.851 329.642Z" fill="#B2001A"/>
<path d="M209.015 329.642C213.466 329.642 217.074 320.621 217.074 309.493C217.074 298.365 213.466 289.344 209.015 289.344C204.564 289.344 200.955 298.365 200.955 309.493C200.955 320.621 204.564 329.642 209.015 329.642Z" fill="#B2001A"/>
<path d="M189 297.537C200.128 297.537 209.149 293.929 209.149 289.478C209.149 285.026 200.128 281.418 189 281.418C177.871 281.418 168.85 285.026 168.85 289.478C168.85 293.929 177.871 297.537 189 297.537Z" fill="#B2001A"/>
<path d="M189 337.701C200.128 337.701 209.149 334.093 209.149 329.642C209.149 325.19 200.128 321.582 189 321.582C177.871 321.582 168.85 325.19 168.85 329.642C168.85 334.093 177.871 337.701 189 337.701Z" fill="#B2001A"/>
<path d="M209.015 88.5221C213.466 88.5221 217.074 79.501 217.074 68.3729C217.074 57.2448 213.466 48.2236 209.015 48.2236C204.564 48.2236 200.955 57.2448 200.955 68.3729C200.955 79.501 204.564 88.5221 209.015 88.5221Z" fill="#B2001A"/>
<path d="M249.313 88.5221C253.765 88.5221 257.373 79.501 257.373 68.3729C257.373 57.2448 253.765 48.2236 249.313 48.2236C244.862 48.2236 241.254 57.2448 241.254 68.3729C241.254 79.501 244.862 88.5221 249.313 88.5221Z" fill="#B2001A"/>
<path d="M209.015 48.2237C209.015 43.7909 218.015 40.2988 229.164 40.2988C240.313 40.2988 249.179 43.7909 249.179 48.2237C249.179 52.6566 240.179 56.2839 229.164 56.2839C218.149 56.2839 209.015 52.7909 209.015 48.2237Z" fill="#B2001A"/>
<path d="M229.164 96.4475C240.292 96.4475 249.313 92.8391 249.313 88.3878C249.313 83.9366 240.292 80.3281 229.164 80.3281C218.036 80.3281 209.015 83.9366 209.015 88.3878C209.015 92.8391 218.036 96.4475 229.164 96.4475Z" fill="#B2001A"/>
<path d="M209.015 128.687C213.466 128.687 217.074 119.666 217.074 108.538C217.074 97.4098 213.466 88.3887 209.015 88.3887C204.564 88.3887 200.955 97.4098 200.955 108.538C200.955 119.666 204.564 128.687 209.015 128.687Z" fill="#B2001A"/>
<path d="M249.313 128.687C253.765 128.687 257.373 119.666 257.373 108.538C257.373 97.4098 253.765 88.3887 249.313 88.3887C244.862 88.3887 241.254 97.4098 241.254 108.538C241.254 119.666 244.862 128.687 249.313 128.687Z" fill="#B2001A"/>
<path d="M229.164 96.4475C240.292 96.4475 249.313 92.8391 249.313 88.3878C249.313 83.9366 240.292 80.3281 229.164 80.3281C218.036 80.3281 209.015 83.9366 209.015 88.3878C209.015 92.8391 218.036 96.4475 229.164 96.4475Z" fill="#B2001A"/>
<path d="M229.164 136.746C240.292 136.746 249.313 133.138 249.313 128.687C249.313 124.235 240.292 120.627 229.164 120.627C218.036 120.627 209.015 124.235 209.015 128.687C209.015 133.138 218.036 136.746 229.164 136.746Z" fill="#B2001A"/>
<path d="M209.015 168.85C213.466 168.85 217.074 159.829 217.074 148.701C217.074 137.573 213.466 128.552 209.015 128.552C204.564 128.552 200.955 137.573 200.955 148.701C200.955 159.829 204.564 168.85 209.015 168.85Z" fill="#B2001A"/>
<path d="M249.313 168.85C253.765 168.85 257.373 159.829 257.373 148.701C257.373 137.573 253.765 128.552 249.313 128.552C244.862 128.552 241.254 137.573 241.254 148.701C241.254 159.829 244.862 168.85 249.313 168.85Z" fill="#B2001A"/>
<path d="M229.164 136.746C240.292 136.746 249.313 133.138 249.313 128.687C249.313 124.235 240.292 120.627 229.164 120.627C218.036 120.627 209.015 124.235 209.015 128.687C209.015 133.138 218.036 136.746 229.164 136.746Z" fill="#B2001A"/>
<path d="M229.164 176.91C240.292 176.91 249.313 173.302 249.313 168.851C249.313 164.399 240.292 160.791 229.164 160.791C218.036 160.791 209.015 164.399 209.015 168.851C209.015 173.302 218.036 176.91 229.164 176.91Z" fill="#B2001A"/>
<path d="M209.015 209.149C213.466 209.149 217.074 200.128 217.074 189C217.074 177.872 213.466 168.851 209.015 168.851C204.564 168.851 200.955 177.872 200.955 189C200.955 200.128 204.564 209.149 209.015 209.149Z" fill="#B2001A"/>
<path d="M249.313 209.149C253.765 209.149 257.373 200.128 257.373 189C257.373 177.872 253.765 168.851 249.313 168.851C244.862 168.851 241.254 177.872 241.254 189C241.254 200.128 244.862 209.149 249.313 209.149Z" fill="#B2001A"/>
<path d="M209.015 168.448C209.015 164.015 218.015 160.389 229.164 160.389C240.313 160.389 249.179 164.015 249.179 168.448C249.179 172.881 240.179 176.507 229.164 176.507C218.149 176.507 209.015 173.284 209.015 168.448Z" fill="#B2001A"/>
<path d="M209.015 208.746C209.015 204.179 218.015 200.687 229.164 200.687C240.313 200.687 249.179 204.179 249.179 208.746C249.179 213.313 240.179 216.672 229.164 216.672C218.149 216.672 209.015 213.582 209.015 208.746Z" fill="#B2001A"/>
<path d="M209.015 249.313C213.466 249.313 217.074 240.292 217.074 229.164C217.074 218.036 213.466 209.015 209.015 209.015C204.564 209.015 200.955 218.036 200.955 229.164C200.955 240.292 204.564 249.313 209.015 249.313Z" fill="#B2001A"/>
<path d="M249.313 249.313C253.765 249.313 257.373 240.292 257.373 229.164C257.373 218.036 253.765 209.015 249.313 209.015C244.862 209.015 241.254 218.036 241.254 229.164C241.254 240.292 244.862 249.313 249.313 249.313Z" fill="#B2001A"/>
<path d="M229.164 217.074C240.292 217.074 249.313 213.466 249.313 209.015C249.313 204.564 240.292 200.955 229.164 200.955C218.036 200.955 209.015 204.564 209.015 209.015C209.015 213.466 218.036 217.074 229.164 217.074Z" fill="#B2001A"/>
<path d="M209.015 249.045C209.015 244.612 218.015 240.985 229.164 240.985C240.313 240.985 249.179 244.612 249.179 249.045C249.179 253.478 240.179 257.104 229.164 257.104C218.149 257.104 209.015 253.746 209.015 249.045Z" fill="#B2001A"/>
<path d="M249.313 168.85C253.765 168.85 257.373 159.829 257.373 148.701C257.373 137.573 253.765 128.552 249.313 128.552C244.862 128.552 241.254 137.573 241.254 148.701C241.254 159.829 244.862 168.85 249.313 168.85Z" fill="#B2001A"/>
<path d="M269.328 136.746C280.456 136.746 289.477 133.138 289.477 128.687C289.477 124.235 280.456 120.627 269.328 120.627C258.2 120.627 249.179 124.235 249.179 128.687C249.179 133.138 258.2 136.746 269.328 136.746Z" fill="#B2001A"/>
<path d="M269.328 176.91C280.456 176.91 289.477 173.302 289.477 168.851C289.477 164.399 280.456 160.791 269.328 160.791C258.2 160.791 249.179 164.399 249.179 168.851C249.179 173.302 258.2 176.91 269.328 176.91Z" fill="#B2001A"/>
<path d="M249.313 209.149C253.765 209.149 257.373 200.128 257.373 189C257.373 177.872 253.765 168.851 249.313 168.851C244.862 168.851 241.254 177.872 241.254 189C241.254 200.128 244.862 209.149 249.313 209.149Z" fill="#B2001A"/>
<path d="M249.179 168.448C249.179 164.015 258.179 160.389 269.328 160.389C280.477 160.389 289.477 164.015 289.477 168.448C289.477 172.881 280.477 176.507 269.328 176.507C258.179 176.507 249.179 173.284 249.179 168.448Z" fill="#B2001A"/>
<path d="M249.179 208.746C249.179 204.179 258.179 200.687 269.328 200.687C280.477 200.687 289.477 204.179 289.477 208.746C289.477 213.313 280.477 216.672 269.328 216.672C258.179 216.672 249.179 213.582 249.179 208.746Z" fill="#B2001A"/>
<path d="M249.313 249.313C253.765 249.313 257.373 240.292 257.373 229.164C257.373 218.036 253.765 209.015 249.313 209.015C244.862 209.015 241.254 218.036 241.254 229.164C241.254 240.292 244.862 249.313 249.313 249.313Z" fill="#B2001A"/>
<path d="M269.328 217.074C280.456 217.074 289.477 213.466 289.477 209.015C289.477 204.564 280.456 200.955 269.328 200.955C258.2 200.955 249.179 204.564 249.179 209.015C249.179 213.466 258.2 217.074 269.328 217.074Z" fill="#B2001A"/>
<path d="M249.179 249.045C249.179 244.612 258.179 240.985 269.328 240.985C280.477 240.985 289.477 244.612 289.477 249.045C289.477 253.478 280.477 257.104 269.328 257.104C258.179 257.104 249.179 253.746 249.179 249.045Z" fill="#B2001A"/>
<path d="M209.015 289.477C213.466 289.477 217.074 280.456 217.074 269.328C217.074 258.2 213.466 249.179 209.015 249.179C204.564 249.179 200.955 258.2 200.955 269.328C200.955 280.456 204.564 289.477 209.015 289.477Z" fill="#B2001A"/>
<path d="M249.313 289.477C253.765 289.477 257.373 280.456 257.373 269.328C257.373 258.2 253.765 249.179 249.313 249.179C244.862 249.179 241.254 258.2 241.254 269.328C241.254 280.456 244.862 289.477 249.313 289.477Z" fill="#B2001A"/>
<path d="M229.164 257.24C240.292 257.24 249.313 253.631 249.313 249.18C249.313 244.729 240.292 241.12 229.164 241.12C218.036 241.12 209.015 244.729 209.015 249.18C209.015 253.631 218.036 257.24 229.164 257.24Z" fill="#B2001A"/>
<path d="M209.015 289.343C209.015 284.91 218.015 281.283 229.164 281.283C240.313 281.283 249.179 284.91 249.179 289.343C249.179 293.775 240.179 297.402 229.164 297.402C218.149 297.402 209.015 293.91 209.015 289.343Z" fill="#B2001A"/>
<path d="M209.015 329.642C213.466 329.642 217.074 320.621 217.074 309.493C217.074 298.365 213.466 289.344 209.015 289.344C204.564 289.344 200.955 298.365 200.955 309.493C200.955 320.621 204.564 329.642 209.015 329.642Z" fill="#B2001A"/>
<path d="M249.313 329.642C253.765 329.642 257.373 320.621 257.373 309.493C257.373 298.365 253.765 289.344 249.313 289.344C244.862 289.344 241.254 298.365 241.254 309.493C241.254 320.621 244.862 329.642 249.313 329.642Z" fill="#B2001A"/>
<path d="M229.164 297.537C240.292 297.537 249.313 293.929 249.313 289.478C249.313 285.026 240.292 281.418 229.164 281.418C218.036 281.418 209.015 285.026 209.015 289.478C209.015 293.929 218.036 297.537 229.164 297.537Z" fill="#B2001A"/>
<path d="M229.164 337.701C240.292 337.701 249.313 334.093 249.313 329.642C249.313 325.19 240.292 321.582 229.164 321.582C218.036 321.582 209.015 325.19 209.015 329.642C209.015 334.093 218.036 337.701 229.164 337.701Z" fill="#B2001A"/>
<path d="M128.686 88.5221C133.138 88.5221 136.746 79.501 136.746 68.3729C136.746 57.2448 133.138 48.2236 128.686 48.2236C124.235 48.2236 120.627 57.2448 120.627 68.3729C120.627 79.501 124.235 88.5221 128.686 88.5221Z" fill="#B2001A"/>
<path d="M168.851 88.5221C173.302 88.5221 176.911 79.501 176.911 68.3729C176.911 57.2448 173.302 48.2236 168.851 48.2236C164.4 48.2236 160.791 57.2448 160.791 68.3729C160.791 79.501 164.4 88.5221 168.851 88.5221Z" fill="#B2001A"/>
<path d="M128.552 48.2237C128.552 43.7909 137.552 40.2988 148.701 40.2988C159.851 40.2988 168.851 43.7909 168.851 48.2237C168.851 52.6566 159.851 56.2839 148.701 56.2839C137.552 56.2839 128.552 52.7909 128.552 48.2237Z" fill="#B2001A"/>
<path d="M148.701 96.4475C159.829 96.4475 168.851 92.8391 168.851 88.3878C168.851 83.9366 159.829 80.3281 148.701 80.3281C137.573 80.3281 128.552 83.9366 128.552 88.3878C128.552 92.8391 137.573 96.4475 148.701 96.4475Z" fill="#B2001A"/>
<path d="M128.686 128.687C133.138 128.687 136.746 119.666 136.746 108.538C136.746 97.4098 133.138 88.3887 128.686 88.3887C124.235 88.3887 120.627 97.4098 120.627 108.538C120.627 119.666 124.235 128.687 128.686 128.687Z" fill="#B2001A"/>
<path d="M168.851 128.687C173.302 128.687 176.911 119.666 176.911 108.538C176.911 97.4098 173.302 88.3887 168.851 88.3887C164.4 88.3887 160.791 97.4098 160.791 108.538C160.791 119.666 164.4 128.687 168.851 128.687Z" fill="#B2001A"/>
<path d="M148.701 96.4475C159.829 96.4475 168.851 92.8391 168.851 88.3878C168.851 83.9366 159.829 80.3281 148.701 80.3281C137.573 80.3281 128.552 83.9366 128.552 88.3878C128.552 92.8391 137.573 96.4475 148.701 96.4475Z" fill="#B2001A"/>
<path d="M148.701 136.746C159.829 136.746 168.851 133.138 168.851 128.687C168.851 124.235 159.829 120.627 148.701 120.627C137.573 120.627 128.552 124.235 128.552 128.687C128.552 133.138 137.573 136.746 148.701 136.746Z" fill="#B2001A"/>
<path d="M128.686 168.85C133.138 168.85 136.746 159.829 136.746 148.701C136.746 137.573 133.138 128.552 128.686 128.552C124.235 128.552 120.627 137.573 120.627 148.701C120.627 159.829 124.235 168.85 128.686 168.85Z" fill="#B2001A"/>
<path d="M168.851 168.851C173.302 168.851 176.911 159.83 176.911 148.702C176.911 137.574 173.302 128.553 168.851 128.553C164.4 128.553 160.791 137.574 160.791 148.702C160.791 159.83 164.4 168.851 168.851 168.851Z" fill="#B2001A"/>
<path d="M148.701 136.746C159.829 136.746 168.851 133.138 168.851 128.687C168.851 124.235 159.829 120.627 148.701 120.627C137.573 120.627 128.552 124.235 128.552 128.687C128.552 133.138 137.573 136.746 148.701 136.746Z" fill="#B2001A"/>
<path d="M148.701 176.91C159.829 176.91 168.851 173.302 168.851 168.851C168.851 164.399 159.829 160.791 148.701 160.791C137.573 160.791 128.552 164.399 128.552 168.851C128.552 173.302 137.573 176.91 148.701 176.91Z" fill="#B2001A"/>
<path d="M128.686 209.149C133.138 209.149 136.746 200.128 136.746 189C136.746 177.872 133.138 168.851 128.686 168.851C124.235 168.851 120.627 177.872 120.627 189C120.627 200.128 124.235 209.149 128.686 209.149Z" fill="#B2001A"/>
<path d="M168.851 209.149C173.302 209.149 176.911 200.128 176.911 189C176.911 177.872 173.302 168.851 168.851 168.851C164.4 168.851 160.791 177.872 160.791 189C160.791 200.128 164.4 209.149 168.851 209.149Z" fill="#B2001A"/>
<path d="M128.552 168.448C128.552 164.015 137.552 160.389 148.701 160.389C159.851 160.389 168.851 164.015 168.851 168.448C168.851 172.881 159.851 176.507 148.701 176.507C137.552 176.507 128.552 173.284 128.552 168.448Z" fill="#B2001A"/>
<path d="M128.552 208.746C128.552 204.179 137.552 200.687 148.701 200.687C159.851 200.687 168.851 204.179 168.851 208.746C168.851 213.313 159.851 216.672 148.701 216.672C137.552 216.672 128.552 213.582 128.552 208.746Z" fill="#B2001A"/>
<path d="M128.686 249.313C133.138 249.313 136.746 240.292 136.746 229.164C136.746 218.036 133.138 209.015 128.686 209.015C124.235 209.015 120.627 218.036 120.627 229.164C120.627 240.292 124.235 249.313 128.686 249.313Z" fill="#B2001A"/>
<path d="M168.851 249.313C173.302 249.313 176.911 240.292 176.911 229.164C176.911 218.036 173.302 209.015 168.851 209.015C164.4 209.015 160.791 218.036 160.791 229.164C160.791 240.292 164.4 249.313 168.851 249.313Z" fill="#B2001A"/>
<path d="M148.701 217.074C159.829 217.074 168.851 213.466 168.851 209.015C168.851 204.564 159.829 200.955 148.701 200.955C137.573 200.955 128.552 204.564 128.552 209.015C128.552 213.466 137.573 217.074 148.701 217.074Z" fill="#B2001A"/>
<path d="M128.552 249.046C128.552 244.613 137.552 240.986 148.701 240.986C159.851 240.986 168.851 244.613 168.851 249.046C168.851 253.479 159.851 257.105 148.701 257.105C137.552 257.105 128.552 253.747 128.552 249.046Z" fill="#B2001A"/>
<path d="M88.3881 168.85C92.8393 168.85 96.4478 159.829 96.4478 148.701C96.4478 137.573 92.8393 128.552 88.3881 128.552C83.9368 128.552 80.3284 137.573 80.3284 148.701C80.3284 159.829 83.9368 168.85 88.3881 168.85Z" fill="#B2001A"/>
<path d="M128.686 168.85C133.138 168.85 136.746 159.829 136.746 148.701C136.746 137.573 133.138 128.552 128.686 128.552C124.235 128.552 120.627 137.573 120.627 148.701C120.627 159.829 124.235 168.85 128.686 168.85Z" fill="#B2001A"/>
<path d="M108.537 136.746C119.665 136.746 128.686 133.138 128.686 128.687C128.686 124.235 119.665 120.627 108.537 120.627C97.4091 120.627 88.3879 124.235 88.3879 128.687C88.3879 133.138 97.4091 136.746 108.537 136.746Z" fill="#B2001A"/>
<path d="M108.537 176.91C119.665 176.91 128.686 173.302 128.686 168.851C128.686 164.399 119.665 160.791 108.537 160.791C97.4091 160.791 88.3879 164.399 88.3879 168.851C88.3879 173.302 97.4091 176.91 108.537 176.91Z" fill="#B2001A"/>
<path d="M88.3881 209.149C92.8393 209.149 96.4478 200.128 96.4478 189C96.4478 177.872 92.8393 168.851 88.3881 168.851C83.9368 168.851 80.3284 177.872 80.3284 189C80.3284 200.128 83.9368 209.149 88.3881 209.149Z" fill="#B2001A"/>
<path d="M128.686 209.149C133.138 209.149 136.746 200.128 136.746 189C136.746 177.872 133.138 168.851 128.686 168.851C124.235 168.851 120.627 177.872 120.627 189C120.627 200.128 124.235 209.149 128.686 209.149Z" fill="#B2001A"/>
<path d="M88.3882 168.448C88.3882 164.015 97.3882 160.389 108.537 160.389C119.687 160.389 128.552 164.015 128.552 168.448C128.552 172.881 119.552 176.507 108.537 176.507C97.5225 176.507 88.3882 173.284 88.3882 168.448Z" fill="#B2001A"/>
<path d="M88.3882 208.746C88.3882 204.179 97.3882 200.687 108.537 200.687C119.687 200.687 128.552 204.179 128.552 208.746C128.552 213.313 119.552 216.672 108.537 216.672C97.5225 216.672 88.3882 213.582 88.3882 208.746Z" fill="#B2001A"/>
<path d="M88.3881 249.313C92.8393 249.313 96.4478 240.292 96.4478 229.164C96.4478 218.036 92.8393 209.015 88.3881 209.015C83.9368 209.015 80.3284 218.036 80.3284 229.164C80.3284 240.292 83.9368 249.313 88.3881 249.313Z" fill="#B2001A"/>
<path d="M128.686 249.313C133.138 249.313 136.746 240.292 136.746 229.164C136.746 218.036 133.138 209.015 128.686 209.015C124.235 209.015 120.627 218.036 120.627 229.164C120.627 240.292 124.235 249.313 128.686 249.313Z" fill="#B2001A"/>
<path d="M108.537 217.074C119.665 217.074 128.686 213.466 128.686 209.015C128.686 204.564 119.665 200.955 108.537 200.955C97.4091 200.955 88.3879 204.564 88.3879 209.015C88.3879 213.466 97.4091 217.074 108.537 217.074Z" fill="#B2001A"/>
<path d="M88.3882 249.045C88.3882 244.612 97.3882 240.985 108.537 240.985C119.687 240.985 128.552 244.612 128.552 249.045C128.552 253.478 119.552 257.104 108.537 257.104C97.5225 257.104 88.3882 253.746 88.3882 249.045Z" fill="#B2001A"/>
<path d="M48.2235 168.851C52.6748 168.851 56.2832 159.83 56.2832 148.702C56.2832 137.574 52.6748 128.553 48.2235 128.553C43.7723 128.553 40.1638 137.574 40.1638 148.702C40.1638 159.83 43.7723 168.851 48.2235 168.851Z" fill="#B2001A"/>
<path d="M88.3881 168.85C92.8393 168.85 96.4478 159.829 96.4478 148.701C96.4478 137.573 92.8393 128.552 88.3881 128.552C83.9368 128.552 80.3284 137.573 80.3284 148.701C80.3284 159.829 83.9368 168.85 88.3881 168.85Z" fill="#B2001A"/>
<path d="M68.3729 136.746C79.501 136.746 88.5221 133.138 88.5221 128.687C88.5221 124.235 79.501 120.627 68.3729 120.627C57.2448 120.627 48.2236 124.235 48.2236 128.687C48.2236 133.138 57.2448 136.746 68.3729 136.746Z" fill="#B2001A"/>
<path d="M68.3729 176.91C79.501 176.91 88.5221 173.302 88.5221 168.851C88.5221 164.399 79.501 160.791 68.3729 160.791C57.2448 160.791 48.2236 164.399 48.2236 168.851C48.2236 173.302 57.2448 176.91 68.3729 176.91Z" fill="#B2001A"/>
<path d="M48.2235 209.149C52.6748 209.149 56.2832 200.128 56.2832 189C56.2832 177.872 52.6748 168.851 48.2235 168.851C43.7723 168.851 40.1638 177.872 40.1638 189C40.1638 200.128 43.7723 209.149 48.2235 209.149Z" fill="#B2001A"/>
<path d="M88.3881 209.149C92.8393 209.149 96.4478 200.128 96.4478 189C96.4478 177.872 92.8393 168.851 88.3881 168.851C83.9368 168.851 80.3284 177.872 80.3284 189C80.3284 200.128 83.9368 209.149 88.3881 209.149Z" fill="#B2001A"/>
<path d="M8.05981 168.448C8.05981 164.015 16.9254 160.389 28.0746 160.389C39.2239 160.389 48.2239 164.015 48.2239 168.448C48.2239 172.881 39.2239 176.507 28.0746 176.507C16.9254 176.507 8.05981 173.284 8.05981 168.448Z" fill="#B2001A"/>
<path d="M48.2241 208.746C48.2241 204.179 57.224 200.687 68.2389 200.687C79.2538 200.687 88.3882 204.179 88.3882 208.746C88.3882 213.313 79.3882 216.672 68.2389 216.672C57.0897 216.672 48.2241 213.582 48.2241 208.746Z" fill="#B2001A"/>
<path d="M48.2235 249.313C52.6748 249.313 56.2832 240.292 56.2832 229.164C56.2832 218.036 52.6748 209.015 48.2235 209.015C43.7723 209.015 40.1638 218.036 40.1638 229.164C40.1638 240.292 43.7723 249.313 48.2235 249.313Z" fill="#B2001A"/>
<path d="M88.3881 249.313C92.8393 249.313 96.4478 240.292 96.4478 229.164C96.4478 218.036 92.8393 209.015 88.3881 209.015C83.9368 209.015 80.3284 218.036 80.3284 229.164C80.3284 240.292 83.9368 249.313 88.3881 249.313Z" fill="#B2001A"/>
<path d="M68.3729 217.074C79.501 217.074 88.5221 213.466 88.5221 209.015C88.5221 204.564 79.501 200.955 68.3729 200.955C57.2448 200.955 48.2236 204.564 48.2236 209.015C48.2236 213.466 57.2448 217.074 68.3729 217.074Z" fill="#B2001A"/>
<path d="M8.05981 168.448C8.05981 164.015 16.9254 160.389 28.0746 160.389C39.2239 160.389 48.2239 164.015 48.2239 168.448C48.2239 172.881 39.2239 176.507 28.0746 176.507C16.9254 176.507 8.05981 173.284 8.05981 168.448Z" fill="#B2001A"/>
<path d="M28.0748 217.074C39.2029 217.074 48.224 213.466 48.224 209.015C48.224 204.564 39.2029 200.955 28.0748 200.955C16.9467 200.955 7.92554 204.564 7.92554 209.015C7.92554 213.466 16.9467 217.074 28.0748 217.074Z" fill="#B2001A"/>
<path d="M48.2241 249.045C48.2241 244.612 57.224 240.985 68.2389 240.985C79.2538 240.985 88.3882 244.612 88.3882 249.045C88.3882 253.478 79.3882 257.104 68.2389 257.104C57.0897 257.104 48.2241 253.746 48.2241 249.045Z" fill="#B2001A"/>
<path d="M128.686 289.477C133.138 289.477 136.746 280.456 136.746 269.328C136.746 258.2 133.138 249.179 128.686 249.179C124.235 249.179 120.627 258.2 120.627 269.328C120.627 280.456 124.235 289.477 128.686 289.477Z" fill="#B2001A"/>
<path d="M168.851 289.478C173.302 289.478 176.911 280.457 176.911 269.329C176.911 258.201 173.302 249.18 168.851 249.18C164.4 249.18 160.791 258.201 160.791 269.329C160.791 280.457 164.4 289.478 168.851 289.478Z" fill="#B2001A"/>
<path d="M148.701 257.24C159.829 257.24 168.851 253.631 168.851 249.18C168.851 244.729 159.829 241.12 148.701 241.12C137.573 241.12 128.552 244.729 128.552 249.18C128.552 253.631 137.573 257.24 148.701 257.24Z" fill="#B2001A"/>
<path d="M128.552 289.343C128.552 284.91 137.552 281.283 148.701 281.283C159.851 281.283 168.851 284.91 168.851 289.343C168.851 293.775 159.851 297.402 148.701 297.402C137.552 297.402 128.552 293.91 128.552 289.343Z" fill="#B2001A"/>
<path d="M128.686 329.642C133.138 329.642 136.746 320.621 136.746 309.493C136.746 298.365 133.138 289.344 128.686 289.344C124.235 289.344 120.627 298.365 120.627 309.493C120.627 320.621 124.235 329.642 128.686 329.642Z" fill="#B2001A"/>
<path d="M168.851 329.642C173.302 329.642 176.911 320.621 176.911 309.493C176.911 298.365 173.302 289.344 168.851 289.344C164.4 289.344 160.791 298.365 160.791 309.493C160.791 320.621 164.4 329.642 168.851 329.642Z" fill="#B2001A"/>
<path d="M148.701 297.537C159.829 297.537 168.851 293.929 168.851 289.478C168.851 285.026 159.829 281.418 148.701 281.418C137.573 281.418 128.552 285.026 128.552 289.478C128.552 293.929 137.573 297.537 148.701 297.537Z" fill="#B2001A"/>
<path d="M148.701 337.701C159.829 337.701 168.851 334.093 168.851 329.642C168.851 325.19 159.829 321.582 148.701 321.582C137.573 321.582 128.552 325.19 128.552 329.642C128.552 334.093 137.573 337.701 148.701 337.701Z" fill="#B2001A"/>
<path d="M168.851 369.94C173.302 369.94 176.911 360.919 176.911 349.791C176.911 338.663 173.302 329.642 168.851 329.642C164.4 329.642 160.791 338.663 160.791 349.791C160.791 360.919 164.4 369.94 168.851 369.94Z" fill="#B2001A"/>
<path d="M209.015 369.94C213.466 369.94 217.074 360.919 217.074 349.791C217.074 338.663 213.466 329.642 209.015 329.642C204.564 329.642 200.955 338.663 200.955 349.791C200.955 360.919 204.564 369.94 209.015 369.94Z" fill="#B2001A"/>
<path d="M168.851 329.642C168.851 325.21 177.851 321.583 188.866 321.583C199.881 321.583 209.015 325.21 209.015 329.642C209.015 334.075 200.015 337.702 188.866 337.702C177.717 337.702 168.851 334.075 168.851 329.642Z" fill="#B2001A"/>
<path d="M189 377.865C200.128 377.865 209.149 374.257 209.149 369.806C209.149 365.355 200.128 361.746 189 361.746C177.871 361.746 168.85 365.355 168.85 369.806C168.85 374.257 177.871 377.865 189 377.865Z" fill="#B2001A"/>
</g>
<defs>
<clipPath id="clip0_1234_59971">
<rect width="281" height="378" fill="white"/>
</clipPath>
</defs>
</svg>
