<svg width="210" height="211" viewBox="0 0 210 211" fill="none" xmlns="http://www.w3.org/2000/svg">
<g clip-path="url(#clip0_1397_95802)">
<path d="M105.058 175.551C71.3673 175.551 42.4356 153.222 30.085 121.443C28.9897 118.619 27.0261 120.464 27.1394 122.234C29.6699 166.703 63.5868 201.946 105.058 201.946C145.848 201.946 179.312 168.058 182.862 124.493C182.862 122.008 180.785 119.749 179.387 123.1C166.659 154.013 138.181 175.551 105.058 175.551Z" fill="#FFDCB6"/>
<path d="M47.6097 70.5352C59.847 70.5352 96.2945 76.8987 96.2945 84.7683C96.2945 92.6379 59.847 99.0391 47.6097 99.0391C35.3724 99.0391 29.4051 92.6379 29.4051 84.7683C29.4051 76.8987 35.3346 70.5352 47.6097 70.5352Z" fill="#FFDCB6"/>
<path d="M54.3327 115.231C62.9818 106.571 93.273 85.4095 98.8629 90.9822C104.453 96.555 83.2261 126.716 74.5392 135.376C65.8522 144.036 57.1276 143.697 51.5378 138.125C45.9479 132.552 45.6457 123.854 54.3327 115.231Z" fill="#FFDCB6"/>
<path d="M90.666 142.078C90.666 129.841 97.0492 93.543 104.943 93.543C112.837 93.543 119.257 129.841 119.257 142.078C119.257 154.315 112.837 160.227 104.943 160.227C97.0492 160.227 90.666 154.315 90.666 142.078Z" fill="#FFDCB6"/>
<path d="M135.612 135.376C126.925 126.716 105.698 96.555 111.288 90.9822C116.878 85.4095 147.131 106.571 155.818 115.231C164.505 123.892 164.165 132.552 158.575 138.125C152.986 143.697 144.261 144.036 135.612 135.376Z" fill="#FFDCB6"/>
<path d="M162.428 99.0391C150.153 99.0391 113.743 92.6379 113.743 84.7683C113.743 76.8987 150.153 70.5352 162.428 70.5352C174.703 70.5352 180.633 76.8987 180.633 84.7683C180.633 92.6379 174.816 99.0391 162.428 99.0391Z" fill="#FFDCB6"/>
<path d="M155.818 54.3451C147.131 63.0054 116.878 84.1664 111.288 78.5937C105.698 73.021 126.925 42.8232 135.612 34.2005C144.299 25.5779 152.986 25.8792 158.575 31.4142C164.165 36.9493 164.505 45.6848 155.818 54.3451Z" fill="#FFDCB6"/>
<path d="M119.371 27.4979C119.371 39.6976 112.95 76.0333 105.056 76.0333C97.1627 76.0333 90.7795 39.6976 90.7795 27.4979C90.7795 15.2981 97.1627 9.34863 105.056 9.34863C112.95 9.34863 119.371 15.2228 119.371 27.4979Z" fill="#FFDCB6"/>
<path d="M74.5388 34.0498C83.2258 42.6724 104.452 72.8707 98.8626 78.4434C93.2727 84.0161 62.9815 62.8546 54.3323 54.1943C45.6831 45.534 45.9853 36.8361 51.5374 31.2634C57.0895 25.6907 65.8519 25.5401 74.5388 34.0498Z" fill="#FFDCB6"/>
<path d="M105.057 102.465C114.84 102.465 122.771 94.5591 122.771 84.806C122.771 75.0529 114.84 67.1465 105.057 67.1465C95.2738 67.1465 87.3431 75.0529 87.3431 84.806C87.3431 94.5591 95.2738 102.465 105.057 102.465Z" fill="#A03D12"/>
</g>
<defs>
<clipPath id="clip0_1397_95802">
<rect width="155.723" height="192.635" fill="white" transform="translate(27.1385 9.34863)"/>
</clipPath>
</defs>
</svg>
