<svg width="361" height="383" viewBox="0 0 361 383" fill="none" xmlns="http://www.w3.org/2000/svg">
<g opacity="0.8" clip-path="url(#clip0_1234_63077)">
<path d="M236.388 259.324C237.833 260.758 233.444 267.488 226.611 274.273C219.778 281.058 213 285.306 211.555 283.982C210.111 282.658 214.5 275.873 221.333 269.033C228.166 262.192 234.944 257.945 236.388 259.324Z" fill="#B2001A"/>
<path d="M211.722 259.324C213.167 257.89 219.889 262.248 226.778 269.033C233.667 275.818 237.889 282.548 236.556 283.982C235.222 285.416 228.389 281.113 221.5 274.273C214.611 267.433 210.111 260.758 211.722 259.324Z" fill="#B2001A"/>
<path d="M226.605 249.592C233.461 242.784 237.841 236.095 236.387 234.652C234.934 233.209 228.197 237.557 221.341 244.365C214.485 251.172 210.106 257.861 211.56 259.304C213.014 260.747 219.749 256.399 226.605 249.592Z" fill="#B2001A"/>
<path d="M211.722 234.666C213.167 233.231 219.889 237.589 226.778 244.375C233.667 251.16 237.889 257.89 236.556 259.324C235.222 260.758 228.389 256.4 221.5 249.615C214.611 242.83 210.111 235.879 211.722 234.666Z" fill="#B2001A"/>
<path d="M261.222 234.665C262.722 236.099 258.333 242.774 251.444 249.614C244.555 256.455 237.833 260.647 236.388 259.323C234.944 257.999 239.333 251.214 246.166 244.374C253 237.534 259.778 233.231 261.222 234.665Z" fill="#B2001A"/>
<path d="M236.389 234.666C237.833 233.231 244.611 237.589 251.445 244.375C258.278 251.16 262.556 257.89 261.222 259.324C259.889 260.758 253.055 256.4 246.166 249.615C239.278 242.83 234.944 235.879 236.389 234.666Z" fill="#B2001A"/>
<path d="M276.281 249.583C283.137 242.776 287.516 236.087 286.063 234.644C284.609 233.2 277.873 237.549 271.017 244.356C264.161 251.164 259.781 257.853 261.235 259.296C262.689 260.739 269.425 256.391 276.281 249.583Z" fill="#B2001A"/>
<path d="M261.223 234.666C262.667 233.231 269.445 237.589 276.278 244.375C283.111 251.16 287.389 257.89 286.056 259.324C284.722 260.758 277.889 256.4 271 249.615C264.111 242.83 259.778 235.879 261.223 234.666Z" fill="#B2001A"/>
<path d="M201.729 249.635C208.584 242.828 212.964 236.139 211.51 234.696C210.057 233.252 203.32 237.601 196.465 244.408C189.609 251.216 185.229 257.905 186.683 259.348C188.136 260.791 194.873 256.443 201.729 249.635Z" fill="#B2001A"/>
<path d="M211.51 259.293C212.964 257.85 208.585 251.161 201.729 244.353C194.873 237.546 188.137 233.197 186.683 234.641C185.229 236.084 189.609 242.772 196.465 249.58C203.321 256.387 210.057 260.736 211.51 259.293Z" fill="#B2001A"/>
<path d="M186.666 234.665C188.166 236.099 183.777 242.774 176.889 249.614C170 256.455 163.278 260.647 161.833 259.323C160.389 257.999 164.778 251.214 171.611 244.374C178.444 237.534 185.222 233.231 186.666 234.665Z" fill="#B2001A"/>
<path d="M186.673 259.296C188.127 257.853 183.747 251.164 176.891 244.357C170.036 237.549 163.299 233.201 161.846 234.644C160.392 236.088 164.771 242.776 171.627 249.584C178.483 256.391 185.219 260.74 186.673 259.296Z" fill="#B2001A"/>
<path d="M161.722 234.665C163.167 236.099 158.778 242.774 151.944 249.614C145.111 256.455 138.333 260.647 136.889 259.323C135.445 257.999 139.778 251.214 146.667 244.374C153.556 237.534 160.389 233.231 161.722 234.665Z" fill="#B2001A"/>
<path d="M137 234.666C138.444 233.231 145.166 237.589 152.055 244.375C158.944 251.16 163.166 257.89 161.833 259.324C160.5 260.758 153.611 256.4 146.778 249.615C139.944 242.83 135.555 235.879 137 234.666Z" fill="#B2001A"/>
<path d="M137 234.665C138.444 236.099 134.055 242.774 127.166 249.614C120.278 256.455 113.61 260.647 112.11 259.323C110.61 257.999 115.055 251.214 121.944 244.374C128.833 237.534 135.5 233.231 137 234.665Z" fill="#B2001A"/>
<path d="M112.111 234.666C113.611 233.231 120.333 237.589 127.167 244.375C134 251.16 138.278 257.89 137 259.324C135.722 260.758 128.777 256.4 121.944 249.615C115.111 242.83 110.666 235.879 112.111 234.666Z" fill="#B2001A"/>
<path d="M112.11 234.665C113.555 236.099 109.222 242.774 102.333 249.614C95.4444 256.455 88.7217 260.647 87.2773 259.323C85.8328 257.999 90.2218 251.214 97.0551 244.374C103.888 237.534 110.666 233.231 112.11 234.665Z" fill="#B2001A"/>
<path d="M87.2777 234.666C88.7222 233.231 95.5004 237.589 102.334 244.375C109.167 251.16 113.444 257.89 112.111 259.324C110.778 260.758 103.944 256.4 97.0556 249.615C90.1667 242.83 85.8333 235.879 87.2777 234.666Z" fill="#B2001A"/>
<path d="M87.2776 234.665C88.7221 236.099 84.3331 242.774 77.4998 249.614C70.6665 256.455 63.8889 260.647 62.4445 259.323C61 257.999 65.3334 251.214 72.2223 244.374C79.1112 237.534 85.8332 233.231 87.2776 234.665Z" fill="#B2001A"/>
<path d="M62.4443 234.666C63.8887 233.231 70.6107 237.589 77.4996 244.375C84.3885 251.16 88.6108 257.89 87.2775 259.324C85.9441 260.758 79.0555 256.4 72.2221 249.615C65.3888 242.83 60.9443 235.879 62.4443 234.666Z" fill="#B2001A"/>
<path d="M236.388 210.007C237.833 211.441 233.444 218.116 226.611 224.956C219.778 231.797 213 235.989 211.555 234.665C210.111 233.341 214.5 226.501 221.333 219.716C228.166 212.931 234.944 208.297 236.388 210.007Z" fill="#B2001A"/>
<path d="M211.722 210.008C213.167 208.518 219.889 212.876 226.778 219.717C233.667 226.557 237.889 233.232 236.556 234.666C235.222 236.1 228.389 231.742 221.5 224.957C214.611 218.172 210.111 211.442 211.722 210.008Z" fill="#B2001A"/>
<path d="M251.439 224.925C258.295 218.118 262.674 211.429 261.22 209.986C259.767 208.543 253.031 212.891 246.175 219.698C239.319 226.506 234.94 233.195 236.393 234.638C237.847 236.081 244.583 231.733 251.439 224.925Z" fill="#B2001A"/>
<path d="M261.221 234.638C262.674 233.195 258.295 226.506 251.439 219.699C244.583 212.891 237.847 208.543 236.393 209.986C234.94 211.429 239.319 218.118 246.175 224.926C253.031 231.733 259.767 236.081 261.221 234.638Z" fill="#B2001A"/>
<path d="M286.055 210.007C287.555 211.441 283.166 218.116 276.277 224.956C269.389 231.797 262.667 235.989 261.222 234.665C259.778 233.341 264.167 226.501 271 219.716C277.833 212.931 284.611 208.297 286.055 210.007Z" fill="#B2001A"/>
<path d="M261.223 210.008C262.667 208.518 269.445 212.876 276.278 219.717C283.111 226.557 287.389 233.232 286.056 234.666C284.722 236.1 277.889 231.742 271 224.957C264.111 218.172 259.778 211.442 261.223 210.008Z" fill="#B2001A"/>
<path d="M211.722 210.007C213.166 211.441 208.777 218.116 201.944 224.956C195.111 231.797 188.333 235.989 186.833 234.665C185.333 233.341 189.778 226.501 196.667 219.716C203.555 212.931 210.111 208.297 211.722 210.007Z" fill="#B2001A"/>
<path d="M186.667 210.008C188.167 208.518 194.889 212.876 201.778 219.717C208.666 226.557 212.889 233.232 211.555 234.666C210.222 236.1 203.333 231.742 196.5 224.957C189.667 218.172 185.222 211.442 186.667 210.008Z" fill="#B2001A"/>
<path d="M186.666 210.007C188.166 211.441 183.777 218.116 176.889 224.956C170 231.797 163.278 235.989 161.833 234.665C160.389 233.341 164.778 226.501 171.611 219.716C178.444 212.931 185.222 208.297 186.666 210.007Z" fill="#B2001A"/>
<path d="M161.722 210.008C163.166 208.518 169.944 212.876 176.777 219.717C183.611 226.557 187.889 233.232 186.555 234.666C185.222 236.1 178.389 231.742 171.5 224.957C164.611 218.172 160.389 211.442 161.722 210.008Z" fill="#B2001A"/>
<path d="M161.722 210.007C163.167 211.441 158.778 218.116 151.944 224.956C145.111 231.797 138.333 235.989 136.889 234.665C135.445 233.341 139.778 226.501 146.667 219.716C153.556 212.931 160.389 208.297 161.722 210.007Z" fill="#B2001A"/>
<path d="M137 210.008C138.444 208.518 145.166 212.876 152.055 219.717C158.944 226.557 163.166 233.232 161.833 234.666C160.5 236.1 153.611 231.742 146.778 224.957C139.944 218.172 135.555 211.442 137 210.008Z" fill="#B2001A"/>
<path d="M127.173 224.913C134.029 218.106 138.408 211.418 136.954 209.974C135.5 208.531 128.765 212.879 121.909 219.687C115.053 226.494 110.673 233.183 112.127 234.626C113.581 236.07 120.317 231.721 127.173 224.913Z" fill="#B2001A"/>
<path d="M136.954 234.626C138.408 233.183 134.028 226.495 127.172 219.687C120.317 212.88 113.581 208.531 112.127 209.974C110.673 211.418 115.053 218.106 121.909 224.914C128.764 231.721 135.501 236.07 136.954 234.626Z" fill="#B2001A"/>
<path d="M102.335 224.919C109.19 218.111 113.57 211.423 112.116 209.979C110.663 208.536 103.926 212.884 97.0705 219.692C90.2147 226.499 85.8357 233.188 87.2893 234.631C88.7429 236.074 95.4787 231.726 102.335 224.919Z" fill="#B2001A"/>
<path d="M112.116 234.631C113.57 233.187 109.191 226.499 102.335 219.691C95.4789 212.884 88.7425 208.535 87.2889 209.979C85.8353 211.422 90.215 218.11 97.0709 224.918C103.927 231.725 110.663 236.074 112.116 234.631Z" fill="#B2001A"/>
<path d="M87.2776 210.007C88.7221 211.441 84.3331 218.116 77.4998 224.956C70.6665 231.797 63.8889 235.989 62.4445 234.665C61 233.341 65.3334 226.501 72.2223 219.716C79.1112 212.931 85.8332 208.297 87.2776 210.007Z" fill="#B2001A"/>
<path d="M62.4443 210.008C63.8887 208.518 70.6107 212.876 77.4996 219.717C84.3885 226.557 88.6108 233.232 87.2775 234.666C85.9441 236.1 79.0555 231.742 72.2221 224.957C65.3888 218.172 60.9443 211.442 62.4443 210.008Z" fill="#B2001A"/>
<path d="M236.388 185.294C237.833 186.783 233.444 193.458 226.611 200.243C219.778 207.029 213 211.276 211.555 210.007C210.111 208.739 214.5 201.843 221.333 195.058C228.166 188.273 234.944 183.86 236.388 185.294Z" fill="#B2001A"/>
<path d="M211.722 185.294C213.167 183.859 219.889 188.217 226.778 195.058C233.667 201.898 237.889 208.517 236.556 210.007C235.222 211.496 228.389 207.083 221.5 200.243C214.611 193.403 210.111 186.783 211.722 185.294Z" fill="#B2001A"/>
<path d="M261.222 185.294C262.722 186.783 258.333 193.458 251.444 200.243C244.555 207.029 237.833 211.276 236.388 210.007C234.944 208.739 239.333 201.843 246.166 195.058C253 188.273 259.778 183.86 261.222 185.294Z" fill="#B2001A"/>
<path d="M236.389 185.294C237.833 183.859 244.611 188.217 251.445 195.058C258.278 201.898 262.556 208.517 261.222 210.007C259.889 211.496 253.055 207.083 246.166 200.243C239.278 193.403 234.944 186.783 236.389 185.294Z" fill="#B2001A"/>
<path d="M286.055 185.294C287.555 186.783 283.166 193.458 276.277 200.243C269.389 207.029 262.667 211.276 261.222 210.007C259.778 208.739 264.167 201.843 271 195.058C277.833 188.273 284.611 183.86 286.055 185.294Z" fill="#B2001A"/>
<path d="M261.223 185.294C262.667 183.859 269.445 188.217 276.278 195.058C283.111 201.898 287.389 208.517 286.056 210.007C284.722 211.496 277.889 207.083 271 200.243C264.111 193.403 259.778 186.783 261.223 185.294Z" fill="#B2001A"/>
<path d="M211.722 185.294C213.166 186.783 208.777 193.458 201.944 200.243C195.111 207.029 188.333 211.276 186.833 210.007C185.333 208.739 189.778 201.843 196.667 195.058C203.555 188.273 210.111 183.86 211.722 185.294Z" fill="#B2001A"/>
<path d="M186.667 185.294C188.167 183.859 194.889 188.217 201.778 195.058C208.666 201.898 212.889 208.517 211.555 210.007C210.222 211.496 203.333 207.083 196.5 200.243C189.667 193.403 185.222 186.783 186.667 185.294Z" fill="#B2001A"/>
<path d="M186.666 185.294C188.166 186.783 183.777 193.458 176.889 200.243C170 207.029 163.278 211.276 161.833 210.007C160.389 208.739 164.778 201.843 171.611 195.058C178.444 188.273 185.222 183.86 186.666 185.294Z" fill="#B2001A"/>
<path d="M161.722 185.294C163.166 183.859 169.944 188.217 176.777 195.058C183.611 201.898 187.889 208.517 186.555 210.007C185.222 211.496 178.389 207.083 171.5 200.243C164.611 193.403 160.389 186.783 161.722 185.294Z" fill="#B2001A"/>
<path d="M161.722 185.294C163.167 186.783 158.778 193.458 151.944 200.243C145.111 207.029 138.333 211.276 136.889 210.007C135.445 208.739 139.778 201.843 146.667 195.058C153.556 188.273 160.389 183.86 161.722 185.294Z" fill="#B2001A"/>
<path d="M137 185.294C138.444 183.859 145.166 188.217 152.055 195.058C158.944 201.898 163.166 208.517 161.833 210.007C160.5 211.496 153.611 207.083 146.778 200.243C139.944 193.403 135.555 186.783 137 185.294Z" fill="#B2001A"/>
<path d="M137 185.294C138.444 186.783 134.055 193.458 127.166 200.243C120.278 207.029 113.61 211.276 112.11 210.007C110.61 208.739 115.055 201.843 121.944 195.058C128.833 188.273 135.5 183.86 137 185.294Z" fill="#B2001A"/>
<path d="M112.111 185.294C113.611 183.859 120.333 188.217 127.167 195.058C134 201.898 138.278 208.517 137 210.007C135.722 211.496 128.777 207.083 121.944 200.243C115.111 193.403 110.666 186.783 112.111 185.294Z" fill="#B2001A"/>
<path d="M112.11 185.294C113.555 186.783 109.222 193.458 102.333 200.243C95.4444 207.029 88.7217 211.276 87.2773 210.007C85.8328 208.739 90.2218 201.843 97.0551 195.058C103.888 188.273 110.666 183.86 112.11 185.294Z" fill="#B2001A"/>
<path d="M87.2777 185.294C88.7222 183.859 95.5004 188.217 102.334 195.058C109.167 201.898 113.444 208.517 112.111 210.007C110.778 211.496 103.944 207.083 97.0556 200.243C90.1667 193.403 85.8333 186.783 87.2777 185.294Z" fill="#B2001A"/>
<path d="M87.2776 185.294C88.7221 186.783 84.3331 193.458 77.4998 200.243C70.6665 207.029 63.8889 211.276 62.4445 210.007C61 208.739 65.3334 201.843 72.2223 195.058C79.1112 188.273 85.8332 183.86 87.2776 185.294Z" fill="#B2001A"/>
<path d="M62.4443 185.294C63.8887 183.859 70.6107 188.217 77.4996 195.058C84.3885 201.898 88.6108 208.517 87.2775 210.007C85.9441 211.496 79.0555 207.083 72.2221 200.243C65.3888 193.403 60.9443 186.783 62.4443 185.294Z" fill="#B2001A"/>
<path d="M52.6204 224.966C59.4763 218.159 63.8559 211.47 62.4023 210.027C60.9486 208.583 54.2123 212.932 47.3564 219.739C40.5005 226.547 36.1211 233.236 37.5747 234.679C39.0283 236.122 45.7645 231.774 52.6204 224.966Z" fill="#B2001A"/>
<path d="M62.4021 234.678C63.8558 233.235 59.4765 226.546 52.6207 219.738C45.7648 212.931 39.0284 208.583 37.5748 210.026C36.1212 211.469 40.5004 218.158 47.3563 224.966C54.2122 231.773 60.9485 236.122 62.4021 234.678Z" fill="#B2001A"/>
<path d="M62.4443 185.294C63.8887 186.783 59.4997 193.458 52.6108 200.243C45.7219 207.029 39.0555 211.276 37.5555 210.007C36.0555 208.739 40.5 201.843 47.3889 195.058C54.2778 188.273 60.9443 183.86 62.4443 185.294Z" fill="#B2001A"/>
<path d="M37.5555 185.294C39.0555 183.859 45.7775 188.217 52.6109 195.058C59.4442 201.898 63.7221 208.517 62.4443 210.007C61.1665 211.496 54.2223 207.083 47.389 200.243C40.5556 193.403 36.1111 186.783 37.5555 185.294Z" fill="#B2001A"/>
<path d="M112.11 160.636C113.555 162.07 109.222 168.8 102.333 175.585C95.4444 182.37 88.7217 186.618 87.2773 185.294C85.8328 183.97 90.2218 177.185 97.0551 170.345C103.888 163.504 110.666 159.202 112.11 160.636Z" fill="#B2001A"/>
<path d="M87.2777 160.636C88.7222 159.202 95.5004 163.56 102.334 170.345C109.167 177.13 113.444 183.86 112.111 185.294C110.778 186.729 103.944 182.426 97.0556 175.586C90.1667 168.746 85.8333 162.071 87.2777 160.636Z" fill="#B2001A"/>
<path d="M87.2776 160.636C88.7221 162.07 84.3331 168.8 77.4998 175.585C70.6665 182.37 63.8889 186.618 62.4445 185.294C61 183.97 65.3334 177.185 72.2223 170.345C79.1112 163.504 85.8332 159.202 87.2776 160.636Z" fill="#B2001A"/>
<path d="M62.4443 160.636C63.8887 159.202 70.6107 163.56 77.4996 170.345C84.3885 177.13 88.6108 183.86 87.2775 185.294C85.9441 186.729 79.0555 182.426 72.2221 175.586C65.3888 168.746 60.9443 162.071 62.4443 160.636Z" fill="#B2001A"/>
<path d="M62.4443 160.636C63.8887 162.07 59.4997 168.8 52.6108 175.585C45.7219 182.37 39.0555 186.618 37.5555 185.294C36.0555 183.97 40.5 177.185 47.3889 170.345C54.2778 163.504 60.9443 159.202 62.4443 160.636Z" fill="#B2001A"/>
<path d="M37.5555 160.636C39.0555 159.202 45.7775 163.56 52.6109 170.345C59.4442 177.13 63.7221 183.86 62.4443 185.294C61.1665 186.729 54.2223 182.426 47.389 175.586C40.5556 168.746 36.1111 162.071 37.5555 160.636Z" fill="#B2001A"/>
<path d="M112.11 135.978C113.555 137.412 109.222 144.087 102.333 150.927C95.4444 157.768 88.7217 161.96 87.2773 160.636C85.8328 159.312 90.2218 152.472 97.0551 145.687C103.888 138.902 110.666 134.544 112.11 135.978Z" fill="#B2001A"/>
<path d="M87.2777 135.978C88.7222 134.543 95.5004 138.846 102.334 145.686C109.167 152.527 113.444 159.201 112.111 160.636C110.778 162.07 103.944 157.712 97.0556 150.927C90.1667 144.142 85.8333 137.412 87.2777 135.978Z" fill="#B2001A"/>
<path d="M87.2776 135.978C88.7221 137.412 84.3331 144.087 77.4998 150.927C70.6665 157.768 63.8889 161.96 62.4445 160.636C61 159.312 65.3334 152.472 72.2223 145.687C79.1112 138.902 85.8332 134.544 87.2776 135.978Z" fill="#B2001A"/>
<path d="M87.243 160.648C88.6966 159.205 84.3173 152.516 77.4615 145.708C70.6056 138.901 63.8692 134.552 62.4156 135.996C60.962 137.439 65.3412 144.128 72.1971 150.935C79.053 157.743 85.7893 162.091 87.243 160.648Z" fill="#B2001A"/>
<path d="M62.4443 135.978C63.8887 137.412 59.4997 144.087 52.6108 150.927C45.7219 157.768 39.0555 161.96 37.5555 160.636C36.0555 159.312 40.5 152.472 47.3889 145.687C54.2778 138.902 60.9443 134.544 62.4443 135.978Z" fill="#B2001A"/>
<path d="M37.5555 135.978C39.0555 134.543 45.7775 138.846 52.6109 145.686C59.4442 152.527 63.7221 159.201 62.4443 160.636C61.1665 162.07 54.2223 157.712 47.389 150.927C40.5556 144.142 36.1111 137.412 37.5555 135.978Z" fill="#B2001A"/>
<path d="M112.11 111.265C113.555 112.754 109.222 119.429 102.333 126.269C95.4444 133.11 88.7217 137.302 87.2773 135.978C85.8328 134.654 90.2218 127.814 97.0551 121.029C103.888 114.244 110.666 109.831 112.11 111.265Z" fill="#B2001A"/>
<path d="M87.2777 111.264C88.7222 109.83 95.5004 114.188 102.334 121.028C109.167 127.868 113.444 134.543 112.111 135.978C110.778 137.412 103.944 133.054 97.0556 126.269C90.1667 119.484 85.8333 112.754 87.2777 111.264Z" fill="#B2001A"/>
<path d="M87.2776 111.265C88.7221 112.754 84.3331 119.429 77.4998 126.269C70.6665 133.11 63.8889 137.302 62.4445 135.978C61 134.654 65.3334 127.814 72.2223 121.029C79.1112 114.244 85.8332 109.831 87.2776 111.265Z" fill="#B2001A"/>
<path d="M62.4443 111.264C63.8887 109.83 70.6107 114.188 77.4996 121.028C84.3885 127.868 88.6108 134.543 87.2775 135.978C85.9441 137.412 79.0555 133.054 72.2221 126.269C65.3888 119.484 60.9443 112.754 62.4443 111.264Z" fill="#B2001A"/>
<path d="M62.4443 111.265C63.8887 112.754 59.4997 119.429 52.6108 126.269C45.7219 133.11 39.0555 137.302 37.5555 135.978C36.0555 134.654 40.5 127.814 47.3889 121.029C54.2778 114.244 60.9443 109.831 62.4443 111.265Z" fill="#B2001A"/>
<path d="M37.5555 111.264C39.0555 109.83 45.7775 114.188 52.6109 121.028C59.4442 127.868 63.7221 134.543 62.4443 135.978C61.1665 137.412 54.2223 133.054 47.389 126.269C40.5556 119.484 36.1111 112.754 37.5555 111.264Z" fill="#B2001A"/>
<path d="M112.11 86.6066C113.555 88.0408 109.222 94.7707 102.333 101.556C95.4444 108.341 88.7217 112.589 87.2773 111.265C85.8328 109.941 90.2218 103.156 97.0551 96.3154C103.888 89.4751 110.666 85.1723 112.11 86.6066Z" fill="#B2001A"/>
<path d="M87.2777 86.6071C88.7222 85.1729 95.5004 89.5308 102.334 96.3159C109.167 103.101 113.444 109.831 112.111 111.265C110.778 112.699 103.944 108.397 97.0556 101.556C90.1667 94.7161 85.8333 88.0414 87.2777 86.6071Z" fill="#B2001A"/>
<path d="M87.2776 86.6066C88.7221 88.0408 84.3331 94.7707 77.4998 101.556C70.6665 108.341 63.8889 112.589 62.4445 111.265C61 109.941 65.3334 103.156 72.2223 96.3154C79.1112 89.4751 85.8332 85.1723 87.2776 86.6066Z" fill="#B2001A"/>
<path d="M62.4443 86.6071C63.8887 85.1729 70.6107 89.5308 77.4996 96.3159C84.3885 103.101 88.6108 109.831 87.2775 111.265C85.9441 112.699 79.0555 108.397 72.2221 101.556C65.3888 94.7161 60.9443 88.0414 62.4443 86.6071Z" fill="#B2001A"/>
<path d="M62.4443 86.6066C63.8887 88.0408 59.4997 94.7707 52.6108 101.556C45.7219 108.341 39.0555 112.589 37.5555 111.265C36.0555 109.941 40.5 103.156 47.3889 96.3154C54.2778 89.4751 60.9443 85.1723 62.4443 86.6066Z" fill="#B2001A"/>
<path d="M37.5555 86.6071C39.0555 85.1729 45.7775 89.5308 52.6109 96.3159C59.4442 103.101 63.7221 109.831 62.4443 111.265C61.1665 112.699 54.2223 108.397 47.389 101.556C40.5556 94.7161 36.1111 88.0414 37.5555 86.6071Z" fill="#B2001A"/>
<path d="M27.7779 101.564C34.6338 94.7563 39.0127 88.0679 37.5591 86.6246C36.1055 85.1812 29.3698 89.5294 22.5139 96.3369C15.658 103.144 11.2784 109.833 12.732 111.276C14.1857 112.72 20.922 108.371 27.7779 101.564Z" fill="#B2001A"/>
<path d="M37.5594 111.277C39.013 109.833 34.6333 103.145 27.7774 96.3376C20.9215 89.5301 14.1857 85.1813 12.732 86.6247C11.2784 88.068 15.6576 94.7569 22.5135 101.564C29.3694 108.372 36.1057 112.72 37.5594 111.277Z" fill="#B2001A"/>
<path d="M87.2776 61.9484C88.7221 63.3826 84.3331 70.1125 77.4998 76.8976C70.6665 83.6827 63.8889 87.9304 62.4445 86.6065C61 85.2825 65.3334 78.4975 72.2223 71.6572C79.1112 64.8169 85.8332 60.5141 87.2776 61.9484Z" fill="#B2001A"/>
<path d="M62.4443 61.9489C63.8887 60.5146 70.6107 64.8726 77.4996 71.6577C84.3885 78.4428 88.6108 85.1727 87.2775 86.607C85.9441 88.0412 79.0555 83.7384 72.2221 76.8982C65.3888 70.0579 60.9443 63.3831 62.4443 61.9489Z" fill="#B2001A"/>
<path d="M62.4443 61.9484C63.8887 63.3826 59.4997 70.1125 52.6108 76.8976C45.7219 83.6827 39.0555 87.9304 37.5555 86.6065C36.0555 85.2825 40.5 78.4975 47.3889 71.6572C54.2778 64.8169 60.9443 60.5141 62.4443 61.9484Z" fill="#B2001A"/>
<path d="M37.5555 61.9489C39.0555 60.5146 45.7775 64.8726 52.6109 71.6577C59.4442 78.4428 63.7221 85.1727 62.4443 86.607C61.1665 88.0412 54.2223 83.7384 47.389 76.8982C40.5556 70.0579 36.1111 63.3831 37.5555 61.9489Z" fill="#B2001A"/>
<path d="M236.388 283.982C237.833 285.471 233.444 292.146 226.611 298.931C219.778 305.716 213 309.964 211.555 308.695C210.111 307.426 214.5 300.531 221.333 293.745C228.166 286.96 234.944 282.547 236.388 283.982Z" fill="#B2001A"/>
<path d="M211.722 283.982C213.167 282.548 219.889 286.906 226.778 293.746C233.667 300.586 237.889 307.206 236.556 308.695C235.222 310.185 228.389 305.772 221.5 298.931C214.611 292.091 210.111 285.527 211.722 283.982Z" fill="#B2001A"/>
<path d="M226.602 323.618C233.458 316.81 237.837 310.122 236.384 308.678C234.93 307.235 228.194 311.584 221.338 318.391C214.482 325.199 210.103 331.887 211.557 333.33C213.01 334.774 219.746 330.425 226.602 323.618Z" fill="#B2001A"/>
<path d="M211.722 308.694C213.167 307.26 219.889 311.563 226.778 318.403C233.667 325.243 237.889 331.918 236.556 333.353C235.222 334.787 228.389 330.429 221.5 323.644C214.611 316.859 210.111 310.129 211.722 308.694Z" fill="#B2001A"/>
<path d="M226.59 348.319C233.446 341.512 237.825 334.823 236.372 333.38C234.918 331.936 228.182 336.285 221.326 343.092C214.47 349.9 210.091 356.588 211.545 358.031C212.998 359.475 219.734 355.127 226.59 348.319Z" fill="#B2001A"/>
<path d="M236.372 358.032C237.825 356.589 233.446 349.9 226.59 343.092C219.734 336.285 212.998 331.937 211.544 333.38C210.091 334.823 214.47 341.512 221.326 348.319C228.182 355.127 234.918 359.476 236.372 358.032Z" fill="#B2001A"/>
<path d="M236.388 358.011C237.833 359.5 233.444 366.175 226.611 372.96C219.778 379.745 213 383.993 211.555 382.724C210.111 381.455 214.5 374.56 221.333 367.775C228.166 360.99 234.944 356.577 236.388 358.011Z" fill="#B2001A"/>
<path d="M236.376 382.694C237.829 381.251 233.45 374.562 226.594 367.755C219.738 360.947 213.002 356.599 211.548 358.042C210.095 359.486 214.475 366.174 221.33 372.981C228.186 379.789 234.922 384.138 236.376 382.694Z" fill="#B2001A"/>
<path d="M211.722 358.011C213.166 359.5 208.777 366.175 201.944 372.96C195.111 379.745 188.333 383.993 186.833 382.724C185.333 381.455 189.778 374.56 196.667 367.775C203.555 360.99 210.111 356.577 211.722 358.011Z" fill="#B2001A"/>
<path d="M186.667 358.011C188.167 356.577 194.889 360.935 201.778 367.775C208.666 374.615 212.889 381.235 211.555 382.724C210.222 384.214 203.333 379.801 196.5 372.961C189.667 366.12 185.222 359.501 186.667 358.011Z" fill="#B2001A"/>
<path d="M137 259.324C138.445 260.758 134.056 267.488 127.223 274.273C120.389 281.058 113.611 285.306 112.167 283.982C110.722 282.658 115.056 275.873 121.944 269.033C128.833 262.192 135.556 257.945 137 259.324Z" fill="#B2001A"/>
<path d="M112.166 259.324C113.611 257.89 120.333 262.248 127.222 269.033C134.111 275.818 138.333 282.548 137 283.982C135.667 285.416 128.777 281.113 121.944 274.273C115.111 267.433 110.722 260.758 112.166 259.324Z" fill="#B2001A"/>
<path d="M137 283.982C138.445 285.471 134.056 292.146 127.223 298.931C120.389 305.716 113.611 309.964 112.167 308.695C110.722 307.426 115.056 300.531 121.944 293.745C128.833 286.96 135.556 282.547 137 283.982Z" fill="#B2001A"/>
<path d="M112.166 283.982C113.611 282.548 120.333 286.906 127.222 293.746C134.111 300.586 138.333 307.206 137 308.695C135.667 310.185 128.777 305.772 121.944 298.931C115.111 292.091 110.722 285.527 112.166 283.982Z" fill="#B2001A"/>
<path d="M137 308.695C138.445 310.129 134.056 316.804 127.223 323.644C120.389 330.485 113.611 334.677 112.167 333.353C110.722 332.029 115.056 325.189 121.944 318.404C128.833 311.619 135.556 307.261 137 308.695Z" fill="#B2001A"/>
<path d="M136.955 333.37C138.409 331.926 134.029 325.238 127.173 318.43C120.317 311.623 113.581 307.274 112.128 308.717C110.674 310.161 115.053 316.85 121.909 323.657C128.765 330.465 135.502 334.813 136.955 333.37Z" fill="#B2001A"/>
<path d="M127.161 348.359C134.017 341.551 138.396 334.863 136.943 333.42C135.489 331.976 128.753 336.324 121.897 343.132C115.041 349.939 110.662 356.628 112.115 358.071C113.569 359.515 120.305 355.166 127.161 348.359Z" fill="#B2001A"/>
<path d="M136.943 358.071C138.397 356.627 134.017 349.939 127.161 343.132C120.305 336.324 113.569 331.975 112.116 333.419C110.662 334.862 115.041 341.551 121.897 348.358C128.753 355.166 135.489 359.514 136.943 358.071Z" fill="#B2001A"/>
<path d="M127.166 373.021C134.021 366.213 138.401 359.525 136.947 358.082C135.493 356.638 128.757 360.986 121.902 367.794C115.046 374.601 110.666 381.29 112.12 382.734C113.573 384.177 120.31 379.828 127.166 373.021Z" fill="#B2001A"/>
<path d="M112.166 358.011C113.611 356.577 120.333 360.935 127.222 367.775C134.111 374.615 138.333 381.235 137 382.724C135.667 384.214 128.777 379.801 121.944 372.961C115.111 366.12 110.722 359.501 112.166 358.011Z" fill="#B2001A"/>
<path d="M102.328 372.97C109.184 366.163 113.563 359.474 112.11 358.031C110.656 356.588 103.92 360.936 97.0637 367.744C90.2078 374.551 85.8288 381.239 87.2825 382.683C88.7361 384.126 95.4718 379.778 102.328 372.97Z" fill="#B2001A"/>
<path d="M87.2777 358.011C88.7777 356.577 95.5004 360.935 102.334 367.775C109.167 374.615 113.444 381.235 112.166 382.724C110.889 384.214 103.944 379.801 97.1111 372.961C90.2778 366.12 85.8332 359.501 87.2777 358.011Z" fill="#B2001A"/>
<path d="M161.722 135.978C163.167 137.412 158.778 144.087 151.944 150.927C145.111 157.768 138.333 161.96 136.889 160.636C135.445 159.312 139.778 152.472 146.667 145.687C153.556 138.902 160.389 134.544 161.722 135.978Z" fill="#B2001A"/>
<path d="M186.666 111.265C188.111 112.754 183.722 119.429 176.889 126.269C170.055 133.11 163.278 137.302 161.833 135.978C160.389 134.654 164.778 127.814 171.611 121.029C178.444 114.244 185.222 109.831 186.666 111.265Z" fill="#B2001A"/>
<path d="M201.719 101.567C208.575 94.7592 212.955 88.0704 211.501 86.627C210.047 85.1837 203.311 89.5324 196.455 96.3398C189.599 103.147 185.22 109.836 186.673 111.279C188.127 112.723 194.863 108.374 201.719 101.567Z" fill="#B2001A"/>
<path d="M112.111 86.607C110.666 88.0412 103.944 83.7384 97.0553 76.8982C90.1664 70.0579 85.9441 63.3831 87.2775 61.9489C88.6108 60.5146 95.5001 64.8726 102.333 71.6577C109.167 78.4428 113.555 85.1727 112.111 86.607Z" fill="#B2001A"/>
<path d="M12.7224 86.6067C11.2779 85.1724 15.6662 78.4977 22.4995 71.6574C29.3328 64.8171 36.1111 60.6247 37.5555 61.9486C39 63.2725 34.6666 70.1127 27.7777 76.8978C20.8888 83.6829 14.1668 88.0409 12.7224 86.6067Z" fill="#B2001A"/>
<path d="M12.7222 121.525C14.7779 121.525 16.4444 113.721 16.4444 104.094C16.4444 94.4665 14.7779 86.6621 12.7222 86.6621C10.6665 86.6621 9 94.4665 9 104.094C9 113.721 10.6665 121.525 12.7222 121.525Z" fill="#B2001A"/>
<path d="M137 160.636C138.444 162.07 134.055 168.8 127.166 175.585C120.278 182.37 113.61 186.618 112.11 185.294C110.61 183.97 115.055 177.185 121.944 170.345C128.833 163.504 135.5 159.202 137 160.636Z" fill="#B2001A"/>
<path d="M186.667 86.6064C188.722 86.6064 190.389 92.1227 190.389 98.963C190.389 105.803 188.722 111.265 186.667 111.265C184.611 111.265 182.944 105.748 182.944 98.963C182.944 92.1779 184.611 86.6064 186.667 86.6064Z" fill="#B2001A"/>
<path d="M161.722 86.6064C163.778 86.6064 165.445 92.1227 165.445 98.963C165.445 105.803 163.778 111.265 161.722 111.265C159.667 111.265 158 105.748 158 98.963C158 92.1779 159.778 86.6064 161.722 86.6064Z" fill="#B2001A"/>
<path d="M161.722 111.265C163.778 111.265 165.445 116.781 165.445 123.621C165.445 130.461 163.778 135.978 161.722 135.978C159.667 135.978 158 130.461 158 123.621C158 116.781 159.778 111.265 161.722 111.265Z" fill="#B2001A"/>
<path d="M137 86.6064C139.056 86.6064 140.722 92.1227 140.722 98.963C140.722 105.803 139.056 111.265 137 111.265C134.945 111.265 133.222 105.748 133.222 98.963C133.222 92.1779 134.889 86.6064 137 86.6064Z" fill="#B2001A"/>
<path d="M137 111.265C139.056 111.265 140.722 116.781 140.722 123.621C140.722 130.461 139.056 135.978 137 135.978C134.945 135.978 133.222 130.461 133.222 123.621C133.222 116.781 134.889 111.265 137 111.265Z" fill="#B2001A"/>
<path d="M137 135.979C139.056 135.979 140.722 141.495 140.722 148.28C140.722 155.065 139.056 160.636 137 160.636C134.945 160.636 133.222 155.12 133.222 148.28C133.222 141.44 134.889 135.979 137 135.979Z" fill="#B2001A"/>
<path d="M199.056 115.016C205.928 115.016 211.5 113.361 211.5 111.32C211.5 109.279 205.928 107.624 199.056 107.624C192.183 107.624 186.611 109.279 186.611 111.32C186.611 113.361 192.183 115.016 199.056 115.016Z" fill="#B2001A"/>
<path d="M74.8334 65.6448C81.7062 65.6448 87.2778 63.9901 87.2778 61.9489C87.2778 59.9077 81.7062 58.2529 74.8334 58.2529C67.9605 58.2529 62.3889 59.9077 62.3889 61.9489C62.3889 63.9901 67.9605 65.6448 74.8334 65.6448Z" fill="#B2001A"/>
<path d="M50.0001 65.6448C56.873 65.6448 62.4445 63.9901 62.4445 61.9489C62.4445 59.9077 56.873 58.2529 50.0001 58.2529C43.1272 58.2529 37.5557 59.9077 37.5557 61.9489C37.5557 63.9901 43.1272 65.6448 50.0001 65.6448Z" fill="#B2001A"/>
<path d="M199.056 139.674C205.928 139.674 211.5 138.019 211.5 135.978C211.5 133.937 205.928 132.282 199.056 132.282C192.183 132.282 186.611 133.937 186.611 135.978C186.611 138.019 192.183 139.674 199.056 139.674Z" fill="#B2001A"/>
<path d="M174.222 139.674C181.095 139.674 186.667 138.019 186.667 135.978C186.667 133.937 181.095 132.282 174.222 132.282C167.349 132.282 161.778 133.937 161.778 135.978C161.778 138.019 167.349 139.674 174.222 139.674Z" fill="#B2001A"/>
<path d="M211.722 160.636C211.722 162.677 206.167 164.332 199.278 164.332C192.389 164.332 186.833 162.677 186.833 160.636C186.833 158.595 192.389 156.94 199.278 156.94C206.167 156.94 211.722 158.65 211.722 160.636Z" fill="#B2001A"/>
<path d="M186.667 160.636C186.667 162.677 181.111 164.332 174.278 164.332C167.445 164.332 161.833 162.677 161.833 160.636C161.833 158.595 167.389 156.94 174.278 156.94C181.167 156.94 186.667 158.65 186.667 160.636Z" fill="#B2001A"/>
<path d="M161.722 160.636C161.722 162.677 156.167 164.332 149.278 164.332C142.389 164.332 136.889 162.677 136.889 160.636C136.889 158.595 142.445 156.94 149.278 156.94C156.111 156.94 161.722 158.65 161.722 160.636Z" fill="#B2001A"/>
<path d="M310.944 160.636C312.388 162.07 308 168.8 301.166 175.585C294.333 182.37 287.555 186.618 286.055 185.294C284.555 183.97 289 177.185 295.889 170.345C302.778 163.504 309.5 159.202 310.944 160.636Z" fill="#B2001A"/>
<path d="M335.778 135.978C337.222 137.412 332.833 144.087 326 150.927C319.166 157.768 312.389 161.96 310.944 160.636C309.5 159.312 313.833 152.472 320.722 145.687C327.611 138.902 334.333 134.544 335.778 135.978Z" fill="#B2001A"/>
<path d="M360.611 111.265C362.111 112.754 357.722 119.429 350.833 126.269C343.944 133.11 337.222 137.302 335.777 135.978C334.333 134.654 338.722 127.814 345.555 121.029C352.388 114.244 359.167 109.831 360.611 111.265Z" fill="#B2001A"/>
<path d="M286.055 185.294C287.555 186.783 283.166 193.458 276.277 200.243C269.389 207.029 262.667 211.276 261.222 210.007C259.778 208.739 264.167 201.843 271 195.058C277.833 188.273 284.611 183.86 286.055 185.294Z" fill="#B2001A"/>
<path d="M335.777 111.265C337.833 111.265 339.5 116.781 339.5 123.621C339.5 130.461 337.833 135.978 335.777 135.978C333.722 135.978 332.056 130.461 332.056 123.621C332.056 116.781 333.944 111.265 335.777 111.265Z" fill="#B2001A"/>
<path d="M310.889 135.978C312.945 135.978 314.611 130.446 314.611 123.621C314.611 116.797 312.945 111.265 310.889 111.265C308.833 111.265 307.167 116.797 307.167 123.621C307.167 130.446 308.833 135.978 310.889 135.978Z" fill="#B2001A"/>
<path d="M310.889 160.691C312.945 160.691 314.611 155.159 314.611 148.334C314.611 141.51 312.945 135.978 310.889 135.978C308.833 135.978 307.167 141.51 307.167 148.334C307.167 155.159 308.833 160.691 310.889 160.691Z" fill="#B2001A"/>
<path d="M286.055 111.265C288.111 111.265 289.778 116.781 289.778 123.621C289.778 130.461 288.111 135.978 286.055 135.978C284 135.978 282.333 130.461 282.333 123.621C282.333 116.781 283.944 111.265 286.055 111.265Z" fill="#B2001A"/>
<path d="M286.055 135.979C288.111 135.979 289.778 141.495 289.778 148.28C289.778 155.065 288.111 160.636 286.055 160.636C284 160.636 282.333 155.12 282.333 148.28C282.333 141.44 283.944 135.979 286.055 135.979Z" fill="#B2001A"/>
<path d="M286.055 160.636C288.111 160.636 289.778 166.152 289.778 172.992C289.778 179.833 288.111 185.294 286.055 185.294C284 185.294 282.333 179.778 282.333 172.992C282.333 166.207 283.944 160.636 286.055 160.636Z" fill="#B2001A"/>
<path d="M360.611 135.978C360.611 138.019 355.055 139.674 348.222 139.674C341.389 139.674 335.778 138.019 335.778 135.978C335.778 133.937 341.333 132.227 348.222 132.227C355.111 132.227 360.611 133.937 360.611 135.978Z" fill="#B2001A"/>
<path d="M360.611 160.636C360.611 162.677 355.055 164.332 348.222 164.332C341.389 164.332 335.778 162.677 335.778 160.636C335.778 158.595 341.333 156.94 348.222 156.94C355.111 156.94 360.611 158.65 360.611 160.636Z" fill="#B2001A"/>
<path d="M335.778 160.636C335.778 162.677 330.222 164.332 323.333 164.332C316.444 164.332 310.944 162.677 310.944 160.636C310.944 158.595 316.5 156.94 323.333 156.94C330.166 156.94 335.778 158.65 335.778 160.636Z" fill="#B2001A"/>
<path d="M360.611 185.294C360.611 187.336 355.055 188.991 348.222 188.991C341.389 188.991 335.778 187.336 335.778 185.294C335.778 183.253 341.333 181.599 348.222 181.599C355.111 181.599 360.611 183.253 360.611 185.294Z" fill="#B2001A"/>
<path d="M335.778 185.294C335.778 187.336 330.222 188.991 323.333 188.991C316.444 188.991 310.944 187.336 310.944 185.294C310.944 183.253 316.5 181.599 323.333 181.599C330.166 181.599 335.778 183.253 335.778 185.294Z" fill="#B2001A"/>
<path d="M310.944 185.294C310.944 187.336 305.389 188.991 298.5 188.991C291.611 188.991 286.111 187.336 286.111 185.294C286.111 183.253 291.667 181.599 298.5 181.599C305.333 181.599 310.944 183.253 310.944 185.294Z" fill="#B2001A"/>
<path d="M310.944 283.982C309.5 285.471 302.722 281.113 295.889 274.273C289.056 267.433 284.778 260.758 286.056 259.324C287.333 257.89 294.278 262.248 301.166 269.033C308.055 275.818 312.389 282.548 310.944 283.982Z" fill="#B2001A"/>
<path d="M335.778 308.695C334.333 310.129 327.556 305.771 320.723 298.931C313.889 292.091 309.611 285.471 310.945 283.982C312.278 282.492 319.111 286.905 326 293.746C332.889 300.586 337.222 307.206 335.778 308.695Z" fill="#B2001A"/>
<path d="M62.4445 259.324C60.9445 260.758 54.2225 256.4 47.3892 249.615C40.5559 242.83 36.278 236.1 37.5558 234.666C38.8335 233.231 45.7778 237.589 52.6111 244.375C59.4444 251.16 63.889 257.945 62.4445 259.324Z" fill="#B2001A"/>
<path d="M37.5557 160.636C35.5002 160.636 33.8333 155.12 33.8333 148.28C33.8333 141.44 35.5002 135.979 37.5557 135.979C39.6113 135.979 41.3331 141.495 41.3331 148.28C41.3331 155.065 39.5002 160.636 37.5557 160.636Z" fill="#B2001A"/>
<path d="M37.5557 185.294C35.5002 185.294 33.8333 179.778 33.8333 172.992C33.8333 166.207 35.5002 160.636 37.5557 160.636C39.6113 160.636 41.3331 166.152 41.3331 172.992C41.3331 179.833 39.5002 185.294 37.5557 185.294Z" fill="#B2001A"/>
<path d="M37.5557 210.007C35.5002 210.007 33.8333 204.491 33.8333 197.651C33.8333 190.81 35.5002 185.294 37.5557 185.294C39.6113 185.294 41.3331 190.81 41.3331 197.651C41.3331 204.491 39.5002 210.007 37.5557 210.007Z" fill="#B2001A"/>
<path d="M37.5557 234.666C35.5002 234.666 33.8333 229.15 33.8333 222.309C33.8333 215.469 35.5002 210.008 37.5557 210.008C39.6113 210.008 41.3331 215.524 41.3331 222.309C41.3331 229.094 39.5002 234.666 37.5557 234.666Z" fill="#B2001A"/>
<path d="M37.5557 135.978C35.5002 135.978 33.8333 130.461 33.8333 123.621C33.8333 116.781 35.5002 111.265 37.5557 111.265C39.6113 111.265 41.3331 116.781 41.3331 123.621C41.3331 130.461 39.5002 135.978 37.5557 135.978Z" fill="#B2001A"/>
<path d="M360.611 333.353C359.167 334.787 352.444 330.429 345.555 323.644C338.666 316.859 334.444 310.129 335.777 308.694C337.111 307.26 344 311.563 350.833 318.403C357.667 325.243 362.111 331.918 360.611 333.353Z" fill="#B2001A"/>
<path d="M286.055 259.324C284.611 260.758 277.889 256.4 271 249.615C264.111 242.83 259.889 236.1 261.222 234.666C262.555 233.231 269.444 237.589 276.277 244.375C283.111 251.16 287.555 257.945 286.055 259.324Z" fill="#B2001A"/>
<path d="M335.777 333.353C333.722 333.353 332.056 327.837 332.056 320.997C332.056 314.156 333.722 308.695 335.777 308.695C337.833 308.695 339.5 314.212 339.5 320.997C339.5 327.782 337.833 333.353 335.777 333.353Z" fill="#B2001A"/>
<path d="M310.889 333.408C312.945 333.408 314.611 327.875 314.611 321.051C314.611 314.227 312.945 308.694 310.889 308.694C308.833 308.694 307.167 314.227 307.167 321.051C307.167 327.875 308.833 333.408 310.889 333.408Z" fill="#B2001A"/>
<path d="M310.889 308.695C312.945 308.695 314.611 303.162 314.611 296.338C314.611 289.514 312.945 283.981 310.889 283.981C308.833 283.981 307.167 289.514 307.167 296.338C307.167 303.162 308.833 308.695 310.889 308.695Z" fill="#B2001A"/>
<path d="M286.055 333.353C284 333.353 282.333 327.837 282.333 320.997C282.333 314.156 284 308.695 286.055 308.695C288.111 308.695 289.778 314.212 289.778 320.997C289.778 327.782 288.111 333.353 286.055 333.353Z" fill="#B2001A"/>
<path d="M286.055 308.695C284 308.695 282.333 303.178 282.333 296.338C282.333 289.498 284 283.981 286.055 283.981C288.111 283.981 289.778 289.498 289.778 296.338C289.778 303.178 288.111 308.695 286.055 308.695Z" fill="#B2001A"/>
<path d="M286.055 283.981C284 283.981 282.333 278.465 282.333 271.68C282.333 264.895 284 259.323 286.055 259.323C288.111 259.323 289.778 264.84 289.778 271.68C289.778 278.52 288.111 283.981 286.055 283.981Z" fill="#B2001A"/>
<path d="M348.167 312.391C355.039 312.391 360.611 310.736 360.611 308.695C360.611 306.654 355.039 304.999 348.167 304.999C341.294 304.999 335.722 306.654 335.722 308.695C335.722 310.736 341.294 312.391 348.167 312.391Z" fill="#B2001A"/>
<path d="M360.611 283.981C360.611 286.077 355.055 287.732 348.222 287.732C341.389 287.732 335.778 286.077 335.778 283.981C335.778 281.885 341.333 280.285 348.222 280.285C355.111 280.285 360.611 281.94 360.611 283.981Z" fill="#B2001A"/>
<path d="M335.778 283.981C335.778 286.077 330.222 287.732 323.333 287.732C316.444 287.732 310.944 286.077 310.944 283.981C310.944 281.885 316.5 280.285 323.333 280.285C330.166 280.285 335.778 281.94 335.778 283.981Z" fill="#B2001A"/>
<path d="M348.167 263.02C355.039 263.02 360.611 261.365 360.611 259.324C360.611 257.283 355.039 255.628 348.167 255.628C341.294 255.628 335.722 257.283 335.722 259.324C335.722 261.365 341.294 263.02 348.167 263.02Z" fill="#B2001A"/>
<path d="M323.333 263.02C330.206 263.02 335.778 261.365 335.778 259.324C335.778 257.283 330.206 255.628 323.333 255.628C316.46 255.628 310.889 257.283 310.889 259.324C310.889 261.365 316.46 263.02 323.333 263.02Z" fill="#B2001A"/>
<path d="M298.5 263.02C305.373 263.02 310.945 261.365 310.945 259.324C310.945 257.283 305.373 255.628 298.5 255.628C291.627 255.628 286.056 257.283 286.056 259.324C286.056 261.365 291.627 263.02 298.5 263.02Z" fill="#B2001A"/>
<path d="M290.333 222.309C290.333 224.35 287.556 226.005 284.111 226.005C280.667 226.005 277.945 224.35 277.945 222.309C277.945 220.268 280.722 218.613 284.111 218.613C287.5 218.613 290.333 220.268 290.333 222.309Z" fill="#B2001A"/>
<path d="M307.889 226.005C317.584 226.005 325.444 224.35 325.444 222.309C325.444 220.268 317.584 218.613 307.889 218.613C298.193 218.613 290.333 220.268 290.333 222.309C290.333 224.35 298.193 226.005 307.889 226.005Z" fill="#B2001A"/>
<path d="M360.611 222.309C360.611 224.35 352.778 226.005 343.056 226.005C333.334 226.005 325.5 224.35 325.5 222.309C325.5 220.268 333.334 218.613 343.056 218.613C352.778 218.613 360.611 220.268 360.611 222.309Z" fill="#B2001A"/>
<path d="M343.056 239.741C341.612 241.23 336.5 238.472 331.611 233.673C326.722 228.874 324.056 223.743 325.5 222.309C326.945 220.875 332.056 223.633 336.611 228.432C341.167 233.232 344.5 238.307 343.056 239.741Z" fill="#B2001A"/>
<path d="M325.5 257.227C324.055 258.661 318.889 255.903 314.055 251.104C309.222 246.305 306.444 241.23 307.889 239.74C309.333 238.251 314.5 241.064 319.333 245.864C324.166 250.663 326.944 255.793 325.5 257.227Z" fill="#B2001A"/>
<path d="M307.889 239.741C306.445 241.23 301.334 238.472 296.778 233.673C292.222 228.874 289.166 223.743 290.611 222.309C292.055 220.875 297.167 223.633 302.055 228.432C306.944 233.232 309.389 238.307 307.889 239.741Z" fill="#B2001A"/>
<path d="M336.873 216.251C341.733 211.425 344.494 206.343 343.04 204.9C341.587 203.456 336.469 206.198 331.609 211.024C326.749 215.849 323.987 220.932 325.441 222.375C326.894 223.818 332.013 221.076 336.873 216.251Z" fill="#B2001A"/>
<path d="M319.323 198.764C324.183 193.938 326.944 188.856 325.491 187.413C324.037 185.97 318.919 188.711 314.059 193.537C309.199 198.363 306.438 203.444 307.892 204.888C309.345 206.331 314.463 203.589 319.323 198.764Z" fill="#B2001A"/>
<path d="M360.611 257.227C359.167 258.661 354.055 255.903 349.5 251.104C344.944 246.305 341.888 241.23 343.333 239.74C344.777 238.251 349.889 241.064 354.777 245.864C359.666 250.663 362.111 255.793 360.611 257.227Z" fill="#B2001A"/>
<path d="M354.428 198.77C359.288 193.944 362.049 188.862 360.595 187.419C359.142 185.975 354.024 188.717 349.164 193.543C344.304 198.368 341.543 203.45 342.996 204.894C344.45 206.337 349.568 203.595 354.428 198.77Z" fill="#B2001A"/>
<path d="M307.945 204.877C309.389 206.311 306.611 211.386 301.778 216.24C296.945 221.095 291.834 223.743 290.334 222.308C288.834 220.874 291.667 215.799 296.5 211C301.334 206.2 306.445 203.442 307.945 204.877Z" fill="#B2001A"/>
<path d="M286.111 259.324C286.111 261.365 280.556 263.02 273.667 263.02C266.778 263.02 261.222 261.365 261.222 259.324C261.222 257.283 266.778 255.628 273.667 255.628C280.556 255.628 286.111 257.283 286.111 259.324Z" fill="#B2001A"/>
<path d="M261.223 259.324C261.223 261.365 255.667 263.02 248.834 263.02C242 263.02 236.389 261.365 236.389 259.324C236.389 257.283 241.945 255.628 248.834 255.628C255.723 255.628 261.223 257.283 261.223 259.324Z" fill="#B2001A"/>
<path d="M211.722 259.324C211.722 261.365 206.167 263.02 199.278 263.02C192.389 263.02 186.833 261.365 186.833 259.324C186.833 257.283 192.389 255.628 199.278 255.628C206.167 255.628 211.722 257.283 211.722 259.324Z" fill="#B2001A"/>
<path d="M186.667 259.324C186.667 261.365 181.111 263.02 174.278 263.02C167.445 263.02 161.833 261.365 161.833 259.324C161.833 257.283 167.389 255.628 174.278 255.628C181.167 255.628 186.667 257.283 186.667 259.324Z" fill="#B2001A"/>
<path d="M161.722 259.324C161.722 261.365 156.167 263.02 149.334 263.02C142.5 263.02 136.889 261.365 136.889 259.324C136.889 257.283 142.445 255.628 149.334 255.628C156.222 255.628 161.722 257.283 161.722 259.324Z" fill="#B2001A"/>
<path d="M112.166 259.324C112.166 261.365 106.611 263.02 99.722 263.02C92.8331 263.02 87.2776 261.365 87.2776 259.324C87.2776 257.283 92.8331 255.628 99.722 255.628C106.611 255.628 112.166 257.283 112.166 259.324Z" fill="#B2001A"/>
<path d="M87.2778 259.324C87.2778 261.365 81.7223 263.02 74.889 263.02C68.0556 263.02 62.4446 261.365 62.4446 259.324C62.4446 257.283 68.0001 255.628 74.889 255.628C81.7779 255.628 87.2778 257.283 87.2778 259.324Z" fill="#B2001A"/>
<path d="M286.111 185.294C286.111 187.336 280.556 188.991 273.667 188.991C266.778 188.991 261.222 187.336 261.222 185.294C261.222 183.253 266.778 181.599 273.667 181.599C280.556 181.599 286.111 183.253 286.111 185.294Z" fill="#B2001A"/>
<path d="M261.223 185.294C261.223 187.336 255.667 188.991 248.834 188.991C242 188.991 236.389 187.336 236.389 185.294C236.389 183.253 241.945 181.599 248.834 181.599C255.723 181.599 261.223 183.253 261.223 185.294Z" fill="#B2001A"/>
<path d="M236.389 185.294C236.389 187.336 230.833 188.991 223.944 188.991C217.055 188.991 211.555 187.336 211.555 185.294C211.555 183.253 217.111 181.599 223.944 181.599C230.778 181.599 236.389 183.253 236.389 185.294Z" fill="#B2001A"/>
<path d="M211.722 185.294C211.722 187.336 206.167 188.991 199.278 188.991C192.389 188.991 186.833 187.336 186.833 185.294C186.833 183.253 192.389 181.599 199.278 181.599C206.167 181.599 211.722 183.253 211.722 185.294Z" fill="#B2001A"/>
<path d="M186.667 185.294C186.667 187.336 181.111 188.991 174.278 188.991C167.445 188.991 161.833 187.336 161.833 185.294C161.833 183.253 167.389 181.599 174.278 181.599C181.167 181.599 186.667 183.253 186.667 185.294Z" fill="#B2001A"/>
<path d="M161.722 185.294C161.722 187.336 156.167 188.991 149.334 188.991C142.5 188.991 136.889 187.336 136.889 185.294C136.889 183.253 142.445 181.599 149.334 181.599C156.222 181.599 161.722 183.253 161.722 185.294Z" fill="#B2001A"/>
<path d="M137 185.294C137 187.336 131.445 188.991 124.556 188.991C117.667 188.991 112.167 187.336 112.167 185.294C112.167 183.253 117.723 181.599 124.556 181.599C131.389 181.599 137 183.253 137 185.294Z" fill="#B2001A"/>
<path d="M236.389 259.323C238.444 259.323 240.111 264.84 240.111 271.68C240.111 278.52 238.444 284.037 236.389 284.037C234.333 284.037 232.667 278.52 232.667 271.68C232.667 264.84 234.333 259.323 236.389 259.323Z" fill="#B2001A"/>
<path d="M236.389 284.037C238.444 284.037 240.111 289.553 240.111 296.338C240.111 303.124 238.444 308.695 236.389 308.695C234.333 308.695 232.667 303.179 232.667 296.338C232.667 289.498 234.333 284.037 236.389 284.037Z" fill="#B2001A"/>
<path d="M236.389 308.695C238.444 308.695 240.111 314.212 240.111 320.997C240.111 327.782 238.444 333.353 236.389 333.353C234.333 333.353 232.667 327.837 232.667 320.997C232.667 314.156 234.333 308.695 236.389 308.695Z" fill="#B2001A"/>
<path d="M236.389 333.353C238.444 333.353 240.111 338.869 240.111 345.709C240.111 352.549 238.444 358.011 236.389 358.011C234.333 358.011 232.667 352.494 232.667 345.709C232.667 338.924 234.333 333.353 236.389 333.353Z" fill="#B2001A"/>
<path d="M236.389 358.011C238.444 358.011 240.111 363.527 240.111 370.367C240.111 377.208 238.444 382.724 236.389 382.724C234.333 382.724 232.667 377.208 232.667 370.367C232.667 363.527 234.333 358.011 236.389 358.011Z" fill="#B2001A"/>
<path d="M137 259.323C139.056 259.323 140.722 264.84 140.722 271.68C140.722 278.52 139.056 284.037 137 284.037C134.945 284.037 133.278 278.52 133.278 271.68C133.278 264.84 134.945 259.323 137 259.323Z" fill="#B2001A"/>
<path d="M137 284.037C139.056 284.037 140.722 289.553 140.722 296.338C140.722 303.124 139.056 308.695 137 308.695C134.945 308.695 133.278 303.179 133.278 296.338C133.278 289.498 134.945 284.037 137 284.037Z" fill="#B2001A"/>
<path d="M137 308.695C139.056 308.695 140.722 314.212 140.722 320.997C140.722 327.782 139.056 333.353 137 333.353C134.945 333.353 133.278 327.837 133.278 320.997C133.278 314.156 134.945 308.695 137 308.695Z" fill="#B2001A"/>
<path d="M137 333.353C139.056 333.353 140.722 338.869 140.722 345.709C140.722 352.549 139.056 358.011 137 358.011C134.945 358.011 133.278 352.494 133.278 345.709C133.278 338.924 134.945 333.353 137 333.353Z" fill="#B2001A"/>
<path d="M137 358.011C139.056 358.011 140.722 363.527 140.722 370.367C140.722 377.208 139.056 382.724 137 382.724C134.945 382.724 133.278 377.208 133.278 370.367C133.278 363.527 134.945 358.011 137 358.011Z" fill="#B2001A"/>
<path d="M211.722 259.323C213.778 259.323 215.445 264.84 215.445 271.68C215.445 278.52 213.778 284.037 211.722 284.037C209.667 284.037 208 278.52 208 271.68C208 264.84 209.5 259.323 211.722 259.323Z" fill="#B2001A"/>
<path d="M211.722 284.037C213.778 284.037 215.445 289.553 215.445 296.338C215.445 303.124 213.778 308.695 211.722 308.695C209.667 308.695 208 303.179 208 296.338C208 289.498 209.5 284.037 211.722 284.037Z" fill="#B2001A"/>
<path d="M211.722 308.695C213.778 308.695 215.445 314.212 215.445 320.997C215.445 327.782 213.778 333.353 211.722 333.353C209.667 333.353 208 327.837 208 320.997C208 314.156 209.5 308.695 211.722 308.695Z" fill="#B2001A"/>
<path d="M211.722 333.353C213.778 333.353 215.445 338.869 215.445 345.709C215.445 352.549 213.778 358.011 211.722 358.011C209.667 358.011 208 352.494 208 345.709C208 338.924 209.5 333.353 211.722 333.353Z" fill="#B2001A"/>
<path d="M186.722 358.011C188.778 358.011 190.445 363.527 190.445 370.367C190.445 377.208 188.778 382.724 186.722 382.724C184.667 382.724 183 377.208 183 370.367C183 363.527 184.667 358.011 186.722 358.011Z" fill="#B2001A"/>
<path d="M112.166 259.323C114.222 259.323 115.889 264.84 115.889 271.68C115.889 278.52 114.222 284.037 112.166 284.037C110.111 284.037 108.445 278.52 108.445 271.68C108.445 264.84 110.111 259.323 112.166 259.323Z" fill="#B2001A"/>
<path d="M112.166 284.037C114.222 284.037 115.889 289.553 115.889 296.338C115.889 303.124 114.222 308.695 112.166 308.695C110.111 308.695 108.445 303.179 108.445 296.338C108.445 289.498 110.111 284.037 112.166 284.037Z" fill="#B2001A"/>
<path d="M112.166 308.695C114.222 308.695 115.889 314.212 115.889 320.997C115.889 327.782 114.222 333.353 112.166 333.353C110.111 333.353 108.445 327.837 108.445 320.997C108.445 314.156 110.111 308.695 112.166 308.695Z" fill="#B2001A"/>
<path d="M112.166 333.353C114.222 333.353 115.889 338.869 115.889 345.709C115.889 352.549 114.222 358.011 112.166 358.011C110.111 358.011 108.445 352.494 108.445 345.709C108.445 338.924 110.111 333.353 112.166 333.353Z" fill="#B2001A"/>
<path d="M87.3333 358.011C89.3889 358.011 91.0558 363.527 91.0558 370.367C91.0558 377.208 89.3889 382.724 87.3333 382.724C85.2778 382.724 83.5559 377.208 83.5559 370.367C83.5559 363.527 85.2222 358.011 87.3333 358.011Z" fill="#B2001A"/>
<path d="M199.111 361.762C205.984 361.762 211.556 360.107 211.556 358.066C211.556 356.025 205.984 354.37 199.111 354.37C192.238 354.37 186.667 356.025 186.667 358.066C186.667 360.107 192.238 361.762 199.111 361.762Z" fill="#B2001A"/>
<path d="M99.7223 361.762C106.595 361.762 112.167 360.107 112.167 358.066C112.167 356.025 106.595 354.37 99.7223 354.37C92.8494 354.37 87.2778 356.025 87.2778 358.066C87.2778 360.107 92.8494 361.762 99.7223 361.762Z" fill="#B2001A"/>
<path d="M112.111 86.6064C114.166 86.6064 115.833 92.1227 115.833 98.963C115.833 105.803 114.166 111.265 112.111 111.265C110.055 111.265 108.389 105.748 108.389 98.963C108.389 92.1779 110.055 86.6064 112.111 86.6064Z" fill="#B2001A"/>
<path d="M112.111 111.265C114.166 111.265 115.833 116.781 115.833 123.621C115.833 130.461 114.166 135.978 112.111 135.978C110.055 135.978 108.389 130.461 108.389 123.621C108.389 116.781 110.055 111.265 112.111 111.265Z" fill="#B2001A"/>
<path d="M112.111 135.979C114.166 135.979 115.833 141.495 115.833 148.28C115.833 155.065 114.166 160.636 112.111 160.636C110.055 160.636 108.389 155.12 108.389 148.28C108.389 141.44 110.055 135.979 112.111 135.979Z" fill="#B2001A"/>
<path d="M112.111 160.636C114.166 160.636 115.833 166.152 115.833 172.992C115.833 179.833 114.166 185.294 112.111 185.294C110.055 185.294 108.389 179.778 108.389 172.992C108.389 166.207 110.055 160.636 112.111 160.636Z" fill="#B2001A"/>
<path d="M139.603 39.894C146.459 33.0865 150.838 26.3981 149.385 24.9548C147.931 23.5114 141.195 27.8595 134.339 34.667C127.483 41.4745 123.104 48.1633 124.558 49.6066C126.011 51.05 132.748 46.7014 139.603 39.894Z" fill="#B2001A"/>
<path d="M149.385 49.6069C150.839 48.1635 146.459 41.4752 139.603 34.6677C132.747 27.8602 126.011 23.5114 124.558 24.9548C123.104 26.3981 127.483 33.0869 134.339 39.8944C141.195 46.7019 147.931 51.0502 149.385 49.6069Z" fill="#B2001A"/>
<path d="M124.556 24.9337C126 26.368 121.611 33.0979 114.778 39.883C107.945 46.6681 101.167 50.9157 99.7221 49.5918C98.2776 48.2679 102.611 41.4827 109.5 34.6424C116.389 27.8021 123.111 23.4995 124.556 24.9337Z" fill="#B2001A"/>
<path d="M99.7218 49.5923C101.166 51.0817 99.7216 55.1085 96.1105 58.4183C92.4994 61.7281 88.7218 63.3831 87.2774 61.9488C85.8329 60.5146 87.2774 56.4325 90.833 53.1779C94.3886 49.9232 98.2218 48.3235 99.7218 49.5923Z" fill="#B2001A"/>
<path d="M99.7219 24.9343C101.166 23.5 107.889 27.8578 114.778 34.6429C121.667 41.428 125.889 48.1581 124.556 49.5923C123.222 51.0266 116.333 46.7238 109.5 39.8835C102.666 33.0432 98.2219 26.2582 99.7219 24.9343Z" fill="#B2001A"/>
<path d="M149.389 0.275782C150.833 1.71003 146.5 8.38476 139.611 15.225C132.722 22.0653 126 26.2578 124.556 24.9339C123.111 23.6099 127.499 16.7695 134.333 9.98444C141.166 3.19933 147.944 -1.32396 149.389 0.275782Z" fill="#B2001A"/>
<path d="M124.556 0.275528C126.001 -1.15872 132.778 3.14391 139.611 9.98418C146.445 16.8245 150.723 23.4994 149.389 24.9336C148.056 26.3679 141.222 22.0099 134.333 15.2248C127.444 8.43967 123.112 1.70978 124.556 0.275528Z" fill="#B2001A"/>
<path d="M114.738 15.2361C121.594 8.42863 125.973 1.73981 124.52 0.296453C123.066 -1.14691 116.33 3.20178 109.474 10.0093C102.618 16.8167 98.2391 23.505 99.6927 24.9483C101.146 26.3917 107.882 22.0436 114.738 15.2361Z" fill="#B2001A"/>
<path d="M99.7219 0.275528C101.166 -1.15872 107.889 3.14391 114.778 9.98418C121.667 16.8245 125.889 23.4994 124.556 24.9336C123.222 26.3679 116.333 22.0099 109.5 15.2248C102.666 8.43967 98.2219 1.70978 99.7219 0.275528Z" fill="#B2001A"/>
<path d="M25.1184 49.6508C26.5721 48.2075 22.1924 41.5191 15.3365 34.7116C8.48061 27.9041 1.74473 23.5553 0.291117 24.9987C-1.1625 26.4421 3.21673 33.1309 10.0726 39.9384C16.9285 46.7458 23.6648 51.0942 25.1184 49.6508Z" fill="#B2001A"/>
<path d="M15.3368 39.9379C22.1927 33.1304 26.5717 26.4421 25.1181 24.9987C23.6645 23.5554 16.9286 27.9034 10.0727 34.7109C3.21685 41.5184 -1.16262 48.2072 0.290997 49.6506C1.74462 51.094 8.48097 46.7454 15.3368 39.9379Z" fill="#B2001A"/>
<path d="M25.1667 24.9343C26.6111 23.5 33.3331 27.8578 40.222 34.6429C47.1109 41.428 51.3332 48.1581 49.9998 49.5923C48.6665 51.0266 41.7778 46.7238 34.9445 39.8835C28.1112 33.0432 23.7222 26.2582 25.1667 24.9343Z" fill="#B2001A"/>
<path d="M50 49.5916C51.4444 48.1574 55.5553 49.5916 58.8331 53.1772C62.1109 56.7628 63.8888 60.5139 62.4444 61.9482C60.9999 63.3824 56.8889 61.9481 53.5556 58.4176C50.2223 54.8872 48.5555 51.081 50 49.5916Z" fill="#B2001A"/>
<path d="M50.0003 24.9337C51.4447 26.368 47.0558 33.0979 40.2225 39.883C33.3891 46.6681 26.6116 50.9157 25.1671 49.5918C23.7227 48.2679 28.0561 41.4827 34.945 34.6424C41.8338 27.8021 48.5559 23.4995 50.0003 24.9337Z" fill="#B2001A"/>
<path d="M0.277683 0.275528C1.77768 -1.15872 8.50037 3.14391 15.3337 9.98418C22.167 16.8245 26.4449 23.4994 25.1671 24.9336C23.8894 26.3679 16.9445 22.0099 10.1111 15.2248C3.27779 8.43967 -1.16676 1.70978 0.277683 0.275528Z" fill="#B2001A"/>
<path d="M25.1666 0.275782C26.6111 1.71003 22.2221 8.38476 15.3332 15.225C8.44429 22.0653 1.77717 26.2578 0.277166 24.9339C-1.22283 23.6099 3.22172 16.7695 10.1106 9.98444C16.9995 3.19933 23.6666 -1.32396 25.1666 0.275782Z" fill="#B2001A"/>
<path d="M49.9124 24.9448C51.366 23.5014 46.9863 16.8131 40.1304 10.0056C33.2746 3.19809 26.5387 -1.15071 25.0851 0.292646C23.6314 1.736 28.0107 8.42482 34.8665 15.2323C41.7224 22.0398 48.4588 26.3881 49.9124 24.9448Z" fill="#B2001A"/>
<path d="M50.0003 0.275782C51.4447 1.71003 47.0558 8.38476 40.2225 15.225C33.3891 22.0653 26.6116 26.2578 25.1671 24.9339C23.7227 23.6099 28.0561 16.7695 34.945 9.98444C41.8338 3.19933 48.5559 -1.32396 50.0003 0.275782Z" fill="#B2001A"/>
</g>
<defs>
<clipPath id="clip0_1234_63077">
<rect width="361" height="383" fill="white"/>
</clipPath>
</defs>
</svg>
