<svg width="14" height="20" viewBox="0 0 14 20" fill="none" xmlns="http://www.w3.org/2000/svg">
<path d="M7.14852 4.00031C8.38165 3.98769 9.58821 4.36015 10.6014 5.06618C11.6145 5.7722 12.3842 6.77692 12.804 7.94138C13.6829 10.33 12.9314 13.0388 10.9661 14.6958C10.0934 15.4309 9.24741 16.2027 8.42815 16.9977C7.97488 17.4367 7.67503 18.0111 7.57328 18.6351C7.54657 18.7845 7.31415 18.9991 7.17613 19C7.0381 19.0009 6.79945 18.7881 6.77451 18.6423C6.63025 17.7811 6.13158 17.1372 5.53495 16.5729C4.75844 15.8378 3.9196 15.1698 3.13063 14.4455C1.29622 12.7517 0.682672 10.135 1.56693 7.85911C2.47612 5.52058 4.63378 4.02535 7.14852 4.00031ZM9.32577 9.99911C9.32577 9.42609 9.0991 8.87654 8.69563 8.47136C8.29216 8.06617 7.74494 7.83854 7.17434 7.83854C6.60375 7.83854 6.05653 8.06617 5.65306 8.47136C5.24959 8.87654 5.02292 9.42609 5.02292 9.99911C5.02292 11.2225 5.95883 12.1615 7.19393 12.1704C7.47625 12.1697 7.75564 12.1129 8.01595 12.0031C8.27627 11.8934 8.51235 11.7329 8.71057 11.5311C8.90878 11.3292 9.06521 11.0898 9.1708 10.8269C9.27639 10.564 9.32906 10.2826 9.32577 9.99911Z" fill="#858585"/>
</svg>
