<svg width="210" height="210" viewBox="0 0 210 210" fill="none" xmlns="http://www.w3.org/2000/svg">
<g clip-path="url(#clip0_1397_35803)">
<path d="M118.26 120.635C118.533 119.518 119.206 118.539 120.152 117.881C121.098 117.223 122.252 116.932 123.398 117.062C124.438 117.089 125.433 117.491 126.2 118.193C126.966 118.894 127.451 119.849 127.566 120.88C127.615 121.582 127.486 122.284 127.19 122.922C126.895 123.56 126.442 124.113 125.874 124.53C125.338 124.932 124.719 125.209 124.061 125.342C123.404 125.474 122.725 125.459 122.075 125.297C121.137 125.061 120.285 124.564 119.621 123.863C118.956 123.162 118.505 122.287 118.321 121.341L118.26 120.635Z" fill="#DE923E"/>
<path d="M118.644 120.742C118.843 119.888 119.302 119.117 119.957 118.532C120.612 117.948 121.432 117.579 122.305 117.476C122.933 117.38 123.575 117.416 124.189 117.579C124.803 117.743 125.376 118.031 125.873 118.426C126.463 119.001 126.879 119.729 127.073 120.527C127.197 120.987 127.214 121.469 127.123 121.937C127.033 122.404 126.837 122.845 126.55 123.226C126.002 124.032 125.185 124.618 124.244 124.879C123.303 125.14 122.3 125.06 121.412 124.652C120.507 124.247 119.749 123.572 119.244 122.72C118.891 122.078 118.687 121.365 118.644 120.635C118.644 120.144 117.813 120.144 117.859 120.635C117.908 121.416 118.106 122.182 118.444 122.889C118.928 123.805 119.657 124.57 120.551 125.097C121.51 125.685 122.639 125.932 123.756 125.798C124.873 125.665 125.912 125.158 126.704 124.361C127.505 123.568 127.987 122.509 128.058 121.386C128.021 120.347 127.673 119.343 127.058 118.503C126.58 117.909 125.969 117.433 125.275 117.114C124.581 116.794 123.822 116.64 123.058 116.663C121.889 116.629 120.742 116.995 119.81 117.701C118.878 118.407 118.217 119.41 117.936 120.543C117.782 121.033 118.536 121.233 118.644 120.742Z" fill="#DE923E"/>
<path d="M119.167 120.896C119.349 120.25 119.691 119.66 120.161 119.181C120.632 118.702 121.217 118.349 121.861 118.154C122.505 117.96 123.188 117.931 123.847 118.07C124.505 118.209 125.118 118.511 125.628 118.949C125.927 119.235 126.167 119.577 126.333 119.955C126.5 120.333 126.59 120.74 126.598 121.153C126.607 121.567 126.534 121.977 126.383 122.362C126.232 122.747 126.007 123.098 125.72 123.396C125.079 124.034 124.226 124.416 123.322 124.469C122.418 124.523 121.525 124.245 120.813 123.687C120.121 123.167 119.613 122.441 119.361 121.615C119.11 120.788 119.128 119.903 119.413 119.087C120.075 117.287 121.371 115.788 123.059 114.87C124.603 113.981 126.368 113.545 128.15 113.612C130.354 113.578 132.511 114.25 134.303 115.529C135.487 116.478 136.441 117.681 137.094 119.048C137.746 120.416 138.081 121.912 138.072 123.427C138.141 125.253 137.662 127.058 136.698 128.612C135.734 130.166 134.327 131.398 132.657 132.152C131.046 132.755 129.26 132.7 127.689 131.999C126.036 131.055 124.211 130.451 122.32 130.22C121.453 130.212 120.593 130.386 119.798 130.732C119.002 131.079 118.289 131.589 117.706 132.229C116.614 133.395 115.906 134.867 114.753 135.986C114.081 136.636 113.193 137.019 112.258 137.061C111.323 137.104 110.404 136.803 109.676 136.216C108.01 134.753 106.893 132.768 106.508 130.588C106.424 130.366 106.259 130.184 106.047 130.076C105.835 129.969 105.59 129.945 105.361 130.008C105.131 130.071 104.934 130.218 104.808 130.419C104.681 130.62 104.635 130.861 104.677 131.094C105.171 133.355 106.266 135.442 107.846 137.136C108.594 137.872 109.516 138.409 110.526 138.698C111.537 138.988 112.604 139.02 113.63 138.793C117.475 137.734 118.014 132.183 122.244 132.091C124.705 132.091 126.72 133.962 129.119 134.361C131.162 134.669 133.248 134.233 134.996 133.134C136.616 131.992 137.926 130.465 138.808 128.693C139.689 126.92 140.115 124.957 140.046 122.98C139.978 121.003 139.417 119.073 138.414 117.366C137.412 115.658 135.999 114.226 134.303 113.198C131.801 111.873 128.935 111.394 126.135 111.833C124.599 112.043 123.126 112.579 121.815 113.404C120.505 114.229 119.386 115.325 118.537 116.618C117.927 117.507 117.548 118.533 117.435 119.604C117.323 120.674 117.479 121.756 117.89 122.752C118.293 123.645 118.912 124.424 119.69 125.021C120.468 125.617 121.383 126.013 122.351 126.172C123.521 126.362 124.721 126.165 125.768 125.611C126.815 125.057 127.652 124.177 128.15 123.105C128.566 122.113 128.658 121.016 128.412 119.97C128.166 118.924 127.596 117.982 126.781 117.277C126.021 116.672 125.122 116.263 124.164 116.087C123.207 115.912 122.221 115.974 121.294 116.27C120.367 116.566 119.527 117.086 118.85 117.784C118.174 118.481 117.68 119.334 117.414 120.268C117.152 121.449 118.952 121.955 119.229 120.774L119.167 120.896Z" fill="#DE923E"/>
<path d="M151.116 114.087C151.378 114.935 151.857 115.701 152.506 116.309C153.155 116.917 153.952 117.346 154.817 117.555C155.683 117.764 156.588 117.745 157.443 117.499C158.299 117.254 159.077 116.792 159.699 116.157C160.305 115.5 160.723 114.694 160.91 113.821C161.097 112.949 161.047 112.042 160.765 111.196C160.482 110.35 159.978 109.594 159.303 109.007C158.629 108.421 157.81 108.025 156.93 107.861C152.731 107.171 150.131 111.204 150.777 114.976C151.192 116.877 152.253 118.576 153.781 119.786C155.309 120.997 157.21 121.643 159.161 121.616C161.147 121.582 163.08 120.968 164.72 119.85C166.36 118.733 167.636 117.161 168.39 115.329C169.182 113.415 169.423 111.32 169.086 109.277C168.749 107.235 167.847 105.326 166.483 103.766C165.122 102.377 163.467 101.309 161.638 100.641C159.81 99.972 157.854 99.7195 155.915 99.9017C153.029 100.054 150.232 100.947 147.793 102.493C141.64 106.634 138.287 114.179 137.856 121.401C137.779 122.598 139.671 122.598 139.748 121.401C140.302 111.955 146.901 101.113 157.576 101.788C159.096 101.803 160.594 102.146 161.967 102.795C163.34 103.444 164.555 104.382 165.529 105.545C166.558 106.917 167.183 108.549 167.332 110.255C167.482 111.962 167.15 113.677 166.375 115.206C165.667 116.618 164.563 117.795 163.198 118.595C161.834 119.395 160.266 119.784 158.684 119.715C157.1 119.647 155.597 118.999 154.462 117.896C153.327 116.792 152.639 115.311 152.531 113.734C152.456 112.871 152.674 112.008 153.152 111.285C153.629 110.561 154.337 110.02 155.161 109.747C155.973 109.537 156.835 109.656 157.559 110.079C158.283 110.501 158.809 111.192 159.022 112.001C159.128 112.396 159.154 112.808 159.098 113.213C159.042 113.618 158.905 114.007 158.696 114.359C158.487 114.71 158.209 115.016 157.879 115.259C157.55 115.502 157.175 115.677 156.776 115.774C155.972 115.972 155.121 115.857 154.399 115.452C153.676 115.048 153.134 114.384 152.885 113.596C152.516 112.446 150.701 112.936 151.07 114.087H151.116Z" fill="#DE923E"/>
<path d="M159.514 120.742C158.582 120.411 157.57 120.38 156.62 120.656C155.67 120.931 154.831 121.498 154.223 122.275C153.546 123.195 153.192 124.422 152.192 125.005C151.208 125.361 150.162 125.517 149.116 125.465C147.831 125.63 146.653 126.264 145.809 127.244C144.989 128.236 144.582 129.504 144.67 130.786C144.138 129.255 144.05 127.604 144.418 126.025C144.785 124.446 145.592 123.003 146.747 121.861C147.948 120.75 149.435 119.991 151.042 119.669C152.649 119.347 154.314 119.474 155.853 120.036L159.514 120.742Z" fill="#DE923E"/>
<path d="M159.607 120.375C158.476 119.956 157.231 119.957 156.1 120.38C154.97 120.802 154.031 121.617 153.455 122.675C152.962 123.503 152.562 124.515 151.578 124.868C150.614 125.055 149.636 125.157 148.655 125.174C147.795 125.314 146.982 125.662 146.286 126.187C145.58 126.721 145.016 127.42 144.644 128.222C144.271 129.024 144.101 129.904 144.148 130.787L144.917 130.68C144.538 129.594 144.395 128.44 144.497 127.294C144.598 126.149 144.942 125.038 145.506 124.035C146.07 123.032 146.842 122.16 147.769 121.476C148.696 120.792 149.759 120.312 150.886 120.068C152.023 119.838 153.194 119.838 154.331 120.068C154.931 120.191 155.5 120.421 156.116 120.528L159.33 121.111C159.838 121.111 160.038 120.436 159.546 120.344L156.716 119.838C155.495 119.505 154.25 119.264 152.993 119.117C151.538 119.046 150.088 119.332 148.77 119.95C147.452 120.569 146.307 121.501 145.435 122.664C144.563 123.827 143.991 125.186 143.769 126.621C143.548 128.056 143.683 129.524 144.164 130.894C144.302 131.293 144.948 131.262 144.933 130.802C144.865 129.896 145.069 128.989 145.518 128.198C145.967 127.406 146.641 126.765 147.455 126.355C148.285 125.98 149.19 125.796 150.101 125.819C150.866 125.846 151.626 125.688 152.316 125.359C153.593 124.607 153.854 123.028 154.885 122.031C155.47 121.486 156.194 121.112 156.978 120.95C157.762 120.788 158.576 120.843 159.33 121.111C159.884 121.295 160.084 120.543 159.607 120.375Z" fill="#DE923E"/>
<path d="M167.498 106.94C168.305 105.717 169.233 104.577 170.267 103.536C170.66 102.383 170.883 101.18 170.928 99.9629C171.273 98.877 171.849 97.8779 172.616 97.0337C173.383 96.1896 174.324 95.5201 175.374 95.071C177.419 94.0435 179.68 93.5374 181.788 92.6327C183.895 91.7279 186.741 88.9983 188.418 83.9224C188.045 87.7227 187.166 91.4564 185.803 95.0249C184.41 98.6255 181.645 101.531 178.111 103.107C176.312 103.797 174.358 103.996 172.512 104.64C171.573 104.86 170.691 105.272 169.92 105.85C169.149 106.428 168.508 107.16 168.036 107.998L167.498 106.94Z" fill="#DE923E"/>
<path d="M167.836 107.186C168.599 106.094 169.453 105.068 170.389 104.119C170.986 102.996 171.282 101.739 171.251 100.469C171.851 96.9878 175.527 95.3777 178.496 94.3349C180.761 93.7615 182.865 92.6811 184.649 91.1758C186.557 89.1754 187.974 86.7606 188.787 84.1217L188.033 83.907C187.187 89.7496 186.218 96.175 181.68 100.407C180.705 101.322 179.588 102.073 178.373 102.631C176.878 103.199 175.333 103.625 173.758 103.904C171.358 104.471 168.805 105.437 167.605 107.83H168.282L167.821 106.833C167.621 106.373 166.928 106.833 167.144 107.216L167.605 108.213C167.638 108.274 167.687 108.325 167.747 108.36C167.806 108.396 167.874 108.414 167.944 108.414C168.013 108.414 168.081 108.396 168.141 108.36C168.2 108.325 168.249 108.274 168.282 108.213C169.713 105.299 173.22 104.87 175.973 104.18C178.58 103.607 180.954 102.266 182.787 100.331C186.91 95.945 187.894 89.8417 188.71 84.1217C188.717 84.03 188.692 83.9386 188.639 83.8631C188.587 83.7875 188.51 83.7325 188.421 83.7072C188.332 83.682 188.237 83.6881 188.153 83.7245C188.068 83.7609 187.998 83.8253 187.956 83.907C187.13 86.6346 185.609 89.1022 183.541 91.0685C181.449 92.8934 178.557 93.3074 176.065 94.3808C173.574 95.4543 171.082 97.2178 170.451 99.9475C170.159 101.251 170.451 102.754 169.513 103.797C168.575 104.716 167.753 105.746 167.067 106.864C166.928 107.247 167.605 107.646 167.836 107.186Z" fill="#DE923E"/>
<path d="M138.917 125.098C138.696 126.698 138.14 128.233 137.287 129.606C136.444 130.988 135.21 132.091 133.74 132.775C132.271 133.46 130.631 133.697 129.027 133.455C127.539 133.03 126.1 132.449 124.735 131.722C123.318 131.099 121.715 131.044 120.259 131.569C117.351 132.658 116.69 136.492 113.86 137.703C112.883 138.043 111.828 138.087 110.826 137.831C109.824 137.574 108.921 137.028 108.23 136.262L107.968 135.97C111.398 140.019 117.198 139.911 121.336 139.528C124.809 139.26 128.183 138.245 131.226 136.553C134.21 134.805 138.533 130.204 138.917 125.527V125.098Z" fill="#DE923E"/>
<path d="M138.549 124.991C138.384 126.43 137.903 127.815 137.14 129.048C136.377 130.28 135.351 131.33 134.134 132.121C133.016 132.801 131.736 133.172 130.427 133.195C128.975 133.125 127.559 132.72 126.289 132.014C124.089 130.971 121.674 130.22 119.398 131.554C117.629 132.566 116.798 134.514 115.491 136.001C115.047 136.584 114.46 137.043 113.786 137.333C113.112 137.623 112.375 137.735 111.645 137.657C110.32 137.451 109.113 136.776 108.246 135.756C107.892 135.372 107.354 135.925 107.692 136.308C111.03 140.111 116.383 140.433 121.105 140.004C126.827 139.482 132.242 137.489 135.949 132.95C137.863 130.788 139.037 128.076 139.302 125.205C139.379 124.715 138.626 124.5 138.549 124.991C138.431 125.976 138.236 126.95 137.964 127.904C137.505 129.195 136.863 130.414 136.057 131.523C134.694 133.488 132.927 135.14 130.873 136.369C126.199 138.869 120.866 139.876 115.598 139.252C112.794 139.05 110.168 137.801 108.246 135.756L107.692 136.308C108.411 137.2 109.381 137.856 110.478 138.192C111.575 138.529 112.748 138.529 113.845 138.194C116.045 137.335 116.921 135.127 118.46 133.41C118.917 132.856 119.489 132.407 120.137 132.095C120.785 131.782 121.493 131.614 122.213 131.6C123.895 131.759 125.523 132.282 126.981 133.134C128.134 133.673 129.399 133.933 130.672 133.89C131.945 133.847 133.189 133.504 134.303 132.888C135.672 132.077 136.838 130.965 137.709 129.636C138.581 128.307 139.137 126.796 139.333 125.221C139.379 124.715 138.626 124.5 138.549 124.991Z" fill="#DE923E"/>
<path d="M152.024 113.842C152.268 114.676 152.77 115.413 153.458 115.947C154.146 116.481 154.985 116.786 155.856 116.818C156.728 116.85 157.587 116.608 158.313 116.127C159.039 115.645 159.594 114.947 159.9 114.133C160.177 113.318 160.193 112.437 159.945 111.612C159.697 110.788 159.197 110.061 158.515 109.533C157.809 109.023 156.965 108.74 156.094 108.721C155.223 108.702 154.367 108.948 153.639 109.425C152.977 109.926 152.447 110.58 152.096 111.331C151.745 112.082 151.583 112.907 151.624 113.734L152.024 113.842Z" fill="#DE923E"/>
<path d="M151.654 113.948C151.935 114.794 152.457 115.539 153.155 116.095C153.854 116.651 154.699 116.993 155.588 117.079C156.477 117.165 157.373 116.991 158.165 116.58C158.958 116.169 159.613 115.537 160.053 114.761C160.433 113.959 160.573 113.066 160.455 112.187C160.338 111.308 159.968 110.482 159.391 109.808C158.759 109.12 157.932 108.641 157.02 108.432C156.108 108.224 155.154 108.297 154.284 108.642C153.319 109.086 152.51 109.809 151.961 110.716C151.413 111.624 151.15 112.675 151.208 113.733C151.211 113.818 151.241 113.899 151.294 113.965C151.346 114.031 151.419 114.079 151.5 114.101L151.9 114.224C151.997 114.238 152.096 114.215 152.178 114.161C152.259 114.107 152.318 114.024 152.343 113.93C152.368 113.835 152.357 113.735 152.312 113.647C152.267 113.56 152.192 113.493 152.1 113.457L151.7 113.35L151.992 113.733C151.943 112.944 152.098 112.156 152.443 111.444C152.787 110.733 153.311 110.121 153.961 109.67C154.622 109.267 155.388 109.071 156.161 109.107C156.934 109.143 157.678 109.408 158.299 109.869C158.871 110.332 159.296 110.952 159.52 111.652C159.744 112.352 159.758 113.102 159.56 113.81C159.319 114.576 158.836 115.244 158.184 115.715C157.532 116.187 156.746 116.437 155.94 116.428C155.135 116.42 154.354 116.153 153.712 115.668C153.07 115.182 152.602 114.504 152.377 113.733C152.269 113.258 151.5 113.457 151.654 113.948Z" fill="#DE923E"/>
<path d="M104.923 130.664C106.832 130.879 108.766 130.67 110.584 130.051C111.409 129.724 112.13 129.18 112.672 128.479C113.213 127.777 113.555 126.943 113.66 126.064C113.651 125.103 113.328 124.171 112.739 123.41C112.151 122.649 111.329 122.1 110.399 121.847C108.668 122.654 106.781 123.073 104.869 123.073C102.958 123.073 101.07 122.654 99.3396 121.847C98.4114 122.101 97.5919 122.65 97.0059 123.412C96.42 124.173 96.0998 125.104 96.0939 126.064C96.1997 126.943 96.5413 127.777 97.0827 128.479C97.6242 129.18 98.3453 129.724 99.1704 130.051C101.017 130.685 102.984 130.894 104.923 130.664Z" fill="#DE923E"/>
<path d="M104.923 131.048C107.072 131.341 109.261 131.033 111.245 130.158C112.127 129.736 112.866 129.065 113.369 128.228C113.872 127.391 114.118 126.425 114.075 125.45C113.938 124.541 113.546 123.689 112.944 122.992C112.343 122.295 111.557 121.781 110.676 121.509C109.657 121.236 108.587 121.204 107.553 121.417C106.519 121.63 105.55 122.082 104.723 122.736H105.123C104.309 122.096 103.36 121.65 102.347 121.429C101.335 121.209 100.285 121.22 99.2778 121.463C98.3541 121.697 97.5258 122.211 96.9068 122.934C96.2878 123.656 95.9084 124.552 95.8207 125.499C95.733 126.445 95.9415 127.395 96.4173 128.218C96.8931 129.041 97.6128 129.698 98.4779 130.097C100.49 131.023 102.728 131.353 104.923 131.048C105.415 131.048 105.431 130.235 104.923 130.266C103.221 130.447 101.5 130.311 99.8469 129.867C98.9643 129.616 98.1769 129.108 97.585 128.409C96.9932 127.71 96.6239 126.851 96.5245 125.941C96.5616 125.068 96.8814 124.23 97.4359 123.552C97.9905 122.875 98.75 122.395 99.6009 122.184C100.49 122 101.409 122.015 102.292 122.227C103.175 122.439 104 122.843 104.708 123.411C104.767 123.449 104.837 123.469 104.908 123.469C104.979 123.469 105.048 123.449 105.108 123.411C105.796 122.857 106.597 122.459 107.454 122.242C108.312 122.025 109.206 121.994 110.076 122.153C110.956 122.342 111.749 122.816 112.331 123.501C112.912 124.186 113.25 125.044 113.291 125.941C113.193 126.825 112.841 127.663 112.276 128.351C111.711 129.04 110.957 129.55 110.107 129.821C108.421 130.312 106.653 130.464 104.908 130.266C104.415 130.235 104.415 131.017 104.923 131.048Z" fill="#DE923E"/>
<path d="M183.849 78.0794C180.496 80.9777 177.004 83.9373 172.744 85.2561C168.483 86.575 164.053 86.1916 160.192 88.0625C154.316 90.9148 151.485 98.2449 145.302 100.331C139.826 102.217 133.796 99.2724 128.027 99.9164C120.336 100.775 113.076 108.289 104.954 108.289C96.8323 108.289 89.5719 100.775 81.8808 99.9164C76.0971 99.2724 70.0826 102.217 64.5912 100.331C58.4383 98.1989 55.5771 90.8688 49.7165 88.0625C45.8556 86.1916 41.2562 86.5289 37.1491 85.2561C33.0421 83.9833 29.4581 80.9777 26.0432 78.0794L6.04633 60.9194C8.63054 68.0349 8.72282 75.5951 9.87649 83.0019C10.0375 85.2624 10.7676 87.446 11.9992 89.3507C13.3067 91.0682 15.3679 92.0803 16.7677 93.7211C19.8441 97.3248 19.2135 103.121 22.5206 106.557C25.0741 109.21 29.4734 109.792 31.5962 112.798C33.1344 115.098 33.1344 118.303 34.9034 120.465C37.0415 123.026 40.9026 123.118 44.0251 124.345C45.5104 124.7 46.8357 125.536 47.7937 126.722C49.9472 130.571 49.7011 134.298 54.7311 135.923C58.4075 137.135 62.8837 135.386 66.0986 137.533C68.5905 139.19 69.5442 142.747 72.3745 143.775C75.2048 144.802 78.6659 142.241 81.9116 142.563C85.1572 142.885 87.3876 145.63 90.1564 147.363C92.511 148.654 95.2211 149.151 97.8823 148.781C100.544 148.41 103.013 147.192 104.923 145.308C106.796 147.19 109.235 148.41 111.868 148.781C114.501 149.152 117.183 148.654 119.506 147.363C122.259 145.707 124.52 142.763 127.735 142.563C130.95 142.364 134.227 144.864 137.288 143.775C140.103 142.747 141.056 139.174 143.548 137.533C146.763 135.386 151.239 137.135 154.931 135.923C159.961 134.282 159.699 130.556 161.853 126.722C162.813 125.539 164.138 124.703 165.622 124.345C168.698 123.118 172.621 123.026 174.759 120.465C176.558 118.303 176.451 115.098 178.066 112.798C180.189 109.731 184.572 109.21 187.141 106.557C190.433 103.121 189.787 97.3555 192.879 93.7211C194.294 92.0803 196.355 91.0682 197.663 89.3507C198.888 87.4428 199.617 85.261 199.786 83.0019C200.939 75.5951 201.032 68.0349 203.616 60.9194L183.849 78.0794ZM172.436 115.083C159.525 127.54 143.643 136.512 126.289 141.152C119.86 142.87 111.261 143.499 104.754 141.75C98.3244 143.499 89.895 142.87 83.4652 141.152C66.1142 136.505 50.2341 127.534 37.3185 115.083C24.5513 102.815 13.7066 86.4369 10.2302 68.5716C15.9079 74.8884 22.3691 80.4589 29.458 85.1488C37.0261 90.1787 47.0708 93.4144 53.4545 98.1069C60.3918 103.229 69.1289 105.667 77.6353 107.308C83.1575 108.335 88.8951 108.458 94.1558 110.375C99.4165 112.292 104.662 117.291 104.77 122.812C104.877 117.291 110.123 112.307 115.383 110.375C120.644 108.443 126.382 108.32 131.888 107.308C140.395 105.698 149.132 103.259 156.069 98.1069C162.453 93.4144 172.497 90.1787 180.081 85.1488C187.236 80.4788 193.764 74.9185 199.509 68.6023C196.048 86.437 185.203 102.738 172.436 115.083V115.083Z" fill="#DE923E"/>
<path d="M183.572 77.8041C181 80.2106 178.125 82.2726 175.019 83.9381C171.712 85.4716 168.128 85.6709 164.59 86.315C161.638 86.7732 158.875 88.0545 156.622 90.0108C154.545 91.8357 152.853 94.0132 150.931 95.9761C148.971 98.2297 146.332 99.7901 143.409 100.423C139.825 101.021 136.194 100.04 132.641 99.6412C129.571 99.2311 126.447 99.5894 123.55 100.684C120.746 101.857 118.014 103.193 115.367 104.686C112.606 106.274 109.577 107.344 106.43 107.845C103.294 108.046 100.162 107.411 97.3543 106.005C91.9859 103.598 86.8637 99.6719 80.7724 99.4725C77.1883 99.3498 73.7119 100.347 70.1586 100.561C66.8347 100.893 63.5149 99.8942 60.9293 97.7857C56.6992 94.32 53.9611 89.106 48.6235 87.1432C45.3009 85.9317 41.686 85.993 38.2865 85.1343C34.8182 84.1175 31.619 82.3473 28.9188 79.951C22.7659 74.9978 16.9976 69.7225 11.06 64.616L6.44535 60.6442C6.16847 60.4141 5.64558 60.6442 5.78402 61.0275C7.95291 67.1615 8.38354 73.5409 9.16803 79.8896C9.32936 82.6733 9.90477 85.4175 10.8754 88.0325C12.0137 90.5168 14.3671 91.6823 16.1976 93.5378C19.7202 97.1109 18.8434 102.923 22.1659 106.634C23.8426 108.166 25.7738 109.396 27.8729 110.268C28.9724 110.793 29.9758 111.498 30.8415 112.354C31.7458 113.428 32.3835 114.699 32.7029 116.065C33.3951 118.35 34.0565 120.573 36.1331 121.969C38.1959 123.057 40.4096 123.832 42.7014 124.269C43.9705 124.628 45.1899 125.144 46.3315 125.803C47.4017 126.591 48.1761 127.714 48.5311 128.992C49.0874 130.776 49.9176 132.462 50.9922 133.992C52.4939 135.632 54.5694 136.637 56.7913 136.798C59.4986 137.074 62.4366 136.369 65.0208 137.411C67.282 138.331 68.3126 140.616 69.8354 142.365C70.5052 143.187 71.3892 143.809 72.3905 144.164C73.3917 144.518 74.4717 144.591 75.5116 144.373C78.1727 143.913 80.7416 142.395 83.4643 143.361C86.1869 144.328 87.7559 146.352 89.9555 147.701C91.8994 148.809 94.0999 149.392 96.3392 149.392C98.5785 149.392 100.779 148.809 102.723 147.701C103.683 147.156 104.559 146.474 105.322 145.677H104.753C106.335 147.253 108.305 148.385 110.466 148.958C112.627 149.532 114.901 149.527 117.059 148.943C119.333 148.146 121.424 146.905 123.212 145.294C124.206 144.449 125.341 143.785 126.565 143.331C127.952 142.932 129.427 142.964 130.795 143.423C133.072 144.036 135.502 145.125 137.84 144.113C139.84 143.239 140.917 141.199 142.194 139.512C142.969 138.464 144.04 137.668 145.27 137.227C146.604 136.849 147.993 136.699 149.377 136.783C151.858 137.035 154.363 136.672 156.668 135.725C158.383 134.789 159.704 133.271 160.391 131.446C161.237 129.483 161.729 126.846 163.713 125.665C167.666 123.426 173.742 123.993 176.019 119.423C177.188 117.077 177.234 114.209 179.095 112.262C180.772 110.56 183.141 109.793 185.156 108.597C187.079 107.515 188.58 105.819 189.417 103.782C190.355 101.558 190.709 99.1811 191.57 96.9268C192.022 95.6671 192.729 94.5136 193.647 93.5378C194.601 92.5871 195.724 91.8357 196.723 90.9616C198.591 89.1706 199.767 86.7822 200.046 84.2141C201.107 78.0801 201.292 71.7467 202.707 65.628C203.059 64.069 203.506 62.5326 204.045 61.0275C204.184 60.6288 203.661 60.4141 203.384 60.6442L183.572 77.8041C183.187 78.1261 183.756 78.6781 184.141 78.3561L204.138 61.1962L203.476 60.8128C201.43 66.5481 200.923 72.6209 200.215 78.6169C200.084 81.5645 199.567 84.4824 198.677 87.2965C197.569 90.0261 195.016 91.1609 193.109 93.2158C189.832 96.7582 190.555 102.202 187.54 105.867C184.525 109.532 179.203 109.502 177.265 114.01C176.265 116.356 176.111 119.224 174.004 120.957C171.897 122.69 169.466 122.828 167.174 123.518C165.19 124.116 162.744 124.837 161.698 126.769C160.652 128.701 160.252 130.511 159.283 132.259C158.679 133.296 157.832 134.171 156.814 134.809C155.795 135.448 154.637 135.83 153.438 135.924C150.946 136.231 148.408 135.725 145.931 136.277C143.89 136.846 142.142 138.167 141.04 139.972C139.502 141.997 138.071 143.929 135.256 143.637C132.441 143.346 129.949 141.69 127.088 142.334C124.227 142.978 122.474 145.079 120.351 146.566C118.081 148.064 115.361 148.73 112.653 148.45C109.946 148.17 107.42 146.963 105.507 145.033C105.43 144.961 105.328 144.92 105.222 144.92C105.117 144.92 105.015 144.961 104.938 145.033C103.224 146.737 101.034 147.885 98.6544 148.328C96.2751 148.772 93.8169 148.489 91.6013 147.517C89.3709 146.49 87.6942 144.634 85.6176 143.361C84.6479 142.771 83.5623 142.396 82.4343 142.261C81.3064 142.126 80.1624 142.235 79.0802 142.579C76.5575 143.254 73.7734 144.512 71.4661 142.579C69.7894 141.214 68.928 139.098 67.2975 137.687C63.3135 134.252 57.4528 137.411 53.1612 134.62C49.5617 132.259 50.3 126.677 46.4083 124.76C44.2195 123.829 41.9553 123.085 39.6401 122.536C38.4153 122.231 37.2646 121.683 36.2561 120.926C35.2549 120.029 34.5341 118.863 34.1795 117.568C33.4412 115.344 32.995 113.059 31.2107 111.434C29.4448 110.102 27.536 108.971 25.5193 108.06C23.3201 106.887 21.6651 104.908 20.9047 102.54C20.1509 100.362 19.7664 98.0923 18.8435 95.9914C17.7306 93.8718 16.1146 92.0555 14.1365 90.7008C12.9873 89.8038 12.0829 88.6331 11.5062 87.2965C11.0496 86.0253 10.7299 84.7093 10.5525 83.3707C9.58339 77.344 9.36794 71.1947 7.95277 65.2447C7.59947 63.7461 7.16823 62.2668 6.66072 60.8128L5.9992 61.1962L24.7348 77.3287C27.3025 79.7217 30.0827 81.8775 33.0413 83.7694C36.0917 85.4119 39.4473 86.414 42.9012 86.7137C46.3148 86.9539 49.5924 88.144 52.3613 90.1488C54.4641 92.0708 56.447 94.1193 58.2988 96.2828C60.0534 98.3283 62.289 99.9088 64.8056 100.883C68.0974 101.957 71.5891 101.359 74.9271 100.883C78.3268 100.166 81.8489 100.266 85.2023 101.175C88.2517 102.318 91.2002 103.713 94.0165 105.346C96.6315 106.828 99.4509 107.918 102.384 108.582C105.314 109.06 108.319 108.731 111.075 107.631C116.844 105.499 121.997 101.083 128.257 100.439C134.933 99.7485 141.84 103.506 148.039 99.6105C152.807 96.5435 155.376 90.8849 160.591 88.4466C163.929 86.9131 167.728 86.9131 171.266 86.177C174.61 85.3451 177.722 83.7726 180.372 81.5765C181.695 80.5644 182.941 79.491 184.202 78.4175C184.51 78.0341 183.956 77.482 183.572 77.8041Z" fill="#DE923E"/>
<path d="M172.159 114.807C162.504 124.114 151.154 131.495 138.718 136.552C132.664 139.187 126.286 141.012 119.752 141.981C116.437 142.418 113.083 142.479 109.754 142.165C108.954 142.088 108.215 141.996 107.369 141.858C106.598 141.628 105.812 141.454 105.016 141.337C104.435 141.386 103.861 141.505 103.308 141.69C102.416 141.874 101.493 142.012 100.586 142.119C93.8823 142.729 87.1247 141.967 80.7273 139.88C74.2976 137.959 68.0693 135.422 62.1301 132.304C50.3771 126.123 39.8901 117.801 31.2118 107.768C22.2667 97.8346 15.6794 86.021 11.9381 73.2033C11.5227 71.6698 11.1534 70.1362 10.8458 68.4647L10.1845 68.8328C15.3026 74.5182 21.0513 79.6061 27.3203 83.9991C33.3501 88.2162 40.0566 91.0226 46.5941 94.335C48.04 95.0711 49.486 95.8685 50.8704 96.6966C52.2548 97.5247 53.7007 98.6288 55.1313 99.5642C58.1511 101.499 61.3881 103.074 64.776 104.257C68.2653 105.485 71.8378 106.463 75.4665 107.186C79.2967 107.968 83.1577 108.382 87.0032 108.98C91.193 109.386 95.2182 110.813 98.7245 113.136C101.801 115.421 104.462 118.825 104.601 122.781C104.619 122.872 104.667 122.953 104.739 123.012C104.81 123.07 104.9 123.102 104.993 123.102C105.085 123.102 105.175 123.07 105.247 123.012C105.318 122.953 105.367 122.872 105.385 122.781C105.53 121.102 106.013 119.469 106.806 117.98C107.599 116.492 108.685 115.178 110 114.117C112.856 111.742 116.288 110.156 119.952 109.517C123.813 108.689 127.766 108.428 131.658 107.738C135.364 107.087 139.026 106.211 142.625 105.115C146.072 104.067 149.402 102.67 152.562 100.944C155.531 99.2729 158.161 97.1412 161.161 95.5004C167.421 92.0653 174.19 89.5658 180.189 85.6553C187.421 80.9019 194.004 75.2316 199.77 68.7868L199.109 68.4187C196.34 82.4196 189.218 95.2704 180.112 106.174C177.595 109.166 174.925 112.027 172.113 114.746C171.744 115.099 172.313 115.651 172.667 115.298C183.068 105.506 191.2 93.5682 196.494 80.3187C197.945 76.5199 199.072 72.6058 199.863 68.6181C199.863 68.2654 199.494 67.928 199.201 68.2347C193.899 74.1321 187.914 79.3826 181.373 83.8765C175.22 88.063 168.375 90.7619 161.853 94.1969C160.315 94.979 158.869 95.8224 157.439 96.7425C156.008 97.6626 154.547 98.8128 153.024 99.7175C149.735 101.653 146.229 103.197 142.579 104.318C138.983 105.428 135.32 106.309 131.612 106.956C127.612 107.676 123.551 107.952 119.567 108.811C115.733 109.514 112.158 111.23 109.215 113.78C107.888 114.905 106.796 116.281 106.004 117.829C105.212 119.376 104.735 121.065 104.601 122.797H105.385C105.154 116.279 99.109 111.403 93.3099 109.578C89.3872 108.534 85.3845 107.815 81.3427 107.431C77.553 106.904 73.8019 106.131 70.1136 105.115C66.3641 104.14 62.725 102.784 59.2536 101.067C56.1772 99.5335 53.4085 97.2639 50.3782 95.5004C44.0715 91.8506 37.1495 89.3664 30.9505 85.502C23.4416 80.7339 16.6383 74.9425 10.7382 68.296C10.4613 67.9893 10.0151 68.296 10.0767 68.6794C12.9478 81.8212 18.8931 94.1008 27.4279 104.517C39.961 120.448 56.8066 132.469 75.9741 139.159C82.26 141.545 88.8958 142.886 95.6172 143.131C97.3334 143.164 99.0499 143.082 100.755 142.886C101.463 142.794 102.185 142.702 102.908 142.564C103.7 142.299 104.536 142.19 105.37 142.242C108.527 142.885 111.746 143.178 114.968 143.116C121.594 142.795 128.126 141.424 134.319 139.052C147.065 134.562 158.833 127.686 168.991 118.794C170.252 117.69 171.498 116.54 172.713 115.359C173.082 115.022 172.528 114.455 172.159 114.807Z" fill="#DE923E"/>
<path d="M91.7401 120.635C91.4605 119.519 90.7841 118.541 89.8365 117.884C88.8889 117.227 87.7344 116.935 86.5871 117.062C85.5485 117.09 84.5552 117.492 83.7914 118.194C83.0276 118.896 82.5454 119.851 82.434 120.881C82.3786 121.581 82.5035 122.284 82.797 122.923C83.0904 123.561 83.5425 124.115 84.1106 124.53C84.6473 124.931 85.2666 125.208 85.9237 125.34C86.5808 125.473 87.2593 125.458 87.91 125.297C88.8497 125.065 89.7028 124.568 90.3681 123.867C91.0334 123.166 91.4829 122.289 91.6633 121.341L91.7401 120.635Z" fill="#DE923E"/>
<path d="M92.1102 120.544C91.8643 119.673 91.3999 118.879 90.7609 118.237C90.1218 117.595 89.3292 117.127 88.4578 116.875C87.5865 116.623 86.6651 116.597 85.7808 116.799C84.8965 117.001 84.0784 117.424 83.4038 118.029C82.7023 118.798 82.233 119.75 82.0502 120.774C81.9776 121.297 82.0096 121.829 82.1442 122.339C82.2789 122.85 82.5136 123.329 82.8347 123.749C83.4869 124.658 84.4301 125.319 85.5093 125.623C86.5884 125.926 87.7392 125.855 88.7722 125.42C89.8426 124.977 90.7463 124.21 91.3563 123.227C91.8166 122.437 92.0804 121.548 92.1254 120.636C92.1254 120.145 91.3872 120.145 91.3411 120.636C91.3003 121.383 91.0806 122.11 90.7006 122.755C90.3206 123.401 89.7913 123.947 89.1567 124.347C88.3501 124.869 87.3884 125.101 86.4314 125.003C85.4745 124.905 84.5797 124.484 83.8959 123.81C83.2065 123.131 82.8047 122.214 82.7731 121.249C82.8501 120.357 83.193 119.507 83.7576 118.811C84.1628 118.361 84.6623 118.006 85.2205 117.77C85.7787 117.534 86.3819 117.424 86.9878 117.446C87.9853 117.41 88.9646 117.719 89.7604 118.32C90.5562 118.92 91.1198 119.776 91.3563 120.743C91.464 121.234 92.2179 121.034 92.1102 120.544Z" fill="#DE923E"/>
<path d="M92.6485 120.389C92.4075 119.545 91.9812 118.765 91.4005 118.105C90.8198 117.445 90.0993 116.922 89.2909 116.575C88.4826 116.227 87.6068 116.062 86.7269 116.094C85.847 116.125 84.9852 116.351 84.2036 116.755C83.4176 117.203 82.7547 117.838 82.2743 118.603C81.7939 119.368 81.5108 120.24 81.4502 121.141C81.4592 122.16 81.7669 123.154 82.3353 124.002C82.9038 124.849 83.7081 125.512 84.6496 125.91C85.6129 126.277 86.6558 126.386 87.6746 126.227C88.6934 126.068 89.6528 125.645 90.457 125.002C91.2612 124.358 91.8823 123.516 92.2587 122.559C92.635 121.601 92.7536 120.563 92.6023 119.546C92.1981 117.821 91.3346 116.237 90.1029 114.96C88.8711 113.683 87.3165 112.762 85.6033 112.292C82.7862 111.388 79.733 111.555 77.0321 112.761C74.3311 113.967 72.1735 116.127 70.9748 118.825C70.1118 120.896 69.8347 123.163 70.1737 125.38C70.5127 127.597 71.4548 129.679 72.8976 131.4C74.2846 132.948 76.144 133.999 78.1891 134.39C80.3192 134.654 82.4778 134.224 84.342 133.163C85.5833 132.412 87.0339 132.079 88.4798 132.212C89.5164 132.394 90.4545 132.938 91.1256 133.746C92.4485 135.279 93.2944 137.15 95.0634 138.224C96.0723 138.786 97.2272 139.034 98.3787 138.935C99.5302 138.837 100.626 138.397 101.524 137.672C103.482 135.962 104.818 133.654 105.323 131.108C105.391 130.868 105.36 130.612 105.237 130.394C105.114 130.177 104.91 130.018 104.67 129.951C104.429 129.883 104.171 129.914 103.954 130.037C103.736 130.159 103.576 130.362 103.508 130.602C103.115 132.499 102.23 134.26 100.94 135.709C100.345 136.365 99.554 136.813 98.6844 136.987C97.8148 137.16 96.9121 137.051 96.1095 136.675C94.9641 135.807 94.0065 134.716 93.2944 133.47C92.5412 132.287 91.4772 131.332 90.218 130.71C88.5511 130.034 86.6857 130.034 85.0188 130.71C83.3758 131.65 81.5705 132.274 79.6966 132.55C75.9895 132.55 73.19 129.483 72.267 126.155C71.8742 124.806 71.7749 123.39 71.9758 121.999C72.1767 120.609 72.6732 119.278 73.432 118.095C74.1907 116.911 75.1944 115.903 76.3756 115.138C77.5568 114.373 78.8883 113.868 80.2811 113.657C82.1693 113.374 84.0988 113.586 85.8803 114.27C88.5721 115.375 91.6793 118.503 90.5871 121.647C90.2704 122.57 89.6275 123.347 88.7783 123.832C87.9291 124.318 86.9318 124.478 85.9725 124.284C85.4677 124.166 84.9955 123.938 84.5888 123.618C84.1821 123.297 83.851 122.891 83.6191 122.429C83.4093 122.003 83.3091 121.532 83.3279 121.058C83.3467 120.584 83.4838 120.122 83.7267 119.714C85.2649 116.647 90.0949 117.66 90.7871 120.788C91.0332 121.969 92.8638 121.463 92.6023 120.282L92.6485 120.389Z" fill="#DE923E"/>
<path d="M57.0538 113.597C56.8342 114.294 56.3854 114.897 55.7797 115.309C55.1741 115.721 54.447 115.917 53.7158 115.867C52.9894 115.8 52.3074 115.488 51.7819 114.984C51.2564 114.48 50.9185 113.812 50.8239 113.091C50.5009 109.518 55.4386 108.49 56.9768 111.557C58.515 114.624 56.4692 117.937 53.7312 119.225C52.2259 119.836 50.5665 119.962 48.9858 119.585C47.4051 119.208 45.9824 118.348 44.9172 117.124C43.8662 115.939 43.1452 114.499 42.8263 112.95C42.5075 111.4 42.6018 109.794 43.0999 108.292C43.598 106.79 44.4825 105.444 45.6651 104.389C46.8476 103.334 48.2869 102.607 49.8394 102.28C52.1286 101.729 54.5176 101.738 56.8023 102.307C59.0871 102.875 61.1999 103.987 62.9605 105.546C67.3775 109.719 70.0017 115.435 70.2824 121.494C70.2824 122.691 72.2359 122.691 72.159 121.494C72.021 118.087 71.1889 114.743 69.7133 111.667C68.2377 108.59 66.1495 105.845 63.5758 103.598C58.7766 99.6574 50.8701 98.5226 45.5479 102.065C43.9069 103.192 42.6027 104.74 41.7739 106.547C40.9451 108.353 40.6227 110.35 40.8408 112.324C41.0483 114.291 41.8038 116.16 43.0216 117.721C44.2395 119.282 45.8711 120.473 47.7321 121.157C49.6371 121.838 51.7181 121.85 53.6311 121.192C55.5441 120.534 57.1748 119.245 58.2536 117.538C60.0995 114.471 59.6072 109.456 55.7309 108.107C54.7811 107.793 53.7592 107.765 52.7938 108.028C51.8284 108.291 50.9624 108.833 50.3049 109.585C49.6474 110.337 49.2276 111.267 49.0983 112.256C48.9689 113.245 49.1358 114.251 49.578 115.146C50.0737 116.012 50.8126 116.716 51.7038 117.17C52.595 117.624 53.5998 117.808 54.5947 117.701C55.5897 117.593 56.5313 117.198 57.3043 116.565C58.0772 115.931 58.6478 115.086 58.9458 114.134C59.3149 112.984 57.4997 112.493 57.1306 113.643L57.0538 113.597Z" fill="#DE923E"/>
<path d="M50.4858 120.742C51.4198 120.41 52.4351 120.379 53.3876 120.655C54.3401 120.93 55.1816 121.497 55.7926 122.276C56.4694 123.196 56.8233 124.423 57.8077 125.006C58.7924 125.361 59.8382 125.517 60.8842 125.466C62.165 125.63 63.3384 126.265 64.176 127.244C64.9955 128.237 65.4028 129.504 65.3143 130.787C65.8467 129.255 65.9342 127.605 65.5668 126.026C65.1994 124.447 64.3921 123.003 63.2377 121.862C62.0385 120.752 60.5547 119.994 58.9503 119.672C57.346 119.35 55.6835 119.476 54.1468 120.037L50.4858 120.742Z" fill="#DE923E"/>
<path d="M50.5935 121.142C51.3343 120.88 52.1322 120.821 52.9035 120.973C53.6747 121.124 54.3912 121.479 54.9776 122C56.0389 122.982 56.3158 124.623 57.6233 125.389C58.9308 126.156 60.8689 125.62 62.3763 126.34C63.2184 126.737 63.9203 127.379 64.3898 128.181C64.8593 128.983 65.0744 129.907 65.0068 130.833C65.0068 131.293 65.6375 131.339 65.7759 130.925C66.3785 129.181 66.4239 127.293 65.9061 125.522C65.3882 123.751 64.3325 122.183 62.8841 121.034C61.7632 120.203 60.4694 119.634 59.0982 119.369C57.727 119.103 56.3135 119.148 54.9622 119.501C54.5174 119.642 54.0656 119.759 53.6085 119.853L50.3783 120.436C49.8861 120.528 50.1013 121.28 50.5935 121.203L53.8239 120.62C54.4392 120.513 54.9928 120.283 55.6081 120.16C56.7399 119.93 57.9067 119.93 59.0385 120.16C60.1657 120.405 61.2282 120.885 62.1559 121.568C63.0836 122.252 63.8555 123.124 64.4208 124.126C64.9861 125.129 65.3318 126.24 65.4355 127.385C65.5392 128.53 65.3982 129.685 65.022 130.772L65.7911 130.879C65.8408 130 65.675 129.121 65.3078 128.32C64.9407 127.518 64.3832 126.818 63.6838 126.279C62.9778 125.747 62.1555 125.39 61.2842 125.236C60.3029 125.219 59.3249 125.116 58.3616 124.929C57.3771 124.561 56.9772 123.565 56.485 122.736C56.0964 122.077 55.5722 121.508 54.9468 121.065C54.2796 120.61 53.5151 120.316 52.714 120.207C51.9129 120.097 51.0974 120.176 50.3321 120.436C49.9168 120.544 50.1166 121.295 50.5935 121.142Z" fill="#DE923E"/>
<path d="M42.4866 106.94C41.6887 105.71 40.7604 104.569 39.7178 103.536C39.3239 102.383 39.101 101.18 39.0562 99.9629C38.712 98.8789 38.1384 97.8812 37.3742 97.0373C36.6099 96.1933 35.6729 95.5228 34.6263 95.071C32.5805 94.0435 30.3192 93.5374 28.2119 92.6327C26.1045 91.7279 23.2587 88.9983 21.5667 83.9224C21.9366 87.7246 22.8216 91.4594 24.1971 95.0249C25.5929 98.6236 28.3568 101.528 31.8883 103.107C33.688 103.797 35.6569 103.996 37.5028 104.64C38.4408 104.857 39.3224 105.268 40.0909 105.847C40.8593 106.425 41.4973 107.158 41.9635 107.998L42.4866 106.94Z" fill="#DE923E"/>
<path d="M42.8255 106.803C42.149 105.678 41.3267 104.647 40.3797 103.736C39.426 102.694 39.7489 101.191 39.4413 99.8874C38.8106 97.1578 36.365 95.3636 33.8423 94.3208C31.3196 93.278 28.443 92.7872 26.3664 91.0084C24.2927 89.0465 22.7706 86.5775 21.9517 83.8469C21.9092 83.7653 21.8398 83.7008 21.7551 83.6644C21.6703 83.628 21.5756 83.6219 21.4869 83.6472C21.3982 83.6724 21.321 83.7275 21.2684 83.803C21.2157 83.8786 21.1908 83.9699 21.198 84.0616C22.0132 89.7816 22.9824 95.885 27.1203 100.271C28.9511 102.209 31.3261 103.55 33.9345 104.12C36.7494 104.81 40.272 105.224 41.6256 108.153C41.6586 108.214 41.7074 108.265 41.767 108.3C41.8266 108.335 41.8946 108.354 41.964 108.354C42.0333 108.354 42.1015 108.335 42.1611 108.3C42.2207 108.265 42.2696 108.214 42.3025 108.153L42.7639 107.156C42.9792 106.711 42.3025 106.313 42.0871 106.773L41.6256 107.77H42.3025C41.1642 105.408 38.6108 104.411 36.1496 103.844C34.5766 103.557 33.0323 103.131 31.535 102.571C30.3146 102.013 29.1926 101.262 28.2123 100.347C23.69 96.0843 22.7055 89.7049 21.8749 83.8469L21.1212 84.0616C21.9287 86.6996 23.3398 89.1144 25.2435 91.1157C27.0271 92.621 29.1313 93.7013 31.3964 94.2747C34.3651 95.3022 38.057 96.9124 38.6415 100.409C38.5974 101.678 38.8891 102.937 39.4874 104.058C40.4322 105 41.287 106.026 42.041 107.126C42.0838 107.229 42.1662 107.312 42.27 107.355C42.3739 107.398 42.4907 107.398 42.5947 107.356C42.6987 107.313 42.7814 107.231 42.8247 107.127C42.868 107.024 42.8683 106.907 42.8255 106.803Z" fill="#DE923E"/>
<path d="M71.0668 125.098C71.2941 126.698 71.8547 128.234 72.7126 129.606C73.5526 130.991 74.7861 132.096 76.2566 132.781C77.7272 133.466 79.3685 133.701 80.9729 133.455C82.4587 133.024 83.8967 132.444 85.2646 131.722C86.6757 131.098 88.2746 131.043 89.7255 131.569C92.6327 132.658 93.2942 136.492 96.1245 137.703C97.101 138.043 98.1563 138.087 99.158 137.831C100.16 137.574 101.063 137.028 101.754 136.262L102.031 135.97C98.5857 140.019 92.7095 139.911 88.664 139.528C85.1858 139.258 81.807 138.243 78.7579 136.553C75.7738 134.805 71.4669 130.204 71.1592 125.527L71.0668 125.098Z" fill="#DE923E"/>
<path d="M70.6975 125.205C71.0513 128.016 72.5055 130.573 74.743 132.32C75.7676 133.098 76.9651 133.619 78.2343 133.838C79.5035 134.057 80.807 133.967 82.0342 133.577C83.4955 133.071 84.803 132.167 86.2951 131.783C87.0834 131.561 87.9135 131.53 88.7162 131.693C89.519 131.856 90.2711 132.207 90.9098 132.719C92.6326 134.252 93.4016 136.568 95.4013 137.81C96.5541 138.396 97.8757 138.563 99.1389 138.284C100.402 138.004 101.528 137.294 102.323 136.276L101.77 135.724C98.5854 139.343 93.5094 139.589 89.0178 139.19C83.511 138.699 78.2502 136.813 74.7123 132.473C73.6866 131.259 72.8564 129.893 72.2511 128.425C71.8595 127.303 71.5963 126.14 71.4666 124.959C71.4666 124.468 70.6206 124.668 70.7129 125.174C70.8399 126.305 71.0821 127.42 71.4358 128.502C71.9358 129.795 72.6141 131.013 73.451 132.121C74.8828 134.146 76.7345 135.84 78.8808 137.089C83.8157 139.702 89.452 140.695 94.9861 139.926C97.7949 139.637 100.402 138.34 102.323 136.276C102.646 135.893 102.108 135.341 101.77 135.724C100.031 137.626 97.1549 138.454 95.1091 136.568C93.5709 135.218 92.8325 133.225 91.2328 131.967C90.3053 131.299 89.2093 130.902 88.0681 130.821C86.9268 130.74 85.7856 130.978 84.7723 131.507C83.4978 132.183 82.1441 132.698 80.7422 133.041C79.3916 133.261 78.0059 133.079 76.758 132.519C75.2944 131.796 74.0403 130.712 73.1143 129.37C72.1883 128.028 71.6212 126.473 71.4666 124.852C71.3743 124.499 70.6206 124.698 70.6975 125.205Z" fill="#DE923E"/>
<path d="M57.9923 113.842C57.7521 114.678 57.253 115.417 56.5661 115.954C55.8793 116.49 55.04 116.796 54.1681 116.829C53.2962 116.861 52.4364 116.618 51.7115 116.133C50.9866 115.649 50.4338 114.949 50.132 114.133C49.848 113.32 49.8274 112.439 50.073 111.613C50.3187 110.788 50.8182 110.06 51.501 109.533C52.2068 109.023 53.0513 108.74 53.9223 108.721C54.7933 108.702 55.6494 108.948 56.3771 109.425C57.0393 109.926 57.569 110.58 57.9202 111.331C58.2713 112.082 58.4334 112.907 58.3922 113.734L57.9923 113.842Z" fill="#DE923E"/>
<path d="M57.5925 113.734C57.3831 114.459 56.9591 115.103 56.3759 115.583C55.7927 116.064 55.0774 116.357 54.3241 116.425C53.5708 116.493 52.8145 116.332 52.1542 115.964C51.494 115.596 50.9607 115.038 50.6243 114.363C50.3072 113.698 50.1951 112.954 50.3019 112.225C50.4086 111.496 50.7296 110.815 51.2242 110.268C51.7695 109.711 52.4711 109.33 53.2369 109.177C54.0027 109.024 54.7971 109.105 55.5159 109.409C56.2986 109.819 56.9466 110.445 57.3829 111.212C57.8192 111.978 58.0255 112.854 57.977 113.734L58.254 113.351L57.854 113.458C57.7572 113.491 57.6766 113.559 57.6289 113.65C57.5812 113.74 57.57 113.845 57.5975 113.943C57.6251 114.041 57.6893 114.125 57.7771 114.178C57.8648 114.23 57.9695 114.247 58.0694 114.225L58.4694 114.102C58.5509 114.079 58.623 114.032 58.6755 113.965C58.7281 113.899 58.7581 113.818 58.7615 113.734C58.8047 112.777 58.5943 111.825 58.1515 110.974C57.7086 110.123 57.049 109.404 56.2388 108.888C55.4334 108.454 54.5185 108.263 53.6059 108.339C52.6933 108.415 51.8229 108.755 51.1012 109.317C50.4204 109.896 49.9227 110.658 49.6687 111.513C49.4147 112.368 49.4154 113.278 49.6706 114.133C50.0124 115.014 50.6184 115.77 51.4062 116.296C52.1939 116.822 53.1251 117.094 54.0731 117.074C55.0211 117.053 55.9399 116.743 56.7045 116.184C57.4691 115.624 58.0423 114.844 58.3462 113.949C58.3747 113.849 58.3625 113.742 58.312 113.652C58.2615 113.561 58.1771 113.494 58.0771 113.466C57.9772 113.437 57.8698 113.449 57.7789 113.5C57.6881 113.55 57.621 113.634 57.5925 113.734V113.734Z" fill="#DE923E"/>
</g>
<defs>
<clipPath id="clip0_1397_35803">
<rect width="198.369" height="88.7746" fill="white" transform="translate(5.81537 60.5522)"/>
</clipPath>
</defs>
</svg>
